<svg id="Layer_1" xmlns="http://www.w3.org/2000/svg" viewBox="0 0 44 44"><style>.st0{fill:#8C8C8C;}</style><path class="st0" d="M22 44C9.9 44 0 34.1 0 22 0 9.8 9.9 0 22 0s22 9.8 22 22c0 12.1-9.8 22-22 22zm0-41.3C11.4 2.7 2.8 11.4 2.8 22S11.4 41.2 22 41.2 41.2 32.6 41.2 22 32.6 2.7 22 2.7zm7.9 27.1c-.5.5-1.4.5-2 0L22 23.9l-5.8 5.8c-.5.5-1.4.5-1.9 0s-.5-1.4 0-1.9l5.8-5.8-5.9-5.9c-.5-.5-.5-1.4 0-2 .5-.5 1.4-.5 2 0L22 20l5.8-5.8c.5-.5 1.4-.5 1.9 0s.5 1.4 0 1.9L24 22l5.9 5.9c.5.5.5 1.4 0 1.9z"/></svg>