<svg id="Layer_1" xmlns="http://www.w3.org/2000/svg" viewBox="0 0 28.6 28.6"><style>.st0{fill:#26323F;}</style><path class="st0" d="M27.8 24.1l-5.7-5.7.8-.8-.8-.8-2.3 2.3-3.8-3.8 4.5-4.5c.6.2 1.2.3 1.9.3 1.5 0 2.9-.6 4-1.6 1.6-1.6 2.1-4.1 1.2-6.2l-.3-.7L25 5.1h-2V3.2L25.5.7l-.7-.3c-.7-.2-1.5-.4-2.2-.4-1.5 0-2.9.6-4 1.6-1.5 1.5-2 3.8-1.3 5.8L12.8 12 6.4 5.6l.8-.8L3 .7.7 3l4.1 4.1.8-.8 6.4 6.4-4.5 4.5c-.6-.1-1.3-.2-1.9-.2-1.5 0-2.9.6-4 1.6C0 20.2-.5 22.7.4 24.8l.3.7L3.3 23h1.9v2l-2.4 2.4.7.3c.7.3 1.5.5 2.2.5 1.5 0 2.9-.6 4-1.6 1.5-1.5 2-3.8 1.3-5.8l4.5-4.5 3.8 3.8-2.3 2.3.8.8.8-.8 5.7 5.7c.5.5 1.2.8 1.9.8s1.4-.3 1.9-.8c.8-1.3.8-3-.3-4zM2.2 3l.8-.8 2.6 2.6-.7.8L2.2 3zm7.6 17.8c.7 1.7.4 3.7-1 5-.9.9-2 1.3-3.2 1.3-.3 0-.7 0-1-.1l1.6-1.6v-3.5H2.8l-1.6 1.6c-.4-1.5.1-3.1 1.2-4.2.9-.9 2-1.3 3.2-1.3.6 0 1.2.1 1.8.4l.3.1L18.6 7.7l-.1-.3c-.7-1.7-.4-3.7 1-5 .9-.9 2-1.3 3.2-1.3.4 0 .7 0 1 .1L22 2.8v3.4h3.5L27 4.6c.4 1.5-.1 3.1-1.2 4.2-.9.9-2 1.3-3.2 1.3-.6 0-1.2-.1-1.8-.4l-.3-.1L9.6 20.4l.2.4zm17.3 6.3c-.3.3-.7.5-1.1.5s-.8-.2-1.1-.5l-5.7-5.7 2.3-2.3 5.7 5.7c.5.7.5 1.7-.1 2.3z"/></svg>