<svg id="Layer_1" xmlns="http://www.w3.org/2000/svg" viewBox="0 0 32 25.6"><style>.st0{fill:#FFFFFF;}</style><path class="st0" d="M12 15.1l-.8-.8L16 9.6l4.8 4.8-.8.7-3.5-3.5v14h-1.1v-14c.1 0-3.4 3.5-3.4 3.5zm14.1-6.6v-.2c0-4.6-3.7-8.3-8.3-8.3-3.3 0-6.1 1.9-7.4 4.7-.5-.3-1.2-.5-1.9-.5-2.1 0-3.9 1.5-4.2 3.6C1.8 8.7 0 11 0 13.9c0 3.5 2.9 6.4 6.4 6.4h6.9v-1.1H6.4c-2.9 0-5.3-2.4-5.3-5.3 0-2.3 1.5-4.3 3.6-5l.6-.2.1-.7C5.6 6.4 7 5.3 8.5 5.3c.5 0 1 .1 1.4.3l1 .5.5-1C12.6 2.6 15.1 1 17.9 1c4 0 7.2 3.2 7.2 7.2V9.6h1.1c2.6 0 4.8 2.2 4.8 4.8 0 2.6-2.1 4.8-4.8 4.8h-7.5v1.1h7.5c3.2 0 5.8-2.6 5.8-5.9 0-3.2-2.6-5.9-5.9-5.9z"/></svg>