<?xml version="1.0" encoding="UTF-8"?>
<svg xmlns="http://www.w3.org/2000/svg" xmlns:xlink="http://www.w3.org/1999/xlink" version="1.2" >
<font id="Libertad Bold Italic">
<font-face  font-family="Libertad" units-per-em="2048" ascent="1480" descent="-396" font-style="italic" font-weight="700" font-stretch="normal" slope="-12" cap-height="1342" x-height="1044" underline-position="-345" underline-thickness="110" />
<missing-glyph  horiz-adv-x="1296" d="M499 998 L700 761 L973 998 L1053 903 L779 667 L980 427 L870 332 L669 569 L392 332 L312 427 L589 667 L389 903 L499 998 Z M79 0 L1077 0 L1288 1331 L290 1331 L79 0 Z " />
<glyph glyph-name="CR" unicode="&#xd;" horiz-adv-x="456" d="" />
<glyph glyph-name="space" unicode="&#x20;" horiz-adv-x="426" d="" />
<glyph glyph-name="exclam" unicode="&#x21;" horiz-adv-x="597" d="M289 1330 L189 421 L390 421 L577 1330 L289 1330 Z M90 103 C90 26 139 -20 215 -20 C323 -20 403 46 403 163 C403 240 354 286 278 286 C170 286 90 220 90 103 L90 103 Z " />
<glyph glyph-name="quotedbl" unicode="&#x22;" horiz-adv-x="866" d="M627 1491 L574 931 L754 931 L879 1491 L627 1491 Z M279 1491 L226 931 L406 931 L532 1491 L279 1491 Z " />
<glyph glyph-name="numbersign" unicode="&#x23;" horiz-adv-x="1296" d="M991 1330 L890 992 L648 992 L748 1330 L529 1330 L429 992 L195 992 L139 801 L372 801 L291 528 L56 528 L0 338 L235 338 L135 0 L354 0 L453 338 L695 338 L596 0 L815 0 L915 338 L1142 338 L1198 528 L972 528 L1053 801 L1279 801 L1336 992 L1109 992 L1209 1330 L991 1330 Z M591 801 L834 801 L752 528 L510 528 L591 801 Z " />
<glyph glyph-name="dollar" unicode="&#x24;" horiz-adv-x="940" d="M537 1492 L517 1253 C313 1213 166 1072 166 878 C166 745 240 660 371 594 C506 527 599 474 599 397 C599 311 526 277 401 277 C273 277 176 321 132 347 L50 158 C93 121 192 78 322 68 L269 -162 L488 -162 L507 75 C737 110 864 238 864 443 C864 587 779 665 595 758 C499 807 419 846 429 929 C434 998 487 1054 617 1054 C715 1054 814 1020 866 995 L940 1186 C904 1207 825 1250 701 1262 L755 1492 L537 1492 Z " />
<glyph glyph-name="percent" unicode="&#x25;" horiz-adv-x="1555" d="M1328 1351 L140 83 L266 -20 L1455 1247 L1328 1351 Z M414 731 C623 731 774 879 774 1090 C774 1238 679 1350 523 1350 C314 1350 162 1201 162 990 C162 843 258 731 414 731 L414 731 Z M449 896 C392 896 367 947 367 1011 C367 1107 416 1185 486 1185 C544 1185 569 1134 569 1069 C569 973 519 896 449 896 L449 896 Z M1078 -20 C1287 -20 1438 128 1438 339 C1438 487 1343 599 1187 599 C978 599 826 450 826 239 C826 92 922 -20 1078 -20 L1078 -20 Z M1113 145 C1056 145 1031 196 1031 260 C1031 356 1080 434 1150 434 C1208 434 1233 383 1233 318 C1233 222 1183 145 1113 145 L1113 145 Z " />
<glyph glyph-name="ampersand" unicode="&#x26;" horiz-adv-x="1243" d="M1038 1079 C1038 1236 899 1350 702 1350 C459 1350 247 1199 247 989 C247 901 273 852 358 707 C173 624 47 485 47 300 C47 106 240 -20 489 -20 C581 -20 681 2 736 29 L794 -75 C826 -133 838 -188 836 -244 C834 -295 821 -345 802 -396 L996 -416 C1026 -362 1047 -300 1054 -238 C1064 -159 1051 -77 1009 -3 L941 120 C1099 217 1181 351 1181 501 C1181 687 1051 801 914 838 C969 878 1038 966 1038 1079 L1038 1079 Z M739 703 C844 681 931 606 931 474 C931 392 901 330 849 283 L564 796 C509 894 493 937 493 1000 C493 1075 546 1134 630 1145 C652 1148 675 1148 697 1143 C752 1133 791 1095 791 1037 C791 956 735 893 663 847 L739 703 Z M568 182 C444 172 320 219 311 346 C305 434 357 514 441 559 L623 230 C607 209 585 192 568 182 L568 182 Z " />
<glyph glyph-name="quotesingle" unicode="&#x27;" horiz-adv-x="518" d="M279 1491 L226 931 L406 931 L532 1491 L279 1491 Z " />
<glyph glyph-name="parenleft" unicode="&#x28;" horiz-adv-x="738" d="M449 561 C478 1062 758 1367 920 1519 L807 1640 C653 1540 177 1146 177 491 C177 49 403 -232 497 -309 L650 -187 C562 -72 419 174 449 561 L449 561 Z " />
<glyph glyph-name="parenright" unicode="&#x29;" horiz-adv-x="778" d="M369 768 C340 267 59 -38 -103 -190 L11 -311 C165 -211 640 183 640 838 C640 1280 415 1561 321 1637 L168 1516 C256 1401 399 1155 369 768 L369 768 Z " />
<glyph glyph-name="asterisk" unicode="&#x2a;" horiz-adv-x="856" d="M459 1254 L251 1344 L157 1141 L381 1091 C381 1091 380 1091 380 1091 L190 921 L326 784 L503 991 L617 784 L795 922 L658 1091 C658 1091 657 1091 657 1091 L898 1141 L868 1344 C790 1315 709 1283 630 1254 L690 1501 L479 1501 L459 1254 Z " />
<glyph glyph-name="plus" unicode="&#x2b;" horiz-adv-x="1358" d="M662 1147 L602 770 L228 770 L195 559 L569 559 L509 183 L725 183 L785 559 L1160 559 L1193 770 L818 770 L878 1147 L662 1147 Z " />
<glyph glyph-name="comma" unicode="&#x2c;" horiz-adv-x="504" d="M35 -297 C203 -225 347 -106 347 81 C347 183 301 259 269 289 L47 230 C77 196 124 129 118 35 C112 -78 28 -146 -53 -191 L35 -297 Z " />
<glyph glyph-name="hyphen" unicode="&#x2d;" horiz-adv-x="1055" d="M197 427 L814 427 L847 638 L231 638 L197 427 Z " />
<glyph glyph-name="period" unicode="&#x2e;" horiz-adv-x="528" d="M57 103 C57 26 106 -20 183 -20 C291 -20 370 46 370 163 C370 240 322 286 245 286 C137 286 57 220 57 103 L57 103 Z " />
<glyph glyph-name="slash" unicode="&#x2f;" horiz-adv-x="891" d="M877 1585 L-188 -250 L68 -250 L1133 1585 L877 1585 Z " />
<glyph glyph-name="zero" unicode="0" horiz-adv-x="1266" d="M599 195 C471 195 405 327 405 542 C405 882 543 1135 727 1135 C855 1135 922 1003 922 788 C922 448 783 195 599 195 L599 195 Z M555 -20 C950 -20 1209 345 1209 812 C1209 1131 1054 1350 771 1350 C376 1350 117 985 117 518 C117 198 272 -20 555 -20 L555 -20 Z " />
<glyph glyph-name="one" unicode="1" horiz-adv-x="727" d="M465 0 L679 1350 L614 1350 C478 1330 255 1306 131 1296 L112 1084 C181 1087 301 1097 370 1106 L195 0 L465 0 Z " />
<glyph glyph-name="two" unicode="2" horiz-adv-x="995" d="M-3 0 L849 0 L883 221 L357 221 C464 323 573 421 673 522 C830 678 938 831 938 1020 C938 1221 811 1350 564 1350 C397 1350 237 1289 194 1270 L239 1075 C284 1091 390 1122 494 1122 C591 1122 649 1073 649 976 C649 866 601 780 440 610 C331 496 197 361 27 187 L-3 0 Z " />
<glyph glyph-name="three" unicode="3" horiz-adv-x="976" d="M504 773 L295 773 L262 565 L395 565 C510 565 582 516 582 407 C582 261 465 208 321 208 C198 208 106 248 66 269 L-23 65 C26 31 133 -20 311 -20 C628 -20 870 143 870 431 C870 589 765 672 699 699 C803 758 919 874 919 1034 C919 1220 802 1350 547 1350 C377 1350 218 1285 179 1266 L225 1071 C265 1086 374 1122 477 1122 C583 1122 627 1069 627 985 C627 866 560 800 504 773 L504 773 Z " />
<glyph glyph-name="four" unicode="4" horiz-adv-x="1121" d="M705 928 L631 495 L358 495 L828 1330 L575 1350 L77 475 L47 280 L595 280 L551 0 L804 0 L848 280 L1030 280 L1063 495 L882 495 L944 928 L705 928 Z " />
<glyph glyph-name="five" unicode="5" horiz-adv-x="1016" d="M381 208 C271 208 174 245 128 268 L43 63 C93 27 201 -20 375 -20 C710 -20 941 167 941 483 C941 702 788 842 555 842 C521 842 493 837 482 835 L536 1109 L978 1109 L1013 1330 L316 1330 L179 611 C202 616 328 624 446 624 C581 624 652 558 652 443 C652 282 530 208 381 208 L381 208 Z " />
<glyph glyph-name="six" unicode="6" horiz-adv-x="1146" d="M800 1122 C906 1122 989 1096 1016 1088 L1099 1294 C1072 1308 969 1350 830 1350 C333 1350 117 917 117 437 C117 131 261 -20 498 -20 C827 -20 1034 185 1034 477 C1034 696 891 829 646 815 C539 811 468 771 442 750 C482 955 603 1122 800 1122 L800 1122 Z M546 195 C415 195 375 346 412 542 C447 571 510 605 592 607 C686 609 751 554 751 435 C751 280 678 195 546 195 L546 195 Z " />
<glyph glyph-name="seven" unicode="7" horiz-adv-x="907" d="M979 1330 L174 1330 L141 1115 L658 1115 L67 0 L346 0 L948 1137 L979 1330 Z " />
<glyph glyph-name="eight" unicode="8" horiz-adv-x="1100" d="M465 -20 C753 -20 986 129 986 392 C986 555 866 652 796 696 C911 749 1062 851 1062 1049 C1062 1239 913 1350 692 1350 C419 1350 196 1182 196 933 C196 805 270 716 368 659 C236 598 67 475 67 278 C67 77 242 -20 465 -20 L465 -20 Z M508 188 C420 188 342 235 342 331 C342 427 414 504 555 573 C642 526 714 453 714 366 C714 258 610 188 508 188 L508 188 Z M784 1008 C784 903 697 836 600 783 L577 804 C507 851 473 899 473 967 C473 1071 554 1143 649 1143 C730 1143 784 1091 784 1008 L784 1008 Z " />
<glyph glyph-name="nine" unicode="9" horiz-adv-x="1140" d="M394 208 C281 208 199 239 171 252 L87 46 C121 27 230 -20 385 -20 C873 -20 1063 386 1063 893 C1063 1199 927 1350 682 1350 C357 1350 146 1145 146 853 C146 634 289 501 535 515 C641 519 713 559 740 580 C704 366 588 208 394 208 L394 208 Z M634 1135 C766 1135 804 982 767 788 C732 759 670 725 588 723 C495 721 429 776 429 895 C429 1050 502 1135 634 1135 L634 1135 Z " />
<glyph glyph-name="colon" unicode="&#x3a;" horiz-adv-x="533" d="M178 861 C178 784 227 738 304 738 C411 738 491 804 491 921 C491 998 443 1044 366 1044 C258 1044 178 978 178 861 L178 861 Z M57 103 C57 26 106 -20 183 -20 C291 -20 370 46 370 163 C370 240 322 286 245 286 C137 286 57 220 57 103 L57 103 Z " />
<glyph glyph-name="semicolon" unicode="&#x3b;" horiz-adv-x="507" d="M152 861 C152 784 201 738 277 738 C385 738 465 804 465 921 C465 998 416 1044 340 1044 C232 1044 152 978 152 861 L152 861 Z M35 -297 C203 -225 347 -106 347 81 C347 183 301 259 269 289 L47 230 C77 196 124 129 118 35 C112 -78 28 -146 -53 -191 L35 -297 Z " />
<glyph glyph-name="less" unicode="&#x3c;" horiz-adv-x="1092" d="M863 1168 L145 665 L704 164 L863 322 L477 665 L972 1010 L863 1168 Z " />
<glyph glyph-name="equal" unicode="&#x3d;" horiz-adv-x="1347" d="M200 386 L1119 386 L1152 597 L233 597 L200 386 Z M256 735 L1174 735 L1207 945 L288 945 L256 735 Z " />
<glyph glyph-name="greater" unicode="&#x3e;" horiz-adv-x="1090" d="M317 162 L1035 665 L476 1166 L318 1008 L703 665 L208 320 L317 162 Z " />
<glyph glyph-name="question" unicode="&#x3f;" horiz-adv-x="786" d="M391 424 C391 525 425 589 527 670 C683 793 836 891 836 1090 C836 1239 705 1350 464 1350 C340 1350 231 1327 195 1317 L179 1111 C210 1119 302 1136 388 1136 C510 1136 561 1100 561 1028 C561 953 480 894 366 798 C213 667 165 551 192 407 L391 424 Z M110 103 C110 26 159 -20 235 -20 C343 -20 423 46 423 163 C423 240 374 286 298 286 C190 286 110 220 110 103 L110 103 Z " />
<glyph glyph-name="at" unicode="&#x40;" horiz-adv-x="2107" d="M1584 967 C1588 990 1591 1013 1595 1036 L1363 1036 L1346 969 C1297 1009 1233 1044 1159 1044 C835 1044 621 689 621 306 C621 84 714 -20 855 -20 C1026 -20 1165 148 1268 394 C1180 91 1323 -20 1467 -20 C1780 -20 2032 293 2055 701 C2080 1148 1801 1480 1307 1480 C535 1480 110 897 110 306 C110 -158 370 -416 828 -416 C1010 -416 1175 -367 1231 -342 L1195 -167 C1134 -187 1002 -217 869 -217 C561 -217 384 -28 384 340 C384 825 700 1279 1253 1279 C1610 1279 1772 1092 1788 812 C1814 437 1631 169 1524 177 C1479 180 1469 231 1485 343 L1584 967 Z M1166 839 C1239 839 1292 783 1301 768 C1233 481 1040 210 951 210 C911 210 892 245 892 313 C892 586 1013 839 1166 839 L1166 839 Z " />
<glyph glyph-name="A" unicode="A" horiz-adv-x="1182" d="M840 0 L1120 0 L856 1330 L609 1330 L-78 0 L202 0 L353 308 L786 308 L840 0 Z M678 990 L752 513 L452 513 L678 990 Z " />
<glyph glyph-name="B" unicode="B" horiz-adv-x="1109" d="M504 0 C841 0 1057 180 1057 440 C1057 570 982 674 887 715 C992 771 1089 882 1089 1033 C1089 1230 939 1330 690 1330 L276 1330 L65 0 L504 0 Z M590 584 C710 584 764 517 764 418 C764 282 672 210 530 210 L362 210 L422 584 L590 584 Z M507 1120 L653 1120 C755 1120 807 1071 807 981 C807 896 751 815 695 776 L452 776 L507 1120 Z " />
<glyph glyph-name="C" unicode="C" horiz-adv-x="1052" d="M95 499 C95 187 280 -20 617 -20 C739 -20 873 16 962 68 L931 269 C849 231 747 206 654 206 C474 206 382 338 382 538 C382 888 544 1124 795 1124 C898 1124 986 1101 1038 1086 L1114 1288 C1070 1313 954 1350 823 1350 C388 1350 95 999 95 499 L95 499 Z " />
<glyph glyph-name="D" unicode="D" horiz-adv-x="1262" d="M469 0 C942 0 1227 316 1227 791 C1227 1118 1037 1330 686 1330 L276 1330 L65 0 L469 0 Z M362 210 L507 1120 L653 1120 C836 1120 940 989 940 764 C940 427 764 210 502 210 L362 210 Z " />
<glyph glyph-name="E" unicode="E" horiz-adv-x="986" d="M1051 1330 L276 1330 L65 0 L859 0 L893 221 L366 221 L421 563 L905 563 L939 778 L455 778 L507 1109 L1016 1109 L1051 1330 Z " />
<glyph glyph-name="F" unicode="F" horiz-adv-x="954" d="M1044 1330 L276 1330 L65 0 L331 0 L419 554 L866 554 L900 768 L453 768 L507 1109 L1009 1109 L1044 1330 Z " />
<glyph glyph-name="G" unicode="G" horiz-adv-x="1169" d="M1156 737 L688 737 L657 538 L881 537 L832 228 C789 215 732 206 679 206 C474 206 382 338 382 539 C382 889 544 1124 838 1124 C949 1124 1038 1103 1094 1084 L1174 1285 C1115 1316 1006 1350 866 1350 C388 1350 95 998 95 499 C95 187 280 -20 642 -20 C793 -20 950 26 1055 99 L1156 737 Z " />
<glyph glyph-name="H" unicode="H" horiz-adv-x="1293" d="M821 0 L1088 0 L1298 1330 L1032 1330 L944 781 L455 781 L542 1330 L276 1330 L65 0 L331 0 L420 560 L910 560 L821 0 Z " />
<glyph glyph-name="I" unicode="I" horiz-adv-x="537" d="M65 0 L332 0 L542 1330 L276 1330 L65 0 Z " />
<glyph glyph-name="J" unicode="J" horiz-adv-x="728" d="M472 1330 L315 339 C302 253 254 207 179 207 C113 206 62 228 34 244 L-40 42 C-10 17 64 -20 181 -20 C386 -20 545 108 585 362 L739 1330 L472 1330 Z " />
<glyph glyph-name="K" unicode="K" horiz-adv-x="1141" d="M541 1330 L276 1330 L65 0 L330 0 L411 509 C462 521 513 536 563 552 L745 0 L1030 0 L794 641 C1018 770 1199 1036 1113 1342 L848 1330 C910 1005 707 770 444 716 L541 1330 Z " />
<glyph glyph-name="L" unicode="L" horiz-adv-x="918" d="M873 221 L366 221 L542 1330 L276 1330 L65 0 L839 0 L873 221 Z " />
<glyph glyph-name="M" unicode="M" horiz-adv-x="1559" d="M65 0 L322 0 L471 942 L629 155 L839 155 L1245 942 L1096 0 L1353 0 L1564 1330 L1206 1330 L790 520 L630 1330 L276 1330 L65 0 Z " />
<glyph glyph-name="N" unicode="N" horiz-adv-x="1300" d="M808 0 L1094 0 L1305 1330 L1048 1330 L903 422 L561 1330 L276 1330 L65 0 L322 0 L466 907 L808 0 Z " />
<glyph glyph-name="O" unicode="O" horiz-adv-x="1315" d="M629 195 C457 195 381 336 381 540 C381 895 556 1135 758 1135 C929 1135 1006 994 1006 789 C1006 435 831 195 629 195 L629 195 Z M585 -20 C1007 -20 1292 340 1292 820 C1292 1128 1118 1350 802 1350 C380 1350 95 989 95 509 C95 202 269 -20 585 -20 L585 -20 Z " />
<glyph glyph-name="P" unicode="P" horiz-adv-x="1047" d="M508 1114 L649 1114 C752 1114 806 1053 806 945 C806 789 726 680 574 680 L439 680 L508 1114 Z M331 0 L407 473 L555 473 C857 473 1089 659 1089 985 C1089 1212 944 1330 682 1330 L276 1330 L65 0 L331 0 Z " />
<glyph glyph-name="Q" unicode="Q" horiz-adv-x="1315" d="M585 -19 C652 -19 717 -8 777 11 C945 -335 1057 -416 1272 -416 C1361 -416 1468 -386 1523 -359 L1484 -162 C1447 -178 1362 -202 1304 -202 C1179 -202 1096 -126 980 110 C1175 256 1292 514 1292 822 C1292 1130 1118 1351 802 1351 C380 1351 95 991 95 510 C95 203 269 -19 585 -19 L585 -19 Z M629 197 C457 197 381 338 381 542 C381 896 556 1136 758 1136 C929 1136 1006 995 1006 791 C1006 437 831 197 629 197 L629 197 Z " />
<glyph glyph-name="R" unicode="R" horiz-adv-x="1103" d="M330 0 L408 492 L560 492 L614 226 C621 189 633 155 646 125 C688 21 770 -20 878 -20 C895 -20 912 -17 925 -13 C969 2 1018 27 1028 44 C1023 90 1014 136 1010 183 C943 180 878 191 859 275 L798 550 C937 615 1104 760 1104 986 C1104 1213 953 1330 684 1330 L276 1330 L65 0 L330 0 Z M507 1114 L653 1114 C761 1114 821 1052 821 943 C821 822 743 729 674 698 L440 698 L507 1114 Z " />
<glyph glyph-name="S" unicode="S" horiz-adv-x="976" d="M22 60 C79 22 224 -20 379 -20 C696 -20 877 111 902 339 C906 369 906 400 904 431 C894 555 811 633 678 721 L543 810 C471 856 430 900 438 972 C445 1055 522 1117 651 1117 C750 1117 860 1089 920 1068 L997 1282 C946 1306 844 1350 673 1350 C389 1350 159 1176 159 907 C159 755 238 673 367 592 L483 519 C555 475 596 441 606 392 C616 365 617 340 613 316 C598 247 530 212 398 212 C280 212 154 250 103 276 L22 60 Z " />
<glyph glyph-name="T" unicode="T" horiz-adv-x="1018" d="M135 1109 L484 1109 L308 0 L575 0 L750 1109 L1098 1109 L1133 1330 L170 1330 L135 1109 Z " />
<glyph glyph-name="U" unicode="U" horiz-adv-x="1205" d="M512 1330 L246 1330 L117 520 C65 194 191 -20 522 -20 C839 -20 1058 182 1112 522 L1240 1330 L974 1330 L843 509 C811 304 707 197 567 197 C396 197 352 321 386 532 L512 1330 Z " />
<glyph glyph-name="V" unicode="V" horiz-adv-x="1181" d="M1027 1330 L569 325 L429 1330 L137 1330 L359 0 L678 0 L1323 1330 L1027 1330 Z " />
<glyph glyph-name="W" unicode="W" horiz-adv-x="1707" d="M1547 1330 L1183 353 L1102 1310 L878 1310 C752 993 621 669 494 353 L438 1330 L147 1330 L264 0 L570 0 L912 818 L995 0 L1303 0 L1839 1330 L1547 1330 Z " />
<glyph glyph-name="X" unicode="X" horiz-adv-x="1168" d="M781 684 L1288 1330 L993 1330 L660 887 L471 1330 L180 1330 L477 688 L-66 0 L230 0 L599 485 L815 0 L1105 0 L781 684 Z " />
<glyph glyph-name="Y" unicode="Y" horiz-adv-x="1043" d="M311 0 L578 0 L658 501 C658 501 657 501 657 501 L1200 1330 L917 1330 L563 765 L390 1330 L112 1330 L392 501 C392 501 391 501 391 501 L311 0 Z " />
<glyph glyph-name="Z" unicode="Z" horiz-adv-x="985" d="M-5 188 L-34 0 L886 0 L920 221 L305 221 L1031 1141 L1060 1329 L213 1329 L179 1108 L702 1108 L-5 188 Z " />
<glyph glyph-name="bracketleft" unicode="&#x5b;" horiz-adv-x="736" d="M611 -86 L367 -86 L604 1413 L849 1418 L878 1605 L395 1605 L97 -279 L581 -271 L611 -86 Z " />
<glyph glyph-name="backslash" unicode="&#x5c;" horiz-adv-x="1216" d="M12 1585 L1077 -250 L1333 -250 L268 1585 L12 1585 Z " />
<glyph glyph-name="bracketright" unicode="&#x5d;" horiz-adv-x="706" d="M165 1412 L409 1412 L172 -87 L-73 -92 L-103 -279 L380 -279 L678 1605 L194 1597 L165 1412 Z " />
<glyph glyph-name="asciicircum" unicode="&#x5e;" horiz-adv-x="1123" d="M403 776 L667 1220 L790 776 L1066 776 L848 1480 L567 1480 L127 776 L403 776 Z " />
<glyph glyph-name="underscore" unicode="&#x5f;" horiz-adv-x="1479" d="M151 -236 L1164 -236 L1198 -26 L185 -26 L151 -236 Z " />
<glyph glyph-name="grave" unicode="&#x60;" horiz-adv-x="753" d="M790 1298 L353 1550 L217 1325 L712 1166 L790 1298 Z " />
<glyph glyph-name="a" unicode="a" horiz-adv-x="1074" d="M1042 967 C1046 993 1051 1018 1055 1044 L826 1044 L806 964 C756 1006 689 1044 608 1044 C284 1044 71 689 71 306 C71 84 163 -20 304 -20 C483 -20 631 177 733 404 C712 340 674 240 662 179 C648 113 645 44 659 0 L909 0 C905 48 909 127 929 251 L1042 967 Z M619 837 C691 837 751 789 766 775 C698 494 487 210 401 210 C361 210 342 245 342 313 C342 587 462 837 619 837 L619 837 Z " />
<glyph glyph-name="b" unicode="b" horiz-adv-x="1074" d="M387 624 C434 758 469 892 488 1007 L525 1242 C541 1341 539 1429 526 1480 L269 1456 C274 1409 276 1333 258 1219 L77 84 C118 59 285 -20 474 -20 C830 -20 1043 334 1043 718 C1043 940 951 1044 810 1044 C627 1044 484 847 387 624 L387 624 Z M497 186 C426 186 364 213 350 221 C424 536 628 814 713 814 C753 814 772 779 772 711 C772 438 651 186 497 186 L497 186 Z " />
<glyph glyph-name="c" unicode="c" horiz-adv-x="807" d="M851 996 C827 1008 747 1044 637 1044 C253 1044 71 643 71 306 C71 84 168 -20 341 -20 C521 -20 661 47 728 87 L695 276 C631 247 503 198 418 198 C363 198 342 237 342 309 C342 546 448 824 631 824 C701 824 767 801 782 795 L851 996 Z " />
<glyph glyph-name="d" unicode="d" horiz-adv-x="1077" d="M1042 967 L1086 1242 C1102 1341 1100 1429 1087 1480 L830 1456 C835 1409 837 1333 819 1219 L781 984 C735 1018 676 1044 608 1044 C284 1044 71 689 71 306 C71 84 163 -20 304 -20 C483 -20 631 177 733 404 C712 340 674 240 662 179 C648 113 645 44 659 0 L909 0 C905 48 909 127 929 251 L1042 967 Z M619 837 C691 837 751 790 766 775 C698 494 487 210 401 210 C361 210 342 245 342 313 C342 587 462 837 619 837 L619 837 Z " />
<glyph glyph-name="e" unicode="e" horiz-adv-x="875" d="M877 810 C877 955 780 1044 605 1044 C257 1044 71 643 71 306 C71 84 169 -20 344 -20 C535 -20 704 60 770 102 L739 292 C669 261 516 198 422 198 C365 198 342 237 342 309 C342 344 344 382 350 419 C660 464 880 592 877 810 L877 810 Z M584 845 C618 845 639 824 639 783 C639 680 519 590 370 561 C405 712 492 845 584 845 L584 845 Z " />
<glyph glyph-name="f" unicode="f" horiz-adv-x="692" d="M539 1120 C545 1209 589 1275 705 1275 C766 1275 833 1264 867 1253 L930 1440 C909 1449 812 1480 713 1480 C438 1480 291 1341 287 1097 C287 1068 287 1040 291 1016 L142 1006 L113 825 L255 825 L61 -396 L325 -396 L519 825 L756 825 L788 1024 L541 1024 C539 1043 537 1086 539 1120 L539 1120 Z " />
<glyph glyph-name="g" unicode="g" horiz-adv-x="1091" d="M1055 967 C1060 993 1064 1018 1068 1044 L839 1044 L820 964 C769 1006 702 1044 621 1044 C297 1044 84 689 84 306 C84 84 177 -20 317 -20 C498 -20 647 180 749 411 C734 368 723 329 711 291 C684 175 670 80 652 -13 C625 -138 536 -207 376 -207 C262 -207 149 -176 108 -159 L55 -351 C87 -369 210 -416 369 -416 C686 -416 856 -299 904 -20 C945 243 984 518 1055 967 L1055 967 Z M632 837 C704 837 764 789 779 775 C712 494 500 210 414 210 C374 210 355 245 355 313 C355 587 475 837 632 837 L632 837 Z " />
<glyph glyph-name="h" unicode="h" horiz-adv-x="1106" d="M260 1219 L66 0 L330 0 L354 155 C354 154 354 154 354 154 C412 518 591 745 692 772 C713 778 729 778 741 772 C766 766 773 740 770 704 C771 694 770 681 767 668 L693 200 C680 116 689 27 699 0 L946 0 C942 48 946 127 966 251 L1038 701 C1070 903 1021 1044 842 1044 C661 1044 499 854 379 592 C401 659 434 758 452 828 C468 886 478 937 487 990 L522 1208 C527 1244 531 1277 534 1308 C540 1374 538 1441 527 1480 L271 1456 C276 1409 278 1333 260 1219 L260 1219 Z " />
<glyph glyph-name="i" unicode="i" horiz-adv-x="517" d="M96 200 C83 116 92 27 102 0 L349 0 C345 48 349 127 369 251 L492 1024 L228 1024 L96 200 Z M256 1320 C256 1242 305 1196 381 1196 C489 1196 569 1262 569 1379 C569 1456 520 1502 444 1502 C335 1502 256 1436 256 1320 L256 1320 Z " />
<glyph glyph-name="j" unicode="j" horiz-adv-x="518" d="M58 -52 C39 -169 8 -207 -79 -207 C-131 -207 -181 -193 -204 -185 L-255 -373 C-236 -384 -160 -416 -60 -416 C149 -416 282 -323 325 -47 L493 1024 L230 1024 L58 -52 Z M257 1320 C257 1242 306 1196 382 1196 C490 1196 570 1262 570 1379 C570 1456 521 1502 445 1502 C336 1502 257 1436 257 1320 L257 1320 Z " />
<glyph glyph-name="k" unicode="k" horiz-adv-x="991" d="M528 1242 C544 1341 542 1429 528 1480 L272 1456 C277 1409 279 1333 261 1219 L66 0 L332 0 L394 389 C426 400 462 414 496 428 L620 0 L907 0 L724 525 C851 602 1061 781 981 1044 L705 1024 C754 799 595 644 424 584 L528 1242 Z " />
<glyph glyph-name="l" unicode="l" horiz-adv-x="517" d="M96 200 C83 116 92 27 102 0 L349 0 C345 48 349 127 369 251 L527 1242 C542 1341 540 1429 527 1480 L271 1456 C275 1409 278 1333 260 1219 L96 200 Z " />
<glyph glyph-name="m" unicode="m" horiz-adv-x="1687" d="M209 1024 C213 976 208 897 188 773 L66 0 L330 0 L354 154 C354 154 354 154 354 154 C419 564 619 781 712 781 C760 781 770 737 761 673 L654 0 L918 0 L943 154 C1008 564 1208 781 1301 781 C1350 781 1359 734 1349 668 L1274 200 C1261 116 1270 27 1280 0 L1527 0 C1523 48 1527 127 1547 251 L1619 701 C1651 903 1602 1044 1423 1044 C1246 1044 1087 855 968 593 C984 640 1012 717 1023 769 C1029 805 1033 839 1031 867 C1027 962 967 1044 834 1044 C657 1044 497 855 379 592 C402 662 438 765 454 841 C469 909 472 979 458 1024 L209 1024 Z " />
<glyph glyph-name="n" unicode="n" horiz-adv-x="1106" d="M209 1024 C213 976 208 897 188 773 L66 0 L330 0 L354 154 C419 564 625 781 719 781 C777 781 773 703 767 668 L693 200 C680 116 689 27 699 0 L946 0 C942 48 946 127 966 251 L1038 701 C1070 903 1021 1044 842 1044 C661 1044 499 854 379 592 C401 659 438 764 454 841 C469 909 472 979 458 1024 L209 1024 Z " />
<glyph glyph-name="o" unicode="o" horiz-adv-x="983" d="M392 -20 C738 -20 965 279 965 688 C965 902 842 1044 632 1044 C284 1044 59 744 59 335 C59 122 183 -20 392 -20 L392 -20 Z M434 179 C365 179 330 233 330 348 C330 611 443 840 591 840 C660 840 694 792 694 677 C694 413 584 179 434 179 L434 179 Z " />
<glyph glyph-name="p" unicode="p" horiz-adv-x="1080" d="M74 57 L0 -396 L264 -396 L335 40 C381 6 439 -20 508 -20 C832 -20 1045 335 1045 718 C1045 940 953 1044 812 1044 C632 1044 485 847 383 620 C405 683 441 785 454 845 C468 911 470 980 457 1024 L207 1024 C211 976 207 897 187 773 L74 57 Z M497 187 C425 187 365 233 350 249 C418 530 629 814 715 814 C755 814 774 779 774 711 C774 437 654 187 497 187 L497 187 Z " />
<glyph glyph-name="q" unicode="q" horiz-adv-x="1071" d="M1037 940 C996 964 829 1044 640 1044 C284 1044 71 690 71 306 C71 84 163 -20 304 -20 C487 -20 630 176 727 400 C700 316 669 227 653 161 C611 -15 589 -213 560 -396 L823 -396 L1037 940 Z M617 837 C688 837 750 811 764 803 C690 488 486 210 401 210 C361 210 342 245 342 313 C342 586 463 837 617 837 L617 837 Z " />
<glyph glyph-name="r" unicode="r" horiz-adv-x="784" d="M209 1024 C213 976 208 897 188 773 L66 0 L330 0 L354 154 C354 154 354 154 354 154 C422 584 597 734 717 735 C748 735 781 731 795 728 L847 1029 C836 1034 810 1044 777 1044 C614 1044 491 851 389 621 C407 675 434 760 448 815 C468 896 474 973 458 1024 L209 1024 Z " />
<glyph glyph-name="s" unicode="s" horiz-adv-x="757" d="M21 37 C69 14 184 -20 330 -20 C581 -20 699 94 697 274 C697 378 640 457 499 578 C408 656 372 692 364 738 C359 754 361 769 366 782 C375 811 409 833 475 833 C571 833 678 806 704 797 L746 999 C719 1010 603 1044 478 1044 C237 1044 105 924 105 745 C105 639 157 562 278 461 C393 364 444 315 444 262 C444 207 398 187 318 187 C220 187 113 220 74 236 L21 37 Z " />
<glyph glyph-name="t" unicode="t" horiz-adv-x="748" d="M551 1270 L321 1251 L265 1016 L105 1006 L76 825 L220 825 L133 281 C98 62 192 -20 370 -20 C503 -20 636 33 698 68 L667 257 C609 232 499 198 451 198 C412 198 396 216 399 263 C398 273 399 286 402 305 L484 825 L737 825 L769 1024 L512 1024 L551 1270 Z " />
<glyph glyph-name="u" unicode="u" horiz-adv-x="1094" d="M926 0 C922 48 926 127 946 251 L1069 1024 L805 1024 L781 869 C781 869 781 870 781 870 C717 460 520 243 429 243 C390 243 376 274 379 320 C378 330 379 343 381 356 L455 824 C470 908 460 997 450 1024 L203 1024 C207 976 202 897 183 773 L111 323 C79 121 128 -20 307 -20 C482 -20 639 169 756 432 C733 364 697 259 680 182 C665 114 663 45 677 0 L926 0 Z " />
<glyph glyph-name="v" unicode="v" horiz-adv-x="905" d="M630 1024 C645 978 653 915 653 849 C653 623 562 398 415 252 L383 847 C379 918 369 981 355 1024 L106 1024 C118 989 134 898 139 813 L188 0 L396 0 C663 170 912 515 912 863 C912 939 900 1004 881 1044 L630 1024 Z " />
<glyph glyph-name="w" unicode="w" horiz-adv-x="1424" d="M1145 1024 C1161 976 1170 911 1170 841 C1170 625 1086 402 928 236 L893 608 C892 623 891 637 890 651 C907 712 916 775 916 838 C916 916 902 983 883 1024 L630 1004 C643 962 657 893 664 793 C655 581 573 388 425 236 L388 847 C384 918 374 981 358 1024 L110 1024 C122 989 140 898 146 813 L201 0 L421 0 C523 81 620 187 696 313 L730 0 L930 0 C1194 175 1427 509 1427 858 C1427 936 1413 1003 1394 1044 L1145 1024 Z " />
<glyph glyph-name="x" unicode="x" horiz-adv-x="1005" d="M677 527 L1049 1024 L767 1024 L554 701 L436 1024 L157 1024 L380 528 L-32 0 L251 0 L501 355 L649 0 L930 0 L677 527 Z " />
<glyph glyph-name="y" unicode="y" horiz-adv-x="941" d="M203 229 C222 -124 156 -207 24 -207 C-21 -207 -75 -193 -99 -180 L-170 -364 C-139 -385 -74 -416 19 -416 C139 -416 243 -376 318 -291 C654 49 948 529 948 877 C948 946 934 1010 921 1044 L670 1024 C684 981 689 931 689 880 C689 676 613 442 498 251 C481 218 463 185 443 153 C446 184 446 218 444 256 C420 726 381 980 368 1024 L120 1024 C133 991 180 641 203 229 L203 229 Z " />
<glyph glyph-name="z" unicode="z" horiz-adv-x="833" d="M131 -20 L252 142 C266 57 337 -20 463 -20 C608 -20 721 53 776 93 L717 297 C670 266 557 196 469 196 C408 196 369 216 354 237 L815 859 L841 1024 L165 1024 L134 825 L521 825 L-23 92 L131 -20 Z " />
<glyph glyph-name="braceleft" unicode="&#x7b;" horiz-adv-x="767" d="M560 1334 C564 1389 615 1448 693 1448 C745 1448 788 1438 815 1429 L872 1603 C842 1618 777 1637 706 1637 C495 1637 327 1515 327 1312 C327 1178 444 1041 444 920 C444 837 378 767 269 755 C251 752 230 751 209 750 L182 578 C298 575 367 532 367 437 C367 295 107 131 107 -77 C107 -228 221 -309 392 -309 C468 -309 540 -290 575 -274 L573 -101 C542 -110 497 -119 450 -119 C381 -119 346 -82 346 -25 C346 95 610 293 610 465 C610 563 544 638 447 664 C579 696 685 796 685 935 C685 1073 551 1216 560 1334 L560 1334 Z " />
<glyph glyph-name="bar" unicode="&#x7c;" horiz-adv-x="574" d="M327 1523 L7 -499 L247 -499 L567 1523 L327 1523 Z " />
<glyph glyph-name="braceright" unicode="&#x7d;" horiz-adv-x="797" d="M297 -5 C293 -60 242 -119 164 -119 C111 -119 69 -109 42 -100 L-15 -274 C15 -289 80 -309 151 -309 C362 -309 530 -186 530 17 C530 150 413 288 413 409 C413 492 478 562 587 574 C606 577 626 578 648 579 L675 751 C558 754 490 797 490 892 C490 1034 749 1198 749 1406 C749 1557 636 1637 465 1637 C389 1637 317 1619 282 1603 L284 1429 C314 1439 360 1448 407 1448 C476 1448 511 1411 511 1354 C511 1233 247 1036 247 864 C247 766 313 691 410 665 C278 633 172 533 172 394 C172 255 305 113 297 -5 L297 -5 Z " />
<glyph glyph-name="asciitilde" unicode="&#x7e;" horiz-adv-x="1147" d="M211 523 C256 550 334 595 408 595 C509 595 580 527 698 527 C811 527 924 582 1012 668 L966 807 C920 780 842 735 768 735 C667 735 597 803 479 803 C366 803 253 748 165 662 L211 523 Z " />
<glyph glyph-name="nbspace" unicode="&#xa0;" horiz-adv-x="456" d="" />
<glyph glyph-name="exclamdown" unicode="&#xa1;" horiz-adv-x="567" d="M318 -306 L418 603 L217 603 L30 -306 L318 -306 Z M204 861 C204 784 253 738 329 738 C437 738 517 804 517 921 C517 998 468 1044 392 1044 C284 1044 204 978 204 861 L204 861 Z " />
<glyph glyph-name="cent" unicode="&#xa2;" horiz-adv-x="988" d="M100 569 C102 340 234 175 461 139 L408 -88 L627 -88 L646 136 C753 147 832 179 877 204 L849 393 C814 378 720 343 629 343 C469 343 377 434 377 600 C375 837 519 983 718 983 C813 983 898 946 922 936 L1000 1127 C968 1148 900 1178 807 1191 L860 1417 L641 1417 L622 1187 C309 1141 98 896 100 569 L100 569 Z " />
<glyph glyph-name="sterling" unicode="&#xa3;" horiz-adv-x="1105" d="M127 610 L287 610 C282 479 258 347 202 207 C156 197 93 174 60 155 L80 -1 L220 -30 C259 -13 297 19 298 20 C429 17 534 -20 659 -20 C841 -20 969 73 1018 273 L852 322 C814 238 775 187 679 189 C605 190 533 207 458 215 C516 349 545 484 550 610 L853 610 L875 748 L554 748 C554 815 556 883 567 953 C586 1070 661 1132 765 1132 C864 1132 958 1093 985 1080 L1070 1273 C1028 1300 932 1350 797 1350 C521 1350 341 1198 301 939 C291 872 287 809 287 748 L149 748 L127 610 Z " />
<glyph glyph-name="currency" unicode="&#xa4;" horiz-adv-x="1267" d="M1141 211 L1001 420 C1074 504 1118 611 1118 729 C1118 797 1101 860 1072 914 L1287 1128 L1176 1235 L941 1043 C882 1078 807 1098 721 1098 C633 1098 552 1079 481 1047 L310 1235 L165 1128 L308 921 C233 837 189 729 189 611 C189 542 205 478 235 424 L20 211 L131 105 L365 295 C425 261 499 241 585 241 C673 241 754 259 826 292 L997 105 L1141 211 Z M616 432 C500 432 427 514 427 632 C427 789 543 906 691 906 C807 906 880 825 880 708 C880 550 764 432 616 432 L616 432 Z " />
<glyph glyph-name="yen" unicode="&#xa5;" horiz-adv-x="1202" d="M210 729 L1085 729 L1106 866 L963 866 L1292 1330 L1017 1330 L658 798 C652 814 645 828 640 843 L467 1330 L192 1330 L371 866 L231 866 L210 729 Z M190 465 L471 465 L397 0 L664 0 L738 465 L1020 465 L1042 602 L212 602 L190 465 Z " />
<glyph glyph-name="brokenbar" unicode="&#xa6;" horiz-adv-x="574" d="M327 1523 L199 713 L439 713 L567 1523 L327 1523 Z M135 311 L7 -499 L247 -499 L375 311 L135 311 Z " />
<glyph glyph-name="section" unicode="&#xa7;" horiz-adv-x="1030" d="M1022 1200 L1108 1398 C1047 1431 919 1480 763 1480 C394 1480 147 1262 147 929 C147 813 173 700 210 562 L295 235 C312 166 324 99 327 43 C335 -54 319 -135 273 -194 C182 -188 102 -160 39 -136 L-48 -334 C13 -367 141 -416 297 -416 C667 -416 913 -199 913 135 C913 252 886 361 851 502 L765 829 C747 898 736 965 732 1021 C725 1118 741 1199 787 1258 C877 1252 959 1224 1022 1200 L1022 1200 Z M552 149 C530 301 479 467 441 624 C405 765 386 874 386 964 C386 1115 448 1206 580 1244 C531 1196 500 1127 495 1036 C490 967 505 885 533 774 L619 439 C655 299 674 191 674 101 C674 -51 612 -142 481 -180 C546 -117 586 -20 552 149 L552 149 Z " />
<glyph glyph-name="dieresis" unicode="&#xa8;" horiz-adv-x="898" d="M197 1320 C197 1242 246 1196 323 1196 C431 1196 510 1262 510 1379 C510 1456 462 1502 385 1502 C277 1502 197 1436 197 1320 L197 1320 Z M627 1320 C627 1242 676 1196 752 1196 C860 1196 940 1262 940 1379 C940 1456 891 1502 815 1502 C707 1502 627 1436 627 1320 L627 1320 Z " />
<glyph glyph-name="copyright" unicode="&#xa9;" horiz-adv-x="1520" d="M641 616 C641 773 711 875 857 875 C922 875 977 854 1002 844 L1069 997 C1032 1021 961 1049 867 1049 C605 1049 425 858 425 594 C425 407 538 280 733 280 C833 280 922 306 975 336 L953 487 C917 473 853 455 789 455 C689 455 641 512 641 616 L641 616 Z M264 595 C264 921 560 1197 875 1197 C1140 1197 1325 993 1325 733 C1325 408 1029 133 712 133 C449 133 264 336 264 595 L264 595 Z M107 574 C107 243 347 -20 682 -20 C1097 -20 1483 334 1483 755 C1483 1086 1241 1350 905 1350 C491 1350 107 995 107 574 L107 574 Z " />
<glyph glyph-name="ordfeminine" unicode="&#xaa;" horiz-adv-x="645" d="M774 1230 L793 1340 L630 1340 L610 1297 C580 1322 538 1350 481 1350 C294 1350 159 1164 159 920 C159 799 213 732 318 732 C412 732 479 793 533 868 C530 852 529 835 529 819 C526 791 527 758 532 743 L708 743 C706 766 708 818 718 879 L774 1230 Z M495 1198 C532 1198 555 1180 566 1170 C529 1014 441 891 389 891 C366 891 359 911 359 945 C359 1064 410 1198 495 1198 L495 1198 Z " />
<glyph glyph-name="guillemotleft" unicode="&#xab;" horiz-adv-x="1222" d="M608 1002 C457 829 272 642 127 514 C231 386 357 197 453 26 L651 158 C596 272 497 404 407 514 C535 626 670 753 764 870 L608 1002 Z M1039 961 C896 801 733 633 600 514 C695 394 806 226 897 66 L1095 199 C1041 304 968 415 879 514 C998 613 1107 724 1195 829 L1039 961 Z " />
<glyph glyph-name="logicalnot" unicode="&#xac;" horiz-adv-x="1314" d="M195 559 L899 559 L855 280 L1071 280 L1149 770 L228 770 L195 559 Z " />
<glyph glyph-name="uni00AD" unicode="&#xad;" horiz-adv-x="942" d="M197 427 L814 427 L847 638 L231 638 L197 427 Z " />
<glyph glyph-name="registered" unicode="&#xae;" horiz-adv-x="1520" d="M657 309 L696 552 L769 552 L832 309 L1050 309 L954 593 C1041 637 1107 722 1107 824 C1107 948 1014 1017 861 1017 L578 1017 L466 309 L657 309 Z M747 878 L786 878 C798 878 811 878 823 876 C872 873 898 845 898 798 C898 761 876 729 851 713 C832 693 802 681 758 681 L716 681 L747 878 Z M264 595 C264 921 560 1197 875 1197 C1140 1197 1325 993 1325 733 C1325 408 1029 133 712 133 C449 133 264 336 264 595 L264 595 Z M107 574 C107 243 347 -20 682 -20 C1097 -20 1483 334 1483 755 C1483 1086 1241 1350 905 1350 C491 1350 107 995 107 574 L107 574 Z " />
<glyph glyph-name="macron" unicode="&#xaf;" horiz-adv-x="847" d="M227 1251 L848 1251 L879 1449 L259 1449 L227 1251 Z " />
<glyph glyph-name="degree" unicode="&#xb0;" horiz-adv-x="596" d="M391 819 C579 819 710 955 710 1125 C710 1246 628 1350 488 1350 C300 1350 168 1213 168 1044 C168 923 250 819 391 819 L391 819 Z M426 979 C373 979 349 1020 349 1067 C349 1137 390 1189 453 1189 C505 1189 529 1149 529 1102 C529 1031 488 979 426 979 L426 979 Z " />
<glyph glyph-name="plusminus" unicode="&#xb1;" horiz-adv-x="1246" d="M635 1254 L584 940 L266 940 L235 742 L553 742 L501 416 L705 416 L756 742 L1075 742 L1106 940 L788 940 L838 1254 L635 1254 Z M130 35 L956 35 L988 233 L162 233 L130 35 Z " />
<glyph glyph-name="twosuperior" unicode="&#xb2;" horiz-adv-x="538" d="M133 751 L593 751 L617 906 L395 906 C538 973 637 1049 637 1177 C637 1276 575 1350 432 1350 C335 1350 240 1309 217 1294 L238 1152 C258 1161 322 1188 377 1188 C416 1188 434 1167 434 1131 C434 1050 338 995 156 895 L133 751 Z " />
<glyph glyph-name="threesuperior" unicode="&#xb3;" horiz-adv-x="514" d="M418 1153 C415 1126 400 1108 389 1100 L267 1100 L249 987 L343 987 C382 987 404 972 404 941 C404 895 371 877 308 877 C247 877 199 894 179 903 L124 769 C148 754 223 731 299 731 C484 731 592 807 592 937 C592 1004 550 1041 523 1056 C523 1056 523 1056 524 1056 C556 1076 616 1118 616 1201 C616 1290 548 1350 403 1350 C311 1350 235 1321 213 1309 L228 1178 C257 1191 308 1204 352 1204 C398 1204 421 1185 418 1153 L418 1153 Z " />
<glyph glyph-name="acute" unicode="&#xb4;" horiz-adv-x="718" d="M240 1166 L781 1327 L709 1552 L197 1295 L240 1166 Z " />
<glyph glyph-name="&amp;#xb5;" unicode="&#xb5;" horiz-adv-x="1094" d="M926 0 C922 48 926 127 946 251 L1069 1024 L805 1024 L781 869 C781 869 781 870 781 870 C717 460 520 243 429 243 C390 243 376 274 379 320 C378 330 379 343 381 356 L455 824 C470 908 460 997 450 1024 L203 1024 C207 976 202 897 183 773 L51 -52 C32 -169 1 -207 -86 -207 C-133 -207 -178 -193 -199 -185 L-250 -373 C-233 -384 -161 -416 -68 -416 C130 -416 252 -323 295 -47 L300 -13 C324 -14 349 -12 375 -6 C520 27 655 205 756 432 C737 376 704 279 687 209 C667 128 661 51 677 0 L926 0 Z " />
<glyph glyph-name="&amp;#x3bc;" unicode="&#x3bc;" horiz-adv-x="1094" d="M926 0 C922 48 926 127 946 251 L1069 1024 L805 1024 L781 869 C781 869 781 870 781 870 C717 460 520 243 429 243 C390 243 376 274 379 320 C378 330 379 343 381 356 L455 824 C470 908 460 997 450 1024 L203 1024 C207 976 202 897 183 773 L51 -52 C32 -169 1 -207 -86 -207 C-133 -207 -178 -193 -199 -185 L-250 -373 C-233 -384 -161 -416 -68 -416 C130 -416 252 -323 295 -47 L300 -13 C324 -14 349 -12 375 -6 C520 27 655 205 756 432 C737 376 704 279 687 209 C667 128 661 51 677 0 L926 0 Z " />
<glyph glyph-name="paragraph" unicode="&#xb6;" horiz-adv-x="1296" d="M715 1112 L844 1112 L605 -395 C694 -395 782 -396 871 -396 L1111 1112 L1264 1112 L1299 1330 L751 1330 C415 1330 177 1159 177 836 C177 600 344 470 613 470 L715 1112 Z " />
<glyph glyph-name="periodcentered" unicode="&#xb7;" horiz-adv-x="498" d="M97 483 C97 405 146 359 223 359 C331 359 410 425 410 542 C410 619 362 665 285 665 C177 665 97 599 97 483 L97 483 Z " />
<glyph glyph-name="cedilla" unicode="&#xb8;" horiz-adv-x="494" d="M-95 -501 C-76 -510 -34 -519 18 -519 C189 -519 329 -447 329 -271 C329 -159 242 -106 127 -106 L16 -106 L-16 -245 L41 -245 C96 -245 126 -262 126 -300 C126 -349 90 -380 20 -380 C-14 -380 -40 -375 -56 -370 L-95 -501 Z " />
<glyph glyph-name="onesuperior" unicode="&#xb9;" horiz-adv-x="512" d="M543 751 L573 940 C546 940 519 942 492 942 L557 1350 L477 1350 C393 1335 289 1317 206 1307 L199 1153 C234 1156 304 1165 336 1171 L299 938 C268 937 236 936 205 936 L175 751 L543 751 Z " />
<glyph glyph-name="ordmasculine" unicode="&#xba;" horiz-adv-x="644" d="M404 731 C614 731 754 890 754 1093 C754 1237 666 1350 513 1350 C304 1350 164 1190 164 988 C164 845 252 731 404 731 L404 731 Z M439 896 C387 896 366 942 366 1004 C366 1090 397 1185 477 1185 C530 1185 550 1139 550 1077 C550 990 519 896 439 896 L439 896 Z " />
<glyph glyph-name="guillemotright" unicode="&#xbb;" horiz-adv-x="1242" d="M655 23 C806 195 990 383 1135 511 C1031 638 906 827 810 999 L612 867 C667 753 765 621 856 511 C728 399 592 272 499 155 L655 23 Z M224 64 C366 224 529 392 663 511 C567 631 456 799 366 959 L167 826 C222 721 295 610 383 511 C264 412 155 301 67 196 L224 64 Z " />
<glyph glyph-name="onequarter" unicode="&#xbc;" horiz-adv-x="1425" d="M1062 410 L1034 240 L926 240 L1134 579 L960 599 L743 237 L722 108 L1010 108 L994 0 L1163 0 L1180 108 L1265 108 L1285 240 L1196 240 L1224 410 L1062 410 Z M514 751 L544 940 C517 940 490 942 463 942 L528 1350 L448 1350 C364 1335 260 1317 177 1307 L170 1153 C205 1156 275 1165 307 1171 L270 938 C239 937 207 936 176 936 L146 751 L514 751 Z M1238 1351 L50 83 L176 -20 L1365 1247 L1238 1351 Z " />
<glyph glyph-name="onehalf" unicode="&#xbd;" horiz-adv-x="1455" d="M1238 1351 L50 83 L176 -20 L1365 1247 L1238 1351 Z M782 0 L1242 0 L1266 155 L1044 155 C1187 222 1286 298 1286 426 C1286 525 1224 599 1081 599 C984 599 889 558 866 543 L887 401 C907 410 972 437 1027 437 C1065 437 1083 416 1083 380 C1083 299 988 244 805 144 L782 0 Z M514 751 L544 940 C517 940 490 942 463 942 L528 1350 L448 1350 C364 1335 260 1317 177 1307 L170 1153 C205 1156 275 1165 307 1171 L270 938 C239 937 207 936 176 936 L146 751 L514 751 Z " />
<glyph glyph-name="threequarters" unicode="&#xbe;" horiz-adv-x="1495" d="M487 1153 C484 1126 469 1108 458 1100 L336 1100 L318 987 L412 987 C451 987 473 972 473 941 C473 895 440 877 377 877 C316 877 268 894 248 903 L193 769 C217 754 292 731 368 731 C553 731 661 807 661 937 C661 1004 619 1041 592 1056 C592 1056 592 1056 593 1056 C625 1076 685 1118 685 1201 C685 1290 617 1350 472 1350 C380 1350 304 1321 282 1309 L297 1178 C326 1191 377 1204 421 1204 C467 1204 490 1185 487 1153 L487 1153 Z M1308 1351 L120 83 L246 -20 L1435 1247 L1308 1351 Z M1132 410 L1104 240 L996 240 L1204 579 L1030 599 L813 237 L792 108 L1080 108 L1064 0 L1233 0 L1250 108 L1335 108 L1355 240 L1266 240 L1294 410 L1132 410 Z " />
<glyph glyph-name="questiondown" unicode="&#xbf;" horiz-adv-x="766" d="M436 600 C436 499 402 435 300 354 C143 231 -10 133 -10 -67 C-10 -215 121 -326 362 -326 C486 -326 595 -303 632 -293 L648 -87 C616 -95 524 -112 438 -112 C317 -112 266 -76 266 -4 C266 71 346 130 460 226 C613 357 661 473 634 617 L436 600 Z M403 861 C403 784 453 738 529 738 C630 738 716 767 716 921 C716 1002 662 1044 591 1044 C587 1044 583 1044 580 1043 C491 1043 446 986 433 967 C413 946 403 901 403 861 L403 861 Z " />
<glyph glyph-name="Agrave" unicode="&#xc0;" horiz-adv-x="1182" d="M840 0 L1120 0 L856 1330 L609 1330 L-78 0 L202 0 L353 308 L786 308 L840 0 Z M678 990 L752 513 L452 513 L678 990 Z M1033 1598 L595 1850 L460 1625 L954 1466 L1033 1598 Z " />
<glyph glyph-name="Aacute" unicode="&#xc1;" horiz-adv-x="1182" d="M840 0 L1120 0 L856 1330 L609 1330 L-78 0 L202 0 L353 308 L786 308 L840 0 Z M678 990 L752 513 L452 513 L678 990 Z M537 1466 L1078 1627 L1006 1852 L494 1595 L537 1466 Z " />
<glyph glyph-name="Acircumflex" unicode="&#xc2;" horiz-adv-x="1182" d="M840 0 L1120 0 L856 1330 L609 1330 L-78 0 L202 0 L353 308 L786 308 L840 0 Z M678 990 L752 513 L452 513 L678 990 Z M1111 1610 C1032 1670 914 1765 810 1854 C679 1765 528 1669 430 1609 L536 1450 C610 1500 711 1576 775 1628 C822 1576 899 1500 956 1450 L1111 1610 Z " />
<glyph glyph-name="Atilde" unicode="&#xc3;" horiz-adv-x="1182" d="M840 0 L1120 0 L856 1330 L609 1330 L-78 0 L202 0 L353 308 L786 308 L840 0 Z M678 990 L752 513 L452 513 L678 990 Z M522 1506 C567 1551 598 1585 640 1585 C702 1585 768 1512 847 1512 C979 1512 1072 1604 1125 1703 L1011 1800 C965 1755 933 1721 891 1721 C833 1721 766 1794 676 1794 C547 1794 454 1689 408 1602 L522 1506 Z " />
<glyph glyph-name="Adieresis" unicode="&#xc4;" horiz-adv-x="1182" d="M840 0 L1120 0 L856 1330 L609 1330 L-78 0 L202 0 L353 308 L786 308 L840 0 Z M678 990 L752 513 L452 513 L678 990 Z M407 1620 C407 1542 456 1496 532 1496 C640 1496 720 1562 720 1679 C720 1756 671 1802 595 1802 C486 1802 407 1736 407 1620 L407 1620 Z M836 1620 C836 1542 885 1496 962 1496 C1069 1496 1149 1562 1149 1679 C1149 1756 1101 1802 1024 1802 C916 1802 836 1736 836 1620 L836 1620 Z " />
<glyph glyph-name="Aring" unicode="&#xc5;" horiz-adv-x="1182" d="M840 0 L1120 0 L856 1330 L609 1330 L-78 0 L202 0 L353 308 L786 308 L840 0 Z M678 990 L752 513 L452 513 L678 990 Z M697 1637 C697 1691 738 1728 790 1728 C829 1728 856 1703 856 1664 C856 1610 816 1572 762 1572 C724 1572 697 1598 697 1637 L697 1637 Z M532 1609 C532 1495 613 1424 732 1424 C897 1424 1021 1525 1021 1692 C1021 1805 940 1876 821 1876 C657 1876 532 1775 532 1609 L532 1609 Z " />
<glyph glyph-name="AE" unicode="&#xc6;" horiz-adv-x="1745" d="M1810 1330 L1050 1330 L-96 0 L194 0 L456 307 L906 307 L857 0 L1618 0 L1652 221 L1156 221 L1211 563 L1664 563 L1698 778 L1245 778 L1297 1109 L1775 1109 L1810 1330 Z M635 516 L1008 955 L938 516 L635 516 Z " />
<glyph glyph-name="Ccedilla" unicode="&#xc7;" horiz-adv-x="1052" d="M95 499 C95 187 280 -20 617 -20 C739 -20 873 16 962 68 L931 269 C849 231 747 206 654 206 C474 206 382 338 382 538 C382 888 544 1124 795 1124 C898 1124 986 1101 1038 1086 L1114 1288 C1070 1313 954 1350 823 1350 C388 1350 95 999 95 499 L95 499 Z M286 -501 C304 -510 347 -519 398 -519 C570 -519 710 -447 710 -271 C710 -159 623 -106 507 -106 L396 -106 L364 -245 L422 -245 C477 -245 507 -262 507 -300 C507 -349 471 -380 400 -380 C366 -380 341 -375 325 -370 L286 -501 Z " />
<glyph glyph-name="Egrave" unicode="&#xc8;" horiz-adv-x="986" d="M1051 1330 L276 1330 L65 0 L859 0 L893 221 L366 221 L421 563 L905 563 L939 778 L455 778 L507 1109 L1016 1109 L1051 1330 Z M947 1598 L509 1850 L374 1625 L868 1466 L947 1598 Z " />
<glyph glyph-name="Eacute" unicode="&#xc9;" horiz-adv-x="986" d="M1051 1330 L276 1330 L65 0 L859 0 L893 221 L366 221 L421 563 L905 563 L939 778 L455 778 L507 1109 L1016 1109 L1051 1330 Z M509 1466 L1050 1627 L978 1852 L466 1595 L509 1466 Z " />
<glyph glyph-name="Ecircumflex" unicode="&#xca;" horiz-adv-x="986" d="M1051 1330 L276 1330 L65 0 L859 0 L893 221 L366 221 L421 563 L905 563 L939 778 L455 778 L507 1109 L1016 1109 L1051 1330 Z M1042 1610 C963 1670 845 1765 741 1854 C610 1765 459 1669 361 1609 L467 1450 C541 1500 642 1576 706 1628 C753 1576 830 1500 887 1450 L1042 1610 Z " />
<glyph glyph-name="Edieresis" unicode="&#xcb;" horiz-adv-x="986" d="M1051 1330 L276 1330 L65 0 L859 0 L893 221 L366 221 L421 563 L905 563 L939 778 L455 778 L507 1109 L1016 1109 L1051 1330 Z M335 1620 C335 1542 384 1496 460 1496 C568 1496 648 1562 648 1679 C648 1756 599 1802 523 1802 C415 1802 335 1736 335 1620 L335 1620 Z M765 1620 C765 1542 814 1496 890 1496 C998 1496 1078 1562 1078 1679 C1078 1756 1029 1802 953 1802 C845 1802 765 1736 765 1620 L765 1620 Z " />
<glyph glyph-name="Igrave" unicode="&#xcc;" horiz-adv-x="537" d="M64 0 L331 0 L541 1330 L275 1330 L64 0 Z M666 1598 L228 1850 L93 1625 L587 1466 L666 1598 Z " />
<glyph glyph-name="Iacute" unicode="&#xcd;" horiz-adv-x="537" d="M64 0 L331 0 L541 1330 L275 1330 L64 0 Z M231 1466 L772 1627 L700 1852 L189 1595 L231 1466 Z " />
<glyph glyph-name="Icircumflex" unicode="&#xce;" horiz-adv-x="537" d="M64 0 L331 0 L541 1330 L275 1330 L64 0 Z M793 1610 C714 1670 595 1765 492 1854 C361 1765 210 1669 112 1609 L218 1450 C292 1500 393 1576 457 1628 C503 1576 580 1500 637 1450 L793 1610 Z " />
<glyph glyph-name="Idieresis" unicode="&#xcf;" horiz-adv-x="537" d="M64 0 L331 0 L541 1330 L275 1330 L64 0 Z M102 1619 C102 1542 151 1496 227 1496 C335 1496 415 1562 415 1679 C415 1756 366 1802 290 1802 C182 1802 102 1736 102 1619 L102 1619 Z M492 1619 C492 1542 541 1496 617 1496 C725 1496 805 1562 805 1679 C805 1756 756 1802 680 1802 C571 1802 492 1736 492 1619 L492 1619 Z " />
<glyph glyph-name="Eth" unicode="&#xd0;" horiz-adv-x="1309" d="M39 596 L206 596 L112 0 L515 0 C989 0 1274 316 1274 791 C1274 1118 1084 1330 733 1330 L322 1330 L228 735 L61 735 L39 596 Z M409 210 L470 596 L726 596 L749 735 L492 735 L554 1120 L700 1120 C883 1120 987 989 987 764 C987 427 811 210 549 210 L409 210 Z " />
<glyph glyph-name="Ntilde" unicode="&#xd1;" horiz-adv-x="1300" d="M808 0 L1094 0 L1305 1330 L1048 1330 L903 422 L561 1330 L276 1330 L65 0 L322 0 L466 907 L808 0 Z M586 1506 C631 1551 662 1585 704 1585 C766 1585 832 1512 912 1512 C1043 1512 1136 1604 1190 1703 L1076 1800 C1030 1755 998 1721 956 1721 C897 1721 830 1794 740 1794 C611 1794 518 1689 472 1602 L586 1506 Z " />
<glyph glyph-name="Ograve" unicode="&#xd2;" horiz-adv-x="1315" d="M629 195 C457 195 381 336 381 540 C381 895 556 1135 758 1135 C929 1135 1006 994 1006 789 C1006 435 831 195 629 195 L629 195 Z M585 -20 C1007 -20 1292 340 1292 820 C1292 1128 1118 1350 802 1350 C380 1350 95 989 95 509 C95 202 269 -20 585 -20 L585 -20 Z M1085 1598 L647 1850 L512 1625 L1006 1466 L1085 1598 Z " />
<glyph glyph-name="Oacute" unicode="&#xd3;" horiz-adv-x="1315" d="M629 195 C457 195 381 336 381 540 C381 895 556 1135 758 1135 C929 1135 1006 994 1006 789 C1006 435 831 195 629 195 L629 195 Z M585 -20 C1007 -20 1292 340 1292 820 C1292 1128 1118 1350 802 1350 C380 1350 95 989 95 509 C95 202 269 -20 585 -20 L585 -20 Z M613 1466 L1154 1627 L1082 1852 L570 1595 L613 1466 Z " />
<glyph glyph-name="Ocircumflex" unicode="&#xd4;" horiz-adv-x="1315" d="M629 195 C457 195 381 336 381 540 C381 895 556 1135 758 1135 C929 1135 1006 994 1006 789 C1006 435 831 195 629 195 L629 195 Z M585 -20 C1007 -20 1292 340 1292 820 C1292 1128 1118 1350 802 1350 C380 1350 95 989 95 509 C95 202 269 -20 585 -20 L585 -20 Z M1186 1610 C1107 1670 988 1765 885 1854 C754 1765 603 1669 505 1609 L611 1450 C684 1500 786 1576 849 1628 C896 1576 973 1500 1030 1450 L1186 1610 Z " />
<glyph glyph-name="Otilde" unicode="&#xd5;" horiz-adv-x="1315" d="M629 195 C457 195 381 336 381 540 C381 895 556 1135 758 1135 C929 1135 1006 994 1006 789 C1006 435 831 195 629 195 L629 195 Z M585 -20 C1007 -20 1292 340 1292 820 C1292 1128 1118 1350 802 1350 C380 1350 95 989 95 509 C95 202 269 -20 585 -20 L585 -20 Z M600 1506 C644 1551 676 1585 718 1585 C780 1585 846 1512 925 1512 C1056 1512 1150 1604 1203 1703 L1089 1800 C1043 1755 1011 1721 969 1721 C910 1721 844 1794 754 1794 C624 1794 532 1689 486 1602 L600 1506 Z " />
<glyph glyph-name="Odieresis" unicode="&#xd6;" horiz-adv-x="1315" d="M629 195 C457 195 381 336 381 540 C381 895 556 1135 758 1135 C929 1135 1006 994 1006 789 C1006 435 831 195 629 195 L629 195 Z M585 -20 C1007 -20 1292 340 1292 820 C1292 1128 1118 1350 802 1350 C380 1350 95 989 95 509 C95 202 269 -20 585 -20 L585 -20 Z M480 1620 C480 1542 529 1496 606 1496 C713 1496 793 1562 793 1679 C793 1756 745 1802 668 1802 C560 1802 480 1736 480 1620 L480 1620 Z M910 1620 C910 1542 959 1496 1035 1496 C1143 1496 1223 1562 1223 1679 C1223 1756 1174 1802 1098 1802 C990 1802 910 1736 910 1620 L910 1620 Z " />
<glyph glyph-name="multiply" unicode="&#xd7;" horiz-adv-x="1255" d="M1009 1102 L677 815 L435 1102 L262 952 L503 666 L170 378 L296 228 L629 516 L871 229 L1044 379 L803 665 L1135 953 L1009 1102 Z " />
<glyph glyph-name="Oslash" unicode="&#xd8;" horiz-adv-x="1315" d="M205 -154 L343 40 C410 2 491 -20 585 -20 C1007 -20 1292 340 1292 820 C1292 980 1245 1115 1154 1208 L1300 1413 L1182 1484 L1043 1289 C976 1328 896 1350 802 1350 C380 1350 95 989 95 509 C95 349 141 214 233 122 L87 -83 L205 -154 Z M381 540 C381 895 556 1135 758 1135 C818 1135 867 1116 905 1084 L403 374 C388 422 381 478 381 540 L381 540 Z M629 195 C568 195 519 213 482 245 L984 955 C999 907 1006 851 1006 789 C1006 435 831 195 629 195 L629 195 Z " />
<glyph glyph-name="Ugrave" unicode="&#xd9;" horiz-adv-x="1205" d="M512 1330 L246 1330 L117 520 C65 194 191 -20 522 -20 C839 -20 1058 182 1112 522 L1240 1330 L974 1330 L843 509 C811 304 707 197 567 197 C396 197 352 321 386 532 L512 1330 Z M989 1598 L552 1850 L416 1625 L911 1466 L989 1598 Z " />
<glyph glyph-name="Uacute" unicode="&#xda;" horiz-adv-x="1205" d="M512 1330 L246 1330 L117 520 C65 194 191 -20 522 -20 C839 -20 1058 182 1112 522 L1240 1330 L974 1330 L843 509 C811 304 707 197 567 197 C396 197 352 321 386 532 L512 1330 Z M595 1466 L1136 1627 L1064 1852 L552 1595 L595 1466 Z " />
<glyph glyph-name="Ucircumflex" unicode="&#xdb;" horiz-adv-x="1205" d="M512 1330 L246 1330 L117 520 C65 194 191 -20 522 -20 C839 -20 1058 182 1112 522 L1240 1330 L974 1330 L843 509 C811 304 707 197 567 197 C396 197 352 321 386 532 L512 1330 Z M1136 1610 C1057 1670 938 1765 835 1854 C704 1765 553 1669 455 1609 L561 1450 C634 1500 736 1576 799 1628 C846 1576 923 1500 980 1450 L1136 1610 Z " />
<glyph glyph-name="Udieresis" unicode="&#xdc;" horiz-adv-x="1205" d="M512 1330 L246 1330 L117 520 C65 194 191 -20 522 -20 C839 -20 1058 182 1112 522 L1240 1330 L974 1330 L843 509 C811 304 707 197 567 197 C396 197 352 321 386 532 L512 1330 Z M417 1620 C417 1542 466 1496 542 1496 C650 1496 730 1562 730 1679 C730 1756 681 1802 605 1802 C497 1802 417 1736 417 1620 L417 1620 Z M847 1620 C847 1542 896 1496 972 1496 C1080 1496 1160 1562 1160 1679 C1160 1756 1111 1802 1035 1802 C927 1802 847 1736 847 1620 L847 1620 Z " />
<glyph glyph-name="Yacute" unicode="&#xdd;" horiz-adv-x="1043" d="M311 0 L578 0 L658 501 C658 501 657 501 657 501 L1200 1330 L917 1330 L563 765 L390 1330 L112 1330 L392 501 C392 501 391 501 391 501 L311 0 Z M468 1466 L1008 1627 L937 1852 L425 1595 L468 1466 Z " />
<glyph glyph-name="Thorn" unicode="&#xde;" horiz-adv-x="1028" d="M466 868 L611 868 C714 868 770 811 770 704 C770 552 691 451 537 451 L399 451 L466 868 Z M328 0 L366 243 L518 243 C819 243 1049 424 1049 745 C1049 968 904 1084 643 1084 L500 1084 L539 1330 L276 1330 L65 0 L328 0 Z " />
<glyph glyph-name="germandbls" unicode="&#xdf;" horiz-adv-x="1174" d="M441 45 C488 13 577 -20 701 -20 C959 -20 1123 110 1123 314 C1123 427 1056 492 965 571 C895 631 847 671 847 714 C847 765 890 800 956 858 C1061 949 1156 1032 1156 1181 C1156 1337 1033 1480 782 1480 C469 1480 271 1292 235 1055 L5 -396 L271 -396 L499 1038 C521 1184 619 1270 736 1270 C837 1270 883 1213 883 1146 C883 1061 824 1006 750 938 C669 864 589 786 589 662 C589 562 646 509 720 446 C797 381 856 337 856 284 C856 220 807 189 717 189 C642 189 564 214 515 239 L441 45 Z " />
<glyph glyph-name="agrave" unicode="&#xe0;" horiz-adv-x="1077" d="M1042 967 C1046 993 1051 1018 1055 1044 L826 1044 L806 964 C756 1006 689 1044 608 1044 C284 1044 71 689 71 306 C71 84 163 -20 304 -20 C483 -20 631 177 733 404 C712 340 674 240 662 179 C648 113 645 44 659 0 L909 0 C905 48 909 127 929 251 L1042 967 Z M619 837 C691 837 751 789 766 775 C698 494 487 210 401 210 C361 210 342 245 342 313 C342 587 462 837 619 837 L619 837 Z M937 1298 L499 1550 L364 1325 L858 1166 L937 1298 Z " />
<glyph glyph-name="aacute" unicode="&#xe1;" horiz-adv-x="1080" d="M1042 967 C1046 993 1051 1018 1055 1044 L826 1044 L806 964 C756 1006 689 1044 608 1044 C284 1044 71 689 71 306 C71 84 163 -20 304 -20 C483 -20 631 177 733 404 C712 340 674 240 662 179 C648 113 645 44 659 0 L909 0 C905 48 909 127 929 251 L1042 967 Z M619 837 C691 837 751 789 766 775 C698 494 487 210 401 210 C361 210 342 245 342 313 C342 587 462 837 619 837 L619 837 Z M506 1166 L1047 1327 L975 1552 L463 1295 L506 1166 Z " />
<glyph glyph-name="acircumflex" unicode="&#xe2;" horiz-adv-x="1077" d="M1042 967 C1046 993 1051 1018 1055 1044 L826 1044 L806 964 C756 1006 689 1044 608 1044 C284 1044 71 689 71 306 C71 84 163 -20 304 -20 C483 -20 631 177 733 404 C712 340 674 240 662 179 C648 113 645 44 659 0 L909 0 C905 48 909 127 929 251 L1042 967 Z M619 837 C691 837 751 789 766 775 C698 494 487 210 401 210 C361 210 342 245 342 313 C342 587 462 837 619 837 L619 837 Z M1017 1310 C938 1370 819 1465 716 1554 C585 1465 434 1369 336 1309 L442 1150 C515 1200 617 1276 680 1328 C727 1276 804 1200 861 1150 L1017 1310 Z " />
<glyph glyph-name="atilde" unicode="&#xe3;" horiz-adv-x="1077" d="M1042 967 C1046 993 1051 1018 1055 1044 L826 1044 L806 964 C756 1006 689 1044 608 1044 C284 1044 71 689 71 306 C71 84 163 -20 304 -20 C483 -20 631 177 733 404 C712 340 674 240 662 179 C648 113 645 44 659 0 L909 0 C905 48 909 127 929 251 L1042 967 Z M619 837 C691 837 751 789 766 775 C698 494 487 210 401 210 C361 210 342 245 342 313 C342 587 462 837 619 837 L619 837 Z M431 1206 C476 1251 508 1285 550 1285 C611 1285 678 1212 757 1212 C888 1212 981 1304 1035 1403 L921 1500 C875 1455 843 1421 801 1421 C742 1421 675 1494 585 1494 C456 1494 364 1389 317 1302 L431 1206 Z " />
<glyph glyph-name="adieresis" unicode="&#xe4;" horiz-adv-x="1077" d="M1042 967 C1046 993 1051 1018 1055 1044 L826 1044 L806 964 C756 1006 689 1044 608 1044 C284 1044 71 689 71 306 C71 84 163 -20 304 -20 C483 -20 631 177 733 404 C712 340 674 240 662 179 C648 113 645 44 659 0 L909 0 C905 48 909 127 929 251 L1042 967 Z M619 837 C691 837 751 789 766 775 C698 494 487 210 401 210 C361 210 342 245 342 313 C342 587 462 837 619 837 L619 837 Z M307 1320 C307 1242 356 1196 432 1196 C540 1196 620 1262 620 1379 C620 1456 571 1502 495 1502 C387 1502 307 1436 307 1320 L307 1320 Z M737 1320 C737 1242 786 1196 862 1196 C970 1196 1050 1262 1050 1379 C1050 1456 1001 1502 925 1502 C816 1502 737 1436 737 1320 L737 1320 Z " />
<glyph glyph-name="aring" unicode="&#xe5;" horiz-adv-x="1077" d="M1042 967 C1046 993 1051 1018 1055 1044 L826 1044 L806 964 C756 1006 689 1044 608 1044 C284 1044 71 689 71 306 C71 84 163 -20 304 -20 C483 -20 631 177 733 404 C712 340 674 240 662 179 C648 113 645 44 659 0 L909 0 C905 48 909 127 929 251 L1042 967 Z M619 837 C691 837 751 789 766 775 C698 494 487 210 401 210 C361 210 342 245 342 313 C342 587 462 837 619 837 L619 837 Z M415 1309 C415 1195 496 1124 615 1124 C780 1124 904 1225 904 1392 C904 1505 823 1576 704 1576 C540 1576 415 1475 415 1309 L415 1309 Z M580 1337 C580 1391 621 1428 673 1428 C712 1428 739 1403 739 1364 C739 1310 699 1272 645 1272 C607 1272 580 1298 580 1337 L580 1337 Z " />
<glyph glyph-name="ae" unicode="&#xe6;" horiz-adv-x="1310" d="M512 1044 C383 1044 240 993 171 957 L192 768 C247 792 349 826 448 826 C544 826 588 788 594 706 C572 659 555 609 542 557 C473 550 407 541 344 528 C137 488 11 384 11 215 C11 80 94 1 219 -14 C248 -18 278 -19 309 -17 C393 -11 478 28 561 85 C607 14 682 -20 782 -20 C973 -20 1142 60 1207 102 L1177 292 C1107 261 954 198 860 198 C802 198 780 237 780 309 C780 348 782 392 788 434 C1107 483 1317 600 1315 810 C1315 955 1217 1044 1042 1044 C932 1044 839 1003 762 936 C710 1009 625 1044 512 1044 L512 1044 Z M269 265 C269 329 312 376 393 396 C432 405 473 412 515 417 C511 385 509 353 509 322 C509 289 509 256 513 228 C465 198 411 177 362 177 C307 177 269 207 269 265 L269 265 Z M1022 845 C1056 845 1077 824 1077 783 C1077 692 963 609 810 581 C845 722 931 845 1022 845 L1022 845 Z " />
<glyph glyph-name="ccedilla" unicode="&#xe7;" horiz-adv-x="809" d="M851 996 C827 1008 747 1044 637 1044 C253 1044 71 643 71 306 C71 84 168 -20 341 -20 C521 -20 661 47 728 87 L695 276 C631 247 503 198 418 198 C363 198 342 237 342 309 C342 546 448 824 631 824 C701 824 767 801 782 795 L851 996 Z M118 -501 C136 -510 179 -519 230 -519 C402 -519 542 -447 542 -271 C542 -159 455 -106 339 -106 L228 -106 L196 -245 L254 -245 C309 -245 339 -262 339 -300 C339 -349 303 -380 232 -380 C198 -380 173 -375 157 -370 L118 -501 Z " />
<glyph glyph-name="egrave" unicode="&#xe8;" horiz-adv-x="873" d="M877 810 C877 955 780 1044 605 1044 C257 1044 71 643 71 306 C71 84 169 -20 344 -20 C535 -20 704 60 770 102 L739 292 C669 261 516 198 422 198 C365 198 342 237 342 309 C342 344 344 382 350 419 C660 464 880 592 877 810 L877 810 Z M584 845 C618 845 639 824 639 783 C639 680 519 590 370 561 C405 712 492 845 584 845 L584 845 Z M923 1298 L485 1550 L350 1325 L844 1166 L923 1298 Z " />
<glyph glyph-name="eacute" unicode="&#xe9;" horiz-adv-x="873" d="M877 810 C877 955 780 1044 605 1044 C257 1044 71 643 71 306 C71 84 169 -20 344 -20 C535 -20 704 60 770 102 L739 292 C669 261 516 198 422 198 C365 198 342 237 342 309 C342 344 344 382 350 419 C660 464 880 592 877 810 L877 810 Z M584 845 C618 845 639 824 639 783 C639 680 519 590 370 561 C405 712 492 845 584 845 L584 845 Z M421 1166 L961 1327 L890 1552 L378 1295 L421 1166 Z " />
<glyph glyph-name="ecircumflex" unicode="&#xea;" horiz-adv-x="873" d="M877 810 C877 955 780 1044 605 1044 C257 1044 71 643 71 306 C71 84 169 -20 344 -20 C535 -20 704 60 770 102 L739 292 C669 261 516 198 422 198 C365 198 342 237 342 309 C342 344 344 382 350 419 C660 464 880 592 877 810 L877 810 Z M584 845 C618 845 639 824 639 783 C639 680 519 590 370 561 C405 712 492 845 584 845 L584 845 Z M979 1310 C900 1370 781 1465 678 1554 C547 1465 396 1369 298 1309 L404 1150 C477 1200 579 1276 642 1328 C689 1276 766 1200 823 1150 L979 1310 Z " />
<glyph glyph-name="edieresis" unicode="&#xeb;" horiz-adv-x="873" d="M877 810 C877 955 780 1044 605 1044 C257 1044 71 643 71 306 C71 84 169 -20 344 -20 C535 -20 704 60 770 102 L739 292 C669 261 516 198 422 198 C365 198 342 237 342 309 C342 344 344 382 350 419 C660 464 880 592 877 810 L877 810 Z M584 845 C618 845 639 824 639 783 C639 680 519 590 370 561 C405 712 492 845 584 845 L584 845 Z M272 1320 C272 1242 321 1196 397 1196 C505 1196 585 1262 585 1379 C585 1456 536 1502 460 1502 C352 1502 272 1436 272 1320 L272 1320 Z M702 1320 C702 1242 751 1196 827 1196 C935 1196 1015 1262 1015 1379 C1015 1456 966 1502 890 1502 C781 1502 702 1436 702 1320 L702 1320 Z " />
<glyph glyph-name="igrave" unicode="&#xec;" horiz-adv-x="528" d="M96 200 C83 116 92 27 102 0 L349 0 C345 48 349 127 369 251 L492 1024 L228 1024 L96 200 Z M656 1298 L218 1550 L83 1325 L577 1166 L656 1298 Z " />
<glyph glyph-name="iacute" unicode="&#xed;" horiz-adv-x="528" d="M96 200 C83 116 92 27 102 0 L349 0 C345 48 349 127 369 251 L492 1024 L228 1024 L96 200 Z M212 1166 L753 1327 L681 1552 L169 1295 L212 1166 Z " />
<glyph glyph-name="icircumflex" unicode="&#xee;" horiz-adv-x="528" d="M96 200 C83 116 92 27 102 0 L349 0 C345 48 349 127 369 251 L492 1024 L228 1024 L96 200 Z M753 1310 C674 1370 555 1465 452 1554 C321 1465 170 1369 72 1309 L178 1150 C251 1200 353 1276 416 1328 C463 1276 540 1200 597 1150 L753 1310 Z " />
<glyph glyph-name="idieresis" unicode="&#xef;" horiz-adv-x="528" d="M96 200 C83 116 92 27 102 0 L349 0 C345 48 349 127 369 251 L492 1024 L228 1024 L96 200 Z M50 1320 C50 1242 99 1196 175 1196 C283 1196 363 1262 363 1379 C363 1456 314 1502 238 1502 C130 1502 50 1436 50 1320 L50 1320 Z M468 1320 C468 1242 517 1196 594 1196 C702 1196 781 1262 781 1379 C781 1456 733 1502 656 1502 C548 1502 468 1436 468 1320 L468 1320 Z " />
<glyph glyph-name="eth" unicode="&#xf0;" horiz-adv-x="1057" d="M626 1099 L715 1211 C756 1162 780 1084 786 974 C758 1009 698 1044 614 1044 C278 1044 59 739 59 385 C59 131 191 -20 431 -20 C804 -20 1018 300 1037 837 C1046 1084 1001 1298 858 1404 L948 1518 L839 1590 L740 1462 C702 1473 659 1480 611 1480 C490 1480 370 1435 334 1419 L358 1238 C384 1248 468 1280 558 1280 C573 1280 588 1279 602 1276 L520 1170 L626 1099 Z M590 847 C689 847 738 775 746 697 C725 378 628 179 473 179 C371 179 335 262 335 400 C335 578 407 847 590 847 L590 847 Z " />
<glyph glyph-name="ntilde" unicode="&#xf1;" horiz-adv-x="1106" d="M209 1024 C213 976 208 897 188 773 L66 0 L330 0 L354 154 C354 154 354 154 354 154 C419 564 625 781 719 781 C759 781 772 750 770 704 C771 694 770 681 767 668 L693 200 C680 116 689 27 699 0 L946 0 C942 48 946 127 966 251 L1038 701 C1070 903 1021 1044 842 1044 C661 1044 499 854 379 592 C401 659 438 764 454 841 C469 909 472 979 458 1024 L209 1024 Z M455 1206 C500 1251 532 1285 574 1285 C635 1285 702 1212 781 1212 C912 1212 1005 1304 1059 1403 L945 1500 C899 1455 867 1421 825 1421 C766 1421 699 1494 609 1494 C480 1494 387 1389 341 1302 L455 1206 Z " />
<glyph glyph-name="ograve" unicode="&#xf2;" horiz-adv-x="983" d="M392 -20 C738 -20 965 279 965 688 C965 902 842 1044 632 1044 C284 1044 59 744 59 335 C59 122 183 -20 392 -20 L392 -20 Z M434 179 C365 179 330 233 330 348 C330 585 423 798 550 834 C576 841 601 842 625 835 C671 821 694 770 694 677 C694 413 584 179 434 179 L434 179 Z M910 1298 L473 1550 L337 1325 L832 1166 L910 1298 Z " />
<glyph glyph-name="oacute" unicode="&#xf3;" horiz-adv-x="983" d="M392 -20 C738 -20 965 279 965 688 C965 902 842 1044 632 1044 C284 1044 59 744 59 335 C59 122 183 -20 392 -20 L392 -20 Z M434 179 C365 179 330 233 330 348 C330 585 423 798 550 834 C576 841 601 842 625 835 C671 821 694 770 694 677 C694 413 584 179 434 179 L434 179 Z M426 1166 L966 1327 L895 1552 L383 1295 L426 1166 Z " />
<glyph glyph-name="ocircumflex" unicode="&#xf4;" horiz-adv-x="983" d="M392 -20 C738 -20 965 279 965 688 C965 902 842 1044 632 1044 C284 1044 59 744 59 335 C59 122 183 -20 392 -20 L392 -20 Z M434 179 C365 179 330 233 330 348 C330 585 423 798 550 834 C576 841 601 842 625 835 C671 821 694 770 694 677 C694 413 584 179 434 179 L434 179 Z M988 1310 C909 1370 791 1465 687 1554 C556 1465 405 1369 307 1309 L413 1150 C487 1200 588 1276 652 1328 C699 1276 776 1200 833 1150 L988 1310 Z " />
<glyph glyph-name="otilde" unicode="&#xf5;" horiz-adv-x="983" d="M392 -20 C738 -20 965 279 965 688 C965 902 842 1044 632 1044 C284 1044 59 744 59 335 C59 122 183 -20 392 -20 L392 -20 Z M434 179 C365 179 330 233 330 348 C330 585 423 798 550 834 C576 841 601 842 625 835 C671 821 694 770 694 677 C694 413 584 179 434 179 L434 179 Z M403 1206 C447 1251 479 1285 521 1285 C583 1285 649 1212 728 1212 C859 1212 952 1304 1006 1403 L892 1500 C846 1455 814 1421 772 1421 C713 1421 646 1494 557 1494 C427 1494 335 1389 289 1302 L403 1206 Z " />
<glyph glyph-name="odieresis" unicode="&#xf6;" horiz-adv-x="983" d="M392 -20 C738 -20 965 279 965 688 C965 902 842 1044 632 1044 C284 1044 59 744 59 335 C59 122 183 -20 392 -20 L392 -20 Z M434 179 C365 179 330 233 330 348 C330 585 423 798 550 834 C576 841 601 842 625 835 C671 821 694 770 694 677 C694 413 584 179 434 179 L434 179 Z M280 1320 C280 1242 329 1196 405 1196 C513 1196 593 1262 593 1379 C593 1456 544 1502 468 1502 C360 1502 280 1436 280 1320 L280 1320 Z M710 1320 C710 1242 759 1196 835 1196 C943 1196 1023 1262 1023 1379 C1023 1456 974 1502 898 1502 C790 1502 710 1436 710 1320 L710 1320 Z " />
<glyph glyph-name="divide" unicode="&#xf7;" horiz-adv-x="1235" d="M195 565 L1038 565 L1070 763 L227 763 L195 565 Z M419 277 C419 199 468 153 544 153 C652 153 732 219 732 336 C732 413 683 459 607 459 C499 459 419 393 419 277 L419 277 Z M531 991 C531 914 580 868 656 868 C764 868 844 934 844 1051 C844 1128 795 1174 719 1174 C611 1174 531 1108 531 991 L531 991 Z " />
<glyph glyph-name="oslash" unicode="&#xf8;" horiz-adv-x="983" d="M392 -20 C738 -20 965 279 965 688 C965 776 943 851 905 910 L1073 1120 L972 1183 L820 993 C769 1026 706 1044 632 1044 C284 1044 59 744 59 335 C59 249 79 174 118 116 L-50 -95 L51 -158 L203 31 C254 -1 317 -20 392 -20 L392 -20 Z M434 179 C399 179 373 193 355 222 L689 640 C689 617 687 593 684 569 C666 353 564 179 434 179 L434 179 Z M333 410 C345 646 451 845 589 845 C624 845 650 831 668 802 L358 415 C349 413 341 411 333 410 L333 410 Z " />
<glyph glyph-name="ugrave" unicode="&#xf9;" horiz-adv-x="1091" d="M926 0 C922 48 926 127 946 251 L1069 1024 L805 1024 L781 869 C781 869 781 870 781 870 C717 460 520 243 429 243 C390 243 376 274 379 320 C378 330 379 343 381 356 L455 824 C470 908 460 997 450 1024 L203 1024 C207 976 202 897 183 773 L111 323 C79 121 128 -20 307 -20 C482 -20 639 169 756 432 C733 364 697 259 680 182 C665 114 663 45 677 0 L926 0 Z M923 1298 L485 1550 L350 1325 L844 1166 L923 1298 Z " />
<glyph glyph-name="uacute" unicode="&#xfa;" horiz-adv-x="1091" d="M926 0 C922 48 926 127 946 251 L1069 1024 L805 1024 L781 869 C781 869 781 870 781 870 C717 460 520 243 429 243 C390 243 376 274 379 320 C378 330 379 343 381 356 L455 824 C470 908 460 997 450 1024 L203 1024 C207 976 202 897 183 773 L111 323 C79 121 128 -20 307 -20 C482 -20 639 169 756 432 C733 364 697 259 680 182 C665 114 663 45 677 0 L926 0 Z M484 1166 L1025 1327 L953 1552 L441 1295 L484 1166 Z " />
<glyph glyph-name="ucircumflex" unicode="&#xfb;" horiz-adv-x="1091" d="M926 0 C922 48 926 127 946 251 L1069 1024 L805 1024 L781 869 C781 869 781 870 781 870 C717 460 520 243 429 243 C390 243 376 274 379 320 C378 330 379 343 381 356 L455 824 C470 908 460 997 450 1024 L203 1024 C207 976 202 897 183 773 L111 323 C79 121 128 -20 307 -20 C482 -20 639 169 756 432 C733 364 697 259 680 182 C665 114 663 45 677 0 L926 0 Z M1022 1310 C943 1370 824 1465 721 1554 C590 1465 439 1369 341 1309 L447 1150 C520 1200 622 1276 685 1328 C732 1276 809 1200 866 1150 L1022 1310 Z " />
<glyph glyph-name="udieresis" unicode="&#xfc;" horiz-adv-x="1091" d="M926 0 C922 48 926 127 946 251 L1069 1024 L805 1024 L781 869 C781 869 781 870 781 870 C717 460 520 243 429 243 C390 243 376 274 379 320 C378 330 379 343 381 356 L455 824 C470 908 460 997 450 1024 L203 1024 C207 976 202 897 183 773 L111 323 C79 121 128 -20 307 -20 C482 -20 639 169 756 432 C733 364 697 259 680 182 C665 114 663 45 677 0 L926 0 Z M752 1320 C752 1242 801 1196 878 1196 C986 1196 1065 1262 1065 1379 C1065 1456 1017 1502 940 1502 C832 1502 752 1436 752 1320 L752 1320 Z M323 1320 C323 1242 372 1196 448 1196 C556 1196 636 1262 636 1379 C636 1456 587 1502 511 1502 C402 1502 323 1436 323 1320 L323 1320 Z " />
<glyph glyph-name="yacute" unicode="&#xfd;" horiz-adv-x="950" d="M203 229 C222 -124 156 -207 24 -207 C-21 -207 -75 -193 -99 -180 L-170 -364 C-139 -385 -74 -416 19 -416 C139 -416 243 -376 318 -291 C654 49 948 529 948 877 C948 946 934 1010 921 1044 L670 1024 C684 981 689 931 689 880 C689 676 613 442 498 251 C481 218 463 185 443 153 C446 184 446 218 444 256 C420 726 381 980 368 1024 L120 1024 C133 991 180 641 203 229 L203 229 Z M385 1166 L926 1327 L854 1552 L343 1295 L385 1166 Z " />
<glyph glyph-name="thorn" unicode="&#xfe;" horiz-adv-x="1080" d="M73 57 L-1 -396 L263 -396 L322 -35 C322 -35 322 -35 322 -35 C322 -35 322 -34 322 -34 L334 40 C380 6 439 -20 508 -20 C832 -20 1045 335 1045 718 C1045 940 953 1044 812 1044 C636 1044 494 869 392 642 C438 772 471 896 489 1007 L526 1242 C542 1341 539 1429 526 1480 L270 1456 C275 1409 277 1333 259 1219 L197 832 C161 610 126 388 91 167 L73 57 Z M497 187 C425 187 369 233 354 249 C419 530 629 814 715 814 C755 814 774 779 774 711 C774 437 654 187 497 187 L497 187 Z " />
<glyph glyph-name="ydieresis" unicode="&#xff;" horiz-adv-x="953" d="M203 229 C222 -124 156 -207 24 -207 C-21 -207 -75 -193 -99 -180 L-170 -364 C-139 -385 -74 -416 19 -416 C139 -416 243 -376 318 -291 C654 49 948 529 948 877 C948 946 934 1010 921 1044 L670 1024 C684 981 689 931 689 880 C689 676 613 442 498 251 C481 218 463 185 443 153 C446 184 446 218 444 256 C420 726 381 980 368 1024 L120 1024 C133 991 180 641 203 229 L203 229 Z M649 1320 C649 1242 698 1196 774 1196 C882 1196 962 1262 962 1379 C962 1456 913 1502 837 1502 C729 1502 649 1436 649 1320 L649 1320 Z M219 1320 C219 1242 268 1196 344 1196 C452 1196 532 1262 532 1379 C532 1456 483 1502 407 1502 C299 1502 219 1436 219 1320 L219 1320 Z " />
<glyph glyph-name="Amacron" unicode="&#x100;" horiz-adv-x="1182" d="M840 0 L1120 0 L856 1330 L609 1330 L-78 0 L202 0 L353 308 L786 308 L840 0 Z M678 990 L752 513 L452 513 L678 990 Z M447 1557 L1068 1557 L1099 1755 L479 1755 L447 1557 Z " />
<glyph glyph-name="amacron" unicode="&#x101;" horiz-adv-x="1077" d="M1042 967 C1046 993 1051 1018 1055 1044 L826 1044 L806 964 C756 1006 689 1044 608 1044 C284 1044 71 689 71 306 C71 84 163 -20 304 -20 C483 -20 631 177 733 404 C712 340 674 240 662 179 C648 113 645 44 659 0 L909 0 C905 48 909 127 929 251 L1042 967 Z M619 837 C691 837 751 789 766 775 C698 494 487 210 401 210 C361 210 342 245 342 313 C342 587 462 837 619 837 L619 837 Z M347 1251 L967 1251 L999 1449 L378 1449 L347 1251 Z " />
<glyph glyph-name="Abreve" unicode="&#x102;" horiz-adv-x="1182" d="M840 0 L1120 0 L856 1330 L609 1330 L-78 0 L202 0 L353 308 L786 308 L840 0 Z M678 990 L752 513 L452 513 L678 990 Z M538 1808 C469 1562 615 1473 762 1473 C910 1473 1082 1562 1092 1808 L904 1808 C897 1720 863 1646 789 1646 C715 1646 704 1720 725 1808 L538 1808 Z " />
<glyph glyph-name="abreve" unicode="&#x103;" horiz-adv-x="1080" d="M1042 967 C1046 993 1051 1018 1055 1044 L826 1044 L806 964 C756 1006 689 1044 608 1044 C284 1044 71 689 71 306 C71 84 163 -20 304 -20 C483 -20 631 177 733 404 C712 340 674 240 662 179 C648 113 645 44 659 0 L909 0 C905 48 909 127 929 251 L1042 967 Z M619 837 C691 837 751 789 766 775 C698 494 487 210 401 210 C361 210 342 245 342 313 C342 587 462 837 619 837 L619 837 Z M419 1502 C350 1256 496 1167 643 1167 C791 1167 963 1256 973 1502 L785 1502 C778 1414 744 1340 670 1340 C596 1340 585 1414 606 1502 L419 1502 Z " />
<glyph glyph-name="Aogonek" unicode="&#x104;" horiz-adv-x="1182" d="M840 0 C805 -29 739 -96 745 -176 C712 -251 698 -319 730 -383 C762 -427 817 -453 878 -462 C908 -467 940 -467 971 -463 C1037 -455 1097 -427 1120 -411 L1102 -249 C1079 -260 1027 -282 978 -282 C934 -282 906 -258 906 -206 C906 -124 978 -51 1046 0 L1120 0 C1028 442 943 887 856 1330 L609 1330 L-78 0 L202 0 L353 308 L786 308 L840 0 Z M678 990 L752 513 L452 513 L678 990 Z " />
<glyph glyph-name="aogonek" unicode="&#x105;" horiz-adv-x="1077" d="M1042 967 C1046 993 1051 1018 1055 1044 L826 1044 L806 964 C756 1006 689 1044 608 1044 C284 1044 71 689 71 306 C71 84 163 -20 304 -20 C483 -20 631 177 733 404 C713 344 677 246 664 187 C655 142 651 89 654 58 C656 42 659 27 665 12 C603 -26 465 -136 465 -274 C465 -415 576 -470 698 -470 C787 -470 877 -433 908 -411 L890 -250 C866 -261 814 -283 766 -283 C722 -283 693 -258 693 -207 C693 -125 766 -51 834 0 C858 15 884 48 915 87 C914 134 919 191 935 289 L1042 967 Z M619 837 C691 837 751 789 766 775 C698 494 487 210 401 210 C361 210 342 245 342 313 C342 587 462 837 619 837 L619 837 Z " />
<glyph glyph-name="Cacute" unicode="&#x106;" horiz-adv-x="1052" d="M95 499 C95 187 280 -20 617 -20 C739 -20 873 16 962 68 L931 269 C849 231 747 206 654 206 C474 206 382 338 382 538 C382 888 544 1124 795 1124 C898 1124 986 1101 1038 1086 L1114 1288 C1070 1313 954 1350 823 1350 C388 1350 95 999 95 499 L95 499 Z M569 1466 L1110 1627 L1038 1852 L527 1595 L569 1466 Z " />
<glyph glyph-name="cacute" unicode="&#x107;" horiz-adv-x="809" d="M851 996 C827 1008 747 1044 637 1044 C253 1044 71 643 71 306 C71 84 168 -20 341 -20 C521 -20 661 47 728 87 L695 276 C631 247 503 198 418 198 C363 198 342 237 342 309 C342 546 448 824 631 824 C701 824 767 801 782 795 L851 996 Z M428 1166 L969 1327 L897 1552 L385 1295 L428 1166 Z " />
<glyph glyph-name="Ccircumflex" unicode="&#x108;" horiz-adv-x="1052" d="M95 499 C95 187 280 -20 617 -20 C739 -20 873 16 962 68 L931 269 C849 231 747 206 654 206 C474 206 382 338 382 538 C382 888 544 1124 795 1124 C898 1124 986 1101 1038 1086 L1114 1288 C1070 1313 954 1350 823 1350 C388 1350 95 999 95 499 L95 499 Z M1168 1610 C1089 1670 970 1765 866 1854 C736 1765 585 1669 487 1609 L593 1450 C666 1500 768 1576 831 1628 C878 1576 955 1500 1012 1450 L1168 1610 Z " />
<glyph glyph-name="ccircumflex" unicode="&#x109;" horiz-adv-x="809" d="M851 996 C827 1008 747 1044 637 1044 C253 1044 71 643 71 306 C71 84 168 -20 341 -20 C521 -20 661 47 728 87 L695 276 C631 247 503 198 418 198 C363 198 342 237 342 309 C342 546 448 824 631 824 C701 824 767 801 782 795 L851 996 Z M974 1310 C895 1370 777 1465 673 1554 C542 1465 391 1369 293 1309 L399 1150 C473 1200 574 1276 638 1328 C685 1276 762 1200 819 1150 L974 1310 Z " />
<glyph glyph-name="Cdotaccent" unicode="&#x10a;" horiz-adv-x="1052" d="M95 499 C95 187 280 -20 617 -20 C739 -20 873 16 962 68 L931 269 C849 231 747 206 654 206 C474 206 382 338 382 538 C382 888 544 1124 795 1124 C898 1124 986 1101 1038 1086 L1114 1288 C1070 1313 954 1350 823 1350 C388 1350 95 999 95 499 L95 499 Z M682 1620 C682 1542 731 1496 808 1496 C916 1496 995 1562 995 1679 C995 1756 947 1802 870 1802 C762 1802 682 1736 682 1620 L682 1620 Z " />
<glyph glyph-name="cdotaccent" unicode="&#x10b;" horiz-adv-x="809" d="M851 996 C827 1008 747 1044 637 1044 C253 1044 71 643 71 306 C71 84 168 -20 341 -20 C521 -20 661 47 728 87 L695 276 C631 247 503 198 418 198 C363 198 342 237 342 309 C342 546 448 824 631 824 C701 824 767 801 782 795 L851 996 Z M480 1320 C480 1242 529 1196 606 1196 C713 1196 793 1262 793 1379 C793 1456 745 1502 668 1502 C560 1502 480 1436 480 1320 L480 1320 Z " />
<glyph glyph-name="Ccaron" unicode="&#x10c;" horiz-adv-x="1052" d="M95 499 C95 187 280 -20 617 -20 C739 -20 873 16 962 68 L931 269 C849 231 747 206 654 206 C474 206 382 338 382 538 C382 888 544 1124 795 1124 C898 1124 986 1101 1038 1086 L1114 1288 C1070 1313 954 1350 823 1350 C388 1350 95 999 95 499 L95 499 Z M508 1697 C618 1626 733 1531 804 1438 C905 1531 1050 1626 1182 1697 L1095 1867 C1010 1818 904 1735 841 1674 C798 1735 717 1818 649 1867 L508 1697 Z " />
<glyph glyph-name="ccaron" unicode="&#x10d;" horiz-adv-x="809" d="M851 996 C827 1008 747 1044 637 1044 C253 1044 71 643 71 306 C71 84 168 -20 341 -20 C521 -20 661 47 728 87 L695 276 C631 247 503 198 418 198 C363 198 342 237 342 309 C342 546 448 824 631 824 C701 824 767 801 782 795 L851 996 Z M318 1397 C428 1326 543 1231 614 1138 C715 1231 860 1326 992 1397 L905 1567 C820 1518 714 1435 651 1374 C608 1435 527 1518 459 1567 L318 1397 Z " />
<glyph glyph-name="Dcaron" unicode="&#x10e;" horiz-adv-x="1262" d="M469 0 C942 0 1227 316 1227 791 C1227 1118 1037 1330 686 1330 L276 1330 L65 0 L469 0 Z M362 210 L507 1120 L653 1120 C836 1120 940 989 940 764 C940 427 764 210 502 210 L362 210 Z M345 1697 C455 1626 570 1531 641 1438 C742 1531 887 1626 1019 1697 L932 1867 C847 1818 741 1735 678 1674 C635 1735 554 1818 486 1867 L345 1697 Z " />
<glyph glyph-name="dcaron" unicode="&#x10f;" horiz-adv-x="1212" d="M1042 967 L1086 1242 C1102 1341 1100 1429 1087 1480 L830 1456 C835 1409 837 1333 819 1219 L781 984 C735 1018 676 1044 608 1044 C284 1044 71 689 71 306 C71 84 163 -20 304 -20 C483 -20 631 177 733 404 C712 340 674 240 662 179 C648 113 645 44 659 0 L909 0 C905 48 909 127 929 251 L1042 967 Z M619 837 C691 837 751 790 766 775 C698 494 487 210 401 210 C361 210 342 245 342 313 C342 587 462 837 619 837 L619 837 Z M1207 1488 C1228 1466 1264 1415 1264 1346 C1264 1249 1201 1190 1157 1161 L1242 1068 C1335 1112 1472 1219 1472 1376 C1472 1463 1431 1521 1406 1544 L1207 1488 Z " />
<glyph glyph-name="Dcroat" unicode="&#x110;" horiz-adv-x="1308" d="M39 596 L205 596 L111 0 L515 0 C988 0 1273 316 1273 791 C1273 1118 1084 1330 732 1330 L322 1330 L227 735 L61 735 L39 596 Z M408 210 L469 596 L726 596 L749 735 L492 735 L553 1120 L699 1120 C882 1120 987 989 987 764 C987 427 810 210 548 210 L408 210 Z " />
<glyph glyph-name="dcroat" unicode="&#x111;" horiz-adv-x="1080" d="M525 1192 L814 1192 L781 984 C735 1018 676 1044 608 1044 C284 1044 71 689 71 306 C71 84 163 -20 304 -20 C483 -20 631 177 733 404 C715 352 681 259 668 204 C650 126 643 50 659 0 L909 0 C905 48 909 127 929 251 L1054 1036 L1079 1192 L1214 1192 L1233 1312 L1094 1312 C1100 1380 1097 1441 1087 1480 L830 1456 C834 1423 835 1375 830 1312 L544 1312 L525 1192 Z M619 837 C691 837 751 790 766 775 C698 494 487 210 401 210 C361 210 342 245 342 313 C342 587 462 837 619 837 L619 837 Z " />
<glyph glyph-name="Emacron" unicode="&#x112;" horiz-adv-x="986" d="M1051 1330 L276 1330 L65 0 L859 0 L893 221 L366 221 L421 563 L905 563 L939 778 L455 778 L507 1109 L1016 1109 L1051 1330 Z M373 1557 L993 1557 L1025 1755 L405 1755 L373 1557 Z " />
<glyph glyph-name="emacron" unicode="&#x113;" horiz-adv-x="873" d="M877 810 C877 955 780 1044 605 1044 C257 1044 71 643 71 306 C71 84 169 -20 344 -20 C535 -20 704 60 770 102 L739 292 C669 261 516 198 422 198 C365 198 342 237 342 309 C342 344 344 382 350 419 C660 464 880 592 877 810 L877 810 Z M584 845 C618 845 639 824 639 783 C639 680 519 590 370 561 C405 712 492 845 584 845 L584 845 Z M314 1251 L934 1251 L966 1449 L345 1449 L314 1251 Z " />
<glyph glyph-name="Ebreve" unicode="&#x114;" horiz-adv-x="986" d="M1051 1330 L276 1330 L65 0 L859 0 L893 221 L366 221 L421 563 L905 563 L939 778 L455 778 L507 1109 L1016 1109 L1051 1330 Z M475 1808 C407 1562 552 1473 700 1473 C847 1473 1019 1562 1029 1808 L841 1808 C834 1720 801 1646 727 1646 C653 1646 641 1720 663 1808 L475 1808 Z " />
<glyph glyph-name="ebreve" unicode="&#x115;" horiz-adv-x="873" d="M877 810 C877 955 780 1044 605 1044 C257 1044 71 643 71 306 C71 84 169 -20 344 -20 C535 -20 704 60 770 102 L739 292 C669 261 516 198 422 198 C365 198 342 237 342 309 C342 344 344 382 350 419 C660 464 880 592 877 810 L877 810 Z M584 845 C618 845 639 824 639 783 C639 680 519 590 370 561 C405 712 492 845 584 845 L584 845 Z M382 1502 C314 1256 459 1167 606 1167 C754 1167 926 1256 936 1502 L748 1502 C741 1414 707 1340 633 1340 C559 1340 548 1414 569 1502 L382 1502 Z " />
<glyph glyph-name="Edotaccent" unicode="&#x116;" horiz-adv-x="986" d="M1051 1330 L276 1330 L65 0 L859 0 L893 221 L366 221 L421 563 L905 563 L939 778 L455 778 L507 1109 L1016 1109 L1051 1330 Z M557 1620 C557 1542 606 1496 682 1496 C790 1496 870 1562 870 1679 C870 1756 821 1802 745 1802 C636 1802 557 1736 557 1620 L557 1620 Z " />
<glyph glyph-name="edotaccent" unicode="&#x117;" horiz-adv-x="873" d="M877 810 C877 955 780 1044 605 1044 C257 1044 71 643 71 306 C71 84 169 -20 344 -20 C535 -20 704 60 770 102 L739 292 C669 261 516 198 422 198 C365 198 342 237 342 309 C342 344 344 382 350 419 C660 464 880 592 877 810 L877 810 Z M584 845 C618 845 639 824 639 783 C639 680 519 590 370 561 C405 712 492 845 584 845 L584 845 Z M483 1320 C483 1242 532 1196 609 1196 C716 1196 796 1262 796 1379 C796 1456 748 1502 671 1502 C563 1502 483 1436 483 1320 L483 1320 Z " />
<glyph glyph-name="Eogonek" unicode="&#x118;" horiz-adv-x="986" d="M1051 1330 L276 1330 L65 0 L674 0 C600 -51 493 -151 493 -274 C493 -414 605 -469 726 -469 C816 -469 905 -433 936 -411 L918 -249 C894 -260 842 -282 794 -282 C750 -282 721 -258 721 -206 C721 -124 794 -51 863 0 L868 57 L893 221 L366 221 L421 563 L905 563 L939 778 L455 778 L507 1109 L1016 1109 L1051 1330 Z " />
<glyph glyph-name="eogonek" unicode="&#x119;" horiz-adv-x="873" d="M877 810 C877 955 780 1044 605 1044 C257 1044 71 643 71 306 C71 129 138 26 252 -1 C269 -8 286 -13 306 -16 C235 -70 148 -163 148 -274 C148 -414 259 -469 381 -469 C470 -469 560 -433 590 -411 L573 -249 C549 -260 497 -282 448 -282 C405 -282 376 -258 376 -206 C376 -124 448 -51 517 0 C517 0 517 0 517 0 C632 26 725 73 770 102 L739 292 C669 261 516 198 422 198 C364 198 342 237 342 309 C342 344 344 382 350 419 C660 464 880 592 877 810 L877 810 Z M584 845 C618 845 639 824 639 783 C639 680 519 590 370 561 C405 712 492 845 584 845 L584 845 Z " />
<glyph glyph-name="Ecaron" unicode="&#x11a;" horiz-adv-x="986" d="M1051 1330 L276 1330 L65 0 L859 0 L893 221 L366 221 L421 563 L905 563 L939 778 L455 778 L507 1109 L1016 1109 L1051 1330 Z M385 1697 C494 1626 610 1531 680 1438 C781 1531 926 1626 1059 1697 L971 1867 C887 1818 780 1735 718 1674 C674 1735 594 1818 526 1867 L385 1697 Z " />
<glyph glyph-name="ecaron" unicode="&#x11b;" horiz-adv-x="873" d="M877 810 C877 955 780 1044 605 1044 C257 1044 71 643 71 306 C71 84 169 -20 344 -20 C535 -20 704 60 770 102 L739 292 C669 261 516 198 422 198 C365 198 342 237 342 309 C342 344 344 382 350 419 C660 464 880 592 877 810 L877 810 Z M584 845 C618 845 639 824 639 783 C639 680 519 590 370 561 C405 712 492 845 584 845 L584 845 Z M311 1397 C421 1326 537 1231 607 1138 C708 1231 853 1326 985 1397 L898 1567 C813 1518 707 1435 644 1374 C601 1435 520 1518 452 1567 L311 1397 Z " />
<glyph glyph-name="Gcircumflex" unicode="&#x11c;" horiz-adv-x="1183" d="M1156 737 L688 737 L657 538 L881 537 L832 228 C789 215 732 206 679 206 C474 206 382 338 382 539 C382 889 544 1124 838 1124 C949 1124 1038 1103 1094 1084 L1174 1285 C1115 1316 1006 1350 866 1350 C388 1350 95 998 95 499 C95 187 280 -20 642 -20 C793 -20 950 26 1055 99 L1156 737 Z M1224 1616 C1145 1676 1026 1771 922 1860 C792 1771 641 1675 543 1615 L649 1456 C722 1506 824 1582 887 1634 C934 1582 1011 1506 1068 1456 L1224 1616 Z " />
<glyph glyph-name="gcircumflex" unicode="&#x11d;" horiz-adv-x="1095" d="M1055 967 C1060 993 1064 1018 1068 1044 L839 1044 L820 964 C769 1006 702 1044 621 1044 C297 1044 84 689 84 306 C84 84 177 -20 317 -20 C498 -20 647 180 749 411 C734 368 723 329 711 291 C684 175 670 80 652 -13 C625 -138 536 -207 376 -207 C262 -207 149 -176 108 -159 L55 -351 C87 -369 210 -416 369 -416 C686 -416 856 -299 904 -20 C945 243 984 518 1055 967 L1055 967 Z M632 837 C704 837 764 789 779 775 C712 494 500 210 414 210 C374 210 355 245 355 313 C355 587 475 837 632 837 L632 837 Z M1044 1310 C965 1370 846 1465 743 1554 C612 1465 461 1369 363 1309 L469 1150 C543 1200 644 1276 708 1328 C755 1276 832 1200 889 1150 L1044 1310 Z " />
<glyph glyph-name="Gbreve" unicode="&#x11e;" horiz-adv-x="1169" d="M1156 737 L688 737 L657 538 L881 537 L832 228 C789 215 732 206 679 206 C474 206 382 338 382 539 C382 889 544 1124 838 1124 C949 1124 1038 1103 1094 1084 L1174 1285 C1115 1316 1006 1350 866 1350 C388 1350 95 998 95 499 C95 187 280 -20 642 -20 C793 -20 950 26 1055 99 L1156 737 Z M633 1808 C565 1562 710 1473 857 1473 C1005 1473 1177 1562 1187 1808 L999 1808 C992 1720 958 1646 884 1646 C810 1646 799 1720 820 1808 L633 1808 Z " />
<glyph glyph-name="gbreve" unicode="&#x11f;" horiz-adv-x="1095" d="M1055 967 C1060 993 1064 1018 1068 1044 L839 1044 L820 964 C769 1006 702 1044 621 1044 C297 1044 84 689 84 306 C84 84 177 -20 317 -20 C498 -20 647 180 749 411 C734 368 723 329 711 291 C684 175 670 80 652 -13 C625 -138 536 -207 376 -207 C262 -207 149 -176 108 -159 L55 -351 C87 -369 210 -416 369 -416 C686 -416 856 -299 904 -20 C945 243 984 518 1055 967 L1055 967 Z M632 837 C704 837 764 789 779 775 C712 494 500 210 414 210 C374 210 355 245 355 313 C355 587 475 837 632 837 L632 837 Z M454 1502 C385 1256 531 1167 678 1167 C826 1167 998 1256 1007 1502 L820 1502 C812 1414 779 1340 705 1340 C631 1340 619 1414 641 1502 L454 1502 Z " />
<glyph glyph-name="Gdotaccent" unicode="&#x120;" horiz-adv-x="1169" d="M1156 737 L688 737 L657 538 L881 537 L832 228 C789 215 732 206 679 206 C474 206 382 338 382 539 C382 889 544 1124 838 1124 C949 1124 1038 1103 1094 1084 L1174 1285 C1115 1316 1006 1350 866 1350 C388 1350 95 998 95 499 C95 187 280 -20 642 -20 C793 -20 950 26 1055 99 L1156 737 Z M707 1626 C707 1548 756 1502 832 1502 C940 1502 1020 1568 1020 1685 C1020 1762 971 1808 895 1808 C787 1808 707 1742 707 1626 L707 1626 Z " />
<glyph glyph-name="gdotaccent" unicode="&#x121;" horiz-adv-x="1095" d="M1055 967 C1060 993 1064 1018 1068 1044 L839 1044 L820 964 C769 1006 702 1044 621 1044 C297 1044 84 689 84 306 C84 84 177 -20 317 -20 C498 -20 647 180 749 411 C734 368 723 329 711 291 C684 175 670 80 652 -13 C625 -138 536 -207 376 -207 C262 -207 149 -176 108 -159 L55 -351 C87 -369 210 -416 369 -416 C686 -416 856 -299 904 -20 C945 243 984 518 1055 967 L1055 967 Z M632 837 C704 837 764 789 779 775 C712 494 500 210 414 210 C374 210 355 245 355 313 C355 587 475 837 632 837 L632 837 Z M553 1320 C553 1242 602 1196 678 1196 C786 1196 866 1262 866 1379 C866 1456 817 1502 741 1502 C633 1502 553 1436 553 1320 L553 1320 Z " />
<glyph glyph-name="Gcommaaccent" unicode="&#x122;" horiz-adv-x="1169" d="M1156 737 L688 737 L657 538 L881 537 L832 228 C789 215 732 206 679 206 C474 206 382 338 382 539 C382 889 544 1124 838 1124 C949 1124 1038 1103 1094 1084 L1174 1285 C1115 1316 1006 1350 866 1350 C388 1350 95 998 95 499 C95 187 280 -20 642 -20 C793 -20 950 26 1055 99 L1156 737 Z M446 -139 C456 -150 479 -180 487 -223 C491 -241 493 -261 490 -280 C482 -356 403 -393 333 -406 L355 -533 C562 -515 727 -425 727 -254 C727 -177 684 -113 660 -92 L446 -139 Z " />
<glyph glyph-name="gcommaaccent" unicode="&#x123;" horiz-adv-x="1095" d="M1055 967 C1060 993 1064 1018 1068 1044 L839 1044 L820 964 C769 1006 702 1044 621 1044 C297 1044 84 689 84 306 C84 84 177 -20 317 -20 C498 -20 647 180 749 411 C734 368 723 329 711 291 C684 175 670 80 652 -13 C625 -138 536 -207 376 -207 C262 -207 149 -176 108 -159 L55 -351 C87 -369 210 -416 369 -416 C686 -416 856 -299 904 -20 C945 243 984 518 1055 967 L1055 967 Z M632 837 C704 837 764 789 779 775 C712 494 500 210 414 210 C374 210 355 245 355 313 C355 587 475 837 632 837 L632 837 Z M826 1185 C816 1196 793 1226 785 1270 C781 1288 779 1307 782 1326 C790 1402 869 1440 939 1452 L917 1579 C710 1561 545 1471 545 1301 C545 1223 588 1160 612 1138 L826 1185 Z " />
<glyph glyph-name="Hcircumflex" unicode="&#x124;" horiz-adv-x="1328" d="M821 0 L1088 0 L1298 1330 L1032 1330 L944 781 L455 781 L542 1330 L276 1330 L65 0 L331 0 L420 560 L910 560 L821 0 Z M1170 1616 C1091 1676 972 1771 869 1860 C738 1771 587 1675 489 1615 L595 1456 C668 1506 770 1582 833 1634 C880 1582 957 1506 1014 1456 L1170 1616 Z " />
<glyph glyph-name="hcircumflex" unicode="&#x125;" horiz-adv-x="1106" d="M260 1219 L66 0 L330 0 L354 155 C354 154 354 154 354 154 C412 518 591 745 692 772 C713 778 729 778 741 772 C766 766 773 740 770 704 C771 694 770 681 767 668 L693 200 C680 116 689 27 699 0 L946 0 C942 48 946 127 966 251 L1038 701 C1070 903 1021 1044 842 1044 C661 1044 499 854 379 592 C401 659 434 758 452 828 C468 886 478 937 487 990 L522 1208 C527 1244 531 1277 534 1308 C540 1374 538 1441 527 1480 L271 1456 C276 1409 278 1333 260 1219 L260 1219 Z M782 1667 C703 1727 584 1822 481 1911 C350 1822 199 1726 101 1666 L207 1507 C281 1556 382 1633 446 1685 C493 1633 570 1556 627 1507 L782 1667 Z " />
<glyph glyph-name="Hbar" unicode="&#x126;" horiz-adv-x="1293" d="M82 956 L216 956 L65 0 L331 0 L420 560 L910 560 L821 0 L1088 0 L1239 956 L1374 956 L1395 1088 L1260 1088 L1298 1330 L1032 1330 L993 1088 L503 1088 L542 1330 L276 1330 L237 1088 L103 1088 L82 956 Z M455 781 L482 956 L972 956 L944 781 L455 781 Z " />
<glyph glyph-name="hbar" unicode="&#x127;" horiz-adv-x="1106" d="M109 1192 L255 1192 L66 0 L330 0 L354 155 C354 154 354 154 354 154 C419 564 625 781 719 781 C769 781 778 734 767 668 L693 200 C680 116 689 27 699 0 L946 0 C942 48 946 127 966 251 L1038 701 C1070 903 1021 1044 842 1044 C661 1044 499 854 379 592 C401 659 434 758 452 828 C468 887 479 939 488 994 L519 1192 L793 1192 L813 1312 L535 1312 C540 1380 537 1441 527 1480 L271 1456 C274 1423 276 1375 271 1312 L128 1312 L109 1192 Z " />
<glyph glyph-name="Itilde" unicode="&#x128;" horiz-adv-x="537" d="M64 0 L331 0 L541 1330 L275 1330 L64 0 Z M209 1506 C254 1551 285 1585 327 1585 C389 1585 455 1512 534 1512 C666 1512 759 1604 812 1703 L698 1800 C652 1755 620 1721 578 1721 C520 1721 453 1794 363 1794 C233 1794 141 1689 95 1602 L209 1506 Z " />
<glyph glyph-name="itilde" unicode="&#x129;" horiz-adv-x="528" d="M96 200 C83 116 92 27 102 0 L349 0 C345 48 349 127 369 251 L492 1024 L228 1024 L96 200 Z M170 1206 C215 1251 247 1285 289 1285 C350 1285 417 1212 496 1212 C627 1212 720 1304 774 1403 L660 1500 C614 1455 582 1421 540 1421 C481 1421 414 1494 324 1494 C195 1494 103 1389 56 1302 L170 1206 Z " />
<glyph glyph-name="Imacron" unicode="&#x12a;" horiz-adv-x="537" d="M64 0 L331 0 L541 1330 L275 1330 L64 0 Z M126 1557 L746 1557 L778 1755 L157 1755 L126 1557 Z " />
<glyph glyph-name="imacron" unicode="&#x12b;" horiz-adv-x="528" d="M96 200 C83 116 92 27 102 0 L349 0 C345 48 349 127 369 251 L492 1024 L228 1024 L96 200 Z M87 1251 L707 1251 L739 1449 L119 1449 L87 1251 Z " />
<glyph glyph-name="Ibreve" unicode="&#x12c;" horiz-adv-x="537" d="M64 0 L331 0 L541 1330 L275 1330 L64 0 Z M205 1808 C137 1562 282 1473 429 1473 C577 1473 749 1562 759 1808 L571 1808 C564 1720 530 1646 456 1646 C382 1646 371 1720 392 1808 L205 1808 Z " />
<glyph glyph-name="ibreve" unicode="&#x12d;" horiz-adv-x="528" d="M96 200 C83 116 92 27 102 0 L349 0 C345 48 349 127 369 251 L492 1024 L228 1024 L96 200 Z M152 1502 C84 1256 229 1167 376 1167 C524 1167 696 1256 706 1502 L518 1502 C511 1414 478 1340 404 1340 C329 1340 318 1414 340 1502 L152 1502 Z " />
<glyph glyph-name="Iogonek" unicode="&#x12e;" horiz-adv-x="537" d="M64 0 L68 0 C-6 -51 -113 -151 -113 -274 C-113 -415 0 -469 120 -469 C210 -469 299 -433 330 -411 L312 -249 C289 -260 237 -282 188 -282 C144 -282 116 -258 116 -206 C116 -124 188 -51 256 0 L331 0 L541 1330 L275 1330 L64 0 Z " />
<glyph glyph-name="iogonek" unicode="&#x12f;" horiz-adv-x="528" d="M96 200 C85 128 89 49 98 12 C35 -26 -102 -135 -102 -274 C-102 -415 11 -469 131 -469 C220 -469 310 -433 341 -411 L323 -249 C299 -260 247 -282 199 -282 C155 -282 126 -258 126 -206 C126 -124 198 -51 267 0 L349 0 C345 53 352 144 374 281 L492 1024 L228 1024 L96 200 Z M256 1320 C256 1242 305 1196 381 1196 C489 1196 569 1262 569 1379 C569 1456 520 1502 444 1502 C335 1502 256 1436 256 1320 L256 1320 Z " />
<glyph glyph-name="Idotaccent" unicode="&#x130;" horiz-adv-x="537" d="M64 0 L331 0 L541 1330 L275 1330 L64 0 Z M295 1620 C295 1542 344 1496 420 1496 C528 1496 608 1562 608 1679 C608 1756 559 1802 483 1802 C375 1802 295 1736 295 1620 L295 1620 Z " />
<glyph glyph-name="dotlessi" unicode="&#x131;" horiz-adv-x="517" d="M96 200 C83 116 92 27 102 0 L349 0 C345 48 349 127 369 251 L492 1024 L228 1024 L96 200 Z " />
<glyph glyph-name="IJ" unicode="&#x132;" horiz-adv-x="1261" d="M64 0 L331 0 L541 1330 L275 1330 L64 0 Z M1006 1330 L849 339 C835 253 788 207 713 207 C647 206 595 228 567 244 L494 42 C523 17 597 -20 714 -20 C920 -20 1078 108 1119 362 L1273 1330 L1006 1330 Z " />
<glyph glyph-name="ij" unicode="&#x133;" horiz-adv-x="1034" d="M96 200 C83 116 92 27 102 0 L349 0 C345 48 349 127 369 251 L492 1024 L228 1024 L96 200 Z M256 1320 C256 1242 305 1196 381 1196 C489 1196 569 1262 569 1379 C569 1456 520 1502 444 1502 C335 1502 256 1436 256 1320 L256 1320 Z M574 -52 C556 -169 524 -207 437 -207 C385 -207 335 -193 312 -185 L261 -373 C280 -384 356 -416 456 -416 C666 -416 798 -323 841 -47 L1009 1024 L746 1024 L574 -52 Z M773 1320 C773 1242 822 1196 898 1196 C1006 1196 1086 1262 1086 1379 C1086 1456 1037 1502 961 1502 C853 1502 773 1436 773 1320 L773 1320 Z " />
<glyph glyph-name="Jcircumflex" unicode="&#x134;" horiz-adv-x="728" d="M472 1330 L315 339 C302 253 254 207 179 207 C113 206 62 228 34 244 L-40 42 C-10 17 64 -20 181 -20 C386 -20 545 108 585 362 L739 1330 L472 1330 Z M988 1616 C909 1676 790 1771 687 1860 C556 1771 405 1675 307 1615 L413 1456 C486 1506 588 1582 651 1634 C698 1582 775 1506 832 1456 L988 1616 Z " />
<glyph glyph-name="jcircumflex" unicode="&#x135;" horiz-adv-x="518" d="M58 -52 C39 -169 8 -207 -79 -207 C-131 -207 -181 -193 -204 -185 L-255 -373 C-236 -384 -160 -416 -60 -416 C149 -416 282 -323 325 -47 L493 1024 L230 1024 L58 -52 Z M751 1310 C672 1370 553 1465 450 1554 C319 1465 168 1369 70 1309 L176 1150 C249 1200 351 1276 414 1328 C461 1276 538 1200 595 1150 L751 1310 Z " />
<glyph glyph-name="Kcommaaccent" unicode="&#x136;" horiz-adv-x="1141" d="M541 1330 L276 1330 L65 0 L330 0 L411 509 C462 521 513 536 563 552 L745 0 L1030 0 L794 641 C1018 770 1199 1036 1113 1342 L848 1330 C910 1005 707 770 444 716 L541 1330 Z M383 -139 C393 -150 416 -180 424 -223 C428 -241 429 -261 427 -280 C419 -356 340 -393 270 -406 L292 -533 C499 -515 664 -425 664 -254 C664 -177 621 -113 596 -92 L383 -139 Z " />
<glyph glyph-name="kcommaaccent" unicode="&#x137;" horiz-adv-x="991" d="M528 1242 C544 1341 542 1429 528 1480 L272 1456 C277 1409 279 1333 261 1219 L66 0 L332 0 L394 389 C426 400 462 414 496 428 L620 0 L907 0 L724 525 C851 602 1061 781 981 1044 L705 1024 C754 799 595 644 424 584 L528 1242 Z M304 -139 C314 -150 337 -180 345 -223 C349 -241 351 -261 348 -280 C340 -356 261 -393 191 -406 L213 -533 C420 -515 585 -425 585 -254 C585 -177 542 -113 518 -92 L304 -139 Z " />
<glyph glyph-name="kgreenlandic" unicode="&#x138;" horiz-adv-x="991" d="M494 1024 L230 1024 L66 0 L332 0 L394 389 C426 400 462 414 496 428 L624 0 L910 0 L724 525 C852 603 1057 782 977 1044 L701 1024 C750 799 595 644 425 584 L494 1024 Z " />
<glyph glyph-name="Lacute" unicode="&#x139;" horiz-adv-x="949" d="M873 221 L366 221 L542 1330 L276 1330 L65 0 L839 0 L873 221 Z M260 1466 L800 1627 L729 1852 L217 1595 L260 1466 Z " />
<glyph glyph-name="lacute" unicode="&#x13a;" horiz-adv-x="517" d="M108 200 C95 116 104 27 114 0 L361 0 C357 48 361 127 381 251 L539 1242 C554 1341 552 1429 539 1480 L283 1456 C287 1409 290 1333 272 1219 L108 200 Z M226 1524 L767 1685 L695 1910 L184 1652 L226 1524 Z " />
<glyph glyph-name="Lcommaaccent" unicode="&#x13b;" horiz-adv-x="949" d="M873 221 L366 221 L542 1330 L276 1330 L65 0 L839 0 L873 221 Z M332 -139 C342 -150 364 -180 373 -223 C377 -241 378 -261 376 -280 C367 -356 289 -393 219 -406 L241 -533 C447 -515 613 -425 613 -254 C613 -177 570 -113 545 -92 L332 -139 Z " />
<glyph glyph-name="lcommaaccent" unicode="&#x13c;" horiz-adv-x="517" d="M108 200 C95 116 104 27 114 0 L361 0 C357 48 361 127 381 251 L539 1242 C554 1341 552 1429 539 1480 L283 1456 C287 1409 290 1333 272 1219 L108 200 Z M63 -139 C73 -150 95 -180 103 -223 C107 -241 109 -261 107 -280 C98 -356 20 -393 -51 -406 L-28 -533 C178 -515 343 -425 343 -254 C343 -177 301 -113 276 -92 L63 -139 Z " />
<glyph glyph-name="Lcaron" unicode="&#x13d;" horiz-adv-x="918" d="M873 221 L366 221 L542 1330 L276 1330 L65 0 L839 0 L873 221 Z M722 1330 C732 1318 754 1288 762 1245 C767 1227 768 1208 766 1188 C757 1113 679 1075 608 1062 L631 936 C837 954 1003 1044 1003 1214 C1003 1291 960 1355 935 1377 L722 1330 Z " />
<glyph glyph-name="lcaron" unicode="&#x13e;" horiz-adv-x="648" d="M643 1488 C664 1466 700 1415 700 1346 C700 1249 637 1190 594 1161 L678 1068 C771 1112 908 1219 908 1376 C908 1463 867 1521 842 1544 L643 1488 Z M108 200 C95 116 104 27 114 0 L361 0 C357 48 361 127 381 251 L539 1242 C554 1341 552 1429 539 1480 L283 1456 C287 1409 290 1333 272 1219 L108 200 Z " />
<glyph glyph-name="Ldot" unicode="&#x13f;" horiz-adv-x="949" d="M873 221 L366 221 L542 1330 L276 1330 L65 0 L839 0 L873 221 Z M618 687 C618 609 667 563 743 563 C851 563 931 629 931 746 C931 823 882 869 806 869 C698 869 618 803 618 687 L618 687 Z " />
<glyph glyph-name="ldot" unicode="&#x140;" horiz-adv-x="751" d="M108 200 C95 116 104 27 114 0 L361 0 C357 48 361 127 381 251 L539 1242 C554 1341 552 1429 539 1480 L283 1456 C287 1409 290 1333 272 1219 L108 200 Z M535 717 C535 639 584 593 660 593 C768 593 848 659 848 776 C848 853 799 899 723 899 C614 899 535 833 535 717 L535 717 Z " />
<glyph glyph-name="Lslash" unicode="&#x141;" horiz-adv-x="929" d="M-22 378 L155 498 L76 0 L850 0 L884 221 L377 221 L453 700 L759 907 L691 1017 L481 874 L554 1330 L287 1330 L183 672 L-87 489 L-22 378 Z " />
<glyph glyph-name="lslash" unicode="&#x142;" horiz-adv-x="552" d="M24 430 L179 535 L126 200 C112 116 122 27 131 0 L379 0 C374 51 381 146 403 279 L476 736 L683 876 L624 973 L500 889 L551 1210 C555 1239 559 1267 563 1293 C570 1366 568 1438 556 1480 L300 1456 C305 1409 307 1333 289 1219 L204 688 L-34 526 L24 430 Z " />
<glyph glyph-name="Nacute" unicode="&#x143;" horiz-adv-x="1300" d="M808 0 L1094 0 L1305 1330 L1048 1330 L903 422 L561 1330 L276 1330 L65 0 L322 0 L466 907 L808 0 Z M627 1466 L1168 1627 L1096 1852 L585 1595 L627 1466 Z " />
<glyph glyph-name="nacute" unicode="&#x144;" horiz-adv-x="1106" d="M209 1024 C213 976 208 897 188 773 L66 0 L330 0 L354 154 C354 154 354 154 354 154 C419 564 625 781 719 781 C759 781 772 750 770 704 C771 694 770 681 767 668 L693 200 C680 116 689 27 699 0 L946 0 C942 48 946 127 966 251 L1038 701 C1070 903 1021 1044 842 1044 C661 1044 499 854 379 592 C401 659 438 764 454 841 C469 909 472 979 458 1024 L209 1024 Z M464 1166 L1005 1327 L933 1552 L421 1295 L464 1166 Z " />
<glyph glyph-name="Ncommaaccent" unicode="&#x145;" horiz-adv-x="1300" d="M808 0 L1094 0 L1305 1330 L1048 1330 L903 422 L561 1330 L276 1330 L65 0 L322 0 L466 907 L808 0 Z M432 -139 C442 -150 464 -180 472 -223 C476 -241 478 -261 476 -280 C467 -356 389 -393 318 -406 L341 -533 C547 -515 712 -425 712 -254 C712 -177 670 -113 645 -92 L432 -139 Z " />
<glyph glyph-name="ncommaaccent" unicode="&#x146;" horiz-adv-x="1106" d="M209 1024 C213 976 208 897 188 773 L66 0 L330 0 L354 154 C354 154 354 154 354 154 C419 564 625 781 719 781 C759 781 772 750 770 704 C771 694 770 681 767 668 L693 200 C680 116 689 27 699 0 L946 0 C942 48 946 127 966 251 L1038 701 C1070 903 1021 1044 842 1044 C661 1044 499 854 379 592 C401 659 438 764 454 841 C469 909 472 979 458 1024 L209 1024 Z M356 -139 C366 -150 388 -180 396 -223 C401 -241 402 -261 400 -280 C391 -356 313 -393 242 -406 L265 -533 C471 -515 637 -425 637 -254 C637 -177 594 -113 569 -92 L356 -139 Z " />
<glyph glyph-name="Ncaron" unicode="&#x147;" horiz-adv-x="1300" d="M808 0 L1094 0 L1305 1330 L1048 1330 L903 422 L561 1330 L276 1330 L65 0 L322 0 L466 907 L808 0 Z M502 1697 C612 1626 727 1531 798 1438 C899 1531 1044 1626 1176 1697 L1089 1867 C1004 1818 898 1735 835 1674 C792 1735 711 1818 643 1867 L502 1697 Z " />
<glyph glyph-name="ncaron" unicode="&#x148;" horiz-adv-x="1106" d="M209 1024 C213 976 208 897 188 773 L66 0 L330 0 L354 154 C354 154 354 154 354 154 C419 564 625 781 719 781 C759 781 772 750 770 704 C771 694 770 681 767 668 L693 200 C680 116 689 27 699 0 L946 0 C942 48 946 127 966 251 L1038 701 C1070 903 1021 1044 842 1044 C661 1044 499 854 379 592 C401 659 438 764 454 841 C469 909 472 979 458 1024 L209 1024 Z M366 1397 C476 1326 592 1231 662 1138 C763 1231 908 1326 1040 1397 L953 1567 C869 1518 762 1435 699 1374 C656 1435 575 1518 507 1567 L366 1397 Z " />
<glyph glyph-name="napostrophe" unicode="&#x149;" horiz-adv-x="1257" d="M360 1024 C364 976 359 897 340 773 L217 0 L481 0 L506 154 C506 154 506 154 506 154 C571 564 776 781 871 781 C910 781 924 750 921 704 C922 694 921 681 919 668 L844 200 C831 116 840 27 850 0 L1097 0 C1093 48 1097 127 1117 251 L1189 701 C1221 903 1172 1044 993 1044 C813 1044 651 854 530 592 C552 659 589 764 606 841 C620 909 624 979 609 1024 L360 1024 Z M183 972 C249 1023 373 1166 373 1346 C373 1429 353 1487 339 1513 L115 1463 C128 1435 145 1371 145 1301 C145 1191 89 1072 54 1016 L183 972 Z " />
<glyph glyph-name="Eng" unicode="&#x14a;" horiz-adv-x="1300" d="M820 -52 C802 -169 770 -207 683 -207 C631 -207 581 -193 558 -185 L507 -373 C525 -384 602 -416 702 -416 C911 -416 1044 -323 1087 -47 L1094 0 C1163 444 1234 887 1305 1330 L1044 1330 L908 475 L561 1330 L276 1330 L65 0 L326 0 L468 898 L834 37 L820 -52 Z " />
<glyph glyph-name="eng" unicode="&#x14b;" horiz-adv-x="1106" d="M209 1024 C213 976 208 897 188 773 L66 0 L330 0 L354 154 C354 154 354 154 354 154 C419 564 625 781 719 781 C759 781 772 750 770 704 C771 694 770 681 767 668 L653 -52 C634 -169 603 -207 516 -207 C464 -207 414 -193 391 -185 L340 -373 C358 -384 434 -416 535 -416 C744 -416 876 -323 920 -47 L1038 701 C1070 903 1021 1044 842 1044 C665 1044 505 873 386 610 C408 676 438 764 454 841 C469 909 472 979 458 1024 L209 1024 Z " />
<glyph glyph-name="Omacron" unicode="&#x14c;" horiz-adv-x="1315" d="M629 195 C457 195 381 336 381 540 C381 895 556 1135 758 1135 C929 1135 1006 994 1006 789 C1006 435 831 195 629 195 L629 195 Z M585 -20 C1007 -20 1292 340 1292 820 C1292 1128 1118 1350 802 1350 C380 1350 95 989 95 509 C95 202 269 -20 585 -20 L585 -20 Z M522 1557 L1142 1557 L1174 1755 L553 1755 L522 1557 Z " />
<glyph glyph-name="omacron" unicode="&#x14d;" horiz-adv-x="983" d="M392 -20 C738 -20 965 279 965 688 C965 902 842 1044 632 1044 C284 1044 59 744 59 335 C59 122 183 -20 392 -20 L392 -20 Z M434 179 C365 179 330 233 330 348 C330 585 423 798 550 834 C576 841 601 842 625 835 C671 821 694 770 694 677 C694 413 584 179 434 179 L434 179 Z M325 1251 L946 1251 L977 1449 L357 1449 L325 1251 Z " />
<glyph glyph-name="Obreve" unicode="&#x14e;" horiz-adv-x="1315" d="M629 195 C457 195 381 336 381 540 C381 895 556 1135 758 1135 C929 1135 1006 994 1006 789 C1006 435 831 195 629 195 L629 195 Z M585 -20 C1007 -20 1292 340 1292 820 C1292 1128 1118 1350 802 1350 C380 1350 95 989 95 509 C95 202 269 -20 585 -20 L585 -20 Z M606 1808 C537 1562 683 1473 830 1473 C978 1473 1150 1562 1159 1808 L972 1808 C964 1720 931 1646 857 1646 C783 1646 771 1720 793 1808 L606 1808 Z " />
<glyph glyph-name="obreve" unicode="&#x14f;" horiz-adv-x="983" d="M392 -20 C738 -20 965 279 965 688 C965 902 842 1044 632 1044 C284 1044 59 744 59 335 C59 122 183 -20 392 -20 L392 -20 Z M434 179 C365 179 330 233 330 348 C330 585 423 798 550 834 C576 841 601 842 625 835 C671 821 694 770 694 677 C694 413 584 179 434 179 L434 179 Z M386 1502 C318 1256 463 1167 610 1167 C758 1167 930 1256 940 1502 L752 1502 C745 1414 712 1340 638 1340 C563 1340 552 1414 574 1502 L386 1502 Z " />
<glyph glyph-name="Ohungarumlaut" unicode="&#x150;" horiz-adv-x="1315" d="M629 195 C457 195 381 336 381 540 C381 895 556 1135 758 1135 C929 1135 1006 994 1006 789 C1006 435 831 195 629 195 L629 195 Z M585 -20 C1007 -20 1292 340 1292 820 C1292 1128 1118 1350 802 1350 C380 1350 95 989 95 509 C95 202 269 -20 585 -20 L585 -20 Z M933 1447 L1267 1782 L1100 1906 L815 1533 L933 1447 Z M598 1437 L935 1775 L767 1899 L479 1523 L598 1437 Z " />
<glyph glyph-name="ohungarumlaut" unicode="&#x151;" horiz-adv-x="983" d="M392 -20 C738 -20 965 279 965 688 C965 902 842 1044 632 1044 C284 1044 59 744 59 335 C59 122 183 -20 392 -20 L392 -20 Z M434 179 C365 179 330 233 330 348 C330 585 423 798 550 834 C576 841 601 842 625 835 C671 821 694 770 694 677 C694 413 584 179 434 179 L434 179 Z M763 1141 L1097 1476 L931 1600 L645 1227 L763 1141 Z M428 1131 L765 1469 L598 1593 L309 1217 L428 1131 Z " />
<glyph glyph-name="OE" unicode="&#x152;" horiz-adv-x="1765" d="M1830 1330 L1067 1330 L1058 1274 C996 1317 912 1350 811 1350 C392 1350 95 1006 95 520 C95 203 274 -20 589 -20 C690 -20 784 6 864 49 L856 0 L1638 0 L1672 221 L1157 221 L1212 563 L1684 563 L1718 778 L1246 778 L1298 1109 L1795 1109 L1830 1330 Z M634 193 C464 193 381 340 381 552 C381 905 559 1137 773 1137 C898 1137 973 1074 1016 1012 L906 312 C840 247 753 193 634 193 L634 193 Z " />
<glyph glyph-name="oe" unicode="&#x153;" horiz-adv-x="1395" d="M632 1044 C284 1044 59 744 59 335 C59 122 183 -20 392 -20 C491 -20 581 12 658 68 C704 9 776 -20 867 -20 C1058 -20 1227 60 1292 102 L1262 292 C1192 261 1039 198 945 198 C887 198 865 237 865 309 C865 344 867 382 873 419 C1183 464 1402 592 1400 810 C1400 955 1302 1044 1127 1044 C1017 1044 923 1003 846 936 C795 1004 722 1044 632 1044 L632 1044 Z M434 179 C376 179 342 220 334 307 C331 335 330 366 331 398 C340 624 437 817 562 840 C582 843 601 843 619 840 C661 833 685 799 693 734 C628 605 594 448 594 306 C594 291 595 278 596 265 C551 210 497 179 434 179 L434 179 Z M1107 845 C1141 845 1162 824 1162 783 C1162 680 1042 590 893 561 C928 712 1015 845 1107 845 L1107 845 Z " />
<glyph glyph-name="Racute" unicode="&#x154;" horiz-adv-x="1103" d="M330 0 L408 492 L560 492 L614 226 C621 189 633 155 646 125 C688 21 770 -20 878 -20 C895 -20 912 -17 925 -13 C969 2 1018 27 1028 44 C1023 90 1014 136 1010 183 C943 180 878 191 859 275 L798 550 C937 615 1104 760 1104 986 C1104 1213 953 1330 684 1330 L276 1330 L65 0 L330 0 Z M507 1114 L653 1114 C761 1114 821 1052 821 943 C821 822 743 729 674 698 L440 698 L507 1114 Z M477 1466 L1018 1627 L946 1852 L434 1595 L477 1466 Z " />
<glyph glyph-name="racute" unicode="&#x155;" horiz-adv-x="750" d="M209 1024 C213 976 208 897 188 773 L66 0 L330 0 L354 154 C354 154 354 154 354 154 C422 584 597 734 717 735 C748 735 781 731 795 728 L847 1029 C836 1034 810 1044 777 1044 C613 1044 491 851 389 622 C408 678 434 761 448 815 C468 896 474 973 458 1024 L209 1024 Z M368 1166 L909 1327 L837 1552 L326 1295 L368 1166 Z " />
<glyph glyph-name="Rcommaaccent" unicode="&#x156;" horiz-adv-x="1103" d="M330 0 L408 492 L560 492 L614 226 C621 189 633 155 646 125 C688 21 770 -20 878 -20 C895 -20 912 -17 925 -13 C969 2 1018 27 1028 44 C1023 90 1014 136 1010 183 C943 180 878 191 859 275 L798 550 C937 615 1104 760 1104 986 C1104 1213 953 1330 684 1330 L276 1330 L65 0 L330 0 Z M507 1114 L653 1114 C761 1114 821 1052 821 943 C821 822 743 729 674 698 L440 698 L507 1114 Z M343 -139 C353 -150 375 -180 383 -223 C388 -241 389 -261 387 -280 C378 -356 300 -393 229 -406 L252 -533 C458 -515 624 -425 624 -254 C624 -177 581 -113 556 -92 L343 -139 Z " />
<glyph glyph-name="rcommaaccent" unicode="&#x157;" horiz-adv-x="750" d="M209 1024 C213 976 208 897 188 773 L66 0 L330 0 L354 154 C354 154 354 154 354 154 C422 584 597 734 717 735 C748 735 781 731 795 728 L847 1029 C836 1034 810 1044 777 1044 C613 1044 491 851 389 622 C408 678 434 761 448 815 C468 896 474 973 458 1024 L209 1024 Z M42 -139 C52 -150 74 -180 82 -223 C86 -241 88 -261 86 -280 C77 -356 -1 -393 -72 -406 L-49 -533 C157 -515 322 -425 322 -254 C322 -177 280 -113 255 -92 L42 -139 Z " />
<glyph glyph-name="Rcaron" unicode="&#x158;" horiz-adv-x="1103" d="M330 0 L408 492 L560 492 L614 226 C621 189 633 155 646 125 C688 21 770 -20 878 -20 C895 -20 912 -17 925 -13 C969 2 1018 27 1028 44 C1023 90 1014 136 1010 183 C943 180 878 191 859 275 L798 550 C937 615 1104 760 1104 986 C1104 1213 953 1330 684 1330 L276 1330 L65 0 L330 0 Z M507 1114 L653 1114 C761 1114 821 1052 821 943 C821 822 743 729 674 698 L440 698 L507 1114 Z M375 1697 C484 1626 600 1531 670 1438 C772 1531 916 1626 1049 1697 L961 1867 C877 1818 771 1735 708 1674 C665 1735 584 1818 516 1867 L375 1697 Z " />
<glyph glyph-name="rcaron" unicode="&#x159;" horiz-adv-x="750" d="M209 1024 C213 976 208 897 188 773 L66 0 L330 0 L354 154 C354 154 354 154 354 154 C422 584 597 734 717 735 C748 735 781 731 795 728 L847 1029 C836 1034 810 1044 777 1044 C613 1044 491 851 389 622 C408 678 434 761 448 815 C468 896 473 973 458 1024 L209 1024 Z M267 1397 C377 1326 493 1231 563 1138 C664 1231 809 1326 941 1397 L854 1567 C770 1518 663 1435 600 1374 C557 1435 476 1518 408 1567 L267 1397 Z " />
<glyph glyph-name="Sacute" unicode="&#x15a;" horiz-adv-x="976" d="M22 60 C79 22 224 -20 379 -20 C696 -20 877 111 902 339 C906 369 906 400 904 431 C894 555 811 633 678 721 L543 810 C471 856 430 900 438 972 C445 1055 522 1117 651 1117 C750 1117 860 1089 920 1068 L997 1282 C946 1306 844 1350 673 1350 C389 1350 159 1176 159 907 C159 755 238 673 367 592 L483 519 C555 475 596 441 606 392 C616 365 617 340 613 316 C598 247 530 212 398 212 C280 212 154 250 103 276 L22 60 Z M462 1466 L1002 1627 L931 1852 L419 1595 L462 1466 Z " />
<glyph glyph-name="sacute" unicode="&#x15b;" horiz-adv-x="842" d="M27 37 C75 14 189 -20 336 -20 C587 -20 704 94 703 274 C702 378 645 457 505 578 C414 656 378 692 369 738 C365 754 366 769 371 782 C381 811 414 833 480 833 C577 833 684 806 710 797 L752 999 C725 1010 609 1044 484 1044 C243 1044 110 924 110 745 C110 639 163 562 284 461 C399 364 450 315 450 262 C450 207 404 187 324 187 C225 187 118 220 80 236 L27 37 Z M305 1166 L845 1327 L774 1552 L262 1295 L305 1166 Z " />
<glyph glyph-name="Scircumflex" unicode="&#x15c;" horiz-adv-x="984" d="M22 60 C79 22 224 -20 379 -20 C696 -20 877 111 902 339 C906 369 906 400 904 431 C894 555 811 633 678 721 L543 810 C471 856 430 900 438 972 C445 1055 522 1117 651 1117 C750 1117 860 1089 920 1068 L997 1282 C946 1306 844 1350 673 1350 C389 1350 159 1176 159 907 C159 755 238 673 367 592 L483 519 C555 475 596 441 606 392 C616 365 617 340 613 316 C598 247 530 212 398 212 C280 212 154 250 103 276 L22 60 Z M1049 1610 C970 1670 851 1765 748 1854 C617 1765 466 1669 368 1609 L474 1450 C548 1500 649 1576 713 1628 C760 1576 837 1500 894 1450 L1049 1610 Z " />
<glyph glyph-name="scircumflex" unicode="&#x15d;" horiz-adv-x="842" d="M27 37 C75 14 189 -20 336 -20 C587 -20 704 94 703 274 C702 378 645 457 505 578 C414 656 378 692 369 738 C365 754 366 769 371 782 C381 811 414 833 480 833 C577 833 684 806 710 797 L752 999 C725 1010 609 1044 484 1044 C243 1044 110 924 110 745 C110 639 163 562 284 461 C399 364 450 315 450 262 C450 207 404 187 324 187 C225 187 118 220 80 236 L27 37 Z M870 1310 C791 1370 672 1465 569 1554 C438 1465 287 1369 189 1309 L295 1150 C368 1200 470 1276 533 1328 C580 1276 657 1200 714 1150 L870 1310 Z " />
<glyph glyph-name="Scedilla" unicode="&#x15e;" horiz-adv-x="976" d="M22 60 C79 22 224 -20 379 -20 C696 -20 877 111 902 339 C906 369 906 400 904 431 C894 555 811 633 678 721 L543 810 C471 856 430 900 438 972 C445 1055 522 1117 651 1117 C750 1117 860 1089 920 1068 L997 1282 C946 1306 844 1350 673 1350 C389 1350 159 1176 159 907 C159 755 238 673 367 592 L483 519 C555 475 596 441 606 392 C616 365 617 340 613 316 C598 247 530 212 398 212 C280 212 154 250 103 276 L22 60 Z M145 -501 C163 -510 206 -519 257 -519 C429 -519 569 -447 569 -271 C569 -159 482 -106 366 -106 L255 -106 L223 -245 L281 -245 C336 -245 366 -262 366 -300 C366 -349 330 -380 259 -380 C225 -380 200 -375 184 -370 L145 -501 Z " />
<glyph glyph-name="scedilla" unicode="&#x15f;" horiz-adv-x="842" d="M27 37 C75 14 189 -20 336 -20 C587 -20 704 94 703 274 C702 378 645 457 505 578 C414 656 378 692 369 738 C365 754 366 769 371 782 C381 811 414 833 480 833 C577 833 684 806 710 797 L752 999 C725 1010 609 1044 484 1044 C243 1044 110 924 110 745 C110 639 163 562 284 461 C399 364 450 315 450 262 C450 207 404 187 324 187 C225 187 118 220 80 236 L27 37 Z M44 -501 C63 -510 106 -519 157 -519 C329 -519 468 -447 468 -271 C468 -159 382 -106 266 -106 L155 -106 L123 -245 L180 -245 C236 -245 266 -262 266 -300 C266 -349 230 -380 159 -380 C125 -380 100 -375 83 -370 L44 -501 Z " />
<glyph glyph-name="Scaron" unicode="&#x160;" horiz-adv-x="985" d="M22 60 C79 22 224 -20 379 -20 C696 -20 877 111 902 339 C906 369 906 400 904 431 C894 555 811 633 678 721 L543 810 C471 856 430 900 438 972 C445 1055 522 1117 651 1117 C750 1117 860 1089 920 1068 L997 1282 C946 1306 844 1350 673 1350 C389 1350 159 1176 159 907 C159 755 238 673 367 592 L483 519 C555 475 596 441 606 392 C616 365 617 340 613 316 C598 247 530 212 398 212 C280 212 154 250 103 276 L22 60 Z M381 1697 C491 1626 607 1531 677 1438 C778 1531 923 1626 1055 1697 L968 1867 C884 1818 777 1735 715 1674 C671 1735 590 1818 522 1867 L381 1697 Z " />
<glyph glyph-name="scaron" unicode="&#x161;" horiz-adv-x="842" d="M27 37 C75 14 189 -20 336 -20 C587 -20 704 94 703 274 C702 378 645 457 505 578 C414 656 378 692 369 738 C365 754 366 769 371 782 C381 811 414 833 480 833 C577 833 684 806 710 797 L752 999 C725 1010 609 1044 484 1044 C243 1044 110 924 110 745 C110 639 163 562 284 461 C399 364 450 315 450 262 C450 207 404 187 324 187 C225 187 118 220 80 236 L27 37 Z M215 1397 C324 1326 440 1231 510 1138 C611 1231 756 1326 888 1397 L801 1567 C717 1518 610 1435 548 1374 C504 1435 424 1518 356 1567 L215 1397 Z " />
<glyph glyph-name="Tcedilla" unicode="&#x162;" horiz-adv-x="1018" d="M135 1109 L484 1109 L308 0 L575 0 L750 1109 L1098 1109 L1133 1330 L170 1330 L135 1109 Z M161 -501 C180 -510 223 -519 274 -519 C446 -519 585 -447 585 -271 C585 -159 499 -106 383 -106 L272 -106 L240 -245 L297 -245 C353 -245 382 -262 382 -300 C382 -349 346 -380 276 -380 C242 -380 216 -375 200 -370 L161 -501 Z " />
<glyph glyph-name="tcedilla" unicode="&#x163;" horiz-adv-x="741" d="M551 1270 L321 1251 L265 1016 L105 1006 L76 825 L220 825 L133 281 C98 62 192 -20 370 -20 C503 -20 636 33 698 68 L667 257 C609 232 499 198 451 198 C412 198 396 216 399 263 C398 273 399 286 402 305 L484 825 L737 825 L769 1024 L512 1024 L551 1270 Z M84 -501 C102 -510 145 -519 196 -519 C368 -519 508 -447 508 -271 C508 -159 421 -106 305 -106 L194 -106 L162 -245 L220 -245 C275 -245 305 -262 305 -300 C305 -349 269 -380 198 -380 C164 -380 139 -375 123 -370 L84 -501 Z " />
<glyph glyph-name="Tcaron" unicode="&#x164;" horiz-adv-x="1018" d="M135 1109 L484 1109 L308 0 L575 0 L750 1109 L1098 1109 L1133 1330 L170 1330 L135 1109 Z M358 1697 C467 1626 583 1531 653 1438 C755 1531 899 1626 1032 1697 L944 1867 C860 1818 754 1735 691 1674 C648 1735 567 1818 499 1867 L358 1697 Z " />
<glyph glyph-name="tcaron" unicode="&#x165;" horiz-adv-x="741" d="M656 1533 C678 1511 714 1460 714 1391 C714 1294 651 1235 607 1206 L692 1113 C785 1157 922 1264 922 1421 C922 1508 880 1566 856 1589 L656 1533 Z M551 1270 L321 1251 L265 1016 L105 1006 L76 825 L220 825 L133 281 C98 62 192 -20 370 -20 C503 -20 636 33 698 68 L667 257 C609 232 499 198 451 198 C412 198 396 216 399 263 C398 273 399 286 402 305 L484 825 L737 825 L769 1024 L512 1024 L551 1270 Z " />
<glyph glyph-name="Tbar" unicode="&#x166;" horiz-adv-x="1018" d="M135 1109 L484 1109 L422 723 L229 723 L208 591 L402 591 L308 0 L575 0 L668 591 L872 591 L893 723 L689 723 L750 1109 L1098 1109 L1133 1330 L170 1330 L135 1109 Z " />
<glyph glyph-name="tbar" unicode="&#x167;" horiz-adv-x="741" d="M551 1270 L321 1251 L265 1016 L105 1006 L76 825 L220 825 L190 633 L53 625 L35 512 L170 512 L133 281 C98 62 192 -20 370 -20 C503 -20 636 33 698 68 L667 257 C609 232 499 198 451 198 C412 198 396 216 399 263 C400 284 402 308 407 337 L434 512 L671 512 L691 639 L454 639 L484 825 L737 825 L769 1024 L512 1024 L551 1270 Z " />
<glyph glyph-name="Utilde" unicode="&#x168;" horiz-adv-x="1236" d="M512 1330 L246 1330 L117 520 C65 194 191 -20 522 -20 C839 -20 1058 182 1112 522 L1240 1330 L974 1330 L843 509 C811 304 707 197 567 197 C396 197 352 321 386 532 L512 1330 Z M537 1506 C582 1551 613 1585 655 1585 C717 1585 783 1512 863 1512 C994 1512 1087 1604 1141 1703 L1027 1800 C981 1755 948 1721 906 1721 C848 1721 781 1794 691 1794 C562 1794 469 1689 423 1602 L537 1506 Z " />
<glyph glyph-name="utilde" unicode="&#x169;" horiz-adv-x="1091" d="M926 0 C922 48 926 127 946 251 L1069 1024 L805 1024 L781 869 C781 869 781 870 781 870 C717 460 520 243 429 243 C390 243 376 274 379 320 C378 330 379 343 381 356 L455 824 C470 908 460 997 450 1024 L203 1024 C207 976 202 897 183 773 L111 323 C79 121 128 -20 307 -20 C482 -20 639 169 756 432 C733 364 697 259 680 182 C665 114 663 45 677 0 L926 0 Z M453 1206 C497 1251 529 1285 571 1285 C633 1285 699 1212 778 1212 C909 1212 1002 1304 1056 1403 L942 1500 C896 1455 864 1421 822 1421 C763 1421 696 1494 607 1494 C477 1494 385 1389 339 1302 L453 1206 Z " />
<glyph glyph-name="Umacron" unicode="&#x16a;" horiz-adv-x="1205" d="M512 1330 L246 1330 L117 520 C65 194 191 -20 522 -20 C839 -20 1058 182 1112 522 L1240 1330 L974 1330 L843 509 C811 304 707 197 567 197 C396 197 352 321 386 532 L512 1330 Z M466 1557 L1086 1557 L1118 1755 L497 1755 L466 1557 Z " />
<glyph glyph-name="umacron" unicode="&#x16b;" horiz-adv-x="1091" d="M926 0 C922 48 926 127 946 251 L1069 1024 L805 1024 L781 869 C781 869 781 870 781 870 C717 460 520 243 429 243 C390 243 376 274 379 320 C378 330 379 343 381 356 L455 824 C470 908 460 997 450 1024 L203 1024 C207 976 202 897 183 773 L111 323 C79 121 128 -20 307 -20 C482 -20 639 169 756 432 C733 364 697 259 680 182 C665 114 663 45 677 0 L926 0 Z M374 1251 L994 1251 L1026 1449 L405 1449 L374 1251 Z " />
<glyph glyph-name="Ubreve" unicode="&#x16c;" horiz-adv-x="1205" d="M512 1330 L246 1330 L117 520 C65 194 191 -20 522 -20 C839 -20 1058 182 1112 522 L1240 1330 L974 1330 L843 509 C811 304 707 197 567 197 C396 197 352 321 386 532 L512 1330 Z M561 1808 C493 1562 638 1473 785 1473 C933 1473 1105 1562 1115 1808 L927 1808 C920 1720 887 1646 813 1646 C738 1646 727 1720 749 1808 L561 1808 Z " />
<glyph glyph-name="ubreve" unicode="&#x16d;" horiz-adv-x="1091" d="M926 0 C922 48 926 127 946 251 L1069 1024 L805 1024 L781 869 C781 869 781 870 781 870 C717 460 520 243 429 243 C390 243 376 274 379 320 C378 330 379 343 381 356 L455 824 C470 908 460 997 450 1024 L203 1024 C207 976 202 897 183 773 L111 323 C79 121 128 -20 307 -20 C482 -20 639 169 756 432 C733 364 697 259 680 182 C665 114 663 45 677 0 L926 0 Z M432 1502 C364 1256 509 1167 657 1167 C804 1167 976 1256 986 1502 L798 1502 C791 1414 758 1340 684 1340 C610 1340 598 1414 620 1502 L432 1502 Z " />
<glyph glyph-name="Uring" unicode="&#x16e;" horiz-adv-x="1205" d="M512 1330 L246 1330 L117 520 C65 194 191 -20 522 -20 C839 -20 1058 182 1112 522 L1240 1330 L974 1330 L843 509 C811 304 707 197 567 197 C396 197 352 321 386 532 L512 1330 Z M709 1637 C709 1691 750 1728 802 1728 C840 1728 867 1703 867 1664 C867 1610 827 1572 773 1572 C736 1572 709 1598 709 1637 L709 1637 Z M543 1609 C543 1495 625 1424 743 1424 C908 1424 1033 1525 1033 1692 C1033 1805 952 1876 832 1876 C668 1876 543 1775 543 1609 L543 1609 Z " />
<glyph glyph-name="uring" unicode="&#x16f;" horiz-adv-x="1091" d="M926 0 C922 48 926 127 946 251 L1069 1024 L805 1024 L781 869 C781 869 781 870 781 870 C717 460 520 243 429 243 C390 243 376 274 379 320 C378 330 379 343 381 356 L455 824 C470 908 460 997 450 1024 L203 1024 C207 976 202 897 183 773 L111 323 C79 121 128 -20 307 -20 C482 -20 639 169 756 432 C733 364 697 259 680 182 C665 114 663 45 677 0 L926 0 Z M444 1309 C444 1195 526 1124 644 1124 C810 1124 934 1225 934 1392 C934 1505 853 1576 734 1576 C569 1576 444 1475 444 1309 L444 1309 Z M610 1337 C610 1391 651 1428 703 1428 C742 1428 768 1403 768 1364 C768 1310 728 1272 675 1272 C637 1272 610 1298 610 1337 L610 1337 Z " />
<glyph glyph-name="Uhungarumlaut" unicode="&#x170;" horiz-adv-x="1205" d="M512 1330 L246 1330 L117 520 C65 194 191 -20 522 -20 C839 -20 1058 182 1112 522 L1240 1330 L974 1330 L843 509 C811 304 707 197 567 197 C396 197 352 321 386 532 L512 1330 Z M938 1447 L1272 1782 L1105 1906 L820 1533 L938 1447 Z M603 1437 L940 1775 L772 1899 L484 1523 L603 1437 Z " />
<glyph glyph-name="uhungarumlaut" unicode="&#x171;" horiz-adv-x="1091" d="M926 0 C922 48 926 127 946 251 L1069 1024 L805 1024 L781 869 C781 869 781 870 781 870 C717 460 520 243 429 243 C390 243 376 274 379 320 C378 330 379 343 381 356 L455 824 C470 908 460 997 450 1024 L203 1024 C207 976 202 897 183 773 L111 323 C79 121 128 -20 307 -20 C482 -20 639 169 756 432 C733 364 697 259 680 182 C665 114 663 45 677 0 L926 0 Z M474 1131 L812 1469 L644 1593 L355 1217 L474 1131 Z M810 1141 L1144 1476 L977 1600 L692 1227 L810 1141 Z " />
<glyph glyph-name="Uogonek" unicode="&#x172;" horiz-adv-x="1205" d="M512 1330 L246 1330 L117 520 C68 212 174 1 475 -18 C404 -72 318 -163 318 -274 C318 -414 430 -469 551 -469 C641 -469 730 -433 761 -411 L743 -249 C719 -260 667 -282 619 -282 C575 -282 546 -258 546 -206 C546 -124 618 -51 687 0 C914 59 1068 244 1112 522 L1240 1330 L974 1330 L854 582 C813 323 731 197 567 197 C396 197 352 321 386 532 L512 1330 Z " />
<glyph glyph-name="uogonek" unicode="&#x173;" horiz-adv-x="1091" d="M926 0 C922 52 929 148 952 284 L1069 1024 L805 1024 L781 869 C781 869 781 870 781 870 C717 460 520 243 429 243 C390 243 376 274 379 320 C378 330 379 343 381 356 L455 824 C470 908 460 997 450 1024 L203 1024 C207 976 202 897 183 773 L116 354 C114 344 112 333 111 323 C79 121 128 -20 307 -20 C482 -20 639 169 756 432 C738 380 705 285 689 216 C669 139 661 63 673 13 C611 -25 473 -135 473 -274 C473 -414 584 -469 706 -469 C795 -469 885 -433 915 -411 L898 -249 C874 -260 822 -282 773 -282 C730 -282 701 -258 701 -206 C701 -124 773 -51 841 0 L926 0 Z " />
<glyph glyph-name="Wcircumflex" unicode="&#x174;" horiz-adv-x="1707" d="M1547 1330 L1183 353 L1102 1310 L878 1310 C752 993 621 669 494 353 L438 1330 L147 1330 L264 0 L570 0 L912 818 L995 0 L1303 0 L1839 1330 L1547 1330 Z M1377 1616 C1298 1676 1179 1771 1076 1860 C945 1771 794 1675 696 1615 L802 1456 C876 1506 977 1582 1041 1634 C1088 1582 1165 1506 1222 1456 L1377 1616 Z " />
<glyph glyph-name="wcircumflex" unicode="&#x175;" horiz-adv-x="1424" d="M1145 1024 C1161 976 1170 911 1170 841 C1170 625 1086 402 928 236 L893 608 C892 623 891 637 890 651 C907 712 916 775 916 838 C916 916 902 983 883 1024 L630 1004 C643 962 657 893 664 793 C655 581 573 388 425 236 L388 847 C384 918 374 981 358 1024 L110 1024 C122 989 140 898 146 813 L201 0 L421 0 C523 81 620 187 696 313 L730 0 L930 0 C1194 175 1427 509 1427 858 C1427 936 1413 1003 1394 1044 L1145 1024 Z M1177 1310 C1098 1370 980 1465 876 1554 C745 1465 594 1369 496 1309 L602 1150 C676 1200 777 1276 841 1328 C888 1276 965 1200 1022 1150 L1177 1310 Z " />
<glyph glyph-name="Ycircumflex" unicode="&#x176;" horiz-adv-x="1043" d="M311 0 L578 0 L658 501 C658 501 657 501 657 501 L1200 1330 L917 1330 L563 765 L390 1330 L112 1330 L392 501 C392 501 391 501 391 501 L311 0 Z M1035 1610 C956 1670 837 1765 734 1854 C603 1765 452 1669 354 1609 L460 1450 C534 1500 635 1576 699 1628 C745 1576 822 1500 879 1450 L1035 1610 Z " />
<glyph glyph-name="ycircumflex" unicode="&#x177;" horiz-adv-x="949" d="M203 229 C222 -124 156 -207 24 -207 C-21 -207 -75 -193 -99 -180 L-170 -364 C-139 -385 -74 -416 19 -416 C139 -416 243 -376 318 -291 C654 49 948 529 948 877 C948 946 934 1010 921 1044 L670 1024 C684 981 689 931 689 880 C689 676 613 442 498 251 C481 218 463 185 443 153 C446 184 446 218 444 256 C420 726 381 980 368 1024 L120 1024 C133 991 180 641 203 229 L203 229 Z M936 1310 C856 1370 738 1465 634 1554 C503 1465 353 1369 254 1309 L361 1150 C434 1200 535 1276 599 1328 C646 1276 723 1200 780 1150 L936 1310 Z " />
<glyph glyph-name="Ydieresis" unicode="&#x178;" horiz-adv-x="1043" d="M311 0 L578 0 L658 501 C658 501 657 501 657 501 L1200 1330 L917 1330 L563 765 L390 1330 L112 1330 L392 501 C392 501 391 501 391 501 L311 0 Z M320 1620 C320 1542 369 1496 445 1496 C553 1496 633 1562 633 1679 C633 1756 584 1802 508 1802 C400 1802 320 1736 320 1620 L320 1620 Z M750 1620 C750 1542 799 1496 875 1496 C983 1496 1063 1562 1063 1679 C1063 1756 1014 1802 938 1802 C830 1802 750 1736 750 1620 L750 1620 Z " />
<glyph glyph-name="Zacute" unicode="&#x179;" horiz-adv-x="985" d="M-5 188 L-34 0 L886 0 L920 221 L305 221 L1031 1141 L1060 1329 L213 1329 L179 1108 L702 1108 L-5 188 Z M424 1466 L965 1627 L893 1852 L382 1595 L424 1466 Z " />
<glyph glyph-name="zacute" unicode="&#x17a;" horiz-adv-x="833" d="M131 -20 L252 142 C266 57 337 -20 463 -20 C608 -20 721 53 776 93 L717 297 C670 266 557 196 469 196 C408 196 369 216 354 237 L815 859 L841 1024 L165 1024 L134 825 L521 825 L-23 92 L131 -20 Z M307 1166 L848 1327 L776 1552 L264 1295 L307 1166 Z " />
<glyph glyph-name="Zdotaccent" unicode="&#x17b;" horiz-adv-x="985" d="M-5 188 L-34 0 L886 0 L920 221 L305 221 L1031 1141 L1060 1329 L213 1329 L179 1108 L702 1108 L-5 188 Z M518 1620 C518 1542 567 1496 644 1496 C752 1496 831 1562 831 1679 C831 1756 783 1802 706 1802 C598 1802 518 1736 518 1620 L518 1620 Z " />
<glyph glyph-name="zdotaccent" unicode="&#x17c;" horiz-adv-x="833" d="M131 -20 L252 142 C266 57 337 -20 463 -20 C608 -20 721 53 776 93 L717 297 C670 266 557 196 469 196 C408 196 369 216 354 237 L815 859 L841 1024 L165 1024 L134 825 L521 825 L-23 92 L131 -20 Z M392 1320 C392 1242 441 1196 517 1196 C625 1196 705 1262 705 1379 C705 1456 656 1502 580 1502 C472 1502 392 1436 392 1320 L392 1320 Z " />
<glyph glyph-name="Zcaron" unicode="&#x17d;" horiz-adv-x="985" d="M-5 188 L-34 0 L886 0 L920 221 L305 221 L1031 1141 L1060 1329 L213 1329 L179 1108 L702 1108 L-5 188 Z M343 1697 C453 1626 569 1531 639 1438 C740 1531 885 1626 1017 1697 L930 1867 C846 1818 739 1735 676 1674 C633 1735 552 1818 484 1867 L343 1697 Z " />
<glyph glyph-name="zcaron" unicode="&#x17e;" horiz-adv-x="833" d="M131 -20 L252 142 C266 57 337 -20 463 -20 C608 -20 721 53 776 93 L717 297 C670 266 557 196 469 196 C408 196 369 216 354 237 L815 859 L841 1024 L165 1024 L134 825 L521 825 L-23 92 L131 -20 Z M214 1397 C323 1326 439 1231 510 1138 C611 1231 755 1326 888 1397 L801 1567 C716 1518 610 1435 547 1374 C504 1435 423 1518 355 1567 L214 1397 Z " />
<glyph glyph-name="longs" unicode="&#x17f;" horiz-adv-x="588" d="M564 1109 C581 1214 626 1275 730 1275 C783 1275 842 1259 861 1253 L924 1440 C905 1449 829 1480 729 1480 C457 1480 347 1343 312 1138 L291 1016 L142 1006 L113 825 L255 825 L61 -396 L325 -396 L564 1109 Z " />
<glyph glyph-name="florin" unicode="&#x192;" horiz-adv-x="1056" d="M738 971 C775 1085 840 1140 944 1140 C1000 1140 1042 1127 1068 1118 L1142 1313 C1119 1324 1048 1350 959 1350 C735 1350 585 1251 501 1043 C491 1017 481 991 472 962 L411 770 L252 761 L224 580 L350 580 L155 -37 C114 -169 53 -207 -44 -207 C-91 -207 -128 -196 -150 -189 L-220 -387 C-204 -393 -164 -405 -115 -411 C-87 -414 -57 -416 -25 -415 C182 -407 311 -315 398 -97 C409 -70 419 -40 429 -11 C491 186 554 383 616 580 L874 580 L905 778 L677 778 L738 971 Z " />
<glyph glyph-name="Aringacute" unicode="&#x1fa;" horiz-adv-x="1182" d="M840 0 L1120 0 L856 1330 L609 1330 L-78 0 L202 0 L353 308 L786 308 L840 0 Z M678 990 L752 513 L452 513 L678 990 Z M635 1745 L1046 1879 L979 2059 L593 1851 L635 1745 Z M723 1564 C723 1597 747 1619 779 1619 C802 1619 817 1603 817 1580 C817 1546 794 1524 761 1524 C738 1524 723 1541 723 1564 L723 1564 Z M586 1539 C586 1451 647 1396 736 1396 C864 1396 955 1473 955 1605 C955 1692 893 1747 804 1747 C676 1747 586 1670 586 1539 L586 1539 Z " />
<glyph glyph-name="aringacute" unicode="&#x1fb;" horiz-adv-x="1077" d="M1042 967 C1046 993 1051 1018 1055 1044 L826 1044 L806 964 C756 1006 689 1044 608 1044 C284 1044 71 689 71 306 C71 84 163 -20 304 -20 C483 -20 631 177 733 404 C712 340 674 240 662 179 C648 113 645 44 659 0 L909 0 C905 48 909 127 929 251 L1042 967 Z M619 837 C691 837 751 789 766 775 C698 494 487 210 401 210 C361 210 342 245 342 313 C342 587 462 837 619 837 L619 837 Z M612 1275 C612 1308 636 1330 668 1330 C691 1330 706 1314 706 1291 C706 1257 683 1235 650 1235 C627 1235 612 1252 612 1275 L612 1275 Z M475 1250 C475 1162 536 1107 625 1107 C753 1107 844 1184 844 1316 C844 1403 782 1458 693 1458 C565 1458 475 1381 475 1250 L475 1250 Z M511 1456 L922 1590 L855 1771 L469 1563 L511 1456 Z " />
<glyph glyph-name="AEacute" unicode="&#x1fc;" horiz-adv-x="1745" d="M1810 1330 L1050 1330 L-96 0 L194 0 L456 307 L906 307 L857 0 L1618 0 L1652 221 L1156 221 L1211 563 L1664 563 L1698 778 L1245 778 L1297 1109 L1775 1109 L1810 1330 Z M635 516 L1008 955 L938 516 L635 516 Z M1244 1469 L1785 1630 L1713 1855 L1201 1597 L1244 1469 Z " />
<glyph glyph-name="aeacute" unicode="&#x1fd;" horiz-adv-x="1329" d="M512 1044 C383 1044 240 993 171 957 L192 768 C247 792 349 826 448 826 C544 826 588 788 594 706 C572 659 555 609 542 557 C473 550 407 541 344 528 C137 488 11 384 11 215 C11 80 94 1 219 -14 C248 -18 278 -19 309 -17 C393 -11 478 28 561 85 C607 14 682 -20 782 -20 C973 -20 1142 60 1207 102 L1177 292 C1107 261 954 198 860 198 C802 198 780 237 780 309 C780 348 782 392 788 434 C1107 483 1317 600 1315 810 C1315 955 1217 1044 1042 1044 C932 1044 839 1003 762 936 C710 1009 625 1044 512 1044 L512 1044 Z M269 265 C269 329 312 376 393 396 C432 405 473 412 515 417 C511 385 509 353 509 322 C509 289 509 256 513 228 C465 198 411 177 362 177 C307 177 269 207 269 265 L269 265 Z M1022 845 C1056 845 1077 824 1077 783 C1077 692 963 609 810 581 C845 722 931 845 1022 845 L1022 845 Z M617 1166 L1158 1327 L1086 1552 L575 1295 L617 1166 Z " />
<glyph glyph-name="Oslashacute" unicode="&#x1fe;" horiz-adv-x="1315" d="M205 -154 L343 40 C410 2 491 -20 585 -20 C1007 -20 1292 340 1292 820 C1292 980 1245 1115 1154 1208 L1300 1413 L1182 1484 L1043 1289 C976 1328 896 1350 802 1350 C380 1350 95 989 95 509 C95 349 141 214 233 122 L87 -83 L205 -154 Z M381 540 C381 895 556 1135 758 1135 C818 1135 867 1116 905 1084 L403 374 C388 422 381 478 381 540 L381 540 Z M629 195 C568 195 519 213 482 245 L984 955 C999 907 1006 851 1006 789 C1006 435 831 195 629 195 L629 195 Z M613 1466 L1154 1627 L1082 1852 L570 1595 L613 1466 Z " />
<glyph glyph-name="oslashacute" unicode="&#x1ff;" horiz-adv-x="983" d="M392 -20 C738 -20 965 279 965 688 C965 772 945 844 909 901 L1084 1120 L983 1183 L826 987 C774 1024 709 1044 632 1044 C284 1044 59 744 59 335 C59 245 81 167 122 108 L-40 -95 L62 -158 L210 27 C259 -3 321 -20 392 -20 L392 -20 Z M333 410 C345 646 451 845 589 845 C627 845 655 829 673 795 L359 404 C349 404 341 407 333 410 L333 410 Z M434 179 C402 179 378 191 361 216 L690 627 C689 608 687 588 684 569 C666 353 564 179 434 179 L434 179 Z M426 1166 L966 1327 L895 1552 L383 1295 L426 1166 Z " />
<glyph glyph-name="Scommaaccent" unicode="&#x218;" horiz-adv-x="976" d="M22 60 C79 22 224 -20 379 -20 C696 -20 877 111 902 339 C906 369 906 400 904 431 C894 555 811 633 678 721 L543 810 C471 856 430 900 438 972 C445 1055 522 1117 651 1117 C750 1117 860 1089 920 1068 L997 1282 C946 1306 844 1350 673 1350 C389 1350 159 1176 159 907 C159 755 238 673 367 592 L483 519 C555 475 596 441 606 392 C616 365 617 340 613 316 C598 247 530 212 398 212 C280 212 154 250 103 276 L22 60 Z M288 -139 C298 -150 320 -180 328 -223 C333 -241 334 -261 332 -280 C323 -356 245 -393 174 -406 L197 -533 C403 -515 569 -425 569 -254 C569 -177 526 -113 501 -92 L288 -139 Z " />
<glyph glyph-name="scommaaccent" unicode="&#x219;" horiz-adv-x="842" d="M27 37 C75 14 189 -20 336 -20 C587 -20 704 94 703 274 C702 378 645 457 505 578 C414 656 378 692 369 738 C365 754 366 769 371 782 C381 811 414 833 480 833 C577 833 684 806 710 797 L752 999 C725 1010 609 1044 484 1044 C243 1044 110 924 110 745 C110 639 163 562 284 461 C399 364 450 315 450 262 C450 207 404 187 324 187 C225 187 118 220 80 236 L27 37 Z M178 -139 C188 -150 211 -180 219 -223 C223 -241 225 -261 222 -280 C214 -356 135 -393 65 -406 L87 -533 C294 -515 459 -425 459 -254 C459 -177 416 -113 392 -92 L178 -139 Z " />
<glyph glyph-name="Tcommaaccent" unicode="&#x21a;" horiz-adv-x="1018" d="M135 1109 L484 1109 L308 0 L575 0 L750 1109 L1098 1109 L1133 1330 L170 1330 L135 1109 Z M293 -139 C303 -150 325 -180 333 -223 C338 -241 339 -261 337 -280 C328 -356 250 -393 179 -406 L202 -533 C408 -515 574 -425 574 -254 C574 -177 531 -113 506 -92 L293 -139 Z " />
<glyph glyph-name="tcommaaccent" unicode="&#x21b;" horiz-adv-x="741" d="M551 1270 L321 1251 L265 1016 L105 1006 L76 825 L220 825 L133 281 C98 62 192 -20 370 -20 C503 -20 636 33 698 68 L667 257 C609 232 499 198 451 198 C412 198 396 216 399 263 C398 273 399 286 402 305 L484 825 L737 825 L769 1024 L512 1024 L551 1270 Z M196 -139 C206 -150 228 -180 236 -223 C241 -241 242 -261 240 -280 C231 -356 153 -393 82 -406 L105 -533 C311 -515 477 -425 477 -254 C477 -177 434 -113 409 -92 L196 -139 Z " />
<glyph glyph-name="dotlessj" unicode="&#x237;" horiz-adv-x="518" d="M58 -52 C39 -169 8 -207 -79 -207 C-131 -207 -181 -193 -204 -185 L-255 -373 C-236 -384 -160 -416 -60 -416 C149 -416 282 -323 325 -47 L493 1024 L230 1024 L58 -52 Z " />
<glyph glyph-name="apostrophe" unicode="&#x2bc;" horiz-adv-x="399" d="M271 972 C337 1023 461 1166 461 1346 C461 1429 441 1487 427 1513 L203 1463 C216 1435 233 1371 233 1301 C233 1191 177 1072 142 1016 L271 972 Z " />
<glyph glyph-name="circumflex" unicode="&#x2c6;" horiz-adv-x="846" d="M889 1310 C809 1370 691 1465 587 1554 C456 1465 306 1369 207 1309 L314 1150 C387 1200 488 1276 552 1328 C599 1276 676 1200 733 1150 L889 1310 Z " />
<glyph glyph-name="caron" unicode="&#x2c7;" horiz-adv-x="799" d="M197 1397 C307 1326 423 1231 493 1138 C594 1231 739 1326 871 1397 L784 1567 C700 1518 593 1435 531 1374 C487 1435 406 1518 338 1567 L197 1397 Z " />
<glyph glyph-name="breve" unicode="&#x2d8;" horiz-adv-x="717" d="M236 1502 C167 1256 313 1167 460 1167 C608 1167 780 1256 789 1502 L602 1502 C594 1414 561 1340 487 1340 C413 1340 401 1414 423 1502 L236 1502 Z " />
<glyph glyph-name="dotaccent" unicode="&#x2d9;" horiz-adv-x="468" d="M197 1320 C197 1242 246 1196 323 1196 C431 1196 510 1262 510 1379 C510 1456 462 1502 385 1502 C277 1502 197 1436 197 1320 L197 1320 Z " />
<glyph glyph-name="ring" unicode="&#x2da;" horiz-adv-x="564" d="M333 1337 C333 1391 374 1428 426 1428 C465 1428 491 1403 491 1364 C491 1310 451 1272 398 1272 C360 1272 333 1298 333 1337 L333 1337 Z M167 1309 C167 1195 249 1124 367 1124 C533 1124 657 1225 657 1392 C657 1505 576 1576 457 1576 C292 1576 167 1475 167 1309 L167 1309 Z " />
<glyph glyph-name="ogonek" unicode="&#x2db;" horiz-adv-x="536" d="M287 21 C222 -17 73 -130 73 -274 C73 -415 184 -470 306 -470 C396 -470 485 -433 516 -411 L498 -250 C474 -261 422 -283 374 -283 C330 -283 301 -258 301 -207 C301 -125 374 -51 443 0 L287 21 Z " />
<glyph glyph-name="tilde" unicode="&#x2dc;" horiz-adv-x="792" d="M281 1206 C326 1251 358 1285 400 1285 C461 1285 528 1212 607 1212 C738 1212 831 1304 885 1403 L771 1500 C725 1455 693 1421 651 1421 C592 1421 525 1494 435 1494 C306 1494 214 1389 167 1302 L281 1206 Z " />
<glyph glyph-name="hungarumlaut" unicode="&#x2dd;" horiz-adv-x="894" d="M662 1141 L996 1476 L829 1600 L544 1227 L662 1141 Z M326 1131 L664 1469 L496 1593 L207 1217 L326 1131 Z " />
<glyph glyph-name="acutecomb" unicode="&#x301;" horiz-adv-x="529" d="M211 1456 L623 1590 L555 1770 L170 1562 L211 1456 Z " />
<glyph glyph-name="dotaccentcmb" unicode="&#x307;" horiz-adv-x="458" d="M107 663 C107 585 156 539 233 539 C341 539 420 605 420 722 C420 799 372 845 295 845 C187 845 107 779 107 663 L107 663 Z " />
<glyph glyph-name="ringcomb" unicode="&#x30a;" horiz-adv-x="459" d="M147 1275 C147 1308 170 1330 203 1330 C226 1330 241 1314 241 1291 C241 1257 218 1235 185 1235 C162 1235 147 1252 147 1275 L147 1275 Z M9 1250 C9 1162 71 1107 160 1107 C288 1107 379 1184 379 1316 C379 1403 317 1458 228 1458 C100 1458 9 1381 9 1250 L9 1250 Z " />
<glyph glyph-name="&amp;#x394;" unicode="&#x394;" horiz-adv-x="1334" d="M1205 0 L1234 182 L910 1330 L677 1330 L-11 182 L-40 0 L1205 0 Z M744 1023 L952 218 L281 218 L744 1023 Z " />
<glyph glyph-name="&amp;#x2206;" unicode="&#x2206;" horiz-adv-x="1334" d="M1205 0 L1234 182 L910 1330 L677 1330 L-11 182 L-40 0 L1205 0 Z M744 1023 L952 218 L281 218 L744 1023 Z " />
<glyph glyph-name="&amp;#x3a9;" unicode="&#x3a9;" horiz-adv-x="1595" d="M667 183 C667 183 666 184 666 184 C568 240 484 392 484 601 C484 936 687 1137 903 1137 C1081 1137 1195 1001 1195 777 C1195 487 1028 262 852 184 L823 0 L1370 0 L1403 206 L1155 206 C1318 307 1485 513 1485 807 C1485 1117 1287 1350 949 1350 C524 1350 198 1014 198 607 C198 427 275 279 368 206 L122 206 L90 0 L638 0 L667 183 Z " />
<glyph glyph-name="&amp;#x2126;" unicode="&#x2126;" horiz-adv-x="1595" d="M667 183 C667 183 666 184 666 184 C568 240 484 392 484 601 C484 936 687 1137 903 1137 C1081 1137 1195 1001 1195 777 C1195 487 1028 262 852 184 L823 0 L1370 0 L1403 206 L1155 206 C1318 307 1485 513 1485 807 C1485 1117 1287 1350 949 1350 C524 1350 198 1014 198 607 C198 427 275 279 368 206 L122 206 L90 0 L638 0 L667 183 Z " />
<glyph glyph-name="pi" unicode="&#x3c0;" horiz-adv-x="1460" d="M145 791 C184 807 242 825 340 825 L369 825 L341 650 C295 354 164 84 151 0 L410 0 C423 84 552 341 600 646 L628 825 L935 825 C882 679 820 493 808 314 C806 275 807 238 812 203 C827 53 933 -20 1081 -20 C1171 -20 1248 1 1286 19 L1285 212 C1268 205 1222 192 1181 192 C1122 192 1092 218 1085 276 C1081 303 1079 334 1081 369 C1092 502 1137 670 1190 825 L1408 825 L1440 1024 L378 1024 C285 1024 217 1005 166 985 C147 977 132 969 120 962 L145 791 Z " />
<glyph glyph-name="uni0E3F" unicode="&#xe3f;" horiz-adv-x="1077" d="M557 1492 L538 1260 L278 1260 L90 71 L358 71 L304 -162 L523 -162 L542 72 C831 86 1015 242 1015 463 C1015 581 942 674 850 710 C946 760 1037 858 1037 993 C1037 1155 920 1244 720 1258 L775 1492 L557 1492 Z M566 587 C681 587 734 528 734 441 C734 326 648 264 514 264 L365 264 L417 587 L566 587 Z M493 1067 L621 1067 C707 1067 756 1035 766 973 C769 951 768 929 762 906 C751 851 716 802 667 772 L446 772 L493 1067 Z " />
<glyph glyph-name="Wgrave" unicode="&#x1e80;" horiz-adv-x="1707" d="M1547 1330 L1183 353 L1102 1310 L878 1310 C752 993 621 669 494 353 L438 1330 L147 1330 L264 0 L570 0 L912 818 L995 0 L1303 0 L1839 1330 L1547 1330 Z M1298 1604 L860 1856 L725 1631 L1219 1472 L1298 1604 Z " />
<glyph glyph-name="wgrave" unicode="&#x1e81;" horiz-adv-x="1424" d="M1145 1024 C1161 976 1170 911 1170 841 C1170 625 1086 402 928 236 L893 608 C892 623 891 637 890 651 C907 712 916 775 916 838 C916 916 902 983 883 1024 L630 1004 C643 962 657 893 664 793 C655 581 573 388 425 236 L388 847 C384 918 374 981 358 1024 L110 1024 C122 989 140 898 146 813 L201 0 L421 0 C523 81 620 187 696 313 L730 0 L930 0 C1194 175 1427 509 1427 858 C1427 936 1413 1003 1394 1044 L1145 1024 Z M1067 1298 L630 1550 L494 1325 L989 1166 L1067 1298 Z " />
<glyph glyph-name="Wacute" unicode="&#x1e82;" horiz-adv-x="1707" d="M1547 1330 L1183 353 L1102 1310 L878 1310 C752 993 621 669 494 353 L438 1330 L147 1330 L264 0 L570 0 L912 818 L995 0 L1303 0 L1839 1330 L1547 1330 Z M832 1470 L1373 1631 L1301 1856 L789 1598 L832 1470 Z " />
<glyph glyph-name="wacute" unicode="&#x1e83;" horiz-adv-x="1424" d="M1145 1024 C1161 976 1170 911 1170 841 C1170 625 1086 402 928 236 L893 608 C892 623 891 637 890 651 C907 712 916 775 916 838 C916 916 902 983 883 1024 L630 1004 C643 962 657 893 664 793 C655 581 573 388 425 236 L388 847 C384 918 374 981 358 1024 L110 1024 C122 989 140 898 146 813 L201 0 L421 0 C523 81 620 187 696 313 L730 0 L930 0 C1194 175 1427 509 1427 858 C1427 936 1413 1003 1394 1044 L1145 1024 Z M612 1166 L1152 1327 L1081 1552 L569 1295 L612 1166 Z " />
<glyph glyph-name="Wdieresis" unicode="&#x1e84;" horiz-adv-x="1707" d="M1547 1330 L1183 353 L1102 1310 L878 1310 C752 993 621 669 494 353 L438 1330 L147 1330 L264 0 L570 0 L912 818 L995 0 L1303 0 L1839 1330 L1547 1330 Z M674 1626 C674 1548 723 1502 799 1502 C907 1502 987 1568 987 1685 C987 1762 938 1808 862 1808 C754 1808 674 1742 674 1626 L674 1626 Z M1104 1626 C1104 1548 1153 1502 1229 1502 C1337 1502 1417 1568 1417 1685 C1417 1762 1368 1808 1292 1808 C1183 1808 1104 1742 1104 1626 L1104 1626 Z " />
<glyph glyph-name="wdieresis" unicode="&#x1e85;" horiz-adv-x="1424" d="M1145 1024 C1161 976 1170 911 1170 841 C1170 625 1086 402 928 236 L893 608 C892 623 891 637 890 651 C907 712 916 775 916 838 C916 916 902 983 883 1024 L630 1004 C643 962 657 893 664 793 C655 581 573 388 425 236 L388 847 C384 918 374 981 358 1024 L110 1024 C122 989 140 898 146 813 L201 0 L421 0 C523 81 620 187 696 313 L730 0 L930 0 C1194 175 1427 509 1427 858 C1427 936 1413 1003 1394 1044 L1145 1024 Z M471 1320 C471 1242 520 1196 596 1196 C704 1196 784 1262 784 1379 C784 1456 735 1502 659 1502 C551 1502 471 1436 471 1320 L471 1320 Z M901 1320 C901 1242 950 1196 1026 1196 C1134 1196 1214 1262 1214 1379 C1214 1456 1165 1502 1089 1502 C981 1502 901 1436 901 1320 L901 1320 Z " />
<glyph glyph-name="Germandbls" unicode="&#x1e9e;" horiz-adv-x="1229" d="M448 25 C486 2 569 -20 677 -20 C961 -20 1159 148 1159 423 C1159 606 1032 706 892 720 L1215 1153 L1243 1330 L761 1330 C423 1330 236 1128 200 885 L59 0 L326 0 L465 875 C487 1013 574 1099 708 1099 L912 1099 L595 663 L585 556 C629 562 669 565 701 562 C830 557 890 496 890 398 C890 274 799 187 691 187 C607 187 545 207 518 217 L448 25 Z " />
<glyph glyph-name="Ygrave" unicode="&#x1ef2;" horiz-adv-x="1043" d="M311 0 L578 0 L658 501 C658 501 657 501 657 501 L1200 1330 L917 1330 L563 765 L390 1330 L112 1330 L392 501 C392 501 391 501 391 501 L311 0 Z M921 1598 L483 1850 L348 1625 L842 1466 L921 1598 Z " />
<glyph glyph-name="ygrave" unicode="&#x1ef3;" horiz-adv-x="941" d="M203 229 C222 -124 156 -207 24 -207 C-21 -207 -75 -193 -99 -180 L-170 -364 C-139 -385 -74 -416 19 -416 C139 -416 243 -376 318 -291 C654 49 948 529 948 877 C948 946 934 1010 921 1044 L670 1024 C684 981 689 931 689 880 C689 676 613 442 498 251 C481 218 463 185 443 153 C446 184 446 218 444 256 C420 726 381 980 368 1024 L120 1024 C133 991 180 641 203 229 L203 229 Z M810 1298 L372 1550 L237 1325 L731 1166 L810 1298 Z " />
<glyph glyph-name="endash" unicode="&#x2013;" horiz-adv-x="1311" d="M197 427 L1183 427 L1216 638 L231 638 L197 427 Z " />
<glyph glyph-name="emdash" unicode="&#x2014;" horiz-adv-x="1996" d="M197 427 L1867 427 L1901 638 L231 638 L197 427 Z " />
<glyph glyph-name="quoteleft" unicode="&#x2018;" horiz-adv-x="484" d="M479 1505 C311 1433 167 1314 167 1127 C167 1025 214 948 246 919 L467 978 C437 1012 390 1078 396 1173 C402 1285 487 1354 567 1398 L479 1505 Z " />
<glyph glyph-name="quoteright" unicode="&#x2019;" horiz-adv-x="484" d="M225 927 C393 999 537 1118 537 1305 C537 1407 491 1484 459 1513 L237 1454 C267 1420 314 1354 308 1259 C302 1147 218 1078 137 1033 L225 927 Z " />
<glyph glyph-name="quotesinglbase" unicode="&#x201a;" horiz-adv-x="484" d="M35 -297 C203 -225 347 -106 347 81 C347 183 301 259 269 289 L47 230 C77 196 124 129 118 35 C112 -78 28 -146 -53 -191 L35 -297 Z " />
<glyph glyph-name="quotedblleft" unicode="&#x201c;" horiz-adv-x="797" d="M485 1497 C317 1425 173 1306 173 1119 C173 1017 219 941 251 911 L462 969 C431 1005 384 1071 390 1165 C397 1278 480 1346 563 1393 L485 1497 Z M870 1508 C703 1436 560 1318 560 1132 C560 1030 606 953 638 924 L849 981 C818 1017 771 1083 777 1178 C783 1290 866 1357 949 1404 L870 1508 Z " />
<glyph glyph-name="quotedblright" unicode="&#x201d;" horiz-adv-x="861" d="M602 920 C769 992 914 1111 914 1298 C914 1400 867 1476 835 1506 L625 1448 C656 1412 703 1346 696 1252 C690 1139 606 1071 523 1024 L602 920 Z M217 909 C384 981 527 1099 527 1285 C527 1387 480 1464 448 1493 L238 1436 C269 1400 315 1334 309 1239 C303 1127 220 1060 137 1013 L217 909 Z " />
<glyph glyph-name="quotedblbase" unicode="&#x201e;" horiz-adv-x="861" d="M412 -284 C579 -213 724 -94 724 93 C724 195 677 272 645 302 L435 244 C466 208 513 142 506 48 C500 -65 416 -133 333 -180 L412 -284 Z M27 -295 C194 -224 337 -105 337 81 C337 183 290 259 258 289 L48 231 C79 196 125 129 119 35 C113 -77 30 -144 -53 -191 L27 -295 Z " />
<glyph glyph-name="dagger" unicode="&#x2020;" horiz-adv-x="1394" d="M693 1593 L622 1076 L244 1088 L207 853 L594 865 L431 -324 L643 -324 L856 865 L1240 853 L1276 1088 L893 1076 L986 1593 L693 1593 Z " />
<glyph glyph-name="daggerdbl" unicode="&#x2021;" horiz-adv-x="1518" d="M791 1601 L737 1179 L361 1191 L324 957 L711 969 L668 637 L608 319 L224 331 L187 97 L568 109 L486 -324 L774 -324 L830 109 L1207 97 L1244 331 L855 319 L897 638 L959 969 L1343 957 L1380 1191 L1000 1179 L1079 1601 L791 1601 Z " />
<glyph glyph-name="bullet" unicode="&#x2022;" horiz-adv-x="655" d="M47 639 C47 512 127 437 251 437 C427 437 558 544 558 735 C558 860 478 936 353 936 C178 936 47 827 47 639 L47 639 Z " />
<glyph glyph-name="ellipsis" unicode="&#x2026;" horiz-adv-x="1537" d="M57 103 C57 26 106 -20 183 -20 C291 -20 370 46 370 163 C370 240 322 286 245 286 C137 286 57 220 57 103 L57 103 Z M556 103 C556 26 605 -20 681 -20 C789 -20 869 46 869 163 C869 240 820 286 744 286 C636 286 556 220 556 103 L556 103 Z M1054 103 C1054 26 1103 -20 1180 -20 C1288 -20 1367 46 1367 163 C1367 240 1319 286 1242 286 C1134 286 1054 220 1054 103 L1054 103 Z " />
<glyph glyph-name="perthousand" unicode="&#x2030;" horiz-adv-x="1875" d="M1078 -20 C1164 -20 1239 10 1295 63 C1333 12 1391 -20 1465 -20 C1674 -20 1825 128 1825 339 C1825 487 1730 599 1573 599 C1487 599 1412 568 1355 515 C1317 566 1261 599 1187 599 C978 599 826 450 826 239 C826 92 922 -20 1078 -20 L1078 -20 Z M414 731 C623 731 774 879 774 1090 C774 1238 679 1350 523 1350 C314 1350 162 1201 162 990 C162 843 258 731 414 731 L414 731 Z M1328 1351 L140 83 L266 -20 L1455 1247 L1328 1351 Z M1113 145 C1056 145 1031 196 1031 260 C1031 356 1080 434 1150 434 C1208 434 1233 383 1233 318 C1233 222 1183 145 1113 145 L1113 145 Z M1500 145 C1443 145 1418 196 1418 260 C1418 356 1467 434 1537 434 C1595 434 1620 383 1620 318 C1620 222 1570 145 1500 145 L1500 145 Z M449 896 C392 896 367 947 367 1011 C367 1107 416 1185 486 1185 C544 1185 569 1134 569 1069 C569 973 519 896 449 896 L449 896 Z " />
<glyph glyph-name="guilsinglleft" unicode="&#x2039;" horiz-adv-x="802" d="M612 1009 C461 835 275 644 127 513 C233 384 359 191 455 18 L661 154 C604 270 509 402 413 513 C543 625 681 757 774 872 L612 1009 Z " />
<glyph glyph-name="guilsinglright" unicode="&#x203a;" horiz-adv-x="822" d="M229 14 C381 188 567 379 714 509 C609 639 483 831 387 1005 L181 868 C238 753 333 621 429 509 C298 398 161 266 67 150 L229 14 Z " />
<glyph glyph-name="interrobang" unicode="&#x203d;" horiz-adv-x="786" d="M280 986 L235 651 C187 572 175 494 192 407 L391 424 C391 525 425 589 527 670 C683 793 836 891 836 1090 C836 1239 705 1350 464 1350 C340 1350 231 1327 195 1317 L179 1111 C210 1119 302 1136 388 1136 C510 1136 561 1100 561 1028 C561 957 491 901 387 816 L418 986 L280 986 Z M110 103 C110 26 159 -20 235 -20 C343 -20 423 46 423 163 C423 240 374 286 298 286 C190 286 110 220 110 103 L110 103 Z " />
<glyph glyph-name="fraction" unicode="&#x2044;" horiz-adv-x="1102" d="M1108 1351 L-80 83 L46 -20 L1235 1247 L1108 1351 Z " />
<glyph glyph-name="zerosuperior" unicode="&#x2070;" horiz-adv-x="646" d="M415 731 C624 731 775 879 775 1090 C775 1238 680 1350 524 1350 C315 1350 163 1201 163 990 C163 843 259 731 415 731 L415 731 Z M450 896 C393 896 368 947 368 1011 C368 1107 417 1185 487 1185 C545 1185 570 1134 570 1069 C570 973 520 896 450 896 L450 896 Z " />
<glyph glyph-name="foursuperior" unicode="&#x2074;" horiz-adv-x="576" d="M471 1161 L443 991 L335 991 L543 1330 L369 1350 L152 988 L131 859 L419 859 L403 751 L572 751 L589 859 L674 859 L694 991 L605 991 L633 1161 L471 1161 Z " />
<glyph glyph-name="franc" unicode="&#x20a3;" horiz-adv-x="1039" d="M1069 1330 L301 1330 L147 361 L1 361 L-20 229 L126 229 L90 0 L356 0 L392 229 L651 229 L672 361 L413 361 L444 554 L891 554 L925 768 L478 768 L532 1109 L1034 1109 L1069 1330 Z " />
<glyph glyph-name="lira" unicode="&#x20a4;" horiz-adv-x="1105" d="M80 -1 L220 -30 C259 -13 297 19 298 20 C429 17 534 -20 659 -20 C841 -20 969 73 1018 273 L852 322 C814 238 775 187 679 189 C605 190 533 207 458 215 C492 297 519 387 534 465 L827 465 L848 603 L135 603 L114 465 L273 465 C261 387 239 295 202 207 C156 197 93 174 60 155 L80 -1 Z M139 729 L853 729 L875 867 L558 867 C570 1038 624 1132 765 1132 C864 1132 958 1093 985 1080 L1070 1273 C1028 1300 932 1350 797 1350 C490 1350 318 1170 292 867 L161 867 L139 729 Z " />
<glyph glyph-name="won" unicode="&#x20a9;" horiz-adv-x="2045" d="M90 834 L332 834 L343 708 L140 708 L122 596 L353 596 L404 0 L713 0 L1062 839 L1144 0 L1453 0 L1693 596 L1930 596 L1948 708 L1738 708 L1790 834 L2048 834 L2065 946 L1835 946 L1991 1330 L1704 1330 L1565 946 L1278 946 L1244 1310 L1029 1310 L879 946 L592 946 L574 1330 L289 1330 L323 946 L107 946 L90 834 Z M596 834 L834 834 L782 708 L601 708 C600 750 598 792 596 834 L596 834 Z M1288 834 L1525 834 L1480 708 L1300 708 L1288 834 Z M606 596 L736 596 C705 522 675 446 644 372 L620 329 L606 596 Z M1310 596 L1440 596 C1416 529 1392 460 1368 393 L1335 329 L1310 596 Z " />
<glyph glyph-name="Euro" unicode="&#x20ac;" horiz-adv-x="1331" d="M131 465 L264 465 C286 164 488 -20 830 -20 C957 -20 1096 15 1187 66 L1152 263 C1067 228 993 211 914 206 C882 204 850 206 821 210 C679 225 589 318 561 465 L967 465 L989 602 L153 602 L131 465 Z M173 729 L1009 729 L1031 866 L617 866 C686 1012 807 1104 965 1120 C998 1124 1030 1125 1063 1122 C1136 1117 1201 1097 1259 1073 L1351 1271 C1277 1319 1155 1350 1040 1350 C705 1350 442 1163 326 866 L195 866 L173 729 Z " />
<glyph glyph-name="uni20B1" unicode="&#x20b1;" horiz-adv-x="1291" d="M148 941 L289 941 L276 859 L135 859 L120 766 L261 766 L140 0 L407 0 L482 473 L630 473 C855 473 1042 577 1122 766 L1309 766 L1324 859 L1152 859 C1157 885 1161 912 1162 941 L1337 941 L1351 1034 L1161 1034 C1141 1229 999 1330 757 1330 L351 1330 L304 1034 L163 1034 L148 941 Z M872 859 L543 859 L556 941 L882 941 L880 918 C880 897 877 877 872 859 L872 859 Z M649 680 L514 680 L528 766 L831 766 C792 712 730 680 649 680 L649 680 Z M583 1114 L706 1114 C787 1114 838 1093 865 1034 L570 1034 L583 1114 Z " />
<glyph glyph-name="uni20B9" unicode="&#x20b9;" horiz-adv-x="1039" d="M179 854 L555 854 C500 712 339 702 149 704 L120 521 L467 0 L797 0 L427 529 C585 560 771 664 831 854 L997 854 L1016 973 L849 973 C850 991 846 1009 841 1024 C831 1106 796 1169 752 1211 L1089 1211 L1109 1330 L253 1330 C241 1261 231 1192 220 1124 L363 1124 C489 1124 562 1069 571 973 L198 973 L179 854 Z " />
<glyph glyph-name="uni20BA" unicode="&#x20ba;" horiz-adv-x="1069" d="M145 645 L295 734 L279 628 L50 494 L98 388 L256 481 L179 0 L408 0 C719 3 980 235 1019 541 L763 519 C744 362 628 239 481 225 L549 651 L845 827 L797 933 L572 798 L589 903 L893 1084 L843 1189 L612 1051 L656 1330 L390 1330 L319 881 L97 750 L145 645 Z " />
<glyph glyph-name="afii61289" unicode="&#x2113;" horiz-adv-x="840" d="M395 475 C595 582 861 771 877 1036 C879 1071 877 1106 871 1138 C848 1271 752 1350 603 1350 C385 1350 245 1204 208 975 L107 335 C67 84 205 -20 424 -20 C562 -20 683 35 723 63 L698 245 C664 231 580 193 494 193 C411 193 360 226 366 318 C363 330 364 345 367 364 C370 384 374 405 377 425 L395 475 Z M465 983 C483 1098 519 1154 577 1154 C613 1154 632 1122 632 1067 C632 893 529 778 420 702 L465 983 Z " />
<glyph glyph-name="trademark" unicode="&#x2122;" horiz-adv-x="816" d="M409 1024 L509 1024 L540 1222 L566 1024 L649 1024 L737 1222 L706 1024 L807 1024 L859 1350 L704 1350 L629 1157 L615 1350 L461 1350 L409 1024 Z M167 1267 L244 1267 L205 1024 L305 1024 L344 1267 L419 1267 L433 1350 L181 1350 L167 1267 Z " />
<glyph glyph-name="estimated" unicode="&#x212e;" horiz-adv-x="1829" d="M1676 632 L1676 654 C1676 1033 1334 1350 914 1350 C496 1350 154 1043 154 664 C154 284 486 -20 914 -20 C1169 -20 1382 88 1517 247 L1407 247 C1286 120 1114 52 916 52 C735 52 565 108 450 227 C439 240 433 255 433 271 L433 622 C433 629 436 632 443 632 L1676 632 Z M1396 711 C1396 703 1393 699 1388 699 L443 699 C436 699 433 703 433 711 L433 1057 C433 1076 439 1092 452 1105 C568 1222 733 1278 916 1278 C1095 1278 1262 1220 1377 1105 C1390 1093 1396 1080 1396 1061 L1396 711 Z " />
<glyph glyph-name="ornm17.ornm" unicode="&#x2190;" horiz-adv-x="1859" d="M1746 771 L585 771 L1056 1176 L934 1321 L174 665 L726 9 L893 153 L551 560 L1712 560 L1746 771 Z " />
<glyph glyph-name="arrowup" unicode="&#x2191;" horiz-adv-x="1599" d="M799 -226 L976 895 L1317 489 L1485 634 L933 1290 L174 634 L295 489 L765 897 L588 -226 L799 -226 Z " />
<glyph glyph-name="ornm18.ornm" unicode="&#x2192;" horiz-adv-x="1858" d="M174 560 L1335 560 L864 153 L985 9 L1745 665 L1193 1321 L1025 1176 L1366 771 L207 771 L174 560 Z " />
<glyph glyph-name="arrowdown" unicode="&#x2193;" horiz-adv-x="1599" d="M861 1290 L682 168 L341 575 L174 430 L725 -226 L1485 430 L1363 575 L893 168 L1071 1290 L861 1290 Z " />
<glyph glyph-name="ornm19.ornm" unicode="&#x2196;" horiz-adv-x="1486" d="M448 387 L539 962 L1200 177 L1373 326 L711 1111 L1285 1111 L1318 1315 L391 1315 L244 387 L448 387 Z " />
<glyph glyph-name="ornm20.ornm" unicode="&#x2197;" horiz-adv-x="1653" d="M300 177 L1209 962 L1119 387 L1323 387 L1470 1315 L543 1315 L510 1111 L1083 1111 L174 326 L300 177 Z " />
<glyph glyph-name="ornm22.ornm" unicode="&#x2198;" horiz-adv-x="1487" d="M174 964 L834 179 L261 179 L229 -25 L1156 -25 L1303 903 L1099 903 L1007 328 L346 1113 L174 964 Z " />
<glyph glyph-name="ornm21.ornm" unicode="&#x2199;" horiz-adv-x="1653" d="M391 903 L244 -25 L1171 -25 L1203 179 L630 179 L1539 964 L1414 1113 L503 328 L595 903 L391 903 Z " />
<glyph glyph-name="partialdiff" unicode="&#x2202;" horiz-adv-x="1263" d="M647 1135 C846 1135 927 999 903 787 C861 819 782 851 676 851 C322 851 70 607 70 308 C70 92 237 -20 467 -20 C982 -20 1173 453 1173 836 C1173 1115 1048 1350 696 1350 C531 1350 378 1281 346 1263 L383 1079 C422 1096 537 1135 647 1135 L647 1135 Z M498 181 C399 181 348 243 348 334 C348 507 478 650 645 650 C742 650 823 609 856 566 C791 328 667 181 498 181 L498 181 Z " />
<glyph glyph-name="product" unicode="&#x220f;" horiz-adv-x="1438" d="M892 -155 L1158 -155 L1418 1485 L280 1485 L20 -155 L286 -155 L512 1267 L1117 1267 L892 -155 Z " />
<glyph glyph-name="summation" unicode="&#x2211;" horiz-adv-x="1171" d="M1201 1484 L227 1484 L195 1284 L491 665 L-8 45 L-40 -155 L947 -155 L982 62 L283 62 L773 665 C676 864 577 1067 480 1267 L1166 1267 L1201 1484 Z " />
<glyph glyph-name="minus" unicode="&#x2212;" horiz-adv-x="1164" d="M195 559 L965 559 L999 770 L228 770 L195 559 Z " />
<glyph glyph-name="uni2215" unicode="&#x2215;" horiz-adv-x="1102" d="M1108 1351 L-80 83 L46 -20 L1235 1247 L1108 1351 Z " />
<glyph glyph-name="bulletoperator" unicode="&#x2219;" horiz-adv-x="499" d="M99 488 C99 406 141 355 223 355 C316 355 410 423 410 530 C410 608 365 662 284 662 C188 662 99 593 99 488 L99 488 Z " />
<glyph glyph-name="radical" unicode="&#x221a;" horiz-adv-x="1457" d="M60 672 L326 672 L512 0 L740 0 L1557 1485 L1283 1485 L676 349 L568 788 C560 822 551 854 543 888 L94 888 L60 672 Z " />
<glyph glyph-name="infinity" unicode="&#x221e;" horiz-adv-x="1800" d="M1224 316 C1465 316 1665 472 1665 716 C1665 901 1530 1013 1334 1013 C1171 1013 1040 915 926 812 C845 915 745 1013 581 1013 C340 1013 140 858 140 614 C140 429 275 316 471 316 C635 316 765 414 879 518 C961 414 1060 316 1224 316 L1224 316 Z M1026 665 C1125 756 1211 821 1295 821 C1375 821 1432 771 1432 689 C1432 579 1345 508 1246 508 C1162 508 1096 573 1026 665 L1026 665 Z M510 508 C431 508 373 559 373 641 C373 751 461 821 559 821 C643 821 712 753 780 665 C684 576 593 508 510 508 L510 508 Z " />
<glyph glyph-name="integral" unicode="&#x222b;" horiz-adv-x="866" d="M272 195 C262 89 198 34 112 34 C57 34 10 48 -17 58 L-90 -137 C-48 -153 14 -175 115 -175 C314 -175 472 -53 519 116 C528 150 534 184 537 220 L622 1135 C633 1241 697 1295 783 1295 C838 1295 886 1282 912 1272 L986 1466 C944 1483 881 1505 780 1505 C581 1505 424 1383 376 1214 C368 1180 362 1145 358 1110 L272 195 Z " />
<glyph glyph-name="approxequal" unicode="&#x2248;" horiz-adv-x="1156" d="M211 572 C257 599 336 645 412 645 C512 645 583 578 698 578 C814 578 929 632 1019 717 L973 855 C926 829 845 786 768 786 C668 786 598 853 483 853 C368 853 255 798 165 711 L211 572 Z M238 474 C279 501 353 546 416 546 C516 546 592 479 706 479 C822 479 930 534 1009 613 L947 752 C902 725 828 687 751 687 C639 687 563 754 461 754 C353 754 251 693 176 613 L238 474 Z " />
<glyph glyph-name="notequal" unicode="&#x2260;" horiz-adv-x="1386" d="M275 735 L686 735 L580 597 L253 597 L219 386 L416 386 L254 176 L359 113 L570 386 L1138 386 L1172 597 L734 597 L839 735 L1194 735 L1227 945 L1004 945 L1165 1154 L1060 1217 L850 945 L308 945 L275 735 Z " />
<glyph glyph-name="lessequal" unicode="&#x2264;" horiz-adv-x="1061" d="M852 1317 L164 836 L700 356 L858 514 L497 836 L961 1159 L852 1317 Z M50 35 L786 35 L818 233 L82 233 L50 35 Z " />
<glyph glyph-name="greaterequal" unicode="&#x2265;" horiz-adv-x="1055" d="M268 356 L955 836 L421 1317 L262 1159 L623 836 L160 514 L268 356 Z M80 35 L816 35 L848 233 L112 233 L80 35 Z " />
<glyph glyph-name="ornm39.ornm" unicode="&#x2460;" horiz-adv-x="1674" d="M635 492 L613 353 L1027 353 L1049 492 C1013 493 976 493 940 494 L1018 985 L964 985 C912 977 755 962 704 958 L697 824 C734 826 781 830 816 833 L762 495 L635 492 Z M174 577 C174 244 417 -20 759 -20 C1173 -20 1561 334 1561 753 C1561 1086 1317 1350 976 1350 C561 1350 174 996 174 577 L174 577 Z M378 602 C378 899 650 1148 943 1148 C1185 1148 1356 963 1356 728 C1356 431 1085 182 791 182 C549 182 378 367 378 602 L378 602 Z " />
<glyph glyph-name="ornm40.ornm" unicode="&#x2461;" horiz-adv-x="1674" d="M590 353 L1040 353 L1063 495 L839 495 C1002 640 1093 716 1093 826 C1093 914 1026 985 898 985 C806 985 725 949 680 924 L721 805 C751 820 797 839 843 839 C880 839 902 819 902 786 C902 732 837 665 606 459 L590 353 Z M174 577 C174 244 417 -20 759 -20 C1173 -20 1561 334 1561 753 C1561 1086 1317 1350 976 1350 C561 1350 174 996 174 577 L174 577 Z M378 602 C378 899 650 1148 943 1148 C1185 1148 1356 963 1356 728 C1356 431 1085 182 791 182 C549 182 378 367 378 602 L378 602 Z " />
<glyph glyph-name="ornm41.ornm" unicode="&#x2462;" horiz-adv-x="1674" d="M923 792 C923 762 901 740 883 730 L760 730 L740 607 L832 607 C879 607 902 586 902 552 C902 510 865 490 812 490 C755 490 706 511 679 524 L608 397 C638 376 706 344 790 344 C968 344 1080 437 1080 559 C1080 612 1053 656 1013 680 C1063 712 1105 761 1105 825 C1105 908 1042 985 906 985 C829 985 742 955 698 930 L735 810 C759 820 810 838 860 838 C901 838 923 820 923 792 L923 792 Z M174 577 C174 244 417 -20 759 -20 C1173 -20 1561 334 1561 753 C1561 1086 1317 1350 976 1350 C561 1350 174 996 174 577 L174 577 Z M378 602 C378 899 650 1148 943 1148 C1185 1148 1356 963 1356 728 C1356 431 1085 182 791 182 C549 182 378 367 378 602 L378 602 Z " />
<glyph glyph-name="ornm42.ornm" unicode="&#x2463;" horiz-adv-x="1674" d="M562 594 L544 482 L803 482 L783 353 L952 353 L971 482 L1068 482 L1090 617 L993 617 L1050 975 L898 975 L562 594 Z M745 618 L852 741 L832 618 L745 618 Z M174 577 C174 244 417 -20 759 -20 C1173 -20 1561 334 1561 753 C1561 1086 1317 1350 976 1350 C561 1350 174 996 174 577 L174 577 Z M378 602 C378 899 650 1148 943 1148 C1185 1148 1356 963 1356 728 C1356 431 1085 182 791 182 C549 182 378 367 378 602 L378 602 Z " />
<glyph glyph-name="ornm43.ornm" unicode="&#x2464;" horiz-adv-x="1674" d="M892 567 C892 516 847 490 791 490 C737 490 695 502 661 515 L600 385 C620 372 684 344 776 344 C937 344 1053 429 1074 555 C1093 671 1024 739 902 749 C887 751 869 751 853 751 L868 833 L1086 833 L1109 975 L730 975 L661 620 C673 623 733 631 811 631 C862 631 892 608 892 567 L892 567 Z M174 577 C174 244 417 -20 759 -20 C1173 -20 1561 334 1561 753 C1561 1086 1317 1350 976 1350 C561 1350 174 996 174 577 L174 577 Z M378 602 C378 899 650 1148 943 1148 C1185 1148 1356 963 1356 728 C1356 431 1085 182 791 182 C549 182 378 367 378 602 L378 602 Z " />
<glyph glyph-name="ornm44.ornm" unicode="&#x2465;" horiz-adv-x="1674" d="M928 839 C990 839 1035 823 1053 817 L1107 950 C1093 958 1034 984 951 984 C684 984 594 772 594 573 C594 428 661 344 797 344 C968 344 1073 450 1073 590 C1073 699 988 748 875 748 C838 748 804 739 792 732 C809 790 858 839 928 839 L928 839 Z M825 490 C770 490 761 541 771 608 C786 619 810 629 840 629 C872 629 897 611 897 573 C897 531 873 490 825 490 L825 490 Z M174 577 C174 244 417 -20 759 -20 C1173 -20 1561 334 1561 753 C1561 1086 1317 1350 976 1350 C561 1350 174 996 174 577 L174 577 Z M378 602 C378 899 650 1148 943 1148 C1185 1148 1356 963 1356 728 C1356 431 1085 182 791 182 C549 182 378 367 378 602 L378 602 Z " />
<glyph glyph-name="ornm45.ornm" unicode="&#x2466;" horiz-adv-x="1674" d="M1155 975 L699 975 L670 736 L812 736 L830 833 L950 833 L669 353 L854 353 L1133 835 L1155 975 Z M174 577 C174 244 417 -20 759 -20 C1173 -20 1561 334 1561 753 C1561 1086 1317 1350 976 1350 C561 1350 174 996 174 577 L174 577 Z M378 602 C378 899 650 1148 943 1148 C1185 1148 1356 963 1356 728 C1356 431 1085 182 791 182 C549 182 378 367 378 602 L378 602 Z " />
<glyph glyph-name="ornm46.ornm" unicode="&#x2467;" horiz-adv-x="1674" d="M815 344 C954 344 1086 423 1086 549 C1086 603 1051 650 1012 676 C1069 704 1120 753 1120 828 C1120 924 1025 985 922 985 C791 985 662 906 662 783 C662 729 695 692 729 670 C673 640 610 582 610 502 C610 402 702 344 815 344 L815 344 Z M830 785 C830 816 859 843 895 843 C928 843 947 824 947 796 C947 764 913 734 879 723 C851 733 830 756 830 785 L830 785 Z M919 550 C919 514 883 486 844 486 C805 486 780 507 780 538 C780 575 824 613 861 627 C888 616 919 584 919 550 L919 550 Z M174 577 C174 244 417 -20 759 -20 C1173 -20 1561 334 1561 753 C1561 1086 1317 1350 976 1350 C561 1350 174 996 174 577 L174 577 Z M378 602 C378 899 650 1148 943 1148 C1185 1148 1356 963 1356 728 C1356 431 1085 182 791 182 C549 182 378 367 378 602 L378 602 Z " />
<glyph glyph-name="ornm47.ornm" unicode="&#x2468;" horiz-adv-x="1674" d="M174 577 C174 244 417 -20 759 -20 C1173 -20 1561 334 1561 753 C1561 1086 1317 1350 976 1350 C561 1350 174 996 174 577 L174 577 Z M802 489 C736 489 691 507 674 513 L618 382 C633 372 692 344 778 344 C1057 344 1133 564 1133 755 C1133 900 1065 984 929 984 C759 984 653 878 653 738 C653 629 738 580 851 580 C888 580 923 589 934 596 C920 542 875 489 802 489 L802 489 Z M902 838 C957 838 966 787 955 719 C940 709 916 699 886 699 C854 699 829 717 829 755 C829 797 853 838 902 838 L902 838 Z M378 602 C378 899 650 1148 943 1148 C1185 1148 1356 963 1356 728 C1356 431 1085 182 791 182 C549 182 378 367 378 602 L378 602 Z " />
<glyph glyph-name="ornm38.ornm" unicode="&#x24ea;" horiz-adv-x="1674" d="M842 490 C796 490 770 539 770 616 C770 747 826 840 893 840 C940 840 966 789 966 711 C966 579 909 490 842 490 L842 490 Z M814 344 C1026 344 1148 523 1148 731 C1148 878 1077 985 920 985 C708 985 586 804 586 597 C586 452 657 344 814 344 L814 344 Z M174 577 C174 244 417 -20 759 -20 C1173 -20 1561 334 1561 753 C1561 1086 1317 1350 976 1350 C561 1350 174 996 174 577 L174 577 Z M378 602 C378 899 650 1148 943 1148 C1185 1148 1356 963 1356 728 C1356 431 1085 182 791 182 C549 182 378 367 378 602 L378 602 Z " />
<glyph glyph-name="ornm69.ornm" unicode="&#x24ff;" horiz-adv-x="1674" d="M842 490 C909 490 966 579 966 711 C966 789 940 840 893 840 C826 840 770 747 770 616 C770 539 796 490 842 490 L842 490 Z M814 344 C657 344 586 452 586 597 C586 804 708 985 920 985 C1077 985 1148 878 1148 731 C1148 523 1026 344 814 344 L814 344 Z M174 577 C174 244 417 -20 759 -20 C1173 -20 1561 334 1561 753 C1561 1086 1317 1350 976 1350 C561 1350 174 996 174 577 L174 577 Z " />
<glyph glyph-name="lozenge" unicode="&#x25ca;" horiz-adv-x="1340" d="M1290 665 L898 1330 L703 1330 L100 665 L492 0 L687 0 L1290 665 Z M994 665 C873 526 750 386 629 247 L395 665 C517 804 639 944 761 1083 L994 665 Z " />
<glyph glyph-name="ornm70.ornm" unicode="&#x2776;" horiz-adv-x="1674" d="M762 495 L816 833 C781 830 734 826 697 824 L704 958 C755 962 912 977 964 985 L1018 985 L940 494 C976 493 1013 493 1049 492 L1027 353 L613 353 L635 492 L762 495 Z M174 577 C174 244 417 -20 759 -20 C1173 -20 1561 334 1561 753 C1561 1086 1317 1350 976 1350 C561 1350 174 996 174 577 L174 577 Z " />
<glyph glyph-name="ornm71.ornm" unicode="&#x2777;" horiz-adv-x="1674" d="M606 459 C837 665 902 732 902 786 C902 819 880 839 843 839 C797 839 751 820 721 805 L680 924 C725 949 806 985 898 985 C1026 985 1093 914 1093 826 C1093 716 1002 640 839 495 L1063 495 L1040 353 L590 353 L606 459 Z M174 577 C174 244 417 -20 759 -20 C1173 -20 1561 334 1561 753 C1561 1086 1317 1350 976 1350 C561 1350 174 996 174 577 L174 577 Z " />
<glyph glyph-name="ornm72.ornm" unicode="&#x2778;" horiz-adv-x="1674" d="M923 792 C923 820 901 838 860 838 C810 838 759 820 735 810 L698 930 C742 955 829 985 906 985 C1042 985 1105 908 1105 825 C1105 761 1063 712 1013 680 C1053 656 1080 612 1080 559 C1080 437 968 344 790 344 C706 344 638 376 608 397 L679 524 C706 511 755 490 812 490 C865 490 902 510 902 552 C902 585 878 607 832 607 L740 607 L760 730 L883 730 C901 740 923 762 923 792 L923 792 Z M174 577 C174 244 417 -20 759 -20 C1173 -20 1561 334 1561 753 C1561 1086 1317 1350 976 1350 C561 1350 174 996 174 577 L174 577 Z " />
<glyph glyph-name="ornm73.ornm" unicode="&#x2779;" horiz-adv-x="1674" d="M898 975 L1050 975 L993 617 L1090 617 L1068 482 L971 482 L952 353 L783 353 L803 482 L544 482 L562 594 L898 975 Z M832 618 L852 741 L745 618 L832 618 Z M174 577 C174 244 417 -20 759 -20 C1173 -20 1561 334 1561 753 C1561 1086 1317 1350 976 1350 C561 1350 174 996 174 577 L174 577 Z " />
<glyph glyph-name="ornm74.ornm" unicode="&#x277a;" horiz-adv-x="1674" d="M892 567 C892 608 862 631 811 631 C733 631 673 623 661 620 L730 975 L1109 975 L1086 833 L868 833 L853 751 C869 751 887 751 902 749 C1024 739 1093 671 1074 555 C1053 429 937 344 776 344 C684 344 620 372 600 385 L661 515 C695 502 737 490 791 490 C848 490 892 516 892 567 L892 567 Z M174 577 C174 244 417 -20 759 -20 C1173 -20 1561 334 1561 753 C1561 1086 1317 1350 976 1350 C561 1350 174 996 174 577 L174 577 Z " />
<glyph glyph-name="ornm75.ornm" unicode="&#x277b;" horiz-adv-x="1674" d="M928 839 C858 839 809 790 792 732 C804 739 838 748 875 748 C988 748 1073 699 1073 590 C1073 450 968 344 797 344 C661 344 594 428 594 573 C594 772 684 984 951 984 C1034 984 1093 958 1107 950 L1053 817 C1035 823 990 839 928 839 L928 839 Z M825 490 C873 490 897 531 897 573 C897 611 872 629 840 629 C810 629 786 619 771 608 C761 541 770 490 825 490 L825 490 Z M174 577 C174 244 417 -20 759 -20 C1173 -20 1561 334 1561 753 C1561 1086 1317 1350 976 1350 C561 1350 174 996 174 577 L174 577 Z " />
<glyph glyph-name="ornm76.ornm" unicode="&#x277c;" horiz-adv-x="1674" d="M1133 835 L854 353 L669 353 L950 833 L830 833 L812 736 L670 736 L699 975 L1155 975 L1133 835 Z M174 577 C174 244 417 -20 759 -20 C1173 -20 1561 334 1561 753 C1561 1086 1317 1350 976 1350 C561 1350 174 996 174 577 L174 577 Z " />
<glyph glyph-name="ornm77.ornm" unicode="&#x277d;" horiz-adv-x="1674" d="M815 344 C702 344 610 402 610 502 C610 582 673 640 729 670 C695 692 662 729 662 783 C662 906 791 985 922 985 C1025 985 1120 924 1120 828 C1120 753 1069 704 1012 676 C1051 650 1086 603 1086 549 C1086 423 954 344 815 344 L815 344 Z M830 785 C830 756 851 733 879 723 C913 734 947 764 947 796 C947 824 928 843 895 843 C859 843 830 816 830 785 L830 785 Z M919 550 C919 584 888 616 861 627 C824 613 780 575 780 538 C780 507 805 486 844 486 C883 486 919 514 919 550 L919 550 Z M174 577 C174 244 417 -20 759 -20 C1173 -20 1561 334 1561 753 C1561 1086 1317 1350 976 1350 C561 1350 174 996 174 577 L174 577 Z " />
<glyph glyph-name="ornm78.ornm" unicode="&#x277e;" horiz-adv-x="1674" d="M174 577 C174 244 417 -20 759 -20 C1173 -20 1561 334 1561 753 C1561 1086 1317 1350 976 1350 C561 1350 174 996 174 577 L174 577 Z M802 489 C875 489 920 542 934 596 C923 589 888 580 851 580 C738 580 653 629 653 738 C653 878 759 984 929 984 C1065 984 1133 900 1133 755 C1133 564 1057 344 778 344 C692 344 633 372 618 382 L674 513 C691 507 736 489 802 489 L802 489 Z M902 838 C853 838 829 797 829 755 C829 717 854 699 886 699 C916 699 940 709 955 719 C966 787 957 838 902 838 L902 838 Z " />
<glyph glyph-name="ff" unicode="&#xfb00;" horiz-adv-x="1274" d="M1121 1120 C1127 1209 1171 1275 1287 1275 C1348 1275 1415 1264 1449 1253 L1512 1440 C1490 1449 1393 1480 1295 1480 C1034 1480 883 1352 873 1133 C869 1096 869 1054 872 1024 L541 1024 C539 1045 537 1087 540 1119 C545 1216 590 1275 698 1275 C737 1275 776 1268 801 1261 L867 1448 C851 1455 777 1480 680 1480 C433 1480 291 1339 288 1096 C288 1068 288 1040 291 1016 L142 1006 L113 825 L255 825 L61 -396 L325 -396 L519 825 L837 825 L706 0 L970 0 L1101 825 L1334 825 L1366 1024 L1123 1024 C1120 1043 1119 1086 1121 1120 L1121 1120 Z " />
<glyph glyph-name="fi" unicode="&#xfb01;" horiz-adv-x="1118" d="M697 200 C684 116 693 27 702 0 L950 0 C946 48 950 129 970 251 L1093 1024 L541 1024 C537 1049 535 1096 542 1132 C558 1220 617 1275 764 1275 C859 1275 954 1256 1002 1239 L1068 1426 C1038 1439 919 1480 775 1480 C419 1480 262 1309 291 1016 L142 1006 L113 825 L255 825 L61 -396 L325 -396 L519 825 L797 825 L697 200 Z " />
<glyph glyph-name="fl" unicode="&#xfb02;" horiz-adv-x="1165" d="M739 200 C726 116 735 27 745 0 L992 0 C988 48 993 127 1012 251 L1173 1266 C1180 1314 1185 1358 1189 1407 C1116 1431 950 1480 772 1480 C420 1480 262 1309 291 1016 L142 1006 L113 825 L255 825 L61 -396 L325 -396 L519 825 L714 825 L745 1024 L541 1024 C537 1049 535 1096 542 1132 C558 1220 617 1275 764 1275 C819 1275 869 1270 908 1264 C904 1231 899 1197 893 1162 L739 200 Z " />
<glyph glyph-name="ffi" unicode="&#xfb03;" horiz-adv-x="1700" d="M1279 200 C1265 116 1275 27 1284 0 L1532 0 C1528 48 1532 127 1552 251 L1675 1024 L1367 1024 L1123 1024 C1119 1049 1117 1096 1122 1132 C1135 1220 1184 1275 1302 1275 C1380 1275 1457 1260 1496 1245 L1562 1432 C1540 1442 1469 1467 1384 1474 C1345 1477 1304 1478 1264 1475 C988 1460 845 1290 872 1024 L541 1024 C537 1055 536 1108 542 1147 C554 1229 603 1275 698 1275 C737 1275 776 1268 801 1261 L867 1448 C851 1455 777 1480 680 1480 C405 1480 262 1305 291 1016 L142 1006 L113 825 L255 825 L61 -396 L325 -396 L519 825 L837 825 L706 0 L970 0 L1101 825 L1379 825 L1279 200 Z " />
<glyph glyph-name="ffl" unicode="&#xfb04;" horiz-adv-x="1745" d="M1321 200 C1308 116 1317 27 1327 0 L1574 0 C1570 48 1575 127 1594 251 L1744 1196 C1754 1266 1763 1335 1771 1407 C1697 1431 1531 1480 1354 1480 C1005 1480 845 1311 872 1024 L541 1024 C537 1055 536 1108 542 1147 C554 1229 603 1275 698 1275 C737 1275 776 1268 801 1261 L867 1448 C851 1455 777 1480 680 1480 C405 1480 262 1304 291 1016 L142 1006 L113 825 L255 825 L61 -396 L325 -396 L519 825 L837 825 L643 -396 L907 -396 L1101 825 L1296 825 L1327 1024 L1123 1024 C1119 1049 1117 1096 1124 1132 C1140 1220 1199 1275 1346 1275 C1401 1275 1451 1270 1490 1264 C1486 1231 1481 1197 1475 1162 L1321 200 Z " />
<glyph glyph-name="s_t" unicode="&#xfb06;" horiz-adv-x="1491" d="M21 37 C69 14 184 -20 330 -20 C581 -20 699 94 697 274 C697 378 640 457 499 578 C408 656 372 692 364 738 C359 754 361 769 366 782 C375 811 409 833 475 833 C497 833 520 832 543 829 C580 791 624 758 666 739 L807 902 C717 956 657 1027 657 1106 C657 1208 725 1269 893 1269 C943 1269 993 1270 1032 1272 L876 281 C840 62 935 -20 1113 -20 C1246 -20 1378 33 1440 68 L1410 257 C1352 232 1242 198 1193 198 C1154 198 1139 216 1141 263 C1141 273 1141 286 1144 305 L1227 825 L1480 825 L1511 1024 L1253 1024 L1295 1291 C1304 1294 1313 1298 1320 1303 L1332 1480 C1295 1472 1088 1460 879 1460 C576 1460 414 1312 414 1107 C414 1084 418 1061 425 1042 C218 1025 105 910 105 745 C105 639 157 562 278 461 C393 364 444 315 444 262 C444 207 398 187 318 187 C220 187 113 220 74 236 L21 37 Z " />
</font>
</svg>
