<?xml version="1.0" encoding="UTF-8"?>
<svg xmlns="http://www.w3.org/2000/svg" xmlns:xlink="http://www.w3.org/1999/xlink" version="1.2" >
<font id="Libertad ExtraBold">
<font-face  font-family="Libertad" units-per-em="2048" ascent="1480" descent="-396" font-style="normal" font-weight="800" font-stretch="normal" cap-height="1330" x-height="1024" underline-position="-335" underline-thickness="130" />
<missing-glyph  horiz-adv-x="1228" d="M377 998 L615 761 L851 998 L946 903 L709 667 L948 427 L853 332 L615 569 L375 332 L280 427 L519 667 L282 903 L377 998 Z M115 0 L1113 0 L1113 1331 L115 1331 L115 0 Z " />
<glyph glyph-name="CR" unicode="&#xd;" horiz-adv-x="430" d="" />
<glyph glyph-name="space" unicode="&#x20;" horiz-adv-x="430" d="" />
<glyph glyph-name="exclam" unicode="&#x21;" horiz-adv-x="518" d="M135 446 L383 446 L433 1330 L85 1330 L135 446 Z M80 149 C80 40 150 -20 250 -20 C363 -20 438 39 438 167 C438 276 368 336 268 336 C155 336 80 276 80 149 L80 149 Z " />
<glyph glyph-name="quotedbl" unicode="&#x22;" horiz-adv-x="780" d="M430 1509 L473 912 L687 912 L730 1509 L430 1509 Z M50 1509 L93 912 L307 912 L350 1509 L50 1509 Z " />
<glyph glyph-name="numbersign" unicode="&#x23;" horiz-adv-x="1534" d="M176 782 L399 782 L366 550 L143 550 L110 323 L333 323 L286 0 L548 0 L594 323 L807 323 L760 0 L1022 0 L1068 323 L1286 323 L1318 550 L1101 550 L1135 782 L1352 782 L1384 1009 L1167 1009 L1214 1330 L953 1330 L906 1009 L693 1009 L740 1330 L479 1330 L432 1009 L208 1009 L176 782 Z M661 782 L873 782 L840 550 L627 550 L661 782 Z " />
<glyph glyph-name="dollar" unicode="&#x24;" horiz-adv-x="1172" d="M465 1496 L490 1252 C307 1212 180 1086 180 913 C180 739 273 645 426 576 L577 509 C659 469 687 440 687 390 C687 340 625 324 527 324 C395 324 283 375 243 398 L183 163 C233 124 346 79 486 68 L463 -166 L723 -166 L698 77 C902 112 1012 226 1012 404 C1012 560 938 656 761 739 L591 818 C538 843 499 868 501 926 C503 968 537 1007 642 1007 C742 1007 855 968 917 940 L969 1175 C926 1198 842 1247 701 1262 L725 1496 L465 1496 Z " />
<glyph glyph-name="percent" unicode="&#x25;" horiz-adv-x="1462" d="M1160 1360 L139 97 L303 -20 L1324 1243 L1160 1360 Z M360 731 C559 731 688 852 688 1046 C688 1226 559 1350 373 1350 C175 1350 45 1228 45 1034 C45 855 175 731 360 731 L360 731 Z M369 928 C314 928 289 976 289 1043 C289 1105 314 1152 363 1152 C419 1152 444 1104 444 1037 C444 975 418 928 369 928 L369 928 Z M1089 -20 C1288 -20 1417 101 1417 295 C1417 475 1288 599 1102 599 C904 599 774 477 774 283 C774 104 904 -20 1089 -20 L1089 -20 Z M1098 177 C1043 177 1018 225 1018 292 C1018 354 1043 401 1092 401 C1148 401 1173 353 1173 286 C1173 224 1147 177 1098 177 L1098 177 Z " />
<glyph glyph-name="ampersand" unicode="&#x26;" horiz-adv-x="1409" d="M50 367 C50 147 244 -20 592 -20 C725 -20 845 20 911 56 L1105 -148 L1295 35 L1104 235 C1136 280 1187 366 1187 476 C1187 566 1158 637 1139 665 L1369 665 L1369 903 L941 903 C953 919 980 973 980 1029 C980 1210 802 1350 564 1350 C311 1350 129 1205 129 1009 C129 914 168 836 293 704 C154 634 50 505 50 367 L50 367 Z M609 218 C454 218 368 294 368 392 C368 461 401 511 441 548 L731 244 C704 230 656 218 609 218 L609 218 Z M794 665 L887 665 C929 608 928 491 911 437 L510 859 C446 926 427 952 427 1009 C427 1067 480 1112 559 1112 C630 1112 692 1070 692 999 C692 933 654 888 623 856 L794 665 Z " />
<glyph glyph-name="quotesingle" unicode="&#x27;" horiz-adv-x="400" d="M50 1509 L93 912 L307 912 L350 1509 L50 1509 Z " />
<glyph glyph-name="parenleft" unicode="&#x28;" horiz-adv-x="690" d="M371 672 C371 1080 549 1354 685 1510 L520 1645 C392 1553 55 1217 55 655 C55 112 392 -224 520 -316 L685 -181 C549 -25 371 249 371 672 L371 672 Z " />
<glyph glyph-name="parenright" unicode="&#x29;" horiz-adv-x="690" d="M339 657 C339 249 161 -25 25 -181 L190 -316 C318 -224 655 112 655 674 C655 1217 318 1553 190 1645 L25 1510 C161 1354 339 1080 339 657 L339 657 Z " />
<glyph glyph-name="asterisk" unicode="&#x2a;" horiz-adv-x="844" d="M317 1282 L95 1370 L20 1129 L246 1082 L86 923 L274 761 L422 965 L570 761 L758 923 L598 1082 L824 1129 L749 1370 L527 1282 L547 1522 L297 1522 L317 1282 Z " />
<glyph glyph-name="plus" unicode="&#x2b;" horiz-adv-x="1270" d="M507 1169 L507 793 L130 793 L130 536 L507 536 L507 161 L764 161 L764 536 L1140 536 L1140 793 L764 793 L764 1169 L507 1169 Z " />
<glyph glyph-name="comma" unicode="&#x2c;" horiz-adv-x="511" d="M181 43 C181 -57 108 -122 30 -164 L143 -290 C315 -224 441 -111 441 66 C441 198 361 295 307 336 L62 267 C109 224 181 151 181 43 L181 43 Z " />
<glyph glyph-name="hyphen" unicode="&#x2d;" horiz-adv-x="891" d="M115 404 L776 404 L776 661 L115 661 L115 404 Z " />
<glyph glyph-name="period" unicode="&#x2e;" horiz-adv-x="518" d="M80 149 C80 40 150 -20 250 -20 C363 -20 438 39 438 167 C438 276 368 336 268 336 C155 336 80 276 80 149 L80 149 Z " />
<glyph glyph-name="slash" unicode="&#x2f;" horiz-adv-x="960" d="M724 1585 L-50 -250 L266 -250 L1040 1585 L724 1585 Z " />
<glyph glyph-name="zero" unicode="0" horiz-adv-x="1316" d="M663 238 C500 238 413 408 413 676 C413 942 505 1092 653 1092 C815 1092 903 922 903 654 C903 388 811 238 663 238 L663 238 Z M652 -20 C1028 -20 1251 263 1251 669 C1251 1079 1039 1350 664 1350 C288 1350 65 1067 65 661 C65 251 277 -20 652 -20 L652 -20 Z " />
<glyph glyph-name="one" unicode="1" horiz-adv-x="864" d="M0 268 L0 0 L844 0 L844 268 L607 268 L607 1350 L525 1350 C392 1330 133 1302 1 1291 L25 1034 C87 1036 212 1046 279 1055 L279 268 L0 268 Z " />
<glyph glyph-name="two" unicode="2" horiz-adv-x="1044" d="M55 0 L984 0 L984 268 L450 268 C674 489 911 690 911 951 C911 1188 766 1350 448 1350 C245 1350 77 1261 45 1241 L137 1007 C180 1029 291 1077 403 1077 C492 1077 563 1035 563 937 C563 790 456 681 55 230 L55 0 Z " />
<glyph glyph-name="three" unicode="3" horiz-adv-x="1058" d="M402 253 C285 253 179 298 130 321 L65 74 C120 39 244 -20 447 -20 C745 -20 973 114 973 394 C973 597 817 684 755 705 C839 754 923 860 923 968 C923 1182 786 1350 467 1350 C269 1350 104 1257 73 1236 L165 1002 C208 1028 315 1077 422 1077 C545 1077 575 1007 575 924 C575 834 530 799 510 787 L269 787 L269 539 L437 539 C565 539 625 488 625 383 C625 283 538 253 402 253 L402 253 Z " />
<glyph glyph-name="four" unicode="4" horiz-adv-x="1093" d="M20 484 L20 264 L563 264 L563 0 L891 0 L891 264 L1063 264 L1063 522 L891 522 L891 1330 L586 1330 L20 484 Z M352 522 L563 839 L563 522 L352 522 Z " />
<glyph glyph-name="five" unicode="5" horiz-adv-x="1045" d="M617 410 C617 293 522 253 397 253 C290 253 180 289 115 318 L55 71 C122 29 239 -20 442 -20 C759 -20 965 133 965 424 C965 685 775 845 502 845 C471 845 449 843 439 842 L450 1062 L898 1062 L898 1330 L137 1330 L110 566 C195 573 305 583 415 583 C551 583 617 521 617 410 L617 410 Z " />
<glyph glyph-name="six" unicode="6" horiz-adv-x="1129" d="M678 1077 C793 1077 903 1042 939 1028 L1002 1275 C962 1299 834 1350 667 1350 C244 1350 65 1058 65 582 C65 153 258 -20 555 -20 C873 -20 1059 149 1059 414 C1059 682 882 849 567 824 C487 818 441 801 418 790 C430 963 505 1077 678 1077 L678 1077 Z M571 238 C455 238 408 362 418 541 C447 560 485 575 548 578 C654 583 721 515 721 400 C721 285 674 238 571 238 L571 238 Z " />
<glyph glyph-name="seven" unicode="7" horiz-adv-x="1026" d="M981 1330 L40 1330 L50 874 L315 874 L315 1072 L629 1072 L186 0 L536 0 L981 1100 L981 1330 Z " />
<glyph glyph-name="eight" unicode="8" horiz-adv-x="1162" d="M573 -20 C864 -20 1077 95 1077 364 C1077 571 879 671 833 703 C923 742 1052 832 1052 999 C1052 1225 854 1350 589 1350 C305 1350 107 1210 107 967 C107 810 209 713 319 653 C243 622 85 508 85 332 C85 88 307 -20 573 -20 L573 -20 Z M444 989 C444 1055 497 1101 573 1101 C656 1101 715 1056 715 976 C715 898 655 838 586 802 C489 867 444 900 444 989 L444 989 Z M746 360 C746 284 674 230 589 230 C496 230 415 278 415 373 C415 457 500 517 573 554 C648 509 746 448 746 360 L746 360 Z " />
<glyph glyph-name="nine" unicode="9" horiz-adv-x="1129" d="M451 253 C336 253 236 282 190 302 L127 55 C167 31 295 -20 462 -20 C885 -20 1064 222 1064 738 C1064 1147 899 1350 582 1350 C264 1350 70 1181 70 916 C70 648 247 481 562 506 C642 512 688 529 711 540 C699 357 624 253 451 253 L451 253 Z M556 1092 C662 1092 721 988 711 789 C682 770 644 755 581 752 C475 747 408 815 408 930 C408 1045 473 1092 556 1092 L556 1092 Z " />
<glyph glyph-name="colon" unicode="&#x3a;" horiz-adv-x="518" d="M80 857 C80 748 150 688 250 688 C363 688 438 747 438 875 C438 984 368 1044 268 1044 C155 1044 80 984 80 857 L80 857 Z M80 149 C80 40 150 -20 250 -20 C363 -20 438 39 438 167 C438 276 368 336 268 336 C155 336 80 276 80 149 L80 149 Z " />
<glyph glyph-name="semicolon" unicode="&#x3b;" horiz-adv-x="491" d="M46 857 C46 748 116 688 216 688 C329 688 404 747 404 875 C404 984 334 1044 234 1044 C121 1044 46 984 46 857 L46 857 Z M161 43 C161 -57 88 -122 10 -164 L123 -290 C295 -224 421 -111 421 66 C421 198 341 295 287 336 L42 267 C89 224 161 151 161 43 L161 43 Z " />
<glyph glyph-name="less" unicode="&#x3c;" horiz-adv-x="1118" d="M777 1192 L120 665 L777 141 L938 331 L519 665 L938 1001 L777 1192 Z " />
<glyph glyph-name="equal" unicode="&#x3d;" horiz-adv-x="1223" d="M130 363 L1093 363 L1093 620 L130 620 L130 363 Z M130 712 L1093 712 L1093 969 L130 969 L130 712 Z " />
<glyph glyph-name="greater" unicode="&#x3e;" horiz-adv-x="1118" d="M361 138 L1018 665 L361 1189 L200 999 L619 665 L200 329 L361 138 Z " />
<glyph glyph-name="question" unicode="&#x3f;" horiz-adv-x="822" d="M197 549 C197 478 219 450 231 430 L459 447 L457 478 C453 547 517 610 586 675 C663 747 787 866 787 998 C787 1194 634 1350 365 1350 C186 1350 68 1298 10 1266 L70 1039 C101 1054 206 1092 313 1092 C421 1092 470 1045 470 965 C470 902 381 818 313 752 C241 682 197 624 197 549 L197 549 Z M177 149 C177 40 247 -20 347 -20 C460 -20 535 39 535 167 C535 276 465 336 365 336 C252 336 177 276 177 149 L177 149 Z " />
<glyph glyph-name="at" unicode="&#x40;" horiz-adv-x="2280" d="M1606 -20 C1925 -20 2170 231 2170 650 C2170 1133 1843 1480 1253 1480 C519 1480 110 983 110 453 C110 -84 459 -416 1026 -416 C1218 -416 1379 -362 1443 -328 L1377 -120 C1297 -152 1190 -178 1057 -178 C656 -178 438 63 438 479 C438 881 736 1242 1229 1242 C1653 1242 1852 999 1852 625 C1852 375 1748 199 1649 209 C1615 212 1597 250 1598 309 L1643 894 C1600 926 1446 1044 1239 1044 C864 1044 655 803 655 445 C655 168 802 -20 1034 -20 C1176 -20 1289 60 1337 119 C1391 45 1492 -20 1606 -20 L1606 -20 Z M985 477 C985 654 1041 796 1210 796 C1264 796 1298 788 1316 781 L1281 325 C1254 289 1199 238 1122 238 C1035 238 985 334 985 477 L985 477 Z " />
<glyph glyph-name="A" unicode="A" horiz-adv-x="1341" d="M1341 0 L821 1330 L519 1330 L0 0 L350 0 L447 279 L894 279 L991 0 L1341 0 Z M665 908 L675 908 L807 527 L533 527 L665 908 Z " />
<glyph glyph-name="B" unicode="B" horiz-adv-x="1193" d="M606 0 C930 0 1143 165 1143 414 C1143 566 1035 679 919 724 C1007 776 1072 863 1072 971 C1072 1215 886 1330 574 1330 L115 1330 L115 0 L606 0 Z M594 565 C711 565 775 502 775 394 C775 308 714 253 594 253 L443 253 L443 565 L594 565 Z M443 1077 L574 1077 C677 1077 732 1021 732 931 C732 874 712 827 673 792 L443 792 L443 1077 Z " />
<glyph glyph-name="C" unicode="C" horiz-adv-x="1156" d="M1037 315 C946 273 840 253 743 253 C540 253 408 419 408 676 C408 929 535 1077 763 1077 C851 1077 936 1060 1024 1025 L1093 1272 C1015 1318 875 1350 752 1350 C327 1350 55 1078 55 661 C55 234 315 -20 752 -20 C882 -20 1026 19 1116 73 L1037 315 Z " />
<glyph glyph-name="D" unicode="D" horiz-adv-x="1328" d="M587 0 C1022 0 1273 251 1273 676 C1273 1079 1010 1330 574 1330 L115 1330 L115 0 L587 0 Z M443 253 L443 1077 L586 1077 C790 1077 920 929 920 661 C920 419 797 253 575 253 L443 253 Z " />
<glyph glyph-name="E" unicode="E" horiz-adv-x="1063" d="M115 0 L993 0 L993 268 L443 268 L443 542 L943 542 L943 800 L443 800 L443 1062 L973 1062 L973 1330 L115 1330 L115 0 Z " />
<glyph glyph-name="F" unicode="F" horiz-adv-x="993" d="M115 0 L443 0 L443 527 L903 527 L903 785 L443 785 L443 1062 L973 1062 L973 1330 L115 1330 L115 0 Z " />
<glyph glyph-name="G" unicode="G" horiz-adv-x="1301" d="M1206 765 L686 765 L686 522 L907 522 L907 272 C861 260 809 253 753 253 C544 253 408 419 408 676 C408 929 545 1077 788 1077 C881 1077 971 1060 1064 1025 L1133 1272 C1052 1318 906 1350 777 1350 C337 1350 55 1078 55 661 C55 234 319 -20 762 -20 C933 -20 1094 28 1206 112 L1206 765 Z " />
<glyph glyph-name="H" unicode="H" horiz-adv-x="1370" d="M927 0 L1255 0 L1255 1330 L927 1330 L927 805 L443 805 L443 1330 L115 1330 L115 0 L443 0 L443 537 L927 537 L927 0 Z " />
<glyph glyph-name="I" unicode="I" horiz-adv-x="558" d="M115 0 L443 0 L443 1330 L115 1330 L115 0 Z " />
<glyph glyph-name="J" unicode="J" horiz-adv-x="765" d="M332 369 C332 291 292 254 211 253 C137 252 84 272 62 282 L20 35 C52 15 136 -20 274 -20 C494 -20 660 116 660 398 L660 1330 L332 1330 L332 369 Z " />
<glyph glyph-name="K" unicode="K" horiz-adv-x="1259" d="M443 350 L566 518 L857 0 L1239 0 L805 728 L1224 1330 L858 1330 L443 729 L443 1330 L115 1330 L115 0 L443 0 L443 350 Z " />
<glyph glyph-name="L" unicode="L" horiz-adv-x="993" d="M115 0 L983 0 L983 268 L443 268 L443 1330 L115 1330 L115 0 Z " />
<glyph glyph-name="M" unicode="M" horiz-adv-x="1640" d="M1525 1330 L1094 1330 L820 571 L546 1330 L115 1330 L115 0 L438 0 L438 861 L692 147 L948 147 L1202 861 L1202 0 L1525 0 L1525 1330 Z " />
<glyph glyph-name="N" unicode="N" horiz-adv-x="1380" d="M925 0 L1265 0 L1265 1330 L942 1330 L942 520 L455 1330 L115 1330 L115 0 L438 0 L438 809 L925 0 Z " />
<glyph glyph-name="O" unicode="O" horiz-adv-x="1436" d="M723 238 C529 238 408 408 408 676 C408 942 536 1092 713 1092 C907 1092 1028 922 1028 654 C1028 388 900 238 723 238 L723 238 Z M712 -20 C1130 -20 1381 263 1381 669 C1381 1079 1141 1350 724 1350 C306 1350 55 1067 55 661 C55 251 295 -20 712 -20 L712 -20 Z " />
<glyph glyph-name="P" unicode="P" horiz-adv-x="1129" d="M115 0 L443 0 L443 446 L589 446 C871 446 1089 599 1089 896 C1089 1193 907 1330 569 1330 L115 1330 L115 0 Z M579 1068 C685 1068 746 1003 746 883 C746 767 689 694 559 694 L443 694 L443 1068 L579 1068 Z " />
<glyph glyph-name="Q" unicode="Q" horiz-adv-x="1436" d="M712 -20 C758 -20 803 -16 846 -9 C969 -237 1141 -416 1468 -416 C1604 -416 1678 -396 1736 -376 L1710 -126 C1657 -145 1575 -158 1498 -158 C1324 -158 1210 -73 1103 88 C1281 206 1381 413 1381 669 C1381 1079 1141 1350 724 1350 C306 1350 55 1067 55 661 C55 251 295 -20 712 -20 L712 -20 Z M723 238 C529 238 408 408 408 676 C408 942 536 1092 713 1092 C907 1092 1028 922 1028 654 C1028 388 900 238 723 238 L723 238 Z " />
<glyph glyph-name="R" unicode="R" horiz-adv-x="1196" d="M115 0 L443 0 L443 462 L573 462 L815 0 L1181 0 L879 535 C963 586 1099 690 1099 894 C1099 1193 907 1330 559 1330 L115 1330 L115 0 Z M569 1068 C685 1068 756 1003 756 881 C756 794 709 730 669 710 L443 710 L443 1068 L569 1068 Z " />
<glyph glyph-name="S" unicode="S" horiz-adv-x="1095" d="M90 80 C159 31 335 -20 501 -20 C834 -20 1025 118 1025 365 C1025 544 941 653 739 748 L545 838 C484 866 440 895 442 961 C444 1016 487 1065 614 1065 C729 1065 858 1017 928 983 L988 1245 C929 1278 806 1350 588 1350 C311 1350 99 1189 99 947 C99 748 205 640 379 562 L552 485 C645 440 677 407 677 349 C677 290 622 263 493 263 C365 263 210 320 162 345 L90 80 Z " />
<glyph glyph-name="T" unicode="T" horiz-adv-x="1090" d="M381 0 L709 0 L709 1062 L1080 1062 L1080 1330 L10 1330 L10 1062 L381 1062 L381 0 Z " />
<glyph glyph-name="U" unicode="U" horiz-adv-x="1310" d="M433 1330 L105 1330 L105 525 C105 173 306 -20 648 -20 C990 -20 1205 182 1205 525 L1205 1330 L877 1330 L877 512 C877 315 795 238 659 238 C523 238 433 315 433 535 L433 1330 Z " />
<glyph glyph-name="V" unicode="V" horiz-adv-x="1311" d="M946 1330 L660 362 L650 362 L365 1330 L0 1330 L449 0 L861 0 L1311 1330 L946 1330 Z " />
<glyph glyph-name="W" unicode="W" horiz-adv-x="1856" d="M1471 1330 L1288 427 L1278 427 L1060 1310 L796 1310 L578 427 L568 427 L385 1330 L20 1330 L348 0 L730 0 L928 712 L1126 0 L1509 0 L1836 1330 L1471 1330 Z " />
<glyph glyph-name="X" unicode="X" horiz-adv-x="1355" d="M54 1330 L483 690 L10 0 L382 0 L677 458 L974 0 L1345 0 L872 690 L1301 1330 L932 1330 L677 919 L423 1330 L54 1330 Z " />
<glyph glyph-name="Y" unicode="Y" horiz-adv-x="1222" d="M447 0 L775 0 L775 494 L1222 1330 L866 1330 L611 803 L356 1330 L0 1330 L447 494 L447 0 Z " />
<glyph glyph-name="Z" unicode="Z" horiz-adv-x="1127" d="M70 230 L70 0 L1077 0 L1077 268 L446 268 L1038 1099 L1038 1329 L110 1329 L110 1061 L630 1061 L70 230 Z " />
<glyph glyph-name="bracketleft" unicode="&#x5b;" horiz-adv-x="675" d="M655 -51 L403 -51 L403 1377 L655 1382 L655 1605 L115 1605 L115 -279 L655 -271 L655 -51 Z " />
<glyph glyph-name="backslash" unicode="&#x5c;" horiz-adv-x="940" d="M-55 1585 L719 -250 L1035 -250 L261 1585 L-55 1585 Z " />
<glyph glyph-name="bracketright" unicode="&#x5d;" horiz-adv-x="675" d="M40 1377 L292 1377 L292 -51 L40 -56 L40 -279 L580 -279 L580 1605 L40 1597 L40 1377 Z " />
<glyph glyph-name="asciicircum" unicode="&#x5e;" horiz-adv-x="1236" d="M455 765 L618 1165 L781 765 L1121 765 L796 1480 L440 1480 L115 765 L455 765 Z " />
<glyph glyph-name="underscore" unicode="&#x5f;" horiz-adv-x="1193" d="M115 -257 L1078 -257 L1078 0 L115 0 L115 -257 Z " />
<glyph glyph-name="grave" unicode="&#x60;" horiz-adv-x="860" d="M745 1298 L238 1573 L115 1303 L676 1147 L745 1298 Z " />
<glyph glyph-name="a" unicode="a" horiz-adv-x="961" d="M836 705 C836 924 692 1044 430 1044 C291 1044 137 990 62 949 L120 719 C180 747 287 781 387 781 C488 781 528 742 528 654 L528 562 C219 597 20 497 20 270 C20 96 154 -20 355 -20 C438 -20 526 13 598 72 C638 2 712 -20 789 -20 C860 -20 921 -6 971 15 L946 239 C928 234 907 228 881 228 C853 228 836 244 836 284 L836 705 Z M324 301 C324 378 396 415 528 392 L528 239 C495 222 456 210 420 210 C362 210 324 242 324 301 L324 301 Z " />
<glyph glyph-name="b" unicode="b" horiz-adv-x="1125" d="M115 1459 L115 94 C219 27 378 -20 540 -20 C897 -20 1090 198 1090 521 C1090 832 942 1044 684 1044 C567 1044 469 982 443 955 L443 1480 L115 1459 Z M752 506 C752 345 699 228 550 228 C496 228 462 235 443 241 L443 741 C468 763 528 786 575 786 C695 786 752 673 752 506 L752 506 Z " />
<glyph glyph-name="c" unicode="c" horiz-adv-x="898" d="M373 518 C373 685 449 781 600 781 C692 781 785 742 804 734 L864 971 C816 999 705 1044 559 1044 C228 1044 35 826 35 502 C35 192 223 -20 539 -20 C699 -20 816 22 878 58 L809 290 C788 280 692 243 590 243 C440 243 373 339 373 518 L373 518 Z " />
<glyph glyph-name="d" unicode="d" horiz-adv-x="1135" d="M692 1459 L692 1003 C649 1025 593 1044 525 1044 C224 1044 35 826 35 503 C35 192 187 -20 451 -20 C568 -20 666 42 692 69 L724 98 L756 0 L1020 0 L1020 1480 L692 1459 Z M692 283 C667 261 607 238 560 238 C433 238 373 351 373 518 C373 679 436 796 565 796 C625 796 669 776 692 760 L692 283 Z " />
<glyph glyph-name="e" unicode="e" horiz-adv-x="997" d="M363 618 C375 747 428 806 524 806 C623 806 669 727 648 618 L363 618 Z M931 445 C949 493 962 566 962 659 C962 883 814 1044 549 1044 C229 1044 35 826 35 502 C35 192 227 -20 549 -20 C746 -20 873 35 937 67 L868 299 C807 276 716 243 590 243 C456 243 373 303 360 445 L931 445 Z " />
<glyph glyph-name="f" unicode="f" horiz-adv-x="684" d="M462 1087 C462 1189 508 1227 600 1227 C660 1227 708 1212 734 1203 L784 1437 C731 1457 660 1480 538 1480 C274 1480 140 1329 140 1103 L140 1013 L0 1004 L0 786 L138 786 L138 0 L466 0 L466 786 L694 786 L694 1024 L462 1024 L462 1087 Z " />
<glyph glyph-name="g" unicode="g" horiz-adv-x="1047" d="M456 302 C726 302 884 444 884 679 C884 723 878 764 867 801 C913 804 983 801 1027 796 L1027 1035 C969 1054 842 1044 727 980 C660 1022 571 1044 466 1044 C196 1044 38 902 38 666 C38 505 115 390 254 336 C176 287 119 211 119 143 C119 71 158 37 182 17 C97 -25 15 -92 15 -205 C15 -359 161 -436 461 -436 C770 -436 1010 -301 1010 -95 C1010 100 878 202 670 202 L437 202 C404 202 388 216 391 241 C392 260 408 284 428 302 L456 302 Z M465 504 C370 504 338 574 338 677 C338 772 368 841 457 841 C552 841 584 772 584 668 C584 574 553 504 465 504 L465 504 Z M500 -212 C368 -212 296 -188 296 -131 C296 -94 326 -63 344 -47 L631 -47 C685 -47 712 -71 712 -108 C712 -178 632 -212 500 -212 L500 -212 Z " />
<glyph glyph-name="h" unicode="h" horiz-adv-x="1166" d="M115 1459 L115 0 L443 0 L443 720 C480 750 555 776 607 776 C701 776 738 731 738 623 L738 0 L1066 0 L1066 674 C1066 930 944 1044 707 1044 C587 1044 495 991 443 950 L443 1480 L115 1459 Z " />
<glyph glyph-name="i" unicode="i" horiz-adv-x="558" d="M115 1024 L115 0 L443 0 L443 1024 L115 1024 Z M100 1341 C100 1232 170 1172 270 1172 C383 1172 458 1231 458 1359 C458 1468 388 1528 288 1528 C175 1528 100 1468 100 1341 L100 1341 Z " />
<glyph glyph-name="j" unicode="j" horiz-adv-x="578" d="M135 1024 L135 -32 C135 -125 95 -163 10 -163 C-38 -163 -72 -151 -95 -143 L-133 -377 C-91 -397 -30 -416 62 -416 C324 -416 463 -285 463 -13 L463 1024 L135 1024 Z M120 1341 C120 1232 190 1172 290 1172 C403 1172 478 1231 478 1359 C478 1468 408 1528 308 1528 C195 1528 120 1468 120 1341 L120 1341 Z " />
<glyph glyph-name="k" unicode="k" horiz-adv-x="1112" d="M115 1459 L115 0 L443 0 L443 275 L538 406 L747 0 L1112 0 L784 602 L1092 1024 L740 1024 L443 614 L443 1480 L115 1459 Z " />
<glyph glyph-name="l" unicode="l" horiz-adv-x="558" d="M115 1459 L115 0 L443 0 L443 1480 L115 1459 Z " />
<glyph glyph-name="m" unicode="m" horiz-adv-x="1769" d="M115 1024 L115 0 L443 0 L443 720 C484 750 552 776 602 776 C692 776 728 731 728 623 L728 0 L1056 0 L1056 674 C1056 689 1055 704 1054 719 C1103 753 1167 776 1215 776 C1305 776 1341 731 1341 623 L1341 0 L1669 0 L1669 674 C1669 930 1549 1044 1315 1044 C1180 1044 1067 990 992 924 C934 1005 837 1044 702 1044 C557 1044 451 967 412 923 L379 1024 L115 1024 Z " />
<glyph glyph-name="n" unicode="n" horiz-adv-x="1166" d="M115 1024 L115 0 L443 0 L443 720 C480 750 555 776 607 776 C701 776 738 731 738 623 L738 0 L1066 0 L1066 674 C1066 930 944 1044 707 1044 C559 1044 453 963 412 923 L379 1024 L115 1024 Z " />
<glyph glyph-name="o" unicode="o" horiz-adv-x="1111" d="M549 -20 C883 -20 1076 198 1076 521 C1076 832 888 1044 562 1044 C228 1044 35 826 35 503 C35 192 223 -20 549 -20 L549 -20 Z M560 218 C420 218 373 339 373 518 C373 685 419 806 551 806 C691 806 738 685 738 506 C738 339 692 218 560 218 L560 218 Z " />
<glyph glyph-name="p" unicode="p" horiz-adv-x="1135" d="M443 -396 L443 21 C486 -1 542 -20 610 -20 C911 -20 1100 198 1100 521 C1100 832 948 1044 684 1044 C567 1044 469 982 443 955 L411 926 L379 1024 L115 1024 L115 -396 L443 -396 Z M443 741 C468 763 528 786 575 786 C702 786 762 673 762 506 C762 345 699 228 570 228 C509 228 466 248 443 263 L443 741 Z " />
<glyph glyph-name="q" unicode="q" horiz-adv-x="1125" d="M1010 -396 L1010 959 C906 1001 747 1043 585 1043 C228 1043 35 825 35 502 C35 191 183 -21 441 -21 C558 -21 656 41 682 68 L682 -396 L1010 -396 Z M373 517 C373 678 426 795 575 795 C629 795 663 787 682 780 L682 282 C657 260 597 237 550 237 C430 237 373 350 373 517 L373 517 Z " />
<glyph glyph-name="r" unicode="r" horiz-adv-x="760" d="M115 1024 L115 0 L443 0 L443 678 C516 716 652 758 760 747 L760 1041 C630 1056 494 980 420 897 L379 1024 L115 1024 Z " />
<glyph glyph-name="s" unicode="s" horiz-adv-x="877" d="M56 58 C138 17 263 -20 427 -20 C702 -20 832 103 832 292 C832 444 753 534 588 597 L510 627 C414 664 367 684 367 732 C367 786 431 796 480 796 C568 796 683 760 757 734 L807 971 C690 1031 559 1044 460 1044 C215 1044 60 912 60 709 C60 564 137 466 318 401 L388 376 C458 351 525 331 525 283 C525 241 475 228 396 228 C303 228 184 264 119 294 L56 58 Z " />
<glyph glyph-name="t" unicode="t" horiz-adv-x="764" d="M462 1270 L189 1251 L160 1014 L0 1004 L0 786 L138 786 L138 347 C138 81 234 -20 498 -20 C596 -20 708 6 764 31 L728 269 C699 258 639 243 580 243 C498 243 466 276 466 383 L466 786 L720 786 L720 1024 L462 1024 L462 1270 Z " />
<glyph glyph-name="u" unicode="u" horiz-adv-x="1156" d="M1041 0 L1041 1024 L713 1024 L713 304 C672 274 604 248 554 248 C464 248 428 293 428 401 L428 1024 L100 1024 L100 350 C100 94 220 -20 454 -20 C599 -20 705 57 744 101 L777 0 L1041 0 Z " />
<glyph glyph-name="v" unicode="v" horiz-adv-x="1074" d="M726 1024 L542 334 L532 334 L348 1024 L-10 1024 L331 0 L743 0 L1084 1024 L726 1024 Z " />
<glyph glyph-name="w" unicode="w" horiz-adv-x="1610" d="M1267 1024 L1113 344 L1103 344 L949 1014 L661 1014 L507 344 L497 344 L343 1024 L-10 1024 L271 0 L683 0 L805 482 L927 0 L1339 0 L1620 1024 L1267 1024 Z " />
<glyph glyph-name="x" unicode="x" horiz-adv-x="1060" d="M4 1024 L342 531 L-30 0 L333 0 L530 314 L727 0 L1090 0 L718 531 L1056 1024 L695 1024 L530 746 L365 1024 L4 1024 Z " />
<glyph glyph-name="y" unicode="y" horiz-adv-x="1114" d="M746 1024 L578 324 L568 324 L363 1024 L0 1024 L361 60 L410 -33 C393 -123 327 -163 246 -163 C157 -163 94 -141 71 -133 L23 -367 C69 -387 167 -416 268 -416 C527 -416 689 -300 777 -20 L1104 1024 L746 1024 Z " />
<glyph glyph-name="z" unicode="z" horiz-adv-x="973" d="M70 190 L70 0 L903 0 L903 238 L447 238 L873 834 L873 1024 L100 1024 L100 786 L496 786 L70 190 Z " />
<glyph glyph-name="braceleft" unicode="&#x7b;" horiz-adv-x="689" d="M380 1329 C380 1373 415 1422 488 1422 C540 1422 584 1412 609 1404 L639 1606 C606 1624 531 1645 452 1645 C256 1645 101 1550 101 1336 C101 1196 280 1019 280 903 C280 814 202 765 80 762 L80 567 C202 564 280 515 280 409 C280 308 101 133 101 -37 C101 -235 244 -316 452 -316 C531 -316 606 -295 639 -277 L609 -75 C584 -83 540 -93 488 -93 C415 -93 380 -58 380 2 C380 87 571 307 571 436 C571 562 483 642 361 664 C483 687 571 767 571 910 C571 1042 380 1224 380 1329 L380 1329 Z " />
<glyph glyph-name="bar" unicode="&#x7c;" horiz-adv-x="518" d="M115 -499 L403 -499 L403 1523 L115 1523 L115 -499 Z " />
<glyph glyph-name="braceright" unicode="&#x7d;" horiz-adv-x="689" d="M329 1329 C329 1224 138 1042 138 910 C138 767 226 687 348 664 C226 642 138 562 138 436 C138 307 329 87 329 2 C329 -58 294 -93 221 -93 C169 -93 125 -83 100 -75 L70 -277 C103 -295 178 -316 257 -316 C465 -316 608 -235 608 -37 C608 133 429 308 429 409 C429 515 507 564 629 567 L629 762 C507 765 429 814 429 903 C429 1019 608 1196 608 1336 C608 1550 453 1645 257 1645 C178 1645 103 1624 70 1606 L100 1404 C125 1412 169 1422 221 1422 C294 1422 329 1373 329 1329 L329 1329 Z " />
<glyph glyph-name="asciitilde" unicode="&#x7e;" horiz-adv-x="1116" d="M213 497 C251 525 320 571 394 571 C498 571 593 506 714 506 C835 506 946 573 1006 668 L903 833 C865 805 796 759 722 759 C618 759 523 824 402 824 C281 824 170 757 110 662 L213 497 Z " />
<glyph glyph-name="nbspace" unicode="&#xa0;" horiz-adv-x="430" d="" />
<glyph glyph-name="exclamdown" unicode="&#xa1;" horiz-adv-x="518" d="M383 578 L135 578 L85 -306 L433 -306 L383 578 Z M80 857 C80 748 150 688 250 688 C363 688 438 747 438 875 C438 984 368 1044 268 1044 C155 1044 80 984 80 857 L80 857 Z " />
<glyph glyph-name="cent" unicode="&#xa2;" horiz-adv-x="1273" d="M586 1417 L610 1186 C331 1138 160 936 160 655 C160 378 336 180 617 140 L594 -88 L854 -88 L831 139 C936 152 1016 183 1063 211 L994 443 C973 433 877 396 775 396 C606 396 498 482 498 671 C498 848 611 934 775 934 C872 934 969 895 989 887 L1049 1124 C1010 1146 930 1180 823 1192 L846 1417 L586 1417 Z " />
<glyph glyph-name="sterling" unicode="&#xa3;" horiz-adv-x="1259" d="M929 750 L612 750 C602 814 594 877 594 945 C594 1045 650 1087 743 1087 C844 1087 959 1043 978 1035 L1038 1272 C988 1300 881 1350 739 1350 C436 1350 274 1190 274 931 C274 867 281 808 289 750 L142 750 L142 607 L311 607 C317 561 321 514 321 465 C321 398 316 323 299 245 C250 236 182 209 146 185 L203 -2 L370 -30 C409 -15 448 20 448 20 C565 13 674 -20 808 -20 C1005 -20 1136 76 1149 310 L941 363 C919 285 895 231 789 233 C733 233 676 242 614 252 C632 330 641 409 641 479 C641 523 638 566 633 607 L929 607 L929 750 Z " />
<glyph glyph-name="currency" unicode="&#xa4;" horiz-adv-x="1530" d="M1355 203 L1168 422 C1217 492 1244 576 1244 670 C1244 764 1216 851 1166 921 L1355 1137 L1202 1264 L993 1061 C927 1092 850 1109 765 1109 C679 1109 602 1092 536 1061 L328 1264 L175 1137 L364 922 C314 851 286 765 286 670 C286 575 314 488 364 418 L175 203 L328 76 L536 277 C602 247 679 230 765 230 C850 230 928 247 994 277 L1202 76 L1355 203 Z M765 455 C643 455 565 544 565 670 C565 795 643 884 765 884 C887 884 965 795 965 670 C965 544 887 455 765 455 L765 455 Z " />
<glyph glyph-name="yen" unicode="&#xa5;" horiz-adv-x="1342" d="M426 1330 L90 1330 L336 869 L219 869 L219 726 L1124 726 L1124 869 L1006 869 L1252 1330 L916 1330 L671 831 L426 1330 Z M1099 605 L244 605 L244 462 L507 462 L507 0 L835 0 L835 462 L1099 462 L1099 605 Z " />
<glyph glyph-name="brokenbar" unicode="&#xa6;" horiz-adv-x="518" d="M115 694 L403 694 L403 1523 L115 1523 L115 694 Z M115 -499 L403 -499 L403 330 L115 330 L115 -499 Z " />
<glyph glyph-name="section" unicode="&#xa7;" horiz-adv-x="1226" d="M199 -91 L139 -333 C210 -366 359 -416 526 -416 C892 -416 1111 -226 1111 52 C1111 213 1076 282 994 472 L841 829 C764 1008 738 1124 790 1210 C877 1201 952 1180 1027 1155 L1087 1397 C1016 1430 867 1480 700 1480 C334 1480 115 1290 115 1012 C115 851 150 782 232 592 L385 235 C461 55 487 -60 436 -146 C348 -137 273 -116 199 -91 L199 -91 Z M544 841 L716 440 C807 229 834 146 834 42 C834 -38 790 -104 679 -133 C738 -70 768 23 682 223 L510 624 C419 835 392 918 392 1022 C392 1102 436 1168 546 1197 C487 1134 458 1041 544 841 L544 841 Z " />
<glyph glyph-name="dieresis" unicode="&#xa8;" horiz-adv-x="1044" d="M115 1341 C115 1232 185 1172 285 1172 C398 1172 473 1231 473 1359 C473 1468 403 1528 303 1528 C190 1528 115 1468 115 1341 L115 1341 Z M571 1341 C571 1232 641 1172 741 1172 C854 1172 929 1231 929 1359 C929 1468 859 1528 759 1528 C646 1528 571 1468 571 1341 L571 1341 Z " />
<glyph glyph-name="copyright" unicode="&#xa9;" horiz-adv-x="1600" d="M115 665 C115 287 422 -20 800 -20 C1178 -20 1485 287 1485 665 C1485 1043 1178 1350 800 1350 C422 1350 115 1043 115 665 L115 665 Z M288 665 C288 949 516 1177 800 1177 C1084 1177 1312 949 1312 665 C1312 381 1084 153 800 153 C516 153 288 381 288 665 L288 665 Z M695 670 C695 782 737 837 842 837 C908 837 971 812 986 806 L1030 992 C996 1012 917 1044 812 1044 C577 1044 439 890 439 657 C439 437 573 286 798 286 C913 286 996 316 1040 342 L989 524 C971 517 908 493 834 493 C730 493 695 548 695 670 L695 670 Z " />
<glyph glyph-name="ordfeminine" unicode="&#xaa;" horiz-adv-x="618" d="M530 1153 C530 1280 442 1350 284 1350 C189 1350 94 1319 49 1295 L86 1116 C122 1132 178 1152 249 1152 C300 1152 321 1132 321 1088 L321 1076 C189 1092 30 1059 30 903 C30 791 100 731 220 731 C288 731 332 761 361 785 C385 754 418 731 482 731 C528 731 576 739 608 751 L594 892 C587 889 575 885 560 885 C540 885 530 895 530 918 L530 1153 Z M227 921 C227 958 260 975 321 962 L321 902 C311 894 286 885 268 885 C243 885 227 896 227 921 L227 921 Z " />
<glyph glyph-name="guillemotleft" unicode="&#xab;" horiz-adv-x="1250" d="M527 1022 C391 840 222 642 90 512 C222 382 391 184 527 2 L741 158 C660 277 543 401 430 512 C543 623 660 747 741 866 L527 1022 Z M1006 982 C879 816 717 629 599 512 C717 394 879 208 1006 42 L1220 198 C1145 303 1049 415 939 512 C1049 609 1145 721 1220 826 L1006 982 Z " />
<glyph glyph-name="logicalnot" unicode="&#xac;" horiz-adv-x="1218" d="M130 536 L831 536 L831 280 L1088 280 L1088 793 L130 793 L130 536 Z " />
<glyph glyph-name="uni00AD" unicode="&#xad;" horiz-adv-x="872" d="M105 404 L766 404 L766 661 L105 661 L105 404 Z " />
<glyph glyph-name="registered" unicode="&#xae;" horiz-adv-x="1600" d="M115 665 C115 287 422 -20 800 -20 C1178 -20 1485 287 1485 665 C1485 1043 1178 1350 800 1350 C422 1350 115 1043 115 665 L115 665 Z M288 665 C288 949 516 1177 800 1177 C1084 1177 1312 949 1312 665 C1312 381 1084 153 800 153 C516 153 288 381 288 665 L288 665 Z M514 329 L743 329 L743 537 L794 537 L862 329 L1128 329 L1005 588 C1065 630 1105 694 1105 775 C1105 922 992 1001 821 1001 L514 1001 L514 329 Z M772 839 C826 839 856 815 856 764 C856 713 828 683 762 683 L743 683 L743 839 L772 839 Z " />
<glyph glyph-name="macron" unicode="&#xaf;" horiz-adv-x="892" d="M115 1232 L777 1232 L777 1469 L115 1469 L115 1232 Z " />
<glyph glyph-name="degree" unicode="&#xb0;" horiz-adv-x="607" d="M297 819 C468 819 577 940 577 1090 C577 1230 468 1350 310 1350 C140 1350 30 1228 30 1078 C30 939 140 819 297 819 L297 819 Z M307 1009 C261 1009 234 1044 234 1088 C234 1126 259 1159 299 1159 C347 1159 372 1124 372 1080 C372 1042 347 1009 307 1009 L307 1009 Z " />
<glyph glyph-name="plusminus" unicode="&#xb1;" horiz-adv-x="1214" d="M457 1280 L457 974 L140 974 L140 737 L457 737 L457 412 L694 412 L694 737 L1010 737 L1010 974 L694 974 L694 1280 L457 1280 Z M1010 257 L140 257 L140 20 L1010 20 L1010 257 Z " />
<glyph glyph-name="twosuperior" unicode="&#xb2;" horiz-adv-x="529" d="M22 751 L509 751 L509 937 L295 937 C411 981 490 1043 490 1148 C490 1264 415 1350 242 1350 C141 1350 45 1313 20 1294 L64 1121 C88 1132 147 1155 202 1155 C235 1155 252 1136 252 1104 C252 1044 169 1004 22 927 L22 751 Z " />
<glyph glyph-name="threesuperior" unicode="&#xb3;" horiz-adv-x="518" d="M249 1138 C249 1122 241 1111 234 1104 L116 1104 L116 980 L217 980 C252 980 270 968 270 941 C270 913 247 901 191 901 C127 901 77 918 56 926 L20 769 C46 754 137 731 213 731 C396 731 498 793 498 919 C498 1001 439 1040 409 1056 C436 1074 480 1107 480 1178 C480 1284 397 1350 223 1350 C124 1350 47 1321 26 1308 L62 1154 C88 1167 135 1180 180 1180 C231 1180 249 1161 249 1138 L249 1138 Z " />
<glyph glyph-name="acute" unicode="&#xb4;" horiz-adv-x="860" d="M184 1147 L745 1303 L622 1573 L115 1298 L184 1147 Z " />
<glyph glyph-name="&amp;#xb5;" unicode="&#xb5;" horiz-adv-x="1156" d="M100 1024 L100 -32 C100 -125 60 -163 -25 -163 C-73 -163 -107 -151 -130 -143 L-168 -377 C-126 -397 -65 -416 27 -416 C287 -416 426 -287 428 -19 C436 -20 445 -20 454 -20 C599 -20 705 57 744 101 L777 0 L1041 0 L1041 1024 L713 1024 L713 304 C672 274 604 248 554 248 C464 248 428 293 428 401 L428 1024 L100 1024 Z " />
<glyph glyph-name="&amp;#x3bc;" unicode="&#x3bc;" horiz-adv-x="1156" d="M100 1024 L100 -32 C100 -125 60 -163 -25 -163 C-73 -163 -107 -151 -130 -143 L-168 -377 C-126 -397 -65 -416 27 -416 C287 -416 426 -287 428 -19 C436 -20 445 -20 454 -20 C599 -20 705 57 744 101 L777 0 L1041 0 L1041 1024 L713 1024 L713 304 C672 274 604 248 554 248 C464 248 428 293 428 401 L428 1024 L100 1024 Z " />
<glyph glyph-name="paragraph" unicode="&#xb6;" horiz-adv-x="1259" d="M711 3 C711 -96 665 -142 570 -143 C491 -144 436 -130 411 -124 L369 -371 C402 -387 490 -416 633 -416 C875 -416 1039 -271 1039 32 L1039 1062 L1199 1062 L1199 1330 L577 1330 C247 1330 35 1193 35 896 C35 599 247 446 577 446 L577 1062 L711 1062 L711 144 L1039 143 L711 143 L711 3 Z " />
<glyph glyph-name="periodcentered" unicode="&#xb7;" horiz-adv-x="618" d="M130 504 C130 395 200 335 300 335 C413 335 488 394 488 522 C488 631 418 691 318 691 C205 691 130 631 130 504 L130 504 Z " />
<glyph glyph-name="cedilla" unicode="&#xb8;" horiz-adv-x="605" d="M83 -561 C104 -571 155 -581 216 -581 C386 -581 530 -521 530 -336 C530 -177 409 -106 263 -106 L136 -106 L125 -273 L178 -273 C242 -273 283 -289 283 -342 C283 -394 241 -417 176 -417 C142 -417 120 -412 102 -407 L83 -561 Z " />
<glyph glyph-name="onesuperior" unicode="&#xb9;" horiz-adv-x="566" d="M29 933 L29 751 L541 751 L541 933 L412 937 L412 1350 L297 1350 C214 1335 104 1317 25 1307 L44 1122 C79 1125 150 1134 180 1139 L180 937 L29 933 Z " />
<glyph glyph-name="ordmasculine" unicode="&#xba;" horiz-adv-x="693" d="M340 731 C541 731 663 862 663 1046 C663 1216 541 1350 353 1350 C153 1350 30 1218 30 1034 C30 865 153 731 340 731 L340 731 Z M349 928 C289 928 272 977 272 1043 C272 1105 289 1152 343 1152 C405 1152 420 1103 420 1037 C420 975 403 928 349 928 L349 928 Z " />
<glyph glyph-name="guillemotright" unicode="&#xbb;" horiz-adv-x="1250" d="M743 3 C879 185 1048 383 1180 513 C1048 643 879 841 743 1023 L529 867 C610 748 727 624 840 513 C727 402 610 278 529 159 L743 3 Z M264 43 C391 209 553 396 671 513 C553 631 391 817 264 983 L50 827 C125 722 221 610 331 513 C221 416 125 304 50 199 L264 43 Z " />
<glyph glyph-name="onequarter" unicode="&#xbc;" horiz-adv-x="1399" d="M945 579 L677 227 L677 90 L935 90 L935 0 L1151 0 L1151 90 L1239 90 L1239 243 L1151 243 L1151 579 L945 579 Z M867 243 L935 336 L935 243 L867 243 Z M1145 1360 L124 97 L288 -20 L1309 1243 L1145 1360 Z M84 933 L84 751 L596 751 L596 933 L467 937 L467 1350 L352 1350 C269 1335 159 1317 80 1307 L99 1122 C134 1125 205 1134 235 1139 L235 937 L84 933 Z " />
<glyph glyph-name="onehalf" unicode="&#xbd;" horiz-adv-x="1408" d="M850 0 L1337 0 L1337 186 L1123 186 C1239 230 1318 292 1318 397 C1318 513 1243 599 1070 599 C969 599 873 562 848 543 L892 370 C916 381 975 404 1030 404 C1063 404 1080 385 1080 353 C1080 293 997 253 850 176 L850 0 Z M84 933 L84 751 L596 751 L596 933 L467 937 L467 1350 L352 1350 C269 1335 159 1317 80 1307 L99 1122 C134 1125 205 1134 235 1139 L235 937 L84 933 Z M1145 1360 L124 97 L288 -20 L1309 1243 L1145 1360 Z " />
<glyph glyph-name="threequarters" unicode="&#xbe;" horiz-adv-x="1365" d="M335 1138 C335 1122 327 1111 320 1104 L202 1104 L202 980 L303 980 C338 980 356 968 356 941 C356 913 333 901 277 901 C213 901 163 918 142 926 L106 769 C132 754 223 731 299 731 C482 731 584 793 584 919 C584 1001 525 1040 495 1056 C522 1074 566 1107 566 1178 C566 1284 483 1350 309 1350 C210 1350 133 1321 112 1308 L148 1154 C174 1167 221 1180 266 1180 C317 1180 335 1161 335 1138 L335 1138 Z M911 579 L643 227 L643 90 L901 90 L901 0 L1117 0 L1117 90 L1205 90 L1205 243 L1117 243 L1117 579 L911 579 Z M833 243 L901 336 L901 243 L833 243 Z M1111 1360 L90 97 L254 -20 L1275 1243 L1111 1360 Z " />
<glyph glyph-name="questiondown" unicode="&#xbf;" horiz-adv-x="822" d="M625 475 C625 546 603 574 591 594 L363 577 L365 546 C369 477 305 414 236 349 C159 277 35 158 35 26 C35 -170 188 -326 457 -326 C636 -326 754 -274 812 -242 L752 -15 C721 -30 616 -68 509 -68 C401 -68 352 -21 352 59 C352 122 441 206 509 272 C581 342 625 400 625 475 L625 475 Z M287 857 C287 748 357 688 457 688 C570 688 645 747 645 875 C645 984 575 1044 475 1044 C362 1044 287 984 287 857 L287 857 Z " />
<glyph glyph-name="Agrave" unicode="&#xc0;" horiz-adv-x="1341" d="M1341 0 L821 1330 L519 1330 L0 0 L350 0 L447 279 L894 279 L991 0 L1341 0 Z M965 1598 L458 1873 L335 1603 L896 1447 L965 1598 Z M665 908 L675 908 L807 527 L533 527 L665 908 Z " />
<glyph glyph-name="Aacute" unicode="&#xc1;" horiz-adv-x="1341" d="M434 1447 L995 1603 L872 1873 L365 1598 L434 1447 Z M1341 0 L821 1330 L519 1330 L0 0 L350 0 L447 279 L894 279 L991 0 L1341 0 Z M665 908 L675 908 L807 527 L533 527 L665 908 Z " />
<glyph glyph-name="Acircumflex" unicode="&#xc2;" horiz-adv-x="1341" d="M1341 0 L821 1330 L519 1330 L0 0 L350 0 L447 279 L894 279 L991 0 L1341 0 Z M665 908 L675 908 L807 527 L533 527 L665 908 Z M1046 1615 C945 1683 792 1788 670 1875 C548 1788 395 1683 294 1615 L453 1425 C520 1476 614 1557 670 1610 C726 1557 820 1476 887 1425 L1046 1615 Z " />
<glyph glyph-name="Atilde" unicode="&#xc3;" horiz-adv-x="1341" d="M1341 0 L821 1330 L519 1330 L0 0 L350 0 L447 279 L894 279 L991 0 L1341 0 Z M665 908 L675 908 L807 527 L533 527 L665 908 Z M433 1481 C480 1538 502 1568 544 1568 C611 1568 694 1490 780 1490 C942 1490 1032 1612 1063 1719 L908 1829 C859 1772 836 1742 794 1742 C732 1742 648 1820 545 1820 C386 1820 300 1677 278 1590 L433 1481 Z " />
<glyph glyph-name="Adieresis" unicode="&#xc4;" horiz-adv-x="1341" d="M1341 0 L821 1330 L519 1330 L0 0 L350 0 L452 294 L889 294 L991 0 L1341 0 Z M263 1641 C263 1532 333 1472 433 1472 C546 1472 621 1531 621 1659 C621 1768 551 1828 451 1828 C338 1828 263 1768 263 1641 L263 1641 Z M719 1641 C719 1532 789 1472 889 1472 C1002 1472 1077 1531 1077 1659 C1077 1768 1007 1828 907 1828 C794 1828 719 1768 719 1641 L719 1641 Z M665 908 L675 908 L802 542 L538 542 L665 908 Z " />
<glyph glyph-name="Aring" unicode="&#xc5;" horiz-adv-x="1341" d="M1341 0 L821 1330 L519 1330 L0 0 L350 0 L447 279 L894 279 L991 0 L1341 0 Z M409 1639 C409 1491 511 1412 659 1412 C821 1412 931 1490 931 1661 C931 1809 829 1888 681 1888 C519 1888 409 1809 409 1639 L409 1639 Z M665 908 L675 908 L807 527 L533 527 L665 908 Z M604 1647 C604 1694 631 1716 673 1716 C711 1716 736 1694 736 1653 C736 1606 709 1584 667 1584 C629 1584 604 1606 604 1647 L604 1647 Z " />
<glyph glyph-name="AE" unicode="&#xc6;" horiz-adv-x="1919" d="M1001 0 L1849 0 L1849 268 L1319 268 L1319 542 L1799 542 L1799 800 L1319 800 L1319 1062 L1829 1062 L1829 1330 L971 1330 L-10 0 L339 0 L545 279 L1001 279 L1001 0 Z M1001 897 L1001 527 L728 527 L1001 897 Z " />
<glyph glyph-name="Ccedilla" unicode="&#xc7;" horiz-adv-x="1156" d="M1037 315 C946 273 840 253 743 253 C540 253 408 419 408 676 C408 929 535 1077 763 1077 C851 1077 936 1060 1024 1025 L1093 1272 C1015 1318 875 1350 752 1350 C327 1350 55 1078 55 661 C55 234 315 -20 752 -20 C882 -20 1026 19 1116 73 L1037 315 Z M453 -561 C474 -571 525 -581 586 -581 C756 -581 900 -521 900 -336 C900 -177 779 -106 633 -106 L506 -106 L495 -273 L548 -273 C612 -273 653 -289 653 -342 C653 -394 611 -417 546 -417 C512 -417 490 -412 472 -407 L453 -561 Z " />
<glyph glyph-name="Egrave" unicode="&#xc8;" horiz-adv-x="1063" d="M115 0 L993 0 L993 268 L443 268 L443 542 L943 542 L943 800 L443 800 L443 1062 L973 1062 L973 1330 L115 1330 L115 0 Z M849 1598 L342 1873 L219 1603 L780 1447 L849 1598 Z " />
<glyph glyph-name="Eacute" unicode="&#xc9;" horiz-adv-x="1063" d="M115 0 L993 0 L993 268 L443 268 L443 542 L943 542 L943 800 L443 800 L443 1062 L973 1062 L973 1330 L115 1330 L115 0 Z M328 1447 L889 1603 L766 1873 L259 1598 L328 1447 Z " />
<glyph glyph-name="Ecircumflex" unicode="&#xca;" horiz-adv-x="1063" d="M115 0 L993 0 L993 268 L443 268 L443 542 L943 542 L943 800 L443 800 L443 1062 L973 1062 L973 1330 L115 1330 L115 0 Z M930 1615 C829 1683 676 1788 554 1875 C432 1788 279 1683 178 1615 L337 1425 C404 1476 498 1557 554 1610 C610 1557 704 1476 771 1425 L930 1615 Z " />
<glyph glyph-name="Edieresis" unicode="&#xcb;" horiz-adv-x="1063" d="M115 0 L993 0 L993 268 L443 268 L443 542 L943 542 L943 800 L443 800 L443 1062 L973 1062 L973 1330 L115 1330 L115 0 Z M147 1641 C147 1532 217 1472 317 1472 C430 1472 505 1531 505 1659 C505 1768 435 1828 335 1828 C222 1828 147 1768 147 1641 L147 1641 Z M603 1641 C603 1532 673 1472 773 1472 C886 1472 961 1531 961 1659 C961 1768 891 1828 791 1828 C678 1828 603 1768 603 1641 L603 1641 Z " />
<glyph glyph-name="Igrave" unicode="&#xcc;" horiz-adv-x="558" d="M115 0 L443 0 L443 1330 L115 1330 L115 0 Z M564 1598 L57 1873 L-66 1603 L495 1447 L564 1598 Z " />
<glyph glyph-name="Iacute" unicode="&#xcd;" horiz-adv-x="558" d="M115 0 L443 0 L443 1330 L115 1330 L115 0 Z M53 1447 L614 1603 L491 1873 L-16 1598 L53 1447 Z " />
<glyph glyph-name="Icircumflex" unicode="&#xce;" horiz-adv-x="558" d="M115 0 L443 0 L443 1330 L115 1330 L115 0 Z M655 1615 C554 1683 401 1788 279 1875 C157 1788 4 1683 -97 1615 L62 1425 C129 1476 223 1557 279 1610 C335 1557 429 1476 496 1425 L655 1615 Z " />
<glyph glyph-name="Idieresis" unicode="&#xcf;" horiz-adv-x="558" d="M115 0 L443 0 L443 1330 L115 1330 L115 0 Z M308 1641 C308 1532 378 1472 478 1472 C591 1472 666 1531 666 1659 C666 1768 596 1828 496 1828 C383 1828 308 1768 308 1641 L308 1641 Z M-108 1641 C-108 1532 -38 1472 62 1472 C175 1472 250 1531 250 1659 C250 1768 180 1828 80 1828 C-33 1828 -108 1768 -108 1641 L-108 1641 Z " />
<glyph glyph-name="Eth" unicode="&#xd0;" horiz-adv-x="1374" d="M-3 595 L161 595 L161 0 L633 0 C1068 0 1319 251 1319 676 C1319 1079 1056 1330 620 1330 L161 1330 L161 738 L-3 738 L-3 595 Z M489 253 L489 595 L738 595 L738 738 L489 738 L489 1077 L632 1077 C836 1077 966 929 966 661 C966 419 843 253 621 253 L489 253 Z " />
<glyph glyph-name="Ntilde" unicode="&#xd1;" horiz-adv-x="1380" d="M925 0 L1265 0 L1265 1330 L942 1330 L942 520 L455 1330 L115 1330 L115 0 L438 0 L438 809 L925 0 Z M443 1481 C490 1538 512 1568 554 1568 C621 1568 704 1490 790 1490 C952 1490 1042 1612 1073 1719 L918 1829 C869 1772 846 1742 804 1742 C742 1742 658 1820 555 1820 C396 1820 310 1677 288 1590 L443 1481 Z " />
<glyph glyph-name="Ograve" unicode="&#xd2;" horiz-adv-x="1436" d="M723 238 C529 238 408 408 408 676 C408 942 536 1092 713 1092 C907 1092 1028 922 1028 654 C1028 388 900 238 723 238 L723 238 Z M712 -20 C1130 -20 1381 263 1381 669 C1381 1079 1141 1350 724 1350 C306 1350 55 1067 55 661 C55 251 295 -20 712 -20 L712 -20 Z M1023 1598 L516 1873 L393 1603 L954 1447 L1023 1598 Z " />
<glyph glyph-name="Oacute" unicode="&#xd3;" horiz-adv-x="1436" d="M723 238 C529 238 408 408 408 676 C408 942 536 1092 713 1092 C907 1092 1028 922 1028 654 C1028 388 900 238 723 238 L723 238 Z M712 -20 C1130 -20 1381 263 1381 669 C1381 1079 1141 1350 724 1350 C306 1350 55 1067 55 661 C55 251 295 -20 712 -20 L712 -20 Z M472 1447 L1033 1603 L910 1873 L403 1598 L472 1447 Z " />
<glyph glyph-name="Ocircumflex" unicode="&#xd4;" horiz-adv-x="1436" d="M723 238 C529 238 408 408 408 676 C408 942 536 1092 713 1092 C907 1092 1028 922 1028 654 C1028 388 900 238 723 238 L723 238 Z M712 -20 C1130 -20 1381 263 1381 669 C1381 1079 1141 1350 724 1350 C306 1350 55 1067 55 661 C55 251 295 -20 712 -20 L712 -20 Z M1094 1615 C993 1683 840 1788 718 1875 C596 1788 443 1683 342 1615 L501 1425 C568 1476 662 1557 718 1610 C774 1557 868 1476 935 1425 L1094 1615 Z " />
<glyph glyph-name="Otilde" unicode="&#xd5;" horiz-adv-x="1436" d="M723 238 C529 238 408 408 408 676 C408 942 536 1092 713 1092 C907 1092 1028 922 1028 654 C1028 388 900 238 723 238 L723 238 Z M712 -20 C1130 -20 1381 263 1381 669 C1381 1079 1141 1350 724 1350 C306 1350 55 1067 55 661 C55 251 295 -20 712 -20 L712 -20 Z M481 1481 C528 1538 550 1568 592 1568 C659 1568 742 1490 828 1490 C990 1490 1080 1612 1111 1719 L956 1829 C907 1772 884 1742 842 1742 C780 1742 696 1820 593 1820 C434 1820 348 1677 326 1590 L481 1481 Z " />
<glyph glyph-name="Odieresis" unicode="&#xd6;" horiz-adv-x="1436" d="M723 238 C529 238 408 408 408 676 C408 942 536 1092 713 1092 C907 1092 1028 922 1028 654 C1028 388 900 238 723 238 L723 238 Z M712 -20 C1130 -20 1381 263 1381 669 C1381 1079 1141 1350 724 1350 C306 1350 55 1067 55 661 C55 251 295 -20 712 -20 L712 -20 Z M311 1641 C311 1532 381 1472 481 1472 C594 1472 669 1531 669 1659 C669 1768 599 1828 499 1828 C386 1828 311 1768 311 1641 L311 1641 Z M767 1641 C767 1532 837 1472 937 1472 C1050 1472 1125 1531 1125 1659 C1125 1768 1055 1828 955 1828 C842 1828 767 1768 767 1641 L767 1641 Z " />
<glyph glyph-name="multiply" unicode="&#xd7;" horiz-adv-x="1140" d="M116 938 L389 665 L115 391 L297 210 L570 483 L843 211 L1025 393 L752 665 L1025 938 L844 1120 L571 847 L298 1120 L116 938 Z " />
<glyph glyph-name="Oslash" unicode="&#xd8;" horiz-adv-x="1436" d="M280 -161 L407 39 C494 0 596 -20 712 -20 C1130 -20 1381 263 1381 669 C1381 906 1301 1097 1152 1215 L1283 1422 L1156 1491 L1029 1290 C942 1329 840 1350 724 1350 C306 1350 55 1067 55 661 C55 424 135 233 284 114 L153 -92 L280 -161 Z M408 676 C408 942 536 1092 713 1092 C774 1092 827 1075 872 1044 L465 401 C428 473 408 566 408 676 L408 676 Z M723 238 C662 238 608 255 563 286 L970 928 C1007 856 1028 763 1028 654 C1028 388 900 238 723 238 L723 238 Z " />
<glyph glyph-name="Ugrave" unicode="&#xd9;" horiz-adv-x="1290" d="M423 1330 L95 1330 L95 525 C95 173 296 -20 638 -20 C980 -20 1195 182 1195 525 L1195 1330 L867 1330 L867 512 C867 315 785 238 649 238 C513 238 423 315 423 535 L423 1330 Z M945 1598 L438 1873 L315 1603 L876 1447 L945 1598 Z " />
<glyph glyph-name="Uacute" unicode="&#xda;" horiz-adv-x="1290" d="M423 1330 L95 1330 L95 525 C95 173 296 -20 638 -20 C980 -20 1195 182 1195 525 L1195 1330 L867 1330 L867 512 C867 315 785 238 649 238 C513 238 423 315 423 535 L423 1330 Z M404 1447 L965 1603 L842 1873 L335 1598 L404 1447 Z " />
<glyph glyph-name="Ucircumflex" unicode="&#xdb;" horiz-adv-x="1290" d="M423 1330 L95 1330 L95 525 C95 173 296 -20 638 -20 C980 -20 1195 182 1195 525 L1195 1330 L867 1330 L867 512 C867 315 785 238 649 238 C513 238 423 315 423 535 L423 1330 Z M1026 1615 C925 1683 772 1788 650 1875 C528 1788 375 1683 274 1615 L433 1425 C500 1476 594 1557 650 1610 C706 1557 800 1476 867 1425 L1026 1615 Z " />
<glyph glyph-name="Udieresis" unicode="&#xdc;" horiz-adv-x="1290" d="M423 1330 L95 1330 L95 525 C95 173 296 -20 638 -20 C980 -20 1195 182 1195 525 L1195 1330 L867 1330 L867 512 C867 315 785 238 649 238 C513 238 423 315 423 535 L423 1330 Z M243 1641 C243 1532 313 1472 413 1472 C526 1472 601 1531 601 1659 C601 1768 531 1828 431 1828 C318 1828 243 1768 243 1641 L243 1641 Z M699 1641 C699 1532 769 1472 869 1472 C982 1472 1057 1531 1057 1659 C1057 1768 987 1828 887 1828 C774 1828 699 1768 699 1641 L699 1641 Z " />
<glyph glyph-name="Yacute" unicode="&#xdd;" horiz-adv-x="1222" d="M447 0 L775 0 L775 494 L1222 1330 L866 1330 L611 803 L356 1330 L0 1330 L447 494 L447 0 Z M375 1447 L936 1603 L813 1873 L306 1598 L375 1447 Z " />
<glyph glyph-name="Thorn" unicode="&#xde;" horiz-adv-x="1134" d="M115 0 L443 0 L443 224 L589 224 C871 224 1089 380 1089 684 C1089 974 907 1108 569 1108 L443 1108 L443 1330 L115 1330 L115 0 Z M579 856 C685 856 746 791 746 671 C746 552 689 477 559 477 L443 477 L443 856 L579 856 Z " />
<glyph glyph-name="germandbls" unicode="&#xdf;" horiz-adv-x="1248" d="M443 1027 C443 1150 517 1227 627 1227 C737 1227 799 1173 799 1107 C799 1035 736 985 679 923 C619 858 566 791 566 689 C566 559 639 503 744 431 C834 369 911 328 911 283 C911 241 874 228 802 228 C725 228 630 256 575 281 L532 45 C587 13 683 -20 833 -20 C1086 -20 1238 96 1238 285 C1238 423 1145 494 1037 570 C947 633 873 677 873 722 C873 763 903 794 961 849 C1036 922 1127 1002 1127 1131 C1127 1313 964 1480 645 1480 C280 1480 115 1281 115 1043 L115 0 L443 0 L443 1027 Z " />
<glyph glyph-name="agrave" unicode="&#xe0;" horiz-adv-x="961" d="M836 705 C836 924 692 1044 430 1044 C291 1044 137 990 62 949 L120 719 C180 747 287 781 387 781 C488 781 528 742 528 654 L528 562 C219 597 20 497 20 270 C20 96 154 -20 355 -20 C438 -20 526 13 598 72 C638 2 712 -20 789 -20 C860 -20 921 -6 971 15 L946 239 C928 234 907 228 881 228 C853 228 836 244 836 284 L836 705 Z M324 301 C324 378 396 415 528 392 L528 239 C495 222 456 210 420 210 C362 210 324 242 324 301 L324 301 Z M785 1298 L278 1573 L155 1303 L716 1147 L785 1298 Z " />
<glyph glyph-name="aacute" unicode="&#xe1;" horiz-adv-x="961" d="M836 705 C836 924 692 1044 430 1044 C291 1044 137 990 62 949 L120 719 C180 747 287 781 387 781 C488 781 528 742 528 654 L528 562 C219 597 20 497 20 270 C20 96 154 -20 355 -20 C438 -20 526 13 598 72 C638 2 712 -20 789 -20 C860 -20 921 -6 971 15 L946 239 C928 234 907 228 881 228 C853 228 836 244 836 284 L836 705 Z M324 301 C324 378 396 415 528 392 L528 239 C495 222 456 210 420 210 C362 210 324 242 324 301 L324 301 Z M206 1147 L767 1303 L644 1573 L137 1298 L206 1147 Z " />
<glyph glyph-name="acircumflex" unicode="&#xe2;" horiz-adv-x="961" d="M836 705 C836 924 692 1044 430 1044 C291 1044 137 990 62 949 L120 719 C180 747 287 781 387 781 C488 781 528 742 528 654 L528 562 C219 597 20 497 20 270 C20 96 154 -20 355 -20 C438 -20 526 13 598 72 C638 2 712 -20 789 -20 C860 -20 921 -6 971 15 L946 239 C928 234 907 228 881 228 C853 228 836 244 836 284 L836 705 Z M324 301 C324 378 396 415 528 392 L528 239 C495 222 456 210 420 210 C362 210 324 242 324 301 L324 301 Z M829 1315 C728 1383 575 1488 453 1575 C331 1488 178 1383 77 1315 L236 1125 C303 1176 397 1257 453 1310 C509 1257 603 1176 670 1125 L829 1315 Z " />
<glyph glyph-name="atilde" unicode="&#xe3;" horiz-adv-x="961" d="M836 705 C836 924 692 1044 430 1044 C291 1044 137 990 62 949 L120 719 C180 747 287 781 387 781 C488 781 528 742 528 654 L528 562 C219 597 20 497 20 270 C20 96 154 -20 355 -20 C438 -20 526 13 598 72 C638 2 712 -20 789 -20 C860 -20 921 -6 971 15 L946 239 C928 234 907 228 881 228 C853 228 836 244 836 284 L836 705 Z M324 301 C324 378 396 415 528 392 L528 239 C495 222 456 210 420 210 C362 210 324 242 324 301 L324 301 Z M195 1181 C242 1238 264 1268 306 1268 C373 1268 456 1190 542 1190 C704 1190 794 1312 825 1419 L670 1529 C621 1472 598 1442 556 1442 C494 1442 410 1520 307 1520 C148 1520 62 1377 40 1290 L195 1181 Z " />
<glyph glyph-name="adieresis" unicode="&#xe4;" horiz-adv-x="961" d="M836 705 C836 924 692 1044 430 1044 C291 1044 137 990 62 949 L120 719 C180 747 287 781 387 781 C488 781 528 742 528 654 L528 562 C219 597 20 497 20 270 C20 96 154 -20 355 -20 C438 -20 526 13 598 72 C638 2 712 -20 789 -20 C860 -20 921 -6 971 15 L946 239 C928 234 907 228 881 228 C853 228 836 244 836 284 L836 705 Z M324 301 C324 378 396 415 528 392 L528 239 C495 222 456 210 420 210 C362 210 324 242 324 301 L324 301 Z M73 1341 C73 1232 143 1172 243 1172 C356 1172 431 1231 431 1359 C431 1468 361 1528 261 1528 C148 1528 73 1468 73 1341 L73 1341 Z M529 1341 C529 1232 599 1172 699 1172 C812 1172 887 1231 887 1359 C887 1468 817 1528 717 1528 C604 1528 529 1468 529 1341 L529 1341 Z " />
<glyph glyph-name="aring" unicode="&#xe5;" horiz-adv-x="961" d="M836 705 C836 924 692 1044 430 1044 C291 1044 137 990 62 949 L120 719 C180 747 287 781 387 781 C488 781 528 742 528 654 L528 562 C219 597 20 497 20 270 C20 96 154 -20 355 -20 C438 -20 526 13 598 72 C638 2 712 -20 789 -20 C860 -20 921 -6 971 15 L946 239 C928 234 907 228 881 228 C853 228 836 244 836 284 L836 705 Z M324 301 C324 378 396 415 528 392 L528 239 C495 222 456 210 420 210 C362 210 324 242 324 301 L324 301 Z M189 1339 C189 1191 291 1112 439 1112 C601 1112 711 1190 711 1361 C711 1509 609 1588 461 1588 C299 1588 189 1509 189 1339 L189 1339 Z M384 1347 C384 1394 411 1416 453 1416 C491 1416 516 1394 516 1353 C516 1306 489 1284 447 1284 C409 1284 384 1306 384 1347 L384 1347 Z " />
<glyph glyph-name="ae" unicode="&#xe6;" horiz-adv-x="1473" d="M1407 453 C1425 501 1438 566 1438 659 C1438 883 1292 1044 1030 1044 C911 1044 809 1007 729 942 C660 1008 557 1044 425 1044 C286 1044 132 990 57 949 L115 719 C175 747 282 781 382 781 C487 781 528 742 528 654 L528 580 C246 582 25 496 25 285 C25 89 159 -20 350 -20 C473 -20 600 39 695 115 C780 29 899 -20 1030 -20 C1224 -20 1350 35 1413 67 L1344 299 C1284 276 1195 243 1071 243 C940 243 861 302 846 436 L1407 453 Z M849 601 C858 740 912 806 1005 806 C1100 806 1144 725 1124 610 L849 601 Z M329 311 C329 387 393 430 528 426 L528 239 C493 222 453 210 415 210 C367 210 329 242 329 311 L329 311 Z " />
<glyph glyph-name="ccedilla" unicode="&#xe7;" horiz-adv-x="873" d="M373 518 C373 685 449 781 600 781 C692 781 785 742 804 734 L864 971 C816 999 705 1044 559 1044 C228 1044 35 826 35 502 C35 192 223 -20 539 -20 C699 -20 816 22 878 58 L809 290 C788 280 692 243 590 243 C440 243 373 339 373 518 L373 518 Z M282 -561 C303 -571 354 -581 415 -581 C585 -581 729 -521 729 -336 C729 -177 608 -106 462 -106 L335 -106 L324 -273 L377 -273 C441 -273 482 -289 482 -342 C482 -394 440 -417 375 -417 C341 -417 319 -412 301 -407 L282 -561 Z " />
<glyph glyph-name="egrave" unicode="&#xe8;" horiz-adv-x="997" d="M363 618 C375 747 428 806 524 806 C623 806 669 727 648 618 L363 618 Z M931 445 C949 493 962 566 962 659 C962 883 814 1044 549 1044 C229 1044 35 826 35 502 C35 192 227 -20 549 -20 C746 -20 873 35 937 67 L868 299 C807 276 716 243 590 243 C456 243 373 303 360 445 L931 445 Z M830 1298 L323 1573 L200 1303 L761 1147 L830 1298 Z " />
<glyph glyph-name="eacute" unicode="&#xe9;" horiz-adv-x="997" d="M363 618 C375 747 428 806 524 806 C623 806 669 727 648 618 L363 618 Z M931 445 C949 493 962 566 962 659 C962 883 814 1044 549 1044 C229 1044 35 826 35 502 C35 192 227 -20 549 -20 C746 -20 873 35 937 67 L868 299 C807 276 716 243 590 243 C456 243 373 303 360 445 L931 445 Z M279 1147 L840 1303 L717 1573 L210 1298 L279 1147 Z " />
<glyph glyph-name="ecircumflex" unicode="&#xea;" horiz-adv-x="997" d="M363 618 C375 747 428 806 524 806 C623 806 669 727 648 618 L363 618 Z M931 445 C949 493 962 566 962 659 C962 883 814 1044 549 1044 C229 1044 35 826 35 502 C35 192 227 -20 549 -20 C746 -20 873 35 937 67 L868 299 C807 276 716 243 590 243 C456 243 373 303 360 445 L931 445 Z M891 1315 C790 1383 637 1488 515 1575 C393 1488 240 1383 139 1315 L298 1125 C365 1176 459 1257 515 1310 C571 1257 665 1176 732 1125 L891 1315 Z " />
<glyph glyph-name="edieresis" unicode="&#xeb;" horiz-adv-x="997" d="M363 618 C375 747 428 806 524 806 C623 806 669 727 648 618 L363 618 Z M931 445 C949 493 962 566 962 659 C962 883 814 1044 549 1044 C229 1044 35 826 35 502 C35 192 227 -20 549 -20 C746 -20 873 35 937 67 L868 299 C807 276 716 243 590 243 C456 243 373 303 360 445 L931 445 Z M108 1341 C108 1232 178 1172 278 1172 C391 1172 466 1231 466 1359 C466 1468 396 1528 296 1528 C183 1528 108 1468 108 1341 L108 1341 Z M564 1341 C564 1232 634 1172 734 1172 C847 1172 922 1231 922 1359 C922 1468 852 1528 752 1528 C639 1528 564 1468 564 1341 L564 1341 Z " />
<glyph glyph-name="igrave" unicode="&#xec;" horiz-adv-x="558" d="M115 1024 L115 0 L443 0 L443 1024 L115 1024 Z M574 1298 L67 1573 L-56 1303 L505 1147 L574 1298 Z " />
<glyph glyph-name="iacute" unicode="&#xed;" horiz-adv-x="558" d="M115 1024 L115 0 L443 0 L443 1024 L115 1024 Z M83 1147 L644 1303 L521 1573 L14 1298 L83 1147 Z " />
<glyph glyph-name="icircumflex" unicode="&#xee;" horiz-adv-x="558" d="M115 1024 L115 0 L443 0 L443 1024 L115 1024 Z M655 1315 C554 1383 401 1488 279 1575 C157 1488 4 1383 -97 1315 L62 1125 C129 1176 223 1257 279 1310 C335 1257 429 1176 496 1125 L655 1315 Z " />
<glyph glyph-name="idieresis" unicode="&#xef;" horiz-adv-x="558" d="M115 1024 L115 0 L443 0 L443 1024 L115 1024 Z M308 1341 C308 1232 378 1172 478 1172 C591 1172 666 1231 666 1359 C666 1468 596 1528 496 1528 C383 1528 308 1468 308 1341 L308 1341 Z M-108 1341 C-108 1232 -38 1172 62 1172 C175 1172 250 1231 250 1359 C250 1468 180 1528 80 1528 C-33 1528 -108 1468 -108 1341 L-108 1341 Z " />
<glyph glyph-name="eth" unicode="&#xf0;" horiz-adv-x="1136" d="M694 1596 L626 1468 C588 1476 547 1480 504 1480 C357 1480 220 1429 180 1410 L240 1188 C269 1200 368 1238 473 1238 C483 1238 493 1237 502 1236 L449 1136 L573 1073 L633 1185 C692 1137 732 1058 754 950 C704 1007 635 1044 542 1044 C227 1044 35 826 35 503 C35 192 223 -20 549 -20 C883 -20 1076 198 1076 591 C1076 941 1010 1286 759 1421 L819 1532 L694 1596 Z M738 506 C738 329 698 218 560 218 C420 218 373 339 373 518 C373 685 419 806 551 806 C665 806 718 716 738 599 L738 506 Z " />
<glyph glyph-name="ntilde" unicode="&#xf1;" horiz-adv-x="1166" d="M115 1024 L115 0 L443 0 L443 720 C480 750 555 776 607 776 C701 776 738 731 738 623 L738 0 L1066 0 L1066 674 C1066 930 944 1044 707 1044 C559 1044 453 963 412 923 L379 1024 L115 1024 Z M334 1181 C381 1238 403 1268 445 1268 C512 1268 595 1190 681 1190 C843 1190 933 1312 964 1419 L809 1529 C760 1472 737 1442 695 1442 C633 1442 549 1520 446 1520 C287 1520 201 1377 179 1290 L334 1181 Z " />
<glyph glyph-name="ograve" unicode="&#xf2;" horiz-adv-x="1111" d="M549 -20 C883 -20 1076 198 1076 521 C1076 832 888 1044 562 1044 C228 1044 35 826 35 503 C35 192 223 -20 549 -20 L549 -20 Z M560 218 C420 218 373 339 373 518 C373 685 419 806 551 806 C691 806 738 685 738 506 C738 339 692 218 560 218 L560 218 Z M860 1298 L353 1573 L230 1303 L791 1147 L860 1298 Z " />
<glyph glyph-name="oacute" unicode="&#xf3;" horiz-adv-x="1111" d="M549 -20 C883 -20 1076 198 1076 521 C1076 832 888 1044 562 1044 C228 1044 35 826 35 503 C35 192 223 -20 549 -20 L549 -20 Z M560 218 C420 218 373 339 373 518 C373 685 419 806 551 806 C691 806 738 685 738 506 C738 339 692 218 560 218 L560 218 Z M309 1147 L870 1303 L747 1573 L240 1298 L309 1147 Z " />
<glyph glyph-name="ocircumflex" unicode="&#xf4;" horiz-adv-x="1111" d="M549 -20 C883 -20 1076 198 1076 521 C1076 832 888 1044 562 1044 C228 1044 35 826 35 503 C35 192 223 -20 549 -20 L549 -20 Z M560 218 C420 218 373 339 373 518 C373 685 419 806 551 806 C691 806 738 685 738 506 C738 339 692 218 560 218 L560 218 Z M931 1315 C830 1383 677 1488 555 1575 C433 1488 280 1383 179 1315 L338 1125 C405 1176 499 1257 555 1310 C611 1257 705 1176 772 1125 L931 1315 Z " />
<glyph glyph-name="otilde" unicode="&#xf5;" horiz-adv-x="1111" d="M549 -20 C883 -20 1076 198 1076 521 C1076 832 888 1044 562 1044 C228 1044 35 826 35 503 C35 192 223 -20 549 -20 L549 -20 Z M560 218 C420 218 373 339 373 518 C373 685 419 806 551 806 C691 806 738 685 738 506 C738 339 692 218 560 218 L560 218 Z M318 1181 C365 1238 387 1268 429 1268 C496 1268 579 1190 665 1190 C827 1190 917 1312 948 1419 L793 1529 C744 1472 721 1442 679 1442 C617 1442 533 1520 430 1520 C271 1520 185 1377 163 1290 L318 1181 Z " />
<glyph glyph-name="odieresis" unicode="&#xf6;" horiz-adv-x="1111" d="M549 -20 C883 -20 1076 198 1076 521 C1076 832 888 1044 562 1044 C228 1044 35 826 35 503 C35 192 223 -20 549 -20 L549 -20 Z M560 218 C420 218 373 339 373 518 C373 685 419 806 551 806 C691 806 738 685 738 506 C738 339 692 218 560 218 L560 218 Z M148 1341 C148 1232 218 1172 318 1172 C431 1172 506 1231 506 1359 C506 1468 436 1528 336 1528 C223 1528 148 1468 148 1341 L148 1341 Z M604 1341 C604 1232 674 1172 774 1172 C887 1172 962 1231 962 1359 C962 1468 892 1528 792 1528 C679 1528 604 1468 604 1341 L604 1341 Z " />
<glyph glyph-name="divide" unicode="&#xf7;" horiz-adv-x="1151" d="M130 546 L1021 546 L1021 783 L130 783 L130 546 Z M396 1023 C396 914 466 854 566 854 C679 854 754 913 754 1041 C754 1150 684 1210 584 1210 C471 1210 396 1150 396 1023 L396 1023 Z M396 286 C396 177 466 117 566 117 C679 117 754 176 754 304 C754 413 684 473 584 473 C471 473 396 413 396 286 L396 286 Z " />
<glyph glyph-name="oslash" unicode="&#xf8;" horiz-adv-x="1111" d="M549 -20 C883 -20 1076 198 1076 521 C1076 698 1014 844 901 936 L1025 1131 L910 1192 L789 1002 C724 1029 647 1044 562 1044 C228 1044 35 826 35 503 C35 326 96 181 209 89 L85 -106 L200 -167 L320 22 C386 -5 463 -20 549 -20 L549 -20 Z M560 218 C520 218 488 227 462 245 L722 655 C733 612 738 562 738 506 C738 339 692 218 560 218 L560 218 Z M373 518 C373 685 419 806 551 806 C590 806 622 796 647 779 L388 370 C377 413 373 462 373 518 L373 518 Z " />
<glyph glyph-name="ugrave" unicode="&#xf9;" horiz-adv-x="1156" d="M1041 0 L1041 1024 L713 1024 L713 304 C672 274 604 248 554 248 C464 248 428 293 428 401 L428 1024 L100 1024 L100 350 C100 94 220 -20 454 -20 C599 -20 705 57 744 101 L777 0 L1041 0 Z M865 1298 L358 1573 L235 1303 L796 1147 L865 1298 Z " />
<glyph glyph-name="uacute" unicode="&#xfa;" horiz-adv-x="1156" d="M1041 0 L1041 1024 L713 1024 L713 304 C672 274 604 248 554 248 C464 248 428 293 428 401 L428 1024 L100 1024 L100 350 C100 94 220 -20 454 -20 C599 -20 705 57 744 101 L777 0 L1041 0 Z M324 1147 L885 1303 L762 1573 L255 1298 L324 1147 Z " />
<glyph glyph-name="ucircumflex" unicode="&#xfb;" horiz-adv-x="1156" d="M1041 0 L1041 1024 L713 1024 L713 304 C672 274 604 248 554 248 C464 248 428 293 428 401 L428 1024 L100 1024 L100 350 C100 94 220 -20 454 -20 C599 -20 705 57 744 101 L777 0 L1041 0 Z M946 1315 C845 1383 692 1488 570 1575 C448 1488 295 1383 194 1315 L353 1125 C420 1176 514 1257 570 1310 C626 1257 720 1176 787 1125 L946 1315 Z " />
<glyph glyph-name="udieresis" unicode="&#xfc;" horiz-adv-x="1156" d="M1041 0 L1041 1024 L713 1024 L713 304 C672 274 604 248 554 248 C464 248 428 293 428 401 L428 1024 L100 1024 L100 350 C100 94 220 -20 454 -20 C599 -20 705 57 744 101 L777 0 L1041 0 Z M163 1341 C163 1232 233 1172 333 1172 C446 1172 521 1231 521 1359 C521 1468 451 1528 351 1528 C238 1528 163 1468 163 1341 L163 1341 Z M619 1341 C619 1232 689 1172 789 1172 C902 1172 977 1231 977 1359 C977 1468 907 1528 807 1528 C694 1528 619 1468 619 1341 L619 1341 Z " />
<glyph glyph-name="yacute" unicode="&#xfd;" horiz-adv-x="1114" d="M746 1024 L578 324 L568 324 L363 1024 L0 1024 L361 60 L410 -33 C393 -123 327 -163 246 -163 C157 -163 94 -141 71 -133 L23 -367 C69 -387 167 -416 268 -416 C527 -416 689 -300 777 -20 L1104 1024 L746 1024 Z M321 1147 L882 1303 L759 1573 L252 1298 L321 1147 Z " />
<glyph glyph-name="thorn" unicode="&#xfe;" horiz-adv-x="1130" d="M443 -396 L443 21 C486 -1 542 -20 610 -20 C908 -20 1095 198 1095 521 C1095 832 945 1044 684 1044 C567 1044 469 982 443 955 L443 1480 L115 1459 L115 -396 L443 -396 Z M757 506 C757 345 696 228 570 228 C509 228 466 248 443 263 L443 741 C468 763 528 786 575 786 C698 786 757 673 757 506 L757 506 Z " />
<glyph glyph-name="ydieresis" unicode="&#xff;" horiz-adv-x="1114" d="M746 1024 L578 324 L568 324 L363 1024 L0 1024 L361 60 L410 -33 C393 -123 327 -163 246 -163 C157 -163 94 -141 71 -133 L23 -367 C69 -387 167 -416 268 -416 C527 -416 689 -300 777 -20 L1104 1024 L746 1024 Z M140 1341 C140 1232 210 1172 310 1172 C423 1172 498 1231 498 1359 C498 1468 428 1528 328 1528 C215 1528 140 1468 140 1341 L140 1341 Z M596 1341 C596 1232 666 1172 766 1172 C879 1172 954 1231 954 1359 C954 1468 884 1528 784 1528 C671 1528 596 1468 596 1341 L596 1341 Z " />
<glyph glyph-name="Amacron" unicode="&#x100;" horiz-adv-x="1341" d="M1341 0 L821 1330 L519 1330 L0 0 L350 0 L452 294 L889 294 L991 0 L1341 0 Z M339 1538 L1001 1538 L1001 1775 L339 1775 L339 1538 Z M665 908 L675 908 L802 542 L538 542 L665 908 Z " />
<glyph glyph-name="amacron" unicode="&#x101;" horiz-adv-x="961" d="M836 705 C836 924 692 1044 430 1044 C291 1044 137 990 62 949 L120 719 C180 747 287 781 387 781 C488 781 528 742 528 654 L528 562 C219 597 20 497 20 270 C20 96 154 -20 355 -20 C438 -20 526 13 598 72 C638 2 712 -20 789 -20 C860 -20 921 -6 971 15 L946 239 C928 234 907 228 881 228 C853 228 836 244 836 284 L836 705 Z M324 301 C324 378 396 415 528 392 L528 239 C495 222 456 210 420 210 C362 210 324 242 324 301 L324 301 Z M129 1232 L791 1232 L791 1469 L129 1469 L129 1232 Z " />
<glyph glyph-name="Abreve" unicode="&#x102;" horiz-adv-x="1341" d="M1341 0 L821 1330 L519 1330 L0 0 L350 0 L447 279 L894 279 L991 0 L1341 0 Z M368 1821 C328 1532 521 1452 670 1452 C819 1452 1012 1532 972 1821 L749 1821 C760 1736 742 1662 670 1662 C598 1662 580 1736 591 1821 L368 1821 Z M665 908 L675 908 L807 527 L533 527 L665 908 Z " />
<glyph glyph-name="abreve" unicode="&#x103;" horiz-adv-x="961" d="M836 705 C836 924 692 1044 430 1044 C291 1044 137 990 62 949 L120 719 C180 747 287 781 387 781 C488 781 528 742 528 654 L528 562 C219 597 20 497 20 270 C20 96 154 -20 355 -20 C438 -20 526 13 598 72 C638 2 712 -20 789 -20 C860 -20 921 -6 971 15 L946 239 C928 234 907 228 881 228 C853 228 836 244 836 284 L836 705 Z M324 301 C324 378 396 415 528 392 L528 239 C495 222 456 210 420 210 C362 210 324 242 324 301 L324 301 Z M148 1515 C108 1226 301 1146 450 1146 C599 1146 792 1226 752 1515 L529 1515 C540 1430 522 1356 450 1356 C378 1356 360 1430 371 1515 L148 1515 Z " />
<glyph glyph-name="Aogonek" unicode="&#x104;" horiz-adv-x="1341" d="M1341 0 L821 1330 L519 1330 L0 0 L350 0 L447 279 L894 279 L991 0 C938 -43 853 -136 853 -237 C853 -443 1012 -502 1164 -502 C1263 -502 1359 -466 1392 -440 L1342 -233 C1311 -248 1265 -267 1213 -267 C1159 -267 1119 -239 1119 -172 C1119 -110 1163 -45 1215 0 L1341 0 Z M665 908 L675 908 L807 527 L533 527 L665 908 Z " />
<glyph glyph-name="aogonek" unicode="&#x105;" horiz-adv-x="961" d="M836 705 C836 924 692 1044 430 1044 C291 1044 137 990 62 949 L120 719 C180 747 287 781 387 781 C488 781 528 742 528 654 L528 562 C219 597 20 497 20 270 C20 96 154 -20 355 -20 C438 -20 526 13 598 72 C621 31 656 6 697 -7 C644 -52 567 -141 567 -237 C567 -443 726 -502 878 -502 C977 -502 1073 -466 1106 -440 L1056 -233 C1025 -248 979 -267 927 -267 C873 -267 833 -239 833 -172 C833 -110 876 -45 928 0 C943 4 957 9 971 15 L946 239 C928 234 907 228 881 228 C853 228 836 244 836 284 L836 705 Z M324 301 C324 378 396 415 528 392 L528 239 C495 222 456 210 420 210 C362 210 324 242 324 301 L324 301 Z " />
<glyph glyph-name="Cacute" unicode="&#x106;" horiz-adv-x="1156" d="M1037 315 C946 273 840 253 743 253 C540 253 408 419 408 676 C408 929 535 1077 763 1077 C851 1077 936 1060 1024 1025 L1093 1272 C1015 1318 875 1350 752 1350 C327 1350 55 1078 55 661 C55 234 315 -20 752 -20 C882 -20 1026 19 1116 73 L1037 315 Z M444 1447 L1005 1603 L882 1873 L375 1598 L444 1447 Z " />
<glyph glyph-name="cacute" unicode="&#x107;" horiz-adv-x="873" d="M373 518 C373 685 449 781 600 781 C692 781 785 742 804 734 L864 971 C816 999 705 1044 559 1044 C228 1044 35 826 35 502 C35 192 223 -20 539 -20 C699 -20 816 22 878 58 L809 290 C788 280 692 243 590 243 C440 243 373 339 373 518 L373 518 Z M274 1147 L835 1303 L712 1573 L205 1298 L274 1147 Z " />
<glyph glyph-name="Ccircumflex" unicode="&#x108;" horiz-adv-x="1156" d="M1037 315 C946 273 840 253 743 253 C540 253 408 419 408 676 C408 929 535 1077 763 1077 C851 1077 936 1060 1024 1025 L1093 1272 C1015 1318 875 1350 752 1350 C327 1350 55 1078 55 661 C55 234 315 -20 752 -20 C882 -20 1026 19 1116 73 L1037 315 Z M1086 1615 C985 1683 832 1788 710 1875 C588 1788 435 1683 334 1615 L493 1425 C560 1476 654 1557 710 1610 C766 1557 860 1476 927 1425 L1086 1615 Z " />
<glyph glyph-name="ccircumflex" unicode="&#x109;" horiz-adv-x="873" d="M373 518 C373 685 449 781 600 781 C692 781 785 742 804 734 L864 971 C816 999 705 1044 559 1044 C228 1044 35 826 35 502 C35 192 223 -20 539 -20 C699 -20 816 22 878 58 L809 290 C788 280 692 243 590 243 C440 243 373 339 373 518 L373 518 Z M906 1315 C805 1383 652 1488 530 1575 C408 1488 255 1383 154 1315 L313 1125 C380 1176 474 1257 530 1310 C586 1257 680 1176 747 1125 L906 1315 Z " />
<glyph glyph-name="Cdotaccent" unicode="&#x10a;" horiz-adv-x="1156" d="M1037 315 C946 273 840 253 743 253 C540 253 408 419 408 676 C408 929 535 1077 763 1077 C851 1077 936 1060 1024 1025 L1093 1272 C1015 1318 875 1350 752 1350 C327 1350 55 1078 55 661 C55 234 315 -20 752 -20 C882 -20 1026 19 1116 73 L1037 315 Z M541 1641 C541 1532 611 1472 711 1472 C824 1472 899 1531 899 1659 C899 1768 829 1828 729 1828 C616 1828 541 1768 541 1641 L541 1641 Z " />
<glyph glyph-name="cdotaccent" unicode="&#x10b;" horiz-adv-x="873" d="M373 518 C373 685 449 781 600 781 C692 781 785 742 804 734 L864 971 C816 999 705 1044 559 1044 C228 1044 35 826 35 502 C35 192 223 -20 539 -20 C699 -20 816 22 878 58 L809 290 C788 280 692 243 590 243 C440 243 373 339 373 518 L373 518 Z M361 1341 C361 1232 431 1172 531 1172 C644 1172 719 1231 719 1359 C719 1468 649 1528 549 1528 C436 1528 361 1468 361 1341 L361 1341 Z " />
<glyph glyph-name="Ccaron" unicode="&#x10c;" horiz-adv-x="1156" d="M1037 315 C946 273 840 253 743 253 C540 253 408 419 408 676 C408 929 535 1077 763 1077 C851 1077 936 1060 1024 1025 L1093 1272 C1015 1318 875 1350 752 1350 C327 1350 55 1078 55 661 C55 234 315 -20 752 -20 C882 -20 1026 19 1116 73 L1037 315 Z M342 1695 C468 1620 633 1504 720 1408 C807 1504 972 1620 1098 1695 L955 1893 C873 1842 773 1751 720 1688 C667 1751 567 1842 485 1893 L342 1695 Z " />
<glyph glyph-name="ccaron" unicode="&#x10d;" horiz-adv-x="873" d="M373 518 C373 685 449 781 600 781 C692 781 785 742 804 734 L864 971 C816 999 705 1044 559 1044 C228 1044 35 826 35 502 C35 192 223 -20 539 -20 C699 -20 816 22 878 58 L809 290 C788 280 692 243 590 243 C440 243 373 339 373 518 L373 518 Z M152 1395 C278 1320 443 1204 530 1108 C617 1204 782 1320 908 1395 L765 1593 C683 1542 583 1451 530 1388 C477 1451 377 1542 295 1593 L152 1395 Z " />
<glyph glyph-name="Dcaron" unicode="&#x10e;" horiz-adv-x="1328" d="M587 0 C1022 0 1273 251 1273 676 C1273 1079 1010 1330 574 1330 L115 1330 L115 0 L587 0 Z M443 253 L443 1077 L586 1077 C790 1077 920 929 920 661 C920 419 797 253 575 253 L443 253 Z M224 1695 C350 1620 515 1504 602 1408 C689 1504 854 1620 980 1695 L837 1893 C755 1842 655 1751 602 1688 C549 1751 449 1842 367 1893 L224 1695 Z " />
<glyph glyph-name="dcaron" unicode="&#x10f;" horiz-adv-x="1380" d="M692 1459 L692 1003 C649 1025 593 1044 525 1044 C224 1044 35 826 35 503 C35 192 187 -20 451 -20 C568 -20 666 42 692 69 L724 98 L756 0 L1020 0 L1020 1480 L692 1459 Z M692 283 C667 261 607 238 560 238 C433 238 373 351 373 518 C373 679 436 796 565 796 C625 796 669 776 692 760 L692 283 Z M1180 1299 C1180 1209 1132 1155 1099 1127 L1224 1023 C1301 1065 1420 1175 1420 1322 C1420 1444 1357 1516 1313 1552 L1096 1483 C1133 1449 1180 1392 1180 1299 L1180 1299 Z " />
<glyph glyph-name="Dcroat" unicode="&#x110;" horiz-adv-x="1373" d="M-3 595 L160 595 L160 0 L632 0 C1067 0 1318 251 1318 676 C1318 1079 1055 1330 619 1330 L160 1330 L160 738 L-3 738 L-3 595 Z M488 253 L488 595 L738 595 L738 738 L488 738 L488 1077 L631 1077 C835 1077 965 929 965 661 C965 419 842 253 620 253 L488 253 Z " />
<glyph glyph-name="dcroat" unicode="&#x111;" horiz-adv-x="1135" d="M692 1459 L692 1306 L442 1306 L442 1183 L692 1183 L692 1003 C649 1025 593 1044 525 1044 C224 1044 35 826 35 503 C35 192 187 -20 451 -20 C568 -20 666 42 692 69 L724 98 L756 0 L1020 0 L1020 1183 L1150 1183 L1150 1306 L1020 1306 L1020 1480 L692 1459 Z M692 283 C667 261 607 238 560 238 C433 238 373 351 373 518 C373 679 436 796 565 796 C625 796 669 776 692 760 L692 283 Z " />
<glyph glyph-name="Emacron" unicode="&#x112;" horiz-adv-x="1063" d="M115 0 L993 0 L993 268 L443 268 L443 542 L943 542 L943 800 L443 800 L443 1062 L973 1062 L973 1330 L115 1330 L115 0 Z M200 1538 L862 1538 L862 1775 L200 1775 L200 1538 Z " />
<glyph glyph-name="emacron" unicode="&#x113;" horiz-adv-x="997" d="M363 618 C375 747 428 806 524 806 C623 806 669 727 648 618 L363 618 Z M931 445 C949 493 962 566 962 659 C962 883 814 1044 549 1044 C229 1044 35 826 35 502 C35 192 227 -20 549 -20 C746 -20 873 35 937 67 L868 299 C807 276 716 243 590 243 C456 243 373 303 360 445 L931 445 Z M187 1232 L849 1232 L849 1469 L187 1469 L187 1232 Z " />
<glyph glyph-name="Ebreve" unicode="&#x114;" horiz-adv-x="1063" d="M115 0 L993 0 L993 268 L443 268 L443 542 L943 542 L943 800 L443 800 L443 1062 L973 1062 L973 1330 L115 1330 L115 0 Z M269 1821 C229 1532 422 1452 571 1452 C720 1452 913 1532 873 1821 L650 1821 C661 1736 643 1662 571 1662 C499 1662 481 1736 492 1821 L269 1821 Z " />
<glyph glyph-name="ebreve" unicode="&#x115;" horiz-adv-x="997" d="M363 618 C375 747 428 806 524 806 C623 806 669 727 648 618 L363 618 Z M931 445 C949 493 962 566 962 659 C962 883 814 1044 549 1044 C229 1044 35 826 35 502 C35 192 227 -20 549 -20 C746 -20 873 35 937 67 L868 299 C807 276 716 243 590 243 C456 243 373 303 360 445 L931 445 Z M226 1515 C186 1226 379 1146 528 1146 C677 1146 870 1226 830 1515 L607 1515 C618 1430 600 1356 528 1356 C456 1356 438 1430 449 1515 L226 1515 Z " />
<glyph glyph-name="Edotaccent" unicode="&#x116;" horiz-adv-x="1063" d="M115 0 L993 0 L993 268 L443 268 L443 542 L943 542 L943 800 L443 800 L443 1062 L973 1062 L973 1330 L115 1330 L115 0 Z M385 1641 C385 1532 455 1472 555 1472 C668 1472 743 1531 743 1659 C743 1768 673 1828 573 1828 C460 1828 385 1768 385 1641 L385 1641 Z " />
<glyph glyph-name="edotaccent" unicode="&#x117;" horiz-adv-x="997" d="M363 618 C375 747 428 806 524 806 C623 806 669 727 648 618 L363 618 Z M931 445 C949 493 962 566 962 659 C962 883 814 1044 549 1044 C229 1044 35 826 35 502 C35 192 227 -20 549 -20 C746 -20 873 35 937 67 L868 299 C807 276 716 243 590 243 C456 243 373 303 360 445 L931 445 Z M336 1341 C336 1232 406 1172 506 1172 C619 1172 694 1231 694 1359 C694 1468 624 1528 524 1528 C411 1528 336 1468 336 1341 L336 1341 Z " />
<glyph glyph-name="Eogonek" unicode="&#x118;" horiz-adv-x="1063" d="M115 0 L768 0 C715 -43 630 -136 630 -237 C630 -443 789 -502 941 -502 C1040 -502 1136 -466 1169 -440 L1119 -233 C1088 -248 1042 -267 990 -267 C936 -267 896 -239 896 -172 C896 -110 940 -45 992 0 L993 0 L993 268 L443 268 L443 542 L943 542 L943 800 L443 800 L443 1062 L973 1062 L973 1330 L115 1330 L115 0 Z " />
<glyph glyph-name="eogonek" unicode="&#x119;" horiz-adv-x="997" d="M931 445 C949 493 962 566 962 659 C962 883 814 1044 549 1044 C229 1044 35 826 35 502 C35 207 208 1 501 -18 C449 -66 384 -149 384 -237 C384 -443 543 -502 695 -502 C794 -502 890 -466 923 -440 L873 -233 C842 -248 796 -267 744 -267 C690 -267 650 -239 650 -172 C650 -110 694 -45 746 0 C834 19 897 47 937 67 L868 299 C807 276 716 243 590 243 C456 243 373 303 360 445 L931 445 Z M363 618 C375 747 428 806 524 806 C623 806 669 727 648 618 L363 618 Z " />
<glyph glyph-name="Ecaron" unicode="&#x11a;" horiz-adv-x="1063" d="M115 0 L993 0 L993 268 L443 268 L443 542 L943 542 L943 800 L443 800 L443 1062 L973 1062 L973 1330 L115 1330 L115 0 Z M181 1695 C307 1620 472 1504 559 1408 C646 1504 811 1620 937 1695 L794 1893 C712 1842 612 1751 559 1688 C506 1751 406 1842 324 1893 L181 1695 Z " />
<glyph glyph-name="ecaron" unicode="&#x11b;" horiz-adv-x="997" d="M363 618 C375 747 428 806 524 806 C623 806 669 727 648 618 L363 618 Z M931 445 C949 493 962 566 962 659 C962 883 814 1044 549 1044 C229 1044 35 826 35 502 C35 192 227 -20 549 -20 C746 -20 873 35 937 67 L868 299 C807 276 716 243 590 243 C456 243 373 303 360 445 L931 445 Z M137 1395 C263 1320 428 1204 515 1108 C602 1204 767 1320 893 1395 L750 1593 C668 1542 568 1451 515 1388 C462 1451 362 1542 280 1593 L137 1395 Z " />
<glyph glyph-name="Gcircumflex" unicode="&#x11c;" horiz-adv-x="1301" d="M1206 765 L686 765 L686 522 L907 522 L907 272 C861 260 809 253 753 253 C544 253 408 419 408 676 C408 929 545 1077 788 1077 C881 1077 971 1060 1064 1025 L1133 1272 C1052 1318 906 1350 777 1350 C337 1350 55 1078 55 661 C55 234 319 -20 762 -20 C933 -20 1094 28 1206 112 L1206 765 Z M1126 1621 C1025 1689 872 1794 750 1881 C628 1794 475 1689 374 1621 L533 1431 C600 1482 694 1563 750 1616 C806 1563 900 1482 967 1431 L1126 1621 Z " />
<glyph glyph-name="gcircumflex" unicode="&#x11d;" horiz-adv-x="1047" d="M456 302 C726 302 884 444 884 679 C884 723 878 764 867 801 C913 804 983 801 1027 796 L1027 1035 C969 1054 842 1044 727 980 C660 1022 571 1044 466 1044 C196 1044 38 902 38 666 C38 505 115 390 254 336 C176 287 119 211 119 143 C119 71 158 37 182 17 C97 -25 15 -92 15 -205 C15 -359 161 -436 461 -436 C770 -436 1010 -301 1010 -95 C1010 100 878 202 670 202 L437 202 C404 202 388 216 391 241 C392 260 408 284 428 302 L456 302 Z M834 1315 C733 1383 580 1488 458 1575 C336 1488 183 1383 82 1315 L241 1125 C308 1176 402 1257 458 1310 C514 1257 608 1176 675 1125 L834 1315 Z M465 504 C370 504 338 574 338 677 C338 772 368 841 457 841 C552 841 584 772 584 668 C584 574 553 504 465 504 L465 504 Z M500 -212 C368 -212 296 -188 296 -131 C296 -94 326 -63 344 -47 L631 -47 C685 -47 712 -71 712 -108 C712 -178 632 -212 500 -212 L500 -212 Z " />
<glyph glyph-name="Gbreve" unicode="&#x11e;" horiz-adv-x="1301" d="M1206 765 L686 765 L686 522 L907 522 L907 272 C861 260 809 253 753 253 C544 253 408 419 408 676 C408 929 545 1077 788 1077 C881 1077 971 1060 1064 1025 L1133 1272 C1052 1318 906 1350 777 1350 C337 1350 55 1078 55 661 C55 234 319 -20 762 -20 C933 -20 1094 28 1206 112 L1206 765 Z M428 1821 C388 1532 581 1452 730 1452 C879 1452 1072 1532 1032 1821 L809 1821 C820 1736 802 1662 730 1662 C658 1662 640 1736 651 1821 L428 1821 Z " />
<glyph glyph-name="gbreve" unicode="&#x11f;" horiz-adv-x="1047" d="M456 302 C726 302 884 444 884 679 C884 723 878 764 867 801 C913 804 983 801 1027 796 L1027 1035 C969 1054 842 1044 727 980 C660 1022 571 1044 466 1044 C196 1044 38 902 38 666 C38 505 115 390 254 336 C176 287 119 211 119 143 C119 71 158 37 182 17 C97 -25 15 -92 15 -205 C15 -359 161 -436 461 -436 C770 -436 1010 -301 1010 -95 C1010 100 878 202 670 202 L437 202 C404 202 388 216 391 241 C392 260 408 284 428 302 L456 302 Z M465 504 C370 504 338 574 338 677 C338 772 368 841 457 841 C552 841 584 772 584 668 C584 574 553 504 465 504 L465 504 Z M500 -212 C368 -212 296 -188 296 -131 C296 -94 326 -63 344 -47 L631 -47 C685 -47 712 -71 712 -108 C712 -178 632 -212 500 -212 L500 -212 Z M161 1515 C121 1226 314 1146 463 1146 C612 1146 805 1226 765 1515 L542 1515 C553 1430 535 1356 463 1356 C391 1356 373 1430 384 1515 L161 1515 Z " />
<glyph glyph-name="Gdotaccent" unicode="&#x120;" horiz-adv-x="1301" d="M1206 765 L686 765 L686 522 L907 522 L907 272 C861 260 809 253 753 253 C544 253 408 419 408 676 C408 929 545 1077 788 1077 C881 1077 971 1060 1064 1025 L1133 1272 C1052 1318 906 1350 777 1350 C337 1350 55 1078 55 661 C55 234 319 -20 762 -20 C933 -20 1094 28 1206 112 L1206 765 Z M531 1647 C531 1538 601 1478 701 1478 C814 1478 889 1537 889 1665 C889 1774 819 1834 719 1834 C606 1834 531 1774 531 1647 L531 1647 Z " />
<glyph glyph-name="gdotaccent" unicode="&#x121;" horiz-adv-x="1047" d="M456 302 C726 302 884 444 884 679 C884 723 878 764 867 801 C913 804 983 801 1027 796 L1027 1035 C969 1054 842 1044 727 980 C660 1022 571 1044 466 1044 C196 1044 38 902 38 666 C38 505 115 390 254 336 C176 287 119 211 119 143 C119 71 158 37 182 17 C97 -25 15 -92 15 -205 C15 -359 161 -436 461 -436 C770 -436 1010 -301 1010 -95 C1010 100 878 202 670 202 L437 202 C404 202 388 216 391 241 C392 260 408 284 428 302 L456 302 Z M465 504 C370 504 338 574 338 677 C338 772 368 841 457 841 C552 841 584 772 584 668 C584 574 553 504 465 504 L465 504 Z M500 -212 C368 -212 296 -188 296 -131 C296 -94 326 -63 344 -47 L631 -47 C685 -47 712 -71 712 -108 C712 -178 632 -212 500 -212 L500 -212 Z M289 1341 C289 1232 359 1172 459 1172 C572 1172 647 1231 647 1359 C647 1468 577 1528 477 1528 C364 1528 289 1468 289 1341 L289 1341 Z " />
<glyph glyph-name="Gcommaaccent" unicode="&#x122;" horiz-adv-x="1301" d="M1206 765 L686 765 L686 522 L907 522 L907 272 C861 260 809 253 753 253 C544 253 408 419 408 676 C408 929 545 1077 788 1077 C881 1077 971 1060 1064 1025 L1133 1272 C1052 1318 906 1350 777 1350 C337 1350 55 1078 55 661 C55 234 319 -20 762 -20 C933 -20 1094 28 1206 112 L1206 765 Z M634 -303 C634 -371 560 -409 493 -420 L545 -571 C765 -553 919 -465 919 -299 C919 -202 849 -120 808 -89 L554 -145 C576 -166 634 -225 634 -303 L634 -303 Z " />
<glyph glyph-name="gcommaaccent" unicode="&#x123;" horiz-adv-x="1047" d="M456 302 C726 302 884 444 884 679 C884 723 878 764 867 801 C913 804 983 801 1027 796 L1027 1035 C969 1054 842 1044 727 980 C660 1022 571 1044 466 1044 C196 1044 38 902 38 666 C38 505 115 390 254 336 C176 287 119 211 119 143 C119 71 158 37 182 17 C97 -25 15 -92 15 -205 C15 -359 161 -436 461 -436 C770 -436 1010 -301 1010 -95 C1010 100 878 202 670 202 L437 202 C404 202 388 216 391 241 C392 260 408 284 428 302 L456 302 Z M465 504 C370 504 338 574 338 677 C338 772 368 841 457 841 C552 841 584 772 584 668 C584 574 553 504 465 504 L465 504 Z M500 -212 C368 -212 296 -188 296 -131 C296 -94 326 -63 344 -47 L631 -47 C685 -47 712 -71 712 -108 C712 -178 632 -212 500 -212 L500 -212 Z M596 1334 C596 1402 670 1440 737 1451 L685 1602 C465 1584 311 1496 311 1330 C311 1233 381 1151 422 1120 L676 1176 C654 1197 596 1256 596 1334 L596 1334 Z " />
<glyph glyph-name="Hcircumflex" unicode="&#x124;" horiz-adv-x="1370" d="M927 0 L1255 0 L1255 1330 L927 1330 L927 805 L443 805 L443 1330 L115 1330 L115 0 L443 0 L443 537 L927 537 L927 0 Z M1061 1621 C960 1689 807 1794 685 1881 C563 1794 410 1689 309 1621 L468 1431 C535 1482 629 1563 685 1616 C741 1563 835 1482 902 1431 L1061 1621 Z " />
<glyph glyph-name="hcircumflex" unicode="&#x125;" horiz-adv-x="1166" d="M115 1459 L115 0 L443 0 L443 720 C480 750 555 776 607 776 C701 776 738 731 738 623 L738 0 L1066 0 L1066 674 C1066 930 944 1044 707 1044 C587 1044 495 991 443 950 L443 1480 L115 1459 Z M668 1685 C567 1753 414 1858 292 1945 C170 1858 17 1753 -84 1685 L75 1495 C142 1546 236 1627 292 1680 C348 1627 442 1546 509 1495 L668 1685 Z " />
<glyph glyph-name="Hbar" unicode="&#x126;" horiz-adv-x="1370" d="M-24 971 L115 971 L115 0 L443 0 L443 537 L927 537 L927 0 L1255 0 L1255 971 L1394 971 L1394 1114 L1255 1114 L1255 1330 L927 1330 L927 1114 L443 1114 L443 1330 L115 1330 L115 1114 L-24 1114 L-24 971 Z M443 805 L443 971 L927 971 L927 805 L443 805 Z " />
<glyph glyph-name="hbar" unicode="&#x127;" horiz-adv-x="1166" d="M115 1459 L115 1306 L-15 1306 L-15 1183 L115 1183 L115 0 L443 0 L443 720 C480 750 555 776 607 776 C701 776 738 731 738 623 L738 0 L1066 0 L1066 674 C1066 930 944 1044 707 1044 C587 1044 495 991 443 950 L443 1183 L693 1183 L693 1306 L443 1306 L443 1480 L115 1459 Z " />
<glyph glyph-name="Itilde" unicode="&#x128;" horiz-adv-x="558" d="M115 0 L443 0 L443 1330 L115 1330 L115 0 Z M42 1481 C89 1538 111 1568 153 1568 C220 1568 303 1490 389 1490 C551 1490 641 1612 672 1719 L517 1829 C468 1772 445 1742 403 1742 C341 1742 257 1820 154 1820 C-5 1820 -91 1677 -113 1590 L42 1481 Z " />
<glyph glyph-name="itilde" unicode="&#x129;" horiz-adv-x="558" d="M115 1024 L115 0 L443 0 L443 1024 L115 1024 Z M42 1181 C89 1238 111 1268 153 1268 C220 1268 303 1190 389 1190 C551 1190 641 1312 672 1419 L517 1529 C468 1472 445 1442 403 1442 C341 1442 257 1520 154 1520 C-5 1520 -91 1377 -113 1290 L42 1181 Z " />
<glyph glyph-name="Imacron" unicode="&#x12a;" horiz-adv-x="558" d="M115 0 L443 0 L443 1330 L115 1330 L115 0 Z M-52 1538 L610 1538 L610 1775 L-52 1775 L-52 1538 Z " />
<glyph glyph-name="imacron" unicode="&#x12b;" horiz-adv-x="558" d="M-22 1232 L580 1232 L580 1469 L-22 1469 L-22 1232 Z M115 1024 L115 0 L443 0 L443 1024 L115 1024 Z " />
<glyph glyph-name="Ibreve" unicode="&#x12c;" horiz-adv-x="558" d="M115 0 L443 0 L443 1330 L115 1330 L115 0 Z M-23 1821 C-63 1532 130 1452 279 1452 C428 1452 621 1532 581 1821 L358 1821 C369 1736 351 1662 279 1662 C207 1662 189 1736 200 1821 L-23 1821 Z " />
<glyph glyph-name="ibreve" unicode="&#x12d;" horiz-adv-x="558" d="M115 1024 L115 0 L443 0 L443 1024 L115 1024 Z M-23 1515 C-63 1226 130 1146 279 1146 C428 1146 621 1226 581 1515 L358 1515 C369 1430 351 1356 279 1356 C207 1356 189 1430 200 1515 L-23 1515 Z " />
<glyph glyph-name="Iogonek" unicode="&#x12e;" horiz-adv-x="558" d="M115 0 C62 -43 -23 -136 -23 -237 C-23 -443 136 -502 288 -502 C387 -502 483 -466 516 -440 L466 -233 C435 -248 389 -267 337 -267 C283 -267 243 -239 243 -172 C243 -110 287 -45 339 0 L443 0 L443 1330 L115 1330 L115 0 Z " />
<glyph glyph-name="iogonek" unicode="&#x12f;" horiz-adv-x="558" d="M115 1024 L115 0 C62 -43 -23 -136 -23 -237 C-23 -443 136 -502 288 -502 C387 -502 483 -466 516 -440 L466 -233 C435 -248 389 -267 337 -267 C283 -267 243 -239 243 -172 C243 -110 287 -45 339 0 L443 0 L443 1024 L115 1024 Z M100 1341 C100 1232 170 1172 270 1172 C383 1172 458 1231 458 1359 C458 1468 388 1528 288 1528 C175 1528 100 1468 100 1341 L100 1341 Z " />
<glyph glyph-name="Idotaccent" unicode="&#x130;" horiz-adv-x="558" d="M115 0 L443 0 L443 1330 L115 1330 L115 0 Z M100 1641 C100 1532 170 1472 270 1472 C383 1472 458 1531 458 1659 C458 1768 388 1828 288 1828 C175 1828 100 1768 100 1641 L100 1641 Z " />
<glyph glyph-name="dotlessi" unicode="&#x131;" horiz-adv-x="558" d="M115 1024 L115 0 L443 0 L443 1024 L115 1024 Z " />
<glyph glyph-name="IJ" unicode="&#x132;" horiz-adv-x="1343" d="M910 379 C910 290 869 253 787 253 C725 253 671 270 640 282 L598 35 C641 13 734 -20 852 -20 C1086 -20 1238 92 1238 388 L1238 1330 L910 1330 L910 379 Z M115 0 L443 0 L443 1330 L115 1330 L115 0 Z " />
<glyph glyph-name="ij" unicode="&#x133;" horiz-adv-x="1126" d="M115 1024 L115 0 L443 0 L443 1024 L115 1024 Z M100 1341 C100 1232 170 1172 270 1172 C383 1172 458 1231 458 1359 C458 1468 388 1528 288 1528 C175 1528 100 1468 100 1341 L100 1341 Z M683 1024 L683 -32 C683 -125 643 -163 558 -163 C510 -163 476 -151 453 -143 L415 -377 C457 -397 518 -416 610 -416 C872 -416 1011 -285 1011 -13 L1011 1024 L683 1024 Z M668 1341 C668 1232 738 1172 838 1172 C951 1172 1026 1231 1026 1359 C1026 1468 956 1528 856 1528 C743 1528 668 1468 668 1341 L668 1341 Z " />
<glyph glyph-name="Jcircumflex" unicode="&#x134;" horiz-adv-x="765" d="M332 379 C332 290 291 253 209 253 C147 253 93 270 62 282 L20 35 C63 13 156 -20 274 -20 C508 -20 660 92 660 388 L660 1330 L332 1330 L332 379 Z M874 1621 C773 1689 620 1794 498 1881 C376 1794 223 1689 122 1621 L281 1431 C348 1482 442 1563 498 1616 C554 1563 648 1482 715 1431 L874 1621 Z " />
<glyph glyph-name="jcircumflex" unicode="&#x135;" horiz-adv-x="578" d="M135 1024 L135 -32 C135 -125 95 -163 10 -163 C-38 -163 -72 -151 -95 -143 L-133 -377 C-91 -397 -30 -416 62 -416 C324 -416 463 -285 463 -13 L463 1024 L135 1024 Z M665 1315 C564 1383 411 1488 289 1575 C167 1488 14 1383 -87 1315 L72 1125 C139 1176 233 1257 289 1310 C345 1257 439 1176 506 1125 L665 1315 Z " />
<glyph glyph-name="Kcommaaccent" unicode="&#x136;" horiz-adv-x="1259" d="M443 350 L566 518 L857 0 L1239 0 L805 728 L1224 1330 L858 1330 L443 729 L443 1330 L115 1330 L115 0 L443 0 L443 350 Z M565 -303 C565 -371 491 -409 424 -420 L476 -571 C696 -553 850 -465 850 -299 C850 -202 780 -120 739 -89 L485 -145 C507 -166 565 -225 565 -303 L565 -303 Z " />
<glyph glyph-name="kcommaaccent" unicode="&#x137;" horiz-adv-x="1112" d="M115 1459 L115 0 L443 0 L443 275 L538 406 L747 0 L1112 0 L784 602 L1092 1024 L740 1024 L443 614 L443 1480 L115 1459 Z M485 -303 C485 -371 411 -409 344 -420 L396 -571 C616 -553 770 -465 770 -299 C770 -202 700 -120 659 -89 L405 -145 C427 -166 485 -225 485 -303 L485 -303 Z " />
<glyph glyph-name="kgreenlandic" unicode="&#x138;" horiz-adv-x="1182" d="M115 1024 L115 0 L443 0 L443 275 L538 406 L747 0 L1112 0 L784 602 L1092 1024 L740 1024 L443 614 L443 1024 L115 1024 Z " />
<glyph glyph-name="Lacute" unicode="&#x139;" horiz-adv-x="993" d="M115 0 L983 0 L983 268 L443 268 L443 1330 L115 1330 L115 0 Z M84 1447 L645 1603 L522 1873 L15 1598 L84 1447 Z " />
<glyph glyph-name="lacute" unicode="&#x13a;" horiz-adv-x="558" d="M115 1459 L115 0 L443 0 L443 1480 L115 1459 Z M53 1516 L614 1672 L491 1942 L-16 1667 L53 1516 Z " />
<glyph glyph-name="Lcommaaccent" unicode="&#x13b;" horiz-adv-x="993" d="M115 0 L983 0 L983 268 L443 268 L443 1330 L115 1330 L115 0 Z M493 -303 C493 -371 419 -409 352 -420 L404 -571 C624 -553 778 -465 778 -299 C778 -202 708 -120 667 -89 L413 -145 C435 -166 493 -225 493 -303 L493 -303 Z " />
<glyph glyph-name="lcommaaccent" unicode="&#x13c;" horiz-adv-x="558" d="M115 1459 L115 0 L443 0 L443 1480 L115 1459 Z M196 -303 C196 -371 122 -409 55 -420 L107 -571 C327 -553 481 -465 481 -299 C481 -202 411 -120 370 -89 L116 -145 C138 -166 196 -225 196 -303 L196 -303 Z " />
<glyph glyph-name="Lcaron" unicode="&#x13d;" horiz-adv-x="993" d="M115 0 L983 0 L983 268 L443 268 L443 1330 L115 1330 L115 0 Z M662 1172 C662 1104 588 1066 521 1055 L573 904 C793 922 947 1010 947 1176 C947 1273 877 1355 836 1386 L582 1330 C604 1309 662 1250 662 1172 L662 1172 Z " />
<glyph glyph-name="lcaron" unicode="&#x13e;" horiz-adv-x="803" d="M603 1299 C603 1209 555 1155 522 1127 L647 1023 C724 1065 843 1175 843 1322 C843 1444 780 1516 736 1552 L519 1483 C556 1449 603 1392 603 1299 L603 1299 Z M115 1459 L115 0 L443 0 L443 1480 L115 1459 Z " />
<glyph glyph-name="Ldot" unicode="&#x13f;" horiz-adv-x="993" d="M115 0 L983 0 L983 268 L443 268 L443 1330 L115 1330 L115 0 Z M583 719 C583 610 653 550 753 550 C866 550 941 609 941 737 C941 846 871 906 771 906 C658 906 583 846 583 719 L583 719 Z " />
<glyph glyph-name="ldot" unicode="&#x140;" horiz-adv-x="831" d="M115 1459 L115 0 L443 0 L443 1480 L115 1459 Z M523 737 C523 628 593 568 693 568 C806 568 881 627 881 755 C881 864 811 924 711 924 C598 924 523 864 523 737 L523 737 Z " />
<glyph glyph-name="Lslash" unicode="&#x141;" horiz-adv-x="993" d="M2 363 L115 448 L115 0 L983 0 L983 268 L443 268 L443 697 L750 930 L663 1044 L443 877 L443 1330 L115 1330 L115 628 L-84 477 L2 363 Z " />
<glyph glyph-name="lslash" unicode="&#x142;" horiz-adv-x="558" d="M115 1459 L115 646 L-76 501 L-7 410 L115 502 L115 0 L443 0 L443 751 L636 897 L566 988 L443 894 L443 1480 L115 1459 Z " />
<glyph glyph-name="Nacute" unicode="&#x143;" horiz-adv-x="1380" d="M925 0 L1265 0 L1265 1330 L942 1330 L942 520 L455 1330 L115 1330 L115 0 L438 0 L438 809 L925 0 Z M434 1447 L995 1603 L872 1873 L365 1598 L434 1447 Z " />
<glyph glyph-name="nacute" unicode="&#x144;" horiz-adv-x="1166" d="M115 1024 L115 0 L443 0 L443 720 C480 750 555 776 607 776 C701 776 738 731 738 623 L738 0 L1066 0 L1066 674 C1066 930 944 1044 707 1044 C559 1044 453 963 412 923 L379 1024 L115 1024 Z M345 1147 L906 1303 L783 1573 L276 1298 L345 1147 Z " />
<glyph glyph-name="Ncommaaccent" unicode="&#x145;" horiz-adv-x="1380" d="M925 0 L1265 0 L1265 1330 L942 1330 L942 520 L455 1330 L115 1330 L115 0 L438 0 L438 809 L925 0 Z M617 -303 C617 -371 543 -409 476 -420 L528 -571 C748 -553 902 -465 902 -299 C902 -202 832 -120 791 -89 L537 -145 C559 -166 617 -225 617 -303 L617 -303 Z " />
<glyph glyph-name="ncommaaccent" unicode="&#x146;" horiz-adv-x="1166" d="M115 1024 L115 0 L443 0 L443 720 C480 750 555 776 607 776 C701 776 738 731 738 623 L738 0 L1066 0 L1066 674 C1066 930 944 1044 707 1044 C559 1044 453 963 412 923 L379 1024 L115 1024 Z M510 -303 C510 -371 436 -409 369 -420 L421 -571 C641 -553 795 -465 795 -299 C795 -202 725 -120 684 -89 L430 -145 C452 -166 510 -225 510 -303 L510 -303 Z " />
<glyph glyph-name="Ncaron" unicode="&#x147;" horiz-adv-x="1380" d="M925 0 L1265 0 L1265 1330 L942 1330 L942 520 L455 1330 L115 1330 L115 0 L438 0 L438 809 L925 0 Z M302 1695 C428 1620 593 1504 680 1408 C767 1504 932 1620 1058 1695 L915 1893 C833 1842 733 1751 680 1688 C627 1751 527 1842 445 1893 L302 1695 Z " />
<glyph glyph-name="ncaron" unicode="&#x148;" horiz-adv-x="1166" d="M115 1024 L115 0 L443 0 L443 720 C480 750 555 776 607 776 C701 776 738 731 738 623 L738 0 L1066 0 L1066 674 C1066 930 944 1044 707 1044 C559 1044 453 963 412 923 L379 1024 L115 1024 Z M213 1395 C339 1320 504 1204 591 1108 C678 1204 843 1320 969 1395 L826 1593 C744 1542 644 1451 591 1388 C538 1451 438 1542 356 1593 L213 1395 Z " />
<glyph glyph-name="napostrophe" unicode="&#x149;" horiz-adv-x="1342" d="M291 1024 L291 0 L619 0 L619 720 C656 750 731 776 783 776 C877 776 914 731 914 623 L914 0 L1242 0 L1242 674 C1242 930 1120 1044 883 1044 C735 1044 629 963 588 923 L555 1024 L291 1024 Z M22 1248 C22 1146 -3 1048 -24 1003 L137 953 C194 1000 281 1133 281 1280 C281 1415 232 1494 204 1531 L-40 1470 C-14 1427 22 1340 22 1248 L22 1248 Z " />
<glyph glyph-name="Eng" unicode="&#x14a;" horiz-adv-x="1380" d="M937 -17 C937 -106 896 -143 814 -143 C752 -143 698 -126 667 -114 L625 -361 C668 -383 761 -416 879 -416 C1113 -416 1265 -304 1265 -8 L1265 1330 L942 1330 L942 540 L455 1330 L115 1330 L115 0 L438 0 L438 789 L937 39 L937 -17 Z " />
<glyph glyph-name="eng" unicode="&#x14b;" horiz-adv-x="1181" d="M115 1024 L115 0 L443 0 L443 720 C480 750 555 776 607 776 C701 776 738 731 738 623 L738 -32 C738 -125 698 -163 613 -163 C565 -163 531 -151 508 -143 L470 -377 C512 -397 573 -416 665 -416 C927 -416 1066 -285 1066 -13 L1066 674 C1066 930 944 1044 707 1044 C559 1044 453 963 412 923 L379 1024 L115 1024 Z " />
<glyph glyph-name="Omacron" unicode="&#x14c;" horiz-adv-x="1436" d="M723 238 C529 238 408 408 408 676 C408 942 536 1092 713 1092 C907 1092 1028 922 1028 654 C1028 388 900 238 723 238 L723 238 Z M712 -20 C1130 -20 1381 263 1381 669 C1381 1079 1141 1350 724 1350 C306 1350 55 1067 55 661 C55 251 295 -20 712 -20 L712 -20 Z M387 1538 L1049 1538 L1049 1775 L387 1775 L387 1538 Z " />
<glyph glyph-name="omacron" unicode="&#x14d;" horiz-adv-x="1111" d="M549 -20 C883 -20 1076 198 1076 521 C1076 832 888 1044 562 1044 C228 1044 35 826 35 503 C35 192 223 -20 549 -20 L549 -20 Z M560 218 C420 218 373 339 373 518 C373 685 419 806 551 806 C691 806 738 685 738 506 C738 339 692 218 560 218 L560 218 Z M224 1232 L886 1232 L886 1469 L224 1469 L224 1232 Z " />
<glyph glyph-name="Obreve" unicode="&#x14e;" horiz-adv-x="1436" d="M723 238 C529 238 408 408 408 676 C408 942 536 1092 713 1092 C907 1092 1028 922 1028 654 C1028 388 900 238 723 238 L723 238 Z M712 -20 C1130 -20 1381 263 1381 669 C1381 1079 1141 1350 724 1350 C306 1350 55 1067 55 661 C55 251 295 -20 712 -20 L712 -20 Z M416 1821 C376 1532 569 1452 718 1452 C867 1452 1060 1532 1020 1821 L797 1821 C808 1736 790 1662 718 1662 C646 1662 628 1736 639 1821 L416 1821 Z " />
<glyph glyph-name="obreve" unicode="&#x14f;" horiz-adv-x="1111" d="M549 -20 C883 -20 1076 198 1076 521 C1076 832 888 1044 562 1044 C228 1044 35 826 35 503 C35 192 223 -20 549 -20 L549 -20 Z M560 218 C420 218 373 339 373 518 C373 685 419 806 551 806 C691 806 738 685 738 506 C738 339 692 218 560 218 L560 218 Z M253 1515 C213 1226 406 1146 555 1146 C704 1146 897 1226 857 1515 L634 1515 C645 1430 627 1356 555 1356 C483 1356 465 1430 476 1515 L253 1515 Z " />
<glyph glyph-name="Ohungarumlaut" unicode="&#x150;" horiz-adv-x="1436" d="M723 238 C529 238 408 408 408 676 C408 942 536 1092 713 1092 C907 1092 1028 922 1028 654 C1028 388 900 238 723 238 L723 238 Z M712 -20 C1130 -20 1381 263 1381 669 C1381 1079 1141 1350 724 1350 C306 1350 55 1067 55 661 C55 251 295 -20 712 -20 L712 -20 Z M541 1421 L839 1782 L616 1919 L384 1514 L541 1421 Z M893 1431 L1191 1792 L968 1929 L736 1524 L893 1431 Z " />
<glyph glyph-name="ohungarumlaut" unicode="&#x151;" horiz-adv-x="1111" d="M549 -20 C883 -20 1076 198 1076 521 C1076 832 888 1044 562 1044 C228 1044 35 826 35 503 C35 192 223 -20 549 -20 L549 -20 Z M560 218 C420 218 373 339 373 518 C373 685 419 806 551 806 C691 806 738 685 738 506 C738 339 692 218 560 218 L560 218 Z M369 1115 L667 1476 L444 1613 L212 1208 L369 1115 Z M721 1125 L1019 1486 L796 1623 L564 1218 L721 1125 Z " />
<glyph glyph-name="OE" unicode="&#x152;" horiz-adv-x="1849" d="M724 1350 C306 1350 55 1067 55 661 C55 251 295 -20 712 -20 C786 -20 853 -12 913 0 L1779 0 L1779 268 L1239 268 L1239 542 L1729 542 L1729 800 L1239 800 L1239 1062 L1759 1062 L1759 1330 L912 1330 C852 1342 788 1350 724 1350 L724 1350 Z M723 238 C519 238 408 408 408 676 C408 942 526 1092 713 1092 C803 1092 866 1071 911 1042 L911 288 C866 259 804 238 723 238 L723 238 Z " />
<glyph glyph-name="oe" unicode="&#x153;" horiz-adv-x="1588" d="M1522 445 C1540 493 1553 566 1553 659 C1553 883 1409 1044 1150 1044 C1031 1044 930 1013 851 957 C775 1013 677 1044 562 1044 C228 1044 35 826 35 503 C35 192 223 -20 549 -20 C667 -20 767 11 845 68 C926 11 1028 -20 1150 -20 C1342 -20 1466 35 1528 67 L1459 299 C1400 276 1311 243 1191 243 C1063 243 983 303 971 445 L1522 445 Z M560 218 C420 218 373 339 373 518 C373 685 419 806 551 806 C613 806 657 782 686 740 C660 670 646 590 646 502 C646 420 659 344 684 278 C656 240 616 218 560 218 L560 218 Z M974 618 C985 747 1035 806 1125 806 C1216 806 1258 727 1239 618 L974 618 Z " />
<glyph glyph-name="Racute" unicode="&#x154;" horiz-adv-x="1196" d="M115 0 L443 0 L443 462 L573 462 L815 0 L1181 0 L879 535 C963 586 1099 690 1099 894 C1099 1193 907 1330 559 1330 L115 1330 L115 0 Z M569 1068 C685 1068 756 1003 756 881 C756 794 709 730 669 710 L443 710 L443 1068 L569 1068 Z M314 1447 L875 1603 L752 1873 L245 1598 L314 1447 Z " />
<glyph glyph-name="racute" unicode="&#x155;" horiz-adv-x="760" d="M115 1024 L115 0 L443 0 L443 678 C516 716 652 758 760 747 L760 1041 C630 1056 494 980 420 897 L379 1024 L115 1024 Z M189 1147 L750 1303 L627 1573 L120 1298 L189 1147 Z " />
<glyph glyph-name="Rcommaaccent" unicode="&#x156;" horiz-adv-x="1196" d="M115 0 L443 0 L443 462 L573 462 L815 0 L1181 0 L879 535 C963 586 1099 690 1099 894 C1099 1193 907 1330 559 1330 L115 1330 L115 0 Z M530 -303 C530 -371 456 -409 389 -420 L441 -571 C661 -553 815 -465 815 -299 C815 -202 745 -120 704 -89 L450 -145 C472 -166 530 -225 530 -303 L530 -303 Z M569 1068 C685 1068 756 1003 756 881 C756 794 709 730 669 710 L443 710 L443 1068 L569 1068 Z " />
<glyph glyph-name="rcommaaccent" unicode="&#x157;" horiz-adv-x="760" d="M115 1024 L115 0 L443 0 L443 678 C516 716 652 758 760 747 L760 1041 C630 1056 494 980 420 897 L379 1024 L115 1024 Z M215 -303 C215 -371 141 -409 74 -420 L126 -571 C346 -553 500 -465 500 -299 C500 -202 430 -120 389 -89 L135 -145 C157 -166 215 -225 215 -303 L215 -303 Z " />
<glyph glyph-name="Rcaron" unicode="&#x158;" horiz-adv-x="1196" d="M115 0 L443 0 L443 462 L573 462 L815 0 L1181 0 L879 535 C963 586 1099 690 1099 894 C1099 1193 907 1330 559 1330 L115 1330 L115 0 Z M172 1695 C298 1620 463 1504 550 1408 C637 1504 802 1620 928 1695 L785 1893 C703 1842 603 1751 550 1688 C497 1751 397 1842 315 1893 L172 1695 Z M569 1068 C685 1068 756 1003 756 881 C756 794 709 730 669 710 L443 710 L443 1068 L569 1068 Z " />
<glyph glyph-name="rcaron" unicode="&#x159;" horiz-adv-x="760" d="M115 1024 L115 0 L443 0 L443 678 C516 716 652 758 760 747 L760 1041 C630 1056 494 980 420 897 L379 1024 L115 1024 Z M77 1395 C203 1320 368 1204 455 1108 C542 1204 707 1320 833 1395 L690 1593 C608 1542 508 1451 455 1388 C402 1451 302 1542 220 1593 L77 1395 Z " />
<glyph glyph-name="Sacute" unicode="&#x15a;" horiz-adv-x="1095" d="M90 80 C159 31 335 -20 501 -20 C834 -20 1025 118 1025 365 C1025 544 941 653 739 748 L545 838 C484 866 440 895 442 961 C444 1016 487 1065 614 1065 C729 1065 858 1017 928 983 L988 1245 C929 1278 806 1350 588 1350 C311 1350 99 1189 99 947 C99 748 205 640 379 562 L552 485 C645 440 677 407 677 349 C677 290 622 263 493 263 C365 263 210 320 162 345 L90 80 Z M337 1447 L898 1603 L775 1873 L268 1598 L337 1447 Z " />
<glyph glyph-name="sacute" unicode="&#x15b;" horiz-adv-x="896" d="M65 58 C147 17 272 -20 436 -20 C711 -20 841 103 841 292 C841 444 762 534 597 597 L519 627 C423 664 376 684 376 732 C376 786 440 796 489 796 C577 796 692 760 766 734 L816 971 C699 1031 568 1044 469 1044 C224 1044 69 912 69 709 C69 564 146 466 327 401 L397 376 C467 351 534 331 534 283 C534 241 484 228 405 228 C312 228 193 264 128 294 L65 58 Z M201 1147 L762 1303 L639 1573 L132 1298 L201 1147 Z " />
<glyph glyph-name="Scircumflex" unicode="&#x15c;" horiz-adv-x="1095" d="M90 80 C159 31 335 -20 501 -20 C834 -20 1025 118 1025 365 C1025 544 941 653 739 748 L545 838 C484 866 440 895 442 961 C444 1016 487 1065 614 1065 C729 1065 858 1017 928 983 L988 1245 C929 1278 806 1350 588 1350 C311 1350 99 1189 99 947 C99 748 205 640 379 562 L552 485 C645 440 677 407 677 349 C677 290 622 263 493 263 C365 263 210 320 162 345 L90 80 Z M949 1615 C848 1683 695 1788 573 1875 C451 1788 298 1683 197 1615 L356 1425 C423 1476 517 1557 573 1610 C629 1557 723 1476 790 1425 L949 1615 Z " />
<glyph glyph-name="scircumflex" unicode="&#x15d;" horiz-adv-x="896" d="M65 58 C147 17 272 -20 436 -20 C711 -20 841 103 841 292 C841 444 762 534 597 597 L519 627 C423 664 376 684 376 732 C376 786 440 796 489 796 C577 796 692 760 766 734 L816 971 C699 1031 568 1044 469 1044 C224 1044 69 912 69 709 C69 564 146 466 327 401 L397 376 C467 351 534 331 534 283 C534 241 484 228 405 228 C312 228 193 264 128 294 L65 58 Z M841 1315 C740 1383 587 1488 465 1575 C343 1488 190 1383 89 1315 L248 1125 C315 1176 409 1257 465 1310 C521 1257 615 1176 682 1125 L841 1315 Z " />
<glyph glyph-name="Scedilla" unicode="&#x15e;" horiz-adv-x="1095" d="M90 80 C159 31 335 -20 501 -20 C834 -20 1025 118 1025 365 C1025 544 941 653 739 748 L545 838 C484 866 440 895 442 961 C444 1016 487 1065 614 1065 C729 1065 858 1017 928 983 L988 1245 C929 1278 806 1350 588 1350 C311 1350 99 1189 99 947 C99 748 205 640 379 562 L552 485 C645 440 677 407 677 349 C677 290 622 263 493 263 C365 263 210 320 162 345 L90 80 Z M318 -561 C339 -571 390 -581 451 -581 C621 -581 765 -521 765 -336 C765 -177 644 -106 498 -106 L371 -106 L360 -273 L413 -273 C477 -273 518 -289 518 -342 C518 -394 476 -417 411 -417 C377 -417 355 -412 337 -407 L318 -561 Z " />
<glyph glyph-name="scedilla" unicode="&#x15f;" horiz-adv-x="896" d="M65 58 C147 17 272 -20 436 -20 C711 -20 841 103 841 292 C841 444 762 534 597 597 L519 627 C423 664 376 684 376 732 C376 786 440 796 489 796 C577 796 692 760 766 734 L816 971 C699 1031 568 1044 469 1044 C224 1044 69 912 69 709 C69 564 146 466 327 401 L397 376 C467 351 534 331 534 283 C534 241 484 228 405 228 C312 228 193 264 128 294 L65 58 Z M210 -561 C231 -571 282 -581 343 -581 C513 -581 657 -521 657 -336 C657 -177 536 -106 390 -106 L263 -106 L252 -273 L305 -273 C369 -273 410 -289 410 -342 C410 -394 368 -417 303 -417 C269 -417 247 -412 229 -407 L210 -561 Z " />
<glyph glyph-name="Scaron" unicode="&#x160;" horiz-adv-x="1095" d="M90 80 C159 31 335 -20 501 -20 C834 -20 1025 118 1025 365 C1025 544 941 653 739 748 L545 838 C484 866 440 895 442 961 C444 1016 487 1065 614 1065 C729 1065 858 1017 928 983 L988 1245 C929 1278 806 1350 588 1350 C311 1350 99 1189 99 947 C99 748 205 640 379 562 L552 485 C645 440 677 407 677 349 C677 290 622 263 493 263 C365 263 210 320 162 345 L90 80 Z M205 1695 C331 1620 496 1504 583 1408 C670 1504 835 1620 961 1695 L818 1893 C736 1842 636 1751 583 1688 C530 1751 430 1842 348 1893 L205 1695 Z " />
<glyph glyph-name="scaron" unicode="&#x161;" horiz-adv-x="896" d="M65 58 C147 17 272 -20 436 -20 C711 -20 841 103 841 292 C841 444 762 534 597 597 L519 627 C423 664 376 684 376 732 C376 786 440 796 489 796 C577 796 692 760 766 734 L816 971 C699 1031 568 1044 469 1044 C224 1044 69 912 69 709 C69 564 146 466 327 401 L397 376 C467 351 534 331 534 283 C534 241 484 228 405 228 C312 228 193 264 128 294 L65 58 Z M87 1395 C213 1320 378 1204 465 1108 C552 1204 717 1320 843 1395 L700 1593 C618 1542 518 1451 465 1388 C412 1451 312 1542 230 1593 L87 1395 Z " />
<glyph glyph-name="Tcedilla" unicode="&#x162;" horiz-adv-x="1090" d="M381 0 L709 0 L709 1062 L1080 1062 L1080 1330 L10 1330 L10 1062 L381 1062 L381 0 Z M323 -561 C344 -571 395 -581 456 -581 C626 -581 770 -521 770 -336 C770 -177 649 -106 503 -106 L376 -106 L365 -273 L418 -273 C482 -273 523 -289 523 -342 C523 -394 481 -417 416 -417 C382 -417 360 -412 342 -407 L323 -561 Z " />
<glyph glyph-name="tcedilla" unicode="&#x163;" horiz-adv-x="774" d="M462 1270 L189 1251 L160 1014 L0 1004 L0 786 L138 786 L138 347 C138 81 234 -20 498 -20 C596 -20 708 6 764 31 L728 269 C699 258 639 243 580 243 C498 243 466 276 466 383 L466 786 L720 786 L720 1024 L462 1024 L462 1270 Z M197 -561 C218 -571 269 -581 330 -581 C500 -581 644 -521 644 -336 C644 -177 523 -106 377 -106 L250 -106 L239 -273 L292 -273 C356 -273 397 -289 397 -342 C397 -394 355 -417 290 -417 C256 -417 234 -412 216 -407 L197 -561 Z " />
<glyph glyph-name="Tcaron" unicode="&#x164;" horiz-adv-x="1090" d="M381 0 L709 0 L709 1062 L1080 1062 L1080 1330 L10 1330 L10 1062 L381 1062 L381 0 Z M167 1695 C293 1620 458 1504 545 1408 C632 1504 797 1620 923 1695 L780 1893 C698 1842 598 1751 545 1688 C492 1751 392 1842 310 1893 L167 1695 Z " />
<glyph glyph-name="tcaron" unicode="&#x165;" horiz-adv-x="752" d="M572 1369 C572 1279 524 1225 491 1197 L616 1093 C693 1135 812 1245 812 1392 C812 1514 749 1586 705 1622 L488 1553 C525 1519 572 1462 572 1369 L572 1369 Z M452 1270 L179 1251 L150 1014 L-10 1004 L-10 786 L128 786 L128 347 C128 81 224 -20 488 -20 C586 -20 698 6 754 31 L718 269 C689 258 629 243 570 243 C488 243 456 276 456 383 L456 786 L710 786 L710 1024 L452 1024 L452 1270 Z " />
<glyph glyph-name="Tbar" unicode="&#x166;" horiz-adv-x="1090" d="M1080 1330 L10 1330 L10 1062 L381 1062 L381 724 L190 724 L190 581 L381 581 L381 0 L709 0 L709 581 L898 581 L898 724 L709 724 L709 1062 L1080 1062 L1080 1330 Z " />
<glyph glyph-name="tbar" unicode="&#x167;" horiz-adv-x="774" d="M462 1270 L189 1251 L160 1014 L0 1004 L0 786 L138 786 L138 629 L10 621 L10 512 L138 512 L138 347 C138 81 234 -20 498 -20 C596 -20 708 6 764 31 L728 269 C699 258 639 243 580 243 C498 243 466 276 466 383 L466 512 L704 512 L704 635 L466 635 L466 786 L720 786 L720 1024 L462 1024 L462 1270 Z " />
<glyph glyph-name="Utilde" unicode="&#x168;" horiz-adv-x="1290" d="M423 1330 L95 1330 L95 525 C95 173 296 -20 638 -20 C980 -20 1195 182 1195 525 L1195 1330 L867 1330 L867 512 C867 315 785 238 649 238 C513 238 423 315 423 535 L423 1330 Z M413 1481 C460 1538 482 1568 524 1568 C591 1568 674 1490 760 1490 C922 1490 1012 1612 1043 1719 L888 1829 C839 1772 816 1742 774 1742 C712 1742 628 1820 525 1820 C366 1820 280 1677 258 1590 L413 1481 Z " />
<glyph glyph-name="utilde" unicode="&#x169;" horiz-adv-x="1156" d="M1041 0 L1041 1024 L713 1024 L713 304 C672 274 604 248 554 248 C464 248 428 293 428 401 L428 1024 L100 1024 L100 350 C100 94 220 -20 454 -20 C599 -20 705 57 744 101 L777 0 L1041 0 Z M343 1181 C390 1238 412 1268 454 1268 C521 1268 604 1190 690 1190 C852 1190 942 1312 973 1419 L818 1529 C769 1472 746 1442 704 1442 C642 1442 558 1520 455 1520 C296 1520 210 1377 188 1290 L343 1181 Z " />
<glyph glyph-name="Umacron" unicode="&#x16a;" horiz-adv-x="1290" d="M423 1330 L95 1330 L95 525 C95 173 296 -20 638 -20 C980 -20 1195 182 1195 525 L1195 1330 L867 1330 L867 512 C867 315 785 238 649 238 C513 238 423 315 423 535 L423 1330 Z M314 1538 L976 1538 L976 1775 L314 1775 L314 1538 Z " />
<glyph glyph-name="umacron" unicode="&#x16b;" horiz-adv-x="1156" d="M1041 0 L1041 1024 L713 1024 L713 304 C672 274 604 248 554 248 C464 248 428 293 428 401 L428 1024 L100 1024 L100 350 C100 94 220 -20 454 -20 C599 -20 705 57 744 101 L777 0 L1041 0 Z M242 1232 L904 1232 L904 1469 L242 1469 L242 1232 Z " />
<glyph glyph-name="Ubreve" unicode="&#x16c;" horiz-adv-x="1290" d="M423 1330 L95 1330 L95 525 C95 173 296 -20 638 -20 C980 -20 1195 182 1195 525 L1195 1330 L867 1330 L867 512 C867 315 785 238 649 238 C513 238 423 315 423 535 L423 1330 Z M343 1821 C303 1532 496 1452 645 1452 C794 1452 987 1532 947 1821 L724 1821 C735 1736 717 1662 645 1662 C573 1662 555 1736 566 1821 L343 1821 Z " />
<glyph glyph-name="ubreve" unicode="&#x16d;" horiz-adv-x="1156" d="M1041 0 L1041 1024 L713 1024 L713 304 C672 274 604 248 554 248 C464 248 428 293 428 401 L428 1024 L100 1024 L100 350 C100 94 220 -20 454 -20 C599 -20 705 57 744 101 L777 0 L1041 0 Z M266 1515 C226 1226 419 1146 568 1146 C717 1146 910 1226 870 1515 L647 1515 C658 1430 640 1356 568 1356 C496 1356 478 1430 489 1515 L266 1515 Z " />
<glyph glyph-name="Uring" unicode="&#x16e;" horiz-adv-x="1290" d="M423 1330 L95 1330 L95 525 C95 173 296 -20 638 -20 C980 -20 1195 182 1195 525 L1195 1330 L867 1330 L867 512 C867 315 785 238 649 238 C513 238 423 315 423 535 L423 1330 Z M389 1639 C389 1491 491 1412 639 1412 C801 1412 911 1490 911 1661 C911 1809 809 1888 661 1888 C499 1888 389 1809 389 1639 L389 1639 Z M584 1647 C584 1694 611 1716 653 1716 C691 1716 716 1694 716 1653 C716 1606 689 1584 647 1584 C609 1584 584 1606 584 1647 L584 1647 Z " />
<glyph glyph-name="uring" unicode="&#x16f;" horiz-adv-x="1156" d="M1041 0 L1041 1024 L713 1024 L713 304 C672 274 604 248 554 248 C464 248 428 293 428 401 L428 1024 L100 1024 L100 350 C100 94 220 -20 454 -20 C599 -20 705 57 744 101 L777 0 L1041 0 Z M309 1339 C309 1191 411 1112 559 1112 C721 1112 831 1190 831 1361 C831 1509 729 1588 581 1588 C419 1588 309 1509 309 1339 L309 1339 Z M504 1347 C504 1394 531 1416 573 1416 C611 1416 636 1394 636 1353 C636 1306 609 1284 567 1284 C529 1284 504 1306 504 1347 L504 1347 Z " />
<glyph glyph-name="Uhungarumlaut" unicode="&#x170;" horiz-adv-x="1290" d="M423 1330 L95 1330 L95 525 C95 173 296 -20 638 -20 C980 -20 1195 182 1195 525 L1195 1330 L867 1330 L867 512 C867 315 785 238 649 238 C513 238 423 315 423 535 L423 1330 Z M468 1421 L766 1782 L543 1919 L311 1514 L468 1421 Z M820 1431 L1118 1792 L895 1929 L663 1524 L820 1431 Z " />
<glyph glyph-name="uhungarumlaut" unicode="&#x171;" horiz-adv-x="1156" d="M1041 0 L1041 1024 L713 1024 L713 304 C672 274 604 248 554 248 C464 248 428 293 428 401 L428 1024 L100 1024 L100 350 C100 94 220 -20 454 -20 C599 -20 705 57 744 101 L777 0 L1041 0 Z M391 1115 L689 1476 L466 1613 L234 1208 L391 1115 Z M743 1125 L1041 1486 L818 1623 L586 1218 L743 1125 Z " />
<glyph glyph-name="Uogonek" unicode="&#x172;" horiz-adv-x="1290" d="M423 1330 L95 1330 L95 525 C95 197 269 7 568 -17 C516 -65 450 -148 450 -237 C450 -443 609 -502 761 -502 C860 -502 956 -466 989 -440 L939 -233 C908 -248 862 -267 810 -267 C756 -267 716 -239 716 -172 C716 -110 759 -45 811 0 C1051 58 1195 244 1195 525 L1195 1330 L867 1330 L867 512 C867 315 785 238 649 238 C513 238 423 315 423 535 L423 1330 Z " />
<glyph glyph-name="uogonek" unicode="&#x173;" horiz-adv-x="1156" d="M1041 0 L1041 1024 L713 1024 L713 304 C672 274 604 248 554 248 C464 248 428 293 428 401 L428 1024 L100 1024 L100 350 C100 94 220 -20 454 -20 C599 -20 705 57 744 101 L777 0 C724 -43 639 -136 639 -237 C639 -443 798 -502 950 -502 C1049 -502 1145 -466 1178 -440 L1128 -233 C1097 -248 1051 -267 999 -267 C945 -267 905 -239 905 -172 C905 -110 949 -45 1001 0 L1041 0 Z " />
<glyph glyph-name="Wcircumflex" unicode="&#x174;" horiz-adv-x="1856" d="M1471 1330 L1288 427 L1278 427 L1060 1310 L796 1310 L578 427 L568 427 L385 1330 L20 1330 L348 0 L730 0 L928 712 L1126 0 L1509 0 L1836 1330 L1471 1330 Z M1304 1621 C1203 1689 1050 1794 928 1881 C806 1794 653 1689 552 1621 L711 1431 C778 1482 872 1563 928 1616 C984 1563 1078 1482 1145 1431 L1304 1621 Z " />
<glyph glyph-name="wcircumflex" unicode="&#x175;" horiz-adv-x="1610" d="M1267 1024 L1113 344 L1103 344 L949 1014 L661 1014 L507 344 L497 344 L343 1024 L-10 1024 L271 0 L683 0 L805 482 L927 0 L1339 0 L1620 1024 L1267 1024 Z M1181 1315 C1080 1383 927 1488 805 1575 C683 1488 530 1383 429 1315 L588 1125 C655 1176 749 1257 805 1310 C861 1257 955 1176 1022 1125 L1181 1315 Z " />
<glyph glyph-name="Ycircumflex" unicode="&#x176;" horiz-adv-x="1222" d="M447 0 L775 0 L775 494 L1222 1330 L866 1330 L611 803 L356 1330 L0 1330 L447 494 L447 0 Z M987 1615 C886 1683 733 1788 611 1875 C489 1788 336 1683 235 1615 L394 1425 C461 1476 555 1557 611 1610 C667 1557 761 1476 828 1425 L987 1615 Z " />
<glyph glyph-name="ycircumflex" unicode="&#x177;" horiz-adv-x="1114" d="M746 1024 L578 324 L568 324 L363 1024 L0 1024 L361 60 L410 -33 C393 -123 327 -163 246 -163 C157 -163 94 -141 71 -133 L23 -367 C69 -387 167 -416 268 -416 C527 -416 689 -300 777 -20 L1104 1024 L746 1024 Z M930 1315 C829 1383 676 1488 554 1575 C432 1488 279 1383 178 1315 L337 1125 C404 1176 498 1257 554 1310 C610 1257 704 1176 771 1125 L930 1315 Z " />
<glyph glyph-name="Ydieresis" unicode="&#x178;" horiz-adv-x="1222" d="M447 0 L775 0 L775 494 L1222 1330 L866 1330 L611 803 L356 1330 L0 1330 L447 494 L447 0 Z M204 1641 C204 1532 274 1472 374 1472 C487 1472 562 1531 562 1659 C562 1768 492 1828 392 1828 C279 1828 204 1768 204 1641 L204 1641 Z M660 1641 C660 1532 730 1472 830 1472 C943 1472 1018 1531 1018 1659 C1018 1768 948 1828 848 1828 C735 1828 660 1768 660 1641 L660 1641 Z " />
<glyph glyph-name="Zacute" unicode="&#x179;" horiz-adv-x="1127" d="M70 230 L70 0 L1077 0 L1077 268 L446 268 L1038 1099 L1038 1329 L110 1329 L110 1061 L630 1061 L70 230 Z M331 1447 L892 1603 L769 1873 L262 1598 L331 1447 Z " />
<glyph glyph-name="zacute" unicode="&#x17a;" horiz-adv-x="973" d="M70 190 L70 0 L903 0 L903 238 L447 238 L873 834 L873 1024 L100 1024 L100 786 L496 786 L70 190 Z M250 1147 L811 1303 L688 1573 L181 1298 L250 1147 Z " />
<glyph glyph-name="Zdotaccent" unicode="&#x17b;" horiz-adv-x="1127" d="M70 230 L70 0 L1077 0 L1077 268 L446 268 L1038 1099 L1038 1329 L110 1329 L110 1061 L630 1061 L70 230 Z M388 1641 C388 1532 458 1472 558 1472 C671 1472 746 1531 746 1659 C746 1768 676 1828 576 1828 C463 1828 388 1768 388 1641 L388 1641 Z " />
<glyph glyph-name="zdotaccent" unicode="&#x17c;" horiz-adv-x="973" d="M70 190 L70 0 L903 0 L903 238 L447 238 L873 834 L873 1024 L100 1024 L100 786 L496 786 L70 190 Z M317 1341 C317 1232 387 1172 487 1172 C600 1172 675 1231 675 1359 C675 1468 605 1528 505 1528 C392 1528 317 1468 317 1341 L317 1341 Z " />
<glyph glyph-name="Zcaron" unicode="&#x17d;" horiz-adv-x="1127" d="M70 230 L70 0 L1077 0 L1077 268 L446 268 L1038 1099 L1038 1329 L110 1329 L110 1061 L630 1061 L70 230 Z M199 1695 C325 1620 490 1504 577 1408 C664 1504 829 1620 955 1695 L812 1893 C730 1842 630 1751 577 1688 C524 1751 424 1842 342 1893 L199 1695 Z " />
<glyph glyph-name="zcaron" unicode="&#x17e;" horiz-adv-x="973" d="M70 190 L70 0 L903 0 L903 238 L447 238 L873 834 L873 1024 L100 1024 L100 786 L496 786 L70 190 Z M118 1395 C244 1320 409 1204 496 1108 C583 1204 748 1320 874 1395 L731 1593 C649 1542 549 1451 496 1388 C443 1451 343 1542 261 1593 L118 1395 Z " />
<glyph glyph-name="longs" unicode="&#x17f;" horiz-adv-x="604" d="M466 1087 C466 1187 510 1227 600 1227 C660 1227 708 1212 734 1203 L784 1437 C731 1457 660 1480 538 1480 C274 1480 140 1329 140 1103 L140 1013 L0 1004 L0 786 L138 786 L138 0 L466 0 L466 1087 Z " />
<glyph glyph-name="florin" unicode="&#x192;" horiz-adv-x="1160" d="M746 956 C762 1058 815 1096 903 1096 C963 1096 1008 1081 1033 1072 L1100 1306 C1054 1326 993 1349 881 1349 C617 1349 457 1198 421 972 L392 787 L232 778 L232 560 L355 560 L263 -24 C247 -126 195 -164 107 -164 C47 -164 2 -149 -23 -140 L-90 -374 C-44 -394 17 -417 129 -417 C395 -417 553 -266 589 -40 L684 560 L930 560 L930 798 L721 798 L746 956 Z " />
<glyph glyph-name="Aringacute" unicode="&#x1fa;" horiz-adv-x="1341" d="M1341 0 L821 1330 L519 1330 L0 0 L350 0 L447 279 L894 279 L991 0 L1341 0 Z M665 908 L675 908 L807 527 L533 527 L665 908 Z M467 1593 C467 1473 546 1408 661 1408 C789 1408 873 1472 873 1611 C873 1731 794 1796 679 1796 C551 1796 467 1731 467 1593 L467 1593 Z M629 1600 C629 1629 646 1643 672 1643 C695 1643 711 1629 711 1604 C711 1575 694 1561 668 1561 C645 1561 629 1575 629 1600 L629 1600 Z M473 1786 L909 1923 L796 2139 L408 1910 L473 1786 Z " />
<glyph glyph-name="aringacute" unicode="&#x1fb;" horiz-adv-x="961" d="M836 705 C836 924 692 1044 430 1044 C291 1044 137 990 62 949 L120 719 C180 747 287 781 387 781 C488 781 528 742 528 654 L528 562 C219 597 20 497 20 270 C20 96 154 -20 355 -20 C438 -20 526 13 598 72 C638 2 712 -20 789 -20 C860 -20 921 -6 971 15 L946 239 C928 234 907 228 881 228 C853 228 836 244 836 284 L836 705 Z M324 301 C324 378 396 415 528 392 L528 239 C495 222 456 210 420 210 C362 210 324 242 324 301 L324 301 Z M244 1480 L680 1617 L567 1833 L179 1604 L244 1480 Z M239 1287 C239 1167 318 1102 433 1102 C561 1102 645 1166 645 1305 C645 1425 566 1490 451 1490 C323 1490 239 1425 239 1287 L239 1287 Z M401 1294 C401 1323 418 1337 444 1337 C467 1337 483 1323 483 1298 C483 1269 466 1255 440 1255 C417 1255 401 1269 401 1294 L401 1294 Z " />
<glyph glyph-name="AEacute" unicode="&#x1fc;" horiz-adv-x="1929" d="M1001 0 L1849 0 L1849 268 L1319 268 L1319 542 L1799 542 L1799 800 L1319 800 L1319 1062 L1829 1062 L1829 1330 L971 1330 L-10 0 L339 0 L545 279 L1001 279 L1001 0 Z M1165 1447 L1726 1603 L1603 1873 L1096 1598 L1165 1447 Z M1001 897 L1001 527 L728 527 L1001 897 Z " />
<glyph glyph-name="aeacute" unicode="&#x1fd;" horiz-adv-x="1468" d="M1402 453 C1420 501 1433 566 1433 659 C1433 883 1287 1044 1025 1044 C906 1044 804 1007 724 942 C655 1008 552 1044 420 1044 C281 1044 127 990 52 949 L110 719 C170 747 277 781 377 781 C482 781 523 742 523 654 L523 580 C241 582 20 496 20 285 C20 89 154 -20 345 -20 C468 -20 595 39 690 115 C775 29 894 -20 1025 -20 C1219 -20 1345 35 1408 67 L1339 299 C1279 276 1190 243 1066 243 C935 243 856 302 841 436 L1402 453 Z M508 1147 L1069 1303 L946 1573 L439 1298 L508 1147 Z M844 601 C853 740 907 806 1000 806 C1095 806 1139 725 1119 610 L844 601 Z M324 311 C324 387 388 430 523 426 L523 239 C488 222 448 210 410 210 C362 210 324 242 324 311 L324 311 Z " />
<glyph glyph-name="Oslashacute" unicode="&#x1fe;" horiz-adv-x="1436" d="M280 -161 L407 39 C494 0 596 -20 712 -20 C1130 -20 1381 263 1381 669 C1381 906 1301 1097 1152 1215 L1283 1422 L1156 1491 L1029 1290 C942 1329 840 1350 724 1350 C306 1350 55 1067 55 661 C55 424 135 233 284 114 L153 -92 L280 -161 Z M408 676 C408 942 536 1092 713 1092 C774 1092 827 1075 872 1044 L465 401 C428 473 408 566 408 676 L408 676 Z M723 238 C662 238 608 255 563 286 L970 928 C1007 856 1028 763 1028 654 C1028 388 900 238 723 238 L723 238 Z M472 1447 L1033 1603 L910 1873 L403 1598 L472 1447 Z " />
<glyph glyph-name="oslashacute" unicode="&#x1ff;" horiz-adv-x="1111" d="M549 -20 C883 -20 1076 198 1076 521 C1076 698 1014 844 901 936 L1025 1131 L910 1192 L789 1002 C724 1029 647 1044 562 1044 C228 1044 35 826 35 503 C35 326 96 181 209 89 L85 -106 L200 -167 L320 22 C386 -5 463 -20 549 -20 L549 -20 Z M309 1147 L870 1303 L747 1573 L240 1298 L309 1147 Z M560 218 C520 218 488 227 462 245 L722 655 C733 612 738 562 738 506 C738 339 692 218 560 218 L560 218 Z M373 518 C373 685 419 806 551 806 C590 806 622 796 647 779 L388 370 C377 413 373 462 373 518 L373 518 Z " />
<glyph glyph-name="Scommaaccent" unicode="&#x218;" horiz-adv-x="1095" d="M90 80 C159 31 335 -20 501 -20 C834 -20 1025 118 1025 365 C1025 544 941 653 739 748 L545 838 C484 866 440 895 442 961 C444 1016 487 1065 614 1065 C729 1065 858 1017 928 983 L988 1245 C929 1278 806 1350 588 1350 C311 1350 99 1189 99 947 C99 748 205 640 379 562 L552 485 C645 440 677 407 677 349 C677 290 622 263 493 263 C365 263 210 320 162 345 L90 80 Z M495 -303 C495 -371 421 -409 354 -420 L406 -571 C626 -553 780 -465 780 -299 C780 -202 710 -120 669 -89 L415 -145 C437 -166 495 -225 495 -303 L495 -303 Z " />
<glyph glyph-name="scommaaccent" unicode="&#x219;" horiz-adv-x="896" d="M65 58 C147 17 272 -20 436 -20 C711 -20 841 103 841 292 C841 444 762 534 597 597 L519 627 C423 664 376 684 376 732 C376 786 440 796 489 796 C577 796 692 760 766 734 L816 971 C699 1031 568 1044 469 1044 C224 1044 69 912 69 709 C69 564 146 466 327 401 L397 376 C467 351 534 331 534 283 C534 241 484 228 405 228 C312 228 193 264 128 294 L65 58 Z M387 -303 C387 -371 313 -409 246 -420 L298 -571 C518 -553 672 -465 672 -299 C672 -202 602 -120 561 -89 L307 -145 C329 -166 387 -225 387 -303 L387 -303 Z " />
<glyph glyph-name="Tcommaaccent" unicode="&#x21a;" horiz-adv-x="1090" d="M381 0 L709 0 L709 1062 L1080 1062 L1080 1330 L10 1330 L10 1062 L381 1062 L381 0 Z M461 -303 C461 -371 387 -409 320 -420 L372 -571 C592 -553 746 -465 746 -299 C746 -202 676 -120 635 -89 L381 -145 C403 -166 461 -225 461 -303 L461 -303 Z " />
<glyph glyph-name="tcommaaccent" unicode="&#x21b;" horiz-adv-x="774" d="M462 1270 L189 1251 L160 1014 L0 1004 L0 786 L138 786 L138 347 C138 81 234 -20 498 -20 C596 -20 708 6 764 31 L728 269 C699 258 639 243 580 243 C498 243 466 276 466 383 L466 786 L720 786 L720 1024 L462 1024 L462 1270 Z M354 -303 C354 -371 280 -409 213 -420 L265 -571 C485 -553 639 -465 639 -299 C639 -202 569 -120 528 -89 L274 -145 C296 -166 354 -225 354 -303 L354 -303 Z " />
<glyph glyph-name="dotlessj" unicode="&#x237;" horiz-adv-x="578" d="M135 1024 L135 -32 C135 -125 95 -163 10 -163 C-38 -163 -72 -151 -95 -143 L-133 -377 C-91 -397 -30 -416 62 -416 C324 -416 463 -285 463 -13 L463 1024 L135 1024 Z " />
<glyph glyph-name="apostrophe" unicode="&#x2bc;" horiz-adv-x="431" d="M112 1248 C112 1146 87 1048 66 1003 L227 953 C284 1000 371 1133 371 1280 C371 1415 322 1494 294 1531 L50 1470 C76 1427 112 1340 112 1248 L112 1248 Z " />
<glyph glyph-name="circumflex" unicode="&#x2c6;" horiz-adv-x="982" d="M867 1315 C766 1383 613 1488 491 1575 C369 1488 216 1383 115 1315 L274 1125 C341 1176 435 1257 491 1310 C547 1257 641 1176 708 1125 L867 1315 Z " />
<glyph glyph-name="caron" unicode="&#x2c7;" horiz-adv-x="986" d="M115 1395 C241 1320 406 1204 493 1108 C580 1204 745 1320 871 1395 L728 1593 C646 1542 546 1451 493 1388 C440 1451 340 1542 258 1593 L115 1395 Z " />
<glyph glyph-name="breve" unicode="&#x2d8;" horiz-adv-x="846" d="M121 1515 C81 1226 274 1146 423 1146 C572 1146 765 1226 725 1515 L502 1515 C513 1430 495 1356 423 1356 C351 1356 333 1430 344 1515 L121 1515 Z " />
<glyph glyph-name="dotaccent" unicode="&#x2d9;" horiz-adv-x="588" d="M115 1341 C115 1232 185 1172 285 1172 C398 1172 473 1231 473 1359 C473 1468 403 1528 303 1528 C190 1528 115 1468 115 1341 L115 1341 Z " />
<glyph glyph-name="ring" unicode="&#x2da;" horiz-adv-x="752" d="M115 1339 C115 1191 217 1112 365 1112 C527 1112 637 1190 637 1361 C637 1509 535 1588 387 1588 C225 1588 115 1509 115 1339 L115 1339 Z M310 1347 C310 1394 337 1416 379 1416 C417 1416 442 1394 442 1353 C442 1306 415 1284 373 1284 C335 1284 310 1306 310 1347 L310 1347 Z " />
<glyph glyph-name="ogonek" unicode="&#x2db;" horiz-adv-x="734" d="M356 20 C316 -4 190 -115 190 -237 C190 -443 349 -502 501 -502 C600 -502 696 -466 729 -440 L679 -233 C648 -248 602 -267 550 -267 C496 -267 456 -239 456 -172 C456 -110 500 -45 552 0 L356 20 Z " />
<glyph glyph-name="tilde" unicode="&#x2dc;" horiz-adv-x="1015" d="M270 1181 C317 1238 339 1268 381 1268 C448 1268 531 1190 617 1190 C779 1190 869 1312 900 1419 L745 1529 C696 1472 673 1442 631 1442 C569 1442 485 1520 382 1520 C223 1520 137 1377 115 1290 L270 1181 Z " />
<glyph glyph-name="hungarumlaut" unicode="&#x2dd;" horiz-adv-x="1037" d="M272 1115 L570 1476 L347 1613 L115 1208 L272 1115 Z M624 1125 L922 1486 L699 1623 L467 1218 L624 1125 Z " />
<glyph glyph-name="acutecomb" unicode="&#x301;" horiz-adv-x="731" d="M180 1480 L616 1617 L503 1833 L115 1604 L180 1480 Z " />
<glyph glyph-name="dotaccentcmb" unicode="&#x307;" horiz-adv-x="518" d="M80 681 C80 572 150 512 250 512 C363 512 438 571 438 699 C438 808 368 868 268 868 C155 868 80 808 80 681 L80 681 Z " />
<glyph glyph-name="ringcomb" unicode="&#x30a;" horiz-adv-x="636" d="M115 1287 C115 1167 194 1102 309 1102 C437 1102 521 1166 521 1305 C521 1425 442 1490 327 1490 C199 1490 115 1425 115 1287 L115 1287 Z M277 1294 C277 1323 294 1337 320 1337 C343 1337 359 1323 359 1298 C359 1269 342 1255 316 1255 C293 1255 277 1269 277 1294 L277 1294 Z " />
<glyph glyph-name="&amp;#x394;" unicode="&#x394;" horiz-adv-x="1309" d="M1309 0 L1309 228 L795 1330 L514 1330 L0 228 L0 0 L1309 0 Z M654 957 L959 268 L350 268 L654 957 Z " />
<glyph glyph-name="&amp;#x2206;" unicode="&#x2206;" horiz-adv-x="1309" d="M1309 0 L1309 228 L795 1330 L514 1330 L0 228 L0 0 L1309 0 Z M654 957 L959 268 L350 268 L654 957 Z " />
<glyph glyph-name="&amp;#x3a9;" unicode="&#x3a9;" horiz-adv-x="1471" d="M662 219 C511 286 415 472 415 714 C415 941 548 1092 728 1092 C925 1092 1056 941 1056 694 C1056 462 970 286 809 220 L809 0 L1416 0 L1416 248 L1175 248 C1297 320 1409 484 1409 719 C1409 1069 1142 1350 741 1350 C340 1350 62 1069 62 694 C62 484 174 320 294 248 L55 248 L55 0 L662 0 L662 219 Z " />
<glyph glyph-name="&amp;#x2126;" unicode="&#x2126;" horiz-adv-x="1471" d="M662 219 C511 286 415 472 415 714 C415 941 548 1092 728 1092 C925 1092 1056 941 1056 694 C1056 462 970 286 809 220 L809 0 L1416 0 L1416 248 L1175 248 C1297 320 1409 484 1409 719 C1409 1069 1142 1350 741 1350 C340 1350 62 1069 62 694 C62 484 174 320 294 248 L55 248 L55 0 L662 0 L662 219 Z " />
<glyph glyph-name="pi" unicode="&#x3c0;" horiz-adv-x="1505" d="M68 747 C101 766 168 786 274 786 L295 786 L295 640 C295 300 155 0 155 0 L473 0 C473 0 613 278 613 633 L613 786 L887 786 C850 691 809 547 809 397 C809 139 973 -20 1209 -20 C1311 -20 1397 3 1445 28 L1409 266 C1388 258 1341 243 1291 243 C1198 243 1137 306 1137 433 C1137 551 1162 678 1198 786 L1437 786 L1437 1024 L284 1024 C136 1024 39 976 0 945 L68 747 Z " />
<glyph glyph-name="uni0E3F" unicode="&#xe3f;" horiz-adv-x="1272" d="M446 1496 L471 1256 L210 1256 L210 76 L473 76 L449 -166 L709 -166 L684 77 C950 90 1122 232 1122 443 C1122 578 1026 678 923 718 C1001 764 1059 842 1059 937 C1059 1136 919 1239 681 1254 L706 1496 L446 1496 Z M621 569 C725 569 781 515 781 426 C781 355 727 308 621 308 L506 308 L506 569 L621 569 Z M506 1024 L603 1024 C694 1024 743 976 743 902 C743 857 726 818 691 787 L506 787 L506 1024 Z " />
<glyph glyph-name="Wgrave" unicode="&#x1e80;" horiz-adv-x="1856" d="M1471 1330 L1288 427 L1278 427 L1060 1310 L796 1310 L578 427 L568 427 L385 1330 L20 1330 L348 0 L730 0 L928 712 L1126 0 L1509 0 L1836 1330 L1471 1330 Z M1243 1604 L736 1879 L613 1609 L1174 1453 L1243 1604 Z " />
<glyph glyph-name="wgrave" unicode="&#x1e81;" horiz-adv-x="1610" d="M1267 1024 L1113 344 L1103 344 L949 1014 L661 1014 L507 344 L497 344 L343 1024 L-10 1024 L271 0 L683 0 L805 482 L927 0 L1339 0 L1620 1024 L1267 1024 Z M1090 1298 L583 1573 L460 1303 L1021 1147 L1090 1298 Z " />
<glyph glyph-name="Wacute" unicode="&#x1e82;" horiz-adv-x="1856" d="M1471 1330 L1288 427 L1278 427 L1060 1310 L796 1310 L578 427 L568 427 L385 1330 L20 1330 L348 0 L730 0 L928 712 L1126 0 L1509 0 L1836 1330 L1471 1330 Z M742 1453 L1303 1609 L1180 1879 L673 1604 L742 1453 Z " />
<glyph glyph-name="wacute" unicode="&#x1e83;" horiz-adv-x="1610" d="M1267 1024 L1113 344 L1103 344 L949 1014 L661 1014 L507 344 L497 344 L343 1024 L-10 1024 L271 0 L683 0 L805 482 L927 0 L1339 0 L1620 1024 L1267 1024 Z M579 1147 L1140 1303 L1017 1573 L510 1298 L579 1147 Z " />
<glyph glyph-name="Wdieresis" unicode="&#x1e84;" horiz-adv-x="1856" d="M1471 1330 L1288 427 L1278 427 L1060 1310 L796 1310 L578 427 L568 427 L385 1330 L20 1330 L348 0 L730 0 L928 712 L1126 0 L1509 0 L1836 1330 L1471 1330 Z M521 1647 C521 1538 591 1478 691 1478 C804 1478 879 1537 879 1665 C879 1774 809 1834 709 1834 C596 1834 521 1774 521 1647 L521 1647 Z M977 1647 C977 1538 1047 1478 1147 1478 C1260 1478 1335 1537 1335 1665 C1335 1774 1265 1834 1165 1834 C1052 1834 977 1774 977 1647 L977 1647 Z " />
<glyph glyph-name="wdieresis" unicode="&#x1e85;" horiz-adv-x="1610" d="M1267 1024 L1113 344 L1103 344 L949 1014 L661 1014 L507 344 L497 344 L343 1024 L-10 1024 L271 0 L683 0 L805 482 L927 0 L1339 0 L1620 1024 L1267 1024 Z M854 1341 C854 1232 924 1172 1024 1172 C1137 1172 1212 1231 1212 1359 C1212 1468 1142 1528 1042 1528 C929 1528 854 1468 854 1341 L854 1341 Z M398 1341 C398 1232 468 1172 568 1172 C681 1172 756 1231 756 1359 C756 1468 686 1528 586 1528 C473 1528 398 1468 398 1341 L398 1341 Z " />
<glyph glyph-name="Germandbls" unicode="&#x1e9e;" horiz-adv-x="1288" d="M443 857 C443 980 517 1041 627 1041 L839 1041 L596 648 L606 530 C806 562 921 530 921 373 C921 281 863 228 782 228 C694 228 620 252 600 259 L557 25 C602 1 690 -20 813 -20 C1066 -20 1248 104 1248 383 C1248 587 1102 701 948 722 L1190 1099 L1190 1330 L645 1330 C280 1330 115 1111 115 873 L115 0 L443 0 L443 857 Z " />
<glyph glyph-name="Ygrave" unicode="&#x1ef2;" horiz-adv-x="1222" d="M447 0 L775 0 L775 494 L1222 1330 L866 1330 L611 803 L356 1330 L0 1330 L447 494 L447 0 Z M876 1598 L369 1873 L246 1603 L807 1447 L876 1598 Z " />
<glyph glyph-name="ygrave" unicode="&#x1ef3;" horiz-adv-x="1114" d="M746 1024 L578 324 L568 324 L363 1024 L0 1024 L361 60 L410 -33 C393 -123 327 -163 246 -163 C157 -163 94 -141 71 -133 L23 -367 C69 -387 167 -416 268 -416 C527 -416 689 -300 777 -20 L1104 1024 L746 1024 Z M826 1298 L319 1573 L196 1303 L757 1147 L826 1298 Z " />
<glyph glyph-name="endash" unicode="&#x2013;" horiz-adv-x="1181" d="M115 404 L1066 404 L1066 661 L115 661 L115 404 Z " />
<glyph glyph-name="emdash" unicode="&#x2014;" horiz-adv-x="1783" d="M115 404 L1668 404 L1668 661 L115 661 L115 404 Z " />
<glyph glyph-name="quoteleft" unicode="&#x2018;" horiz-adv-x="456" d="M270 1196 C270 1296 343 1361 421 1403 L308 1529 C136 1463 10 1350 10 1173 C10 1041 90 944 144 903 L389 972 C342 1015 270 1088 270 1196 L270 1196 Z " />
<glyph glyph-name="quoteright" unicode="&#x2019;" horiz-adv-x="486" d="M176 1236 C176 1136 103 1071 25 1029 L138 903 C310 969 436 1082 436 1259 C436 1391 356 1488 302 1529 L57 1460 C104 1417 176 1344 176 1236 L176 1236 Z " />
<glyph glyph-name="quotesinglbase" unicode="&#x201a;" horiz-adv-x="491" d="M161 43 C161 -57 88 -122 10 -164 L123 -290 C295 -224 421 -111 421 66 C421 198 341 295 287 336 L42 267 C89 224 161 151 161 43 L161 43 Z " />
<glyph glyph-name="quotedblleft" unicode="&#x201c;" horiz-adv-x="875" d="M260 1178 C260 1278 333 1343 411 1385 L308 1511 C136 1445 10 1332 10 1155 C10 1023 90 926 144 885 L379 954 C332 997 260 1070 260 1178 L260 1178 Z M689 1198 C689 1298 762 1363 840 1405 L737 1531 C565 1465 439 1352 439 1175 C439 1043 519 946 573 905 L808 974 C761 1017 689 1090 689 1198 L689 1198 Z " />
<glyph glyph-name="quotedblright" unicode="&#x201d;" horiz-adv-x="905" d="M605 1238 C605 1138 532 1073 454 1031 L557 905 C729 971 855 1084 855 1261 C855 1393 775 1490 721 1531 L486 1462 C533 1419 605 1346 605 1238 L605 1238 Z M176 1218 C176 1118 103 1053 25 1011 L128 885 C300 951 426 1064 426 1241 C426 1373 346 1470 292 1511 L57 1442 C104 1399 176 1326 176 1218 L176 1218 Z " />
<glyph glyph-name="quotedblbase" unicode="&#x201e;" horiz-adv-x="910" d="M590 63 C590 -37 517 -102 439 -144 L542 -270 C714 -204 840 -91 840 86 C840 218 760 315 706 356 L471 287 C518 244 590 171 590 63 L590 63 Z M161 43 C161 -57 88 -122 10 -164 L113 -290 C285 -224 411 -111 411 66 C411 198 331 295 277 336 L42 267 C89 224 161 151 161 43 L161 43 Z " />
<glyph glyph-name="dagger" unicode="&#x2020;" horiz-adv-x="1236" d="M442 1593 L453 1098 L80 1114 L80 827 L459 843 L487 -324 L748 -324 L775 843 L1156 827 L1156 1114 L781 1098 L793 1593 L442 1593 Z " />
<glyph glyph-name="daggerdbl" unicode="&#x2021;" horiz-adv-x="1216" d="M783 -324 L766 97 L1136 81 L1136 368 L756 351 L745 635 L757 935 L1136 919 L1136 1206 L767 1190 L783 1593 L432 1593 L448 1190 L80 1206 L80 919 L458 935 L469 635 L458 351 L80 368 L80 81 L448 97 L432 -324 L783 -324 Z " />
<glyph glyph-name="bullet" unicode="&#x2022;" horiz-adv-x="787" d="M110 672 C110 502 219 409 374 409 C550 409 667 501 667 700 C667 869 558 963 402 963 C227 963 110 869 110 672 L110 672 Z " />
<glyph glyph-name="ellipsis" unicode="&#x2026;" horiz-adv-x="1670" d="M80 149 C80 40 150 -20 250 -20 C363 -20 438 39 438 167 C438 276 368 336 268 336 C155 336 80 276 80 149 L80 149 Z M656 149 C656 40 726 -20 826 -20 C939 -20 1014 39 1014 167 C1014 276 944 336 844 336 C731 336 656 276 656 149 L656 149 Z M1232 149 C1232 40 1302 -20 1402 -20 C1515 -20 1590 39 1590 167 C1590 276 1520 336 1420 336 C1307 336 1232 276 1232 149 L1232 149 Z " />
<glyph glyph-name="perthousand" unicode="&#x2030;" horiz-adv-x="1838" d="M1485 -20 C1681 -20 1808 111 1808 295 C1808 465 1681 599 1498 599 C1400 599 1335 566 1290 506 C1246 566 1184 599 1092 599 C897 599 769 467 769 283 C769 114 897 -20 1079 -20 C1177 -20 1242 12 1287 72 C1331 13 1393 -20 1485 -20 L1485 -20 Z M1088 177 C1031 177 1003 226 1003 292 C1003 354 1031 401 1082 401 C1141 401 1168 352 1168 286 C1168 224 1139 177 1088 177 L1088 177 Z M1494 177 C1437 177 1409 226 1409 292 C1409 354 1437 401 1488 401 C1547 401 1574 352 1574 286 C1574 224 1545 177 1494 177 L1494 177 Z M1160 1360 L139 97 L303 -20 L1324 1243 L1160 1360 Z M370 731 C569 731 698 852 698 1046 C698 1226 569 1350 383 1350 C185 1350 55 1228 55 1034 C55 855 185 731 370 731 L370 731 Z M379 928 C324 928 299 976 299 1043 C299 1105 324 1152 373 1152 C429 1152 454 1104 454 1037 C454 975 428 928 379 928 L379 928 Z " />
<glyph glyph-name="guilsinglleft" unicode="&#x2039;" horiz-adv-x="781" d="M527 1022 C391 840 222 642 90 512 C222 382 391 184 527 2 L751 165 C670 282 558 403 440 512 C558 621 670 742 751 859 L527 1022 Z " />
<glyph glyph-name="guilsinglright" unicode="&#x203a;" horiz-adv-x="781" d="M274 1 C410 183 579 381 711 511 C579 641 410 839 274 1021 L50 858 C131 741 243 620 361 511 C243 402 131 281 50 164 L274 1 Z " />
<glyph glyph-name="interrobang" unicode="&#x203d;" horiz-adv-x="822" d="M197 549 C197 478 219 450 231 430 L459 447 L457 478 C453 547 517 610 586 675 C663 747 787 866 787 998 C787 1194 634 1350 365 1350 C186 1350 68 1298 10 1266 L70 1039 C101 1054 206 1092 313 1092 C421 1092 470 1045 470 965 C470 917 419 857 365 803 L365 963 L231 963 L231 657 C209 623 197 588 197 549 L197 549 Z M177 149 C177 40 247 -20 347 -20 C460 -20 535 39 535 167 C535 276 465 336 365 336 C252 336 177 276 177 149 L177 149 Z " />
<glyph glyph-name="fraction" unicode="&#x2044;" horiz-adv-x="1205" d="M1031 1360 L10 97 L174 -20 L1195 1243 L1031 1360 Z " />
<glyph glyph-name="zerosuperior" unicode="&#x2070;" horiz-adv-x="673" d="M345 731 C544 731 673 852 673 1046 C673 1226 544 1350 358 1350 C160 1350 30 1228 30 1034 C30 855 160 731 345 731 L345 731 Z M354 928 C299 928 274 976 274 1043 C274 1105 299 1152 348 1152 C404 1152 429 1104 429 1037 C429 975 403 928 354 928 L354 928 Z " />
<glyph glyph-name="foursuperior" unicode="&#x2074;" horiz-adv-x="592" d="M283 1330 L15 978 L15 841 L273 841 L273 751 L489 751 L489 841 L577 841 L577 994 L489 994 L489 1330 L283 1330 Z M205 994 L273 1087 L273 994 L205 994 Z " />
<glyph glyph-name="franc" unicode="&#x20a3;" horiz-adv-x="1217" d="M229 0 L557 0 L557 214 L806 214 L806 357 L557 357 L557 527 L1017 527 L1017 785 L557 785 L557 1062 L1087 1062 L1087 1330 L229 1330 L229 357 L100 357 L100 214 L229 214 L229 0 Z " />
<glyph glyph-name="lira" unicode="&#x20a4;" horiz-adv-x="1239" d="M909 605 L142 605 L142 462 L301 462 C301 395 295 321 279 245 C230 236 162 209 126 185 L183 -2 L350 -30 C389 -15 428 20 428 20 C545 13 654 -20 788 -20 C985 -20 1116 76 1129 310 L921 363 C899 285 875 231 769 233 C713 233 656 242 594 252 C611 324 619 396 621 462 L909 462 L909 605 Z M889 869 L577 869 C575 894 574 919 574 945 C574 1045 630 1087 723 1087 C824 1087 939 1043 958 1035 L1018 1272 C968 1300 861 1350 719 1350 C416 1350 254 1190 254 931 C254 909 254 889 255 869 L122 869 L122 726 L889 726 L889 869 Z " />
<glyph glyph-name="won" unicode="&#x20a9;" horiz-adv-x="2122" d="M1962 723 L1785 723 L1813 845 L2042 845 L2042 968 L1841 968 L1925 1330 L1580 1330 L1518 968 L1262 968 L1179 1310 L935 1310 L851 968 L596 968 L534 1330 L189 1330 L273 968 L80 968 L80 845 L301 845 L329 723 L162 723 L162 600 L358 600 L497 0 L869 0 L1057 742 L1245 0 L1618 0 L1756 600 L1962 600 L1962 723 Z M617 845 L821 845 L791 723 L638 723 L617 845 Z M1292 845 L1497 845 L1476 723 L1322 723 L1292 845 Z M1407 377 L1352 600 L1455 600 L1417 377 L1407 377 Z M697 377 L659 600 L761 600 L707 377 L697 377 Z " />
<glyph glyph-name="Euro" unicode="&#x20ac;" horiz-adv-x="1396" d="M980 605 L115 605 L115 462 L236 462 C306 156 547 -20 912 -20 C1042 -20 1186 19 1276 73 L1197 315 C1106 273 1000 253 903 253 C764 253 658 330 605 462 L980 462 L980 605 Z M980 869 L600 869 C650 1003 761 1077 923 1077 C1011 1077 1096 1060 1184 1025 L1253 1272 C1175 1318 1035 1350 912 1350 C563 1350 317 1165 240 869 L115 869 L115 726 L980 726 L980 869 Z " />
<glyph glyph-name="uni20B1" unicode="&#x20b1;" horiz-adv-x="1359" d="M65 915 L205 915 L205 852 L65 852 L65 759 L205 759 L205 0 L533 0 L533 446 L679 446 C913 446 1104 552 1161 759 L1309 759 L1309 852 L1177 852 C1178 866 1179 881 1179 896 C1179 902 1178 908 1178 915 L1309 915 L1309 1008 L1169 1008 C1127 1227 951 1330 659 1330 L205 1330 L205 1008 L65 1008 L65 915 Z M836 883 C836 872 835 862 834 852 L533 852 L533 915 L834 915 C835 905 836 894 836 883 L836 883 Z M649 694 L533 694 L533 759 L803 759 C773 717 723 694 649 694 L649 694 Z M669 1068 C728 1068 774 1047 802 1008 L533 1008 L533 1068 L669 1068 Z " />
<glyph glyph-name="uni20B9" unicode="&#x20b9;" horiz-adv-x="1160" d="M160 482 L566 0 L988 0 L536 502 C707 547 823 669 850 830 L1009 830 L1009 953 L854 953 C845 1062 806 1146 739 1207 L1050 1207 L1050 1330 L161 1330 L161 1078 L326 1078 C425 1078 493 1034 515 953 L170 953 L170 830 L515 830 C494 753 427 720 336 720 L160 720 L160 482 Z " />
<glyph glyph-name="uni20BA" unicode="&#x20ba;" horiz-adv-x="1244" d="M180 640 L301 714 L301 627 L95 501 L170 380 L301 460 L301 0 L569 0 C906 0 1148 247 1138 561 L827 532 C831 401 752 292 629 275 L629 660 L876 811 L800 932 L629 827 L629 914 L886 1071 L810 1192 L629 1081 L629 1330 L301 1330 L301 881 L105 761 L180 640 Z " />
<glyph glyph-name="afii61289" unicode="&#x2113;" horiz-adv-x="867" d="M80 974 L80 347 C80 81 252 -20 500 -20 C644 -20 772 36 806 63 L750 289 C717 276 639 243 552 243 C460 243 398 276 398 383 L398 451 C569 538 827 720 827 976 C827 1205 679 1350 453 1350 C213 1350 81 1201 80 974 L80 974 Z M398 982 C398 1081 422 1112 462 1112 C499 1112 519 1074 519 1001 C519 868 460 785 398 733 L398 982 Z " />
<glyph glyph-name="trademark" unicode="&#x2122;" horiz-adv-x="786" d="M30 1258 L105 1258 L105 1024 L213 1024 L213 1258 L288 1258 L288 1350 L30 1350 L30 1258 Z M322 1024 L431 1024 L431 1244 L493 1024 L585 1024 L647 1244 L647 1024 L756 1024 L756 1350 L581 1350 L539 1150 L497 1350 L322 1350 L322 1024 Z " />
<glyph glyph-name="estimated" unicode="&#x212e;" horiz-adv-x="1822" d="M1672 632 L1672 654 C1672 1033 1330 1350 910 1350 C492 1350 150 1043 150 664 C150 284 482 -20 910 -20 C1165 -20 1378 88 1513 247 L1403 247 C1282 120 1110 52 912 52 C731 52 562 108 446 227 C435 240 429 255 429 271 L429 622 C429 629 432 632 439 632 L1672 632 Z M1392 711 C1392 703 1389 699 1384 699 L439 699 C432 699 429 703 429 711 L429 1057 C429 1076 435 1092 448 1105 C564 1222 729 1278 912 1278 C1091 1278 1259 1220 1373 1105 C1386 1093 1392 1080 1392 1061 L1392 711 Z " />
<glyph glyph-name="ornm17.ornm" unicode="&#x2190;" horiz-adv-x="1858" d="M814 1339 L140 665 L814 -9 L989 165 L617 537 L1718 537 L1718 794 L618 794 L989 1164 L814 1339 Z " />
<glyph glyph-name="arrowup" unicode="&#x2191;" horiz-adv-x="1628" d="M943 -226 L943 811 L1313 441 L1488 616 L814 1290 L140 616 L314 441 L686 813 L686 -226 L943 -226 Z " />
<glyph glyph-name="ornm18.ornm" unicode="&#x2192;" horiz-adv-x="1858" d="M160 537 L1261 537 L889 165 L1064 -9 L1738 665 L1064 1339 L889 1164 L1259 794 L160 794 L160 537 Z " />
<glyph glyph-name="arrowdown" unicode="&#x2193;" horiz-adv-x="1628" d="M1313 623 L943 252 L943 1290 L686 1290 L686 251 L314 623 L140 448 L814 -226 L1488 448 L1313 623 Z " />
<glyph glyph-name="ornm19.ornm" unicode="&#x2196;" horiz-adv-x="1501" d="M1163 1330 L210 1330 L210 377 L457 377 L457 902 L1179 180 L1361 362 L639 1083 L1163 1083 L1163 1330 Z " />
<glyph glyph-name="ornm20.ornm" unicode="&#x2197;" horiz-adv-x="1501" d="M342 180 L1064 902 L1064 377 L1311 377 L1311 1330 L358 1330 L358 1083 L882 1083 L160 362 L342 180 Z " />
<glyph glyph-name="ornm22.ornm" unicode="&#x2198;" horiz-adv-x="1501" d="M160 928 L882 207 L358 207 L358 -40 L1311 -40 L1311 913 L1064 913 L1064 388 L342 1110 L160 928 Z " />
<glyph glyph-name="ornm21.ornm" unicode="&#x2199;" horiz-adv-x="1501" d="M1163 207 L639 207 L1361 928 L1179 1110 L457 388 L457 913 L210 913 L210 -40 L1163 -40 L1163 207 Z " />
<glyph glyph-name="partialdiff" unicode="&#x2202;" horiz-adv-x="1279" d="M571 1092 C757 1092 856 986 871 820 C825 846 752 864 655 864 C311 864 90 655 90 374 C90 112 305 -20 582 -20 C1041 -20 1204 330 1204 697 C1204 1043 1047 1350 594 1350 C411 1350 252 1273 220 1253 L302 1034 C344 1053 459 1092 571 1092 L571 1092 Z M581 218 C482 218 428 283 428 375 C428 521 521 626 656 626 C739 626 815 602 857 565 C830 346 736 218 581 218 L581 218 Z " />
<glyph glyph-name="product" unicode="&#x220f;" horiz-adv-x="1446" d="M1003 -155 L1331 -155 L1331 1485 L115 1485 L115 -155 L443 -155 L443 1217 L1003 1217 L1003 -155 Z " />
<glyph glyph-name="summation" unicode="&#x2211;" horiz-adv-x="1222" d="M1127 1484 L95 1484 L95 1237 L485 665 L95 92 L95 -155 L1127 -155 L1127 112 L450 112 L837 665 L450 1217 L1127 1217 L1127 1484 Z " />
<glyph glyph-name="minus" unicode="&#x2212;" horiz-adv-x="1071" d="M130 536 L941 536 L941 793 L130 793 L130 536 Z " />
<glyph glyph-name="uni2215" unicode="&#x2215;" horiz-adv-x="1205" d="M1031 1360 L10 97 L174 -20 L1195 1243 L1031 1360 Z " />
<glyph glyph-name="bulletoperator" unicode="&#x2219;" horiz-adv-x="423" d="M80 504 C80 395 150 335 250 335 C363 335 438 394 438 522 C438 631 368 691 268 691 C155 691 80 631 80 504 L80 504 Z " />
<glyph glyph-name="radical" unicode="&#x221a;" horiz-adv-x="1495" d="M50 636 L330 636 L617 0 L893 0 L1495 1485 L1157 1485 L748 429 L552 903 L50 903 L50 636 Z " />
<glyph glyph-name="infinity" unicode="&#x221e;" horiz-adv-x="1744" d="M872 485 C957 397 1073 305 1228 305 C1457 305 1634 441 1634 665 C1634 890 1457 1024 1228 1024 C1073 1024 957 932 872 844 C787 932 671 1024 516 1024 C287 1024 110 890 110 665 C110 441 287 305 516 305 C671 305 787 397 872 485 L872 485 Z M1220 537 C1147 537 1080 593 1015 665 C1080 736 1147 792 1220 792 C1287 792 1351 746 1351 665 C1351 584 1287 537 1220 537 L1220 537 Z M524 537 C457 537 393 584 393 665 C393 746 457 792 524 792 C597 792 664 736 729 665 C664 593 597 537 524 537 L524 537 Z " />
<glyph glyph-name="integral" unicode="&#x222b;" horiz-adv-x="891" d="M318 204 C325 116 270 78 184 78 C124 78 76 93 50 102 L0 -132 C53 -152 124 -175 246 -175 C504 -175 660 -23 644 190 L573 1126 C566 1214 621 1252 707 1252 C767 1252 815 1237 841 1228 L891 1462 C838 1482 767 1505 645 1505 C387 1505 231 1353 247 1140 L318 204 Z " />
<glyph glyph-name="approxequal" unicode="&#x2248;" horiz-adv-x="1126" d="M243 329 C277 357 348 403 404 403 C505 403 597 338 714 338 C839 338 954 405 1016 490 L913 655 C873 627 800 591 722 591 C601 591 509 656 412 656 C299 656 196 579 140 494 L243 329 Z M213 665 C251 693 320 739 394 739 C498 739 593 674 714 674 C835 674 946 741 1006 836 L903 1001 C865 973 796 927 722 927 C618 927 523 992 402 992 C281 992 170 925 110 830 L213 665 Z " />
<glyph glyph-name="notequal" unicode="&#x2260;" horiz-adv-x="1223" d="M130 712 L548 712 L490 620 L130 620 L130 363 L326 363 L209 178 L334 112 L493 363 L1093 363 L1093 620 L657 620 L715 712 L1093 712 L1093 969 L879 969 L996 1153 L871 1219 L712 969 L130 969 L130 712 Z " />
<glyph glyph-name="lessequal" unicode="&#x2264;" horiz-adv-x="1078" d="M160 20 L928 20 L928 257 L160 257 L160 20 Z M767 1350 L140 847 L767 347 L928 537 L539 847 L928 1159 L767 1350 Z " />
<glyph glyph-name="greaterequal" unicode="&#x2265;" horiz-adv-x="1078" d="M918 257 L150 257 L150 20 L918 20 L918 257 Z M150 1159 L539 847 L150 537 L311 347 L938 847 L311 1350 L150 1159 Z " />
<glyph glyph-name="ornm39.ornm" unicode="&#x2460;" horiz-adv-x="1650" d="M611 524 L611 365 L1043 365 L1043 524 L937 523 L937 973 L870 973 C824 966 653 950 607 946 L624 794 L736 802 L736 524 L611 524 Z M140 665 C140 287 447 -20 825 -20 C1203 -20 1510 287 1510 665 C1510 1043 1203 1350 825 1350 C447 1350 140 1043 140 665 L140 665 Z M378 665 C378 913 577 1112 825 1112 C1073 1112 1272 913 1272 665 C1272 417 1073 218 825 218 C577 218 378 417 378 665 L378 665 Z " />
<glyph glyph-name="ornm40.ornm" unicode="&#x2461;" horiz-adv-x="1650" d="M603 365 L1049 365 L1049 524 L856 524 C955 629 1033 706 1033 804 C1033 892 956 973 811 973 C715 973 635 935 599 910 L667 778 C694 793 734 809 772 809 C798 809 821 792 821 766 C821 719 768 659 603 483 L603 365 Z M140 665 C140 287 447 -20 825 -20 C1203 -20 1510 287 1510 665 C1510 1043 1203 1350 825 1350 C447 1350 140 1043 140 665 L140 665 Z M378 665 C378 913 577 1112 825 1112 C1073 1112 1272 913 1272 665 C1272 417 1073 218 825 218 C577 218 378 417 378 665 L378 665 Z " />
<glyph glyph-name="ornm41.ornm" unicode="&#x2462;" horiz-adv-x="1650" d="M845 771 C845 754 838 741 831 733 L705 733 L705 601 L806 601 C843 601 861 582 861 555 C861 531 841 520 798 520 C746 520 699 538 668 551 L611 411 C647 388 722 356 806 356 C967 356 1062 436 1062 545 C1062 606 1025 652 983 680 C1015 705 1046 746 1046 795 C1046 880 975 973 823 973 C757 973 667 947 617 915 L678 781 C703 792 749 808 791 808 C825 808 845 792 845 771 L845 771 Z M140 665 C140 287 447 -20 825 -20 C1203 -20 1510 287 1510 665 C1510 1043 1203 1350 825 1350 C447 1350 140 1043 140 665 L140 665 Z M378 665 C378 913 577 1112 825 1112 C1073 1112 1272 913 1272 665 C1272 417 1073 218 825 218 C577 218 378 417 378 665 L378 665 Z " />
<glyph glyph-name="ornm42.ornm" unicode="&#x2463;" horiz-adv-x="1650" d="M536 613 L536 483 L773 483 L773 365 L961 365 L961 483 L1057 483 L1057 632 L961 632 L961 963 L795 963 L536 613 Z M140 665 C140 287 447 -20 825 -20 C1203 -20 1510 287 1510 665 C1510 1043 1203 1350 825 1350 C447 1350 140 1043 140 665 L140 665 Z M378 665 C378 913 577 1112 825 1112 C1073 1112 1272 913 1272 665 C1272 417 1073 218 825 218 C577 218 378 417 378 665 L378 665 Z M722 633 L784 717 L784 633 L722 633 Z " />
<glyph glyph-name="ornm43.ornm" unicode="&#x2464;" horiz-adv-x="1650" d="M844 565 C844 535 816 520 775 520 C725 520 684 530 646 543 L603 396 C627 383 698 356 791 356 C948 356 1051 436 1052 560 C1052 684 953 748 815 745 L816 804 L1016 804 L1016 963 L636 963 L623 611 C623 611 686 618 777 618 C818 618 844 599 844 565 L844 565 Z M140 665 C140 287 447 -20 825 -20 C1203 -20 1510 287 1510 665 C1510 1043 1203 1350 825 1350 C447 1350 140 1043 140 665 L140 665 Z M378 665 C378 913 577 1112 825 1112 C1073 1112 1272 913 1272 665 C1272 417 1073 218 825 218 C577 218 378 417 378 665 L378 665 Z " />
<glyph glyph-name="ornm44.ornm" unicode="&#x2465;" horiz-adv-x="1650" d="M856 810 C919 810 966 795 986 788 L1020 935 C1004 945 938 972 854 972 C635 972 566 830 566 648 C566 465 646 356 806 356 C955 356 1041 443 1041 570 C1041 701 939 745 823 745 C794 745 768 742 761 739 C765 778 799 810 856 810 L856 810 Z M808 520 C766 520 759 567 760 616 C769 621 784 625 802 625 C828 625 847 607 847 575 C847 546 838 520 808 520 L808 520 Z M140 665 C140 287 447 -20 825 -20 C1203 -20 1510 287 1510 665 C1510 1043 1203 1350 825 1350 C447 1350 140 1043 140 665 L140 665 Z M378 665 C378 913 577 1112 825 1112 C1073 1112 1272 913 1272 665 C1272 417 1073 218 825 218 C577 218 378 417 378 665 L378 665 Z " />
<glyph glyph-name="ornm45.ornm" unicode="&#x2466;" horiz-adv-x="1650" d="M1064 963 L606 963 L617 709 L777 709 L777 804 L863 804 L676 365 L886 365 L1064 794 L1064 963 Z M140 665 C140 287 447 -20 825 -20 C1203 -20 1510 287 1510 665 C1510 1043 1203 1350 825 1350 C447 1350 140 1043 140 665 L140 665 Z M378 665 C378 913 577 1112 825 1112 C1073 1112 1272 913 1272 665 C1272 417 1073 218 825 218 C577 218 378 417 378 665 L378 665 Z " />
<glyph glyph-name="ornm46.ornm" unicode="&#x2467;" horiz-adv-x="1650" d="M822 357 C953 357 1060 425 1060 541 C1060 600 1014 652 975 675 C1015 695 1051 738 1051 801 C1051 905 942 973 828 973 C705 973 602 904 602 793 C602 729 645 689 680 670 C640 647 595 596 595 533 C595 422 698 357 822 357 L822 357 Z M787 775 C787 798 803 815 825 815 C848 815 866 800 866 773 C866 754 846 733 826 723 C805 733 787 753 787 775 L787 775 Z M876 560 C876 534 853 515 828 515 C798 515 776 534 776 563 C776 587 798 614 824 625 C847 615 876 587 876 560 L876 560 Z M140 665 C140 287 447 -20 825 -20 C1203 -20 1510 287 1510 665 C1510 1043 1203 1350 825 1350 C447 1350 140 1043 140 665 L140 665 Z M378 665 C378 913 577 1112 825 1112 C1073 1112 1272 913 1272 665 C1272 417 1073 218 825 218 C577 218 378 417 378 665 L378 665 Z " />
<glyph glyph-name="ornm47.ornm" unicode="&#x2468;" horiz-adv-x="1650" d="M140 665 C140 287 447 -20 825 -20 C1203 -20 1510 287 1510 665 C1510 1043 1203 1350 825 1350 C447 1350 140 1043 140 665 L140 665 Z M378 665 C378 913 577 1112 825 1112 C1073 1112 1272 913 1272 665 C1272 417 1073 218 825 218 C577 218 378 417 378 665 L378 665 Z M784 518 C721 518 674 533 654 540 L620 393 C636 383 702 356 786 356 C1005 356 1074 498 1074 680 C1074 863 994 972 834 972 C685 972 599 885 599 758 C599 627 701 583 817 583 C846 583 872 586 879 589 C875 550 841 518 784 518 L784 518 Z M832 808 C874 808 881 761 880 712 C871 707 856 703 838 703 C812 703 793 721 793 753 C793 782 802 808 832 808 L832 808 Z " />
<glyph glyph-name="ornm38.ornm" unicode="&#x24ea;" horiz-adv-x="1650" d="M827 520 C785 520 758 577 758 667 C758 758 785 810 823 810 C866 810 894 752 894 661 C894 571 866 520 827 520 L827 520 Z M823 357 C1004 357 1097 493 1097 667 C1097 842 1011 973 827 973 C646 973 553 836 553 661 C553 487 640 357 823 357 L823 357 Z M140 665 C140 287 447 -20 825 -20 C1203 -20 1510 287 1510 665 C1510 1043 1203 1350 825 1350 C447 1350 140 1043 140 665 L140 665 Z M378 665 C378 913 577 1112 825 1112 C1073 1112 1272 913 1272 665 C1272 417 1073 218 825 218 C577 218 378 417 378 665 L378 665 Z " />
<glyph glyph-name="ornm69.ornm" unicode="&#x24ff;" horiz-adv-x="1650" d="M827 520 C866 520 894 571 894 661 C894 752 866 810 823 810 C785 810 758 758 758 667 C758 577 785 520 827 520 L827 520 Z M823 357 C640 357 553 487 553 661 C553 836 646 973 827 973 C1011 973 1097 842 1097 667 C1097 493 1004 357 823 357 L823 357 Z M140 665 C140 287 447 -20 825 -20 C1203 -20 1510 287 1510 665 C1510 1043 1203 1350 825 1350 C447 1350 140 1043 140 665 L140 665 Z " />
<glyph glyph-name="lozenge" unicode="&#x25ca;" horiz-adv-x="1315" d="M1290 665 L774 1330 L540 1330 L25 665 L540 0 L774 0 L1290 665 Z M927 665 L657 301 L389 665 L657 1029 L927 665 Z " />
<glyph glyph-name="ornm70.ornm" unicode="&#x2776;" horiz-adv-x="1650" d="M736 524 L736 802 L624 794 L607 946 C653 950 824 966 870 973 L937 973 L937 523 L1043 524 L1043 365 L611 365 L611 524 L736 524 Z M140 665 C140 287 447 -20 825 -20 C1203 -20 1510 287 1510 665 C1510 1043 1203 1350 825 1350 C447 1350 140 1043 140 665 L140 665 Z " />
<glyph glyph-name="ornm71.ornm" unicode="&#x2777;" horiz-adv-x="1650" d="M603 483 C768 659 821 719 821 766 C821 792 798 809 772 809 C734 809 694 793 667 778 L599 910 C635 935 715 973 811 973 C956 973 1033 892 1033 804 C1033 706 955 629 856 524 L1049 524 L1049 365 L603 365 L603 483 Z M140 665 C140 287 447 -20 825 -20 C1203 -20 1510 287 1510 665 C1510 1043 1203 1350 825 1350 C447 1350 140 1043 140 665 L140 665 Z " />
<glyph glyph-name="ornm72.ornm" unicode="&#x2778;" horiz-adv-x="1650" d="M845 771 C845 792 825 808 791 808 C749 808 703 792 678 781 L617 915 C667 947 757 973 823 973 C975 973 1046 880 1046 795 C1046 746 1015 705 983 680 C1025 652 1062 606 1062 545 C1062 436 967 356 806 356 C722 356 647 388 611 411 L668 551 C699 538 746 520 798 520 C841 520 861 531 861 555 C861 582 843 601 806 601 L705 601 L705 733 L831 733 C838 741 845 754 845 771 L845 771 Z M140 665 C140 287 447 -20 825 -20 C1203 -20 1510 287 1510 665 C1510 1043 1203 1350 825 1350 C447 1350 140 1043 140 665 L140 665 Z " />
<glyph glyph-name="ornm73.ornm" unicode="&#x2779;" horiz-adv-x="1650" d="M795 963 L961 963 L961 632 L1057 632 L1057 483 L961 483 L961 365 L773 365 L773 483 L536 483 L536 613 L795 963 Z M140 665 C140 287 447 -20 825 -20 C1203 -20 1510 287 1510 665 C1510 1043 1203 1350 825 1350 C447 1350 140 1043 140 665 L140 665 Z M784 633 L784 717 L722 633 L784 633 Z " />
<glyph glyph-name="ornm74.ornm" unicode="&#x277a;" horiz-adv-x="1650" d="M844 565 C844 599 818 618 777 618 C686 618 623 611 623 611 L636 963 L1016 963 L1016 804 L816 804 L815 745 C953 748 1052 684 1052 560 C1051 436 948 356 791 356 C698 356 627 383 603 396 L646 543 C684 530 725 520 775 520 C816 520 844 535 844 565 L844 565 Z M140 665 C140 287 447 -20 825 -20 C1203 -20 1510 287 1510 665 C1510 1043 1203 1350 825 1350 C447 1350 140 1043 140 665 L140 665 Z " />
<glyph glyph-name="ornm75.ornm" unicode="&#x277b;" horiz-adv-x="1650" d="M856 810 C799 810 765 778 761 739 C768 742 794 745 823 745 C939 745 1041 701 1041 570 C1041 443 955 356 806 356 C646 356 566 465 566 648 C566 830 635 972 854 972 C938 972 1004 945 1020 935 L986 788 C966 795 919 810 856 810 L856 810 Z M808 520 C838 520 847 546 847 575 C847 607 828 625 802 625 C784 625 769 621 760 616 C759 567 766 520 808 520 L808 520 Z M140 665 C140 287 447 -20 825 -20 C1203 -20 1510 287 1510 665 C1510 1043 1203 1350 825 1350 C447 1350 140 1043 140 665 L140 665 Z " />
<glyph glyph-name="ornm76.ornm" unicode="&#x277c;" horiz-adv-x="1650" d="M1064 794 L886 365 L676 365 L863 804 L777 804 L777 709 L617 709 L606 963 L1064 963 L1064 794 Z M140 665 C140 287 447 -20 825 -20 C1203 -20 1510 287 1510 665 C1510 1043 1203 1350 825 1350 C447 1350 140 1043 140 665 L140 665 Z " />
<glyph glyph-name="ornm77.ornm" unicode="&#x277d;" horiz-adv-x="1650" d="M822 357 C698 357 595 422 595 533 C595 596 640 647 680 670 C645 689 602 729 602 793 C602 904 705 973 828 973 C942 973 1051 905 1051 801 C1051 738 1015 695 975 675 C1014 652 1060 600 1060 541 C1060 425 953 357 822 357 L822 357 Z M787 775 C787 753 805 733 826 723 C846 733 866 754 866 773 C866 800 848 815 825 815 C803 815 787 798 787 775 L787 775 Z M876 560 C876 587 847 615 824 625 C798 614 776 587 776 563 C776 534 798 515 828 515 C853 515 876 534 876 560 L876 560 Z M140 665 C140 287 447 -20 825 -20 C1203 -20 1510 287 1510 665 C1510 1043 1203 1350 825 1350 C447 1350 140 1043 140 665 L140 665 Z " />
<glyph glyph-name="ornm78.ornm" unicode="&#x277e;" horiz-adv-x="1650" d="M140 665 C140 287 447 -20 825 -20 C1203 -20 1510 287 1510 665 C1510 1043 1203 1350 825 1350 C447 1350 140 1043 140 665 L140 665 Z M784 518 C841 518 875 550 879 589 C872 586 846 583 817 583 C701 583 599 627 599 758 C599 885 685 972 834 972 C994 972 1074 863 1074 680 C1074 498 1005 356 786 356 C702 356 636 383 620 393 L654 540 C674 533 721 518 784 518 L784 518 Z M832 808 C802 808 793 782 793 753 C793 721 812 703 838 703 C856 703 871 707 880 712 C881 761 874 808 832 808 L832 808 Z " />
<glyph glyph-name="ff" unicode="&#xfb00;" horiz-adv-x="1301" d="M1079 1087 C1079 1189 1125 1227 1217 1227 C1277 1227 1325 1212 1351 1203 L1401 1437 C1348 1457 1277 1480 1155 1480 C891 1480 757 1329 757 1103 L757 1024 L462 1024 L462 1087 C462 1186 504 1227 580 1227 C628 1227 676 1217 684 1215 L734 1449 C707 1459 622 1480 528 1480 C272 1480 140 1325 140 1103 L140 1013 L0 1004 L0 786 L138 786 L138 -396 L466 -396 L466 786 L755 786 L755 0 L1083 0 L1083 786 L1311 786 L1311 1024 L1079 1024 L1079 1087 Z " />
<glyph glyph-name="fi" unicode="&#xfb01;" horiz-adv-x="1164" d="M721 0 L1049 0 L1049 1024 L462 1024 L462 1079 C462 1194 549 1227 680 1227 C786 1227 885 1206 919 1198 L979 1432 C937 1447 828 1480 648 1480 C312 1480 140 1322 140 1093 L140 1013 L0 1004 L0 786 L138 786 L138 -396 L466 -396 L466 786 L721 786 L721 0 Z " />
<glyph glyph-name="fl" unicode="&#xfb02;" horiz-adv-x="1213" d="M644 1024 L462 1024 L462 1079 C462 1194 549 1227 660 1227 C697 1227 736 1223 770 1219 L770 0 L1098 0 L1098 1419 C1057 1431 858 1480 678 1480 C332 1480 140 1322 140 1093 L140 1013 L0 1004 L0 786 L138 786 L138 -396 L466 -396 L466 786 L644 786 L644 1024 Z " />
<glyph glyph-name="ffi" unicode="&#xfb03;" horiz-adv-x="1781" d="M1338 0 L1666 0 L1666 1024 L1079 1024 L1079 1079 C1079 1194 1166 1227 1297 1227 C1403 1227 1502 1206 1536 1198 L1596 1432 C1554 1447 1445 1480 1265 1480 C929 1480 757 1322 757 1093 L757 1024 L462 1024 L462 1087 C462 1186 504 1227 580 1227 C628 1227 676 1217 684 1215 L734 1449 C707 1459 622 1480 528 1480 C272 1480 140 1325 140 1103 L140 1013 L0 1004 L0 786 L138 786 L138 -396 L466 -396 L466 786 L755 786 L755 -396 L1083 -396 L1083 786 L1338 786 L1338 0 Z " />
<glyph glyph-name="ffl" unicode="&#xfb04;" horiz-adv-x="1830" d="M1261 1024 L1079 1024 L1079 1079 C1079 1194 1166 1227 1277 1227 C1314 1227 1353 1223 1387 1219 L1387 0 L1715 0 L1715 1419 C1674 1431 1475 1480 1295 1480 C949 1480 757 1322 757 1093 L757 1024 L462 1024 L462 1087 C462 1186 504 1227 580 1227 C628 1227 676 1217 684 1215 L734 1449 C707 1459 622 1480 528 1480 C272 1480 140 1325 140 1103 L140 1013 L0 1004 L0 786 L138 786 L138 -396 L466 -396 L466 786 L755 786 L755 0 L1083 0 L1083 786 L1261 786 L1261 1024 Z " />
<glyph glyph-name="s_t" unicode="&#xfb06;" horiz-adv-x="1616" d="M860 877 C788 935 728 1010 728 1093 C728 1180 782 1252 898 1252 L980 1252 L980 347 C980 81 1076 -20 1340 -20 C1438 -20 1550 6 1606 31 L1570 269 C1541 258 1481 243 1422 243 C1340 243 1308 276 1308 383 L1308 786 L1562 786 L1562 1024 L1304 1024 L1304 1480 L907 1480 C589 1480 420 1335 420 1148 C420 1109 427 1075 440 1043 C212 1033 69 904 69 709 C69 564 146 466 327 401 L397 376 C467 351 534 331 534 283 C534 241 488 228 415 228 C320 228 199 264 133 294 L70 58 C153 17 280 -20 446 -20 C714 -20 841 103 841 292 C841 444 762 534 597 597 L519 627 C423 664 376 684 376 732 C376 786 440 796 489 796 C513 796 539 793 565 789 C597 752 634 714 679 688 L860 877 Z " />
</font>
</svg>
