<?xml version="1.0" encoding="UTF-8"?>
<svg xmlns="http://www.w3.org/2000/svg" xmlns:xlink="http://www.w3.org/1999/xlink" version="1.2" >
<font id="Libertad Bold">
<font-face  font-family="Libertad" units-per-em="2048" ascent="1480" descent="-396" font-style="normal" font-weight="700" font-stretch="normal" cap-height="1330" x-height="1024" underline-position="-345" underline-thickness="110" />
<missing-glyph  horiz-adv-x="1273" d="M399 998 L637 761 L873 998 L968 903 L731 667 L970 427 L875 332 L637 569 L397 332 L302 427 L541 667 L304 903 L399 998 Z M137 0 L1135 0 L1135 1331 L137 1331 L137 0 Z " />
<glyph glyph-name="CR" unicode="&#xd;" horiz-adv-x="441" d="" />
<glyph glyph-name="space" unicode="&#x20;" horiz-adv-x="441" d="" />
<glyph glyph-name="exclam" unicode="&#x21;" horiz-adv-x="512" d="M112 1330 L156 421 L356 421 L400 1330 L112 1330 Z M102 126 C102 36 165 -20 249 -20 C344 -20 410 36 410 141 C410 230 347 286 263 286 C168 286 102 230 102 126 L102 126 Z " />
<glyph glyph-name="quotedbl" unicode="&#x22;" horiz-adv-x="768" d="M431 1491 L469 931 L647 931 L685 1491 L431 1491 Z M84 1491 L121 931 L299 931 L337 1491 L84 1491 Z " />
<glyph glyph-name="numbersign" unicode="&#x23;" horiz-adv-x="1533" d="M974 1330 L925 992 L669 992 L717 1330 L499 1330 L451 992 L222 992 L196 801 L424 801 L385 528 L155 528 L129 338 L358 338 L311 0 L528 0 L576 338 L832 338 L784 0 L1002 0 L1049 338 L1272 338 L1298 528 L1077 528 L1115 801 L1337 801 L1364 992 L1142 992 L1190 1330 L974 1330 Z M642 801 L898 801 L859 528 L603 528 L642 801 Z " />
<glyph glyph-name="dollar" unicode="&#x24;" horiz-adv-x="1143" d="M471 1507 L490 1253 C307 1216 183 1095 183 928 C183 763 275 666 447 591 C633 511 720 467 720 380 C720 304 648 277 527 277 C398 277 287 322 238 349 L184 157 C235 121 345 77 482 68 L465 -177 L684 -177 L665 75 C868 106 980 218 980 391 C980 571 890 653 646 761 C525 813 438 850 439 939 C441 1005 491 1056 621 1056 C721 1056 830 1022 888 998 L934 1188 C892 1209 801 1252 672 1263 L690 1507 L471 1507 Z " />
<glyph glyph-name="percent" unicode="&#x25;" horiz-adv-x="1473" d="M1162 1357 L169 81 L311 -20 L1304 1255 L1162 1357 Z M369 731 C563 731 686 856 686 1046 C686 1222 563 1350 382 1350 C189 1350 66 1224 66 1034 C66 859 189 731 369 731 L369 731 Z M380 900 C305 900 271 962 271 1044 C271 1120 305 1180 371 1180 C447 1180 481 1119 481 1036 C481 960 446 900 380 900 L380 900 Z M1091 -20 C1285 -20 1408 105 1408 295 C1408 471 1285 599 1104 599 C911 599 787 473 787 283 C787 108 911 -20 1091 -20 L1091 -20 Z M1101 149 C1026 149 992 211 992 293 C992 369 1027 429 1093 429 C1169 429 1203 368 1203 285 C1203 209 1167 149 1101 149 L1101 149 Z " />
<glyph glyph-name="ampersand" unicode="&#x26;" horiz-adv-x="1391" d="M76 357 C76 140 270 -20 590 -20 C723 -20 847 18 925 66 L1108 -130 L1267 21 L1084 217 C1128 278 1174 373 1174 481 C1174 564 1147 644 1122 688 L1340 688 L1340 886 L898 886 C917 911 942 962 946 1014 C948 1042 946 1069 940 1094 C911 1241 757 1350 564 1350 C332 1350 164 1211 164 1021 C164 922 201 850 330 709 C180 634 76 500 76 357 L76 357 Z M779 688 L910 688 C939 637 951 582 953 521 C955 475 944 421 928 385 L537 810 C438 918 409 952 409 1027 C409 1096 471 1151 554 1151 C641 1151 710 1098 710 1014 C710 945 681 901 637 851 L779 688 Z M607 178 C435 178 334 261 334 378 C334 458 382 528 454 578 L778 223 C734 197 668 178 607 178 L607 178 Z " />
<glyph glyph-name="quotesingle" unicode="&#x27;" horiz-adv-x="391" d="M69 1491 L106 931 L284 931 L322 1491 L69 1491 Z " />
<glyph glyph-name="parenleft" unicode="&#x28;" horiz-adv-x="684" d="M333 672 C333 1110 545 1384 670 1517 L536 1637 C412 1550 70 1216 70 655 C70 109 411 -221 535 -309 L670 -189 C545 -55 333 220 333 672 L333 672 Z " />
<glyph glyph-name="parenright" unicode="&#x29;" horiz-adv-x="684" d="M356 657 C356 219 144 -55 19 -189 L153 -309 C277 -221 619 113 619 674 C619 1220 278 1550 154 1637 L19 1517 C144 1384 356 1109 356 657 L356 657 Z " />
<glyph glyph-name="asterisk" unicode="&#x2a;" horiz-adv-x="838" d="M334 1250 L102 1341 L41 1139 L279 1088 L109 919 L268 784 L418 992 L570 784 L727 920 L558 1089 L797 1139 L734 1341 L503 1250 L524 1499 L313 1499 L334 1250 Z " />
<glyph glyph-name="plus" unicode="&#x2b;" horiz-adv-x="1270" d="M527 1147 L527 770 L152 770 L152 559 L527 559 L527 183 L743 183 L743 559 L1117 559 L1117 770 L743 770 L743 1147 L527 1147 Z " />
<glyph glyph-name="comma" unicode="&#x2c;" horiz-adv-x="475" d="M127 -303 C271 -240 394 -133 394 36 C394 163 322 253 279 286 L64 229 C104 191 172 118 172 14 C172 -85 99 -150 30 -192 L127 -303 Z " />
<glyph glyph-name="hyphen" unicode="&#x2d;" horiz-adv-x="891" d="M137 427 L754 427 L754 638 L137 638 L137 427 Z " />
<glyph glyph-name="period" unicode="&#x2e;" horiz-adv-x="490" d="M91 126 C91 36 153 -20 238 -20 C333 -20 399 36 399 141 C399 230 336 286 252 286 C157 286 91 230 91 126 L91 126 Z " />
<glyph glyph-name="slash" unicode="&#x2f;" horiz-adv-x="917" d="M730 1585 L-44 -250 L212 -250 L986 1585 L730 1585 Z " />
<glyph glyph-name="zero" unicode="0" horiz-adv-x="1305" d="M658 194 C474 194 369 379 369 674 C369 968 479 1137 647 1137 C830 1137 936 949 936 654 C936 360 826 194 658 194 L658 194 Z M646 -20 C1012 -20 1218 270 1218 669 C1218 1072 1023 1350 658 1350 C292 1350 87 1059 87 659 C87 257 281 -20 646 -20 L646 -20 Z " />
<glyph glyph-name="one" unicode="1" horiz-adv-x="850" d="M26 217 L26 0 L808 0 L808 217 L570 218 L570 1350 L513 1350 C376 1331 159 1308 23 1297 L43 1089 C115 1092 228 1100 304 1109 L304 218 L26 217 Z " />
<glyph glyph-name="two" unicode="2" horiz-adv-x="1046" d="M77 0 L971 0 L971 218 L403 218 C689 517 903 721 903 959 C903 1191 754 1350 464 1350 C278 1350 118 1266 82 1243 L159 1055 C195 1074 311 1126 428 1126 C545 1126 621 1065 621 944 C621 799 508 667 77 188 L77 0 Z " />
<glyph glyph-name="three" unicode="3" horiz-adv-x="1053" d="M622 944 C622 840 559 791 518 772 L292 772 L292 566 L434 566 C589 566 669 501 669 372 C669 253 560 204 419 204 C289 204 188 247 142 268 L84 68 C139 36 260 -20 440 -20 C739 -20 947 122 947 385 C947 571 812 667 723 701 C816 754 900 861 900 977 C900 1186 760 1350 459 1350 C275 1350 123 1265 93 1245 L170 1056 C207 1078 316 1126 425 1126 C569 1126 622 1052 622 944 L622 944 Z " />
<glyph glyph-name="four" unicode="4" horiz-adv-x="1116" d="M42 468 L42 282 L614 282 L614 0 L880 0 L880 282 L1064 282 L1064 494 L880 494 L880 1330 L625 1330 L42 468 Z M314 494 L614 939 L614 494 L314 494 Z " />
<glyph glyph-name="five" unicode="5" horiz-adv-x="1048" d="M665 405 C665 273 565 204 417 204 C296 204 182 247 132 269 L77 69 C130 36 255 -20 439 -20 C751 -20 944 144 945 419 C946 680 760 841 478 841 C444 841 410 837 397 835 L408 1112 L882 1112 L882 1330 L153 1330 L128 602 C202 611 300 624 417 624 C572 624 665 546 665 405 L665 405 Z " />
<glyph glyph-name="six" unicode="6" horiz-adv-x="1147" d="M693 1126 C802 1126 901 1096 932 1084 L983 1285 C951 1304 839 1350 692 1350 C268 1350 87 1039 87 588 C87 170 267 -20 568 -20 C873 -20 1051 150 1051 408 C1051 671 874 831 581 815 C479 811 405 776 371 752 C382 948 481 1126 693 1126 L693 1126 Z M584 194 C433 194 367 333 373 540 C408 572 473 606 563 608 C684 611 775 542 775 393 C775 258 705 194 584 194 L584 194 Z " />
<glyph glyph-name="seven" unicode="7" horiz-adv-x="1032" d="M961 1330 L62 1330 L74 912 L281 912 L285 1118 L679 1118 L216 0 L497 0 L961 1137 L961 1330 Z " />
<glyph glyph-name="eight" unicode="8" horiz-adv-x="1138" d="M564 -20 C838 -20 1044 108 1044 351 C1044 549 869 646 777 697 C887 749 1016 838 1016 1002 C1016 1222 831 1350 574 1350 C313 1350 120 1205 120 977 C120 811 241 716 349 659 C232 602 94 492 94 324 C94 91 306 -20 564 -20 L564 -20 Z M574 188 C465 188 362 242 362 353 C362 441 437 513 555 574 L619 540 C707 490 775 433 775 345 C775 249 678 188 574 188 L574 188 Z M744 984 C744 900 677 836 574 782 L529 809 C432 865 392 909 392 996 C392 1081 465 1143 564 1143 C668 1143 744 1082 744 984 L744 984 Z " />
<glyph glyph-name="nine" unicode="9" horiz-adv-x="1147" d="M461 204 C346 204 251 228 208 246 L156 45 C195 24 315 -20 462 -20 C883 -20 1060 237 1060 735 C1060 1141 898 1350 585 1350 C279 1350 96 1179 96 922 C96 662 269 499 566 515 C667 519 741 554 774 577 C763 346 670 204 461 204 L461 204 Z M562 1136 C707 1136 781 1010 774 790 C740 758 674 723 584 722 C463 718 372 788 372 936 C372 1071 453 1136 562 1136 L562 1136 Z " />
<glyph glyph-name="colon" unicode="&#x3a;" horiz-adv-x="490" d="M91 884 C91 794 153 738 238 738 C333 738 399 793 399 899 C399 988 336 1044 252 1044 C157 1044 91 988 91 884 L91 884 Z M91 126 C91 36 153 -20 238 -20 C333 -20 399 36 399 141 C399 230 336 286 252 286 C157 286 91 230 91 126 L91 126 Z " />
<glyph glyph-name="semicolon" unicode="&#x3b;" horiz-adv-x="463" d="M61 884 C61 794 123 738 207 738 C302 738 368 793 368 899 C368 988 305 1044 222 1044 C126 1044 61 988 61 884 L61 884 Z M115 -303 C258 -240 382 -133 382 36 C382 163 309 253 266 286 L52 229 C92 191 159 118 159 14 C159 -85 87 -150 17 -192 L115 -303 Z " />
<glyph glyph-name="less" unicode="&#x3c;" horiz-adv-x="1080" d="M762 1168 L124 665 L762 164 L896 322 L456 665 L896 1010 L762 1168 Z " />
<glyph glyph-name="equal" unicode="&#x3d;" horiz-adv-x="1224" d="M152 386 L1071 386 L1071 597 L152 597 L152 386 Z M152 735 L1071 735 L1071 945 L152 945 L152 735 Z " />
<glyph glyph-name="greater" unicode="&#x3e;" horiz-adv-x="1080" d="M330 162 L968 665 L330 1166 L196 1008 L636 665 L196 320 L330 162 Z " />
<glyph glyph-name="question" unicode="&#x3f;" horiz-adv-x="814" d="M207 518 C207 462 224 428 234 407 L427 424 C425 436 423 452 424 475 C422 645 762 743 762 1009 C762 1204 601 1350 355 1350 C189 1350 76 1297 21 1266 L78 1081 C103 1093 173 1124 267 1131 C292 1134 317 1134 343 1132 C445 1125 500 1072 500 980 C500 886 387 800 312 721 C249 656 207 595 207 518 L207 518 Z M192 126 C192 36 254 -20 338 -20 C433 -20 499 36 499 141 C499 230 436 286 353 286 C257 286 192 230 192 126 L192 126 Z " />
<glyph glyph-name="at" unicode="&#x40;" horiz-adv-x="2260" d="M1610 -11 C1908 -11 2120 251 2120 645 C2120 1138 1790 1480 1225 1480 C526 1480 132 986 132 455 C132 -81 480 -416 1023 -416 C1211 -416 1364 -360 1420 -331 L1364 -158 C1302 -183 1186 -217 1046 -217 C643 -217 402 43 402 478 C402 897 703 1279 1201 1279 C1639 1279 1857 1027 1857 623 C1857 357 1760 178 1641 185 C1589 186 1551 236 1555 314 L1599 907 C1561 935 1410 1044 1218 1044 C858 1044 657 788 657 455 C657 194 794 -11 1030 -11 C1176 -11 1290 77 1347 141 C1388 76 1480 -11 1610 -11 L1610 -11 Z M1332 811 L1294 309 C1263 268 1191 203 1101 203 C985 203 928 320 928 481 C928 674 1009 835 1193 835 C1265 835 1315 818 1332 811 L1332 811 Z " />
<glyph glyph-name="A" unicode="A" horiz-adv-x="1299" d="M1003 0 L1288 0 L772 1330 L526 1330 L11 0 L296 0 L405 308 L894 308 L1003 0 Z M646 998 L674 936 L821 513 L477 513 L646 998 Z " />
<glyph glyph-name="B" unicode="B" horiz-adv-x="1191" d="M603 0 C918 0 1119 154 1119 396 C1119 551 1017 669 888 715 C985 769 1051 865 1051 979 C1051 1211 874 1330 577 1330 L137 1330 L137 0 L603 0 Z M595 585 C741 585 824 508 824 378 C824 272 742 207 595 207 L404 207 L404 585 L595 585 Z M404 1123 L571 1123 C701 1123 774 1057 774 949 C774 872 741 811 682 776 L404 776 L404 1123 Z " />
<glyph glyph-name="C" unicode="C" horiz-adv-x="1142" d="M70 661 C70 241 325 -20 754 -20 C878 -20 1013 15 1098 64 L1033 262 C952 225 850 204 754 204 C505 204 355 389 355 677 C355 962 506 1126 755 1126 C847 1126 931 1107 1011 1075 L1069 1276 C994 1318 865 1350 749 1350 C333 1350 70 1073 70 661 L70 661 Z " />
<glyph glyph-name="D" unicode="D" horiz-adv-x="1314" d="M570 0 C998 0 1244 258 1244 673 C1244 1071 998 1330 571 1330 L137 1330 L137 0 L570 0 Z M403 207 L403 1123 L570 1123 C812 1123 959 954 959 658 C959 379 807 207 571 207 L403 207 Z " />
<glyph glyph-name="E" unicode="E" horiz-adv-x="1055" d="M948 1330 L131 1330 L131 0 L968 0 L968 218 L398 218 L398 564 L922 564 L922 776 L398 776 L398 1112 L948 1112 L948 1330 Z " />
<glyph glyph-name="F" unicode="F" horiz-adv-x="989" d="M947 1330 L137 1330 L137 0 L404 0 L404 555 L888 555 L888 767 L404 767 L404 1112 L947 1112 L947 1330 Z " />
<glyph glyph-name="G" unicode="G" horiz-adv-x="1277" d="M1176 737 L693 737 L693 538 L928 537 L928 227 C882 213 818 204 759 204 C513 204 355 384 355 676 C355 966 515 1126 771 1126 C872 1126 964 1103 1047 1072 L1109 1272 C1022 1319 887 1350 766 1350 C336 1350 70 1071 70 661 C70 244 320 -20 756 -20 C915 -20 1074 27 1176 103 L1176 737 Z " />
<glyph glyph-name="H" unicode="H" horiz-adv-x="1359" d="M955 0 L1221 0 L1221 1330 L955 1330 L955 779 L404 779 L404 1330 L137 1330 L137 0 L404 0 L404 561 L955 561 L955 0 Z " />
<glyph glyph-name="I" unicode="I" horiz-adv-x="541" d="M137 0 L404 0 L404 1330 L137 1330 L137 0 Z " />
<glyph glyph-name="J" unicode="J" horiz-adv-x="743" d="M361 1330 L361 337 C361 249 316 204 227 204 C153 203 100 221 70 235 L27 38 C64 12 151 -20 262 -20 C479 -20 627 108 627 361 L627 1330 L361 1330 Z " />
<glyph glyph-name="K" unicode="K" horiz-adv-x="1233" d="M404 1330 L137 1330 L137 0 L404 0 L404 350 L564 564 L897 0 L1209 0 L754 740 L1176 1330 L873 1330 L404 667 L404 1330 Z " />
<glyph glyph-name="L" unicode="L" horiz-adv-x="970" d="M953 218 L404 218 L404 1330 L137 1330 L137 0 L953 0 L953 218 Z " />
<glyph glyph-name="M" unicode="M" horiz-adv-x="1647" d="M137 0 L399 0 L399 976 L716 155 L931 155 L1249 976 L1249 0 L1510 0 L1510 1330 L1148 1330 L824 495 L499 1330 L137 1330 L137 0 Z " />
<glyph glyph-name="N" unicode="N" horiz-adv-x="1365" d="M938 0 L1227 0 L1227 1330 L966 1330 L966 403 L427 1330 L137 1330 L137 0 L399 0 L399 927 L938 0 Z " />
<glyph glyph-name="O" unicode="O" horiz-adv-x="1419" d="M715 193 C492 193 355 378 355 676 C355 968 494 1137 704 1137 C928 1137 1064 952 1064 654 C1064 362 925 193 715 193 L715 193 Z M704 -20 C1107 -20 1349 254 1349 669 C1349 1085 1116 1350 716 1350 C312 1350 70 1076 70 661 C70 245 304 -20 704 -20 L704 -20 Z " />
<glyph glyph-name="P" unicode="P" horiz-adv-x="1103" d="M404 1117 L568 1117 C704 1117 780 1039 780 897 C780 762 705 679 560 679 L404 679 L404 1117 Z M404 0 L404 475 L575 475 C859 475 1059 628 1059 911 C1059 1188 881 1330 566 1330 L137 1330 L137 0 L404 0 Z " />
<glyph glyph-name="Q" unicode="Q" horiz-adv-x="1419" d="M1685 -178 C1630 -194 1558 -203 1491 -203 C1294 -203 1166 -105 1056 74 C1242 189 1349 404 1349 669 C1349 1075 1114 1350 716 1350 C316 1350 70 1064 70 661 C70 255 305 -20 704 -20 C752 -20 798 -15 842 -7 C969 -246 1151 -416 1465 -416 C1574 -416 1645 -401 1707 -384 L1685 -178 Z M715 193 C503 193 355 377 355 676 C355 974 510 1137 704 1137 C916 1137 1064 953 1064 654 C1064 356 910 193 715 193 L715 193 Z " />
<glyph glyph-name="R" unicode="R" horiz-adv-x="1167" d="M404 0 L404 493 L581 493 L837 0 L1132 0 L829 550 C942 602 1073 728 1073 913 C1073 1190 889 1330 566 1330 L137 1330 L137 0 L404 0 Z M404 1117 L570 1117 C711 1117 794 1040 794 900 C794 801 736 722 669 697 L404 697 L404 1117 Z " />
<glyph glyph-name="S" unicode="S" horiz-adv-x="1062" d="M88 78 C157 29 320 -20 483 -20 C799 -20 984 115 984 354 C984 529 894 638 695 729 L518 810 C421 852 372 891 374 976 C375 1055 441 1119 581 1119 C693 1119 817 1077 888 1044 L940 1257 C874 1291 754 1350 565 1350 C307 1350 97 1198 97 963 C97 772 201 666 373 590 L534 520 C659 463 704 420 704 340 C704 255 626 210 478 210 C347 210 207 261 149 292 L88 78 Z " />
<glyph glyph-name="T" unicode="T" horiz-adv-x="1054" d="M17 1112 L394 1112 L394 0 L660 0 L660 1112 L1037 1112 L1037 1330 L17 1330 L17 1112 Z " />
<glyph glyph-name="U" unicode="U" horiz-adv-x="1289" d="M384 1330 L118 1330 L118 520 C118 174 312 -20 637 -20 C967 -20 1171 182 1171 522 L1171 1330 L905 1330 L905 509 C905 295 808 194 649 194 C486 194 384 295 384 532 L384 1330 Z " />
<glyph glyph-name="V" unicode="V" horiz-adv-x="1281" d="M975 1330 L643 298 L611 369 C510 690 407 1010 305 1330 L11 1330 L479 0 L801 0 L1269 1330 L975 1330 Z " />
<glyph glyph-name="W" unicode="W" horiz-adv-x="1887" d="M1559 1330 L1323 339 L1291 423 L1055 1310 L832 1310 L596 423 L565 339 L328 1330 L31 1330 L392 0 L701 0 L944 840 L1186 0 L1496 0 L1856 1330 L1559 1330 Z " />
<glyph glyph-name="X" unicode="X" horiz-adv-x="1320" d="M819 686 L1251 1330 L950 1330 L660 875 L371 1330 L70 1330 L501 686 L25 0 L330 0 L660 495 L992 0 L1295 0 L819 686 Z " />
<glyph glyph-name="Y" unicode="Y" horiz-adv-x="1176" d="M454 0 L721 0 L721 501 L1165 1330 L878 1330 L589 752 L300 1330 L11 1330 L454 501 L454 0 Z " />
<glyph glyph-name="Z" unicode="Z" horiz-adv-x="1100" d="M74 188 L74 0 L1046 0 L1046 218 L381 218 L1007 1141 L1007 1329 L114 1329 L114 1111 L679 1111 L74 188 Z " />
<glyph glyph-name="bracketleft" unicode="&#x5b;" horiz-adv-x="661" d="M626 -86 L376 -86 L376 1413 L626 1418 L626 1605 L137 1605 L137 -279 L626 -271 L626 -86 Z " />
<glyph glyph-name="backslash" unicode="&#x5c;" horiz-adv-x="904" d="M-53 1585 L721 -250 L977 -250 L203 1585 L-53 1585 Z " />
<glyph glyph-name="bracketright" unicode="&#x5d;" horiz-adv-x="661" d="M40 1412 L290 1412 L290 -87 L40 -92 L40 -279 L529 -279 L529 1605 L40 1597 L40 1412 Z " />
<glyph glyph-name="asciicircum" unicode="&#x5e;" horiz-adv-x="1187" d="M389 776 L594 1225 L798 776 L1074 776 L734 1480 L453 1480 L113 776 L389 776 Z " />
<glyph glyph-name="underscore" unicode="&#x5f;" horiz-adv-x="1197" d="M137 -236 L1060 -236 L1060 -26 L137 -26 L137 -236 Z " />
<glyph glyph-name="grave" unicode="&#x60;" horiz-adv-x="803" d="M689 1297 L215 1546 L113 1323 L631 1166 L689 1297 Z " />
<glyph glyph-name="a" unicode="a" horiz-adv-x="973" d="M829 701 C829 919 692 1044 440 1044 C300 1044 157 991 89 953 L141 765 C198 792 303 826 406 826 C528 826 576 769 576 659 L576 560 C291 592 44 514 44 264 C44 94 177 -20 367 -20 C459 -20 553 19 628 89 C660 18 725 -20 810 -20 C872 -20 927 -6 966 11 L945 195 C929 190 909 183 883 183 C850 183 829 203 829 252 L829 701 Z M297 290 C297 411 447 433 576 412 L576 236 C532 200 477 175 422 175 C346 175 297 218 297 290 L297 290 Z " />
<glyph glyph-name="b" unicode="b" horiz-adv-x="1135" d="M137 1459 L137 92 C234 28 396 -20 541 -20 C885 -20 1078 192 1078 521 C1078 816 934 1020 691 1039 C640 1042 592 1035 550 1023 C493 1011 442 989 403 965 L403 1480 L137 1459 Z M803 505 C803 312 725 189 550 189 C489 189 439 198 403 212 L403 780 C445 808 511 829 569 829 C718 829 803 698 803 505 L803 505 Z " />
<glyph glyph-name="c" unicode="c" horiz-adv-x="911" d="M333 518 C333 710 428 826 598 826 C689 826 771 794 805 782 L861 974 C808 1004 704 1044 575 1044 C255 1044 57 826 57 502 C57 191 250 -20 558 -20 C696 -20 811 17 876 54 L817 244 C777 227 689 198 598 198 C423 198 333 314 333 518 L333 518 Z " />
<glyph glyph-name="d" unicode="d" horiz-adv-x="1146" d="M1008 0 L1008 1480 L743 1459 L743 998 C689 1025 621 1044 552 1044 C256 1044 57 823 57 503 C57 190 217 -20 480 -20 C644 -20 741 77 770 105 L798 0 L1008 0 Z M743 268 C706 227 629 195 560 195 C414 195 333 324 333 518 C333 702 421 835 574 835 C644 835 705 816 743 793 L743 268 Z " />
<glyph glyph-name="e" unicode="e" horiz-adv-x="1012" d="M923 457 C939 501 954 576 954 663 C954 890 811 1044 557 1044 C247 1044 57 827 57 502 C57 192 248 -20 563 -20 C732 -20 857 27 922 58 L865 250 C803 226 709 198 596 198 C433 198 336 283 325 457 L923 457 Z M535 845 C636 845 697 784 701 679 C701 654 699 631 694 608 L328 608 C340 760 411 845 535 845 L535 845 Z " />
<glyph glyph-name="f" unicode="f" horiz-adv-x="670" d="M421 1102 C421 1219 474 1270 579 1270 C636 1270 688 1257 716 1248 L759 1442 C713 1458 645 1480 542 1480 C301 1480 165 1335 165 1118 L165 1015 L11 1005 L11 825 L161 825 L161 0 L426 0 L426 825 L666 825 L666 1024 L421 1024 L421 1102 Z " />
<glyph glyph-name="g" unicode="g" horiz-adv-x="1044" d="M457 310 C709 310 867 451 867 683 C867 737 856 787 837 831 C890 843 961 842 1009 836 L1009 1036 C940 1054 821 1039 719 975 C654 1019 568 1044 469 1044 C217 1044 59 903 59 670 C59 508 136 392 276 340 C201 291 147 220 147 153 C147 83 188 47 213 28 C125 -15 39 -90 39 -201 C39 -355 186 -436 471 -436 C769 -436 993 -306 993 -109 C993 77 858 180 655 180 L436 180 C390 180 369 198 371 231 C371 257 395 288 422 311 C433 310 445 310 457 310 L457 310 Z M466 481 C358 481 304 557 304 682 C304 794 357 872 460 872 C568 872 622 797 622 671 C622 559 568 481 466 481 L466 481 Z M506 -248 C357 -248 274 -213 274 -141 C274 -92 317 -50 351 -29 L554 -29 C673 -29 746 -46 746 -122 C746 -204 652 -248 506 -248 L506 -248 Z " />
<glyph glyph-name="h" unicode="h" horiz-adv-x="1160" d="M137 1459 L137 0 L403 0 L403 741 C454 787 547 823 612 823 C722 823 771 763 771 633 L771 0 L1037 0 L1037 674 C1037 925 919 1044 693 1044 C577 1044 475 993 403 935 L403 1480 L137 1459 Z " />
<glyph glyph-name="i" unicode="i" horiz-adv-x="540" d="M116 1342 C116 1252 179 1196 263 1196 C358 1196 424 1252 424 1357 C424 1447 361 1502 277 1502 C182 1502 116 1446 116 1342 L116 1342 Z M137 1024 L137 0 L403 0 L403 1024 L137 1024 Z " />
<glyph glyph-name="j" unicode="j" horiz-adv-x="553" d="M129 1342 C129 1252 191 1196 275 1196 C370 1196 436 1252 436 1357 C436 1447 374 1502 290 1502 C195 1502 129 1446 129 1342 L129 1342 Z M150 -43 C150 -159 105 -206 6 -206 C-34 -206 -66 -198 -88 -191 L-118 -388 C-83 -402 -27 -416 42 -416 C288 -416 415 -293 415 -25 L415 1024 L150 1024 L150 -43 Z " />
<glyph glyph-name="k" unicode="k" horiz-adv-x="1089" d="M137 1459 L137 0 L403 0 L403 279 L524 438 L769 0 L1067 0 L722 600 L1039 1024 L749 1024 L403 561 L403 1480 L137 1459 Z " />
<glyph glyph-name="l" unicode="l" horiz-adv-x="540" d="M137 1459 L137 0 L403 0 L403 1480 L137 1459 Z " />
<glyph glyph-name="m" unicode="m" horiz-adv-x="1766" d="M137 1024 L137 0 L403 0 L403 741 C456 787 543 823 605 823 C710 823 758 763 758 633 L758 0 L1023 0 L1023 672 C1023 695 1023 719 1022 742 C1090 794 1168 823 1225 823 C1330 823 1378 763 1378 633 L1378 0 L1643 0 L1643 674 C1643 925 1528 1044 1306 1044 C1184 1044 1066 995 968 910 C914 999 819 1044 686 1044 C554 1044 442 976 378 914 L351 1024 L137 1024 Z " />
<glyph glyph-name="n" unicode="n" horiz-adv-x="1160" d="M137 1024 L137 0 L403 0 L403 741 C454 787 547 823 612 823 C722 823 771 762 771 633 L771 0 L1037 0 L1037 674 C1037 925 919 1044 693 1044 C557 1044 445 974 378 914 L351 1024 L137 1024 Z " />
<glyph glyph-name="o" unicode="o" horiz-adv-x="1122" d="M555 -20 C871 -20 1064 198 1064 521 C1064 832 876 1044 567 1044 C250 1044 57 827 57 503 C57 192 246 -20 555 -20 L555 -20 Z M566 179 C406 179 333 313 333 519 C333 712 405 845 556 845 C715 845 789 712 789 505 C789 312 716 179 566 179 L566 179 Z " />
<glyph glyph-name="p" unicode="p" horiz-adv-x="1146" d="M137 1024 L137 -396 L403 -396 L403 26 C457 -1 525 -20 594 -20 C890 -20 1088 201 1088 521 C1088 834 929 1044 666 1044 C501 1044 406 947 375 918 L347 1024 L137 1024 Z M403 756 C440 797 517 829 586 829 C732 829 813 700 813 505 C813 322 724 189 571 189 C501 189 441 208 403 230 L403 756 Z " />
<glyph glyph-name="q" unicode="q" horiz-adv-x="1135" d="M998 -396 L998 954 C901 1000 739 1043 594 1043 C250 1043 57 831 57 502 C57 191 220 -21 488 -21 C592 -21 685 26 733 59 L733 -396 L998 -396 Z M333 517 C333 711 410 835 586 835 C647 835 697 824 733 810 L733 243 C691 215 625 194 566 194 C417 194 333 325 333 517 L333 517 Z " />
<glyph glyph-name="r" unicode="r" horiz-adv-x="739" d="M137 1024 L137 0 L403 0 L403 709 C472 756 607 801 720 797 L720 1042 C589 1048 449 968 383 891 L348 1024 L137 1024 Z " />
<glyph glyph-name="s" unicode="s" horiz-adv-x="858" d="M65 57 C142 17 260 -20 417 -20 C676 -20 804 97 804 280 C804 429 723 519 562 580 L480 612 C365 656 322 687 322 744 C322 811 392 836 465 836 C559 836 663 802 728 778 L774 976 C683 1022 562 1044 452 1044 C231 1044 72 923 72 725 C72 582 151 488 316 428 L391 400 C487 364 553 334 553 272 C553 210 491 188 397 188 C294 188 182 225 121 254 L65 57 Z " />
<glyph glyph-name="t" unicode="t" horiz-adv-x="760" d="M421 1270 L198 1251 L178 1015 L11 1005 L11 825 L161 825 L161 321 C161 83 262 -20 500 -20 C583 -20 684 1 738 23 L704 219 C673 208 613 196 562 196 C466 196 427 237 427 352 L427 825 L699 825 L699 1024 L421 1024 L421 1270 Z " />
<glyph glyph-name="u" unicode="u" horiz-adv-x="1144" d="M1006 0 L1006 1024 L741 1024 L741 283 C688 237 601 201 539 201 C433 201 386 261 386 391 L386 1024 L121 1024 L121 350 C121 99 236 -20 458 -20 C590 -20 702 48 766 110 L793 0 L1006 0 Z " />
<glyph glyph-name="v" unicode="v" horiz-adv-x="1058" d="M765 1024 L552 335 L526 284 L294 1024 L5 1024 L373 0 L685 0 L1053 1024 L765 1024 Z " />
<glyph glyph-name="w" unicode="w" horiz-adv-x="1605" d="M1309 1024 L1120 283 L1094 345 L918 1014 L687 1014 L511 345 L485 283 L296 1024 L12 1024 L310 0 L632 0 L802 593 L973 0 L1294 0 L1593 1024 L1309 1024 Z " />
<glyph glyph-name="x" unicode="x" horiz-adv-x="1036" d="M671 528 L1009 1024 L713 1024 L518 707 L324 1024 L27 1024 L366 528 L-8 0 L290 0 L518 349 L746 0 L1044 0 L671 528 Z " />
<glyph glyph-name="y" unicode="y" horiz-adv-x="1080" d="M774 1024 L560 261 L536 308 L300 1024 L8 1024 C130 709 251 393 374 79 L425 -28 C389 -156 323 -206 228 -206 C148 -206 88 -186 66 -178 L22 -370 C59 -387 148 -416 241 -416 C483 -416 622 -302 722 -4 L1062 1024 L774 1024 Z " />
<glyph glyph-name="z" unicode="z" horiz-adv-x="968" d="M81 162 L81 0 L887 0 L887 199 L388 199 L857 862 L857 1024 L116 1024 L116 825 L550 825 L81 162 Z " />
<glyph glyph-name="braceleft" unicode="&#x7b;" horiz-adv-x="676" d="M350 1342 C350 1394 394 1448 471 1448 C525 1448 569 1439 598 1430 L628 1603 C595 1619 526 1637 454 1637 C263 1637 120 1534 120 1338 C120 1186 306 1032 306 899 C306 830 253 769 155 757 C136 753 114 751 91 750 L91 578 C226 575 306 521 306 413 C306 295 120 142 120 -34 C120 -214 255 -309 448 -309 C526 -309 595 -290 628 -274 L598 -101 C569 -110 525 -119 477 -119 C394 -119 350 -75 350 -6 C350 99 545 278 545 436 C545 551 460 636 346 664 C461 692 545 779 545 910 C545 1063 350 1218 350 1342 L350 1342 Z " />
<glyph glyph-name="bar" unicode="&#x7c;" horiz-adv-x="514" d="M137 1523 L137 -499 L376 -499 L376 1523 L137 1523 Z " />
<glyph glyph-name="braceright" unicode="&#x7d;" horiz-adv-x="676" d="M331 1342 C331 1218 136 1064 136 910 C136 778 220 692 335 664 C220 635 136 551 136 436 C136 278 331 99 331 -6 C331 -75 286 -119 204 -119 C155 -119 112 -110 83 -101 L53 -274 C86 -290 155 -309 233 -309 C426 -309 561 -214 561 -34 C561 142 375 295 375 413 C375 518 452 575 590 578 L590 750 C457 753 375 805 375 899 C375 1032 561 1186 561 1338 C561 1534 418 1637 227 1637 C155 1637 86 1619 53 1603 L83 1430 C112 1439 155 1448 210 1448 C286 1448 331 1394 331 1342 L331 1342 Z " />
<glyph glyph-name="asciitilde" unicode="&#x7e;" horiz-adv-x="1095" d="M209 523 C248 550 314 595 388 595 C489 595 578 527 695 527 C808 527 905 582 970 668 L886 807 C848 780 782 735 707 735 C606 735 517 803 400 803 C287 803 190 748 125 662 L209 523 Z " />
<glyph glyph-name="nbspace" unicode="&#xa0;" horiz-adv-x="441" d="" />
<glyph glyph-name="exclamdown" unicode="&#xa1;" horiz-adv-x="512" d="M401 -306 L356 603 L157 603 L112 -306 L401 -306 Z M102 884 C102 794 165 738 249 738 C344 738 410 793 410 899 C410 988 347 1044 263 1044 C168 1044 102 988 102 884 L102 884 Z " />
<glyph glyph-name="cent" unicode="&#xa2;" horiz-adv-x="1245" d="M607 1432 L625 1187 C345 1144 175 937 175 656 C175 379 343 178 629 138 L612 -103 L831 -103 L814 136 C913 146 999 174 1054 205 L993 392 C947 374 863 346 773 346 C575 346 450 456 450 671 C450 878 580 982 759 982 C852 982 943 949 979 936 L1036 1125 C985 1152 904 1181 809 1192 L826 1432 L607 1432 Z " />
<glyph glyph-name="sterling" unicode="&#xa3;" horiz-adv-x="1250" d="M161 610 L322 610 C328 562 332 514 332 465 C332 387 325 298 300 206 C254 197 196 175 165 156 L211 -2 L356 -30 C391 -14 426 20 426 20 C444 19 462 18 479 16 C588 8 689 -20 801 -20 C980 -20 1103 74 1122 271 L951 321 C925 242 894 187 793 189 C719 189 647 206 558 214 C584 304 596 398 596 479 C596 524 593 567 588 610 L903 610 L903 747 L568 747 C558 815 549 882 549 952 C549 1070 615 1132 724 1132 C825 1132 924 1094 959 1080 L1016 1273 C968 1301 861 1350 724 1350 C446 1350 285 1190 285 938 C285 872 293 809 301 747 L161 747 L161 610 Z " />
<glyph glyph-name="currency" unicode="&#xa4;" horiz-adv-x="1524" d="M1323 211 L1145 424 C1193 493 1220 577 1220 670 C1220 763 1193 848 1144 917 L1323 1128 L1195 1235 L992 1045 C927 1079 849 1098 762 1098 C674 1098 597 1079 531 1045 L329 1235 L201 1128 L380 917 C331 848 304 763 304 670 C304 576 331 491 380 422 L201 211 L329 105 L531 293 C596 260 674 241 762 241 C849 241 927 260 993 293 L1195 105 L1323 211 Z M762 432 C631 432 539 530 539 670 C539 808 631 906 762 906 C894 906 984 808 984 670 C984 530 894 432 762 432 L762 432 Z " />
<glyph glyph-name="yen" unicode="&#xa5;" horiz-adv-x="1334" d="M1114 729 L1114 866 L967 866 L1229 1330 L954 1330 L667 795 L381 1330 L105 1330 L365 866 L221 866 L221 729 L1114 729 Z M244 465 L533 465 L533 0 L800 0 L800 465 L1091 465 L1091 602 L244 602 L244 465 Z " />
<glyph glyph-name="brokenbar" unicode="&#xa6;" horiz-adv-x="514" d="M137 1523 L137 713 L376 713 L376 1523 L137 1523 Z M137 311 L137 -499 L376 -499 L376 311 L137 311 Z " />
<glyph glyph-name="section" unicode="&#xa7;" horiz-adv-x="1116" d="M951 1201 L1007 1398 C941 1431 802 1480 643 1480 C309 1480 99 1294 99 1027 C99 842 156 733 261 488 L369 235 C450 44 474 -89 415 -194 C319 -188 232 -161 165 -138 L109 -334 C176 -368 314 -416 473 -416 C807 -416 1017 -231 1017 37 C1017 222 961 330 856 576 L747 829 C665 1020 642 1152 701 1258 C796 1252 883 1225 951 1201 L951 1201 Z M614 240 L483 544 C387 778 333 897 333 1037 C333 1131 383 1207 492 1241 C437 1167 414 1065 482 884 C493 848 507 812 524 774 L633 520 C730 286 783 167 783 27 C783 -68 733 -143 623 -177 C685 -91 704 29 614 240 L614 240 Z " />
<glyph glyph-name="dieresis" unicode="&#xa8;" horiz-adv-x="971" d="M117 1342 C117 1252 179 1196 263 1196 C358 1196 424 1252 424 1357 C424 1447 362 1502 278 1502 C182 1502 117 1446 117 1342 L117 1342 Z M547 1342 C547 1252 609 1196 693 1196 C788 1196 854 1252 854 1357 C854 1447 791 1502 708 1502 C612 1502 547 1446 547 1342 L547 1342 Z " />
<glyph glyph-name="copyright" unicode="&#xa9;" horiz-adv-x="1576" d="M639 670 C639 801 698 875 816 875 C882 875 940 854 967 844 L1009 997 C969 1021 893 1049 800 1049 C569 1049 425 893 425 657 C425 433 565 280 787 280 C887 280 972 306 1021 336 L975 487 C941 473 880 455 816 455 C695 455 639 529 639 670 L639 670 Z M264 667 C264 959 497 1197 784 1197 C1078 1197 1312 959 1312 662 C1312 370 1078 133 790 133 C497 133 264 370 264 667 L264 667 Z M109 662 C109 286 413 -20 784 -20 C1162 -20 1467 286 1467 667 C1467 1043 1161 1350 789 1350 C413 1350 109 1043 109 662 L109 662 Z " />
<glyph glyph-name="ordfeminine" unicode="&#xaa;" horiz-adv-x="623" d="M521 1150 C521 1276 440 1350 282 1350 C185 1350 95 1316 58 1296 L93 1146 C122 1158 181 1182 255 1182 C314 1182 337 1154 337 1101 L337 1078 C319 1080 295 1082 271 1081 C147 1079 38 1026 40 900 C42 791 114 731 228 731 C297 731 339 762 370 788 C392 752 430 731 487 731 C534 731 579 744 602 753 L586 875 C580 872 567 868 552 868 C532 868 521 879 521 901 L521 1150 Z M215 916 C214 951 238 971 284 975 C306 976 325 974 337 971 L337 894 C322 881 295 868 269 868 C238 868 216 883 215 916 L215 916 Z " />
<glyph glyph-name="guillemotleft" unicode="&#xab;" horiz-adv-x="1210" d="M510 998 C385 829 226 642 97 512 C226 383 385 195 510 26 L688 156 C609 274 492 400 379 512 C492 624 609 750 688 868 L510 998 Z M959 958 C841 799 702 633 582 512 C702 391 841 224 959 66 L1137 196 C1062 304 972 412 864 512 C972 612 1062 720 1137 828 L959 958 Z " />
<glyph glyph-name="logicalnot" unicode="&#xac;" horiz-adv-x="1225" d="M152 559 L856 559 L856 280 L1073 280 L1073 770 L152 770 L152 559 Z " />
<glyph glyph-name="uni00AD" unicode="&#xad;" horiz-adv-x="879" d="M131 427 L748 427 L748 638 L131 638 L131 427 Z " />
<glyph glyph-name="registered" unicode="&#xae;" horiz-adv-x="1576" d="M707 309 L707 552 L780 552 L881 309 L1099 309 L957 594 C1028 633 1077 707 1077 790 C1077 936 968 1017 798 1017 L515 1017 L515 309 L707 309 Z M707 878 L745 878 C759 878 772 877 784 876 C840 871 871 838 871 780 C871 737 849 703 813 688 C794 684 772 681 748 681 L707 681 L707 878 Z M264 667 C264 959 497 1197 784 1197 C1078 1197 1312 959 1312 662 C1312 370 1078 133 790 133 C497 133 264 370 264 667 L264 667 Z M109 662 C109 286 413 -20 784 -20 C1162 -20 1467 286 1467 667 C1467 1043 1161 1350 789 1350 C413 1350 109 1043 109 662 L109 662 Z " />
<glyph glyph-name="macron" unicode="&#xaf;" horiz-adv-x="843" d="M113 1253 L730 1253 L730 1448 L113 1448 L113 1253 Z " />
<glyph glyph-name="degree" unicode="&#xb0;" horiz-adv-x="629" d="M308 819 C479 819 588 940 588 1090 C588 1230 479 1350 321 1350 C151 1350 41 1228 41 1078 C41 939 151 819 308 819 L308 819 Z M319 984 C257 984 222 1031 222 1089 C222 1139 256 1184 309 1184 C373 1184 406 1137 406 1079 C406 1028 373 984 319 984 L319 984 Z " />
<glyph glyph-name="plusminus" unicode="&#xb1;" horiz-adv-x="1197" d="M477 1254 L477 940 L159 940 L159 742 L477 742 L477 416 L680 416 L680 742 L998 742 L998 940 L680 940 L680 1254 L477 1254 Z M165 35 L992 35 L992 233 L165 233 L165 35 Z " />
<glyph glyph-name="twosuperior" unicode="&#xb2;" horiz-adv-x="544" d="M37 751 L506 751 L506 910 L280 910 C402 965 483 1039 483 1148 C483 1260 410 1350 244 1350 C146 1350 57 1310 35 1294 L78 1149 C97 1158 156 1184 215 1184 C257 1184 284 1162 284 1119 C284 1048 199 993 37 900 L37 751 Z " />
<glyph glyph-name="threesuperior" unicode="&#xb3;" horiz-adv-x="524" d="M271 1148 C271 1123 259 1110 249 1101 L123 1101 L123 987 L217 987 C267 987 291 970 291 933 C291 897 262 880 202 880 C136 880 85 897 63 905 L27 769 C54 754 135 731 213 731 C383 731 481 795 481 920 C481 1002 424 1041 392 1056 C419 1072 463 1106 463 1177 C463 1279 383 1350 219 1350 C126 1350 55 1321 33 1308 L69 1175 C96 1188 145 1201 191 1201 C244 1201 271 1179 271 1148 L271 1148 Z " />
<glyph glyph-name="acute" unicode="&#xb4;" horiz-adv-x="803" d="M172 1166 L697 1326 L596 1550 L113 1297 L172 1166 Z " />
<glyph glyph-name="&amp;#xb5;" unicode="&#xb5;" horiz-adv-x="1144" d="M1006 0 L1006 1024 L741 1024 L741 283 C688 237 601 201 539 201 C434 201 386 261 386 391 L386 1024 L121 1024 L121 -50 C121 -161 79 -206 -12 -206 C-51 -206 -81 -198 -102 -191 L-132 -388 C-112 -396 -82 -404 -52 -409 C-17 -413 20 -414 61 -410 C217 -395 317 -314 355 -175 C374 -128 383 -72 384 -7 C405 -16 430 -20 458 -20 C590 -20 702 48 766 110 L793 0 L1006 0 Z " />
<glyph glyph-name="&amp;#x3bc;" unicode="&#x3bc;" horiz-adv-x="1144" d="M1006 0 L1006 1024 L741 1024 L741 283 C688 237 601 201 539 201 C434 201 386 261 386 391 L386 1024 L121 1024 L121 -50 C121 -161 79 -206 -12 -206 C-51 -206 -81 -198 -102 -191 L-132 -388 C-112 -396 -82 -404 -52 -409 C-17 -413 20 -414 61 -410 C217 -395 317 -314 355 -175 C374 -128 383 -72 384 -7 C405 -16 430 -20 458 -20 C590 -20 702 48 766 110 L793 0 L1006 0 Z " />
<glyph glyph-name="paragraph" unicode="&#xb6;" horiz-adv-x="1209" d="M566 1112 L703 1112 L703 67 C703 -108 690 -192 550 -194 C491 -194 446 -185 423 -180 L390 -384 C418 -396 489 -416 589 -416 C825 -416 970 -285 970 3 L970 1112 L1127 1112 L1127 1330 L570 1330 C265 1330 61 1187 61 905 C61 623 262 470 566 470 L566 1112 Z " />
<glyph glyph-name="periodcentered" unicode="&#xb7;" horiz-adv-x="552" d="M122 505 C122 415 185 359 269 359 C364 359 430 415 430 520 C430 610 367 665 283 665 C188 665 122 609 122 505 L122 505 Z " />
<glyph glyph-name="cedilla" unicode="&#xb8;" horiz-adv-x="571" d="M91 -508 C111 -517 156 -527 207 -527 C363 -527 483 -465 483 -305 C483 -169 382 -106 252 -106 L141 -106 L131 -244 L188 -244 C248 -244 283 -267 283 -315 C283 -361 249 -389 187 -389 C153 -389 126 -384 109 -379 L91 -508 Z " />
<glyph glyph-name="onesuperior" unicode="&#xb9;" horiz-adv-x="549" d="M42 907 L42 751 L517 751 L517 907 L388 911 L388 1350 L310 1350 C227 1335 120 1318 36 1307 L53 1154 C88 1157 157 1166 193 1171 L193 911 L42 907 Z " />
<glyph glyph-name="ordmasculine" unicode="&#xba;" horiz-adv-x="687" d="M337 731 C531 731 646 865 646 1046 C646 1214 531 1350 350 1350 C157 1350 41 1215 41 1034 C41 867 157 731 337 731 L337 731 Z M347 900 C272 900 245 963 245 1044 C245 1118 272 1180 339 1180 C415 1180 441 1118 441 1036 C441 961 415 900 347 900 L347 900 Z " />
<glyph glyph-name="guillemotright" unicode="&#xbb;" horiz-adv-x="1210" d="M705 27 C829 196 989 383 1117 513 C989 642 829 830 705 999 L527 869 C605 751 722 625 836 513 C722 401 605 275 527 157 L705 27 Z M256 67 C374 225 512 392 632 513 C513 634 373 801 256 959 L78 828 C152 721 243 613 351 513 C243 413 152 305 78 197 L256 67 Z " />
<glyph glyph-name="onequarter" unicode="&#xbc;" horiz-adv-x="1364" d="M1128 1357 L135 81 L277 -20 L1270 1255 L1128 1357 Z M93 907 L93 751 L568 751 L568 907 L439 911 L439 1350 L361 1350 C278 1335 171 1318 87 1307 L105 1154 C139 1157 208 1166 244 1171 L244 911 L93 907 Z M952 579 L681 223 L681 100 L946 100 L946 0 L1127 0 L1127 100 L1216 100 L1216 235 L1127 235 L1127 579 L952 579 Z M851 235 L946 362 L946 235 L851 235 Z " />
<glyph glyph-name="onehalf" unicode="&#xbd;" horiz-adv-x="1391" d="M1128 1357 L135 81 L277 -20 L1270 1255 L1128 1357 Z M841 0 L1309 0 L1309 159 L1084 159 C1205 214 1286 288 1286 397 C1286 509 1214 599 1047 599 C949 599 860 559 839 543 L882 398 C901 407 960 433 1019 433 C1061 433 1087 411 1087 368 C1087 297 1003 242 841 149 L841 0 Z M93 907 L93 751 L568 751 L568 907 L439 911 L439 1350 L361 1350 C278 1335 171 1318 87 1307 L105 1154 C139 1157 208 1166 244 1171 L244 911 L93 907 Z " />
<glyph glyph-name="threequarters" unicode="&#xbe;" horiz-adv-x="1328" d="M1091 1357 L99 81 L241 -20 L1234 1255 L1091 1357 Z M915 579 L644 223 L644 100 L909 100 L909 0 L1090 0 L1090 100 L1179 100 L1179 235 L1090 235 L1090 579 L915 579 Z M347 1148 C347 1123 335 1110 325 1101 L200 1101 L200 987 L293 987 C343 987 367 970 367 933 C367 897 338 880 278 880 C213 880 161 897 140 905 L104 769 C130 754 212 731 289 731 C459 731 558 795 558 920 C558 1002 500 1041 469 1056 C495 1072 540 1106 540 1177 C540 1279 459 1350 295 1350 C202 1350 131 1321 110 1308 L146 1175 C172 1188 221 1201 267 1201 C321 1201 347 1179 347 1148 L347 1148 Z M814 235 L909 362 L909 235 L814 235 Z " />
<glyph glyph-name="questiondown" unicode="&#xbf;" horiz-adv-x="814" d="M607 506 C607 562 590 596 580 616 L387 599 C389 588 391 572 390 549 C392 378 52 281 52 15 C52 -181 213 -326 459 -326 C625 -326 738 -273 793 -242 L736 -57 C711 -70 641 -101 547 -107 C522 -110 497 -110 471 -109 C369 -101 314 -48 314 44 C314 137 426 223 502 303 C565 368 607 429 607 506 L607 506 Z M315 884 C315 794 377 738 461 738 C556 738 622 793 622 899 C622 988 560 1044 476 1044 C381 1044 315 988 315 884 L315 884 Z " />
<glyph glyph-name="Agrave" unicode="&#xc0;" horiz-adv-x="1299" d="M1003 0 L1288 0 L772 1330 L526 1330 L11 0 L296 0 L405 308 L894 308 L1003 0 Z M918 1597 L443 1846 L341 1623 L859 1466 L918 1597 Z M646 998 L674 936 L821 513 L477 513 L646 998 Z " />
<glyph glyph-name="Aacute" unicode="&#xc1;" horiz-adv-x="1299" d="M1003 0 L1288 0 L772 1330 L526 1330 L11 0 L296 0 L405 308 L894 308 L1003 0 Z M434 1466 L959 1626 L858 1850 L375 1597 L434 1466 Z M646 998 L674 936 L821 513 L477 513 L646 998 Z " />
<glyph glyph-name="Acircumflex" unicode="&#xc2;" horiz-adv-x="1299" d="M1003 0 L1288 0 L772 1330 L526 1330 L11 0 L296 0 L405 308 L894 308 L1003 0 Z M994 1603 C903 1663 769 1756 649 1843 C530 1756 396 1663 304 1603 L433 1442 C500 1491 592 1567 649 1621 C706 1568 799 1491 866 1442 L994 1603 Z M646 998 L674 936 L821 513 L477 513 L646 998 Z " />
<glyph glyph-name="Atilde" unicode="&#xc3;" horiz-adv-x="1299" d="M1003 0 L1288 0 L772 1330 L526 1330 L11 0 L296 0 L405 308 L894 308 L1003 0 Z M419 1505 C454 1548 483 1585 529 1585 C598 1585 674 1512 757 1512 C892 1512 973 1605 1010 1702 L882 1801 C845 1758 818 1721 771 1721 C711 1721 628 1794 534 1794 C401 1794 319 1684 290 1602 L419 1505 Z M646 998 L674 936 L821 513 L477 513 L646 998 Z " />
<glyph glyph-name="Adieresis" unicode="&#xc4;" horiz-adv-x="1299" d="M1003 0 L1288 0 L772 1330 L526 1330 L11 0 L296 0 L408 317 L891 317 L1003 0 Z M646 998 L674 936 L818 523 L481 523 L646 998 Z M277 1642 C277 1552 339 1496 424 1496 C519 1496 585 1552 585 1657 C585 1747 522 1802 438 1802 C343 1802 277 1746 277 1642 L277 1642 Z M714 1642 C714 1552 777 1496 861 1496 C956 1496 1022 1552 1022 1657 C1022 1747 959 1802 875 1802 C780 1802 714 1746 714 1642 L714 1642 Z " />
<glyph glyph-name="Aring" unicode="&#xc5;" horiz-adv-x="1299" d="M1003 0 L1288 0 L772 1330 L526 1330 L11 0 L296 0 L405 308 L894 308 L1003 0 Z M409 1642 C409 1507 508 1424 641 1424 C787 1424 890 1508 890 1659 C890 1793 791 1876 658 1876 C512 1876 409 1792 409 1642 L409 1642 Z M646 998 L674 936 L821 513 L477 513 L646 998 Z M572 1648 C572 1698 605 1728 651 1728 C694 1728 727 1698 727 1652 C727 1603 695 1572 647 1572 C605 1572 572 1603 572 1648 L572 1648 Z " />
<glyph glyph-name="AE" unicode="&#xc6;" horiz-adv-x="1876" d="M977 1330 L5 0 L292 0 L516 309 L996 309 L996 0 L1795 0 L1795 218 L1256 218 L1256 564 L1749 564 L1749 776 L1256 776 L1256 1112 L1775 1112 L1775 1330 L977 1330 Z M666 514 L996 971 L996 514 L666 514 Z " />
<glyph glyph-name="Ccedilla" unicode="&#xc7;" horiz-adv-x="1148" d="M70 661 C70 241 325 -20 754 -20 C878 -20 1013 15 1098 64 L1033 262 C952 225 850 204 754 204 C505 204 355 389 355 677 C355 962 506 1126 755 1126 C847 1126 931 1107 1011 1075 L1069 1276 C994 1318 865 1350 749 1350 C333 1350 70 1073 70 661 L70 661 Z M485 -508 C505 -517 549 -527 601 -527 C757 -527 876 -465 876 -305 C876 -169 775 -106 646 -106 L535 -106 L525 -244 L582 -244 C642 -244 677 -267 677 -315 C677 -361 642 -389 580 -389 C546 -389 520 -384 503 -379 L485 -508 Z " />
<glyph glyph-name="Egrave" unicode="&#xc8;" horiz-adv-x="1055" d="M954 1330 L137 1330 L137 0 L974 0 L974 218 L404 218 L404 564 L928 564 L928 776 L404 776 L404 1112 L954 1112 L954 1330 Z M824 1597 L349 1846 L248 1623 L765 1466 L824 1597 Z " />
<glyph glyph-name="Eacute" unicode="&#xc9;" horiz-adv-x="1055" d="M954 1330 L137 1330 L137 0 L974 0 L974 218 L404 218 L404 564 L928 564 L928 776 L404 776 L404 1112 L954 1112 L954 1330 Z M347 1466 L872 1626 L771 1850 L288 1597 L347 1466 Z " />
<glyph glyph-name="Ecircumflex" unicode="&#xca;" horiz-adv-x="1055" d="M954 1330 L137 1330 L137 0 L974 0 L974 218 L404 218 L404 564 L928 564 L928 776 L404 776 L404 1112 L954 1112 L954 1330 Z M901 1603 C809 1663 675 1756 556 1843 C437 1756 303 1663 211 1603 L340 1442 C407 1491 498 1567 556 1621 C613 1568 706 1491 772 1442 L901 1603 Z " />
<glyph glyph-name="Edieresis" unicode="&#xcb;" horiz-adv-x="1055" d="M954 1330 L137 1330 L137 0 L974 0 L974 218 L404 218 L404 564 L928 564 L928 776 L404 776 L404 1112 L954 1112 L954 1330 Z M187 1642 C187 1552 250 1496 334 1496 C429 1496 495 1552 495 1657 C495 1747 432 1802 348 1802 C253 1802 187 1746 187 1642 L187 1642 Z M617 1642 C617 1552 679 1496 764 1496 C859 1496 925 1552 925 1657 C925 1747 862 1802 778 1802 C683 1802 617 1746 617 1642 L617 1642 Z " />
<glyph glyph-name="Igrave" unicode="&#xcc;" horiz-adv-x="541" d="M137 0 L404 0 L404 1330 L137 1330 L137 0 Z M532 1597 L58 1846 L-44 1623 L474 1466 L532 1597 Z " />
<glyph glyph-name="Iacute" unicode="&#xcd;" horiz-adv-x="541" d="M137 0 L404 0 L404 1330 L137 1330 L137 0 Z M62 1466 L587 1626 L485 1850 L2 1597 L62 1466 Z " />
<glyph glyph-name="Icircumflex" unicode="&#xce;" horiz-adv-x="541" d="M137 0 L404 0 L404 1330 L137 1330 L137 0 Z M615 1603 C524 1663 390 1756 270 1843 C151 1756 17 1663 -75 1603 L54 1442 C121 1491 213 1567 270 1621 C327 1568 420 1491 487 1442 L615 1603 Z " />
<glyph glyph-name="Idieresis" unicode="&#xcf;" horiz-adv-x="541" d="M137 0 L404 0 L404 1330 L137 1330 L137 0 Z M-82 1642 C-82 1552 -20 1496 65 1496 C160 1496 226 1552 226 1657 C226 1747 163 1802 79 1802 C-16 1802 -82 1746 -82 1642 L-82 1642 Z M315 1642 C315 1552 378 1496 462 1496 C557 1496 623 1552 623 1657 C623 1747 560 1802 476 1802 C381 1802 315 1746 315 1642 L315 1642 Z " />
<glyph glyph-name="Eth" unicode="&#xd0;" horiz-adv-x="1339" d="M7 596 L166 596 L166 0 L599 0 C1026 0 1273 258 1273 673 C1273 1071 1027 1330 599 1330 L166 1330 L166 735 L7 735 L7 596 Z M432 207 L432 596 L733 596 L733 735 L432 735 L432 1123 L599 1123 C841 1123 988 954 988 658 C988 379 836 207 600 207 L432 207 Z " />
<glyph glyph-name="Ntilde" unicode="&#xd1;" horiz-adv-x="1365" d="M938 0 L1227 0 L1227 1330 L966 1330 L966 403 L427 1330 L137 1330 L137 0 L399 0 L399 927 L938 0 Z M446 1505 C481 1548 510 1585 556 1585 C625 1585 701 1512 784 1512 C919 1512 1000 1605 1037 1702 L909 1801 C872 1758 845 1721 798 1721 C737 1721 655 1794 561 1794 C428 1794 346 1684 317 1602 L446 1505 Z " />
<glyph glyph-name="Ograve" unicode="&#xd2;" horiz-adv-x="1419" d="M715 193 C492 193 355 378 355 676 C355 968 494 1137 704 1137 C928 1137 1064 952 1064 654 C1064 362 925 193 715 193 L715 193 Z M704 -20 C1107 -20 1349 254 1349 669 C1349 1085 1116 1350 716 1350 C312 1350 70 1076 70 661 C70 245 304 -20 704 -20 L704 -20 Z M984 1597 L510 1846 L408 1623 L925 1466 L984 1597 Z " />
<glyph glyph-name="Oacute" unicode="&#xd3;" horiz-adv-x="1419" d="M715 193 C492 193 355 378 355 676 C355 968 494 1137 704 1137 C928 1137 1064 952 1064 654 C1064 362 925 193 715 193 L715 193 Z M704 -20 C1107 -20 1349 254 1349 669 C1349 1085 1116 1350 716 1350 C312 1350 70 1076 70 661 C70 245 304 -20 704 -20 L704 -20 Z M481 1466 L1006 1626 L905 1850 L422 1597 L481 1466 Z " />
<glyph glyph-name="Ocircumflex" unicode="&#xd4;" horiz-adv-x="1419" d="M715 193 C492 193 355 378 355 676 C355 968 494 1137 704 1137 C928 1137 1064 952 1064 654 C1064 362 925 193 715 193 L715 193 Z M704 -20 C1107 -20 1349 254 1349 669 C1349 1085 1116 1350 716 1350 C312 1350 70 1076 70 661 C70 245 304 -20 704 -20 L704 -20 Z M1055 1603 C963 1663 829 1756 710 1843 C591 1756 456 1663 365 1603 L493 1442 C561 1491 652 1567 710 1621 C767 1568 860 1491 926 1442 L1055 1603 Z " />
<glyph glyph-name="Otilde" unicode="&#xd5;" horiz-adv-x="1419" d="M715 193 C492 193 355 378 355 676 C355 968 494 1137 704 1137 C928 1137 1064 952 1064 654 C1064 362 925 193 715 193 L715 193 Z M704 -20 C1107 -20 1349 254 1349 669 C1349 1085 1116 1350 716 1350 C312 1350 70 1076 70 661 C70 245 304 -20 704 -20 L704 -20 Z M479 1505 C514 1548 543 1585 589 1585 C658 1585 735 1512 818 1512 C952 1512 1034 1605 1071 1702 L943 1801 C905 1758 879 1721 831 1721 C771 1721 688 1794 594 1794 C461 1794 379 1684 351 1602 L479 1505 Z " />
<glyph glyph-name="Odieresis" unicode="&#xd6;" horiz-adv-x="1419" d="M715 193 C492 193 355 378 355 676 C355 968 494 1137 704 1137 C928 1137 1064 952 1064 654 C1064 362 925 193 715 193 L715 193 Z M704 -20 C1107 -20 1349 254 1349 669 C1349 1085 1116 1350 716 1350 C312 1350 70 1076 70 661 C70 245 304 -20 704 -20 L704 -20 Z M341 1642 C341 1552 403 1496 488 1496 C583 1496 649 1552 649 1657 C649 1747 586 1802 502 1802 C407 1802 341 1746 341 1642 L341 1642 Z M771 1642 C771 1552 833 1496 917 1496 C1012 1496 1078 1552 1078 1657 C1078 1747 1016 1802 932 1802 C837 1802 771 1746 771 1642 L771 1642 Z " />
<glyph glyph-name="multiply" unicode="&#xd7;" horiz-adv-x="1161" d="M868 1102 L581 815 L294 1102 L144 952 L431 666 L143 378 L293 228 L580 516 L868 229 L1017 379 L730 665 L1017 953 L868 1102 Z " />
<glyph glyph-name="Oslash" unicode="&#xd8;" horiz-adv-x="1419" d="M264 -163 L398 45 C484 2 587 -20 704 -20 C1107 -20 1349 254 1349 669 C1349 901 1276 1088 1140 1205 L1278 1422 L1155 1493 L1022 1284 C935 1327 832 1350 716 1350 C312 1350 70 1076 70 661 C70 428 143 242 279 124 L141 -92 L264 -163 Z M715 193 C643 193 579 213 527 248 L990 971 C1038 890 1064 783 1064 654 C1064 362 925 193 715 193 L715 193 Z M355 676 C355 968 494 1137 704 1137 C777 1137 839 1117 892 1081 L428 358 C381 439 355 546 355 676 L355 676 Z " />
<glyph glyph-name="Ugrave" unicode="&#xd9;" horiz-adv-x="1273" d="M374 1330 L108 1330 L108 520 C108 174 302 -20 627 -20 C957 -20 1161 182 1161 522 L1161 1330 L895 1330 L895 509 C895 295 798 194 639 194 C476 194 374 295 374 532 L374 1330 Z M898 1597 L424 1846 L322 1623 L840 1466 L898 1597 Z " />
<glyph glyph-name="Uacute" unicode="&#xda;" horiz-adv-x="1273" d="M374 1330 L108 1330 L108 520 C108 174 302 -20 627 -20 C957 -20 1161 182 1161 522 L1161 1330 L895 1330 L895 509 C895 295 798 194 639 194 C476 194 374 295 374 532 L374 1330 Z M416 1466 L941 1626 L840 1850 L357 1597 L416 1466 Z " />
<glyph glyph-name="Ucircumflex" unicode="&#xdb;" horiz-adv-x="1273" d="M374 1330 L108 1330 L108 520 C108 174 302 -20 627 -20 C957 -20 1161 182 1161 522 L1161 1330 L895 1330 L895 509 C895 295 798 194 639 194 C476 194 374 295 374 532 L374 1330 Z M982 1603 C891 1663 757 1756 638 1843 C519 1756 384 1663 293 1603 L421 1442 C489 1491 580 1567 638 1621 C695 1568 788 1491 854 1442 L982 1603 Z " />
<glyph glyph-name="Udieresis" unicode="&#xdc;" horiz-adv-x="1273" d="M374 1330 L108 1330 L108 520 C108 174 302 -20 627 -20 C957 -20 1161 182 1161 522 L1161 1330 L895 1330 L895 509 C895 295 798 194 639 194 C476 194 374 295 374 532 L374 1330 Z M269 1642 C269 1552 331 1496 416 1496 C511 1496 577 1552 577 1657 C577 1747 514 1802 430 1802 C335 1802 269 1746 269 1642 L269 1642 Z M699 1642 C699 1552 761 1496 845 1496 C940 1496 1006 1552 1006 1657 C1006 1747 944 1802 860 1802 C765 1802 699 1746 699 1642 L699 1642 Z " />
<glyph glyph-name="Yacute" unicode="&#xdd;" horiz-adv-x="1176" d="M454 0 L721 0 L721 501 L1165 1330 L878 1330 L589 752 L300 1330 L11 1330 L454 501 L454 0 Z M373 1466 L898 1626 L797 1850 L314 1597 L373 1466 Z " />
<glyph glyph-name="Thorn" unicode="&#xde;" horiz-adv-x="1108" d="M404 878 L568 878 C704 878 780 802 780 665 C780 532 706 451 560 451 L404 451 L404 878 Z M404 0 L404 243 L575 243 C859 243 1059 396 1059 678 C1059 947 881 1084 566 1084 L404 1084 L404 1330 L137 1330 L137 0 L404 0 Z " />
<glyph glyph-name="germandbls" unicode="&#xdf;" horiz-adv-x="1203" d="M509 40 C557 12 657 -20 788 -20 C1031 -20 1171 89 1171 272 C1171 414 1075 487 948 574 C854 640 799 675 799 722 C799 766 833 799 904 862 C983 935 1065 1015 1065 1146 C1065 1314 916 1480 628 1480 C311 1480 134 1292 134 1055 L134 0 L399 0 L399 1038 C399 1184 486 1270 611 1270 C735 1270 799 1203 799 1127 C799 1049 742 998 685 940 C603 861 548 799 548 696 C548 572 623 515 726 445 C830 375 909 327 909 269 C909 212 861 189 775 189 C693 189 607 213 551 237 L509 40 Z " />
<glyph glyph-name="agrave" unicode="&#xe0;" horiz-adv-x="973" d="M829 701 C829 919 692 1044 440 1044 C300 1044 157 991 89 953 L141 765 C198 792 303 826 406 826 C528 826 576 769 576 659 L576 560 C291 592 44 514 44 264 C44 94 177 -20 367 -20 C459 -20 553 19 628 89 C660 18 725 -20 810 -20 C872 -20 927 -6 966 11 L945 195 C929 190 909 183 883 183 C850 183 829 203 829 252 L829 701 Z M297 290 C297 411 447 433 576 412 L576 236 C532 200 477 175 422 175 C346 175 297 218 297 290 L297 290 Z M750 1297 L276 1546 L174 1323 L692 1166 L750 1297 Z " />
<glyph glyph-name="aacute" unicode="&#xe1;" horiz-adv-x="973" d="M829 701 C829 919 692 1044 440 1044 C300 1044 157 991 89 953 L141 765 C198 792 303 826 406 826 C528 826 576 769 576 659 L576 560 C291 592 44 514 44 264 C44 94 177 -20 367 -20 C459 -20 553 19 628 89 C660 18 725 -20 810 -20 C872 -20 927 -6 966 11 L945 195 C929 190 909 183 883 183 C850 183 829 203 829 252 L829 701 Z M297 290 C297 411 447 433 576 412 L576 236 C532 200 477 175 422 175 C346 175 297 218 297 290 L297 290 Z M222 1166 L747 1326 L646 1550 L163 1297 L222 1166 Z " />
<glyph glyph-name="acircumflex" unicode="&#xe2;" horiz-adv-x="973" d="M829 701 C829 919 692 1044 440 1044 C300 1044 157 991 89 953 L141 765 C198 792 303 826 406 826 C528 826 576 769 576 659 L576 560 C291 592 44 514 44 264 C44 94 177 -20 367 -20 C459 -20 553 19 628 89 C660 18 725 -20 810 -20 C872 -20 927 -6 966 11 L945 195 C929 190 909 183 883 183 C850 183 829 203 829 252 L829 701 Z M297 290 C297 411 447 433 576 412 L576 236 C532 200 477 175 422 175 C346 175 297 218 297 290 L297 290 Z M798 1303 C707 1363 573 1456 453 1543 C334 1456 200 1363 108 1303 L237 1142 C304 1191 396 1267 453 1321 C510 1268 603 1191 670 1142 L798 1303 Z " />
<glyph glyph-name="atilde" unicode="&#xe3;" horiz-adv-x="973" d="M829 701 C829 919 692 1044 440 1044 C300 1044 157 991 89 953 L141 765 C198 792 303 826 406 826 C528 826 576 769 576 659 L576 560 C291 592 44 514 44 264 C44 94 177 -20 367 -20 C459 -20 553 19 628 89 C660 18 725 -20 810 -20 C872 -20 927 -6 966 11 L945 195 C929 190 909 183 883 183 C850 183 829 203 829 252 L829 701 Z M297 290 C297 411 447 433 576 412 L576 236 C532 200 477 175 422 175 C346 175 297 218 297 290 L297 290 Z M212 1205 C246 1248 276 1285 322 1285 C391 1285 467 1212 550 1212 C685 1212 766 1305 803 1402 L675 1501 C638 1458 611 1421 564 1421 C503 1421 420 1494 327 1494 C194 1494 112 1384 83 1302 L212 1205 Z " />
<glyph glyph-name="adieresis" unicode="&#xe4;" horiz-adv-x="973" d="M829 701 C829 919 692 1044 440 1044 C300 1044 157 991 89 953 L141 765 C198 792 303 826 406 826 C528 826 576 769 576 659 L576 560 C291 592 44 514 44 264 C44 94 177 -20 367 -20 C459 -20 553 19 628 89 C660 18 725 -20 810 -20 C872 -20 927 -6 966 11 L945 195 C929 190 909 183 883 183 C850 183 829 203 829 252 L829 701 Z M297 290 C297 411 447 433 576 412 L576 236 C532 200 477 175 422 175 C346 175 297 218 297 290 L297 290 Z M104 1342 C104 1252 166 1196 250 1196 C345 1196 411 1252 411 1357 C411 1447 349 1502 265 1502 C169 1502 104 1446 104 1342 L104 1342 Z M533 1342 C533 1252 596 1196 680 1196 C775 1196 841 1252 841 1357 C841 1447 778 1502 694 1502 C599 1502 533 1446 533 1342 L533 1342 Z " />
<glyph glyph-name="aring" unicode="&#xe5;" horiz-adv-x="973" d="M829 701 C829 919 692 1044 440 1044 C300 1044 157 991 89 953 L141 765 C198 792 303 826 406 826 C528 826 576 769 576 659 L576 560 C291 592 44 514 44 264 C44 94 177 -20 367 -20 C459 -20 553 19 628 89 C660 18 725 -20 810 -20 C872 -20 927 -6 966 11 L945 195 C929 190 909 183 883 183 C850 183 829 203 829 252 L829 701 Z M297 290 C297 411 447 433 576 412 L576 236 C532 200 477 175 422 175 C346 175 297 218 297 290 L297 290 Z M376 1348 C376 1398 409 1428 455 1428 C498 1428 531 1398 531 1352 C531 1303 499 1272 451 1272 C409 1272 376 1303 376 1348 L376 1348 Z M213 1342 C213 1207 312 1124 445 1124 C591 1124 694 1208 694 1359 C694 1493 595 1576 462 1576 C316 1576 213 1492 213 1342 L213 1342 Z " />
<glyph glyph-name="ae" unicode="&#xe6;" horiz-adv-x="1518" d="M1429 462 C1447 508 1460 578 1460 661 C1460 891 1318 1044 1066 1044 C936 1044 829 997 749 915 C685 998 580 1044 441 1044 C314 1044 168 997 85 953 L136 764 C206 796 312 826 404 826 C527 826 580 774 580 660 L580 578 C533 578 486 575 441 573 C207 556 47 454 47 279 C47 94 181 -20 366 -20 C490 -20 610 34 723 129 C807 35 928 -20 1067 -20 C1239 -20 1362 24 1430 60 L1371 250 C1311 227 1223 198 1101 198 C950 198 856 279 842 445 L1429 462 Z M846 592 C857 754 930 845 1045 845 C1145 845 1204 780 1206 673 C1207 652 1206 630 1202 604 L846 592 Z M300 300 C300 368 353 418 449 431 C490 436 532 439 580 439 C582 377 586 311 595 249 C544 207 481 177 419 177 C348 177 300 219 300 300 L300 300 Z " />
<glyph glyph-name="ccedilla" unicode="&#xe7;" horiz-adv-x="895" d="M333 518 C333 710 428 826 598 826 C689 826 771 794 805 782 L861 974 C808 1004 704 1044 575 1044 C255 1044 57 826 57 502 C57 191 250 -20 558 -20 C696 -20 811 17 876 54 L817 244 C777 227 689 198 598 198 C423 198 333 314 333 518 L333 518 Z M322 -508 C342 -517 386 -527 437 -527 C594 -527 713 -465 713 -305 C713 -169 612 -106 483 -106 L372 -106 L361 -244 L419 -244 C479 -244 514 -267 514 -315 C514 -361 479 -389 417 -389 C383 -389 357 -384 340 -379 L322 -508 Z " />
<glyph glyph-name="egrave" unicode="&#xe8;" horiz-adv-x="1010" d="M923 457 C939 501 954 576 954 663 C954 890 811 1044 557 1044 C247 1044 57 827 57 502 C57 192 248 -20 563 -20 C732 -20 857 27 922 58 L865 250 C803 226 709 198 596 198 C433 198 336 283 325 457 L923 457 Z M535 845 C636 845 697 784 701 679 C701 654 699 631 694 608 L328 608 C340 760 411 845 535 845 L535 845 Z M816 1297 L342 1546 L240 1323 L758 1166 L816 1297 Z " />
<glyph glyph-name="eacute" unicode="&#xe9;" horiz-adv-x="1010" d="M923 457 C939 501 954 576 954 663 C954 890 811 1044 557 1044 C247 1044 57 827 57 502 C57 192 248 -20 563 -20 C732 -20 857 27 922 58 L865 250 C803 226 709 198 596 198 C433 198 336 283 325 457 L923 457 Z M535 845 C636 845 697 784 701 679 C701 654 699 631 694 608 L328 608 C340 760 411 845 535 845 L535 845 Z M306 1166 L831 1326 L729 1550 L246 1297 L306 1166 Z " />
<glyph glyph-name="ecircumflex" unicode="&#xea;" horiz-adv-x="1010" d="M923 457 C939 501 954 576 954 663 C954 890 811 1044 557 1044 C247 1044 57 827 57 502 C57 192 248 -20 563 -20 C732 -20 857 27 922 58 L865 250 C803 226 709 198 596 198 C433 198 336 283 325 457 L923 457 Z M535 845 C636 845 697 784 701 679 C701 654 699 631 694 608 L328 608 C340 760 411 845 535 845 L535 845 Z M873 1303 C781 1363 647 1456 528 1543 C409 1456 275 1363 183 1303 L312 1142 C379 1191 471 1267 528 1321 C585 1268 678 1191 744 1142 L873 1303 Z " />
<glyph glyph-name="edieresis" unicode="&#xeb;" horiz-adv-x="1010" d="M923 457 C939 501 954 576 954 663 C954 890 811 1044 557 1044 C247 1044 57 827 57 502 C57 192 248 -20 563 -20 C732 -20 857 27 922 58 L865 250 C803 226 709 198 596 198 C433 198 336 283 325 457 L923 457 Z M535 845 C636 845 697 784 701 679 C701 654 699 631 694 608 L328 608 C340 760 411 845 535 845 L535 845 Z M160 1342 C160 1252 222 1196 306 1196 C401 1196 467 1252 467 1357 C467 1447 405 1502 321 1502 C225 1502 160 1446 160 1342 L160 1342 Z M589 1342 C589 1252 652 1196 736 1196 C831 1196 897 1252 897 1357 C897 1447 834 1502 750 1502 C655 1502 589 1446 589 1342 L589 1342 Z " />
<glyph glyph-name="igrave" unicode="&#xec;" horiz-adv-x="540" d="M137 1024 L137 0 L403 0 L403 1024 L137 1024 Z M538 1297 L64 1546 L-38 1323 L479 1166 L538 1297 Z " />
<glyph glyph-name="iacute" unicode="&#xed;" horiz-adv-x="540" d="M137 1024 L137 0 L403 0 L403 1024 L137 1024 Z M91 1166 L616 1326 L515 1550 L32 1297 L91 1166 Z " />
<glyph glyph-name="icircumflex" unicode="&#xee;" horiz-adv-x="540" d="M137 1024 L137 0 L403 0 L403 1024 L137 1024 Z M615 1303 C523 1363 389 1456 270 1543 C151 1456 17 1363 -75 1303 L54 1142 C121 1191 212 1267 270 1321 C327 1268 420 1191 486 1142 L615 1303 Z " />
<glyph glyph-name="idieresis" unicode="&#xef;" horiz-adv-x="540" d="M137 1024 L137 0 L403 0 L403 1024 L137 1024 Z M-80 1342 C-80 1252 -18 1196 66 1196 C161 1196 227 1252 227 1357 C227 1447 165 1502 81 1502 C-15 1502 -80 1446 -80 1342 L-80 1342 Z M313 1342 C313 1252 375 1196 460 1196 C555 1196 621 1252 621 1357 C621 1447 558 1502 474 1502 C379 1502 313 1446 313 1342 L313 1342 Z " />
<glyph glyph-name="eth" unicode="&#xf0;" horiz-adv-x="1138" d="M460 1280 C478 1280 495 1278 512 1275 L448 1172 L565 1101 L640 1220 C708 1165 756 1073 784 942 C728 1004 651 1044 551 1044 C246 1044 57 827 57 503 C57 192 242 -20 551 -20 C882 -20 1061 220 1061 591 C1061 956 980 1276 751 1410 L820 1521 L701 1592 L621 1463 C588 1471 552 1476 514 1477 C481 1479 447 1478 415 1475 C314 1466 231 1434 202 1420 L251 1239 C276 1249 362 1280 460 1280 L460 1280 Z M786 531 C786 306 710 179 562 179 C403 179 333 313 333 519 C333 712 402 845 552 845 C689 845 758 748 790 591 L801 591 L786 531 Z " />
<glyph glyph-name="ntilde" unicode="&#xf1;" horiz-adv-x="1160" d="M137 1024 L137 0 L403 0 L403 741 C454 787 547 823 612 823 C722 823 771 762 771 633 L771 0 L1037 0 L1037 674 C1037 925 919 1044 693 1044 C557 1044 445 974 378 914 L351 1024 L137 1024 Z M339 1205 C374 1248 403 1285 449 1285 C518 1285 595 1212 678 1212 C812 1212 894 1305 931 1402 L803 1501 C765 1458 738 1421 691 1421 C631 1421 548 1494 454 1494 C321 1494 239 1384 210 1302 L339 1205 Z " />
<glyph glyph-name="ograve" unicode="&#xf2;" horiz-adv-x="1122" d="M555 -20 C871 -20 1064 198 1064 521 C1064 832 876 1044 567 1044 C250 1044 57 827 57 503 C57 192 246 -20 555 -20 L555 -20 Z M566 179 C406 179 333 313 333 519 C333 712 405 845 556 845 C715 845 789 712 789 505 C789 312 716 179 566 179 L566 179 Z M843 1297 L368 1546 L266 1323 L784 1166 L843 1297 Z " />
<glyph glyph-name="oacute" unicode="&#xf3;" horiz-adv-x="1122" d="M555 -20 C871 -20 1064 198 1064 521 C1064 832 876 1044 567 1044 C250 1044 57 827 57 503 C57 192 246 -20 555 -20 L555 -20 Z M566 179 C406 179 333 313 333 519 C333 712 405 845 556 845 C715 845 789 712 789 505 C789 312 716 179 566 179 L566 179 Z M332 1166 L857 1326 L756 1550 L273 1297 L332 1166 Z " />
<glyph glyph-name="ocircumflex" unicode="&#xf4;" horiz-adv-x="1122" d="M555 -20 C871 -20 1064 198 1064 521 C1064 832 876 1044 567 1044 C250 1044 57 827 57 503 C57 192 246 -20 555 -20 L555 -20 Z M566 179 C406 179 333 313 333 519 C333 712 405 845 556 845 C715 845 789 712 789 505 C789 312 716 179 566 179 L566 179 Z M905 1303 C814 1363 680 1456 561 1543 C442 1456 307 1363 216 1303 L344 1142 C412 1191 503 1267 561 1321 C618 1268 711 1191 777 1142 L905 1303 Z " />
<glyph glyph-name="otilde" unicode="&#xf5;" horiz-adv-x="1122" d="M555 -20 C871 -20 1064 198 1064 521 C1064 832 876 1044 567 1044 C250 1044 57 827 57 503 C57 192 246 -20 555 -20 L555 -20 Z M566 179 C406 179 333 313 333 519 C333 712 405 845 556 845 C715 845 789 712 789 505 C789 312 716 179 566 179 L566 179 Z M330 1205 C365 1248 394 1285 440 1285 C509 1285 586 1212 669 1212 C803 1212 885 1305 922 1402 L794 1501 C756 1458 730 1421 682 1421 C622 1421 539 1494 445 1494 C312 1494 230 1384 202 1302 L330 1205 Z " />
<glyph glyph-name="odieresis" unicode="&#xf6;" horiz-adv-x="1122" d="M555 -20 C871 -20 1064 198 1064 521 C1064 832 876 1044 567 1044 C250 1044 57 827 57 503 C57 192 246 -20 555 -20 L555 -20 Z M566 179 C406 179 333 313 333 519 C333 712 405 845 556 845 C715 845 789 712 789 505 C789 312 716 179 566 179 L566 179 Z M192 1342 C192 1252 254 1196 339 1196 C434 1196 500 1252 500 1357 C500 1447 437 1502 353 1502 C258 1502 192 1446 192 1342 L192 1342 Z M622 1342 C622 1252 684 1196 768 1196 C863 1196 929 1252 929 1357 C929 1447 867 1502 783 1502 C688 1502 622 1446 622 1342 L622 1342 Z " />
<glyph glyph-name="divide" unicode="&#xf7;" horiz-adv-x="1148" d="M152 565 L995 565 L995 763 L152 763 L152 565 Z M420 1014 C420 924 482 868 566 868 C661 868 727 923 727 1029 C727 1118 665 1174 581 1174 C486 1174 420 1118 420 1014 L420 1014 Z M420 299 C420 209 482 153 566 153 C661 153 727 209 727 314 C727 404 665 459 581 459 C486 459 420 403 420 299 L420 299 Z " />
<glyph glyph-name="oslash" unicode="&#xf8;" horiz-adv-x="1122" d="M555 -20 C871 -20 1064 198 1064 521 C1064 692 1006 834 902 927 L1032 1130 L921 1193 L795 996 C730 1027 653 1044 567 1044 C250 1044 57 827 57 503 C57 332 115 190 219 98 L89 -105 L200 -168 L326 28 C392 -3 469 -20 555 -20 L555 -20 Z M333 519 C333 712 405 845 556 845 C603 845 644 833 676 811 L365 326 C344 379 333 443 333 519 L333 519 Z M566 179 C518 179 477 190 444 213 L756 698 C778 646 789 581 789 505 C789 312 716 179 566 179 L566 179 Z " />
<glyph glyph-name="ugrave" unicode="&#xf9;" horiz-adv-x="1144" d="M1006 0 L1006 1024 L741 1024 L741 283 C688 237 601 201 539 201 C433 201 386 261 386 391 L386 1024 L121 1024 L121 350 C121 99 236 -20 458 -20 C590 -20 702 48 766 110 L793 0 L1006 0 Z M835 1297 L361 1546 L259 1323 L776 1166 L835 1297 Z " />
<glyph glyph-name="uacute" unicode="&#xfa;" horiz-adv-x="1144" d="M1006 0 L1006 1024 L741 1024 L741 283 C688 237 601 201 539 201 C433 201 386 261 386 391 L386 1024 L121 1024 L121 350 C121 99 236 -20 458 -20 C590 -20 702 48 766 110 L793 0 L1006 0 Z M334 1166 L859 1326 L758 1550 L275 1297 L334 1166 Z " />
<glyph glyph-name="ucircumflex" unicode="&#xfb;" horiz-adv-x="1144" d="M1006 0 L1006 1024 L741 1024 L741 283 C688 237 601 201 539 201 C433 201 386 261 386 391 L386 1024 L121 1024 L121 350 C121 99 236 -20 458 -20 C590 -20 702 48 766 110 L793 0 L1006 0 Z M908 1303 C816 1363 683 1456 563 1543 C444 1456 310 1363 218 1303 L347 1142 C414 1191 506 1267 563 1321 C620 1268 713 1191 779 1142 L908 1303 Z " />
<glyph glyph-name="udieresis" unicode="&#xfc;" horiz-adv-x="1144" d="M1006 0 L1006 1024 L741 1024 L741 283 C688 237 601 201 539 201 C433 201 386 261 386 391 L386 1024 L121 1024 L121 350 C121 99 236 -20 458 -20 C590 -20 702 48 766 110 L793 0 L1006 0 Z M195 1342 C195 1252 257 1196 341 1196 C436 1196 502 1252 502 1357 C502 1447 440 1502 356 1502 C260 1502 195 1446 195 1342 L195 1342 Z M625 1342 C625 1252 687 1196 771 1196 C866 1196 932 1252 932 1357 C932 1447 869 1502 786 1502 C690 1502 625 1446 625 1342 L625 1342 Z " />
<glyph glyph-name="yacute" unicode="&#xfd;" horiz-adv-x="1080" d="M774 1024 L560 261 L536 308 L300 1024 L8 1024 C130 709 251 393 374 79 L425 -28 C389 -156 323 -206 228 -206 C148 -206 88 -186 66 -178 L22 -370 C59 -387 148 -416 241 -416 C483 -416 622 -302 722 -4 L1062 1024 L774 1024 Z M319 1166 L844 1326 L743 1550 L260 1297 L319 1166 Z " />
<glyph glyph-name="thorn" unicode="&#xfe;" horiz-adv-x="1141" d="M1083 521 C1083 809 944 1011 707 1035 C652 1041 598 1035 550 1023 C493 1011 442 989 403 965 L403 1480 L137 1459 L137 -396 L403 -396 L403 26 C457 -1 525 -20 594 -20 C888 -20 1083 201 1083 521 L1083 521 Z M808 505 C808 320 724 189 571 189 C501 189 441 208 403 230 L403 780 C445 808 511 829 569 829 C721 829 808 698 808 505 L808 505 Z " />
<glyph glyph-name="ydieresis" unicode="&#xff;" horiz-adv-x="1080" d="M774 1024 L560 261 L536 308 L300 1024 L8 1024 C130 709 251 393 374 79 L425 -28 C389 -156 323 -206 228 -206 C148 -206 88 -186 66 -178 L22 -370 C59 -387 148 -416 241 -416 C483 -416 622 -302 722 -4 L1062 1024 L774 1024 Z M152 1342 C152 1252 214 1196 298 1196 C393 1196 459 1252 459 1357 C459 1447 397 1502 313 1502 C218 1502 152 1446 152 1342 L152 1342 Z M604 1342 C604 1252 666 1196 751 1196 C846 1196 912 1252 912 1357 C912 1447 849 1502 765 1502 C670 1502 604 1446 604 1342 L604 1342 Z " />
<glyph glyph-name="Amacron" unicode="&#x100;" horiz-adv-x="1299" d="M1003 0 L1288 0 L772 1330 L526 1330 L11 0 L296 0 L408 317 L891 317 L1003 0 Z M341 1560 L958 1560 L958 1754 L341 1754 L341 1560 Z M646 998 L674 936 L818 523 L481 523 L646 998 Z " />
<glyph glyph-name="amacron" unicode="&#x101;" horiz-adv-x="973" d="M829 701 C829 919 692 1044 440 1044 C300 1044 157 991 89 953 L141 765 C198 792 303 826 406 826 C528 826 576 769 576 659 L576 560 C291 592 44 514 44 264 C44 94 177 -20 367 -20 C459 -20 553 19 628 89 C660 18 725 -20 810 -20 C872 -20 927 -6 966 11 L945 195 C929 190 909 183 883 183 C850 183 829 203 829 252 L829 701 Z M297 290 C297 411 447 433 576 412 L576 236 C532 200 477 175 422 175 C346 175 297 218 297 290 L297 290 Z M150 1253 L767 1253 L767 1448 L150 1448 L150 1253 Z " />
<glyph glyph-name="Abreve" unicode="&#x102;" horiz-adv-x="1299" d="M1003 0 L1288 0 L772 1330 L526 1330 L11 0 L296 0 L405 308 L894 308 L1003 0 Z M361 1801 C332 1559 493 1465 649 1465 C805 1465 966 1559 937 1801 L754 1801 C758 1715 732 1643 649 1643 C566 1643 540 1715 544 1801 L361 1801 Z M646 998 L674 936 L821 513 L477 513 L646 998 Z " />
<glyph glyph-name="abreve" unicode="&#x103;" horiz-adv-x="973" d="M829 701 C829 919 692 1044 440 1044 C300 1044 157 991 89 953 L141 765 C198 792 303 826 406 826 C528 826 576 769 576 659 L576 560 C291 592 44 514 44 264 C44 94 177 -20 367 -20 C459 -20 553 19 628 89 C660 18 725 -20 810 -20 C872 -20 927 -6 966 11 L945 195 C929 190 909 183 883 183 C850 183 829 203 829 252 L829 701 Z M297 290 C297 411 447 433 576 412 L576 236 C532 200 477 175 422 175 C346 175 297 218 297 290 L297 290 Z M167 1494 C139 1252 299 1159 456 1159 C612 1159 772 1252 744 1494 L560 1494 C565 1409 538 1336 456 1336 C373 1336 346 1409 351 1494 L167 1494 Z " />
<glyph glyph-name="Aogonek" unicode="&#x104;" horiz-adv-x="1299" d="M1288 0 L772 1330 L526 1330 L11 0 L296 0 L405 308 L894 308 L1003 0 C941 -46 858 -135 858 -238 C858 -406 992 -470 1130 -470 C1221 -470 1306 -434 1333 -412 L1289 -251 C1266 -262 1219 -283 1168 -283 C1114 -283 1075 -252 1075 -187 C1075 -115 1134 -47 1192 0 L1288 0 Z M646 998 L674 936 L821 513 L477 513 L646 998 Z " />
<glyph glyph-name="aogonek" unicode="&#x105;" horiz-adv-x="973" d="M829 701 C829 919 692 1044 440 1044 C300 1044 157 991 89 953 L141 765 C198 792 303 826 406 826 C528 826 576 769 576 659 L576 560 C291 592 44 514 44 264 C44 94 177 -20 367 -20 C459 -20 553 19 628 89 C648 42 683 6 733 -9 C674 -57 601 -141 601 -238 C601 -406 734 -470 872 -470 C963 -470 1048 -434 1076 -412 L1031 -251 C1009 -262 962 -283 910 -283 C856 -283 818 -252 818 -187 C818 -102 889 -27 966 11 L945 195 C929 190 909 183 883 183 C850 183 829 203 829 252 L829 701 Z M297 290 C297 411 447 433 576 412 L576 236 C532 200 477 175 422 175 C346 175 297 218 297 290 L297 290 Z " />
<glyph glyph-name="Cacute" unicode="&#x106;" horiz-adv-x="1151" d="M70 661 C70 241 325 -20 754 -20 C878 -20 1013 15 1098 64 L1033 262 C952 225 850 204 754 204 C505 204 355 389 355 677 C355 962 506 1126 755 1126 C847 1126 931 1107 1011 1075 L1069 1276 C994 1318 865 1350 749 1350 C333 1350 70 1073 70 661 L70 661 Z M461 1466 L986 1626 L885 1850 L402 1597 L461 1466 Z " />
<glyph glyph-name="cacute" unicode="&#x107;" horiz-adv-x="895" d="M333 518 C333 710 428 826 598 826 C689 826 771 794 805 782 L861 974 C808 1004 704 1044 575 1044 C255 1044 57 826 57 502 C57 191 250 -20 558 -20 C696 -20 811 17 876 54 L817 244 C777 227 689 198 598 198 C423 198 333 314 333 518 L333 518 Z M302 1166 L827 1326 L726 1550 L243 1297 L302 1166 Z " />
<glyph glyph-name="Ccircumflex" unicode="&#x108;" horiz-adv-x="1151" d="M70 661 C70 241 325 -20 754 -20 C878 -20 1013 15 1098 64 L1033 262 C952 225 850 204 754 204 C505 204 355 389 355 677 C355 962 506 1126 755 1126 C847 1126 931 1107 1011 1075 L1069 1276 C994 1318 865 1350 749 1350 C333 1350 70 1073 70 661 L70 661 Z M1051 1603 C959 1663 826 1756 706 1843 C587 1756 453 1663 361 1603 L490 1442 C557 1491 649 1567 706 1621 C763 1568 856 1491 922 1442 L1051 1603 Z " />
<glyph glyph-name="ccircumflex" unicode="&#x109;" horiz-adv-x="895" d="M333 518 C333 710 428 826 598 826 C689 826 771 794 805 782 L861 974 C808 1004 704 1044 575 1044 C255 1044 57 826 57 502 C57 191 250 -20 558 -20 C696 -20 811 17 876 54 L817 244 C777 227 689 198 598 198 C423 198 333 314 333 518 L333 518 Z M886 1303 C794 1363 661 1456 541 1543 C422 1456 288 1363 196 1303 L325 1142 C392 1191 484 1267 541 1321 C598 1268 691 1191 757 1142 L886 1303 Z " />
<glyph glyph-name="Cdotaccent" unicode="&#x10a;" horiz-adv-x="1151" d="M70 661 C70 241 325 -20 754 -20 C878 -20 1013 15 1098 64 L1033 262 C952 225 850 204 754 204 C505 204 355 389 355 677 C355 962 506 1126 755 1126 C847 1126 931 1107 1011 1075 L1069 1276 C994 1318 865 1350 749 1350 C333 1350 70 1073 70 661 L70 661 Z M559 1642 C559 1552 621 1496 705 1496 C800 1496 866 1552 866 1657 C866 1747 804 1802 720 1802 C625 1802 559 1746 559 1642 L559 1642 Z " />
<glyph glyph-name="cdotaccent" unicode="&#x10b;" horiz-adv-x="895" d="M333 518 C333 710 428 826 598 826 C689 826 771 794 805 782 L861 974 C808 1004 704 1044 575 1044 C255 1044 57 826 57 502 C57 191 250 -20 558 -20 C696 -20 811 17 876 54 L817 244 C777 227 689 198 598 198 C423 198 333 314 333 518 L333 518 Z M394 1342 C394 1252 456 1196 540 1196 C635 1196 701 1252 701 1357 C701 1447 639 1502 555 1502 C460 1502 394 1446 394 1342 L394 1342 Z " />
<glyph glyph-name="Ccaron" unicode="&#x10c;" horiz-adv-x="1151" d="M70 661 C70 241 325 -20 754 -20 C878 -20 1013 15 1098 64 L1033 262 C952 225 850 204 754 204 C505 204 355 389 355 677 C355 962 506 1126 755 1126 C847 1126 931 1107 1011 1075 L1069 1276 C994 1318 865 1350 749 1350 C333 1350 70 1073 70 661 L70 661 Z M368 1690 C494 1618 626 1525 712 1435 C799 1525 931 1618 1057 1690 L941 1859 C865 1811 768 1727 712 1666 C657 1727 560 1811 484 1859 L368 1690 Z " />
<glyph glyph-name="ccaron" unicode="&#x10d;" horiz-adv-x="895" d="M333 518 C333 710 428 826 598 826 C689 826 771 794 805 782 L861 974 C808 1004 704 1044 575 1044 C255 1044 57 826 57 502 C57 191 250 -20 558 -20 C696 -20 811 17 876 54 L817 244 C777 227 689 198 598 198 C423 198 333 314 333 518 L333 518 Z M197 1390 C323 1318 455 1225 541 1135 C627 1225 760 1318 886 1390 L770 1559 C693 1511 597 1427 541 1366 C486 1427 389 1511 313 1559 L197 1390 Z " />
<glyph glyph-name="Dcaron" unicode="&#x10e;" horiz-adv-x="1310" d="M570 0 C998 0 1244 258 1244 673 C1244 1071 998 1330 571 1330 L137 1330 L137 0 L570 0 Z M403 207 L403 1123 L570 1123 C812 1123 959 954 959 658 C959 379 807 207 571 207 L403 207 Z M243 1690 C369 1618 502 1525 588 1435 C674 1525 807 1618 933 1690 L817 1859 C740 1811 644 1727 588 1666 C532 1727 436 1811 359 1859 L243 1690 Z " />
<glyph glyph-name="dcaron" unicode="&#x10f;" horiz-adv-x="1337" d="M1099 1486 C1128 1461 1181 1401 1181 1317 C1181 1231 1132 1179 1096 1152 L1195 1059 C1276 1100 1384 1197 1384 1338 C1384 1447 1323 1515 1290 1542 L1099 1486 Z M1008 0 L1008 1480 L743 1459 L743 998 C689 1025 621 1044 552 1044 C256 1044 57 823 57 503 C57 190 217 -20 480 -20 C644 -20 741 77 770 105 L798 0 L1008 0 Z M743 268 C706 227 629 195 560 195 C414 195 333 324 333 518 C333 702 421 835 574 835 C644 835 705 816 743 793 L743 268 Z " />
<glyph glyph-name="Dcroat" unicode="&#x110;" horiz-adv-x="1338" d="M7 596 L166 596 L166 0 L599 0 C1026 0 1272 258 1272 673 C1272 1071 1026 1330 599 1330 L166 1330 L166 735 L7 735 L7 596 Z M431 207 L431 596 L733 596 L733 735 L431 735 L431 1123 L598 1123 C841 1123 987 954 987 658 C987 379 836 207 599 207 L431 207 Z " />
<glyph glyph-name="dcroat" unicode="&#x111;" horiz-adv-x="1146" d="M459 1192 L743 1192 L743 998 C689 1025 621 1044 552 1044 C256 1044 57 823 57 503 C57 190 217 -20 480 -20 C644 -20 741 77 770 105 L798 0 L1008 0 L1008 1192 L1151 1192 L1151 1312 L1008 1312 L1008 1480 L743 1459 L743 1312 L459 1312 L459 1192 Z M743 268 C706 227 629 195 560 195 C414 195 333 324 333 518 C333 702 421 835 574 835 C644 835 705 816 743 793 L743 268 Z " />
<glyph glyph-name="Emacron" unicode="&#x112;" horiz-adv-x="1055" d="M954 1330 L137 1330 L137 0 L974 0 L974 218 L404 218 L404 564 L928 564 L928 776 L404 776 L404 1112 L954 1112 L954 1330 Z M230 1560 L847 1560 L847 1754 L230 1754 L230 1560 Z " />
<glyph glyph-name="emacron" unicode="&#x113;" horiz-adv-x="1010" d="M923 457 C939 501 954 576 954 663 C954 890 811 1044 557 1044 C247 1044 57 827 57 502 C57 192 248 -20 563 -20 C732 -20 857 27 922 58 L865 250 C803 226 709 198 596 198 C433 198 336 283 325 457 L923 457 Z M535 845 C636 845 697 784 701 679 C701 654 699 631 694 608 L328 608 C340 760 411 845 535 845 L535 845 Z M220 1253 L837 1253 L837 1448 L220 1448 L220 1253 Z " />
<glyph glyph-name="Ebreve" unicode="&#x114;" horiz-adv-x="1055" d="M954 1330 L137 1330 L137 0 L974 0 L974 218 L404 218 L404 564 L928 564 L928 776 L404 776 L404 1112 L954 1112 L954 1330 Z M275 1801 C247 1559 407 1465 563 1465 C720 1465 880 1559 852 1801 L668 1801 C673 1715 646 1643 563 1643 C481 1643 454 1715 459 1801 L275 1801 Z " />
<glyph glyph-name="ebreve" unicode="&#x115;" horiz-adv-x="1010" d="M923 457 C939 501 954 576 954 663 C954 890 811 1044 557 1044 C247 1044 57 827 57 502 C57 192 248 -20 563 -20 C732 -20 857 27 922 58 L865 250 C803 226 709 198 596 198 C433 198 336 283 325 457 L923 457 Z M535 845 C636 845 697 784 701 679 C701 654 699 631 694 608 L328 608 C340 760 411 845 535 845 L535 845 Z M243 1494 C214 1252 375 1159 531 1159 C687 1159 848 1252 819 1494 L636 1494 C640 1409 614 1336 531 1336 C448 1336 422 1409 426 1494 L243 1494 Z " />
<glyph glyph-name="Edotaccent" unicode="&#x116;" horiz-adv-x="1055" d="M954 1330 L137 1330 L137 0 L974 0 L974 218 L404 218 L404 564 L928 564 L928 776 L404 776 L404 1112 L954 1112 L954 1330 Z M409 1642 C409 1552 471 1496 555 1496 C650 1496 716 1552 716 1657 C716 1747 653 1802 570 1802 C474 1802 409 1746 409 1642 L409 1642 Z " />
<glyph glyph-name="edotaccent" unicode="&#x117;" horiz-adv-x="1010" d="M923 457 C939 501 954 576 954 663 C954 890 811 1044 557 1044 C247 1044 57 827 57 502 C57 192 248 -20 563 -20 C732 -20 857 27 922 58 L865 250 C803 226 709 198 596 198 C433 198 336 283 325 457 L923 457 Z M535 845 C636 845 697 784 701 679 C701 654 699 631 694 608 L328 608 C340 760 411 845 535 845 L535 845 Z M375 1342 C375 1252 437 1196 521 1196 C616 1196 682 1252 682 1357 C682 1447 619 1502 536 1502 C440 1502 375 1446 375 1342 L375 1342 Z " />
<glyph glyph-name="Eogonek" unicode="&#x118;" horiz-adv-x="1055" d="M954 1330 L137 1330 L137 0 L784 0 C722 -46 639 -135 639 -238 C639 -406 773 -470 911 -470 C1002 -470 1087 -434 1114 -412 L1070 -251 C1047 -262 1000 -283 949 -283 C895 -283 857 -252 857 -187 C857 -115 915 -46 974 0 L974 218 L404 218 L404 564 L928 564 L928 776 L404 776 L404 1112 L954 1112 L954 1330 Z " />
<glyph glyph-name="eogonek" unicode="&#x119;" horiz-adv-x="1010" d="M923 457 C939 501 954 576 954 663 C954 890 811 1044 557 1044 C247 1044 57 827 57 502 C57 199 239 -9 539 -19 C482 -68 418 -148 418 -238 C418 -406 552 -470 690 -470 C780 -470 866 -434 893 -412 L849 -251 C826 -262 779 -283 728 -283 C674 -283 635 -252 635 -187 C635 -115 694 -47 752 0 C827 16 885 40 922 58 L865 250 C803 226 709 198 596 198 C433 198 336 283 325 457 L923 457 Z M535 845 C636 845 697 784 701 679 C701 654 699 631 694 608 L328 608 C340 760 411 845 535 845 L535 845 Z " />
<glyph glyph-name="Ecaron" unicode="&#x11a;" horiz-adv-x="1055" d="M954 1330 L137 1330 L137 0 L974 0 L974 218 L404 218 L404 564 L928 564 L928 776 L404 776 L404 1112 L954 1112 L954 1330 Z M218 1690 C344 1618 476 1525 563 1435 C649 1525 781 1618 907 1690 L791 1859 C715 1811 618 1727 563 1666 C507 1727 410 1811 334 1859 L218 1690 Z " />
<glyph glyph-name="ecaron" unicode="&#x11b;" horiz-adv-x="1010" d="M923 457 C939 501 954 576 954 663 C954 890 811 1044 557 1044 C247 1044 57 827 57 502 C57 192 248 -20 563 -20 C732 -20 857 27 922 58 L865 250 C803 226 709 198 596 198 C433 198 336 283 325 457 L923 457 Z M535 845 C636 845 697 784 701 679 C701 654 699 631 694 608 L328 608 C340 760 411 845 535 845 L535 845 Z M183 1390 C309 1318 442 1225 528 1135 C614 1225 747 1318 873 1390 L757 1559 C680 1511 584 1427 528 1366 C472 1427 376 1511 299 1559 L183 1390 Z " />
<glyph glyph-name="Gcircumflex" unicode="&#x11c;" horiz-adv-x="1277" d="M1176 737 L693 737 L693 538 L928 537 L928 227 C882 213 818 204 759 204 C513 204 355 384 355 676 C355 966 515 1126 771 1126 C872 1126 964 1103 1047 1072 L1109 1272 C1022 1319 887 1350 766 1350 C336 1350 70 1071 70 661 C70 244 320 -20 756 -20 C915 -20 1074 27 1176 103 L1176 737 Z M1081 1609 C989 1669 855 1762 736 1849 C617 1762 483 1669 391 1609 L520 1449 C587 1498 679 1574 736 1627 C793 1575 886 1497 952 1449 L1081 1609 Z " />
<glyph glyph-name="gcircumflex" unicode="&#x11d;" horiz-adv-x="1026" d="M456 310 C708 310 866 451 866 683 C866 737 855 787 835 831 C889 843 960 842 1007 836 L1007 1036 C939 1054 820 1039 718 975 C653 1019 567 1044 467 1044 C215 1044 57 903 57 670 C57 508 135 392 275 340 C200 291 146 220 146 153 C146 83 186 47 212 28 C124 -15 38 -90 38 -201 C38 -355 185 -436 470 -436 C768 -436 992 -306 992 -109 C992 77 857 180 654 180 L435 180 C389 180 368 198 370 231 C370 257 394 288 421 311 C432 310 444 310 456 310 L456 310 Z M465 481 C357 481 303 557 303 682 C303 794 356 872 459 872 C567 872 621 797 621 671 C621 559 567 481 465 481 L465 481 Z M504 -248 C356 -248 273 -213 273 -141 C273 -92 315 -50 350 -29 L553 -29 C672 -29 745 -46 745 -122 C745 -204 651 -248 504 -248 L504 -248 Z M802 1303 C710 1363 577 1456 457 1543 C338 1456 204 1363 112 1303 L241 1142 C308 1191 400 1267 457 1321 C514 1268 607 1191 673 1142 L802 1303 Z " />
<glyph glyph-name="Gbreve" unicode="&#x11e;" horiz-adv-x="1277" d="M1176 737 L693 737 L693 538 L928 537 L928 227 C882 213 818 204 759 204 C513 204 355 384 355 676 C355 966 515 1126 771 1126 C872 1126 964 1103 1047 1072 L1109 1272 C1022 1319 887 1350 766 1350 C336 1350 70 1071 70 661 C70 244 320 -20 756 -20 C915 -20 1074 27 1176 103 L1176 737 Z M426 1801 C397 1559 558 1465 714 1465 C870 1465 1031 1559 1002 1801 L819 1801 C823 1715 797 1643 714 1643 C631 1643 605 1715 609 1801 L426 1801 Z " />
<glyph glyph-name="gbreve" unicode="&#x11f;" horiz-adv-x="1026" d="M456 310 C708 310 866 451 866 683 C866 737 855 787 835 831 C889 843 960 842 1007 836 L1007 1036 C939 1054 820 1039 718 975 C653 1019 567 1044 467 1044 C215 1044 57 903 57 670 C57 508 135 392 275 340 C200 291 146 220 146 153 C146 83 186 47 212 28 C124 -15 38 -90 38 -201 C38 -355 185 -436 470 -436 C768 -436 992 -306 992 -109 C992 77 857 180 654 180 L435 180 C389 180 368 198 370 231 C370 257 394 288 421 311 C432 310 444 310 456 310 L456 310 Z M465 481 C357 481 303 557 303 682 C303 794 356 872 459 872 C567 872 621 797 621 671 C621 559 567 481 465 481 L465 481 Z M504 -248 C356 -248 273 -213 273 -141 C273 -92 315 -50 350 -29 L553 -29 C672 -29 745 -46 745 -122 C745 -204 651 -248 504 -248 L504 -248 Z M177 1494 C148 1252 309 1159 465 1159 C621 1159 782 1252 753 1494 L570 1494 C574 1409 548 1336 465 1336 C382 1336 356 1409 360 1494 L177 1494 Z " />
<glyph glyph-name="Gdotaccent" unicode="&#x120;" horiz-adv-x="1277" d="M1176 737 L693 737 L693 538 L928 537 L928 227 C882 213 818 204 759 204 C513 204 355 384 355 676 C355 966 515 1126 771 1126 C872 1126 964 1103 1047 1072 L1109 1272 C1022 1319 887 1350 766 1350 C336 1350 70 1071 70 661 C70 244 320 -20 756 -20 C915 -20 1074 27 1176 103 L1176 737 Z M559 1649 C559 1559 621 1503 705 1503 C800 1503 866 1558 866 1663 C866 1753 804 1809 720 1809 C624 1809 559 1753 559 1649 L559 1649 Z " />
<glyph glyph-name="gdotaccent" unicode="&#x121;" horiz-adv-x="1026" d="M456 310 C708 310 866 451 866 683 C866 737 855 787 835 831 C889 843 960 842 1007 836 L1007 1036 C939 1054 820 1039 718 975 C653 1019 567 1044 467 1044 C215 1044 57 903 57 670 C57 508 135 392 275 340 C200 291 146 220 146 153 C146 83 186 47 212 28 C124 -15 38 -90 38 -201 C38 -355 185 -436 470 -436 C768 -436 992 -306 992 -109 C992 77 857 180 654 180 L435 180 C389 180 368 198 370 231 C370 257 394 288 421 311 C432 310 444 310 456 310 L456 310 Z M465 481 C357 481 303 557 303 682 C303 794 356 872 459 872 C567 872 621 797 621 671 C621 559 567 481 465 481 L465 481 Z M504 -248 C356 -248 273 -213 273 -141 C273 -92 315 -50 350 -29 L553 -29 C672 -29 745 -46 745 -122 C745 -204 651 -248 504 -248 L504 -248 Z M313 1342 C313 1252 375 1196 460 1196 C555 1196 621 1252 621 1357 C621 1447 558 1502 474 1502 C379 1502 313 1446 313 1342 L313 1342 Z " />
<glyph glyph-name="Gcommaaccent" unicode="&#x122;" horiz-adv-x="1277" d="M1176 737 L693 737 L693 538 L928 537 L928 227 C882 213 818 204 759 204 C513 204 355 384 355 676 C355 966 515 1126 771 1126 C872 1126 964 1103 1047 1072 L1109 1272 C1022 1319 887 1350 766 1350 C336 1350 70 1071 70 661 C70 244 320 -20 756 -20 C915 -20 1074 27 1176 103 L1176 737 Z M577 -139 C596 -156 649 -210 649 -285 C649 -354 576 -393 503 -406 L547 -533 C735 -517 881 -437 881 -281 C881 -189 817 -117 785 -93 L577 -139 Z " />
<glyph glyph-name="gcommaaccent" unicode="&#x123;" horiz-adv-x="1026" d="M456 310 C708 310 866 451 866 683 C866 737 855 787 835 831 C889 843 960 842 1007 836 L1007 1036 C939 1054 820 1039 718 975 C653 1019 567 1044 467 1044 C215 1044 57 903 57 670 C57 508 135 392 275 340 C200 291 146 220 146 153 C146 83 186 47 212 28 C124 -15 38 -90 38 -201 C38 -355 185 -436 470 -436 C768 -436 992 -306 992 -109 C992 77 857 180 654 180 L435 180 C389 180 368 198 370 231 C370 257 394 288 421 311 C432 310 444 310 456 310 L456 310 Z M465 481 C357 481 303 557 303 682 C303 794 356 872 459 872 C567 872 621 797 621 671 C621 559 567 481 465 481 L465 481 Z M504 -248 C356 -248 273 -213 273 -141 C273 -92 315 -50 350 -29 L553 -29 C672 -29 745 -46 745 -122 C745 -204 651 -248 504 -248 L504 -248 Z M631 1175 C612 1193 559 1247 559 1321 C559 1390 632 1430 705 1443 L661 1569 C473 1554 327 1474 327 1317 C327 1226 391 1154 423 1129 L631 1175 Z " />
<glyph glyph-name="Hcircumflex" unicode="&#x124;" horiz-adv-x="1359" d="M955 0 L1221 0 L1221 1330 L955 1330 L955 779 L404 779 L404 1330 L137 1330 L137 0 L404 0 L404 561 L955 561 L955 0 Z M1024 1609 C933 1669 799 1762 679 1849 C560 1762 426 1669 334 1609 L463 1449 C530 1498 622 1574 679 1627 C736 1575 829 1497 896 1449 L1024 1609 Z " />
<glyph glyph-name="hcircumflex" unicode="&#x125;" horiz-adv-x="1160" d="M137 1459 L137 0 L403 0 L403 741 C454 787 547 823 612 823 C722 823 771 763 771 633 L771 0 L1037 0 L1037 674 C1037 925 919 1044 693 1044 C577 1044 475 993 403 935 L403 1480 L137 1459 Z M626 1659 C534 1720 400 1813 281 1900 C162 1813 28 1720 -64 1659 L65 1499 C132 1548 224 1624 281 1678 C338 1625 431 1548 497 1499 L626 1659 Z " />
<glyph glyph-name="Hbar" unicode="&#x126;" horiz-adv-x="1359" d="M6 956 L138 956 L138 0 L404 0 L404 561 L955 561 L955 0 L1222 0 L1222 956 L1353 956 L1353 1088 L1222 1088 L1222 1330 L955 1330 L955 1088 L404 1088 L404 1330 L138 1330 L138 1088 L6 1088 L6 956 Z M404 779 L404 956 L955 956 L955 779 L404 779 Z " />
<glyph glyph-name="hbar" unicode="&#x127;" horiz-adv-x="1160" d="M137 1459 L137 1312 L-6 1312 L-6 1192 L137 1192 L137 0 L403 0 L403 741 C454 787 547 823 612 823 C722 823 771 763 771 633 L771 0 L1037 0 L1037 674 C1037 925 919 1044 693 1044 C577 1044 475 993 403 935 L403 1192 L679 1192 L679 1312 L403 1312 L403 1480 L137 1459 Z " />
<glyph glyph-name="Itilde" unicode="&#x128;" horiz-adv-x="541" d="M137 0 L404 0 L404 1330 L137 1330 L137 0 Z M40 1505 C75 1548 104 1585 150 1585 C219 1585 295 1512 378 1512 C513 1512 594 1605 631 1702 L503 1801 C466 1758 439 1721 392 1721 C332 1721 249 1794 155 1794 C22 1794 -60 1684 -89 1602 L40 1505 Z " />
<glyph glyph-name="itilde" unicode="&#x129;" horiz-adv-x="540" d="M137 1024 L137 0 L403 0 L403 1024 L137 1024 Z M40 1205 C74 1248 103 1285 150 1285 C218 1285 295 1212 378 1212 C513 1212 594 1305 631 1402 L503 1501 C466 1458 439 1421 392 1421 C331 1421 248 1494 155 1494 C22 1494 -60 1384 -89 1302 L40 1205 Z " />
<glyph glyph-name="Imacron" unicode="&#x12a;" horiz-adv-x="541" d="M137 0 L404 0 L404 1330 L137 1330 L137 0 Z M-38 1560 L579 1560 L579 1754 L-38 1754 L-38 1560 Z " />
<glyph glyph-name="imacron" unicode="&#x12b;" horiz-adv-x="540" d="M137 1024 L137 0 L403 0 L403 1024 L137 1024 Z M-19 1253 L560 1253 L560 1448 L-19 1448 L-19 1253 Z " />
<glyph glyph-name="Ibreve" unicode="&#x12c;" horiz-adv-x="541" d="M137 0 L404 0 L404 1330 L137 1330 L137 0 Z M-17 1801 C-46 1559 115 1465 271 1465 C427 1465 588 1559 559 1801 L376 1801 C380 1715 354 1643 271 1643 C188 1643 162 1715 166 1801 L-17 1801 Z " />
<glyph glyph-name="ibreve" unicode="&#x12d;" horiz-adv-x="540" d="M137 1024 L137 0 L403 0 L403 1024 L137 1024 Z M-18 1494 C-47 1252 114 1159 270 1159 C426 1159 587 1252 558 1494 L375 1494 C379 1409 353 1336 270 1336 C187 1336 161 1409 165 1494 L-18 1494 Z " />
<glyph glyph-name="Iogonek" unicode="&#x12e;" horiz-adv-x="541" d="M404 0 L404 1330 L137 1330 L137 0 C75 -46 -8 -135 -8 -238 C-8 -406 126 -470 264 -470 C355 -470 440 -434 467 -412 L423 -251 C400 -262 353 -283 302 -283 C248 -283 210 -252 210 -187 C210 -115 268 -47 327 0 L404 0 Z " />
<glyph glyph-name="iogonek" unicode="&#x12f;" horiz-adv-x="540" d="M137 1024 L137 0 C75 -46 -8 -135 -8 -238 C-8 -406 126 -470 264 -470 C355 -470 440 -434 467 -412 L423 -251 C400 -262 353 -283 302 -283 C248 -283 210 -252 210 -187 C210 -115 268 -47 327 0 L403 0 L403 1024 L137 1024 Z M116 1342 C116 1252 179 1196 263 1196 C358 1196 424 1252 424 1357 C424 1447 361 1502 277 1502 C182 1502 116 1446 116 1342 L116 1342 Z " />
<glyph glyph-name="Idotaccent" unicode="&#x130;" horiz-adv-x="541" d="M137 0 L404 0 L404 1330 L137 1330 L137 0 Z M117 1642 C117 1552 179 1496 263 1496 C358 1496 424 1552 424 1657 C424 1747 362 1802 278 1802 C182 1802 117 1746 117 1642 L117 1642 Z " />
<glyph glyph-name="dotlessi" unicode="&#x131;" horiz-adv-x="540" d="M137 1024 L137 0 L403 0 L403 1024 L137 1024 Z " />
<glyph glyph-name="IJ" unicode="&#x132;" horiz-adv-x="1277" d="M895 1330 L895 344 C895 248 849 204 759 204 C693 204 640 220 604 235 L561 38 C605 11 697 -20 795 -20 C1021 -20 1161 93 1161 355 L1161 1330 L895 1330 Z M137 0 L404 0 L404 1330 L137 1330 L137 0 Z " />
<glyph glyph-name="ij" unicode="&#x133;" horiz-adv-x="1079" d="M116 1342 C116 1252 179 1196 263 1196 C358 1196 424 1252 424 1357 C424 1447 361 1502 277 1502 C182 1502 116 1446 116 1342 L116 1342 Z M137 1024 L137 0 L403 0 L403 1024 L137 1024 Z M656 1342 C656 1252 718 1196 802 1196 C897 1196 963 1252 963 1357 C963 1447 900 1502 817 1502 C721 1502 656 1446 656 1342 L656 1342 Z M677 -43 C677 -159 632 -206 533 -206 C493 -206 461 -198 439 -191 L409 -388 C443 -402 500 -416 569 -416 C814 -416 942 -293 942 -25 L942 1024 L677 1024 L677 -43 Z " />
<glyph glyph-name="Jcircumflex" unicode="&#x134;" horiz-adv-x="736" d="M354 1330 L354 344 C354 248 309 204 219 204 C152 204 99 220 63 235 L21 38 C64 11 157 -20 255 -20 C481 -20 620 93 620 355 L620 1330 L354 1330 Z M835 1609 C743 1669 609 1762 490 1849 C371 1762 236 1669 145 1609 L273 1449 C341 1498 432 1574 490 1627 C547 1575 640 1497 706 1449 L835 1609 Z " />
<glyph glyph-name="jcircumflex" unicode="&#x135;" horiz-adv-x="554" d="M151 -43 C151 -159 106 -206 7 -206 C-33 -206 -65 -198 -87 -191 L-117 -388 C-82 -402 -26 -416 43 -416 C288 -416 416 -293 416 -25 L416 1024 L151 1024 L151 -43 Z M622 1303 C530 1363 396 1456 277 1543 C158 1456 24 1363 -68 1303 L61 1142 C128 1191 219 1267 277 1321 C334 1268 427 1191 493 1142 L622 1303 Z " />
<glyph glyph-name="Kcommaaccent" unicode="&#x136;" horiz-adv-x="1233" d="M404 1330 L137 1330 L137 0 L404 0 L404 350 L564 564 L897 0 L1209 0 L754 740 L1176 1330 L873 1330 L404 667 L404 1330 Z M503 -139 C522 -156 575 -210 575 -285 C575 -354 501 -393 429 -406 L473 -533 C661 -517 807 -437 807 -281 C807 -189 743 -117 711 -93 L503 -139 Z " />
<glyph glyph-name="kcommaaccent" unicode="&#x137;" horiz-adv-x="1089" d="M137 1459 L137 0 L403 0 L403 279 L524 438 L769 0 L1067 0 L722 600 L1039 1024 L749 1024 L403 561 L403 1480 L137 1459 Z M431 -139 C449 -156 503 -210 503 -285 C503 -354 429 -393 357 -406 L400 -533 C589 -517 735 -437 735 -281 C735 -189 671 -117 639 -93 L431 -139 Z " />
<glyph glyph-name="kgreenlandic" unicode="&#x138;" horiz-adv-x="1133" d="M137 1024 L137 0 L403 0 L403 279 L524 438 L769 0 L1067 0 L722 600 L1039 1024 L749 1024 L403 561 L403 1024 L137 1024 Z " />
<glyph glyph-name="Lacute" unicode="&#x139;" horiz-adv-x="970" d="M953 218 L404 218 L404 1330 L137 1330 L137 0 L953 0 L953 218 Z M96 1466 L621 1626 L519 1850 L36 1597 L96 1466 Z " />
<glyph glyph-name="lacute" unicode="&#x13a;" horiz-adv-x="540" d="M137 1459 L137 0 L403 0 L403 1480 L137 1459 Z M59 1524 L584 1684 L483 1907 L0 1655 L59 1524 Z " />
<glyph glyph-name="Lcommaaccent" unicode="&#x13b;" horiz-adv-x="970" d="M953 218 L404 218 L404 1330 L137 1330 L137 0 L953 0 L953 218 Z M436 -139 C454 -156 508 -210 508 -285 C508 -354 434 -393 362 -406 L405 -533 C594 -517 740 -437 740 -281 C740 -189 676 -117 644 -93 L436 -139 Z " />
<glyph glyph-name="lcommaaccent" unicode="&#x13c;" horiz-adv-x="540" d="M137 1459 L137 0 L403 0 L403 1480 L137 1459 Z M141 -139 C160 -156 213 -210 213 -285 C213 -354 140 -393 67 -406 L111 -533 C299 -517 445 -437 445 -281 C445 -189 381 -117 349 -93 L141 -139 Z " />
<glyph glyph-name="Lcaron" unicode="&#x13d;" horiz-adv-x="970" d="M953 218 L404 218 L404 1330 L137 1330 L137 0 L953 0 L953 218 Z M580 1330 C599 1312 653 1259 653 1184 C653 1115 579 1075 506 1062 L550 936 C739 952 884 1031 884 1188 C884 1279 821 1352 788 1376 L580 1330 Z " />
<glyph glyph-name="lcaron" unicode="&#x13e;" horiz-adv-x="731" d="M494 1486 C523 1461 575 1401 575 1317 C575 1231 526 1179 490 1152 L589 1059 C670 1100 779 1197 779 1338 C779 1447 718 1515 684 1542 L494 1486 Z M137 1459 L137 0 L403 0 L403 1480 L137 1459 Z " />
<glyph glyph-name="Ldot" unicode="&#x13f;" horiz-adv-x="970" d="M953 218 L404 218 L404 1330 L137 1330 L137 0 L953 0 L953 218 Z M578 709 C578 619 640 563 724 563 C819 563 885 619 885 724 C885 813 823 869 739 869 C644 869 578 813 578 709 L578 709 Z " />
<glyph glyph-name="ldot" unicode="&#x140;" horiz-adv-x="770" d="M137 1459 L137 0 L403 0 L403 1480 L137 1459 Z M505 739 C505 649 567 593 652 593 C747 593 813 649 813 754 C813 843 750 899 666 899 C571 899 505 843 505 739 L505 739 Z " />
<glyph glyph-name="Lslash" unicode="&#x141;" horiz-adv-x="981" d="M24 378 L148 472 L148 0 L964 0 L964 218 L414 218 L414 674 L732 915 L647 1026 L414 849 L414 1330 L148 1330 L148 647 L-60 489 L24 378 Z " />
<glyph glyph-name="lslash" unicode="&#x142;" horiz-adv-x="588" d="M161 1459 L161 677 L-36 526 L37 430 L161 524 L161 0 L427 0 L427 725 L625 876 L551 973 L427 877 L427 1480 L161 1459 Z " />
<glyph glyph-name="Nacute" unicode="&#x143;" horiz-adv-x="1365" d="M938 0 L1227 0 L1227 1330 L966 1330 L966 403 L427 1330 L137 1330 L137 0 L399 0 L399 927 L938 0 Z M455 1466 L980 1626 L879 1850 L396 1597 L455 1466 Z " />
<glyph glyph-name="nacute" unicode="&#x144;" horiz-adv-x="1160" d="M137 1024 L137 0 L403 0 L403 741 C454 787 547 823 612 823 C722 823 771 762 771 633 L771 0 L1037 0 L1037 674 C1037 925 919 1044 693 1044 C557 1044 445 974 378 914 L351 1024 L137 1024 Z M359 1166 L884 1326 L783 1550 L300 1297 L359 1166 Z " />
<glyph glyph-name="Ncommaaccent" unicode="&#x145;" horiz-adv-x="1365" d="M938 0 L1227 0 L1227 1330 L966 1330 L966 403 L427 1330 L137 1330 L137 0 L399 0 L399 927 L938 0 Z M556 -139 C575 -156 628 -210 628 -285 C628 -354 555 -393 482 -406 L526 -533 C714 -517 860 -437 860 -281 C860 -189 796 -117 764 -93 L556 -139 Z " />
<glyph glyph-name="ncommaaccent" unicode="&#x146;" horiz-adv-x="1160" d="M137 1024 L137 0 L403 0 L403 741 C454 787 547 823 612 823 C722 823 771 762 771 633 L771 0 L1037 0 L1037 674 C1037 925 919 1044 693 1044 C557 1044 445 974 378 914 L351 1024 L137 1024 Z M449 -139 C468 -156 522 -210 522 -285 C522 -354 448 -393 375 -406 L419 -533 C608 -517 753 -437 753 -281 C753 -189 690 -117 657 -93 L449 -139 Z " />
<glyph glyph-name="Ncaron" unicode="&#x147;" horiz-adv-x="1365" d="M938 0 L1227 0 L1227 1330 L966 1330 L966 403 L427 1330 L137 1330 L137 0 L399 0 L399 927 L938 0 Z M332 1690 C458 1618 590 1525 676 1435 C762 1525 895 1618 1021 1690 L905 1859 C828 1811 732 1727 676 1666 C621 1727 524 1811 448 1859 L332 1690 Z " />
<glyph glyph-name="ncaron" unicode="&#x148;" horiz-adv-x="1160" d="M137 1024 L137 0 L403 0 L403 741 C454 787 547 823 612 823 C722 823 771 762 771 633 L771 0 L1037 0 L1037 674 C1037 925 919 1044 693 1044 C557 1044 445 974 378 914 L351 1024 L137 1024 Z M243 1390 C369 1318 501 1225 588 1135 C674 1225 806 1318 932 1390 L816 1559 C740 1511 643 1427 588 1366 C532 1427 435 1511 359 1559 L243 1390 Z " />
<glyph glyph-name="napostrophe" unicode="&#x149;" horiz-adv-x="1307" d="M285 1024 L285 0 L550 0 L550 741 C602 787 695 823 759 823 C869 823 919 762 919 633 L919 0 L1185 0 L1185 674 C1185 925 1067 1044 840 1044 C705 1044 592 974 526 914 L499 1024 L285 1024 Z M113 972 C165 1018 248 1142 248 1283 C248 1404 206 1479 184 1513 L-32 1463 C-10 1427 27 1346 27 1253 C27 1153 -2 1061 -23 1016 L113 972 Z " />
<glyph glyph-name="Eng" unicode="&#x14a;" horiz-adv-x="1365" d="M830 -192 C765 -192 713 -178 678 -163 L635 -362 C676 -386 765 -416 866 -416 C1089 -416 1227 -303 1227 -41 L1227 1330 L964 1330 L964 438 L425 1330 L137 1330 L137 0 L400 0 L400 900 L961 17 L961 -52 C961 -148 917 -192 830 -192 L830 -192 Z " />
<glyph glyph-name="eng" unicode="&#x14b;" horiz-adv-x="1169" d="M771 -43 C771 -159 726 -206 628 -206 C588 -206 556 -198 534 -191 L504 -388 C537 -402 592 -416 660 -416 C908 -416 1037 -293 1037 -25 L1037 674 C1037 925 919 1044 693 1044 C557 1044 445 974 378 914 L351 1024 L137 1024 L137 0 L403 0 L403 741 C454 787 547 823 612 823 C722 823 771 763 771 633 L771 -43 Z " />
<glyph glyph-name="Omacron" unicode="&#x14c;" horiz-adv-x="1419" d="M715 193 C492 193 355 378 355 676 C355 968 494 1137 704 1137 C928 1137 1064 952 1064 654 C1064 362 925 193 715 193 L715 193 Z M704 -20 C1107 -20 1349 254 1349 669 C1349 1085 1116 1350 716 1350 C312 1350 70 1076 70 661 C70 245 304 -20 704 -20 L704 -20 Z M401 1560 L1018 1560 L1018 1754 L401 1754 L401 1560 Z " />
<glyph glyph-name="omacron" unicode="&#x14d;" horiz-adv-x="1122" d="M555 -20 C871 -20 1064 198 1064 521 C1064 832 876 1044 567 1044 C250 1044 57 827 57 503 C57 192 246 -20 555 -20 L555 -20 Z M566 179 C406 179 333 313 333 519 C333 712 405 845 556 845 C715 845 789 712 789 505 C789 312 716 179 566 179 L566 179 Z M252 1253 L869 1253 L869 1448 L252 1448 L252 1253 Z " />
<glyph glyph-name="Obreve" unicode="&#x14e;" horiz-adv-x="1419" d="M715 193 C492 193 355 378 355 676 C355 968 494 1137 704 1137 C928 1137 1064 952 1064 654 C1064 362 925 193 715 193 L715 193 Z M704 -20 C1107 -20 1349 254 1349 669 C1349 1085 1116 1350 716 1350 C312 1350 70 1076 70 661 C70 245 304 -20 704 -20 L704 -20 Z M422 1801 C393 1559 554 1465 710 1465 C866 1465 1027 1559 998 1801 L815 1801 C819 1715 793 1643 710 1643 C627 1643 601 1715 605 1801 L422 1801 Z " />
<glyph glyph-name="obreve" unicode="&#x14f;" horiz-adv-x="1122" d="M555 -20 C871 -20 1064 198 1064 521 C1064 832 876 1044 567 1044 C250 1044 57 827 57 503 C57 192 246 -20 555 -20 L555 -20 Z M566 179 C406 179 333 313 333 519 C333 712 405 845 556 845 C715 845 789 712 789 505 C789 312 716 179 566 179 L566 179 Z M272 1494 C244 1252 404 1159 561 1159 C717 1159 877 1252 849 1494 L665 1494 C670 1409 643 1336 561 1336 C478 1336 451 1409 456 1494 L272 1494 Z " />
<glyph glyph-name="Ohungarumlaut" unicode="&#x150;" horiz-adv-x="1419" d="M715 193 C492 193 355 378 355 676 C355 968 494 1137 704 1137 C928 1137 1064 952 1064 654 C1064 362 925 193 715 193 L715 193 Z M704 -20 C1107 -20 1349 254 1349 669 C1349 1085 1116 1350 716 1350 C312 1350 70 1076 70 661 C70 245 304 -20 704 -20 L704 -20 Z M534 1438 L822 1777 L641 1894 L403 1521 L534 1438 Z M878 1448 L1164 1783 L982 1900 L747 1531 L878 1448 Z " />
<glyph glyph-name="ohungarumlaut" unicode="&#x151;" horiz-adv-x="1122" d="M555 -20 C871 -20 1064 198 1064 521 C1064 832 876 1044 567 1044 C250 1044 57 827 57 503 C57 192 246 -20 555 -20 L555 -20 Z M566 179 C406 179 333 313 333 519 C333 712 405 845 556 845 C715 845 789 712 789 505 C789 312 716 179 566 179 L566 179 Z M378 1132 L666 1470 L485 1587 L247 1215 L378 1132 Z M722 1141 L1008 1477 L826 1594 L591 1225 L722 1141 Z " />
<glyph glyph-name="OE" unicode="&#x152;" horiz-adv-x="1867" d="M1765 1330 L955 1330 L955 1297 C884 1330 803 1350 716 1350 C316 1350 70 1064 70 661 C70 255 305 -20 704 -20 C799 -20 883 0 956 35 L956 0 L1785 0 L1785 218 L1221 218 L1221 564 L1739 564 L1739 776 L1221 776 L1221 1112 L1765 1112 L1765 1330 Z M715 193 C497 193 355 377 355 676 C355 974 503 1137 704 1137 C812 1137 897 1101 955 1042 L955 284 C897 227 814 193 715 193 L715 193 Z " />
<glyph glyph-name="oe" unicode="&#x153;" horiz-adv-x="1616" d="M1527 457 C1544 503 1558 578 1558 661 C1558 891 1417 1044 1166 1044 C1044 1044 940 1009 861 946 C784 1009 684 1044 567 1044 C250 1044 57 827 57 503 C57 192 246 -20 555 -20 C675 -20 778 15 857 80 C939 15 1043 -20 1168 -20 C1338 -20 1460 24 1528 60 L1469 250 C1410 227 1321 198 1202 198 C1051 198 954 286 942 457 L1527 457 Z M566 179 C406 179 333 313 333 519 C333 712 405 845 556 845 C631 845 687 817 725 767 C693 691 675 602 675 502 C675 409 692 324 725 253 C688 205 635 179 566 179 L566 179 Z M946 609 C959 764 1030 845 1146 845 C1244 845 1302 780 1304 676 C1305 655 1304 635 1299 609 L946 609 Z " />
<glyph glyph-name="Racute" unicode="&#x154;" horiz-adv-x="1167" d="M404 0 L404 493 L581 493 L837 0 L1132 0 L829 550 C942 602 1073 728 1073 913 C1073 1190 889 1330 566 1330 L137 1330 L137 0 L404 0 Z M404 1117 L570 1117 C711 1117 794 1040 794 900 C794 801 736 722 669 697 L404 697 L404 1117 Z M327 1466 L852 1626 L751 1850 L268 1597 L327 1466 Z " />
<glyph glyph-name="racute" unicode="&#x155;" horiz-adv-x="739" d="M137 1024 L137 0 L403 0 L403 709 C472 756 607 801 720 797 L720 1042 C589 1048 449 968 383 891 L348 1024 L137 1024 Z M202 1166 L727 1326 L626 1550 L143 1297 L202 1166 Z " />
<glyph glyph-name="Rcommaaccent" unicode="&#x156;" horiz-adv-x="1167" d="M404 0 L404 493 L581 493 L837 0 L1132 0 L829 550 C942 602 1073 728 1073 913 C1073 1190 889 1330 566 1330 L137 1330 L137 0 L404 0 Z M404 1117 L570 1117 C711 1117 794 1040 794 900 C794 801 736 722 669 697 L404 697 L404 1117 Z M472 -139 C490 -156 544 -210 544 -285 C544 -354 470 -393 398 -406 L441 -533 C630 -517 776 -437 776 -281 C776 -189 712 -117 680 -93 L472 -139 Z " />
<glyph glyph-name="rcommaaccent" unicode="&#x157;" horiz-adv-x="739" d="M137 1024 L137 0 L403 0 L403 709 C472 756 607 801 720 797 L720 1042 C589 1048 449 968 383 891 L348 1024 L137 1024 Z M156 -139 C174 -156 228 -210 228 -285 C228 -354 154 -393 81 -406 L125 -533 C314 -517 459 -437 459 -281 C459 -189 396 -117 363 -93 L156 -139 Z " />
<glyph glyph-name="Rcaron" unicode="&#x158;" horiz-adv-x="1167" d="M404 0 L404 493 L581 493 L837 0 L1132 0 L829 550 C942 602 1073 728 1073 913 C1073 1190 889 1330 566 1330 L137 1330 L137 0 L404 0 Z M404 1117 L570 1117 C711 1117 794 1040 794 900 C794 801 736 722 669 697 L404 697 L404 1117 Z M202 1690 C328 1618 460 1525 546 1435 C632 1525 765 1618 891 1690 L775 1859 C698 1811 602 1727 546 1666 C491 1727 394 1811 318 1859 L202 1690 Z " />
<glyph glyph-name="rcaron" unicode="&#x159;" horiz-adv-x="739" d="M137 1024 L137 0 L403 0 L403 709 C472 756 607 801 720 797 L720 1042 C589 1048 449 968 383 891 L348 1024 L137 1024 Z M79 1390 C205 1318 338 1225 424 1135 C510 1225 642 1318 768 1390 L652 1559 C576 1511 479 1427 424 1366 C368 1427 272 1511 195 1559 L79 1390 Z " />
<glyph glyph-name="Sacute" unicode="&#x15a;" horiz-adv-x="1057" d="M86 78 C156 29 318 -20 481 -20 C798 -20 982 115 982 354 C982 529 892 638 693 729 L516 810 C419 852 371 891 372 976 C373 1055 439 1119 579 1119 C691 1119 815 1077 886 1044 L938 1257 C872 1291 752 1350 564 1350 C305 1350 96 1198 96 963 C96 772 199 666 371 590 L532 520 C657 463 702 420 702 340 C702 255 625 210 476 210 C345 210 205 261 147 292 L86 78 Z M323 1466 L848 1626 L747 1850 L264 1597 L323 1466 Z " />
<glyph glyph-name="sacute" unicode="&#x15b;" horiz-adv-x="863" d="M71 57 C148 17 266 -20 422 -20 C681 -20 809 97 809 280 C809 429 728 519 567 580 L486 612 C371 656 328 687 328 744 C328 811 398 836 471 836 C565 836 668 802 734 778 L780 976 C689 1022 568 1044 458 1044 C236 1044 78 923 78 725 C78 582 157 488 321 428 L397 400 C492 364 559 334 559 272 C559 210 496 188 402 188 C300 188 188 225 127 254 L71 57 Z M208 1166 L733 1326 L632 1550 L149 1297 L208 1166 Z " />
<glyph glyph-name="Scircumflex" unicode="&#x15c;" horiz-adv-x="1057" d="M86 78 C156 29 318 -20 481 -20 C798 -20 982 115 982 354 C982 529 892 638 693 729 L516 810 C419 852 371 891 372 976 C373 1055 439 1119 579 1119 C691 1119 815 1077 886 1044 L938 1257 C872 1291 752 1350 564 1350 C305 1350 96 1198 96 963 C96 772 199 666 371 590 L532 520 C657 463 702 420 702 340 C702 255 625 210 476 210 C345 210 205 261 147 292 L86 78 Z M893 1603 C801 1663 667 1756 548 1843 C429 1756 295 1663 203 1603 L332 1442 C399 1491 490 1567 548 1621 C605 1568 698 1491 764 1442 L893 1603 Z " />
<glyph glyph-name="scircumflex" unicode="&#x15d;" horiz-adv-x="863" d="M71 57 C148 17 266 -20 422 -20 C681 -20 809 97 809 280 C809 429 728 519 567 580 L486 612 C371 656 328 687 328 744 C328 811 398 836 471 836 C565 836 668 802 734 778 L780 976 C689 1022 568 1044 458 1044 C236 1044 78 923 78 725 C78 582 157 488 321 428 L397 400 C492 364 559 334 559 272 C559 210 496 188 402 188 C300 188 188 225 127 254 L71 57 Z M790 1303 C698 1363 564 1456 445 1543 C326 1456 191 1363 100 1303 L228 1142 C296 1191 387 1267 445 1321 C502 1268 595 1191 661 1142 L790 1303 Z " />
<glyph glyph-name="Scedilla" unicode="&#x15e;" horiz-adv-x="1057" d="M86 78 C156 29 318 -20 481 -20 C798 -20 982 115 982 354 C982 529 892 638 693 729 L516 810 C419 852 371 891 372 976 C373 1055 439 1119 579 1119 C691 1119 815 1077 886 1044 L938 1257 C872 1291 752 1350 564 1350 C305 1350 96 1198 96 963 C96 772 199 666 371 590 L532 520 C657 463 702 420 702 340 C702 255 625 210 476 210 C345 210 205 261 147 292 L86 78 Z M318 -508 C338 -517 382 -527 434 -527 C590 -527 709 -465 709 -305 C709 -169 608 -106 479 -106 L368 -106 L358 -244 L415 -244 C475 -244 510 -267 510 -315 C510 -361 476 -389 414 -389 C380 -389 353 -384 336 -379 L318 -508 Z " />
<glyph glyph-name="scedilla" unicode="&#x15f;" horiz-adv-x="863" d="M71 57 C148 17 266 -20 422 -20 C681 -20 809 97 809 280 C809 429 728 519 567 580 L486 612 C371 656 328 687 328 744 C328 811 398 836 471 836 C565 836 668 802 734 778 L780 976 C689 1022 568 1044 458 1044 C236 1044 78 923 78 725 C78 582 157 488 321 428 L397 400 C492 364 559 334 559 272 C559 210 496 188 402 188 C300 188 188 225 127 254 L71 57 Z M225 -508 C244 -517 289 -527 340 -527 C497 -527 616 -465 616 -305 C616 -169 515 -106 385 -106 L275 -106 L264 -244 L322 -244 C382 -244 417 -267 417 -315 C417 -361 382 -389 320 -389 C286 -389 260 -384 243 -379 L225 -508 Z " />
<glyph glyph-name="Scaron" unicode="&#x160;" horiz-adv-x="1057" d="M86 78 C156 29 318 -20 481 -20 C798 -20 982 115 982 354 C982 529 892 638 693 729 L516 810 C419 852 371 891 372 976 C373 1055 439 1119 579 1119 C691 1119 815 1077 886 1044 L938 1257 C872 1291 752 1350 564 1350 C305 1350 96 1198 96 963 C96 772 199 666 371 590 L532 520 C657 463 702 420 702 340 C702 255 625 210 476 210 C345 210 205 261 147 292 L86 78 Z M203 1690 C329 1618 462 1525 548 1435 C634 1525 767 1618 893 1690 L777 1859 C700 1811 604 1727 548 1666 C492 1727 396 1811 319 1859 L203 1690 Z " />
<glyph glyph-name="scaron" unicode="&#x161;" horiz-adv-x="863" d="M71 57 C148 17 266 -20 422 -20 C681 -20 809 97 809 280 C809 429 728 519 567 580 L486 612 C371 656 328 687 328 744 C328 811 398 836 471 836 C565 836 668 802 734 778 L780 976 C689 1022 568 1044 458 1044 C236 1044 78 923 78 725 C78 582 157 488 321 428 L397 400 C492 364 559 334 559 272 C559 210 496 188 402 188 C300 188 188 225 127 254 L71 57 Z M100 1390 C226 1318 358 1225 445 1135 C531 1225 663 1318 789 1390 L673 1559 C597 1511 500 1427 445 1366 C389 1427 292 1511 216 1559 L100 1390 Z " />
<glyph glyph-name="Tcedilla" unicode="&#x162;" horiz-adv-x="1054" d="M17 1112 L394 1112 L394 0 L660 0 L660 1112 L1037 1112 L1037 1330 L17 1330 L17 1112 Z M335 -508 C354 -517 399 -527 450 -527 C607 -527 726 -465 726 -305 C726 -169 625 -106 495 -106 L385 -106 L374 -244 L432 -244 C492 -244 527 -267 527 -315 C527 -361 492 -389 430 -389 C396 -389 370 -384 353 -379 L335 -508 Z " />
<glyph glyph-name="tcedilla" unicode="&#x163;" horiz-adv-x="766" d="M421 1270 L198 1251 L178 1015 L11 1005 L11 825 L161 825 L161 321 C161 83 262 -20 500 -20 C583 -20 684 1 738 23 L704 219 C673 208 613 196 562 196 C466 196 427 237 427 352 L427 825 L699 825 L699 1024 L421 1024 L421 1270 Z M236 -508 C256 -517 301 -527 352 -527 C509 -527 628 -465 628 -305 C628 -169 527 -106 397 -106 L286 -106 L276 -244 L334 -244 C393 -244 428 -267 428 -315 C428 -361 394 -389 332 -389 C298 -389 271 -384 255 -379 L236 -508 Z " />
<glyph glyph-name="Tcaron" unicode="&#x164;" horiz-adv-x="1054" d="M17 1112 L394 1112 L394 0 L660 0 L660 1112 L1037 1112 L1037 1330 L17 1330 L17 1112 Z M182 1690 C308 1618 441 1525 527 1435 C613 1525 746 1618 872 1690 L756 1859 C679 1811 583 1727 527 1666 C471 1727 375 1811 298 1859 L182 1690 Z " />
<glyph glyph-name="tcaron" unicode="&#x165;" horiz-adv-x="753" d="M483 1545 C512 1519 564 1460 564 1376 C564 1290 516 1238 480 1210 L578 1118 C660 1159 768 1256 768 1397 C768 1506 707 1574 673 1601 L483 1545 Z M415 1270 L192 1251 L172 1015 L5 1005 L5 825 L155 825 L155 321 C155 83 255 -20 494 -20 C577 -20 678 1 731 23 L697 219 C667 208 607 196 556 196 C460 196 420 237 420 352 L420 825 L693 825 L693 1024 L415 1024 L415 1270 Z " />
<glyph glyph-name="Tbar" unicode="&#x166;" horiz-adv-x="1054" d="M17 1112 L394 1112 L394 723 L180 723 L180 591 L394 591 L394 0 L660 0 L660 591 L872 591 L872 723 L660 723 L660 1112 L1037 1112 L1037 1330 L17 1330 L17 1112 Z " />
<glyph glyph-name="tbar" unicode="&#x167;" horiz-adv-x="766" d="M421 1270 L198 1251 L178 1015 L11 1005 L11 825 L161 825 L161 633 L29 625 L29 512 L161 512 L161 321 C161 83 262 -20 500 -20 C583 -20 684 1 738 23 L704 219 C673 208 613 196 562 196 C466 196 427 237 427 352 L427 512 L685 512 L685 639 L427 639 L427 825 L699 825 L699 1024 L421 1024 L421 1270 Z " />
<glyph glyph-name="Utilde" unicode="&#x168;" horiz-adv-x="1277" d="M378 1330 L112 1330 L112 520 C112 174 305 -20 631 -20 C961 -20 1165 182 1165 522 L1165 1330 L899 1330 L899 509 C899 295 802 194 643 194 C480 194 378 295 378 532 L378 1330 Z M411 1505 C446 1548 475 1585 521 1585 C590 1585 666 1512 749 1512 C884 1512 965 1605 1002 1702 L874 1801 C837 1758 810 1721 763 1721 C703 1721 620 1794 526 1794 C393 1794 311 1684 282 1602 L411 1505 Z " />
<glyph glyph-name="utilde" unicode="&#x169;" horiz-adv-x="1144" d="M1006 0 L1006 1024 L741 1024 L741 283 C688 237 601 201 539 201 C433 201 386 261 386 391 L386 1024 L121 1024 L121 350 C121 99 236 -20 458 -20 C590 -20 702 48 766 110 L793 0 L1006 0 Z M339 1205 C374 1248 403 1285 449 1285 C518 1285 595 1212 678 1212 C812 1212 894 1305 931 1402 L803 1501 C765 1458 738 1421 691 1421 C631 1421 548 1494 454 1494 C321 1494 239 1384 210 1302 L339 1205 Z " />
<glyph glyph-name="Umacron" unicode="&#x16a;" horiz-adv-x="1277" d="M378 1330 L112 1330 L112 520 C112 174 305 -20 631 -20 C961 -20 1165 182 1165 522 L1165 1330 L899 1330 L899 509 C899 295 802 194 643 194 C480 194 378 295 378 532 L378 1330 Z M330 1560 L947 1560 L947 1754 L330 1754 L330 1560 Z " />
<glyph glyph-name="umacron" unicode="&#x16b;" horiz-adv-x="1144" d="M1006 0 L1006 1024 L741 1024 L741 283 C688 237 601 201 539 201 C433 201 386 261 386 391 L386 1024 L121 1024 L121 350 C121 99 236 -20 458 -20 C590 -20 702 48 766 110 L793 0 L1006 0 Z M260 1253 L877 1253 L877 1448 L260 1448 L260 1253 Z " />
<glyph glyph-name="Ubreve" unicode="&#x16c;" horiz-adv-x="1277" d="M378 1330 L112 1330 L112 520 C112 174 305 -20 631 -20 C961 -20 1165 182 1165 522 L1165 1330 L899 1330 L899 509 C899 295 802 194 643 194 C480 194 378 295 378 532 L378 1330 Z M350 1801 C321 1559 482 1465 638 1465 C794 1465 955 1559 926 1801 L743 1801 C747 1715 721 1643 638 1643 C555 1643 529 1715 533 1801 L350 1801 Z " />
<glyph glyph-name="ubreve" unicode="&#x16d;" horiz-adv-x="1144" d="M1006 0 L1006 1024 L741 1024 L741 283 C688 237 601 201 539 201 C433 201 386 261 386 391 L386 1024 L121 1024 L121 350 C121 99 236 -20 458 -20 C590 -20 702 48 766 110 L793 0 L1006 0 Z M278 1494 C249 1252 410 1159 566 1159 C722 1159 883 1252 854 1494 L671 1494 C675 1409 649 1336 566 1336 C483 1336 457 1409 461 1494 L278 1494 Z " />
<glyph glyph-name="Uring" unicode="&#x16e;" horiz-adv-x="1277" d="M378 1330 L112 1330 L112 520 C112 174 305 -20 631 -20 C961 -20 1165 182 1165 522 L1165 1330 L899 1330 L899 509 C899 295 802 194 643 194 C480 194 378 295 378 532 L378 1330 Z M564 1648 C564 1698 597 1728 643 1728 C686 1728 719 1698 719 1652 C719 1603 687 1572 639 1572 C597 1572 564 1603 564 1648 L564 1648 Z M401 1642 C401 1507 500 1424 633 1424 C779 1424 882 1508 882 1659 C882 1793 783 1876 650 1876 C504 1876 401 1792 401 1642 L401 1642 Z " />
<glyph glyph-name="uring" unicode="&#x16f;" horiz-adv-x="1144" d="M1006 0 L1006 1024 L741 1024 L741 283 C688 237 601 201 539 201 C433 201 386 261 386 391 L386 1024 L121 1024 L121 350 C121 99 236 -20 458 -20 C590 -20 702 48 766 110 L793 0 L1006 0 Z M486 1348 C486 1398 519 1428 565 1428 C608 1428 641 1398 641 1352 C641 1303 609 1272 561 1272 C519 1272 486 1303 486 1348 L486 1348 Z M323 1342 C323 1207 422 1124 554 1124 C701 1124 804 1208 804 1359 C804 1493 705 1576 572 1576 C426 1576 323 1492 323 1342 L323 1342 Z " />
<glyph glyph-name="Uhungarumlaut" unicode="&#x170;" horiz-adv-x="1277" d="M378 1330 L112 1330 L112 520 C112 174 305 -20 631 -20 C961 -20 1165 182 1165 522 L1165 1330 L899 1330 L899 509 C899 295 802 194 643 194 C480 194 378 295 378 532 L378 1330 Z M463 1438 L751 1777 L570 1894 L332 1521 L463 1438 Z M807 1448 L1092 1783 L911 1900 L676 1531 L807 1448 Z " />
<glyph glyph-name="uhungarumlaut" unicode="&#x171;" horiz-adv-x="1144" d="M1006 0 L1006 1024 L741 1024 L741 283 C688 237 601 201 539 201 C433 201 386 261 386 391 L386 1024 L121 1024 L121 350 C121 99 236 -20 458 -20 C590 -20 702 48 766 110 L793 0 L1006 0 Z M390 1132 L678 1470 L497 1587 L259 1215 L390 1132 Z M734 1141 L1020 1477 L838 1594 L603 1225 L734 1141 Z " />
<glyph glyph-name="Uogonek" unicode="&#x172;" horiz-adv-x="1277" d="M378 1330 L112 1330 L112 520 C112 189 288 -3 586 -18 C529 -68 465 -147 465 -238 C465 -407 597 -470 736 -470 C827 -470 912 -434 939 -412 L895 -251 C873 -262 826 -283 774 -283 C720 -283 682 -252 682 -187 C682 -115 739 -47 798 0 C1028 58 1165 244 1165 522 L1165 1330 L899 1330 L899 509 C899 295 802 194 643 194 C451 194 378 314 378 615 L378 1330 Z " />
<glyph glyph-name="uogonek" unicode="&#x173;" horiz-adv-x="1144" d="M1006 1024 L741 1024 L741 283 C688 237 601 201 539 201 C434 201 386 261 386 391 L386 1024 L121 1024 L121 350 C121 99 236 -20 458 -20 C590 -20 702 48 766 110 L793 0 L794 0 C732 -46 649 -135 649 -238 C649 -406 783 -470 921 -470 C1012 -470 1097 -434 1124 -412 L1080 -251 C1058 -262 1010 -283 959 -283 C905 -283 867 -252 867 -187 C867 -115 925 -47 984 0 L1006 0 L1006 1024 Z " />
<glyph glyph-name="Wcircumflex" unicode="&#x174;" horiz-adv-x="1887" d="M1559 1330 L1323 339 L1291 423 L1055 1310 L832 1310 L596 423 L565 339 L328 1330 L31 1330 L392 0 L701 0 L944 840 L1186 0 L1496 0 L1856 1330 L1559 1330 Z M1289 1609 C1197 1669 1063 1762 944 1849 C825 1762 690 1669 599 1609 L727 1449 C795 1498 886 1574 944 1627 C1001 1575 1094 1497 1160 1449 L1289 1609 Z " />
<glyph glyph-name="wcircumflex" unicode="&#x175;" horiz-adv-x="1605" d="M1309 1024 L1120 283 L1094 345 L918 1014 L687 1014 L511 345 L485 283 L296 1024 L12 1024 L310 0 L632 0 L802 593 L973 0 L1294 0 L1593 1024 L1309 1024 Z M1147 1303 C1056 1363 922 1456 802 1543 C683 1456 549 1363 457 1303 L586 1142 C653 1191 745 1267 802 1321 C859 1268 952 1191 1019 1142 L1147 1303 Z " />
<glyph glyph-name="Ycircumflex" unicode="&#x176;" horiz-adv-x="1176" d="M454 0 L721 0 L721 501 L1165 1330 L878 1330 L589 752 L300 1330 L11 1330 L454 501 L454 0 Z M933 1603 C841 1663 707 1756 588 1843 C469 1756 335 1663 243 1603 L372 1442 C439 1491 531 1567 588 1621 C645 1568 738 1491 804 1442 L933 1603 Z " />
<glyph glyph-name="ycircumflex" unicode="&#x177;" horiz-adv-x="1080" d="M774 1024 L560 261 L536 308 L300 1024 L8 1024 C130 709 251 393 374 79 L425 -28 C389 -156 323 -206 228 -206 C148 -206 88 -186 66 -178 L22 -370 C59 -387 148 -416 241 -416 C483 -416 622 -302 722 -4 L1062 1024 L774 1024 Z M881 1303 C789 1363 655 1456 536 1543 C417 1456 283 1363 191 1303 L320 1142 C387 1191 478 1267 536 1321 C593 1268 686 1191 752 1142 L881 1303 Z " />
<glyph glyph-name="Ydieresis" unicode="&#x178;" horiz-adv-x="1176" d="M454 0 L721 0 L721 501 L1165 1330 L878 1330 L589 752 L300 1330 L11 1330 L454 501 L454 0 Z M220 1642 C220 1552 282 1496 366 1496 C461 1496 527 1552 527 1657 C527 1747 465 1802 381 1802 C285 1802 220 1746 220 1642 L220 1642 Z M649 1642 C649 1552 712 1496 796 1496 C891 1496 957 1552 957 1657 C957 1747 894 1802 810 1802 C715 1802 649 1746 649 1642 L649 1642 Z " />
<glyph glyph-name="Zacute" unicode="&#x179;" horiz-adv-x="1100" d="M74 188 L74 0 L1046 0 L1046 218 L381 218 L1007 1141 L1007 1329 L114 1329 L114 1111 L679 1111 L74 188 Z M348 1466 L873 1626 L772 1850 L289 1597 L348 1466 Z " />
<glyph glyph-name="zacute" unicode="&#x17a;" horiz-adv-x="968" d="M81 162 L81 0 L887 0 L887 199 L388 199 L857 862 L857 1024 L116 1024 L116 825 L550 825 L81 162 Z M269 1166 L794 1326 L692 1550 L209 1297 L269 1166 Z " />
<glyph glyph-name="Zdotaccent" unicode="&#x17b;" horiz-adv-x="1100" d="M74 188 L74 0 L1046 0 L1046 218 L381 218 L1007 1141 L1007 1329 L114 1329 L114 1111 L679 1111 L74 188 Z M402 1642 C402 1552 464 1496 549 1496 C644 1496 710 1552 710 1657 C710 1747 647 1802 563 1802 C468 1802 402 1746 402 1642 L402 1642 Z " />
<glyph glyph-name="zdotaccent" unicode="&#x17c;" horiz-adv-x="968" d="M81 162 L81 0 L887 0 L887 199 L388 199 L857 862 L857 1024 L116 1024 L116 825 L550 825 L81 162 Z M336 1342 C336 1252 399 1196 483 1196 C578 1196 644 1252 644 1357 C644 1447 581 1502 497 1502 C402 1502 336 1446 336 1342 L336 1342 Z " />
<glyph glyph-name="Zcaron" unicode="&#x17d;" horiz-adv-x="1092" d="M66 188 L66 0 L1039 0 L1039 218 L373 218 L999 1141 L999 1329 L106 1329 L106 1111 L672 1111 L66 188 Z M210 1690 C336 1618 468 1525 554 1435 C641 1525 773 1618 899 1690 L783 1859 C707 1811 610 1727 554 1666 C499 1727 402 1811 326 1859 L210 1690 Z " />
<glyph glyph-name="zcaron" unicode="&#x17e;" horiz-adv-x="968" d="M81 162 L81 0 L887 0 L887 199 L388 199 L857 862 L857 1024 L116 1024 L116 825 L550 825 L81 162 Z M145 1390 C271 1318 404 1225 490 1135 C576 1225 709 1318 835 1390 L719 1559 C642 1511 546 1427 490 1366 C434 1427 338 1511 261 1559 L145 1390 Z " />
<glyph glyph-name="longs" unicode="&#x17f;" horiz-adv-x="586" d="M426 1102 C426 1217 477 1270 579 1270 C636 1270 688 1257 716 1248 L759 1442 C725 1454 673 1471 608 1476 C576 1478 542 1478 505 1476 C283 1462 163 1322 163 1118 L163 1015 L11 1005 L11 825 L161 825 L161 0 L426 0 L426 1102 Z " />
<glyph glyph-name="florin" unicode="&#x192;" horiz-adv-x="1112" d="M675 971 C694 1088 755 1140 856 1140 C913 1140 963 1126 991 1117 L1044 1311 C1005 1328 943 1349 849 1349 C627 1349 475 1230 426 1038 C420 1013 414 988 410 962 L380 770 L223 761 L223 580 L349 580 L251 -38 C232 -160 175 -207 75 -207 C28 -207 -11 -197 -34 -190 L-83 -386 C-56 -396 -17 -407 25 -412 C52 -415 83 -416 116 -414 C320 -405 454 -295 504 -92 C556 120 579 360 615 580 L873 580 L873 778 L644 778 L675 971 Z " />
<glyph glyph-name="Aringacute" unicode="&#x1fa;" horiz-adv-x="1299" d="M1003 0 L1288 0 L772 1330 L526 1330 L11 0 L296 0 L405 308 L894 308 L1003 0 Z M469 1565 C469 1461 543 1396 643 1396 C755 1396 831 1461 831 1579 C831 1683 757 1747 657 1747 C545 1747 469 1682 469 1565 L469 1565 Z M646 998 L674 936 L821 513 L477 513 L646 998 Z M469 1745 L870 1876 L778 2058 L414 1854 L469 1745 Z M604 1571 C604 1600 623 1618 651 1618 C677 1618 697 1600 697 1573 C697 1543 677 1525 649 1525 C624 1525 604 1543 604 1571 L604 1571 Z " />
<glyph glyph-name="aringacute" unicode="&#x1fb;" horiz-adv-x="973" d="M829 701 C829 919 692 1044 440 1044 C300 1044 157 991 89 953 L141 765 C198 792 303 826 406 826 C528 826 576 769 576 659 L576 560 C291 592 44 514 44 264 C44 94 177 -20 367 -20 C459 -20 553 19 628 89 C660 18 725 -20 810 -20 C872 -20 927 -6 966 11 L945 195 C929 190 909 183 883 183 C850 183 829 203 829 252 L829 701 Z M297 290 C297 411 447 433 576 412 L576 236 C532 200 477 175 422 175 C346 175 297 218 297 290 L297 290 Z M404 1282 C404 1311 423 1329 451 1329 C476 1329 496 1311 496 1284 C496 1254 477 1236 449 1236 C424 1236 404 1254 404 1282 L404 1282 Z M269 1276 C269 1171 343 1107 443 1107 C555 1107 631 1172 631 1290 C631 1393 557 1458 457 1458 C345 1458 269 1393 269 1276 L269 1276 Z M268 1456 L669 1587 L577 1768 L213 1565 L268 1456 Z " />
<glyph glyph-name="AEacute" unicode="&#x1fc;" horiz-adv-x="1882" d="M977 1330 L5 0 L292 0 L516 309 L996 309 L996 0 L1795 0 L1795 218 L1256 218 L1256 564 L1749 564 L1749 776 L1256 776 L1256 1112 L1775 1112 L1775 1330 L977 1330 Z M666 514 L996 971 L996 514 L666 514 Z M1145 1469 L1670 1629 L1569 1852 L1086 1599 L1145 1469 Z " />
<glyph glyph-name="aeacute" unicode="&#x1fd;" horiz-adv-x="1515" d="M1426 462 C1444 508 1457 578 1457 661 C1457 891 1315 1044 1062 1044 C933 1044 826 997 746 915 C682 998 577 1044 438 1044 C311 1044 165 997 82 953 L132 764 C203 796 309 826 401 826 C524 826 577 774 577 660 L577 578 C530 578 483 575 438 573 C204 556 44 454 44 279 C44 94 178 -20 363 -20 C487 -20 607 34 720 129 C804 35 925 -20 1064 -20 C1235 -20 1358 24 1427 60 L1368 250 C1308 227 1220 198 1098 198 C947 198 853 279 839 445 L1426 462 Z M842 592 C854 754 926 845 1042 845 C1142 845 1201 780 1203 673 C1204 652 1203 630 1198 604 L842 592 Z M297 300 C297 368 350 418 446 431 C486 436 529 439 577 439 C578 377 583 311 592 249 C541 207 478 177 416 177 C345 177 297 219 297 300 L297 300 Z M537 1166 L1062 1326 L961 1550 L478 1297 L537 1166 Z " />
<glyph glyph-name="Oslashacute" unicode="&#x1fe;" horiz-adv-x="1419" d="M264 -163 L398 45 C484 2 587 -20 704 -20 C1107 -20 1349 254 1349 669 C1349 901 1276 1088 1140 1205 L1278 1422 L1155 1493 L1022 1284 C935 1327 832 1350 716 1350 C312 1350 70 1076 70 661 C70 428 143 242 279 124 L141 -92 L264 -163 Z M715 193 C643 193 579 213 527 248 L990 971 C1038 890 1064 783 1064 654 C1064 362 925 193 715 193 L715 193 Z M355 676 C355 968 494 1137 704 1137 C777 1137 839 1117 892 1081 L428 358 C381 439 355 546 355 676 L355 676 Z M485 1466 L1010 1626 L908 1850 L425 1597 L485 1466 Z " />
<glyph glyph-name="oslashacute" unicode="&#x1ff;" horiz-adv-x="1122" d="M555 -20 C871 -20 1064 198 1064 521 C1064 692 1006 834 902 927 L1032 1130 L921 1193 L795 996 C730 1027 653 1044 567 1044 C250 1044 57 827 57 503 C57 332 115 190 219 98 L89 -105 L200 -168 L326 28 C392 -3 469 -20 555 -20 L555 -20 Z M333 519 C333 712 405 845 556 845 C603 845 644 833 676 811 L365 326 C344 379 333 443 333 519 L333 519 Z M566 179 C518 179 477 190 444 213 L756 698 C778 646 789 581 789 505 C789 312 716 179 566 179 L566 179 Z M336 1166 L861 1326 L759 1550 L276 1297 L336 1166 Z " />
<glyph glyph-name="Scommaaccent" unicode="&#x218;" horiz-adv-x="1057" d="M86 78 C156 29 318 -20 481 -20 C798 -20 982 115 982 354 C982 529 892 638 693 729 L516 810 C419 852 371 891 372 976 C373 1055 439 1119 579 1119 C691 1119 815 1077 886 1044 L938 1257 C872 1291 752 1350 564 1350 C305 1350 96 1198 96 963 C96 772 199 666 371 590 L532 520 C657 463 702 420 702 340 C702 255 625 210 476 210 C345 210 205 261 147 292 L86 78 Z M423 -139 C441 -156 495 -210 495 -285 C495 -354 421 -393 349 -406 L392 -533 C581 -517 727 -437 727 -281 C727 -189 663 -117 631 -93 L423 -139 Z " />
<glyph glyph-name="scommaaccent" unicode="&#x219;" horiz-adv-x="863" d="M71 57 C148 17 266 -20 422 -20 C681 -20 809 97 809 280 C809 429 728 519 567 580 L486 612 C371 656 328 687 328 744 C328 811 398 836 471 836 C565 836 668 802 734 778 L780 976 C689 1022 568 1044 458 1044 C236 1044 78 923 78 725 C78 582 157 488 321 428 L397 400 C492 364 559 334 559 272 C559 210 496 188 402 188 C300 188 188 225 127 254 L71 57 Z M326 -139 C344 -156 398 -210 398 -285 C398 -354 324 -393 252 -406 L295 -533 C484 -517 630 -437 630 -281 C630 -189 566 -117 534 -93 L326 -139 Z " />
<glyph glyph-name="Tcommaaccent" unicode="&#x21a;" horiz-adv-x="1054" d="M17 1112 L394 1112 L394 0 L660 0 L660 1112 L1037 1112 L1037 1330 L17 1330 L17 1112 Z M393 -139 C412 -156 465 -210 465 -285 C465 -354 391 -393 319 -406 L363 -533 C551 -517 697 -437 697 -281 C697 -189 633 -117 601 -93 L393 -139 Z " />
<glyph glyph-name="tcommaaccent" unicode="&#x21b;" horiz-adv-x="766" d="M421 1270 L198 1251 L178 1015 L11 1005 L11 825 L161 825 L161 321 C161 83 262 -20 500 -20 C583 -20 684 1 738 23 L704 219 C673 208 613 196 562 196 C466 196 427 237 427 352 L427 825 L699 825 L699 1024 L421 1024 L421 1270 Z M305 -139 C324 -156 378 -210 378 -285 C378 -354 304 -393 231 -406 L275 -533 C464 -517 609 -437 609 -281 C609 -189 546 -117 513 -93 L305 -139 Z " />
<glyph glyph-name="dotlessj" unicode="&#x237;" horiz-adv-x="554" d="M151 -43 C151 -159 106 -206 7 -206 C-33 -206 -65 -198 -87 -191 L-117 -388 C-82 -402 -26 -416 43 -416 C288 -416 416 -293 416 -25 L416 1024 L151 1024 L151 -43 Z " />
<glyph glyph-name="apostrophe" unicode="&#x2bc;" horiz-adv-x="413" d="M207 972 C259 1018 342 1142 342 1283 C342 1404 300 1479 277 1513 L62 1463 C83 1427 121 1346 121 1253 C121 1153 92 1061 71 1016 L207 972 Z " />
<glyph glyph-name="circumflex" unicode="&#x2c6;" horiz-adv-x="920" d="M805 1303 C713 1363 579 1456 460 1543 C341 1456 207 1363 115 1303 L244 1142 C311 1191 402 1267 460 1321 C517 1268 610 1191 676 1142 L805 1303 Z " />
<glyph glyph-name="caron" unicode="&#x2c7;" horiz-adv-x="914" d="M112 1390 C238 1318 371 1225 457 1135 C543 1225 676 1318 802 1390 L686 1559 C609 1511 513 1427 457 1366 C401 1427 305 1511 228 1559 L112 1390 Z " />
<glyph glyph-name="breve" unicode="&#x2d8;" horiz-adv-x="810" d="M117 1494 C88 1252 249 1159 405 1159 C561 1159 722 1252 693 1494 L510 1494 C514 1409 488 1336 405 1336 C322 1336 296 1409 300 1494 L117 1494 Z " />
<glyph glyph-name="dotaccent" unicode="&#x2d9;" horiz-adv-x="534" d="M113 1342 C113 1252 175 1196 259 1196 C354 1196 420 1252 420 1357 C420 1447 358 1502 274 1502 C179 1502 113 1446 113 1342 L113 1342 Z " />
<glyph glyph-name="ring" unicode="&#x2da;" horiz-adv-x="686" d="M265 1348 C265 1398 298 1428 344 1428 C387 1428 421 1398 421 1352 C421 1303 388 1272 341 1272 C298 1272 265 1303 265 1348 L265 1348 Z M103 1342 C103 1207 202 1124 334 1124 C480 1124 583 1208 583 1359 C583 1493 484 1576 351 1576 C205 1576 103 1492 103 1342 L103 1342 Z " />
<glyph glyph-name="ogonek" unicode="&#x2db;" horiz-adv-x="672" d="M341 20 C290 -11 180 -105 170 -216 C169 -241 169 -265 173 -288 C196 -416 315 -470 439 -470 C530 -470 615 -434 642 -412 L598 -251 C576 -262 528 -283 477 -283 C423 -283 385 -252 385 -187 C385 -115 443 -47 502 0 L341 20 Z " />
<glyph glyph-name="tilde" unicode="&#x2dc;" horiz-adv-x="939" d="M238 1205 C273 1248 302 1285 348 1285 C417 1285 493 1212 576 1212 C711 1212 792 1305 829 1402 L701 1501 C664 1458 637 1421 590 1421 C530 1421 447 1494 353 1494 C220 1494 138 1384 109 1302 L238 1205 Z " />
<glyph glyph-name="hungarumlaut" unicode="&#x2dd;" horiz-adv-x="987" d="M244 1132 L532 1470 L351 1587 L113 1215 L244 1132 Z M588 1141 L874 1477 L692 1594 L457 1225 L588 1141 Z " />
<glyph glyph-name="acutecomb" unicode="&#x301;" horiz-adv-x="682" d="M168 1456 L569 1587 L477 1768 L113 1565 L168 1456 Z " />
<glyph glyph-name="dotaccentcmb" unicode="&#x307;" horiz-adv-x="490" d="M91 685 C91 595 153 539 238 539 C333 539 399 595 399 700 C399 790 336 845 252 845 C157 845 91 789 91 685 L91 685 Z " />
<glyph glyph-name="ringcomb" unicode="&#x30a;" horiz-adv-x="588" d="M248 1282 C248 1311 267 1329 295 1329 C320 1329 341 1311 341 1284 C341 1254 321 1236 293 1236 C268 1236 248 1254 248 1282 L248 1282 Z M113 1276 C113 1171 187 1107 287 1107 C399 1107 475 1172 475 1290 C475 1393 401 1458 301 1458 C189 1458 113 1393 113 1276 L113 1276 Z " />
<glyph glyph-name="&amp;#x394;" unicode="&#x394;" horiz-adv-x="1294" d="M1283 0 L1283 183 L763 1330 L530 1330 L11 183 L11 0 L1283 0 Z M646 1028 L995 218 L299 218 L646 1028 Z " />
<glyph glyph-name="&amp;#x2206;" unicode="&#x2206;" horiz-adv-x="1294" d="M1283 0 L1283 183 L763 1330 L530 1330 L11 183 L11 0 L1283 0 Z M646 1028 L995 218 L299 218 L646 1028 Z " />
<glyph glyph-name="&amp;#x3a9;" unicode="&#x3a9;" horiz-adv-x="1447" d="M1377 206 L1125 206 C1253 292 1370 466 1370 707 C1370 1072 1118 1350 729 1350 C341 1350 77 1068 77 689 C77 465 194 292 321 206 L70 206 L70 0 L625 0 L625 184 C493 251 362 437 362 707 C362 975 520 1137 716 1137 C930 1137 1085 968 1085 686 C1085 432 961 251 822 184 L822 0 L1377 0 L1377 206 Z " />
<glyph glyph-name="&amp;#x2126;" unicode="&#x2126;" horiz-adv-x="1447" d="M1377 206 L1125 206 C1253 292 1370 466 1370 707 C1370 1072 1118 1350 729 1350 C341 1350 77 1068 77 689 C77 465 194 292 321 206 L70 206 L70 0 L625 0 L625 184 C493 251 362 437 362 707 C362 975 520 1137 716 1137 C930 1137 1085 968 1085 686 C1085 432 961 251 822 184 L822 0 L1377 0 L1377 206 Z " />
<glyph glyph-name="pi" unicode="&#x3c0;" horiz-adv-x="1485" d="M65 789 C97 805 165 825 268 825 L313 825 L313 675 C313 298 175 0 175 0 L431 0 C431 0 572 278 572 670 L572 825 L903 825 C865 728 822 577 822 414 C822 164 967 -20 1205 -20 C1299 -20 1379 1 1414 19 L1383 211 C1365 205 1319 192 1269 192 C1157 192 1095 270 1088 403 C1086 434 1086 468 1088 502 C1093 620 1123 736 1153 825 L1405 825 L1405 1024 L275 1024 C138 1024 48 983 11 959 L65 789 Z " />
<glyph glyph-name="uni0E3F" unicode="&#xe3f;" horiz-adv-x="1267" d="M479 1507 L498 1260 L225 1260 L225 72 L499 72 L481 -177 L700 -177 L681 73 C944 86 1102 218 1102 426 C1102 564 1006 671 896 710 C975 755 1042 841 1042 946 C1042 1138 905 1242 679 1257 L698 1507 L479 1507 Z M625 589 C763 589 827 516 827 410 C827 316 751 263 625 263 L467 263 L467 589 L625 589 Z M467 1069 L603 1069 C719 1069 783 1017 783 920 C783 858 749 800 702 771 L467 771 L467 1069 Z " />
<glyph glyph-name="Wgrave" unicode="&#x1e80;" horiz-adv-x="1887" d="M1559 1330 L1323 339 L1291 423 L1055 1310 L832 1310 L596 423 L565 339 L328 1330 L31 1330 L392 0 L701 0 L944 840 L1186 0 L1496 0 L1856 1330 L1559 1330 Z M1228 1603 L753 1853 L652 1629 L1169 1472 L1228 1603 Z " />
<glyph glyph-name="wgrave" unicode="&#x1e81;" horiz-adv-x="1605" d="M1309 1024 L1120 283 L1094 345 L918 1014 L687 1014 L511 345 L485 283 L296 1024 L12 1024 L310 0 L632 0 L802 593 L973 0 L1294 0 L1593 1024 L1309 1024 Z M1072 1297 L597 1546 L496 1323 L1013 1166 L1072 1297 Z " />
<glyph glyph-name="Wacute" unicode="&#x1e82;" horiz-adv-x="1887" d="M1559 1330 L1323 339 L1291 423 L1055 1310 L832 1310 L596 423 L565 339 L328 1330 L31 1330 L392 0 L701 0 L944 840 L1186 0 L1496 0 L1856 1330 L1559 1330 Z M756 1472 L1281 1633 L1180 1856 L697 1603 L756 1472 Z " />
<glyph glyph-name="wacute" unicode="&#x1e83;" horiz-adv-x="1605" d="M1309 1024 L1120 283 L1094 345 L918 1014 L687 1014 L511 345 L485 283 L296 1024 L12 1024 L310 0 L632 0 L802 593 L973 0 L1294 0 L1593 1024 L1309 1024 Z M586 1166 L1111 1326 L1010 1550 L527 1297 L586 1166 Z " />
<glyph glyph-name="Wdieresis" unicode="&#x1e84;" horiz-adv-x="1887" d="M1559 1330 L1323 339 L1291 423 L1055 1310 L832 1310 L596 423 L565 339 L328 1330 L31 1330 L392 0 L701 0 L944 840 L1186 0 L1496 0 L1856 1330 L1559 1330 Z M575 1649 C575 1559 637 1503 721 1503 C816 1503 882 1558 882 1663 C882 1753 820 1809 736 1809 C641 1809 575 1753 575 1649 L575 1649 Z M1005 1649 C1005 1559 1067 1503 1151 1503 C1246 1503 1312 1558 1312 1663 C1312 1753 1250 1809 1166 1809 C1070 1809 1005 1753 1005 1649 L1005 1649 Z " />
<glyph glyph-name="wdieresis" unicode="&#x1e85;" horiz-adv-x="1605" d="M1309 1024 L1120 283 L1094 345 L918 1014 L687 1014 L511 345 L485 283 L296 1024 L12 1024 L310 0 L632 0 L802 593 L973 0 L1294 0 L1593 1024 L1309 1024 Z M434 1342 C434 1252 496 1196 580 1196 C675 1196 741 1252 741 1357 C741 1447 679 1502 595 1502 C500 1502 434 1446 434 1342 L434 1342 Z M864 1342 C864 1252 926 1196 1010 1196 C1105 1196 1171 1252 1171 1357 C1171 1447 1109 1502 1025 1502 C929 1502 864 1446 864 1342 L864 1342 Z " />
<glyph glyph-name="Germandbls" unicode="&#x1e9e;" horiz-adv-x="1251" d="M522 26 C562 4 655 -20 774 -20 C1030 -20 1200 116 1200 369 C1200 590 1030 710 862 720 L1135 1152 L1135 1330 L627 1330 C290 1330 128 1124 128 882 L128 0 L393 0 L393 875 C393 1013 471 1099 610 1099 L841 1099 L573 663 L581 556 C832 588 934 509 934 360 C934 255 862 187 758 187 C667 187 588 211 562 220 L522 26 Z " />
<glyph glyph-name="Ygrave" unicode="&#x1ef2;" horiz-adv-x="1176" d="M454 0 L721 0 L721 501 L1165 1330 L878 1330 L589 752 L300 1330 L11 1330 L454 501 L454 0 Z M830 1597 L355 1846 L254 1623 L771 1466 L830 1597 Z " />
<glyph glyph-name="ygrave" unicode="&#x1ef3;" horiz-adv-x="1080" d="M774 1024 L560 261 L536 308 L300 1024 L8 1024 C130 709 251 393 374 79 L425 -28 C389 -156 323 -206 228 -206 C148 -206 88 -186 66 -178 L22 -370 C59 -387 148 -416 241 -416 C483 -416 622 -302 722 -4 L1062 1024 L774 1024 Z M779 1297 L304 1546 L202 1323 L720 1166 L779 1297 Z " />
<glyph glyph-name="endash" unicode="&#x2013;" horiz-adv-x="1175" d="M137 427 L1037 427 L1037 638 L137 638 L137 427 Z " />
<glyph glyph-name="emdash" unicode="&#x2014;" horiz-adv-x="1780" d="M137 427 L1642 427 L1642 638 L137 638 L137 427 Z " />
<glyph glyph-name="quoteleft" unicode="&#x2018;" horiz-adv-x="447" d="M303 1511 C160 1448 36 1341 36 1171 C36 1045 108 955 151 921 L366 979 C326 1017 259 1089 259 1193 C259 1293 331 1358 400 1400 L303 1511 Z " />
<glyph glyph-name="quoteright" unicode="&#x2019;" horiz-adv-x="465" d="M130 921 C273 984 397 1091 397 1260 C397 1387 324 1477 281 1511 L67 1453 C107 1415 174 1342 174 1239 C174 1139 102 1074 32 1032 L130 921 Z " />
<glyph glyph-name="quotesinglbase" unicode="&#x201a;" horiz-adv-x="463" d="M114 -303 C258 -240 381 -133 381 36 C381 163 309 253 266 286 L51 229 C92 191 159 118 159 14 C159 -85 86 -150 17 -192 L114 -303 Z " />
<glyph glyph-name="quotedblleft" unicode="&#x201c;" horiz-adv-x="825" d="M303 1503 C160 1440 36 1333 36 1164 C36 1038 108 948 151 914 L354 971 C314 1009 247 1082 247 1186 C247 1285 320 1353 390 1395 L303 1503 Z M692 1514 C551 1453 427 1346 427 1176 C427 1050 499 961 542 927 L745 984 C705 1022 638 1094 638 1198 C638 1298 709 1363 779 1405 L692 1514 Z " />
<glyph glyph-name="quotedblright" unicode="&#x201d;" horiz-adv-x="844" d="M503 923 C646 985 770 1093 770 1262 C770 1388 698 1478 655 1512 L452 1455 C492 1417 559 1344 559 1240 C559 1140 485 1073 416 1031 L503 923 Z M114 912 C255 973 379 1080 379 1249 C379 1376 307 1465 264 1499 L61 1442 C101 1403 168 1331 168 1227 C168 1128 96 1063 27 1021 L114 912 Z " />
<glyph glyph-name="quotedblbase" unicode="&#x201e;" horiz-adv-x="842" d="M488 -290 C631 -228 755 -120 755 49 C755 175 683 265 640 299 L437 242 C477 204 544 131 544 27 C544 -73 470 -140 401 -182 L488 -290 Z M99 -301 C240 -240 364 -133 364 36 C364 163 292 252 249 286 L46 229 C86 191 153 118 153 14 C153 -85 81 -150 12 -192 L99 -301 Z " />
<glyph glyph-name="dagger" unicode="&#x2020;" horiz-adv-x="1285" d="M495 1593 L506 1076 L116 1088 L116 853 L510 865 L536 -324 L747 -324 L772 865 L1169 853 L1169 1088 L777 1076 L788 1593 L495 1593 Z " />
<glyph glyph-name="daggerdbl" unicode="&#x2021;" horiz-adv-x="1272" d="M492 1601 L505 1179 L116 1191 L116 957 L512 969 L521 638 L512 319 L116 331 L116 97 L505 109 L492 -324 L780 -324 L766 109 L1157 97 L1157 331 L759 319 L749 638 L760 969 L1157 957 L1157 1191 L767 1179 L780 1601 L492 1601 Z " />
<glyph glyph-name="bullet" unicode="&#x2022;" horiz-adv-x="728" d="M113 675 C113 529 215 437 352 437 C506 437 615 528 615 699 C615 844 512 936 376 936 C221 936 113 843 113 675 L113 675 Z " />
<glyph glyph-name="ellipsis" unicode="&#x2026;" horiz-adv-x="1537" d="M91 126 C91 36 153 -20 238 -20 C333 -20 399 36 399 141 C399 230 336 286 252 286 C157 286 91 230 91 126 L91 126 Z M615 126 C615 36 677 -20 761 -20 C856 -20 922 36 922 141 C922 230 860 286 776 286 C680 286 615 230 615 126 L615 126 Z M1138 126 C1138 36 1200 -20 1285 -20 C1380 -20 1446 36 1446 141 C1446 230 1383 286 1299 286 C1204 286 1138 230 1138 126 L1138 126 Z " />
<glyph glyph-name="perthousand" unicode="&#x2030;" horiz-adv-x="1878" d="M1507 -20 C1698 -20 1821 114 1821 295 C1821 463 1698 599 1520 599 C1422 599 1348 560 1304 494 C1261 560 1190 599 1098 599 C908 599 784 464 784 283 C784 116 908 -20 1085 -20 C1183 -20 1257 18 1301 84 C1344 19 1415 -20 1507 -20 L1507 -20 Z M1518 148 C1441 148 1404 209 1404 293 C1404 370 1441 431 1509 431 C1587 431 1623 369 1623 285 C1623 208 1585 148 1518 148 L1518 148 Z M1096 148 C1020 148 982 209 982 293 C982 370 1020 431 1087 431 C1165 431 1201 369 1201 285 C1201 208 1164 148 1096 148 L1096 148 Z M1162 1357 L169 81 L311 -20 L1304 1255 L1162 1357 Z M376 731 C570 731 692 856 692 1046 C692 1222 570 1350 389 1350 C195 1350 72 1224 72 1034 C72 859 195 731 376 731 L376 731 Z M386 900 C311 900 277 962 277 1044 C277 1120 312 1180 377 1180 C453 1180 487 1119 487 1036 C487 960 452 900 386 900 L386 900 Z " />
<glyph glyph-name="guilsinglleft" unicode="&#x2039;" horiz-adv-x="766" d="M514 1005 C388 834 228 643 97 512 C228 380 388 189 514 18 L698 152 C619 272 504 398 385 512 C504 625 619 752 698 871 L514 1005 Z " />
<glyph glyph-name="guilsinglright" unicode="&#x203a;" horiz-adv-x="766" d="M257 17 C382 189 542 379 673 511 C543 642 382 834 257 1005 L72 871 C152 751 267 624 386 511 C267 398 152 271 72 152 L257 17 Z " />
<glyph glyph-name="interrobang" unicode="&#x203d;" horiz-adv-x="814" d="M235 986 L241 634 C220 598 207 560 207 518 C207 462 224 428 234 407 L428 422 L428 496 C447 652 762 754 762 1009 C762 1204 601 1350 355 1350 C189 1350 76 1297 21 1266 L78 1081 C108 1096 203 1135 316 1135 C431 1135 500 1083 500 980 C500 910 434 842 374 783 L378 986 L235 986 Z M192 126 C192 36 254 -20 338 -20 C433 -20 499 36 499 141 C499 230 436 286 353 286 C257 286 192 230 192 126 L192 126 Z " />
<glyph glyph-name="fraction" unicode="&#x2044;" horiz-adv-x="1170" d="M1010 1357 L17 81 L160 -20 L1153 1255 L1010 1357 Z " />
<glyph glyph-name="zerosuperior" unicode="&#x2070;" horiz-adv-x="684" d="M345 731 C539 731 662 856 662 1046 C662 1222 539 1350 358 1350 C165 1350 41 1224 41 1034 C41 859 165 731 345 731 L345 731 Z M355 900 C281 900 246 962 246 1044 C246 1120 281 1180 347 1180 C423 1180 457 1119 457 1036 C457 960 421 900 355 900 L355 900 Z " />
<glyph glyph-name="foursuperior" unicode="&#x2074;" horiz-adv-x="586" d="M296 1330 L24 974 L24 851 L290 851 L290 751 L471 751 L471 851 L560 851 L560 986 L471 986 L471 1330 L296 1330 Z M194 986 L290 1113 L290 986 L194 986 Z " />
<glyph glyph-name="franc" unicode="&#x20a3;" horiz-adv-x="1210" d="M1065 1330 L256 1330 L256 361 L107 361 L107 229 L256 229 L256 0 L522 0 L522 229 L790 229 L790 361 L522 361 L522 555 L1006 555 L1006 767 L522 767 L522 1112 L1065 1112 L1065 1330 Z " />
<glyph glyph-name="lira" unicode="&#x20a4;" horiz-adv-x="1238" d="M199 -2 L343 -30 C378 -14 414 20 414 20 L459 17 C570 10 674 -20 789 -20 C968 -20 1090 74 1109 271 L939 321 C912 242 882 187 781 189 C706 189 635 206 546 214 C570 300 582 387 583 465 L886 465 L886 602 L157 602 L157 465 L320 465 C320 384 312 297 287 206 C242 197 184 175 153 156 L199 -2 Z M141 729 L870 729 L870 866 L540 866 C538 895 536 923 536 952 C536 1070 603 1132 712 1132 C813 1132 911 1094 947 1080 L1004 1273 C955 1301 848 1350 711 1350 C434 1350 273 1190 273 938 C273 913 273 890 275 866 L141 866 L141 729 Z " />
<glyph glyph-name="won" unicode="&#x20a9;" horiz-adv-x="2144" d="M91 834 L333 834 L363 708 L161 708 L161 596 L391 596 L537 0 L849 0 L1069 851 L1290 0 L1603 0 L1748 596 L1972 596 L1972 708 L1776 708 L1806 834 L2052 834 L2052 946 L1833 946 L1928 1330 L1646 1330 L1566 946 L1268 946 L1175 1310 L964 1310 L870 946 L572 946 L492 1330 L212 1330 L306 946 L91 946 L91 834 Z M594 834 L842 834 L810 708 L620 708 L594 834 Z M1296 834 L1544 834 L1518 708 L1328 708 L1296 834 Z M1356 596 L1496 596 C1481 526 1468 456 1454 386 L1429 315 L1356 596 Z M642 596 L782 596 L722 362 L703 315 L642 596 Z " />
<glyph glyph-name="Euro" unicode="&#x20ac;" horiz-adv-x="1395" d="M134 465 L254 465 C322 163 554 -20 915 -20 C1043 -20 1181 15 1268 67 L1201 262 C1106 222 1013 204 918 204 C740 204 608 299 552 465 L979 465 L979 602 L134 602 L134 465 Z M134 729 L979 729 L979 866 L547 866 C600 1036 734 1126 913 1126 C1006 1126 1094 1104 1173 1074 L1236 1273 C1168 1312 1037 1350 908 1350 C568 1350 331 1160 258 866 L134 866 L134 729 Z " />
<glyph glyph-name="uni20B1" unicode="&#x20b1;" horiz-adv-x="1388" d="M101 941 L245 941 L245 859 L101 859 L101 766 L245 766 L245 0 L511 0 L511 475 L682 475 C912 475 1089 576 1146 766 L1304 766 L1304 859 L1164 859 C1165 875 1167 893 1167 911 C1167 921 1166 930 1165 941 L1304 941 L1304 1034 L1152 1034 C1105 1230 938 1330 673 1330 L245 1330 L245 1034 L101 1034 L101 941 Z M888 897 C888 884 886 871 885 859 L511 859 L511 941 L885 941 C886 927 888 912 888 897 L888 897 Z M667 679 L511 679 L511 766 L855 766 C819 710 756 679 667 679 L667 679 Z M511 1117 L654 1117 C749 1117 814 1095 853 1034 L511 1034 L511 1117 Z " />
<glyph glyph-name="uni20B9" unicode="&#x20b9;" horiz-adv-x="1185" d="M185 854 L570 854 C535 710 369 703 179 703 L179 521 L621 0 L956 0 L486 533 C630 561 810 668 842 854 L1019 854 L1019 973 L845 973 C833 1075 788 1153 717 1211 L1056 1211 L1056 1330 L183 1330 L183 1124 L335 1124 C465 1124 547 1069 570 973 L185 973 L185 854 Z " />
<glyph glyph-name="uni20BA" unicode="&#x20ba;" horiz-adv-x="1196" d="M174 647 L316 737 L316 629 L102 494 L168 390 L316 484 L316 0 L545 0 C862 0 1092 233 1082 541 L831 519 C837 360 735 235 582 225 L582 650 L861 827 L794 931 L582 795 L582 903 L867 1083 L800 1187 L582 1048 L582 1330 L316 1330 L316 882 L109 751 L174 647 Z " />
<glyph glyph-name="afii61289" unicode="&#x2113;" horiz-adv-x="831" d="M360 472 C541 575 765 750 765 1001 C765 1211 640 1350 434 1350 C212 1350 96 1201 95 975 L95 335 C95 84 251 -20 473 -20 C611 -20 722 33 762 61 L711 244 C674 227 596 193 511 193 C410 193 349 241 349 364 L349 421 L360 472 Z M349 983 C349 1098 378 1154 440 1154 C494 1154 519 1097 519 1019 C519 864 437 768 349 699 L349 983 Z " />
<glyph glyph-name="trademark" unicode="&#x2122;" horiz-adv-x="784" d="M41 1267 L122 1267 L122 1024 L217 1024 L217 1267 L297 1267 L297 1350 L41 1350 L41 1267 Z M335 1024 L431 1024 L431 1250 L500 1024 L579 1024 L647 1250 L647 1024 L743 1024 L743 1350 L591 1350 L539 1142 L488 1350 L335 1350 L335 1024 Z " />
<glyph glyph-name="estimated" unicode="&#x212e;" horiz-adv-x="1829" d="M1676 632 L1676 654 C1676 1033 1334 1350 914 1350 C496 1350 154 1043 154 664 C154 284 486 -20 914 -20 C1169 -20 1382 88 1517 247 L1407 247 C1286 120 1114 52 916 52 C735 52 565 108 450 227 C439 240 433 255 433 271 L433 622 C433 629 436 632 443 632 L1676 632 Z M1396 711 C1396 703 1393 699 1388 699 L443 699 C436 699 433 703 433 711 L433 1057 C433 1076 439 1092 452 1105 C568 1222 733 1278 916 1278 C1095 1278 1262 1220 1377 1105 C1390 1093 1396 1080 1396 1061 L1396 711 Z " />
<glyph glyph-name="ornm17.ornm" unicode="&#x2190;" horiz-adv-x="1842" d="M1698 771 L538 771 L945 1176 L800 1321 L144 665 L800 9 L944 153 L537 560 L1698 560 L1698 771 Z " />
<glyph glyph-name="arrowup" unicode="&#x2191;" horiz-adv-x="1599" d="M905 -226 L905 894 L1310 489 L1455 634 L799 1290 L144 634 L288 489 L695 897 L695 -226 L905 -226 Z " />
<glyph glyph-name="ornm18.ornm" unicode="&#x2192;" horiz-adv-x="1842" d="M156 560 L1318 560 L910 153 L1055 9 L1711 665 L1055 1321 L910 1176 L1315 771 L156 771 L156 560 Z " />
<glyph glyph-name="arrowdown" unicode="&#x2193;" horiz-adv-x="1599" d="M695 1290 L695 167 L288 575 L144 430 L799 -226 L1455 430 L1310 575 L905 169 L905 1290 L695 1290 Z " />
<glyph glyph-name="ornm19.ornm" unicode="&#x2196;" horiz-adv-x="1496" d="M418 387 L418 962 L1204 177 L1353 326 L567 1111 L1141 1111 L1141 1315 L214 1315 L214 387 L418 387 Z " />
<glyph glyph-name="ornm20.ornm" unicode="&#x2197;" horiz-adv-x="1496" d="M305 177 L1091 962 L1091 387 L1295 387 L1295 1315 L368 1315 L368 1111 L942 1111 L156 326 L305 177 Z " />
<glyph glyph-name="ornm22.ornm" unicode="&#x2198;" horiz-adv-x="1496" d="M156 964 L942 179 L368 179 L368 -25 L1295 -25 L1295 903 L1091 903 L1091 328 L305 1113 L156 964 Z " />
<glyph glyph-name="ornm21.ornm" unicode="&#x2199;" horiz-adv-x="1496" d="M187 903 L187 -25 L1115 -25 L1115 179 L541 179 L1326 964 L1177 1113 L392 328 L392 903 L187 903 Z " />
<glyph glyph-name="partialdiff" unicode="&#x2202;" horiz-adv-x="1246" d="M562 1135 C770 1135 877 996 886 782 C840 815 751 851 639 851 C314 851 105 644 105 366 C105 109 306 -20 565 -20 C1002 -20 1156 331 1156 698 C1156 1044 1008 1350 578 1350 C410 1350 267 1282 237 1263 L303 1081 C340 1097 448 1135 562 1135 L562 1135 Z M564 181 C445 181 380 257 380 367 C380 533 486 650 640 650 C742 650 833 609 874 566 C847 328 741 181 564 181 L564 181 Z " />
<glyph glyph-name="product" unicode="&#x220f;" horiz-adv-x="1436" d="M1033 -155 L1299 -155 L1299 1485 L137 1485 L137 -155 L404 -155 L404 1267 L1033 1267 L1033 -155 Z " />
<glyph glyph-name="summation" unicode="&#x2211;" horiz-adv-x="1209" d="M1101 1484 L108 1484 L108 1283 L513 665 L101 46 L101 -155 L1109 -155 L1109 62 L389 62 L796 665 L397 1267 L1101 1267 L1101 1484 Z " />
<glyph glyph-name="minus" unicode="&#x2212;" horiz-adv-x="1075" d="M152 559 L923 559 L923 770 L152 770 L152 559 Z " />
<glyph glyph-name="uni2215" unicode="&#x2215;" horiz-adv-x="1170" d="M1010 1357 L17 81 L160 -20 L1153 1255 L1010 1357 Z " />
<glyph glyph-name="bulletoperator" unicode="&#x2219;" horiz-adv-x="430" d="M91 505 C91 415 153 359 238 359 C333 359 399 415 399 520 C399 610 336 665 252 665 C157 665 91 609 91 505 L91 505 Z " />
<glyph glyph-name="radical" unicode="&#x221a;" horiz-adv-x="1444" d="M39 672 L311 672 L612 0 L840 0 L1436 1485 L1163 1485 L721 343 L492 888 L39 888 L39 672 Z " />
<glyph glyph-name="infinity" unicode="&#x221e;" horiz-adv-x="1818" d="M909 520 C999 428 1107 338 1250 324 C1294 319 1337 320 1380 326 C1562 352 1689 477 1689 665 C1689 854 1562 977 1380 1003 C1337 1009 1294 1010 1250 1006 C1107 991 999 901 909 809 C818 901 711 991 568 1006 C524 1010 481 1009 437 1003 C256 977 129 854 129 665 C129 477 256 352 437 326 C481 320 524 319 568 324 C711 338 818 428 909 520 L909 520 Z M1033 665 C1121 756 1201 821 1290 821 C1385 821 1460 762 1460 665 C1460 568 1385 508 1290 508 C1201 508 1121 573 1033 665 L1033 665 Z M527 508 C433 508 358 568 358 665 C358 762 433 821 527 821 C617 821 697 756 785 665 C697 573 617 508 527 508 L527 508 Z " />
<glyph glyph-name="integral" unicode="&#x222b;" horiz-adv-x="851" d="M326 195 C333 86 276 34 184 34 C128 34 78 48 50 57 L7 -137 C52 -154 119 -175 220 -175 C426 -175 568 -58 585 116 C588 150 589 184 586 220 L525 1135 C518 1244 576 1295 667 1295 C723 1295 773 1282 801 1273 L844 1467 C799 1483 732 1505 631 1505 C425 1505 283 1388 266 1214 C263 1180 262 1145 265 1110 L326 195 Z " />
<glyph glyph-name="approxequal" unicode="&#x2248;" horiz-adv-x="1109" d="M228 474 C264 501 331 546 395 546 C494 546 580 479 695 479 C810 479 910 534 977 613 L939 675 C953 688 966 702 978 717 L894 855 C854 829 784 786 707 786 C607 786 520 853 404 853 C290 853 191 798 125 711 L167 641 L144 613 L228 474 Z " />
<glyph glyph-name="notequal" unicode="&#x2260;" horiz-adv-x="1224" d="M152 735 L571 735 L488 597 L152 597 L152 386 L357 386 L228 176 L343 113 L510 386 L1071 386 L1071 597 L642 597 L725 735 L1071 735 L1071 945 L856 945 L984 1154 L869 1217 L703 945 L152 945 L152 735 Z " />
<glyph glyph-name="lessequal" unicode="&#x2264;" horiz-adv-x="1050" d="M747 1317 L136 836 L747 356 L881 514 L468 836 L881 1159 L747 1317 Z M149 35 L885 35 L885 233 L149 233 L149 35 Z " />
<glyph glyph-name="greaterequal" unicode="&#x2265;" horiz-adv-x="1050" d="M302 356 L914 836 L302 1317 L169 1159 L581 836 L169 514 L302 356 Z M165 35 L901 35 L901 233 L165 233 L165 35 Z " />
<glyph glyph-name="ornm39.ornm" unicode="&#x2460;" horiz-adv-x="1657" d="M144 665 C144 287 451 -20 829 -20 C1207 -20 1514 287 1514 665 C1514 1043 1207 1350 829 1350 C451 1350 144 1043 144 665 L144 665 Z M346 665 C346 933 561 1148 829 1148 C1097 1148 1311 933 1311 665 C1311 397 1097 182 829 182 C561 182 346 397 346 665 L346 665 Z M624 492 L624 353 L1038 353 L1038 492 L929 494 L929 985 L875 985 C824 977 669 962 619 958 L634 824 C669 826 717 830 751 833 L751 495 L624 492 Z " />
<glyph glyph-name="ornm40.ornm" unicode="&#x2461;" horiz-adv-x="1657" d="M601 353 L1051 353 L1051 495 L827 495 C954 626 1031 704 1031 802 C1031 903 951 985 809 985 C718 985 641 949 601 924 L661 805 C688 820 731 839 778 839 C819 839 845 815 845 776 C845 725 786 652 601 459 L601 353 Z M144 665 C144 287 451 -20 829 -20 C1207 -20 1514 287 1514 665 C1514 1043 1207 1350 829 1350 C451 1350 144 1043 144 665 L144 665 Z M346 665 C346 933 561 1148 829 1148 C1097 1148 1311 933 1311 665 C1311 397 1097 182 829 182 C561 182 346 397 346 665 L346 665 Z " />
<glyph glyph-name="ornm41.ornm" unicode="&#x2462;" horiz-adv-x="1657" d="M865 784 C865 757 849 738 835 730 L711 730 L711 607 L803 607 C855 607 882 582 882 542 C882 507 851 490 802 490 C745 490 692 511 663 524 L612 397 C645 376 719 344 803 344 C965 344 1060 424 1060 539 C1060 602 1023 652 972 680 C1012 709 1042 752 1042 802 C1042 895 968 985 817 985 C740 985 658 955 618 930 L673 810 C696 820 744 838 794 838 C840 838 865 817 865 784 L865 784 Z M144 665 C144 287 451 -20 829 -20 C1207 -20 1514 287 1514 665 C1514 1043 1207 1350 829 1350 C451 1350 144 1043 144 665 L144 665 Z M346 665 C346 933 561 1148 829 1148 C1097 1148 1311 933 1311 665 C1311 397 1097 182 829 182 C561 182 346 397 346 665 L346 665 Z " />
<glyph glyph-name="ornm42.ornm" unicode="&#x2463;" horiz-adv-x="1657" d="M535 594 L535 482 L794 482 L794 353 L962 353 L962 482 L1059 482 L1059 617 L962 617 L962 975 L810 975 L535 594 Z M714 618 L801 741 L801 618 L714 618 Z M144 665 C144 287 451 -20 829 -20 C1207 -20 1514 287 1514 665 C1514 1043 1207 1350 829 1350 C451 1350 144 1043 144 665 L144 665 Z M346 665 C346 933 561 1148 829 1148 C1097 1148 1311 933 1311 665 C1311 397 1097 182 829 182 C561 182 346 397 346 665 L346 665 Z " />
<glyph glyph-name="ornm43.ornm" unicode="&#x2464;" horiz-adv-x="1657" d="M870 556 C870 512 832 490 781 490 C726 490 682 502 647 515 L606 385 C628 372 697 344 789 344 C949 344 1052 429 1053 555 C1053 671 974 739 850 749 C835 751 817 751 801 751 C801 778 802 806 803 833 L1021 833 L1021 975 L642 975 L629 620 C641 623 700 631 778 631 C834 631 870 604 870 556 L870 556 Z M144 665 C144 287 451 -20 829 -20 C1207 -20 1514 287 1514 665 C1514 1043 1207 1350 829 1350 C451 1350 144 1043 144 665 L144 665 Z M346 665 C346 933 561 1148 829 1148 C1097 1148 1311 933 1311 665 C1311 397 1097 182 829 182 C561 182 346 397 346 665 L346 665 Z " />
<glyph glyph-name="ornm44.ornm" unicode="&#x2465;" horiz-adv-x="1657" d="M863 839 C925 839 972 823 990 817 L1024 950 C1008 958 945 984 863 984 C645 984 566 832 566 642 C566 453 648 344 810 344 C961 344 1048 432 1048 561 C1048 691 949 748 824 748 C786 748 754 739 743 732 C751 790 793 839 863 839 L863 839 Z M814 490 C759 490 742 541 742 608 C755 619 777 629 808 629 C844 629 874 608 874 561 C874 519 854 490 814 490 L814 490 Z M144 665 C144 287 451 -20 829 -20 C1207 -20 1514 287 1514 665 C1514 1043 1207 1350 829 1350 C451 1350 144 1043 144 665 L144 665 Z M346 665 C346 933 561 1148 829 1148 C1097 1148 1311 933 1311 665 C1311 397 1097 182 829 182 C561 182 346 397 346 665 L346 665 Z " />
<glyph glyph-name="ornm45.ornm" unicode="&#x2466;" horiz-adv-x="1657" d="M1067 975 L611 975 L621 736 L762 736 L765 833 L885 833 L680 353 L865 353 L1067 835 L1067 975 Z M144 665 C144 287 451 -20 829 -20 C1207 -20 1514 287 1514 665 C1514 1043 1207 1350 829 1350 C451 1350 144 1043 144 665 L144 665 Z M346 665 C346 933 561 1148 829 1148 C1097 1148 1311 933 1311 665 C1311 397 1097 182 829 182 C561 182 346 397 346 665 L346 665 Z " />
<glyph glyph-name="ornm46.ornm" unicode="&#x2467;" horiz-adv-x="1657" d="M827 344 C955 344 1067 413 1067 534 C1067 595 1020 647 972 676 C1018 700 1057 743 1057 809 C1057 917 944 985 833 985 C713 985 604 916 604 800 C604 736 647 695 690 670 C643 643 596 591 596 525 C596 410 705 344 827 344 L827 344 Z M772 792 C772 819 795 843 829 843 C865 843 889 821 889 788 C889 761 862 733 832 723 C799 734 772 760 772 792 L772 792 Z M900 543 C900 511 870 486 833 486 C790 486 761 510 761 546 C761 579 796 614 828 627 C860 615 900 580 900 543 L900 543 Z M144 665 C144 287 451 -20 829 -20 C1207 -20 1514 287 1514 665 C1514 1043 1207 1350 829 1350 C451 1350 144 1043 144 665 L144 665 Z M346 665 C346 933 561 1148 829 1148 C1097 1148 1311 933 1311 665 C1311 397 1097 182 829 182 C561 182 346 397 346 665 L346 665 Z " />
<glyph glyph-name="ornm47.ornm" unicode="&#x2468;" horiz-adv-x="1657" d="M144 665 C144 287 451 -20 829 -20 C1207 -20 1514 287 1514 665 C1514 1043 1207 1350 829 1350 C451 1350 144 1043 144 665 L144 665 Z M791 489 C725 489 678 507 660 513 L624 382 C640 372 705 344 791 344 C1012 344 1084 496 1084 686 C1084 875 1002 984 840 984 C689 984 602 896 602 767 C602 637 701 580 826 580 C864 580 896 589 907 596 C901 542 865 489 791 489 L791 489 Z M836 838 C891 838 908 787 908 719 C895 709 873 699 842 699 C806 699 776 720 776 767 C776 809 796 838 836 838 L836 838 Z M346 665 C346 933 561 1148 829 1148 C1097 1148 1311 933 1311 665 C1311 397 1097 182 829 182 C561 182 346 397 346 665 L346 665 Z " />
<glyph glyph-name="ornm38.ornm" unicode="&#x24ea;" horiz-adv-x="1657" d="M831 490 C773 490 737 558 737 667 C737 777 774 840 827 840 C885 840 923 770 923 660 C923 551 885 490 831 490 L831 490 Z M827 344 C1009 344 1103 486 1103 667 C1103 849 1016 985 831 985 C649 985 555 842 555 660 C555 479 642 344 827 344 L827 344 Z M144 665 C144 287 451 -20 829 -20 C1207 -20 1514 287 1514 665 C1514 1043 1207 1350 829 1350 C451 1350 144 1043 144 665 L144 665 Z M346 665 C346 933 561 1148 829 1148 C1097 1148 1311 933 1311 665 C1311 397 1097 182 829 182 C561 182 346 397 346 665 L346 665 Z " />
<glyph glyph-name="ornm69.ornm" unicode="&#x24ff;" horiz-adv-x="1657" d="M831 490 C885 490 923 551 923 660 C923 770 885 840 827 840 C774 840 737 777 737 667 C737 558 773 490 831 490 L831 490 Z M827 344 C642 344 555 479 555 660 C555 842 649 985 831 985 C1016 985 1103 849 1103 667 C1103 486 1009 344 827 344 L827 344 Z M144 665 C144 287 451 -20 829 -20 C1207 -20 1514 287 1514 665 C1514 1043 1207 1350 829 1350 C451 1350 144 1043 144 665 L144 665 Z " />
<glyph glyph-name="lozenge" unicode="&#x25ca;" horiz-adv-x="1295" d="M1255 665 L744 1330 L550 1330 L40 665 L550 0 L744 0 L1255 665 Z M960 665 L647 244 L336 665 L647 1086 L960 665 Z " />
<glyph glyph-name="ornm70.ornm" unicode="&#x2776;" horiz-adv-x="1657" d="M144 665 C144 287 451 -20 829 -20 C1207 -20 1514 287 1514 665 C1514 1043 1207 1350 829 1350 C451 1350 144 1043 144 665 L144 665 Z M751 495 L751 833 C717 830 669 826 634 824 L619 958 C669 962 824 977 875 985 L929 985 L929 494 L1038 492 L1038 353 L624 353 L624 492 L751 495 Z " />
<glyph glyph-name="ornm71.ornm" unicode="&#x2777;" horiz-adv-x="1657" d="M601 459 C786 652 845 725 845 776 C845 815 819 839 778 839 C731 839 688 820 661 805 L601 924 C641 949 718 985 809 985 C951 985 1031 903 1031 802 C1031 704 954 626 827 495 L1051 495 L1051 353 L601 353 L601 459 Z M144 665 C144 287 451 -20 829 -20 C1207 -20 1514 287 1514 665 C1514 1043 1207 1350 829 1350 C451 1350 144 1043 144 665 L144 665 Z " />
<glyph glyph-name="ornm72.ornm" unicode="&#x2778;" horiz-adv-x="1657" d="M865 784 C865 818 840 838 794 838 C744 838 696 820 673 810 L618 930 C658 955 741 985 817 985 C968 985 1042 895 1042 802 C1042 752 1012 709 972 680 C1023 652 1060 602 1060 539 C1060 424 965 344 803 344 C719 344 645 376 612 397 L663 524 C692 511 745 490 802 490 C850 490 882 507 882 542 C882 582 855 607 803 607 L711 607 L711 730 L835 730 C849 738 865 757 865 784 L865 784 Z M144 665 C144 287 451 -20 829 -20 C1207 -20 1514 287 1514 665 C1514 1043 1207 1350 829 1350 C451 1350 144 1043 144 665 L144 665 Z " />
<glyph glyph-name="ornm73.ornm" unicode="&#x2779;" horiz-adv-x="1657" d="M810 975 L962 975 L962 617 L1059 617 L1059 482 L962 482 L962 353 L794 353 L794 482 L535 482 L535 594 L810 975 Z M801 618 L801 741 L714 618 L801 618 Z M144 665 C144 287 451 -20 829 -20 C1207 -20 1514 287 1514 665 C1514 1043 1207 1350 829 1350 C451 1350 144 1043 144 665 L144 665 Z " />
<glyph glyph-name="ornm74.ornm" unicode="&#x277a;" horiz-adv-x="1657" d="M870 556 C870 604 834 631 778 631 C700 631 641 623 629 620 L642 975 L1021 975 L1021 833 L803 833 C802 806 801 778 801 751 C817 751 835 751 850 749 C974 739 1053 671 1053 555 C1052 429 949 344 789 344 C697 344 628 372 606 385 L647 515 C682 502 726 490 781 490 C832 490 870 512 870 556 L870 556 Z M144 665 C144 287 451 -20 829 -20 C1207 -20 1514 287 1514 665 C1514 1043 1207 1350 829 1350 C451 1350 144 1043 144 665 L144 665 Z " />
<glyph glyph-name="ornm75.ornm" unicode="&#x277b;" horiz-adv-x="1657" d="M863 839 C793 839 751 790 743 732 C754 739 786 748 824 748 C949 748 1048 691 1048 561 C1048 432 961 344 810 344 C648 344 566 453 566 642 C566 832 645 984 863 984 C945 984 1008 958 1024 950 L990 817 C972 823 925 839 863 839 L863 839 Z M814 490 C854 490 874 519 874 561 C874 608 844 629 808 629 C777 629 755 619 742 608 C742 541 759 490 814 490 L814 490 Z M144 665 C144 287 451 -20 829 -20 C1207 -20 1514 287 1514 665 C1514 1043 1207 1350 829 1350 C451 1350 144 1043 144 665 L144 665 Z " />
<glyph glyph-name="ornm76.ornm" unicode="&#x277c;" horiz-adv-x="1657" d="M1067 835 L865 353 L680 353 L885 833 L765 833 L762 736 L621 736 L611 975 L1067 975 L1067 835 Z M144 665 C144 287 451 -20 829 -20 C1207 -20 1514 287 1514 665 C1514 1043 1207 1350 829 1350 C451 1350 144 1043 144 665 L144 665 Z " />
<glyph glyph-name="ornm77.ornm" unicode="&#x277d;" horiz-adv-x="1657" d="M827 344 C705 344 596 410 596 525 C596 591 643 643 690 670 C647 695 604 736 604 800 C604 916 713 985 833 985 C944 985 1057 917 1057 809 C1057 743 1018 700 972 676 C1020 647 1067 595 1067 534 C1067 413 955 344 827 344 L827 344 Z M772 792 C772 760 799 734 832 723 C862 733 889 761 889 788 C889 821 865 843 829 843 C795 843 772 819 772 792 L772 792 Z M900 543 C900 580 860 615 828 627 C796 614 761 579 761 546 C761 510 790 486 833 486 C870 486 900 511 900 543 L900 543 Z M144 665 C144 287 451 -20 829 -20 C1207 -20 1514 287 1514 665 C1514 1043 1207 1350 829 1350 C451 1350 144 1043 144 665 L144 665 Z " />
<glyph glyph-name="ornm78.ornm" unicode="&#x277e;" horiz-adv-x="1657" d="M144 665 C144 287 451 -20 829 -20 C1207 -20 1514 287 1514 665 C1514 1043 1207 1350 829 1350 C451 1350 144 1043 144 665 L144 665 Z M791 489 C865 489 901 542 907 596 C896 589 864 580 826 580 C701 580 602 637 602 767 C602 896 689 984 840 984 C1002 984 1084 875 1084 686 C1084 496 1012 344 791 344 C705 344 640 372 624 382 L660 513 C678 507 725 489 791 489 L791 489 Z M836 838 C796 838 776 809 776 767 C776 720 806 699 842 699 C873 699 895 709 908 719 C908 787 891 838 836 838 L836 838 Z " />
<glyph glyph-name="ff" unicode="&#xfb00;" horiz-adv-x="1274" d="M1024 1102 C1024 1219 1078 1270 1182 1270 C1239 1270 1291 1257 1319 1248 L1362 1442 C1317 1458 1246 1480 1146 1480 C904 1480 768 1335 768 1118 L768 1024 L421 1024 L421 1102 C421 1217 472 1270 566 1270 C616 1270 668 1260 685 1255 L728 1449 C698 1460 621 1480 536 1480 C299 1480 165 1331 165 1118 L165 1015 L11 1005 L11 825 L161 825 L161 -396 L426 -396 L426 825 L764 825 L764 0 L1030 0 L1030 825 L1269 825 L1269 1024 L1024 1024 L1024 1102 Z " />
<glyph glyph-name="fi" unicode="&#xfb01;" horiz-adv-x="1142" d="M421 1093 C421 1222 508 1270 655 1270 C766 1270 861 1249 899 1239 L948 1433 C910 1447 796 1480 637 1480 C335 1480 165 1330 165 1108 L165 1015 L11 1005 L11 825 L161 825 L161 -396 L426 -396 L426 825 L739 825 L739 0 L1005 0 L1005 1024 L421 1024 L421 1093 Z " />
<glyph glyph-name="fl" unicode="&#xfb02;" horiz-adv-x="1188" d="M421 1083 C421 1222 510 1270 645 1270 C699 1270 749 1263 785 1257 L785 0 L1050 0 L1050 1423 C1006 1436 830 1480 658 1480 C345 1480 165 1327 165 1099 L165 1015 L11 1005 L11 825 L161 825 L161 -396 L426 -396 L426 825 L627 825 L627 1024 L421 1024 L421 1083 Z " />
<glyph glyph-name="ffi" unicode="&#xfb03;" horiz-adv-x="1746" d="M421 1102 C421 1216 471 1270 566 1270 C616 1270 668 1260 685 1255 L728 1449 C698 1460 621 1480 536 1480 C299 1480 165 1332 165 1118 L165 1015 L11 1005 L11 825 L161 825 L161 -396 L426 -396 L426 825 L764 825 L764 -396 L1030 -396 L1030 825 L1343 825 L1343 0 L1608 0 L1608 1024 L1024 1024 L1024 1093 C1024 1222 1111 1270 1258 1270 C1369 1270 1465 1249 1503 1239 L1552 1433 C1513 1447 1400 1480 1241 1480 C938 1480 768 1330 768 1108 L768 1024 L421 1024 L421 1102 Z " />
<glyph glyph-name="ffl" unicode="&#xfb04;" horiz-adv-x="1791" d="M1024 1083 C1024 1222 1114 1270 1248 1270 C1302 1270 1352 1263 1388 1257 L1388 0 L1654 0 L1654 1423 C1609 1436 1433 1480 1262 1480 C949 1480 768 1327 768 1099 L768 1024 L421 1024 L421 1102 C421 1217 472 1270 566 1270 C616 1270 668 1260 685 1255 L728 1449 C698 1460 621 1480 536 1480 C299 1480 165 1331 165 1118 L165 1015 L11 1005 L11 825 L161 825 L161 -396 L426 -396 L426 825 L764 825 L764 0 L1030 0 L1030 825 L1231 825 L1231 1024 L1024 1024 L1024 1083 Z " />
<glyph glyph-name="s_t" unicode="&#xfb06;" horiz-adv-x="1587" d="M1244 1480 L883 1480 C599 1480 448 1337 448 1163 C448 1115 457 1076 474 1041 C443 1042 413 1040 382 1036 C204 1013 78 899 78 725 C78 582 157 488 321 428 L397 400 C492 364 559 334 559 272 C559 222 516 200 448 193 C422 190 393 189 362 192 C269 199 181 229 130 254 L74 57 C152 17 272 -20 429 -20 C683 -20 809 96 809 280 C809 429 728 519 567 580 L486 612 C371 656 328 687 328 744 C328 811 398 836 471 836 C510 836 548 829 582 822 C610 789 644 754 685 729 L840 884 C758 954 696 1030 696 1127 C696 1221 754 1290 878 1290 L981 1290 L981 321 C981 83 1082 -20 1321 -20 C1403 -20 1505 1 1558 23 L1524 219 C1494 208 1434 196 1383 196 C1287 196 1247 237 1247 352 L1247 825 L1520 825 L1520 1024 L1244 1024 L1244 1480 Z " />
</font>
</svg>
