<?xml version="1.0" standalone="no"?>
<!DOCTYPE svg PUBLIC "-//W3C//DTD SVG 1.1//EN" "http://www.w3.org/Graphics/SVG/1.1/DTD/svg11.dtd" >
<svg xmlns="http://www.w3.org/2000/svg">
<metadata></metadata>
<defs>
<font id="libertadextrabold" horiz-adv-x="558" >
<font-face units-per-em="2048" ascent="1638" descent="-410" />
<missing-glyph horiz-adv-x="430" />
<glyph unicode="&#x31;&#x2f;&#x34;" horiz-adv-x="1399" d="M80 1307q30 4 64.5 9t70 10.5t71 11.5t66.5 12h115v-413l129 -4v-182h-512v182l151 4v202q-11 -2 -29 -4.5t-37.5 -5t-38 -4.5t-31.5 -3zM124 97l1021 1263l164 -117l-1021 -1263zM677 90v137l268 352h206v-336h88v-153h-88v-90h-216v90h-258zM867 243h68v93z" />
<glyph unicode="&#x31;&#x2f;&#x32;" horiz-adv-x="1408" d="M80 1307q30 4 64.5 9t70 10.5t71 11.5t66.5 12h115v-413l129 -4v-182h-512v182l151 4v202q-11 -2 -29 -4.5t-37.5 -5t-38 -4.5t-31.5 -3zM124 97l1021 1263l164 -117l-1021 -1263zM848 543q9 7 31 16.5t51.5 18.5t65.5 15t74 6q65 0 112 -15t77 -42t44.5 -64t14.5 -81 q0 -39 -14 -71t-40 -57.5t-61.5 -45.5t-79.5 -37h214v-186h-487v176q55 29 98 52t72 43t44.5 40t15.5 42q0 24 -12.5 37.5t-37.5 13.5q-21 0 -41.5 -4t-39 -9t-33.5 -11t-24 -10z" />
<glyph unicode="&#x33;&#x2f;&#x34;" horiz-adv-x="1365" d="M90 97l1021 1263l164 -117l-1021 -1263zM106 769l36 157q16 -6 51.5 -15.5t83.5 -9.5q42 0 60.5 9.5t18.5 30.5q0 39 -53 39h-101v124h118q5 5 10 13.5t5 20.5q0 17 -15.5 29.5t-53.5 12.5q-34 0 -66 -8t-52 -18l-36 154q8 5 26 12t43.5 14t58 11.5t69.5 4.5 q131 0 194 -46t63 -126q0 -27 -7.5 -46.5t-18 -34t-23 -24.5t-22.5 -17q11 -6 26.5 -16.5t29.5 -27t23.5 -39.5t9.5 -54q0 -95 -73.5 -141.5t-211.5 -46.5q-28 0 -58.5 4t-57 9.5t-47 12t-30.5 12.5zM643 90v137l268 352h206v-336h88v-153h-88v-90h-216v90h-258zM833 243h68 v93z" />
<glyph unicode="&#xfb01;" horiz-adv-x="1164" d="M0 786v218l140 9v80q0 86 32 157t96 122t159 79.5t221 28.5q68 0 122 -5.5t95.5 -13t69.5 -15.5t44 -14l-60 -234q-13 3 -37 8t-55.5 9.5t-69 8t-77.5 3.5q-49 0 -89.5 -7t-69 -24t-44 -45.5t-15.5 -71.5v-55h587v-1024h-328v786h-255v-1182h-328v1182h-138z" />
<glyph unicode="&#xfb02;" horiz-adv-x="1213" d="M0 786v218l140 9v80q0 86 35.5 157t104 122t168.5 79.5t230 28.5q68 0 136 -8t126 -18t100.5 -20t57.5 -15v-1419h-328v1219q-26 3 -54 5.5t-56 2.5q-42 0 -78 -7t-62.5 -24t-42 -45.5t-15.5 -71.5v-55h182v-238h-178v-1182h-328v1182h-138z" />
<glyph unicode="&#xfb03;" horiz-adv-x="1781" d="M0 786v218l140 9v90q0 83 24.5 152.5t73.5 119.5t121.5 77.5t168.5 27.5q35 0 68 -3.5t60 -8.5t47.5 -10t30.5 -9l-50 -234q-6 2 -37 7t-67 5q-57 0 -87.5 -32.5t-30.5 -107.5v-63h295v69q0 86 32 157t96 122t159 79.5t221 28.5q68 0 122 -5.5t95.5 -13t69.5 -15.5 t44 -14l-60 -234q-13 3 -37 8t-55.5 9.5t-69 8t-77.5 3.5q-49 0 -89.5 -7t-69 -24t-44 -45.5t-15.5 -71.5v-55h587v-1024h-328v786h-255v-1182h-328v1182h-289v-1182h-328v1182h-138z" />
<glyph unicode="&#xfb04;" horiz-adv-x="1830" d="M0 786v218l140 9v90q0 83 24.5 152.5t73.5 119.5t121.5 77.5t168.5 27.5q35 0 68 -3.5t60 -8.5t47.5 -10t30.5 -9l-50 -234q-6 2 -37 7t-67 5q-57 0 -87.5 -32.5t-30.5 -107.5v-63h295v69q0 86 35.5 157t104 122t168.5 79.5t230 28.5q68 0 136 -8t126 -18t100.5 -20 t57.5 -15v-1419h-328v1219q-26 3 -54 5.5t-56 2.5q-42 0 -78 -7t-62.5 -24t-42 -45.5t-15.5 -71.5v-55h182v-238h-178v-786h-328v786h-289v-1182h-328v1182h-138z" />
<glyph horiz-adv-x="0" />
<glyph unicode="&#xd;" horiz-adv-x="430" />
<glyph unicode=" "  horiz-adv-x="430" />
<glyph unicode="&#x09;" horiz-adv-x="430" />
<glyph unicode="&#xa0;" horiz-adv-x="430" />
<glyph unicode="!" horiz-adv-x="518" d="M80 149q0 95 51.5 141t136.5 46q75 0 122.5 -43.5t47.5 -125.5q0 -96 -51.5 -141.5t-136.5 -45.5q-75 0 -122.5 43.5t-47.5 125.5zM85 1330h348l-50 -884h-248z" />
<glyph unicode="&#x22;" horiz-adv-x="780" d="M50 1509h300l-43 -597h-214zM430 1509h300l-43 -597h-214z" />
<glyph unicode="#" horiz-adv-x="1534" d="M110 323l33 227h223l33 232h-223l32 227h224l47 321h261l-47 -321h213l47 321h261l-47 -321h217l-32 -227h-217l-34 -232h217l-32 -227h-218l-46 -323h-262l47 323h-213l-46 -323h-262l47 323h-223zM627 550h213l33 232h-212z" />
<glyph unicode="$" horiz-adv-x="1172" d="M180 913q0 65 22.5 120.5t63.5 99t98 74t126 45.5l-25 244h260l-24 -234q53 -6 95.5 -17t75.5 -23.5t57 -25t40 -21.5l-52 -235q-23 11 -55 22.5t-68.5 21.5t-75 16.5t-76.5 6.5q-39 0 -66 -6.5t-43.5 -18t-23.5 -26t-8 -30.5q-1 -43 24.5 -66t65.5 -42l170 -79 q66 -31 113.5 -65.5t78 -75t45 -88t14.5 -106.5q0 -134 -80 -217.5t-234 -109.5l25 -243h-260l23 234q-52 4 -99 14t-86 23t-69 28t-49 30l60 235q15 -9 42.5 -21.5t65 -24t82.5 -20t94 -8.5q74 0 117 14t43 52t-24 63.5t-86 55.5l-151 67q-57 26 -103 57.5t-77.5 72 t-48.5 91.5t-17 116z" />
<glyph unicode="%" horiz-adv-x="1462" d="M45 1034q0 73 23.5 131.5t66.5 99.5t103.5 63t134.5 22q70 0 128 -22t99.5 -62.5t64.5 -96t23 -123.5q0 -73 -23.5 -131t-66 -99t-103 -63t-135.5 -22q-69 0 -127 22t-100 62t-65 96t-23 123zM139 97l1021 1263l164 -117l-1021 -1263zM289 1043q0 -51 19 -83t61 -32 q37 0 56 31t19 78q0 51 -19.5 83t-61.5 32q-37 0 -55.5 -31t-18.5 -78zM774 283q0 73 23.5 131.5t66.5 99.5t103.5 63t134.5 22q70 0 128 -22t99.5 -62.5t64.5 -96t23 -123.5q0 -73 -23.5 -131t-66 -99t-103 -63t-135.5 -22q-69 0 -127 22t-100 62t-65 96t-23 123zM1018 292 q0 -51 19 -83t61 -32q37 0 56 31t19 78q0 51 -19.5 83t-61.5 32q-37 0 -55.5 -31t-18.5 -78z" />
<glyph unicode="&#x26;" horiz-adv-x="1409" d="M50 367q0 52 18.5 101t51 93t77 80.5t96.5 62.5q-47 50 -78.5 90t-50.5 76t-27 69.5t-8 69.5q0 74 32.5 136t90 108t137.5 71.5t175 25.5q89 0 165.5 -24.5t132 -68t87 -102t31.5 -126.5q0 -21 -4.5 -41t-10.5 -37t-12.5 -29.5t-11.5 -18.5h428v-238h-230q14 -21 31 -71 t17 -118q0 -41 -8.5 -77.5t-21 -67.5t-27 -55t-26.5 -41l191 -200l-190 -183l-194 204q-25 -13 -59 -27t-75.5 -24.5t-88 -17.5t-96.5 -7q-130 0 -231 29.5t-170 81.5t-105 123t-36 153zM368 392q0 -37 16 -68.5t46.5 -55t75.5 -37t103 -13.5q35 0 68.5 7.5t53.5 18.5 l-290 304q-30 -28 -51.5 -66t-21.5 -90zM427 1009q0 -21 4 -38t13.5 -33.5t25.5 -35t40 -43.5l401 -422q6 20 9 50.5t1 62.5t-10 63t-24 52h-93l-171 191q12 12 24 26.5t22 32t16.5 38.5t6.5 46q0 27 -11 48t-29 35.5t-42 22t-51 7.5q-60 0 -96 -29.5t-36 -73.5z" />
<glyph unicode="'" horiz-adv-x="400" d="M50 1509h300l-43 -597h-214z" />
<glyph unicode="(" horiz-adv-x="690" d="M55 655q0 141 25.5 262.5t66.5 223.5t92.5 185t103 146.5t98.5 106.5t79 66l165 -135q-51 -58 -106.5 -139t-101.5 -185.5t-76 -232.5t-30 -281q0 -159 30 -290t76 -236.5t101.5 -187t106.5 -139.5l-165 -135q-32 23 -79 66t-98.5 106t-103 144.5t-92.5 182t-66.5 218.5 t-25.5 254z" />
<glyph unicode=")" horiz-adv-x="690" d="M25 -181q51 58 106.5 139t101.5 185.5t76 232.5t30 281q0 159 -30 290t-76 236.5t-101.5 187t-106.5 139.5l165 135q32 -23 79 -66t98.5 -106t103 -144.5t92.5 -182t66.5 -218.5t25.5 -254q0 -140 -25.5 -262t-66.5 -224t-92.5 -185t-103 -146t-98.5 -106.5t-79 -66.5z " />
<glyph unicode="*" horiz-adv-x="844" d="M20 1129l75 241l222 -88l-20 240h250l-20 -240l222 88l75 -241l-226 -47l160 -159l-188 -162l-148 204l-148 -204l-188 162l160 159z" />
<glyph unicode="+" horiz-adv-x="1270" d="M130 536v257h377v376h257v-376h376v-257h-376v-375h-257v375h-377z" />
<glyph unicode="," horiz-adv-x="511" d="M30 -164q29 16 56.5 36t48.5 45.5t33.5 57t12.5 68.5q0 41 -12 75t-30 61.5t-38.5 49.5t-38.5 38l245 69q20 -15 43.5 -40.5t43.5 -60t33.5 -77t13.5 -92.5q0 -66 -22.5 -121t-62 -99t-94 -77.5t-119.5 -58.5z" />
<glyph unicode="-" horiz-adv-x="891" d="M115 404v257h661v-257h-661z" />
<glyph unicode="." horiz-adv-x="518" d="M80 149q0 95 51.5 141t136.5 46q75 0 122.5 -43.5t47.5 -125.5q0 -96 -51.5 -141.5t-136.5 -45.5q-75 0 -122.5 43.5t-47.5 125.5z" />
<glyph unicode="/" horiz-adv-x="960" d="M-50 -250l774 1835h316l-774 -1835h-316z" />
<glyph unicode="0" horiz-adv-x="1316" d="M65 661q0 152 40.5 279t118 218t188.5 141.5t252 50.5t250 -48.5t184 -138t114 -215t39 -279.5q0 -152 -40.5 -279t-118 -218t-188.5 -141.5t-252 -50.5t-250 49t-184 138t-114 214.5t-39 279.5zM413 676q0 -100 16 -181t47.5 -138t78.5 -88t108 -31q56 0 100 27.5 t75.5 80.5t48 130.5t16.5 177.5q0 101 -16.5 182t-48 138t-78 87.5t-107.5 30.5q-55 0 -99.5 -27.5t-76 -80.5t-48 -130.5t-16.5 -177.5z" />
<glyph unicode="1" horiz-adv-x="864" d="M0 0v268h279v787q-25 -3 -59 -6.5t-69.5 -6.5t-69 -5t-56.5 -3l-24 257q50 4 119 11t142.5 15t143 17t119.5 16h82v-1082h237v-268h-844z" />
<glyph unicode="2" horiz-adv-x="1044" d="M45 1241q12 8 48 25.5t89.5 36.5t121.5 33t144 14q119 0 206.5 -29t144.5 -81.5t84.5 -126t27.5 -162.5q0 -98 -40.5 -186t-106 -170.5t-148 -163t-166.5 -163.5h534v-268h-929v230q100 113 176.5 199t133 152t94.5 116.5t61 91.5t33 76t10 72t-12.5 63.5t-34 43.5 t-51 25t-62.5 8q-42 0 -83 -8t-76 -19t-63 -23t-44 -20z" />
<glyph unicode="3" horiz-adv-x="1058" d="M65 74l65 247q18 -9 46.5 -20.5t64 -22t76.5 -18t85 -7.5q51 0 92 6.5t70.5 21.5t45 40t15.5 62q0 79 -45.5 117.5t-142.5 38.5h-168v248h241q8 5 19 14t21 25t17.5 40t7.5 58q0 31 -6.5 59t-24 49t-47 33t-75.5 12q-40 0 -79 -8t-73.5 -19.5t-61.5 -24.5t-43 -23 l-92 234q12 8 47 26.5t87.5 38t119 34.5t140.5 15q120 0 206 -29.5t141.5 -81t82 -121.5t26.5 -150q0 -40 -14.5 -79.5t-38 -74t-53.5 -63t-62 -46.5q23 -8 60 -29t72 -58.5t60.5 -92.5t25.5 -131q0 -105 -40.5 -183t-111 -129t-166.5 -76.5t-208 -25.5q-76 0 -137.5 10 t-109 24t-81 30.5t-54.5 29.5z" />
<glyph unicode="4" horiz-adv-x="1093" d="M20 264v220l566 846h305v-808h172v-258h-172v-264h-328v264h-543zM352 522h211v317z" />
<glyph unicode="5" horiz-adv-x="1045" d="M55 71l60 247q24 -11 56.5 -22.5t69 -21t76.5 -15.5t80 -6q47 0 87 8t69.5 26.5t46.5 48.5t17 74q0 84 -49.5 128.5t-152.5 44.5q-83 0 -162 -6t-143 -11l27 764h761v-268h-448l-11 -220q8 1 24 2t39 1q102 0 187.5 -29t146.5 -83.5t95 -132.5t34 -176q0 -109 -37 -192 t-105.5 -139t-165 -84.5t-215.5 -28.5q-76 0 -136.5 8.5t-108 21.5t-82.5 29t-60 32z" />
<glyph unicode="6" horiz-adv-x="1129" d="M65 582q0 179 34.5 321t108 241.5t187 152.5t272.5 53q63 0 117.5 -8.5t98 -20t74 -24.5t45.5 -22l-63 -247q-13 5 -39.5 13.5t-61.5 16.5t-76 13.5t-84 5.5q-65 0 -112 -20.5t-78.5 -58t-48 -90.5t-21.5 -118q17 8 53 18.5t96 15.5q118 9 209.5 -16t154.5 -79t95.5 -134 t32.5 -181q0 -99 -34 -179.5t-98.5 -137t-158.5 -87t-213 -30.5q-111 0 -201.5 33.5t-154.5 106.5t-99 187t-35 275zM418 541q-4 -67 3.5 -123t26 -96t49.5 -62t74 -22q78 0 114 37.5t36 124.5t-46.5 134.5t-126.5 43.5q-48 -2 -78 -12.5t-52 -24.5z" />
<glyph unicode="7" horiz-adv-x="1026" d="M40 1330h941v-230l-445 -1100h-350l443 1072h-314v-198h-265z" />
<glyph unicode="8" horiz-adv-x="1162" d="M85 332q0 66 26 120t62.5 95t77 67.5t68.5 38.5q-41 23 -79.5 52.5t-68 68t-47 86.5t-17.5 107q0 91 35.5 162.5t99 120.5t152.5 74.5t195 25.5q99 0 184 -23t147 -67.5t97 -110t35 -150.5q0 -63 -21.5 -111.5t-54 -84.5t-71 -60.5t-72.5 -39.5q17 -12 57.5 -37.5 t82 -66.5t73 -99t31.5 -136q0 -101 -38 -173.5t-105 -119.5t-159.5 -69t-201.5 -22q-100 0 -188.5 20.5t-155 64t-105.5 110t-39 157.5zM415 373q0 -36 14 -62.5t38 -44.5t55.5 -27t66.5 -9q32 0 60.5 9.5t50 27t34 41.5t12.5 52q0 33 -16.5 61t-42 52t-56 44t-58.5 37 q-27 -14 -55.5 -32t-51 -40.5t-37 -49.5t-14.5 -59zM444 989q0 -33 8.5 -57.5t26 -45t44.5 -40.5t63 -44q26 14 49.5 31.5t41 39.5t28 48t10.5 55q0 60 -39.5 92.5t-102.5 32.5q-57 0 -93 -31t-36 -81z" />
<glyph unicode="9" horiz-adv-x="1129" d="M70 916q0 99 35.5 179.5t101.5 137t161 87t214 30.5q238 0 360 -152.5t122 -459.5q0 -193 -34.5 -336t-108 -236.5t-187 -139.5t-272.5 -46q-63 0 -117.5 8.5t-98 20t-74 24.5t-45.5 22l63 247q17 -7 44 -16t60.5 -16t73.5 -12t83 -5q130 0 190.5 75t69.5 212 q-17 -8 -53 -18.5t-96 -15.5q-118 -9 -209.5 16t-154.5 79t-95.5 134.5t-32.5 180.5zM408 930q0 -87 46.5 -134.5t126.5 -43.5q48 2 78 12.5t52 24.5q8 150 -33.5 226.5t-121.5 76.5q-31 0 -58 -9t-47 -28.5t-31.5 -50.5t-11.5 -74z" />
<glyph unicode=":" horiz-adv-x="518" d="M80 149q0 95 51.5 141t136.5 46q75 0 122.5 -43.5t47.5 -125.5q0 -96 -51.5 -141.5t-136.5 -45.5q-75 0 -122.5 43.5t-47.5 125.5zM80 857q0 95 51.5 141t136.5 46q75 0 122.5 -43.5t47.5 -125.5q0 -96 -51.5 -141.5t-136.5 -45.5q-75 0 -122.5 43.5t-47.5 125.5z" />
<glyph unicode=";" horiz-adv-x="491" d="M10 -164q29 16 56.5 36t48.5 45.5t33.5 57t12.5 68.5q0 41 -12 75t-30 61.5t-38.5 49.5t-38.5 38l245 69q20 -15 43.5 -40.5t43.5 -60t33.5 -77t13.5 -92.5q0 -66 -22.5 -121t-62 -99t-94 -77.5t-119.5 -58.5zM46 857q0 95 51.5 141t136.5 46q75 0 122.5 -43.5 t47.5 -125.5q0 -96 -51.5 -141.5t-136.5 -45.5q-75 0 -122.5 43.5t-47.5 125.5z" />
<glyph unicode="&#x3c;" horiz-adv-x="1118" d="M120 665l657 527l161 -191l-419 -336l419 -334l-161 -190z" />
<glyph unicode="=" horiz-adv-x="1223" d="M130 363v257h963v-257h-963zM130 712v257h963v-257h-963z" />
<glyph unicode="&#x3e;" horiz-adv-x="1118" d="M200 329l419 336l-419 334l161 190l657 -524l-657 -527z" />
<glyph unicode="?" horiz-adv-x="822" d="M10 1266q22 12 55 26.5t77 27.5t100 21.5t123 8.5q101 0 179.5 -27.5t132.5 -75t82 -111.5t28 -138q0 -49 -20.5 -96t-51 -88t-65.5 -76.5t-64 -62.5q-26 -24 -50 -48.5t-42 -48.5t-28 -49t-9 -51l2 -31l-228 -17q-4 8 -10 17.5t-11.5 23t-9 32.5t-3.5 46q0 57 31 103.5 t85 99.5q26 25 53.5 52.5t50.5 55t38 54.5t15 51q0 60 -38 93.5t-119 33.5q-40 0 -78.5 -6t-71.5 -14.5t-57 -17.5t-36 -15zM177 149q0 95 51.5 141t136.5 46q75 0 122.5 -43.5t47.5 -125.5q0 -96 -51.5 -141.5t-136.5 -45.5q-75 0 -122.5 43.5t-47.5 125.5z" />
<glyph unicode="@" horiz-adv-x="2280" d="M110 453q0 133 33.5 260.5t99.5 241.5t163 210.5t224 166t283.5 109t339.5 39.5q221 0 392 -62t287.5 -172t177 -262.5t60.5 -333.5q0 -157 -43.5 -281.5t-119 -210.5t-178.5 -132t-223 -46q-43 0 -82.5 11.5t-74.5 30.5t-63.5 44t-48.5 53q-18 -22 -47.5 -46.5 t-68.5 -45t-86.5 -34t-100.5 -13.5q-87 0 -157 33.5t-119.5 95t-76 147t-26.5 189.5q0 134 38.5 244.5t113 189.5t183 122t249.5 43q78 0 144.5 -19t119 -44t88.5 -50t52 -37l-45 -585q-1 -45 12 -71.5t39 -28.5q37 -4 73.5 25.5t65 85t46.5 133.5t18 172q0 140 -37.5 254 t-115 194.5t-194.5 124.5t-276 44q-185 0 -331.5 -62.5t-248.5 -168t-156.5 -243.5t-54.5 -289q0 -156 40.5 -278t119 -206.5t194 -128.5t265.5 -44q100 0 180 17t140 41l66 -208q-24 -13 -65 -28t-95.5 -28.5t-119.5 -22.5t-137 -9q-213 0 -382.5 60.5t-288 173t-182 273.5 t-63.5 362zM985 477q0 -54 9 -98t26.5 -75.5t43 -48.5t58.5 -17q29 0 53.5 8.5t44.5 21.5t35.5 28.5t25.5 28.5l35 456q-14 5 -39.5 10t-66.5 5q-63 0 -106.5 -25t-69.5 -68t-37.5 -101.5t-11.5 -124.5z" />
<glyph unicode="A" horiz-adv-x="1341" d="M0 0l519 1330h302l520 -1330h-350l-97 279h-447l-97 -279h-350zM533 527h274l-132 381h-10z" />
<glyph unicode="B" horiz-adv-x="1193" d="M115 0v1330h459q117 0 209.5 -22t156.5 -66t98 -111.5t34 -159.5q0 -81 -43.5 -144.5t-109.5 -102.5q44 -17 84 -46t71.5 -69t50 -89t18.5 -106q0 -93 -38.5 -169.5t-108.5 -131t-169 -84t-221 -29.5h-491zM443 253h151q91 0 136 38t45 103q0 81 -46.5 126t-134.5 45 h-151v-312zM443 792h230q59 53 59 139q0 68 -40 107t-118 39h-131v-285z" />
<glyph unicode="C" horiz-adv-x="1156" d="M55 661q0 156 49 283.5t140 217.5t220 139t288 49q46 0 94 -5.5t93 -16t85 -25t69 -31.5l-69 -247q-131 52 -261 52q-85 0 -151.5 -27t-111.5 -78.5t-68.5 -126t-23.5 -169.5q0 -96 24 -174.5t67.5 -133.5t105.5 -85t138 -30q73 0 149 15t145 47l79 -242 q-34 -20 -76.5 -37t-90.5 -29.5t-98 -19.5t-99 -7q-164 0 -293.5 46.5t-219 134t-137 214t-47.5 286.5z" />
<glyph unicode="D" horiz-adv-x="1328" d="M115 0v1330h459q164 0 293.5 -45.5t219.5 -130.5t138 -206t48 -272q0 -159 -46 -284.5t-134 -212.5t-215.5 -133t-290.5 -46h-472zM443 253h132q83 0 147.5 29.5t108.5 83.5t66.5 129t22.5 166q0 101 -23.5 178.5t-67 130t-105 80t-138.5 27.5h-143v-824z" />
<glyph unicode="E" horiz-adv-x="1063" d="M115 0v1330h858v-268h-530v-262h500v-258h-500v-274h550v-268h-878z" />
<glyph unicode="F" horiz-adv-x="993" d="M115 0v1330h858v-268h-530v-277h460v-258h-460v-527h-328z" />
<glyph unicode="G" horiz-adv-x="1301" d="M55 661q0 156 51 283.5t145 217.5t227.5 139t298.5 49q48 0 98.5 -5.5t97.5 -16t88.5 -25t71.5 -31.5l-69 -247q-138 52 -276 52q-91 0 -162 -27t-119.5 -78.5t-73.5 -126t-25 -169.5q0 -96 24.5 -174.5t69.5 -133.5t109 -85t142 -30q42 0 80.5 5t73.5 14v250h-221v243 h520v-653q-85 -63 -200 -97.5t-244 -34.5q-166 0 -297.5 46.5t-222.5 134t-139 214t-48 286.5z" />
<glyph unicode="H" horiz-adv-x="1370" d="M115 0v1330h328v-525h484v525h328v-1330h-328v537h-484v-537h-328z" />
<glyph unicode="I" d="M115 0v1330h328v-1330h-328z" />
<glyph unicode="J" horiz-adv-x="765" d="M20 35l42 247q17 -8 55 -19q35 -10 85 -10h9q121 1 121 116v961h328v-932q0 -106 -29.5 -184.5t-81 -130.5t-122 -77.5t-153.5 -25.5q-52 0 -93.5 6t-73 14t-53.5 18t-34 17z" />
<glyph unicode="K" horiz-adv-x="1259" d="M115 0v1330h328v-601l415 601h366l-419 -602l434 -728h-382l-291 518l-123 -168v-350h-328z" />
<glyph unicode="L" horiz-adv-x="993" d="M115 0v1330h328v-1062h540v-268h-868z" />
<glyph unicode="M" horiz-adv-x="1640" d="M115 0v1330h431l274 -759l274 759h431v-1330h-323v861l-254 -714h-256l-254 714v-861h-323z" />
<glyph unicode="N" horiz-adv-x="1380" d="M115 0v1330h340l487 -810v810h323v-1330h-340l-487 809v-809h-323z" />
<glyph unicode="O" horiz-adv-x="1436" d="M55 661q0 152 46 279t132 218t210 141.5t281 50.5q156 0 278.5 -48.5t206.5 -138t128 -215t44 -279.5q0 -152 -45.5 -279t-132 -218t-210.5 -141.5t-281 -50.5q-156 0 -278.5 49t-206.5 138t-128 214.5t-44 279.5zM408 676q0 -100 22 -181t63 -138t99 -88t131 -31 q66 0 122 27.5t96.5 80.5t63.5 130.5t23 177.5q0 101 -22 182t-63 138t-99 87.5t-131 30.5q-66 0 -122 -27.5t-96.5 -80.5t-63.5 -130.5t-23 -177.5z" />
<glyph unicode="P" horiz-adv-x="1129" d="M115 0v1330h454q254 0 387 -105.5t133 -328.5q0 -111 -38.5 -195.5t-106 -141t-158.5 -85t-197 -28.5h-146v-446h-328zM443 694h116q98 0 142.5 51t44.5 138q0 91 -43.5 138t-123.5 47h-136v-374z" />
<glyph unicode="Q" horiz-adv-x="1436" d="M55 661q0 152 46 279t132 218t210 141.5t281 50.5q156 0 278.5 -48.5t206.5 -138t128 -215t44 -279.5q0 -193 -72 -342.5t-206 -238.5q40 -60 82.5 -106t90 -77t102.5 -47t120 -16q58 0 115 9t97 23l26 -250q-22 -8 -47.5 -15t-57.5 -12.5t-72 -9t-91 -3.5 q-123 0 -218 31.5t-169.5 86.5t-131.5 129t-103 160q-32 -5 -65.5 -8t-68.5 -3q-156 0 -278.5 49t-206.5 138t-128 214.5t-44 279.5zM408 676q0 -100 22 -181t63 -138t99 -88t131 -31q66 0 122 27.5t96.5 80.5t63.5 130.5t23 177.5q0 101 -22 182t-63 138t-99 87.5 t-131 30.5q-66 0 -122 -27.5t-96.5 -80.5t-63.5 -130.5t-23 -177.5z" />
<glyph unicode="R" horiz-adv-x="1196" d="M115 0v1330h444q261 0 400.5 -106t139.5 -330q0 -76 -22.5 -134.5t-56 -102t-71.5 -73.5t-70 -49l302 -535h-366l-242 462h-130v-462h-328zM443 710h226q15 8 30.5 23t28 37t20.5 50t8 61q0 92 -49.5 139.5t-137.5 47.5h-126v-358z" />
<glyph unicode="S" horiz-adv-x="1095" d="M90 80l72 265q18 -9 54 -23t81.5 -27t96.5 -22.5t99 -9.5q97 0 140.5 20.5t43.5 65.5q0 22 -6.5 39.5t-21 33.5t-38.5 31t-59 32l-173 77q-65 29 -117 65t-88 82t-55.5 104.5t-19.5 133.5q0 91 37.5 165t103 127t155 82t193.5 29q82 0 146.5 -12t113.5 -28.5t83.5 -34.5 t56.5 -30l-60 -262q-26 13 -62.5 27.5t-78 26.5t-86 20t-87.5 8q-48 0 -80.5 -8.5t-52.5 -23t-29 -33t-10 -39.5q-1 -25 6.5 -43t21.5 -32.5t33 -25.5t42 -22l194 -90q76 -36 130 -75t88.5 -85t51 -101t16.5 -122q0 -93 -35 -164.5t-102 -120.5t-164.5 -74.5t-222.5 -25.5 q-62 0 -124.5 8.5t-117.5 23t-99 32.5t-70 36z" />
<glyph unicode="T" horiz-adv-x="1090" d="M10 1062v268h1070v-268h-371v-1062h-328v1062h-371z" />
<glyph unicode="U" horiz-adv-x="1310" d="M105 525v805h328v-795q0 -82 16 -139t46 -92t71.5 -50.5t92.5 -15.5t91.5 15t68.5 48t43 85t15 126v818h328v-805q0 -129 -39 -230t-111.5 -171t-175.5 -107t-231 -37t-229 35.5t-170.5 105t-106.5 171t-37 233.5z" />
<glyph unicode="V" horiz-adv-x="1311" d="M0 1330h365l285 -968h10l286 968h365l-450 -1330h-412z" />
<glyph unicode="W" horiz-adv-x="1856" d="M20 1330h365l183 -903h10l218 883h264l218 -883h10l183 903h365l-327 -1330h-383l-198 712l-198 -712h-382z" />
<glyph unicode="X" horiz-adv-x="1355" d="M10 0l473 690l-429 640h369l254 -411l255 411h369l-429 -640l473 -690h-371l-297 458l-295 -458h-372z" />
<glyph unicode="Y" horiz-adv-x="1222" d="M0 1330h356l255 -527l255 527h356l-447 -836v-494h-328v494z" />
<glyph unicode="Z" horiz-adv-x="1127" d="M70 0v230l560 831h-520v268h928v-230l-592 -831h631v-268h-1007z" />
<glyph unicode="[" horiz-adv-x="675" d="M115 -279v1884h540v-223l-252 -5v-1428h252v-220z" />
<glyph unicode="\" horiz-adv-x="940" d="M-55 1585h316l774 -1835h-316z" />
<glyph unicode="]" horiz-adv-x="675" d="M40 -56l252 5v1428h-252v220l540 8v-1884h-540v223z" />
<glyph unicode="^" horiz-adv-x="1236" d="M115 765l325 715h356l325 -715h-340l-163 400l-163 -400h-340z" />
<glyph unicode="_" horiz-adv-x="1193" d="M115 0h963v-257h-963v257z" />
<glyph unicode="`" horiz-adv-x="860" d="M115 1303l123 270l507 -275l-69 -151z" />
<glyph unicode="a" horiz-adv-x="961" d="M20 270q0 85 36 146.5t102 98t160 48.5q45 6 95 6q54 0 115 -7v92q0 66 -32.5 96.5t-108.5 30.5q-37 0 -75 -5.5t-73.5 -14.5t-65.5 -20t-53 -22l-58 230q28 15 69.5 32t90.5 31t102.5 23t105.5 9q198 0 302 -87t104 -252v-421q0 -30 12 -43t33 -13q20 0 35.5 3.5 t29.5 7.5l25 -224q-38 -16 -83 -25.5t-99 -9.5q-58 0 -109.5 19.5t-81.5 72.5q-54 -45 -117 -68.5t-126 -23.5q-75 0 -137 21t-106 59t-68 91.5t-24 118.5zM324 301q0 -45 26 -68t70 -23q27 0 55 8t53 21v153q-40 7 -73 7q-48 0 -79 -15q-52 -25 -52 -83z" />
<glyph unicode="b" horiz-adv-x="1125" d="M115 94v1365l328 21v-525q10 10 32.5 25t54 29.5t71 24.5t83.5 10q97 0 172.5 -38t127.5 -107t79 -165t27 -213q0 -121 -35.5 -220.5t-105.5 -171t-172.5 -110.5t-236.5 -39q-61 0 -120 8.5t-114 23.5t-103.5 36t-87.5 46zM443 241q14 -5 40 -9t67 -4q56 0 94.5 21 t62.5 58t34.5 88t10.5 111q0 63 -11 114.5t-32.5 88t-55 57t-78.5 20.5q-18 0 -37 -4t-37 -10.5t-33.5 -14.5t-24.5 -16v-500z" />
<glyph unicode="c" horiz-adv-x="898" d="M35 502q0 122 35.5 221.5t102.5 171t164.5 110.5t221.5 39q55 0 102.5 -7.5t86.5 -18.5t68.5 -23.5t47.5 -23.5l-60 -237q-7 3 -27 10.5t-47.5 16t-61 14.5t-68.5 6q-114 0 -170.5 -68.5t-56.5 -194.5q0 -135 52 -205t165 -70q38 0 74 6t65.5 14t50.5 15.5t29 11.5 l69 -232q-23 -13 -56.5 -27t-76 -25.5t-94.5 -18.5t-112 -7q-118 0 -212 38t-158.5 107t-99 165t-34.5 212z" />
<glyph unicode="d" horiz-adv-x="1135" d="M35 503q0 121 34 220.5t98 171t154.5 110.5t203.5 39q51 0 93 -12t74 -29v456l328 21v-1480h-264l-32 98l-32 -29q-10 -10 -32.5 -25t-54 -29.5t-71 -24.5t-83.5 -10q-99 0 -176.5 38t-130.5 107t-81 165t-28 213zM373 518q0 -63 11.5 -114.5t34.5 -88t58 -57t83 -20.5 q18 0 37 4t37 10.5t33.5 14.5t24.5 16v477q-17 12 -49.5 24t-77.5 12q-48 0 -84 -21t-60 -58t-36 -88t-12 -111z" />
<glyph unicode="e" horiz-adv-x="997" d="M35 502q0 122 35.5 221.5t101.5 171t161.5 110.5t215.5 39q99 0 176 -28.5t129.5 -80t80 -122t27.5 -154.5q0 -70 -8.5 -124t-22.5 -90h-571q10 -107 69.5 -154.5t160.5 -47.5q95 0 163.5 19.5t114.5 36.5l69 -232q-24 -12 -60 -27t-84 -28.5t-109 -22.5t-135 -9 q-121 0 -216.5 38t-161.5 107t-101 165t-35 212zM363 618h285q5 26 5 50q1 14 -1 26q-4 34 -20.5 59t-43.5 39t-64 14q-72 0 -112 -45.5t-49 -142.5z" />
<glyph unicode="f" horiz-adv-x="684" d="M0 786v218l140 9v90q0 85 25 154.5t75 119t124.5 76.5t173.5 27q92 0 149 -14t97 -29l-50 -234q-20 7 -54.5 15.5t-79.5 8.5q-69 0 -103.5 -31.5t-34.5 -108.5v-63h232v-238h-228v-786h-328v786h-138z" />
<glyph unicode="g" horiz-adv-x="1047" d="M15 -205q0 42 14 76.5t37.5 61.5t53.5 47.5t62 36.5q-9 8 -20 18.5t-20.5 25.5t-16 35t-6.5 47q0 26 10 52t28 51.5t43 48.5t54 41q-105 41 -160.5 125t-55.5 205q0 89 29 159t84 118.5t134.5 74.5t180.5 26q159 0 261 -64q43 24 87 38.5t84 20.5q32 5 60 5h14 q33 -2 55 -9v-239q-16 2 -37 3.5t-42.5 2t-42.5 0.5t-38 -1q17 -57 17 -122q0 -88 -29 -158t-84 -118.5t-134.5 -74.5t-180.5 -26h-28q-15 -14 -25.5 -30.5t-11.5 -30.5v-7q0 -32 46 -32h233q78 0 141 -19t107 -56.5t68 -93t24 -128.5q0 -77 -42.5 -140t-116.5 -107.5 t-174 -69t-216 -24.5q-226 0 -336 57.5t-110 173.5zM296 -131q0 -43 52 -62t152 -19t156 25.5t56 78.5q0 28 -20 44.5t-61 16.5h-287q-14 -12 -31 -34t-17 -50zM338 677q0 -39 6.5 -70.5t21.5 -54.5t39 -35.5t60 -12.5q33 0 55.5 12.5t37 34.5t20.5 52t6 65q0 39 -6.5 71 t-21.5 54.5t-39 35t-60 12.5q-33 0 -56 -12.5t-37 -34t-20 -51.5t-6 -66z" />
<glyph unicode="h" horiz-adv-x="1166" d="M115 0v1459l328 21v-530q20 15 46.5 32t60 30.5t73 22.5t84.5 9q178 0 268.5 -89t90.5 -281v-674h-328v623q0 81 -30 117t-101 36q-19 0 -42 -4.5t-45.5 -12t-42.5 -18t-34 -21.5v-720h-328z" />
<glyph unicode="i" d="M100 1341q0 95 51.5 141t136.5 46q75 0 122.5 -43.5t47.5 -125.5q0 -96 -51.5 -141.5t-136.5 -45.5q-75 0 -122.5 43.5t-47.5 125.5zM115 0v1024h328v-1024h-328z" />
<glyph unicode="j" horiz-adv-x="578" d="M-133 -377l38 234q17 -6 43 -13t62 -7q64 0 94.5 30.5t30.5 100.5v1056h328v-1037q0 -204 -102 -303.5t-299 -99.5q-69 0 -116 12t-79 27zM120 1341q0 95 51.5 141t136.5 46q75 0 122.5 -43.5t47.5 -125.5q0 -96 -51.5 -141.5t-136.5 -45.5q-75 0 -122.5 43.5 t-47.5 125.5z" />
<glyph unicode="k" horiz-adv-x="1112" d="M115 0v1459l328 21v-866l297 410h352l-308 -422l328 -602h-365l-209 406l-95 -131v-275h-328z" />
<glyph unicode="l" d="M115 0v1459l328 21v-1480h-328z" />
<glyph unicode="m" horiz-adv-x="1769" d="M115 0v1024h264l33 -101q15 17 41.5 37.5t63.5 39.5t84 31.5t101 12.5q204 0 290 -120q57 50 139 85t184 35q176 0 265 -89t89 -281v-674h-328v623q0 81 -29 117t-97 36q-36 0 -80 -15.5t-81 -41.5q1 -11 1.5 -22.5t0.5 -22.5v-674h-328v623q0 81 -29 117t-97 36 q-19 0 -40.5 -4.5t-42.5 -12t-41 -18t-35 -21.5v-720h-328z" />
<glyph unicode="n" horiz-adv-x="1166" d="M115 0v1024h264l33 -101q15 15 42.5 36t65 39.5t85 32t102.5 13.5q178 0 268.5 -89t90.5 -281v-674h-328v623q0 81 -30 117t-101 36q-19 0 -42 -4.5t-45.5 -12t-42.5 -18t-34 -21.5v-720h-328z" />
<glyph unicode="o" horiz-adv-x="1111" d="M35 503q0 121 35.5 220.5t103 171t165.5 110.5t223 39q122 0 217.5 -38t161.5 -107t100.5 -165t34.5 -213q0 -121 -35.5 -220.5t-103 -171t-165.5 -110.5t-223 -39q-122 0 -217.5 38t-161.5 107t-100.5 165t-34.5 213zM373 518q0 -67 9.5 -122.5t31.5 -95t58 -61 t88 -21.5q50 0 84 21.5t55 60t30 91t9 115.5q0 67 -9.5 122.5t-31.5 95t-57.5 61t-88.5 21.5q-49 0 -83 -21.5t-55 -60t-30.5 -91t-9.5 -115.5z" />
<glyph unicode="p" horiz-adv-x="1135" d="M115 -396v1420h264l32 -98l32 29q10 10 32.5 25t54 29.5t71 24.5t83.5 10q99 0 176.5 -38t130.5 -107t81 -165t28 -213q0 -121 -34 -220.5t-98 -171t-154.5 -110.5t-203.5 -39q-51 0 -93 12t-74 29v-417h-328zM443 263q17 -11 49 -23t78 -12q48 0 84 21t60 58t36 88 t12 111q0 63 -11.5 114.5t-34.5 88t-58 57t-83 20.5q-18 0 -37 -4t-37 -10.5t-33.5 -14.5t-24.5 -16v-478z" />
<glyph unicode="q" horiz-adv-x="1125" d="M35 502q0 121 35.5 220.5t105.5 171t172.5 110.5t236.5 39q61 0 120.5 -7t114 -19t103 -27t87.5 -31v-1355h-328v464q-10 -10 -32.5 -25t-54 -29.5t-71 -24.5t-83.5 -10q-97 0 -172.5 38t-127.5 107t-79 165t-27 213zM373 517q0 -63 11 -114.5t32.5 -88t55 -57 t78.5 -20.5q18 0 37 4t37 10.5t33.5 14.5t24.5 16v498q-14 5 -40 10t-67 5q-56 0 -94.5 -21t-62.5 -58t-34.5 -88t-10.5 -111z" />
<glyph unicode="r" horiz-adv-x="760" d="M115 0v1024h264l41 -127q28 31 66 59.5t83 49t93 30.5q31 7 62 7q18 0 36 -2v-294q-18 2 -36 2q-22 0 -48 -3q-44 -5 -87 -15.5t-81 -24.5t-65 -28v-678h-328z" />
<glyph unicode="s" horiz-adv-x="877" d="M56 58l63 236q24 -11 57.5 -23t70.5 -21.5t75.5 -15.5t73.5 -6q60 0 94.5 11.5t34.5 43.5q0 18 -11.5 31.5t-30.5 24t-44 19.5t-51 18l-70 25q-136 49 -197 124t-61 184q0 76 28 138t80 105.5t126 67.5t166 24q37 0 79.5 -3t87.5 -11t90.5 -22t89.5 -37l-50 -237 q-28 10 -62 21t-71 20t-74 15t-70 6q-18 0 -38 -2.5t-36.5 -9.5t-27.5 -19.5t-11 -32.5q0 -36 35.5 -56.5t107.5 -48.5l78 -30q124 -47 184 -119t60 -186q0 -71 -24.5 -128.5t-75 -98.5t-126.5 -63t-179 -22q-124 0 -216.5 23.5t-154.5 54.5z" />
<glyph unicode="t" horiz-adv-x="764" d="M0 786v218l160 10l29 237l273 19v-246h258v-238h-254v-403q0 -80 26.5 -110t87.5 -30q45 0 85.5 9t62.5 17l36 -238q-21 -9 -51.5 -18.5t-66 -16.5t-73.5 -11.5t-75 -4.5q-99 0 -167.5 20t-111.5 64t-62 113.5t-19 169.5v439h-138z" />
<glyph unicode="u" horiz-adv-x="1156" d="M100 350v674h328v-623q0 -81 29 -117t97 -36q19 0 40.5 4.5t42.5 12t41 18t35 21.5v720h328v-1024h-264l-33 101q-15 -16 -41.5 -37t-63.5 -40t-84 -31.5t-101 -12.5q-175 0 -264.5 89t-89.5 281z" />
<glyph unicode="v" horiz-adv-x="1074" d="M-10 1024h358l184 -690h10l184 690h358l-341 -1024h-412z" />
<glyph unicode="w" horiz-adv-x="1610" d="M-10 1024h353l154 -680h10l154 670h288l154 -670h10l154 680h353l-281 -1024h-412l-122 482l-122 -482h-412z" />
<glyph unicode="x" horiz-adv-x="1060" d="M-30 0l372 531l-338 493h361l165 -278l165 278h361l-338 -493l372 -531h-363l-197 314l-197 -314h-363z" />
<glyph unicode="y" horiz-adv-x="1114" d="M0 1024h363l205 -700h10l168 700h358l-327 -1044q-33 -105 -80 -180t-110 -123t-142.5 -70.5t-176.5 -22.5q-38 0 -74.5 5t-68.5 12t-58.5 15.5t-43.5 16.5l48 234q17 -6 62.5 -18t112.5 -12q61 0 106 31t58 99l-49 93z" />
<glyph unicode="z" horiz-adv-x="973" d="M70 0v190l426 596h-396v238h773v-190l-426 -596h456v-238h-833z" />
<glyph unicode="{" horiz-adv-x="689" d="M80 567v195q92 2 146 38t54 103q0 29 -13.5 62.5t-33 70t-43 75t-43 77t-33 76t-13.5 72.5q0 80 27.5 138.5t74.5 96.5t111.5 56t137.5 18q60 0 111 -12.5t76 -26.5l-30 -202q-19 6 -50.5 12t-70.5 6q-27 0 -47.5 -8.5t-34 -21.5t-20 -29.5t-6.5 -33.5q0 -26 14 -58 t35.5 -68t46 -73.5t46 -75.5t35.5 -74.5t14 -69.5q0 -54 -15.5 -95.5t-43.5 -72.5t-66.5 -50t-84.5 -28q46 -8 84.5 -27t66.5 -48t43.5 -67.5t15.5 -85.5q0 -32 -14 -71t-35.5 -80t-46 -82.5t-46 -79t-35.5 -69t-14 -52.5q0 -45 26.5 -70t81.5 -25q39 0 70.5 6t50.5 12 l30 -202q-25 -14 -76 -26.5t-111 -12.5q-78 0 -142.5 15.5t-111 49.5t-72 87t-25.5 127q0 43 13.5 85.5t33 83.5t43 80t43 74.5t33 66.5t13.5 56q0 80 -54 118t-146 40z" />
<glyph unicode="|" horiz-adv-x="518" d="M115 -499v2022h288v-2022h-288z" />
<glyph unicode="}" horiz-adv-x="689" d="M70 -277l30 202q19 -6 50.5 -12t70.5 -6q55 0 81.5 25t26.5 70q0 21 -14 52.5t-35.5 69t-46 79t-46 82.5t-35.5 80t-14 71q0 47 15.5 85.5t43.5 67.5t66.5 48t84.5 27q-46 9 -84.5 28t-66.5 50t-43.5 72.5t-15.5 95.5q0 33 14 69.5t35.5 74.5t46 75.5t46 73.5t35.5 68 t14 58q0 17 -6.5 33.5t-20 29.5t-34 21.5t-47.5 8.5q-39 0 -70.5 -6t-50.5 -12l-30 202q25 14 76 26.5t111 12.5q74 0 138 -18t111 -56t74.5 -96.5t27.5 -138.5q0 -35 -13.5 -72.5t-33 -76t-43 -77t-43 -75t-33 -70t-13.5 -62.5q0 -67 54 -103t146 -38v-195q-92 -2 -146 -40 t-54 -118q0 -25 13.5 -56t33 -66.5t43 -74.5t43 -80t33 -84t13.5 -85q0 -74 -25.5 -127t-72 -87t-111 -49.5t-142.5 -15.5q-60 0 -111 12.5t-76 26.5z" />
<glyph unicode="~" horiz-adv-x="1116" d="M110 662q23 36 54 65.5t69 51t81 33.5t88 12t86 -10t80 -22.5t77 -22.5t77 -10q28 0 54.5 7.5t49.5 19t43 24.5t34 23l103 -165q-22 -36 -53.5 -65.5t-69.5 -51t-81 -33.5t-88 -12t-86 10t-80 22.5t-77 22.5t-77 10q-28 0 -54.5 -7.5t-49.5 -19t-43 -24t-34 -23.5z" />
<glyph unicode="&#xa1;" horiz-adv-x="518" d="M80 857q0 95 51.5 141t136.5 46q75 0 122.5 -43.5t47.5 -125.5q0 -96 -51.5 -141.5t-136.5 -45.5q-75 0 -122.5 43.5t-47.5 125.5zM85 -306l50 884h248l50 -884h-348z" />
<glyph unicode="&#xa2;" horiz-adv-x="1273" d="M160 655q0 105 31 194.5t89.5 158.5t141.5 114.5t188 63.5l-24 231h260l-23 -225q81 -9 139 -30t87 -38l-60 -237q-7 3 -28 10.5t-50 16t-64.5 14.5t-71.5 6q-61 0 -112 -16t-88 -49t-57 -82.5t-20 -115.5q0 -71 19.5 -123t55.5 -85.5t87.5 -50t114.5 -16.5q38 0 74 6 t65.5 14t50.5 15.5t29 11.5l69 -232q-35 -21 -94 -41.5t-138 -30.5l23 -227h-260l23 228q-105 15 -190 58.5t-144 110t-91 154.5t-32 192z" />
<glyph unicode="&#xa3;" horiz-adv-x="1259" d="M142 607v143h147q-6 44 -10.5 88.5t-4.5 92.5q0 97 30 174.5t89 132t145.5 83.5t200.5 29q53 0 99.5 -8t84.5 -20t67 -25.5t48 -24.5l-60 -237q-7 3 -30.5 11.5t-56.5 17.5t-71.5 16t-76.5 7q-70 0 -109.5 -33.5t-39.5 -108.5q0 -51 5 -99t13 -96h317v-143h-296 q4 -31 6 -63t2 -65q0 -53 -6.5 -110.5t-20.5 -116.5q47 -8 90 -13.5t85 -5.5q40 -1 65.5 8.5t42 26.5t26.5 41.5t18 53.5l208 -53q-5 -88 -31 -150.5t-70.5 -102.5t-105 -58.5t-134.5 -18.5q-50 0 -96 5.5t-90 12t-87 13t-87 9.5q-12 -10 -24 -19t-25.5 -17t-28.5 -14 l-167 28l-57 187q14 9 32.5 18t39 17.5t42 15t39.5 9.5q13 59 17.5 114t4.5 106q0 37 -2.5 72t-7.5 70h-169z" />
<glyph unicode="&#xa4;" horiz-adv-x="1530" d="M175 203l189 215q-38 53 -58 116.5t-20 135.5t20 135t58 117l-189 215l153 127l208 -203q50 23 107 35.5t122 12.5q64 0 121 -12.5t107 -35.5l209 203l153 -127l-189 -216q38 -53 58 -116.5t20 -134.5t-19.5 -133t-56.5 -115l187 -219l-153 -127l-208 201 q-50 -23 -107.5 -35t-121.5 -12q-65 0 -122 12t-107 35l-208 -201zM565 670q0 -47 14 -86.5t40 -68t63 -44.5t83 -16t83 16t63 44.5t40 68t14 86.5t-14 86t-40 67.5t-63 44.5t-83 16t-83 -16t-63 -44.5t-40 -67.5t-14 -86z" />
<glyph unicode="&#xa5;" horiz-adv-x="1342" d="M90 1330h336l245 -499l245 499h336l-246 -461h118v-143h-905v143h117zM244 462v143h855v-143h-264v-462h-328v462h-263z" />
<glyph unicode="&#xa6;" horiz-adv-x="518" d="M115 330h288v-829h-288v829zM115 694v829h288v-829h-288z" />
<glyph unicode="&#xa7;" horiz-adv-x="1226" d="M115 1012q0 104 40 190.5t115.5 148t184 95.5t245.5 34q63 0 121 -8.5t108.5 -21t90.5 -27t67 -26.5l-60 -242q-57 19 -114 33.5t-123 21.5q-39 -64 -23 -155.5t74 -225.5l153 -357q31 -71 53 -123t36.5 -98t21 -92.5t6.5 -106.5q0 -104 -40 -190.5t-115.5 -148 t-184 -95.5t-245.5 -34q-63 0 -121 8.5t-108.5 21t-90.5 27t-67 26.5l60 242q56 -19 113.5 -33.5t123.5 -21.5q38 64 22 155t-73 226l-153 357q-31 71 -53 123t-36 98t-21 92.5t-7 106.5zM392 1022q0 -39 5.5 -76.5t19 -82.5t36.5 -102.5t57 -136.5l172 -401q32 -75 44 -131 t9 -98t-18.5 -72.5t-37.5 -54.5q84 22 119.5 68.5t35.5 106.5q0 39 -5.5 76.5t-19 82.5t-36.5 102.5t-57 136.5l-172 401q-32 75 -44 131t-9 98t18 72.5t37 54.5q-83 -22 -118.5 -68.5t-35.5 -106.5z" />
<glyph unicode="&#xa8;" horiz-adv-x="1044" d="M115 1341q0 95 51.5 141t136.5 46q75 0 122.5 -43.5t47.5 -125.5q0 -96 -51.5 -141.5t-136.5 -45.5q-75 0 -122.5 43.5t-47.5 125.5zM571 1341q0 95 51.5 141t136.5 46q75 0 122.5 -43.5t47.5 -125.5q0 -96 -51.5 -141.5t-136.5 -45.5q-75 0 -122.5 43.5t-47.5 125.5z " />
<glyph unicode="&#xa9;" horiz-adv-x="1600" d="M115 665q0 142 54 266.5t147 217.5t217.5 147t266.5 54t266.5 -54t217.5 -147t147 -217.5t54 -266.5t-54 -266.5t-147 -217.5t-217.5 -147t-266.5 -54t-266.5 54t-217.5 147t-147 217.5t-54 266.5zM288 665q0 -106 40 -199.5t109.5 -163t163 -109.5t199.5 -40 q107 0 200 40t162.5 109.5t109.5 163t40 199.5q0 107 -40 200t-109.5 162.5t-162.5 109.5t-200 40q-106 0 -199.5 -40t-163 -109.5t-109.5 -162.5t-40 -200zM439 657q0 87 25 158.5t73 122.5t117.5 78.5t157.5 27.5q39 0 73.5 -5.5t62 -13t48.5 -16.5t34 -17l-44 -186 q-6 2 -19.5 7.5t-33 10.5t-43 9t-48.5 4q-79 0 -113 -41t-34 -126q0 -91 30.5 -134t108.5 -43q28 0 53 4t45.5 9t35 10t21.5 8l51 -182q-33 -20 -94 -38t-148 -18q-84 0 -151 27t-113 76t-70.5 117.5t-24.5 150.5z" />
<glyph unicode="&#xaa;" horiz-adv-x="618" d="M30 903q0 59 27 95.5t69 55.5t94 23.5t101 -1.5v12q0 33 -17 48.5t-55 15.5q-54 0 -95 -12t-68 -24l-37 179q17 9 42.5 18.5t56.5 18t65.5 13.5t70.5 5q119 0 182.5 -50.5t63.5 -146.5v-235q0 -33 30 -33q11 0 20 2.5t14 4.5l14 -141q-24 -9 -57.5 -14.5t-68.5 -5.5 q-48 0 -75.5 15.5t-45.5 38.5q-22 -18 -56 -36t-85 -18q-91 0 -140.5 43.5t-49.5 128.5zM227 921q0 -19 11 -27.5t30 -8.5q14 0 29.5 5.5t23.5 11.5v60q-46 10 -70 -1.5t-24 -39.5z" />
<glyph unicode="&#xab;" horiz-adv-x="1250" d="M90 512q50 49 105 109t112 126.5t113 136.5t107 138l214 -156q-61 -90 -143.5 -180t-167.5 -174q85 -84 167.5 -174t143.5 -180l-214 -156q-51 68 -107 138t-113 136.5t-112 126.5t-105 109zM599 512q44 44 95.5 99.5t104.5 117t106 126.5t101 127l214 -156 q-57 -79 -127.5 -160t-153.5 -154q83 -73 153.5 -154t127.5 -160l-214 -156q-48 62 -101 127t-106 126.5t-104.5 117t-95.5 99.5z" />
<glyph unicode="&#xac;" horiz-adv-x="1218" d="M130 536v257h958v-513h-257v256h-701z" />
<glyph unicode="&#xad;" horiz-adv-x="872" d="M105 404v257h661v-257h-661z" />
<glyph unicode="&#xae;" horiz-adv-x="1600" d="M115 665q0 142 54 266.5t147 217.5t217.5 147t266.5 54t266.5 -54t217.5 -147t147 -217.5t54 -266.5t-54 -266.5t-147 -217.5t-217.5 -147t-266.5 -54t-266.5 54t-217.5 147t-147 217.5t-54 266.5zM288 665q0 -106 40 -199.5t109.5 -163t163 -109.5t199.5 -40 q107 0 200 40t162.5 109.5t109.5 163t40 199.5q0 107 -40 200t-109.5 162.5t-162.5 109.5t-200 40q-106 0 -199.5 -40t-163 -109.5t-109.5 -162.5t-40 -200zM514 329v672h307q64 0 116.5 -14.5t89.5 -43t57.5 -71t20.5 -97.5q0 -61 -27.5 -108t-72.5 -79l123 -259h-266 l-68 208h-51v-208h-229zM743 683h19q50 0 72 21.5t22 59.5t-21.5 56.5t-62.5 18.5h-29v-156z" />
<glyph unicode="&#xaf;" horiz-adv-x="892" d="M115 1232v237h662v-237h-662z" />
<glyph unicode="&#xb0;" horiz-adv-x="607" d="M30 1078q0 56 20 105.5t56.5 86.5t88 58.5t115.5 21.5q59 0 108.5 -21t84.5 -56.5t54.5 -82.5t19.5 -100q0 -56 -19.5 -105.5t-56 -86t-88.5 -58t-116 -21.5q-59 0 -108 21t-84.5 56.5t-55 82.5t-19.5 99zM234 1088q0 -33 19 -56t54 -23q30 0 47.5 21t17.5 50 q0 33 -18.5 56t-54.5 23q-30 0 -47.5 -21t-17.5 -50z" />
<glyph unicode="&#xb1;" horiz-adv-x="1214" d="M140 20v237h870v-237h-870zM140 737v237h317v306h237v-306h316v-237h-316v-325h-237v325h-317z" />
<glyph unicode="&#xb2;" horiz-adv-x="529" d="M20 1294q9 7 31 16.5t51.5 18.5t65.5 15t74 6q65 0 112 -15t77 -42t44.5 -64t14.5 -81q0 -39 -14 -71t-40 -57.5t-61.5 -45.5t-79.5 -37h214v-186h-487v176q55 29 98 52t72 43t44.5 40t15.5 42q0 24 -12.5 37.5t-37.5 13.5q-21 0 -41.5 -4t-39 -9t-33.5 -11t-24 -10z" />
<glyph unicode="&#xb3;" horiz-adv-x="518" d="M20 769l36 157q16 -6 51.5 -15.5t83.5 -9.5q42 0 60.5 9.5t18.5 30.5q0 39 -53 39h-101v124h118q5 5 10 13.5t5 20.5q0 17 -15.5 29.5t-53.5 12.5q-34 0 -66 -8t-52 -18l-36 154q8 5 26 12t43.5 14t58 11.5t69.5 4.5q131 0 194 -46t63 -126q0 -27 -7.5 -46.5t-18 -34 t-23 -24.5t-22.5 -17q11 -6 26.5 -16.5t29.5 -27t23.5 -39.5t9.5 -54q0 -95 -73.5 -141.5t-211.5 -46.5q-28 0 -58.5 4t-57 9.5t-47 12t-30.5 12.5z" />
<glyph unicode="&#xb4;" horiz-adv-x="860" d="M115 1298l507 275l123 -270l-561 -156z" />
<glyph unicode="&#xb6;" horiz-adv-x="1259" d="M35 896q0 111 38.5 193t109 135.5t170.5 79.5t224 26h622v-268h-160v-1030q0 -114 -29.5 -198t-83 -139.5t-128 -83t-165.5 -27.5q-108 0 -173.5 16.5t-90.5 28.5l42 247q19 -5 59 -12.5t100 -6.5q72 1 106.5 36t34.5 110v140h328l-328 1v918h-134v-616q-124 0 -224 28.5 t-170.5 85t-109 141t-38.5 195.5z" />
<glyph unicode="&#xb7;" horiz-adv-x="618" d="M130 504q0 95 51.5 141t136.5 46q75 0 122.5 -43.5t47.5 -125.5q0 -96 -51.5 -141.5t-136.5 -45.5q-75 0 -122.5 43.5t-47.5 125.5z" />
<glyph unicode="&#xb8;" horiz-adv-x="605" d="M83 -561l19 154q14 -4 31 -7t43 -3q49 0 78 18t29 57q0 40 -28.5 54.5t-76.5 14.5h-53l11 167h127q55 0 103.5 -13.5t85 -42t57.5 -71.5t21 -103q0 -69 -25 -116t-68 -75.5t-100 -41t-121 -12.5q-46 0 -81.5 6t-51.5 14z" />
<glyph unicode="&#xb9;" horiz-adv-x="566" d="M25 1307q30 4 64.5 9t70 10.5t71 11.5t66.5 12h115v-413l129 -4v-182h-512v182l151 4v202q-11 -2 -29 -4.5t-37.5 -5t-38 -4.5t-31.5 -3z" />
<glyph unicode="&#xba;" horiz-adv-x="693" d="M30 1034q0 69 22.5 127t64 100t101.5 65.5t135 23.5q71 0 128 -23.5t97.5 -64.5t62.5 -96.5t22 -119.5q0 -69 -22 -127t-64 -99.5t-102 -65t-135 -23.5q-70 0 -127.5 23.5t-98 64.5t-62.5 96.5t-22 118.5zM272 1043q0 -49 16 -82t61 -33q41 0 56 31t15 78q0 25 -3.5 46 t-12 36.5t-23.5 24t-38 8.5q-41 0 -56 -31t-15 -78z" />
<glyph unicode="&#xbb;" horiz-adv-x="1250" d="M50 199q57 79 127.5 160t153.5 154q-83 73 -153.5 154t-127.5 160l214 156q48 -62 101 -126.5t106 -126t104.5 -117.5t95.5 -100q-44 -44 -95.5 -99.5t-104.5 -117t-106 -126.5t-101 -127zM529 159q61 90 143.5 180t167.5 174q-85 84 -167.5 174t-143.5 180l214 156 q51 -68 107 -138t113 -136.5t112.5 -126.5t104.5 -109q-49 -49 -104.5 -109t-112.5 -126.5t-113 -136.5t-107 -138z" />
<glyph unicode="&#xbf;" horiz-adv-x="822" d="M35 26q0 50 20.5 96.5t51 87.5t65.5 76.5t64 62.5q26 24 50 48.5t42 48.5t28.5 49t8.5 51l-2 31l228 17q5 -7 10.5 -17t11 -23.5t9 -32.5t3.5 -46q0 -57 -31 -103.5t-85 -99.5q-25 -25 -53 -52.5t-51 -55t-38 -54.5t-15 -51q0 -60 38 -93.5t119 -33.5q40 0 78.5 6 t71.5 14.5t57 17.5t36 15l60 -227q-22 -12 -55 -26.5t-77 -27.5t-100 -21.5t-123 -8.5q-101 0 -179.5 27.5t-132.5 75t-82 111.5t-28 138zM287 857q0 95 51.5 141t136.5 46q75 0 122.5 -43.5t47.5 -125.5q0 -96 -51.5 -141.5t-136.5 -45.5q-75 0 -122.5 43.5t-47.5 125.5z " />
<glyph unicode="&#xc0;" horiz-adv-x="1341" d="M0 0l519 1330h302l520 -1330h-350l-97 279h-447l-97 -279h-350zM335 1603l123 270l507 -275l-69 -151zM533 527h274l-132 381h-10z" />
<glyph unicode="&#xc1;" horiz-adv-x="1341" d="M0 0l519 1330h302l520 -1330h-350l-97 279h-447l-97 -279h-350zM365 1598l507 275l123 -270l-561 -156zM533 527h274l-132 381h-10z" />
<glyph unicode="&#xc2;" horiz-adv-x="1341" d="M0 0l519 1330h302l520 -1330h-350l-97 279h-447l-97 -279h-350zM294 1615q38 26 84.5 57.5t96 65.5t99.5 69t96 68q46 -33 96 -68t99.5 -69t96 -65.5t84.5 -57.5l-159 -190q-25 19 -54 43t-58.5 49t-56.5 49t-48 44q-21 -20 -48 -44t-56.5 -49t-58.5 -49t-54 -43z M533 527h274l-132 381h-10z" />
<glyph unicode="&#xc3;" horiz-adv-x="1341" d="M0 0l519 1330h302l520 -1330h-350l-97 279h-447l-97 -279h-350zM278 1590q8 33 28.5 73t53.5 75t79 58.5t106 23.5q39 0 74 -12t66 -27t58.5 -27t50.5 -12q32 0 54.5 22t59.5 65l155 -110q-12 -40 -34.5 -81t-57.5 -74t-82.5 -53.5t-108.5 -20.5q-32 0 -63.5 12t-61.5 27 t-58 27t-53 12q-31 0 -53.5 -22t-57.5 -65zM533 527h274l-132 381h-10z" />
<glyph unicode="&#xc4;" horiz-adv-x="1341" d="M0 0l519 1330h302l520 -1330h-350l-102 294h-437l-102 -294h-350zM263 1641q0 95 51.5 141t136.5 46q75 0 122.5 -43.5t47.5 -125.5q0 -96 -51.5 -141.5t-136.5 -45.5q-75 0 -122.5 43.5t-47.5 125.5zM538 542h264l-127 366h-10zM719 1641q0 95 51.5 141t136.5 46 q75 0 122.5 -43.5t47.5 -125.5q0 -96 -51.5 -141.5t-136.5 -45.5q-75 0 -122.5 43.5t-47.5 125.5z" />
<glyph unicode="&#xc5;" horiz-adv-x="1341" d="M0 0l519 1330h302l520 -1330h-350l-97 279h-447l-97 -279h-350zM409 1639q0 64 19.5 111t55.5 77.5t86 45.5t111 15q56 0 102 -14.5t79 -43.5t51 -71t18 -98q0 -64 -19.5 -111t-55.5 -77.5t-86 -45.5t-111 -15q-55 0 -101 14.5t-79 43.5t-51.5 71.5t-18.5 97.5zM533 527 h274l-132 381h-10zM604 1647q0 -31 17 -47t46 -16q32 0 50.5 17t18.5 52q0 31 -17 47t-46 16q-32 0 -50.5 -17t-18.5 -52z" />
<glyph unicode="&#xc6;" horiz-adv-x="1919" d="M-10 0l981 1330h858v-268h-510v-262h480v-258h-480v-274h530v-268h-848v279h-456l-206 -279h-349zM728 527h273v370z" />
<glyph unicode="&#xc7;" horiz-adv-x="1156" d="M55 661q0 156 49 283.5t140 217.5t220 139t288 49q46 0 94 -5.5t93 -16t85 -25t69 -31.5l-69 -247q-131 52 -261 52q-85 0 -151.5 -27t-111.5 -78.5t-68.5 -126t-23.5 -169.5q0 -96 24 -174.5t67.5 -133.5t105.5 -85t138 -30q73 0 149 15t145 47l79 -242 q-34 -20 -76.5 -37t-90.5 -29.5t-98 -19.5t-99 -7q-164 0 -293.5 46.5t-219 134t-137 214t-47.5 286.5zM453 -561l19 154q14 -4 31 -7t43 -3q49 0 78 18t29 57q0 40 -28.5 54.5t-76.5 14.5h-53l11 167h127q55 0 103.5 -13.5t85 -42t57.5 -71.5t21 -103q0 -69 -25 -116 t-68 -75.5t-100 -41t-121 -12.5q-46 0 -81.5 6t-51.5 14z" />
<glyph unicode="&#xc8;" horiz-adv-x="1063" d="M115 0v1330h858v-268h-530v-262h500v-258h-500v-274h550v-268h-878zM219 1603l123 270l507 -275l-69 -151z" />
<glyph unicode="&#xc9;" horiz-adv-x="1063" d="M115 0v1330h858v-268h-530v-262h500v-258h-500v-274h550v-268h-878zM259 1598l507 275l123 -270l-561 -156z" />
<glyph unicode="&#xca;" horiz-adv-x="1063" d="M115 0v1330h858v-268h-530v-262h500v-258h-500v-274h550v-268h-878zM178 1615q38 26 84.5 57.5t96 65.5t99.5 69t96 68q46 -33 96 -68t99.5 -69t96 -65.5t84.5 -57.5l-159 -190q-25 19 -54 43t-58.5 49t-56.5 49t-48 44q-21 -20 -48 -44t-56.5 -49t-58.5 -49t-54 -43z " />
<glyph unicode="&#xcb;" horiz-adv-x="1063" d="M115 0v1330h858v-268h-530v-262h500v-258h-500v-274h550v-268h-878zM147 1641q0 95 51.5 141t136.5 46q75 0 122.5 -43.5t47.5 -125.5q0 -96 -51.5 -141.5t-136.5 -45.5q-75 0 -122.5 43.5t-47.5 125.5zM603 1641q0 95 51.5 141t136.5 46q75 0 122.5 -43.5t47.5 -125.5 q0 -96 -51.5 -141.5t-136.5 -45.5q-75 0 -122.5 43.5t-47.5 125.5z" />
<glyph unicode="&#xcc;" d="M-66 1603l123 270l507 -275l-69 -151zM115 0v1330h328v-1330h-328z" />
<glyph unicode="&#xcd;" d="M-16 1598l507 275l123 -270l-561 -156zM115 0v1330h328v-1330h-328z" />
<glyph unicode="&#xce;" d="M-97 1615q38 26 84.5 57.5t96 65.5t99.5 69t96 68q46 -33 96 -68t99.5 -69t96 -65.5t84.5 -57.5l-159 -190q-25 19 -54 43t-58.5 49t-56.5 49t-48 44q-21 -20 -48 -44t-56.5 -49t-58.5 -49t-54 -43zM115 0v1330h328v-1330h-328z" />
<glyph unicode="&#xcf;" d="M-108 1641q0 95 51.5 141t136.5 46q75 0 122.5 -43.5t47.5 -125.5q0 -96 -51.5 -141.5t-136.5 -45.5q-75 0 -122.5 43.5t-47.5 125.5zM115 0v1330h328v-1330h-328zM308 1641q0 95 51.5 141t136.5 46q75 0 122.5 -43.5t47.5 -125.5q0 -96 -51.5 -141.5t-136.5 -45.5 q-75 0 -122.5 43.5t-47.5 125.5z" />
<glyph unicode="&#xd0;" horiz-adv-x="1374" d="M-3 595v143h164v592h459q164 0 293.5 -45.5t219.5 -130.5t138 -206t48 -272q0 -159 -46 -284.5t-134 -212.5t-215.5 -133t-290.5 -46h-472v595h-164zM489 253h132q83 0 147.5 29.5t108.5 83.5t66.5 129t22.5 166q0 101 -23.5 178.5t-67 130t-105 80t-138.5 27.5h-143 v-339h249v-143h-249v-342z" />
<glyph unicode="&#xd1;" horiz-adv-x="1380" d="M115 0v1330h340l487 -810v810h323v-1330h-340l-487 809v-809h-323zM288 1590q8 33 28.5 73t53.5 75t79 58.5t106 23.5q39 0 74 -12t66 -27t58.5 -27t50.5 -12q32 0 54.5 22t59.5 65l155 -110q-12 -40 -34.5 -81t-57.5 -74t-82.5 -53.5t-108.5 -20.5q-32 0 -63.5 12 t-61.5 27t-58 27t-53 12q-31 0 -53.5 -22t-57.5 -65z" />
<glyph unicode="&#xd2;" horiz-adv-x="1436" d="M55 661q0 152 46 279t132 218t210 141.5t281 50.5q156 0 278.5 -48.5t206.5 -138t128 -215t44 -279.5q0 -152 -45.5 -279t-132 -218t-210.5 -141.5t-281 -50.5q-156 0 -278.5 49t-206.5 138t-128 214.5t-44 279.5zM393 1603l123 270l507 -275l-69 -151zM408 676 q0 -100 22 -181t63 -138t99 -88t131 -31q66 0 122 27.5t96.5 80.5t63.5 130.5t23 177.5q0 101 -22 182t-63 138t-99 87.5t-131 30.5q-66 0 -122 -27.5t-96.5 -80.5t-63.5 -130.5t-23 -177.5z" />
<glyph unicode="&#xd3;" horiz-adv-x="1436" d="M55 661q0 152 46 279t132 218t210 141.5t281 50.5q156 0 278.5 -48.5t206.5 -138t128 -215t44 -279.5q0 -152 -45.5 -279t-132 -218t-210.5 -141.5t-281 -50.5q-156 0 -278.5 49t-206.5 138t-128 214.5t-44 279.5zM403 1598l507 275l123 -270l-561 -156zM408 676 q0 -100 22 -181t63 -138t99 -88t131 -31q66 0 122 27.5t96.5 80.5t63.5 130.5t23 177.5q0 101 -22 182t-63 138t-99 87.5t-131 30.5q-66 0 -122 -27.5t-96.5 -80.5t-63.5 -130.5t-23 -177.5z" />
<glyph unicode="&#xd4;" horiz-adv-x="1436" d="M55 661q0 152 46 279t132 218t210 141.5t281 50.5q156 0 278.5 -48.5t206.5 -138t128 -215t44 -279.5q0 -152 -45.5 -279t-132 -218t-210.5 -141.5t-281 -50.5q-156 0 -278.5 49t-206.5 138t-128 214.5t-44 279.5zM342 1615q38 26 84.5 57.5t96 65.5t99.5 69t96 68 q46 -33 96 -68t99.5 -69t96 -65.5t84.5 -57.5l-159 -190q-25 19 -54 43t-58.5 49t-56.5 49t-48 44q-21 -20 -48 -44t-56.5 -49t-58.5 -49t-54 -43zM408 676q0 -100 22 -181t63 -138t99 -88t131 -31q66 0 122 27.5t96.5 80.5t63.5 130.5t23 177.5q0 101 -22 182t-63 138 t-99 87.5t-131 30.5q-66 0 -122 -27.5t-96.5 -80.5t-63.5 -130.5t-23 -177.5z" />
<glyph unicode="&#xd5;" horiz-adv-x="1436" d="M55 661q0 152 46 279t132 218t210 141.5t281 50.5q156 0 278.5 -48.5t206.5 -138t128 -215t44 -279.5q0 -152 -45.5 -279t-132 -218t-210.5 -141.5t-281 -50.5q-156 0 -278.5 49t-206.5 138t-128 214.5t-44 279.5zM326 1590q8 33 28.5 73t53.5 75t79 58.5t106 23.5 q39 0 74 -12t66 -27t58.5 -27t50.5 -12q32 0 54.5 22t59.5 65l155 -110q-12 -40 -34.5 -81t-57.5 -74t-82.5 -53.5t-108.5 -20.5q-32 0 -63.5 12t-61.5 27t-58 27t-53 12q-31 0 -53.5 -22t-57.5 -65zM408 676q0 -100 22 -181t63 -138t99 -88t131 -31q66 0 122 27.5 t96.5 80.5t63.5 130.5t23 177.5q0 101 -22 182t-63 138t-99 87.5t-131 30.5q-66 0 -122 -27.5t-96.5 -80.5t-63.5 -130.5t-23 -177.5z" />
<glyph unicode="&#xd6;" horiz-adv-x="1436" d="M55 661q0 152 46 279t132 218t210 141.5t281 50.5q156 0 278.5 -48.5t206.5 -138t128 -215t44 -279.5q0 -152 -45.5 -279t-132 -218t-210.5 -141.5t-281 -50.5q-156 0 -278.5 49t-206.5 138t-128 214.5t-44 279.5zM311 1641q0 95 51.5 141t136.5 46q75 0 122.5 -43.5 t47.5 -125.5q0 -96 -51.5 -141.5t-136.5 -45.5q-75 0 -122.5 43.5t-47.5 125.5zM408 676q0 -100 22 -181t63 -138t99 -88t131 -31q66 0 122 27.5t96.5 80.5t63.5 130.5t23 177.5q0 101 -22 182t-63 138t-99 87.5t-131 30.5q-66 0 -122 -27.5t-96.5 -80.5t-63.5 -130.5 t-23 -177.5zM767 1641q0 95 51.5 141t136.5 46q75 0 122.5 -43.5t47.5 -125.5q0 -96 -51.5 -141.5t-136.5 -45.5q-75 0 -122.5 43.5t-47.5 125.5z" />
<glyph unicode="&#xd7;" horiz-adv-x="1140" d="M115 391l274 274l-273 273l182 182l273 -273l273 273l181 -182l-273 -273l273 -272l-182 -182l-273 272l-273 -273z" />
<glyph unicode="&#xd8;" horiz-adv-x="1436" d="M55 661q0 152 46 279t132 218t210 141.5t281 50.5q88 0 163.5 -15.5t141.5 -44.5l127 201l127 -69l-131 -207q112 -89 170.5 -228t58.5 -318q0 -152 -45.5 -279t-132 -218t-210.5 -141.5t-281 -50.5q-173 0 -305 59l-127 -200l-127 69l131 206q-112 90 -170.5 229 t-58.5 318zM408 676q0 -83 14.5 -152t42.5 -123l407 643q-70 48 -159 48q-66 0 -122 -27.5t-96.5 -80.5t-63.5 -130.5t-23 -177.5zM563 286q70 -48 160 -48q66 0 122 27.5t96.5 80.5t63.5 130.5t23 177.5q0 82 -15 151t-43 123z" />
<glyph unicode="&#xd9;" horiz-adv-x="1290" d="M95 525v805h328v-795q0 -82 16 -139t46 -92t71.5 -50.5t92.5 -15.5t91.5 15t68.5 48t43 85t15 126v818h328v-805q0 -129 -39 -230t-111.5 -171t-175.5 -107t-231 -37t-229 35.5t-170.5 105t-106.5 171t-37 233.5zM315 1603l123 270l507 -275l-69 -151z" />
<glyph unicode="&#xda;" horiz-adv-x="1290" d="M95 525v805h328v-795q0 -82 16 -139t46 -92t71.5 -50.5t92.5 -15.5t91.5 15t68.5 48t43 85t15 126v818h328v-805q0 -129 -39 -230t-111.5 -171t-175.5 -107t-231 -37t-229 35.5t-170.5 105t-106.5 171t-37 233.5zM335 1598l507 275l123 -270l-561 -156z" />
<glyph unicode="&#xdb;" horiz-adv-x="1290" d="M95 525v805h328v-795q0 -82 16 -139t46 -92t71.5 -50.5t92.5 -15.5t91.5 15t68.5 48t43 85t15 126v818h328v-805q0 -129 -39 -230t-111.5 -171t-175.5 -107t-231 -37t-229 35.5t-170.5 105t-106.5 171t-37 233.5zM274 1615q38 26 84.5 57.5t96 65.5t99.5 69t96 68 q46 -33 96 -68t99.5 -69t96 -65.5t84.5 -57.5l-159 -190q-25 19 -54 43t-58.5 49t-56.5 49t-48 44q-21 -20 -48 -44t-56.5 -49t-58.5 -49t-54 -43z" />
<glyph unicode="&#xdc;" horiz-adv-x="1290" d="M95 525v805h328v-795q0 -82 16 -139t46 -92t71.5 -50.5t92.5 -15.5t91.5 15t68.5 48t43 85t15 126v818h328v-805q0 -129 -39 -230t-111.5 -171t-175.5 -107t-231 -37t-229 35.5t-170.5 105t-106.5 171t-37 233.5zM243 1641q0 95 51.5 141t136.5 46q75 0 122.5 -43.5 t47.5 -125.5q0 -96 -51.5 -141.5t-136.5 -45.5q-75 0 -122.5 43.5t-47.5 125.5zM699 1641q0 95 51.5 141t136.5 46q75 0 122.5 -43.5t47.5 -125.5q0 -96 -51.5 -141.5t-136.5 -45.5q-75 0 -122.5 43.5t-47.5 125.5z" />
<glyph unicode="&#xdd;" horiz-adv-x="1222" d="M0 1330h356l255 -527l255 527h356l-447 -836v-494h-328v494zM306 1598l507 275l123 -270l-561 -156z" />
<glyph unicode="&#xde;" horiz-adv-x="1134" d="M115 0v1330h328v-222h126q254 0 387 -103t133 -321q0 -114 -38.5 -200t-106 -144t-158.5 -87t-197 -29h-146v-224h-328zM443 477h116q98 0 142.5 52.5t44.5 141.5q0 91 -43.5 138t-123.5 47h-136v-379z" />
<glyph unicode="&#xdf;" horiz-adv-x="1248" d="M115 0v1043q0 89 31.5 168.5t96.5 139t165 94.5t237 35q120 0 210 -29t150.5 -77.5t91 -111.5t30.5 -131q0 -48 -15.5 -88t-39.5 -74t-53.5 -63.5t-57.5 -56.5q-44 -42 -66 -69t-22 -58q0 -17 13 -34t35.5 -35.5t52 -38.5t63.5 -44q41 -28 77 -57t64 -62.5t44 -73.5 t16 -92q0 -71 -27.5 -127.5t-80 -96t-127.5 -60.5t-170 -21q-113 0 -186 20.5t-115 44.5l43 236q21 -9 48 -18.5t57 -17t61.5 -12.5t60.5 -5q54 0 81.5 11.5t27.5 43.5q0 17 -13.5 33.5t-36.5 34t-53 37.5t-64 43q-39 27 -72 52.5t-56.5 55t-36.5 65.5t-13 85q0 38 9 70.5 t25 60.5t36.5 53.5t42.5 49.5q21 23 42.5 44.5t39 43.5t28 45.5t10.5 50.5q0 50 -44.5 85t-127.5 35q-41 0 -75 -14t-58 -40t-37.5 -63t-13.5 -83v-1027h-328z" />
<glyph unicode="&#xe0;" horiz-adv-x="961" d="M20 270q0 85 36 146.5t102 98t160 48.5t210 -1v92q0 66 -32.5 96.5t-108.5 30.5q-37 0 -75 -5.5t-73.5 -14.5t-65.5 -20t-53 -22l-58 230q28 15 69.5 32t90.5 31t102.5 23t105.5 9q198 0 302 -87t104 -252v-421q0 -30 12 -43t33 -13q20 0 35.5 3.5t29.5 7.5l25 -224 q-38 -16 -83 -25.5t-99 -9.5q-58 0 -109.5 19.5t-81.5 72.5q-54 -45 -117 -68.5t-126 -23.5q-75 0 -137 21t-106 59t-68 91.5t-24 118.5zM155 1303l123 270l507 -275l-69 -151zM324 301q0 -45 26 -68t70 -23q27 0 55 8t53 21v153q-100 17 -152 -8t-52 -83z" />
<glyph unicode="&#xe1;" horiz-adv-x="961" d="M20 270q0 85 36 146.5t102 98t160 48.5t210 -1v92q0 66 -32.5 96.5t-108.5 30.5q-37 0 -75 -5.5t-73.5 -14.5t-65.5 -20t-53 -22l-58 230q28 15 69.5 32t90.5 31t102.5 23t105.5 9q198 0 302 -87t104 -252v-421q0 -30 12 -43t33 -13q20 0 35.5 3.5t29.5 7.5l25 -224 q-38 -16 -83 -25.5t-99 -9.5q-58 0 -109.5 19.5t-81.5 72.5q-54 -45 -117 -68.5t-126 -23.5q-75 0 -137 21t-106 59t-68 91.5t-24 118.5zM137 1298l507 275l123 -270l-561 -156zM324 301q0 -45 26 -68t70 -23q27 0 55 8t53 21v153q-100 17 -152 -8t-52 -83z" />
<glyph unicode="&#xe2;" horiz-adv-x="961" d="M20 270q0 85 36 146.5t102 98t160 48.5t210 -1v92q0 66 -32.5 96.5t-108.5 30.5q-37 0 -75 -5.5t-73.5 -14.5t-65.5 -20t-53 -22l-58 230q28 15 69.5 32t90.5 31t102.5 23t105.5 9q198 0 302 -87t104 -252v-421q0 -30 12 -43t33 -13q20 0 35.5 3.5t29.5 7.5l25 -224 q-38 -16 -83 -25.5t-99 -9.5q-58 0 -109.5 19.5t-81.5 72.5q-54 -45 -117 -68.5t-126 -23.5q-75 0 -137 21t-106 59t-68 91.5t-24 118.5zM77 1315q38 26 84.5 57.5t96 65.5t99.5 69t96 68q46 -33 96 -68t99.5 -69t96 -65.5t84.5 -57.5l-159 -190q-25 19 -54 43t-58.5 49 t-56.5 49t-48 44q-21 -20 -48 -44t-56.5 -49t-58.5 -49t-54 -43zM324 301q0 -45 26 -68t70 -23q27 0 55 8t53 21v153q-100 17 -152 -8t-52 -83z" />
<glyph unicode="&#xe3;" horiz-adv-x="961" d="M20 270q0 85 36 146.5t102 98t160 48.5t210 -1v92q0 66 -32.5 96.5t-108.5 30.5q-37 0 -75 -5.5t-73.5 -14.5t-65.5 -20t-53 -22l-58 230q28 15 69.5 32t90.5 31t102.5 23t105.5 9q198 0 302 -87t104 -252v-421q0 -30 12 -43t33 -13q20 0 35.5 3.5t29.5 7.5l25 -224 q-38 -16 -83 -25.5t-99 -9.5q-58 0 -109.5 19.5t-81.5 72.5q-54 -45 -117 -68.5t-126 -23.5q-75 0 -137 21t-106 59t-68 91.5t-24 118.5zM40 1290q8 33 28.5 73t53.5 75t79 58.5t106 23.5q39 0 74 -12t66 -27t58.5 -27t50.5 -12q32 0 54.5 22t59.5 65l155 -110 q-12 -40 -34.5 -81t-57.5 -74t-82.5 -53.5t-108.5 -20.5q-32 0 -63.5 12t-61.5 27t-58 27t-53 12q-31 0 -53.5 -22t-57.5 -65zM324 301q0 -45 26 -68t70 -23q27 0 55 8t53 21v153q-100 17 -152 -8t-52 -83z" />
<glyph unicode="&#xe4;" horiz-adv-x="961" d="M20 270q0 85 36 146.5t102 98t160 48.5t210 -1v92q0 66 -32.5 96.5t-108.5 30.5q-37 0 -75 -5.5t-73.5 -14.5t-65.5 -20t-53 -22l-58 230q28 15 69.5 32t90.5 31t102.5 23t105.5 9q198 0 302 -87t104 -252v-421q0 -30 12 -43t33 -13q20 0 35.5 3.5t29.5 7.5l25 -224 q-38 -16 -83 -25.5t-99 -9.5q-58 0 -109.5 19.5t-81.5 72.5q-54 -45 -117 -68.5t-126 -23.5q-75 0 -137 21t-106 59t-68 91.5t-24 118.5zM73 1341q0 95 51.5 141t136.5 46q75 0 122.5 -43.5t47.5 -125.5q0 -96 -51.5 -141.5t-136.5 -45.5q-75 0 -122.5 43.5t-47.5 125.5z M324 301q0 -45 26 -68t70 -23q27 0 55 8t53 21v153q-100 17 -152 -8t-52 -83zM529 1341q0 95 51.5 141t136.5 46q75 0 122.5 -43.5t47.5 -125.5q0 -96 -51.5 -141.5t-136.5 -45.5q-75 0 -122.5 43.5t-47.5 125.5z" />
<glyph unicode="&#xe5;" horiz-adv-x="961" d="M20 270q0 85 36 146.5t102 98t160 48.5t210 -1v92q0 66 -32.5 96.5t-108.5 30.5q-37 0 -75 -5.5t-73.5 -14.5t-65.5 -20t-53 -22l-58 230q28 15 69.5 32t90.5 31t102.5 23t105.5 9q198 0 302 -87t104 -252v-421q0 -30 12 -43t33 -13q20 0 35.5 3.5t29.5 7.5l25 -224 q-38 -16 -83 -25.5t-99 -9.5q-58 0 -109.5 19.5t-81.5 72.5q-54 -45 -117 -68.5t-126 -23.5q-75 0 -137 21t-106 59t-68 91.5t-24 118.5zM189 1339q0 64 19.5 111t55.5 77.5t86 45.5t111 15q56 0 102 -14.5t79 -43.5t51 -71t18 -98q0 -64 -19.5 -111t-55.5 -77.5t-86 -45.5 t-111 -15q-55 0 -101 14.5t-79 43.5t-51.5 71.5t-18.5 97.5zM324 301q0 -45 26 -68t70 -23q27 0 55 8t53 21v153q-100 17 -152 -8t-52 -83zM384 1347q0 -31 17 -47t46 -16q32 0 50.5 17t18.5 52q0 31 -17 47t-46 16q-32 0 -50.5 -17t-18.5 -52z" />
<glyph unicode="&#xe6;" horiz-adv-x="1473" d="M25 285q0 79 39 135.5t107 92t159.5 52t197.5 15.5v74q0 66 -33.5 96.5t-112.5 30.5q-37 0 -75 -5.5t-73.5 -14.5t-65.5 -20t-53 -22l-58 230q28 15 69.5 32t90.5 31t102.5 23t105.5 9q100 0 176 -26t128 -76q60 49 135.5 75.5t165.5 26.5q98 0 174 -28.5t128 -80 t79 -122t27 -154.5q0 -70 -8.5 -120t-22.5 -86l-561 -17q11 -101 68.5 -147t156.5 -46q93 0 160.5 19.5t112.5 36.5l69 -232q-24 -12 -59.5 -27t-83 -28.5t-107.5 -22.5t-133 -9q-99 0 -185 35t-150 100q-36 -28 -77 -53t-85 -43t-90.5 -28.5t-92.5 -10.5q-72 0 -131.5 20 t-102.5 59t-67 96t-24 130zM329 311q0 -52 25 -76.5t61 -24.5q29 0 58 8t55 21v187q-102 3 -150.5 -27.5t-48.5 -87.5zM849 601l275 9q8 43 3.5 79t-20 62t-41 40.5t-61.5 14.5q-70 0 -109.5 -50t-46.5 -155z" />
<glyph unicode="&#xe7;" horiz-adv-x="873" d="M35 502q0 122 35.5 221.5t102.5 171t164.5 110.5t221.5 39q55 0 102.5 -7.5t86.5 -18.5t68.5 -23.5t47.5 -23.5l-60 -237q-7 3 -27 10.5t-47.5 16t-61 14.5t-68.5 6q-114 0 -170.5 -68.5t-56.5 -194.5q0 -135 52 -205t165 -70q38 0 74 6t65.5 14t50.5 15.5t29 11.5 l69 -232q-23 -13 -56.5 -27t-76 -25.5t-94.5 -18.5t-112 -7q-118 0 -212 38t-158.5 107t-99 165t-34.5 212zM282 -561l19 154q14 -4 31 -7t43 -3q49 0 78 18t29 57q0 40 -28.5 54.5t-76.5 14.5h-53l11 167h127q55 0 103.5 -13.5t85 -42t57.5 -71.5t21 -103q0 -69 -25 -116 t-68 -75.5t-100 -41t-121 -12.5q-46 0 -81.5 6t-51.5 14z" />
<glyph unicode="&#xe8;" horiz-adv-x="997" d="M35 502q0 122 35.5 221.5t101.5 171t161.5 110.5t215.5 39q99 0 176 -28.5t129.5 -80t80 -122t27.5 -154.5q0 -70 -8.5 -124t-22.5 -90h-571q10 -107 69.5 -154.5t160.5 -47.5q95 0 163.5 19.5t114.5 36.5l69 -232q-24 -12 -60 -27t-84 -28.5t-109 -22.5t-135 -9 q-121 0 -216.5 38t-161.5 107t-101 165t-35 212zM200 1303l123 270l507 -275l-69 -151zM363 618h285q8 41 3.5 75.5t-20.5 59.5t-43 39t-64 14q-72 0 -112 -45.5t-49 -142.5z" />
<glyph unicode="&#xe9;" horiz-adv-x="997" d="M35 502q0 122 35.5 221.5t101.5 171t161.5 110.5t215.5 39q99 0 176 -28.5t129.5 -80t80 -122t27.5 -154.5q0 -70 -8.5 -124t-22.5 -90h-571q10 -107 69.5 -154.5t160.5 -47.5q95 0 163.5 19.5t114.5 36.5l69 -232q-24 -12 -60 -27t-84 -28.5t-109 -22.5t-135 -9 q-121 0 -216.5 38t-161.5 107t-101 165t-35 212zM210 1298l507 275l123 -270l-561 -156zM363 618h285q8 41 3.5 75.5t-20.5 59.5t-43 39t-64 14q-72 0 -112 -45.5t-49 -142.5z" />
<glyph unicode="&#xea;" horiz-adv-x="997" d="M35 502q0 122 35.5 221.5t101.5 171t161.5 110.5t215.5 39q99 0 176 -28.5t129.5 -80t80 -122t27.5 -154.5q0 -70 -8.5 -124t-22.5 -90h-571q10 -107 69.5 -154.5t160.5 -47.5q95 0 163.5 19.5t114.5 36.5l69 -232q-24 -12 -60 -27t-84 -28.5t-109 -22.5t-135 -9 q-121 0 -216.5 38t-161.5 107t-101 165t-35 212zM139 1315q38 26 84.5 57.5t96 65.5t99.5 69t96 68q46 -33 96 -68t99.5 -69t96 -65.5t84.5 -57.5l-159 -190q-25 19 -54 43t-58.5 49t-56.5 49t-48 44q-21 -20 -48 -44t-56.5 -49t-58.5 -49t-54 -43zM363 618h285 q8 41 3.5 75.5t-20.5 59.5t-43 39t-64 14q-72 0 -112 -45.5t-49 -142.5z" />
<glyph unicode="&#xeb;" horiz-adv-x="997" d="M35 502q0 122 35.5 221.5t101.5 171t161.5 110.5t215.5 39q99 0 176 -28.5t129.5 -80t80 -122t27.5 -154.5q0 -70 -8.5 -124t-22.5 -90h-571q10 -107 69.5 -154.5t160.5 -47.5q95 0 163.5 19.5t114.5 36.5l69 -232q-24 -12 -60 -27t-84 -28.5t-109 -22.5t-135 -9 q-121 0 -216.5 38t-161.5 107t-101 165t-35 212zM108 1341q0 95 51.5 141t136.5 46q75 0 122.5 -43.5t47.5 -125.5q0 -96 -51.5 -141.5t-136.5 -45.5q-75 0 -122.5 43.5t-47.5 125.5zM363 618h285q8 41 3.5 75.5t-20.5 59.5t-43 39t-64 14q-72 0 -112 -45.5t-49 -142.5z M564 1341q0 95 51.5 141t136.5 46q75 0 122.5 -43.5t47.5 -125.5q0 -96 -51.5 -141.5t-136.5 -45.5q-75 0 -122.5 43.5t-47.5 125.5z" />
<glyph unicode="&#xec;" d="M-56 1303l123 270l507 -275l-69 -151zM115 0v1024h328v-1024h-328z" />
<glyph unicode="&#xed;" d="M14 1298l507 275l123 -270l-561 -156zM115 0v1024h328v-1024h-328z" />
<glyph unicode="&#xee;" d="M-97 1315q38 26 84.5 57.5t96 65.5t99.5 69t96 68q46 -33 96 -68t99.5 -69t96 -65.5t84.5 -57.5l-159 -190q-25 19 -54 43t-58.5 49t-56.5 49t-48 44q-21 -20 -48 -44t-56.5 -49t-58.5 -49t-54 -43zM115 0v1024h328v-1024h-328z" />
<glyph unicode="&#xef;" d="M-108 1341q0 95 51.5 141t136.5 46q75 0 122.5 -43.5t47.5 -125.5q0 -96 -51.5 -141.5t-136.5 -45.5q-75 0 -122.5 43.5t-47.5 125.5zM115 0v1024h328v-1024h-328zM308 1341q0 95 51.5 141t136.5 46q75 0 122.5 -43.5t47.5 -125.5q0 -96 -51.5 -141.5t-136.5 -45.5 q-75 0 -122.5 43.5t-47.5 125.5z" />
<glyph unicode="&#xf0;" horiz-adv-x="1136" d="M35 503q0 121 35 220.5t100.5 171t159.5 110.5t212 39q70 0 122 -25.5t90 -68.5q-33 164 -121 235l-60 -112l-124 63l53 100q-7 1 -14 1.5t-15 0.5q-39 0 -76.5 -6t-68.5 -14.5t-54 -16.5t-34 -13l-60 222q15 7 47 19t75 23t95 19.5t107 8.5q65 0 122 -12l68 128l125 -64 l-60 -111q94 -51 155.5 -137.5t97.5 -197t50 -237.5t14 -258q0 -147 -35.5 -261t-103 -192t-165.5 -118t-223 -40q-122 0 -217.5 38t-161.5 107t-100.5 165t-34.5 213zM373 518q0 -67 9.5 -122.5t31.5 -95t58 -61t88 -21.5t86 20t54.5 57.5t29 91t8.5 119.5v93 q-7 44 -21.5 82t-37 65.5t-54 43.5t-74.5 16q-49 0 -83 -21.5t-55 -60t-30.5 -91t-9.5 -115.5z" />
<glyph unicode="&#xf1;" horiz-adv-x="1166" d="M115 0v1024h264l33 -101q15 15 42.5 36t65 39.5t85 32t102.5 13.5q178 0 268.5 -89t90.5 -281v-674h-328v623q0 81 -30 117t-101 36q-19 0 -42 -4.5t-45.5 -12t-42.5 -18t-34 -21.5v-720h-328zM179 1290q8 33 28.5 73t53.5 75t79 58.5t106 23.5q39 0 74 -12t66 -27 t58.5 -27t50.5 -12q32 0 54.5 22t59.5 65l155 -110q-12 -40 -34.5 -81t-57.5 -74t-82.5 -53.5t-108.5 -20.5q-32 0 -63.5 12t-61.5 27t-58 27t-53 12q-31 0 -53.5 -22t-57.5 -65z" />
<glyph unicode="&#xf2;" horiz-adv-x="1111" d="M35 503q0 121 35.5 220.5t103 171t165.5 110.5t223 39q122 0 217.5 -38t161.5 -107t100.5 -165t34.5 -213q0 -121 -35.5 -220.5t-103 -171t-165.5 -110.5t-223 -39q-122 0 -217.5 38t-161.5 107t-100.5 165t-34.5 213zM230 1303l123 270l507 -275l-69 -151zM373 518 q0 -67 9.5 -122.5t31.5 -95t58 -61t88 -21.5q50 0 84 21.5t55 60t30 91t9 115.5q0 67 -9.5 122.5t-31.5 95t-57.5 61t-88.5 21.5q-49 0 -83 -21.5t-55 -60t-30.5 -91t-9.5 -115.5z" />
<glyph unicode="&#xf3;" horiz-adv-x="1111" d="M35 503q0 121 35.5 220.5t103 171t165.5 110.5t223 39q122 0 217.5 -38t161.5 -107t100.5 -165t34.5 -213q0 -121 -35.5 -220.5t-103 -171t-165.5 -110.5t-223 -39q-122 0 -217.5 38t-161.5 107t-100.5 165t-34.5 213zM240 1298l507 275l123 -270l-561 -156zM373 518 q0 -67 9.5 -122.5t31.5 -95t58 -61t88 -21.5q50 0 84 21.5t55 60t30 91t9 115.5q0 67 -9.5 122.5t-31.5 95t-57.5 61t-88.5 21.5q-49 0 -83 -21.5t-55 -60t-30.5 -91t-9.5 -115.5z" />
<glyph unicode="&#xf4;" horiz-adv-x="1111" d="M35 503q0 121 35.5 220.5t103 171t165.5 110.5t223 39q122 0 217.5 -38t161.5 -107t100.5 -165t34.5 -213q0 -121 -35.5 -220.5t-103 -171t-165.5 -110.5t-223 -39q-122 0 -217.5 38t-161.5 107t-100.5 165t-34.5 213zM179 1315q38 26 84.5 57.5t96 65.5t99.5 69t96 68 q46 -33 96 -68t99.5 -69t96 -65.5t84.5 -57.5l-159 -190q-25 19 -54 43t-58.5 49t-56.5 49t-48 44q-21 -20 -48 -44t-56.5 -49t-58.5 -49t-54 -43zM373 518q0 -67 9.5 -122.5t31.5 -95t58 -61t88 -21.5q50 0 84 21.5t55 60t30 91t9 115.5q0 67 -9.5 122.5t-31.5 95t-57.5 61 t-88.5 21.5q-49 0 -83 -21.5t-55 -60t-30.5 -91t-9.5 -115.5z" />
<glyph unicode="&#xf5;" horiz-adv-x="1111" d="M35 503q0 121 35.5 220.5t103 171t165.5 110.5t223 39q122 0 217.5 -38t161.5 -107t100.5 -165t34.5 -213q0 -121 -35.5 -220.5t-103 -171t-165.5 -110.5t-223 -39q-122 0 -217.5 38t-161.5 107t-100.5 165t-34.5 213zM163 1290q8 33 28.5 73t53.5 75t79 58.5t106 23.5 q39 0 74 -12t66 -27t58.5 -27t50.5 -12q32 0 54.5 22t59.5 65l155 -110q-12 -40 -34.5 -81t-57.5 -74t-82.5 -53.5t-108.5 -20.5q-32 0 -63.5 12t-61.5 27t-58 27t-53 12q-31 0 -53.5 -22t-57.5 -65zM373 518q0 -67 9.5 -122.5t31.5 -95t58 -61t88 -21.5q50 0 84 21.5t55 60 t30 91t9 115.5q0 67 -9.5 122.5t-31.5 95t-57.5 61t-88.5 21.5q-49 0 -83 -21.5t-55 -60t-30.5 -91t-9.5 -115.5z" />
<glyph unicode="&#xf6;" horiz-adv-x="1111" d="M35 503q0 121 35.5 220.5t103 171t165.5 110.5t223 39q122 0 217.5 -38t161.5 -107t100.5 -165t34.5 -213q0 -121 -35.5 -220.5t-103 -171t-165.5 -110.5t-223 -39q-122 0 -217.5 38t-161.5 107t-100.5 165t-34.5 213zM148 1341q0 95 51.5 141t136.5 46q75 0 122.5 -43.5 t47.5 -125.5q0 -96 -51.5 -141.5t-136.5 -45.5q-75 0 -122.5 43.5t-47.5 125.5zM373 518q0 -67 9.5 -122.5t31.5 -95t58 -61t88 -21.5q50 0 84 21.5t55 60t30 91t9 115.5q0 67 -9.5 122.5t-31.5 95t-57.5 61t-88.5 21.5q-49 0 -83 -21.5t-55 -60t-30.5 -91t-9.5 -115.5z M604 1341q0 95 51.5 141t136.5 46q75 0 122.5 -43.5t47.5 -125.5q0 -96 -51.5 -141.5t-136.5 -45.5q-75 0 -122.5 43.5t-47.5 125.5z" />
<glyph unicode="&#xf7;" horiz-adv-x="1151" d="M130 546v237h891v-237h-891zM396 286q0 95 51.5 141t136.5 46q75 0 122.5 -43.5t47.5 -125.5q0 -96 -51.5 -141.5t-136.5 -45.5q-75 0 -122.5 43.5t-47.5 125.5zM396 1023q0 95 51.5 141t136.5 46q75 0 122.5 -43.5t47.5 -125.5q0 -96 -51.5 -141.5t-136.5 -45.5 q-75 0 -122.5 43.5t-47.5 125.5z" />
<glyph unicode="&#xf8;" horiz-adv-x="1111" d="M35 503q0 121 35.5 220.5t103 171t165.5 110.5t223 39q64 0 121 -11t106 -31l121 190l115 -61l-124 -195q85 -69 130 -175t45 -240q0 -121 -35.5 -220.5t-103 -171t-165.5 -110.5t-223 -39q-65 0 -122 11t-107 31l-120 -189l-115 61l124 195q-85 69 -129.5 174.5 t-44.5 239.5zM373 518q0 -42 3.5 -79t11.5 -69l259 409q-40 27 -96 27q-49 0 -83 -21.5t-55 -60t-30.5 -91t-9.5 -115.5zM462 245q39 -27 98 -27q50 0 84 21.5t55 60t30 91t9 115.5q0 86 -16 149z" />
<glyph unicode="&#xf9;" horiz-adv-x="1156" d="M100 350v674h328v-623q0 -81 29 -117t97 -36q19 0 40.5 4.5t42.5 12t41 18t35 21.5v720h328v-1024h-264l-33 101q-15 -16 -41.5 -37t-63.5 -40t-84 -31.5t-101 -12.5q-175 0 -264.5 89t-89.5 281zM235 1303l123 270l507 -275l-69 -151z" />
<glyph unicode="&#xfa;" horiz-adv-x="1156" d="M100 350v674h328v-623q0 -81 29 -117t97 -36q19 0 40.5 4.5t42.5 12t41 18t35 21.5v720h328v-1024h-264l-33 101q-15 -16 -41.5 -37t-63.5 -40t-84 -31.5t-101 -12.5q-175 0 -264.5 89t-89.5 281zM255 1298l507 275l123 -270l-561 -156z" />
<glyph unicode="&#xfb;" horiz-adv-x="1156" d="M100 350v674h328v-623q0 -81 29 -117t97 -36q19 0 40.5 4.5t42.5 12t41 18t35 21.5v720h328v-1024h-264l-33 101q-15 -16 -41.5 -37t-63.5 -40t-84 -31.5t-101 -12.5q-175 0 -264.5 89t-89.5 281zM194 1315q38 26 84.5 57.5t96 65.5t99.5 69t96 68q46 -33 96 -68 t99.5 -69t96 -65.5t84.5 -57.5l-159 -190q-25 19 -54 43t-58.5 49t-56.5 49t-48 44q-21 -20 -48 -44t-56.5 -49t-58.5 -49t-54 -43z" />
<glyph unicode="&#xfc;" horiz-adv-x="1156" d="M100 350v674h328v-623q0 -81 29 -117t97 -36q19 0 40.5 4.5t42.5 12t41 18t35 21.5v720h328v-1024h-264l-33 101q-15 -16 -41.5 -37t-63.5 -40t-84 -31.5t-101 -12.5q-175 0 -264.5 89t-89.5 281zM163 1341q0 95 51.5 141t136.5 46q75 0 122.5 -43.5t47.5 -125.5 q0 -96 -51.5 -141.5t-136.5 -45.5q-75 0 -122.5 43.5t-47.5 125.5zM619 1341q0 95 51.5 141t136.5 46q75 0 122.5 -43.5t47.5 -125.5q0 -96 -51.5 -141.5t-136.5 -45.5q-75 0 -122.5 43.5t-47.5 125.5z" />
<glyph unicode="&#xfd;" horiz-adv-x="1114" d="M0 1024h363l205 -700h10l168 700h358l-327 -1044q-33 -105 -80 -180t-110 -123t-142.5 -70.5t-176.5 -22.5q-38 0 -74.5 5t-68.5 12t-58.5 15.5t-43.5 16.5l48 234q17 -6 62.5 -18t112.5 -12q61 0 106 31t58 99l-49 93zM252 1298l507 275l123 -270l-561 -156z" />
<glyph unicode="&#xfe;" horiz-adv-x="1130" d="M115 -396v1855l328 21v-525q10 10 32.5 25t54 29.5t71 24.5t83.5 10q98 0 174.5 -38t129 -107t80 -165t27.5 -213q0 -121 -34 -220.5t-97 -171t-152.5 -110.5t-201.5 -39q-51 0 -93 12t-74 29v-417h-328zM443 263q17 -11 49 -23t78 -12q47 0 82.5 21t58.5 58t34.5 88 t11.5 111q0 63 -11 114.5t-33.5 88t-57 57t-80.5 20.5q-18 0 -37 -4t-37 -10.5t-33.5 -14.5t-24.5 -16v-478z" />
<glyph unicode="&#xff;" horiz-adv-x="1114" d="M0 1024h363l205 -700h10l168 700h358l-327 -1044q-33 -105 -80 -180t-110 -123t-142.5 -70.5t-176.5 -22.5q-38 0 -74.5 5t-68.5 12t-58.5 15.5t-43.5 16.5l48 234q17 -6 62.5 -18t112.5 -12q61 0 106 31t58 99l-49 93zM140 1341q0 95 51.5 141t136.5 46 q75 0 122.5 -43.5t47.5 -125.5q0 -96 -51.5 -141.5t-136.5 -45.5q-75 0 -122.5 43.5t-47.5 125.5zM596 1341q0 95 51.5 141t136.5 46q75 0 122.5 -43.5t47.5 -125.5q0 -96 -51.5 -141.5t-136.5 -45.5q-75 0 -122.5 43.5t-47.5 125.5z" />
<glyph unicode="&#x152;" horiz-adv-x="1849" d="M55 661q0 152 46 279t132 218t210 141.5t281 50.5q48 0 95.5 -5.5t92.5 -14.5h847v-268h-520v-262h490v-258h-490v-274h540v-268h-866q-45 -9 -95 -14.5t-106 -5.5q-156 0 -278.5 49t-206.5 138t-128 214.5t-44 279.5zM408 676q0 -100 20.5 -181t60.5 -138t99 -88 t135 -31q61 0 107.5 14t80.5 36v754q-34 22 -82 36t-116 14q-70 0 -126.5 -27.5t-96 -80.5t-61 -130.5t-21.5 -177.5z" />
<glyph unicode="&#x153;" horiz-adv-x="1588" d="M35 503q0 121 35.5 220.5t103 171t165.5 110.5t223 39q87 0 159.5 -22.5t129.5 -64.5q60 42 134.5 64.5t164.5 22.5q97 0 172 -28.5t126.5 -80t78 -122t26.5 -154.5q0 -70 -8.5 -124t-22.5 -90h-551q9 -107 66 -154.5t154 -47.5q90 0 157 19.5t111 36.5l69 -232 q-23 -12 -58 -27t-82 -28.5t-106.5 -22.5t-131.5 -9q-92 0 -168 22.5t-137 65.5q-59 -43 -133 -65.5t-163 -22.5q-122 0 -217.5 38t-161.5 107t-100.5 165t-34.5 213zM373 518q0 -67 9.5 -122.5t31.5 -95t58 -61t88 -21.5q42 0 72.5 15.5t51.5 44.5q-38 100 -38 224 q0 66 10 125.5t30 112.5q-22 32 -55 49t-80 17q-49 0 -83 -21.5t-55 -60t-30.5 -91t-9.5 -115.5zM974 618h265q7 41 3 75.5t-18.5 59.5t-39.5 39t-59 14q-68 0 -105.5 -45.5t-45.5 -142.5z" />
<glyph unicode="&#x178;" horiz-adv-x="1222" d="M0 1330h356l255 -527l255 527h356l-447 -836v-494h-328v494zM204 1641q0 95 51.5 141t136.5 46q75 0 122.5 -43.5t47.5 -125.5q0 -96 -51.5 -141.5t-136.5 -45.5q-75 0 -122.5 43.5t-47.5 125.5zM660 1641q0 95 51.5 141t136.5 46q75 0 122.5 -43.5t47.5 -125.5 q0 -96 -51.5 -141.5t-136.5 -45.5q-75 0 -122.5 43.5t-47.5 125.5z" />
<glyph unicode="&#x2c6;" horiz-adv-x="982" d="M115 1315q38 26 84.5 57.5t96 65.5t99.5 69t96 68q46 -33 96 -68t99.5 -69t96 -65.5t84.5 -57.5l-159 -190q-25 19 -54 43t-58.5 49t-56.5 49t-48 44q-21 -20 -48 -44t-56.5 -49t-58.5 -49t-54 -43z" />
<glyph unicode="&#x2dc;" horiz-adv-x="1015" d="M115 1290q8 33 28.5 73t53.5 75t79 58.5t106 23.5q39 0 74 -12t66 -27t58.5 -27t50.5 -12q32 0 54.5 22t59.5 65l155 -110q-12 -40 -34.5 -81t-57.5 -74t-82.5 -53.5t-108.5 -20.5q-32 0 -63.5 12t-61.5 27t-58 27t-53 12q-31 0 -53.5 -22t-57.5 -65z" />
<glyph unicode="&#x2000;" horiz-adv-x="944" />
<glyph unicode="&#x2001;" horiz-adv-x="1888" />
<glyph unicode="&#x2002;" horiz-adv-x="944" />
<glyph unicode="&#x2003;" horiz-adv-x="1888" />
<glyph unicode="&#x2004;" horiz-adv-x="629" />
<glyph unicode="&#x2005;" horiz-adv-x="472" />
<glyph unicode="&#x2006;" horiz-adv-x="314" />
<glyph unicode="&#x2007;" horiz-adv-x="314" />
<glyph unicode="&#x2008;" horiz-adv-x="236" />
<glyph unicode="&#x2009;" horiz-adv-x="377" />
<glyph unicode="&#x200a;" horiz-adv-x="104" />
<glyph unicode="&#x2010;" horiz-adv-x="891" d="M115 404v257h661v-257h-661z" />
<glyph unicode="&#x2011;" horiz-adv-x="891" d="M115 404v257h661v-257h-661z" />
<glyph unicode="&#x2012;" horiz-adv-x="891" d="M115 404v257h661v-257h-661z" />
<glyph unicode="&#x2013;" horiz-adv-x="1181" d="M115 404v257h951v-257h-951z" />
<glyph unicode="&#x2014;" horiz-adv-x="1783" d="M115 404v257h1553v-257h-1553z" />
<glyph unicode="&#x2018;" horiz-adv-x="456" d="M10 1173q0 66 22.5 121t62 99t94.5 77.5t119 58.5l113 -126q-29 -16 -56.5 -36t-48.5 -45.5t-33.5 -56.5t-12.5 -69q0 -40 12 -74.5t30 -62t38.5 -49.5t38.5 -38l-245 -69q-20 15 -43.5 40.5t-43.5 60t-33.5 77.5t-13.5 92z" />
<glyph unicode="&#x2019;" horiz-adv-x="486" d="M25 1029q29 16 56.5 36t48.5 45.5t33.5 57t12.5 68.5q0 41 -12 75t-30 61.5t-38.5 49.5t-38.5 38l245 69q20 -15 43.5 -40.5t43.5 -60t33.5 -77t13.5 -92.5q0 -66 -22.5 -121t-62 -99t-94 -77.5t-119.5 -58.5z" />
<glyph unicode="&#x201a;" horiz-adv-x="491" d="M10 -164q29 16 56.5 36t48.5 45.5t33.5 57t12.5 68.5q0 41 -12 75t-30 61.5t-38.5 49.5t-38.5 38l245 69q20 -15 43.5 -40.5t43.5 -60t33.5 -77t13.5 -92.5q0 -66 -22.5 -121t-62 -99t-94 -77.5t-119.5 -58.5z" />
<glyph unicode="&#x201c;" horiz-adv-x="875" d="M10 1155q0 66 22.5 121t62 99t94.5 77.5t119 58.5l103 -126q-29 -16 -56.5 -36t-48.5 -45.5t-33.5 -56.5t-12.5 -69q0 -40 12 -74.5t30 -62t38.5 -49.5t38.5 -38l-235 -69q-20 15 -43.5 40.5t-43.5 60t-33.5 77.5t-13.5 92zM439 1175q0 66 22.5 121t62 99t94.5 77.5 t119 58.5l103 -126q-29 -16 -56.5 -36t-48.5 -45.5t-33.5 -56.5t-12.5 -69q0 -40 12 -74.5t30 -62t38.5 -49.5t38.5 -38l-235 -69q-20 15 -43.5 40.5t-43.5 60t-33.5 77.5t-13.5 92z" />
<glyph unicode="&#x201d;" horiz-adv-x="905" d="M25 1011q29 16 56.5 36t48.5 45.5t33.5 57t12.5 68.5q0 41 -12 75t-30 61.5t-38.5 49.5t-38.5 38l235 69q20 -15 43.5 -40.5t43.5 -60t33.5 -77t13.5 -92.5q0 -66 -22.5 -121t-62 -99t-94 -77.5t-119.5 -58.5zM454 1031q29 16 56.5 36t48.5 45.5t33.5 57t12.5 68.5 q0 41 -12 75t-30 61.5t-38.5 49.5t-38.5 38l235 69q20 -15 43.5 -40.5t43.5 -60t33.5 -77t13.5 -92.5q0 -66 -22.5 -121t-62 -99t-94 -77.5t-119.5 -58.5z" />
<glyph unicode="&#x201e;" horiz-adv-x="910" d="M10 -164q29 16 56.5 36t48.5 45.5t33.5 57t12.5 68.5q0 41 -12 75t-30 61.5t-38.5 49.5t-38.5 38l235 69q20 -15 43.5 -40.5t43.5 -60t33.5 -77t13.5 -92.5q0 -66 -22.5 -121t-62 -99t-94 -77.5t-119.5 -58.5zM439 -144q29 16 56.5 36t48.5 45.5t33.5 57t12.5 68.5 q0 41 -12 75t-30 61.5t-38.5 49.5t-38.5 38l235 69q20 -15 43.5 -40.5t43.5 -60t33.5 -77t13.5 -92.5q0 -66 -22.5 -121t-62 -99t-94 -77.5t-119.5 -58.5z" />
<glyph unicode="&#x2022;" horiz-adv-x="787" d="M110 672q0 74 21 128.5t59.5 90.5t92 54t119.5 18q59 0 107.5 -17.5t83.5 -51t54.5 -82.5t19.5 -112q0 -75 -21 -129.5t-59.5 -90.5t-92.5 -53.5t-120 -17.5q-58 0 -106.5 17t-83.5 50.5t-54.5 82.5t-19.5 113z" />
<glyph unicode="&#x2026;" horiz-adv-x="1670" d="M80 149q0 95 51.5 141t136.5 46q75 0 122.5 -43.5t47.5 -125.5q0 -96 -51.5 -141.5t-136.5 -45.5q-75 0 -122.5 43.5t-47.5 125.5zM656 149q0 95 51.5 141t136.5 46q75 0 122.5 -43.5t47.5 -125.5q0 -96 -51.5 -141.5t-136.5 -45.5q-75 0 -122.5 43.5t-47.5 125.5z M1232 149q0 95 51.5 141t136.5 46q75 0 122.5 -43.5t47.5 -125.5q0 -96 -51.5 -141.5t-136.5 -45.5q-75 0 -122.5 43.5t-47.5 125.5z" />
<glyph unicode="&#x202f;" horiz-adv-x="377" />
<glyph unicode="&#x2039;" horiz-adv-x="781" d="M90 512q50 49 105 109t112 126.5t113 136.5t107 138l224 -163q-61 -88 -141.5 -176.5t-169.5 -170.5q89 -82 169.5 -170.5t141.5 -176.5l-224 -163q-51 68 -107 138t-113 136.5t-112 126.5t-105 109z" />
<glyph unicode="&#x203a;" horiz-adv-x="781" d="M50 164q61 88 141.5 176.5t169.5 170.5q-89 82 -169.5 170.5t-141.5 176.5l224 163q51 -68 107 -138t113 -136.5t112.5 -126.5t104.5 -109q-49 -49 -104.5 -109t-112.5 -126.5t-113 -136.5t-107 -138z" />
<glyph unicode="&#x205f;" horiz-adv-x="472" />
<glyph unicode="&#x20ac;" horiz-adv-x="1396" d="M115 462v143h865v-143h-375q40 -100 116.5 -154.5t181.5 -54.5q73 0 149 15t145 47l79 -242q-34 -20 -76.5 -37t-90.5 -29.5t-98 -19.5t-99 -7q-137 0 -250 32.5t-199 94t-143.5 151t-83.5 204.5h-121zM115 726v143h125q29 111 88.5 200t145.5 151.5t196.5 96t241.5 33.5 q46 0 94 -5.5t93 -16t85 -25t69 -31.5l-69 -247q-131 52 -261 52q-122 0 -203.5 -53.5t-119.5 -154.5h380v-143h-865z" />
<glyph unicode="&#x2122;" horiz-adv-x="786" d="M30 1258v92h258v-92h-75v-234h-108v234h-75zM322 1024v326h175l42 -200l42 200h175v-326h-109v220l-62 -220h-92l-62 220v-220h-109z" />
<glyph unicode="&#x25fc;" horiz-adv-x="1025" d="M0 0v1025h1025v-1025h-1025z" />
</font>
</defs>
</svg>
