<?xml version="1.0" standalone="no"?>
<!DOCTYPE svg PUBLIC "-//W3C//DTD SVG 1.1//EN" "http://www.w3.org/Graphics/SVG/1.1/DTD/svg11.dtd" >
<svg xmlns="http://www.w3.org/2000/svg">
<metadata></metadata>
<defs>
<font id="libertad_3bold_italic" horiz-adv-x="1315" >
<font-face units-per-em="2048" ascent="1638" descent="-410" />
<missing-glyph horiz-adv-x="426" />
<glyph unicode="&#x31;&#x2f;&#x34;" horiz-adv-x="1425" d="M50 83l1188 1268l127 -104l-1189 -1267zM146 751l30 185q23 0 47 0.5t47 1.5l37 233l-30 -5t-37.5 -5.5t-38 -4.5t-31.5 -3l7 154q63 8 135.5 20t135.5 23h80l-65 -408q20 0 40.5 -1t40.5 -1l-30 -189h-368zM722 108l21 129l217 362l174 -20l-208 -339h108l28 170h162 l-28 -170h89l-20 -132h-85l-17 -108h-169l16 108h-288z" />
<glyph unicode="&#x31;&#x2f;&#x32;" horiz-adv-x="1455" d="M50 83l1188 1268l127 -104l-1189 -1267zM146 751l30 185q23 0 47 0.5t47 1.5l37 233l-30 -5t-37.5 -5.5t-38 -4.5t-31.5 -3l7 154q63 8 135.5 20t135.5 23h80l-65 -408q20 0 40.5 -1t40.5 -1l-30 -189h-368zM782 0l23 144q69 38 121 68t87 57t52.5 54t17.5 57 q0 27 -13.5 42t-42.5 15q-21 0 -42.5 -4.5t-40.5 -10.5t-34 -12t-23 -9l-21 142q9 6 30 15.5t50 18.5t64 15.5t71 6.5q54 0 92.5 -13t63.5 -36.5t37 -55t12 -68.5q0 -48 -17.5 -87t-49.5 -71.5t-76.5 -60t-98.5 -52.5h222l-24 -155h-460z" />
<glyph unicode="&#x33;&#x2f;&#x34;" horiz-adv-x="1495" d="M120 83l1188 1268l127 -104l-1189 -1267zM193 769l55 134q15 -7 49 -16.5t80 -9.5q48 0 72 14.5t24 49.5q0 46 -61 46h-94l18 113h122q8 6 17.5 19.5t11.5 33.5q2 24 -14.5 37.5t-51.5 13.5q-33 0 -67.5 -8t-56.5 -18l-15 131q8 5 26 11.5t43 13.5t56 11.5t65 4.5 q109 0 161 -41t52 -108q0 -31 -10 -55t-24 -41.5t-30 -29t-28 -19.5h-1q10 -6 22 -15.5t22.5 -24.5t17.5 -34.5t7 -44.5q0 -98 -76.5 -152t-216.5 -54q-28 0 -56 4t-51 9.5t-41 12t-27 12.5zM792 108l21 129l217 362l174 -20l-208 -339h108l28 170h162l-28 -170h89l-20 -132 h-85l-17 -108h-169l16 108h-288z" />
<glyph unicode="&#xfb01;" horiz-adv-x="1118" d="M61 -396l194 1221h-142l29 181l149 10q-11 110 13.5 196t84.5 145.5t156.5 91t229.5 31.5q54 0 102.5 -6.5t87 -15.5t65.5 -18t38 -14l-66 -187q-18 6 -44 12.5t-57.5 12t-66 8.5t-70.5 3q-55 0 -94.5 -10t-65.5 -28.5t-41 -45t-21 -59.5q-5 -27 -4.5 -58t3.5 -50h552 l-123 -773q-15 -92 -19 -153.5t-1 -97.5h-248q-3 10 -6 31t-4.5 48t-0.5 58.5t6 62.5l100 625h-278l-194 -1221h-264z" />
<glyph unicode="&#xfb02;" horiz-adv-x="1165" d="M61 -396l194 1221h-142l29 181l149 10q-11 110 13.5 196t84.5 145.5t155.5 91t227.5 31.5q67 0 130 -8t118 -19.5t98.5 -24t70.5 -21.5q-6 -71 -16 -141l-161 -1015q-14 -94 -18.5 -154.5t-1.5 -96.5h-247q-4 10 -7 31t-4.5 48t-0.5 58.5t6 62.5l154 962q9 53 15 102 q-29 5 -65.5 8t-78.5 3q-55 0 -94.5 -10t-65.5 -28.5t-41 -45t-21 -59.5q-5 -27 -4.5 -58t3.5 -50h204l-31 -199h-195l-194 -1221h-264z" />
<glyph unicode="&#xfb03;" horiz-adv-x="1700" d="M61 -396l194 1221h-142l29 181l149 10q-11 108 10 194t70.5 146t127.5 92t181 32q36 0 67.5 -4t56 -9.5t41 -10.5t22.5 -8l-66 -187q-19 5 -46.5 9.5t-56.5 4.5q-72 0 -109.5 -33t-46.5 -95q-5 -29 -4.5 -64.5t3.5 -58.5h331q-10 100 11 180.5t71.5 139t128.5 92 t181 39.5q30 2 60.5 1.5t59.5 -2.5q32 -3 60.5 -8.5t52 -11.5t40.5 -12t25 -10l-66 -187q-29 11 -82 20.5t-112 9.5q-88 0 -129 -38.5t-51 -104.5q-4 -27 -3 -58t4 -50h244h308l-123 -773q-15 -94 -19 -154.5t-1 -96.5h-248q-3 10 -6.5 31t-5 48t0 58.5t6.5 62.5l100 625 h-278l-131 -825h-264l131 825h-318l-194 -1221h-264z" />
<glyph unicode="&#xfb04;" horiz-adv-x="1745" d="M61 -396l194 1221h-142l29 181l149 10q-11 108 10 194t70.5 146t127.5 92t181 32q36 0 67.5 -4t56 -9.5t41 -10.5t22.5 -8l-66 -187q-19 5 -46.5 9.5t-56.5 4.5q-72 0 -109.5 -33t-46.5 -95q-5 -29 -4.5 -64.5t3.5 -58.5h331q-10 108 15 192.5t85 143t155.5 89.5 t226.5 31q66 0 129 -8t118 -19.5t98.5 -24t71.5 -21.5q-6 -54 -12.5 -106t-14.5 -105l-150 -945q-14 -94 -18.5 -154.5t-1.5 -96.5h-247q-4 10 -7 31t-4.5 48t-0.5 58.5t6 62.5l154 962q9 53 15 102q-29 5 -65.5 8t-78.5 3q-55 0 -94.5 -10t-65.5 -28.5t-41 -45t-21 -59.5 q-5 -27 -4.5 -58t3.5 -50h204l-31 -199h-195l-194 -1221h-264l194 1221h-318l-194 -1221h-264z" />
<glyph horiz-adv-x="0" />
<glyph unicode="&#xd;" horiz-adv-x="456" />
<glyph unicode=" "  horiz-adv-x="426" />
<glyph unicode="&#x09;" horiz-adv-x="426" />
<glyph unicode="&#xa0;" horiz-adv-x="426" />
<glyph unicode="!" horiz-adv-x="597" d="M90 103q0 44 14 78t39.5 57.5t60 35.5t74.5 12q57 0 91 -32.5t34 -90.5q0 -44 -14 -78t-39.5 -57.5t-59.5 -35.5t-75 -12q-57 0 -91 32.5t-34 90.5zM189 421l100 909h288l-187 -909h-201z" />
<glyph unicode="&#x22;" horiz-adv-x="866" d="M226 931l53 560h253l-126 -560h-180zM574 931l53 560h252l-125 -560h-180z" />
<glyph unicode="#" horiz-adv-x="1296" d="M0 338l56 190h235l81 273h-233l56 191h234l100 338h219l-100 -338h242l101 338h218l-100 -338h227l-57 -191h-226l-81 -273h226l-56 -190h-227l-100 -338h-219l99 338h-242l-99 -338h-219l100 338h-235zM510 528h242l82 273h-243z" />
<glyph unicode="$" horiz-adv-x="940" d="M50 158l82 189q17 -10 43 -22t60 -22.5t76 -18t90 -7.5q94 0 146 27.5t52 92.5q0 29 -16.5 54t-46.5 48.5t-72 46.5t-93 48q-98 50 -151.5 117t-53.5 167q0 73 26 135t73 110.5t111.5 81.5t140.5 48l20 239h218l-54 -230q47 -4 85 -13.5t67.5 -21t51.5 -22.5t35 -19 l-74 -191q-19 9 -47 19.5t-60.5 19.5t-68.5 14.5t-73 5.5q-49 0 -83.5 -10t-57 -27t-34 -39.5t-13.5 -48.5q-4 -31 8 -55t35 -43.5t55 -37t68 -35.5q69 -35 119.5 -68.5t84 -70t49.5 -79.5t16 -97q0 -155 -91.5 -248.5t-265.5 -119.5l-19 -237h-219l53 230q-98 8 -169 35 t-103 55z" />
<glyph unicode="%" horiz-adv-x="1555" d="M140 83l1188 1268l127 -104l-1189 -1267zM162 990q0 79 27 145t75 114t114.5 74.5t144.5 26.5q59 0 105.5 -20t78.5 -54.5t49.5 -82t17.5 -103.5q0 -79 -27 -145t-75 -113.5t-114 -74t-144 -26.5q-58 0 -105 20t-79.5 54.5t-50 82t-17.5 102.5zM367 1011 q0 -48 19.5 -81.5t62.5 -33.5q26 0 48 13.5t38 37t25 55t9 67.5q0 49 -19.5 82.5t-63.5 33.5q-26 0 -48 -13.5t-37.5 -37.5t-24.5 -55.5t-9 -67.5zM826 239q0 79 27 145t75 114t114.5 74.5t144.5 26.5q59 0 105.5 -20t78.5 -54.5t49.5 -82t17.5 -103.5q0 -79 -27 -145 t-75 -113.5t-114 -74t-144 -26.5q-58 0 -105 20t-79.5 54.5t-50 82t-17.5 102.5zM1031 260q0 -48 19.5 -81.5t62.5 -33.5q26 0 48 13.5t38 37t25 55t9 67.5q0 49 -19.5 82.5t-63.5 33.5q-26 0 -48 -13.5t-37.5 -37.5t-24.5 -55.5t-9 -67.5z" />
<glyph unicode="&#x26;" horiz-adv-x="1243" d="M47 300q0 69 22.5 130t63.5 112t98.5 92.5t126.5 72.5q-32 54 -53.5 92.5t-34 69.5t-18 59t-5.5 61q0 79 37 145t99.5 114t145 75t173.5 27q74 0 135.5 -20.5t106 -56.5t69.5 -85.5t25 -108.5q0 -42 -11.5 -79.5t-29.5 -68.5t-40 -54.5t-43 -38.5q51 -14 99.5 -42 t85.5 -70.5t59.5 -98.5t22.5 -126q0 -113 -60.5 -210.5t-179.5 -170.5l68 -123q32 -56 42.5 -115.5t2.5 -119.5q-5 -47 -20 -92t-38 -86l-194 20q14 38 23 76t11 76q2 42 -8 83.5t-34 85.5l-58 104q-21 -10 -49 -19t-60.5 -15.5t-67.5 -10.5t-70 -4q-93 0 -174 22.5 t-140.5 64.5t-93.5 101t-34 132zM311 346q3 -48 26.5 -81t59 -52.5t80.5 -27t91 -3.5q13 8 28 20t27 28l-182 329q-63 -34 -99 -90.5t-31 -122.5zM493 1000q0 -24 3.5 -45t11.5 -44t21.5 -50.5t34.5 -64.5l285 -513q39 35 60.5 82t21.5 109q0 50 -15 88.5t-41.5 67t-61.5 47 t-74 26.5l-76 144q54 35 91 82t37 108q0 44 -26 71t-68 35q-17 4 -33.5 4t-33.5 -2q-63 -8 -100 -48t-37 -97z" />
<glyph unicode="'" horiz-adv-x="518" d="M226 931l53 560h253l-126 -560h-180z" />
<glyph unicode="(" horiz-adv-x="738" d="M177 491q0 164 36 305.5t93 261t128 216t141 169.5t132 122.5t100 74.5l113 -121q-40 -38 -89 -89t-99 -115.5t-97.5 -143.5t-86.5 -173t-65.5 -203t-33.5 -234q-11 -145 6.5 -264t50 -212t72 -161t72.5 -111l-153 -122q-35 29 -89.5 95.5t-105.5 167.5t-88 236t-37 301z " />
<glyph unicode=")" horiz-adv-x="778" d="M-103 -190q40 38 89 89t99 115.5t98 143.5t87 173t65.5 203t33.5 234q11 145 -6.5 264t-49.5 212t-72 161t-73 111l153 121q35 -28 89.5 -94.5t105.5 -167.5t87.5 -236t36.5 -301q0 -164 -36 -305.5t-93 -261t-128 -216t-140.5 -169.5t-131 -122.5t-100.5 -74.5z" />
<glyph unicode="*" horiz-adv-x="856" d="M157 1141l94 203l208 -90l20 247h211l-60 -247q60 22 119.5 45t118.5 45l30 -203l-241 -50h1l137 -169l-178 -138l-114 207l-177 -207l-136 137l190 170h1z" />
<glyph unicode="+" horiz-adv-x="1358" d="M195 559l33 211h374l60 377h216l-60 -377h375l-33 -211h-375l-60 -376h-216l60 376h-374z" />
<glyph unicode="," horiz-adv-x="504" d="M-53 -191q30 17 60 38.5t54 49t39.5 62t17.5 76.5q2 35 -4.5 65t-17.5 55t-24.5 43.5t-24.5 31.5l222 59q12 -11 25.5 -30.5t25.5 -46.5t19.5 -60t7.5 -71q0 -70 -25 -128t-68 -104.5t-99.5 -82.5t-119.5 -63z" />
<glyph unicode="-" horiz-adv-x="1055" d="M197 427l34 211h616l-33 -211h-617z" />
<glyph unicode="." horiz-adv-x="528" d="M57 103q0 44 14 78t39.5 57.5t60 35.5t74.5 12q58 0 91.5 -32.5t33.5 -90.5q0 -44 -14 -78t-39 -57.5t-59 -35.5t-75 -12q-58 0 -92 32.5t-34 90.5z" />
<glyph unicode="/" horiz-adv-x="891" d="M-188 -250l1065 1835h256l-1065 -1835h-256z" />
<glyph unicode="0" horiz-adv-x="1266" d="M117 518q0 175 46.5 327t132 264t206.5 176.5t269 64.5q106 0 188 -39t137.5 -110t84 -170t28.5 -219q0 -175 -46.5 -327t-132 -264t-206.5 -176.5t-269 -64.5q-106 0 -188 39t-137.5 110t-84 170t-28.5 219zM405 542q0 -81 12.5 -145t36.5 -109t60.5 -69t84.5 -24 q69 0 128 45t102.5 124t68 188t24.5 236q0 81 -12.5 145t-37 109t-61 69t-84.5 24q-69 0 -128 -45t-102 -124t-67.5 -187.5t-24.5 -236.5z" />
<glyph unicode="1" horiz-adv-x="727" d="M112 1084l19 212q47 4 109 10t128 13.5t130.5 15.5t115.5 15h65l-214 -1350h-270l175 1106q-26 -3 -60 -6.5t-69 -6.5t-69 -5.5t-60 -3.5z" />
<glyph unicode="2" horiz-adv-x="995" d="M-3 0l30 187q128 131 229.5 234t183.5 189q60 64 100.5 113.5t64.5 92t34 81t10 79.5q0 73 -41 109.5t-114 36.5q-39 0 -77.5 -5t-72 -12.5t-61 -15.5t-44.5 -14l-45 195q16 7 52.5 20.5t86 26.5t109 23t122.5 10q93 0 163 -23.5t117 -66.5t70.5 -104t23.5 -136 q0 -71 -19.5 -135.5t-54.5 -125.5t-83.5 -119.5t-107.5 -117.5q-75 -76 -155 -150t-161 -151h526l-34 -221h-852z" />
<glyph unicode="3" horiz-adv-x="976" d="M-23 65l89 204q15 -8 39.5 -18.5t57 -20t72.5 -16t86 -6.5q54 0 101.5 10.5t83 34t56 61.5t20.5 93q0 82 -50 120t-137 38h-133l33 208h209q21 10 43 27.5t39.5 44t29 61t11.5 79.5q0 63 -35 100t-115 37q-39 0 -77.5 -6t-72 -14t-60.5 -16.5t-42 -14.5l-46 195 q15 7 50 21t84.5 28t109.5 24.5t124 10.5q96 0 166 -23t115.5 -65t68 -100t22.5 -128q0 -60 -19.5 -111.5t-51 -94t-71 -75t-78.5 -54.5q25 -10 54.5 -31t55.5 -54t43.5 -78.5t17.5 -104.5q0 -108 -43 -192t-118 -141.5t-177 -87.5t-221 -30q-67 0 -120.5 8.5t-95 21.5 t-71 27.5t-47.5 27.5z" />
<glyph unicode="4" horiz-adv-x="1121" d="M47 280l30 195l498 875l253 -20l-470 -835h273l74 433h239l-62 -433h181l-33 -215h-182l-44 -280h-253l44 280h-548z" />
<glyph unicode="5" horiz-adv-x="1016" d="M43 63l85 205q17 -9 43.5 -19.5t59 -19.5t71 -15t79.5 -6q56 0 105.5 14t86 43t58 73.5t21.5 104.5q0 87 -52 134t-154 47q-44 0 -88 -1.5t-81 -3.5t-63 -4t-35 -4l137 719h697l-35 -221h-442l-54 -274q8 2 27.5 4.5t45.5 2.5q87 0 158.5 -25.5t122 -72t78 -113 t27.5 -148.5q0 -118 -41.5 -211.5t-116 -158.5t-178.5 -99t-230 -34q-65 0 -118 8t-94.5 20t-71 27t-48.5 28z" />
<glyph unicode="6" horiz-adv-x="1146" d="M117 437q0 120 18.5 234.5t56 215.5t95.5 186.5t137 146.5t180.5 95.5t225.5 34.5q52 0 97 -7t79.5 -16t58.5 -18.5t34 -14.5l-83 -206q-10 3 -30 8.5t-48 11.5t-63 10t-75 4q-74 0 -133.5 -29.5t-104.5 -80t-75 -118t-45 -144.5q10 8 28 18.5t43.5 20.5t59 17.5 t73.5 8.5q92 5 164 -16t122 -65.5t76 -109.5t26 -147q0 -109 -37.5 -200.5t-107 -157.5t-169 -102.5t-222.5 -36.5q-89 0 -159.5 28.5t-120 85.5t-75.5 142.5t-26 200.5zM399 405.5q1 -63.5 17 -110.5t48.5 -73.5t81.5 -26.5q100 0 152.5 61.5t52.5 178.5q0 90 -44 132 t-115 40q-62 -2 -108 -22.5t-72 -42.5q-14 -73 -13 -136.5z" />
<glyph unicode="7" horiz-adv-x="907" d="M67 0l591 1115h-517l33 215h805l-31 -193l-602 -1137h-279z" />
<glyph unicode="8" horiz-adv-x="1100" d="M67 278q0 74 28.5 134t72.5 107.5t97.5 82t102.5 57.5q-37 21 -68.5 48.5t-54.5 61.5t-36 75t-13 89q0 93 39 170t106.5 132t158 85t192.5 30q83 0 151 -20.5t117 -59t75.5 -94.5t26.5 -127q0 -74 -25.5 -131t-64.5 -100t-86 -72.5t-90 -49.5q26 -16 59 -43t62 -64.5 t49 -86.5t20 -110q0 -99 -41 -175.5t-111.5 -129t-165.5 -80t-203 -27.5q-84 0 -156.5 18.5t-126 55.5t-84.5 93t-31 131zM342 331q0 -36 13.5 -63t36.5 -44.5t53 -26.5t63 -9q38 0 75 12.5t66 36t47 56.5t18 73q0 33 -12.5 62.5t-34.5 56t-50.5 48.5t-61.5 40 q-106 -52 -159.5 -111t-53.5 -131zM473 967q0 -51 25.5 -89.5t78.5 -73.5l23 -21q36 20 69.5 43t59 50t40.5 60t15 72q0 63 -37 99t-98 36q-36 0 -68 -13t-56 -36t-38 -55.5t-14 -71.5z" />
<glyph unicode="9" horiz-adv-x="1140" d="M87 46l84 206q11 -5 31 -12.5t48.5 -14.5t65 -12t78.5 -5q73 0 131 28t101.5 77.5t72 118t41.5 148.5q-10 -8 -28.5 -18.5t-44.5 -20.5t-59 -17t-73 -9q-92 -5 -164.5 16t-122.5 65.5t-76 109.5t-26 147q0 110 38 201t108 157t169 102.5t221 36.5q184 0 282.5 -113.5 t98.5 -343.5q0 -190 -37.5 -356.5t-118.5 -290t-210 -195t-312 -71.5q-58 0 -107 7.5t-87.5 18t-64.5 22t-39 18.5zM429 895q0 -89 44.5 -131t114.5 -41q62 2 107.5 22.5t71.5 42.5q14 73 13.5 136t-16.5 110t-48 74t-82 27q-100 0 -152.5 -61.5t-52.5 -178.5z" />
<glyph unicode=":" horiz-adv-x="533" d="M57 103q0 44 14 78t39.5 57.5t60 35.5t74.5 12q58 0 91.5 -32.5t33.5 -90.5q0 -44 -14 -78t-39 -57.5t-59 -35.5t-75 -12q-58 0 -92 32.5t-34 90.5zM178 861q0 44 14 78t39.5 57.5t60 35.5t74.5 12q58 0 91.5 -32.5t33.5 -90.5q0 -44 -14 -78t-39 -57.5t-59.5 -35.5 t-74.5 -12q-58 0 -92 32.5t-34 90.5z" />
<glyph unicode=";" horiz-adv-x="507" d="M-53 -191q30 17 60 38.5t54 49t39.5 62t17.5 76.5q2 35 -4.5 65t-17.5 55t-24.5 43.5t-24.5 31.5l222 59q12 -11 25.5 -30.5t25.5 -46.5t19.5 -60t7.5 -71q0 -70 -25 -128t-68 -104.5t-99.5 -82.5t-119.5 -63zM152 861q0 44 14 78t39.5 57.5t60 35.5t74.5 12 q57 0 91 -32.5t34 -90.5q0 -44 -14 -78t-39.5 -57.5t-59.5 -35.5t-75 -12q-57 0 -91 32.5t-34 90.5z" />
<glyph unicode="&#x3c;" horiz-adv-x="1092" d="M145 665l718 503l109 -158l-495 -345l386 -343l-159 -158z" />
<glyph unicode="=" horiz-adv-x="1347" d="M200 386l33 211h919l-33 -211h-919zM256 735l32 210h919l-33 -210h-918z" />
<glyph unicode="&#x3e;" horiz-adv-x="1090" d="M208 320l495 345l-385 343l158 158l559 -501l-718 -503z" />
<glyph unicode="?" horiz-adv-x="786" d="M110 103q0 44 14 78t39.5 57.5t60 35.5t74.5 12q57 0 91 -32.5t34 -90.5q0 -44 -14 -78t-39.5 -57.5t-59.5 -35.5t-75 -12q-57 0 -91 32.5t-34 90.5zM179 1111l16 206q14 4 40 9.5t61.5 11t78.5 9t89 3.5q90 0 159.5 -19.5t117 -54.5t71.5 -82.5t24 -103.5 q0 -75 -26.5 -132.5t-69.5 -106t-98.5 -92t-114.5 -89.5q-38 -30 -64 -58t-42 -57.5t-23 -61t-7 -69.5l-199 -17q-10 54 -5.5 103.5t25 97t59 94.5t95.5 96q43 36 78.5 66t61.5 57t40.5 53t14.5 54q0 54 -40.5 81t-132.5 27q-32 0 -64.5 -3t-60.5 -6.5t-50 -8t-34 -7.5z" />
<glyph unicode="@" horiz-adv-x="2107" d="M110 306q0 148 35 292.5t103.5 274.5t170.5 241.5t235 192.5t296.5 127t356.5 46q185 0 328.5 -59t240 -163t142.5 -246.5t37 -310.5q-9 -153 -57.5 -285t-127.5 -228.5t-182.5 -152t-220.5 -55.5q-54 0 -104 22t-82.5 71.5t-39 128t26.5 192.5q-39 -92 -84 -168.5 t-97 -131t-110 -84.5t-122 -30q-53 0 -96 19.5t-74 60t-47.5 102t-16.5 144.5q0 144 38.5 277t109 235.5t170 164t220.5 61.5q56 0 103 -22.5t84 -52.5l17 67h232q-3 -17 -5.5 -34.5t-5.5 -34.5l-99 -624q-12 -85 -3.5 -124.5t42.5 -41.5q40 -3 90 43t92 131t67 202.5 t15 258.5q-6 105 -40 191t-99.5 147.5t-163.5 95t-232 33.5q-138 0 -256.5 -36t-215 -100t-170.5 -152t-124.5 -192t-76.5 -221t-26 -238q0 -138 32.5 -242.5t94.5 -174t152.5 -105t205.5 -35.5q50 0 98.5 5t91.5 12.5t78 16t58 16.5l36 -175q-21 -9 -61 -22t-93 -24.5 t-117 -19.5t-132 -8q-172 0 -305.5 47.5t-225 139.5t-139.5 226.5t-48 308.5zM892 313q0 -103 59 -103q33 0 82.5 47t100.5 124.5t96.5 178t70.5 208.5q-3 6 -14.5 17.5t-29 23.5t-41 21t-50.5 9q-57 0 -107 -44t-87 -117t-58.5 -168t-21.5 -197z" />
<glyph unicode="A" horiz-adv-x="1182" d="M-78 0l687 1330h247l264 -1330h-280l-54 308h-433l-151 -308h-280zM452 513h300l-74 477z" />
<glyph unicode="B" horiz-adv-x="1109" d="M65 0l211 1330h414q93 0 167 -18.5t125.5 -56t79 -93t27.5 -129.5q0 -57 -17 -105.5t-45 -89t-64.5 -71.5t-75.5 -52q36 -15 67 -42t54 -62.5t36 -78.5t13 -92q0 -97 -39 -178t-111 -139.5t-174.5 -90.5t-228.5 -32h-439zM362 210h168q107 0 170.5 53t63.5 155 q0 74 -42 120t-132 46h-168zM452 776h243q21 15 41 36.5t36 48.5t25.5 57.5t9.5 62.5q0 68 -38.5 103.5t-115.5 35.5h-146z" />
<glyph unicode="C" horiz-adv-x="1052" d="M95 499q0 188 52.5 344t148.5 269t230 175.5t297 62.5q49 0 94.5 -6t83.5 -15.5t67.5 -20.5t45.5 -20l-76 -202q-39 11 -102 24.5t-141 13.5q-94 0 -170.5 -42.5t-130.5 -119.5t-83 -185t-29 -239q0 -75 17 -136t51.5 -104.5t85.5 -67.5t118 -24q70 0 142.5 17t134.5 46 l31 -201q-33 -19 -74 -35.5t-86 -28t-92 -18t-93 -6.5q-126 0 -223.5 37t-164 105.5t-100.5 164t-34 212.5z" />
<glyph unicode="D" horiz-adv-x="1262" d="M65 0l211 1330h410q132 0 233 -38t169.5 -108.5t103.5 -170t35 -222.5q0 -178 -52 -324t-149.5 -249.5t-238.5 -160.5t-318 -57h-404zM362 210h140q98 0 179 39t138.5 111.5t89 175t31.5 228.5q0 169 -75 262.5t-212 93.5h-146z" />
<glyph unicode="E" horiz-adv-x="986" d="M65 0l211 1330h775l-35 -221h-509l-52 -331h484l-34 -215h-484l-55 -342h527l-34 -221h-794z" />
<glyph unicode="F" horiz-adv-x="954" d="M65 0l211 1330h768l-35 -221h-502l-54 -341h447l-34 -214h-447l-88 -554h-266z" />
<glyph unicode="G" horiz-adv-x="1169" d="M95 499q0 187 53.5 343.5t153 269t242.5 175.5t322 63q106 0 184.5 -21t123.5 -44l-80 -201q-42 14 -107 27t-149 13q-110 0 -195 -42t-143 -119t-88 -185t-30 -239q0 -75 17.5 -136.5t54 -105t92.5 -67.5t133 -24q40 0 80.5 6t72.5 16l49 309l-224 1l31 199h468 l-101 -638q-39 -27 -87.5 -49t-102 -37.5t-110 -24t-113.5 -8.5q-136 0 -238.5 37t-171 105.5t-103 164t-34.5 212.5z" />
<glyph unicode="H" horiz-adv-x="1293" d="M65 0l211 1330h266l-87 -549h489l88 549h266l-210 -1330h-267l89 560h-490l-89 -560h-266z" />
<glyph unicode="I" horiz-adv-x="537" d="M65 0l211 1330h266l-210 -1330h-267z" />
<glyph unicode="J" horiz-adv-x="728" d="M-40 42l74 202q21 -12 58 -25q34 -12 80 -12h7q57 0 91.5 33.5t44.5 98.5l157 991h267l-154 -968q-15 -95 -51 -166.5t-89 -119.5t-120 -72t-144 -24q-44 0 -79.5 6t-63.5 15.5t-47.5 20.5t-30.5 20z" />
<glyph unicode="K" horiz-adv-x="1141" d="M65 0l211 1330h265l-97 -614q99 20 183 73t141 133q57 78 80 182q12 52 12 108.5t-12 117.5l265 12q22 -80 23 -155q0 -33 -5 -65q-14 -106 -61 -197t-119.5 -163.5t-156.5 -120.5l236 -641h-285l-182 552q-38 -12 -76 -23t-76 -20l-81 -509h-265z" />
<glyph unicode="L" horiz-adv-x="918" d="M65 0l211 1330h266l-176 -1109h507l-34 -221h-774z" />
<glyph unicode="M" horiz-adv-x="1559" d="M65 0l211 1330h354l160 -810l416 810h358l-211 -1330h-257l149 942l-406 -787h-210l-158 787l-149 -942h-257z" />
<glyph unicode="N" horiz-adv-x="1300" d="M65 0l211 1330h285l342 -908l145 908h257l-211 -1330h-286l-342 907l-144 -907h-257z" />
<glyph unicode="O" d="M95 509q0 180 51 334t144 266.5t223.5 176.5t288.5 64q119 0 210 -39.5t153.5 -110t94.5 -167.5t32 -213q0 -180 -51 -333.5t-144 -266t-223.5 -176.5t-288.5 -64q-118 0 -209.5 39.5t-154 110t-94.5 167.5t-32 212zM381 540q0 -76 14.5 -139.5t45 -109.5t77.5 -71 t111 -25q76 0 144.5 43t120 121t82 187.5t30.5 242.5q0 77 -14.5 140.5t-45 109.5t-77.5 71t-111 25q-76 0 -144 -43t-120 -121.5t-82.5 -188t-30.5 -242.5z" />
<glyph unicode="P" horiz-adv-x="1047" d="M65 0l211 1330h406q198 0 302.5 -87t104.5 -258q0 -122 -41 -217.5t-113 -161t-169.5 -99.5t-210.5 -34h-148l-76 -473h-266zM439 680h135q57 0 100.5 19.5t72.5 54.5t44 84t15 107q0 81 -39.5 125t-117.5 44h-141z" />
<glyph unicode="Q" d="M95 510q0 180 51 334t144 266.5t223.5 176.5t288.5 64q119 0 210 -39.5t153.5 -109.5t94.5 -167t32 -213q0 -115 -21.5 -220.5t-61.5 -196.5t-98 -165.5t-131 -129.5q44 -88 82 -148t76.5 -96.5t78.5 -52t87 -15.5q22 0 47.5 4t50.5 10t46.5 13t35.5 13l39 -197 q-21 -10 -50 -20t-62.5 -18.5t-69.5 -13.5t-69 -5q-81 0 -144.5 18t-120.5 65.5t-112 130.5t-118 213q-45 -14 -93 -22t-99 -8q-118 0 -209.5 39.5t-154 110t-94.5 167.5t-32 212zM381 542q0 -76 14.5 -139.5t45 -109.5t77.5 -71t111 -25q76 0 144.5 43t120 121t82 187.5 t30.5 242.5q0 77 -14.5 140t-45 109t-77.5 71t-111 25q-76 0 -144 -43t-120 -121t-82.5 -187.5t-30.5 -242.5z" />
<glyph unicode="R" horiz-adv-x="1103" d="M65 0l211 1330h408q202 0 311 -87t109 -257q0 -85 -28.5 -154.5t-72.5 -124t-98.5 -94t-106.5 -63.5l61 -275q7 -31 22 -50t35.5 -28.5t44.5 -12t49 -1.5q3 -35 8.5 -69.5t9.5 -69.5q-4 -6 -14 -14t-24.5 -15.5t-31 -14.5t-33.5 -13q-10 -3 -22 -5t-25 -2 q-81 0 -140.5 33.5t-91.5 111.5q-10 23 -18.5 48t-13.5 53l-54 266h-152l-78 -492h-265zM440 698h234q26 12 52 34.5t47 54t34.5 71.5t13.5 85q0 82 -43.5 126.5t-124.5 44.5h-146z" />
<glyph unicode="S" horiz-adv-x="976" d="M22 60l81 216q19 -10 51 -21t71.5 -20.5t84 -16t88.5 -6.5q100 0 152 26t63 78q3 18 2 37t-9 39q-8 37 -38.5 65.5t-84.5 61.5l-116 73q-48 30 -86.5 62t-65.5 69t-41.5 82t-14.5 102q0 101 40.5 183t110 139.5t163.5 89t200 31.5q64 0 115.5 -7t91.5 -17.5t69 -22.5 t48 -21l-77 -214q-22 8 -53 16.5t-66.5 16t-74 12t-75.5 4.5q-97 0 -152.5 -41t-60.5 -104q-1 -9 -1 -18q-1 -42 23 -72q28 -36 83 -72l135 -89q50 -33 90 -65t69 -66.5t46 -73t21 -85.5q2 -23 1 -46t-3 -46q-19 -172 -151.5 -265.5t-371.5 -93.5q-58 0 -113 7t-102 18.5 t-84 26t-58 28.5z" />
<glyph unicode="T" horiz-adv-x="1018" d="M135 1109l35 221h963l-35 -221h-348l-175 -1109h-267l176 1109h-349z" />
<glyph unicode="U" horiz-adv-x="1205" d="M112 298q-6 42 -6 89q0 63 11 133l129 810h266l-126 -798q-11 -64 -11 -117q0 -13 1 -25q3 -62 24 -105t62 -65.5t105 -22.5q106 0 179 78.5t97 233.5l131 821h266l-128 -808q-20 -127 -70.5 -228t-126 -170.5t-175 -106.5t-218.5 -37q-124 0 -210 38.5t-136 109 t-64 170.5z" />
<glyph unicode="V" horiz-adv-x="1181" d="M137 1330h292l140 -1005l458 1005h296l-645 -1330h-319z" />
<glyph unicode="W" horiz-adv-x="1707" d="M147 1330h291l56 -977q96 238 192.5 478t191.5 479h224l81 -957l364 977h292l-536 -1330h-308l-83 818l-342 -818h-306z" />
<glyph unicode="X" horiz-adv-x="1168" d="M-66 0l543 688l-297 642h291l189 -443l333 443h295l-507 -646l324 -684h-290l-216 485l-369 -485h-296z" />
<glyph unicode="Y" horiz-adv-x="1043" d="M112 1330h278l173 -565l354 565h283l-543 -829h1l-80 -501h-267l80 501h1z" />
<glyph unicode="Z" horiz-adv-x="985" d="M-34 0l29 188l707 920h-523l34 221h847l-29 -188l-726 -920h615l-34 -221h-920z" />
<glyph unicode="[" horiz-adv-x="736" d="M97 -279l298 1884h483l-29 -187l-245 -5l-237 -1499h244l-30 -185z" />
<glyph unicode="\" horiz-adv-x="1216" d="M12 1585h256l1065 -1835h-256z" />
<glyph unicode="]" horiz-adv-x="706" d="M-103 -279l30 187l245 5l237 1499h-244l29 185l484 8l-298 -1884h-483z" />
<glyph unicode="^" horiz-adv-x="1123" d="M127 776l440 704h281l218 -704h-276l-123 444l-264 -444h-276z" />
<glyph unicode="_" horiz-adv-x="1479" d="M151 -236l34 210h1013l-34 -210h-1013z" />
<glyph unicode="`" horiz-adv-x="753" d="M217 1325l136 225l437 -252l-78 -132z" />
<glyph unicode="a" horiz-adv-x="1074" d="M71 306q0 144 38.5 277t108.5 235.5t169.5 164t220.5 61.5q61 0 110.5 -24t87.5 -56l20 80h229q-3 -20 -6.5 -38.5t-6.5 -38.5l-113 -716q-15 -95 -19 -155q-2 -35 -3 -61q0 -20 2 -35h-250q-10 29 -10 70q1 6 1 11q2 48 12 98q5 23 13.5 52t18.5 59.5t20.5 60t18.5 53.5 q-38 -85 -85 -162t-101 -135t-115 -92.5t-128 -34.5q-106 0 -169.5 80t-63.5 246zM342 313q0 -103 59 -103q22 0 52.5 22.5t65.5 61.5t71.5 93t70 116.5t61 132t44.5 139.5q-6 5 -19.5 15.5t-33 21t-43.5 18t-51 7.5q-59 0 -109.5 -43.5t-88 -116t-58.5 -167t-21 -197.5z " />
<glyph unicode="b" horiz-adv-x="1074" d="M77 84l181 1135q14 86 14 144q0 6 1 13q0 49 -4 80l257 24q10 -38 10 -100q0 -2 1 -6q0 -60 -12 -132l-37 -235q-14 -87 -40 -184.5t-61 -198.5q36 84 81 160t98 133.5t114 92t130 34.5q106 0 169.5 -79.5t63.5 -246.5q0 -144 -39 -277.5t-112 -235.5t-178.5 -163.5 t-239.5 -61.5q-71 0 -136 12.5t-118 30t-90.5 35t-52.5 26.5zM350 221q5 -3 19 -9t33.5 -11.5t43.5 -10t51 -4.5q58 0 108 43.5t87 116.5t58.5 168t21.5 197q0 103 -59 103q-32 0 -82 -48.5t-103.5 -130t-101.5 -189t-76 -225.5z" />
<glyph unicode="c" horiz-adv-x="807" d="M71 306q0 84 15.5 171.5t46 169.5t77.5 154.5t109.5 126t142 85t175.5 31.5q41 0 76.5 -6t63 -13.5t46.5 -15.5t28 -13l-69 -201q-6 2 -20.5 7t-34.5 10t-45 8.5t-51 3.5q-69 0 -122.5 -47t-90.5 -121.5t-56.5 -166t-19.5 -180.5q0 -54 17 -82.5t59 -28.5q32 0 70 8 t76 20t72.5 25.5t58.5 24.5l33 -189q-25 -15 -63.5 -33.5t-88 -35t-108.5 -27.5t-127 -11q-130 0 -200 80t-70 246z" />
<glyph unicode="d" horiz-adv-x="1077" d="M71 306q0 144 38.5 277t108.5 235.5t169.5 164t220.5 61.5q51 0 94.5 -17t78.5 -43l38 235q15 86 15 144v13q0 49 -4 80l257 24q11 -38 11 -100v-6q0 -60 -12 -132l-44 -275l-113 -716q-15 -95 -19 -155q-2 -35 -3 -61q0 -20 2 -35h-250q-10 29 -10 70q1 6 1 11 q2 48 12 98q5 23 13.5 52t18.5 59.5t20.5 60t18.5 53.5q-38 -85 -85 -162t-101 -135t-115 -92.5t-128 -34.5q-106 0 -169.5 80t-63.5 246zM342 313q0 -103 59 -103q22 0 52.5 22.5t65.5 61.5t71.5 93t70 116.5t61 132t44.5 139.5q-6 6 -19.5 16t-33 20.5t-43.5 18t-51 7.5 q-59 0 -109.5 -43.5t-88 -116t-58.5 -167t-21 -197.5z" />
<glyph unicode="e" horiz-adv-x="875" d="M71 306q0 84 15.5 171.5t45.5 169.5t75.5 154.5t104.5 126t132.5 85t160.5 31.5q132 0 202 -62.5t70 -171.5q1 -82 -37.5 -147t-108.5 -113.5t-167.5 -81t-213.5 -49.5q-5 -28 -6.5 -56t-1.5 -54q0 -54 18.5 -82.5t61.5 -28.5q35 0 79 10.5t88.5 25t84 30.5t65.5 28 l31 -190q-25 -16 -67.5 -37t-98.5 -40t-122 -32t-138 -13q-131 0 -202 80t-71 246zM370 561q56 11 105 32.5t85.5 51t57.5 64.5t21 74q0 31 -14.5 46.5t-40.5 15.5q-34 0 -67 -23t-61.5 -62t-50.5 -90.5t-35 -108.5z" />
<glyph unicode="f" horiz-adv-x="692" d="M61 -396l194 1221h-142l29 181l149 10q-3 18 -3.5 38.5t-0.5 42.5q3 183 111.5 283t314.5 100q37 0 72.5 -5t65 -11.5t50.5 -13.5t29 -10l-63 -187q-26 8 -71 15t-91 7q-43 0 -74 -11.5t-50.5 -32.5t-29.5 -49.5t-12 -61.5q-2 -26 -1 -54t3 -42h247l-32 -199h-237 l-194 -1221h-264z" />
<glyph unicode="g" horiz-adv-x="1091" d="M55 -351l53 192q15 -6 43 -14.5t63.5 -16t77 -12.5t84.5 -5q121 0 188.5 50t87.5 144q14 70 26.5 143t32.5 161q9 29 18 58.5t20 61.5q-38 -87 -85 -165t-101.5 -137t-116 -94t-129.5 -35q-52 0 -95 19.5t-74 60t-47.5 102t-16.5 144.5q0 144 38.5 277t108.5 235.5 t169.5 164t220.5 61.5q61 0 111 -24t88 -56l19 80h229q-3 -20 -6 -38.5t-7 -38.5q-27 -168 -48 -306.5t-39 -257t-33.5 -221.5t-30.5 -202q-18 -105 -59.5 -180t-107.5 -123t-157.5 -70.5t-210.5 -22.5q-60 0 -112 7.5t-93 18t-69 21.5t-40 18zM355 313q0 -103 59 -103 q22 0 52.5 22.5t65.5 61.5t71.5 93t70 116.5t61 132t44.5 139.5q-6 5 -19.5 15.5t-33 21t-43.5 18t-51 7.5q-59 0 -109.5 -43.5t-88 -116t-58.5 -167t-21 -197.5z" />
<glyph unicode="h" horiz-adv-x="1106" d="M66 0l194 1219q14 86 14 144q0 6 1 13q0 49 -4 80l256 24q8 -30 10 -76q1 -13 1 -26q0 -34 -4 -70q-4 -45 -12 -100l-35 -218q-7 -40 -15 -79t-20 -83q-7 -26 -16 -57t-19 -62.5t-20 -61.5t-18 -55q45 98 97.5 181t111 143t122.5 94t132 34q67 0 110.5 -25t66.5 -70.5 t27 -108.5q1 -16 1 -32q0 -50 -9 -107l-72 -450q-15 -95 -19 -155q-2 -35 -2 -61q0 -20 1 -35h-247q-4 10 -7 31t-4.5 48t-0.5 58.5t6 62.5l74 468q5 20 3 36q2 27 -4 45t-25 23q-18 9 -49 0q-38 -10 -87.5 -56.5t-98 -126t-89.5 -189t-63 -246.5v1l-24 -155h-264z" />
<glyph unicode="i" horiz-adv-x="517" d="M90 138q1 32 6 62l132 824h264l-123 -773q-15 -95 -19 -155q-2 -35 -3 -61q0 -20 2 -35h-247q-4 10 -7 31t-5 48q-1 16 0 34v25zM256 1320q0 44 14 77.5t39 57t59.5 35.5t75.5 12q57 0 91 -32.5t34 -90.5q0 -44 -14 -78t-39.5 -57.5t-59.5 -35.5t-75 -12q-57 0 -91 32.5 t-34 91.5z" />
<glyph unicode="j" horiz-adv-x="518" d="M-255 -373l51 188q17 -6 51.5 -14t73.5 -8q33 0 55.5 8t38.5 26t26 47.5t17 73.5l172 1076h263l-168 -1071q-16 -104 -49 -174.5t-81.5 -113.5t-112.5 -62t-142 -19q-38 0 -70 5t-57.5 12t-43 14.5t-24.5 11.5zM257 1320q0 44 14 77.5t39 57t59.5 35.5t75.5 12 q57 0 91 -32.5t34 -90.5q0 -44 -14 -78t-39.5 -57.5t-59.5 -35.5t-75 -12q-57 0 -91 32.5t-34 91.5z" />
<glyph unicode="k" horiz-adv-x="991" d="M66 0l195 1219q15 86 15 144v13q0 49 -4 80l256 24q12 -38 12 -100v-6q0 -60 -12 -132l-104 -658q64 23 123 62.5t100 95.5t59 127q9 35 8 73q0 39 -9 82l276 20q18 -59 18 -111q-1 -7 -1 -13q-2 -58 -20 -110t-48 -95.5t-65 -79t-72 -63.5t-69 -47l183 -525h-287 l-124 428q-26 -11 -52 -21t-50 -18l-62 -389h-266z" />
<glyph unicode="l" horiz-adv-x="517" d="M90 138q1 32 6 62l164 1019q14 86 14 144t-3 93l256 24q11 -38 11 -100v-6q0 -60 -11 -132l-158 -991q-15 -95 -19 -155q-2 -35 -3 -61q0 -20 2 -35h-247q-4 10 -7 31t-5 48q-1 16 0 34v25z" />
<glyph unicode="m" horiz-adv-x="1687" d="M66 0l122 773q16 95 20 155q3 36 2 63q0 18 -1 33h249q9 -29 9 -68v-15q-2 -49 -13 -100q-6 -28 -15 -61t-19.5 -66t-21 -64.5t-19.5 -57.5q44 99 96 182t109.5 143t120.5 93.5t129 33.5q50 0 86.5 -14.5t60.5 -38.5t36.5 -56t13.5 -68q2 -21 -0.5 -46t-7.5 -52 q-4 -19 -11 -42.5t-14.5 -47.5t-15.5 -46t-14 -40q45 98 96.5 181t109 143t120.5 93.5t129 33.5q67 0 110.5 -25t66.5 -70.5t27 -108.5q1 -16 1 -32q0 -50 -9 -107l-72 -450q-15 -95 -19 -155q-2 -35 -3 -61q0 -20 2 -35h-247q-4 10 -7 31t-4.5 48t-0.5 58.5t6 62.5l75 468 q4 23 4 42q1 24 -5 40q-10 32 -47 31q-35 0 -86 -40.5t-103.5 -119.5t-98.5 -196t-70 -271l-25 -154h-264l107 673q3 20 3 36q0 24 -6 42q-10 30 -46 30q-35 0 -86 -40.5t-103.5 -119.5t-98.5 -196t-70 -271l-24 -154h-264z" />
<glyph unicode="n" horiz-adv-x="1106" d="M66 0l122 773q16 95 20 155q3 36 2 63q0 18 -1 33h249q9 -29 9 -68v-15q-2 -49 -13 -100q-6 -29 -15.5 -62t-20 -66t-21 -64.5t-18.5 -56.5q45 98 97.5 181t111 143t122.5 94t132 34q67 0 110.5 -25t66.5 -70.5t27 -108.5q1 -16 1 -32q0 -50 -9 -107l-72 -450 q-15 -95 -19 -155q-2 -35 -2 -61q0 -20 1 -35h-247q-4 10 -7 31t-4.5 48t-0.5 58.5t6 62.5l74 468q2 13 3 32.5t-3 37.5t-15 30.5t-33 12.5q-35 0 -87.5 -40.5t-106 -119.5t-100.5 -196t-71 -271l-24 -154h-264z" />
<glyph unicode="o" horiz-adv-x="983" d="M59 335q0 153 40.5 283t115.5 224.5t181 148t236 53.5q79 0 141 -25.5t104.5 -72t65 -112.5t22.5 -146q0 -153 -41 -283t-116 -224.5t-180.5 -147.5t-235.5 -53q-78 0 -140 25.5t-105 72t-65.5 112t-22.5 145.5zM330 348q0 -87 26 -128t78 -41q56 0 104 40.5t82.5 109.5 t54 159t19.5 189q0 87 -25.5 125t-77.5 38q-55 0 -103 -40t-83 -107.5t-55 -156.5t-20 -188z" />
<glyph unicode="p" horiz-adv-x="1080" d="M0 -396l74 453l113 716q15 94 19 155q2 34 2 61q0 20 -1 35h250q9 -30 9 -72v-9q-1 -48 -12 -98q-5 -22 -13.5 -51.5t-18.5 -60t-20.5 -60t-18.5 -53.5q38 85 84.5 162t100.5 135t115.5 92.5t128.5 34.5q106 0 169.5 -79.5t63.5 -246.5q0 -144 -38.5 -277t-108.5 -235.5 t-169 -164t-221 -61.5q-52 0 -95 17t-78 43l-71 -436h-264zM350 249q6 -6 19.5 -16.5t33 -20.5t43.5 -17.5t51 -7.5q59 0 109.5 43.5t88 116t58.5 167t21 197.5t-59 103q-21 0 -52 -22.5t-66 -61.5t-71.5 -93t-70 -116.5t-61 -132t-44.5 -139.5z" />
<glyph unicode="q" horiz-adv-x="1071" d="M71 306q0 144 39 277.5t112 235.5t179 163.5t239 61.5q71 0 136 -13t118 -30t90.5 -34.5t52.5 -26.5l-214 -1336h-263q22 138 41.5 281t51.5 276q12 50 33 113t41 126q-36 -84 -81 -160t-98 -134t-114 -92t-130 -34q-106 0 -169.5 80t-63.5 246zM342 313q0 -103 59 -103 q32 0 82 48.5t103.5 130t101.5 189t76 225.5q-5 3 -19 8.5t-33.5 11.5t-43.5 10t-51 4q-58 0 -108 -43.5t-87 -116t-58.5 -167.5t-21.5 -197z" />
<glyph unicode="r" horiz-adv-x="784" d="M66 0l122 773q16 95 20 155q3 36 2 63q0 18 -1 33h249q9 -29 9 -69q-1 -12 -1 -24q-4 -55 -18 -116q-5 -21 -12.5 -46t-15.5 -51.5t-16 -51.5t-15 -45q38 86 80.5 163t90.5 135t102 91.5t115 33.5q25 0 43.5 -5.5t26.5 -9.5l-52 -301q-11 2 -33 4.5t-45 2.5 q-45 0 -98 -30.5t-103 -99t-93 -179.5t-69 -272l-24 -154h-264z" />
<glyph unicode="s" horiz-adv-x="757" d="M21 37l53 199q15 -6 41 -14.5t59 -16t70 -13t74 -5.5q60 0 93 16.5t33 58.5q0 20 -10 40t-30 43t-51.5 51.5t-74.5 64.5q-45 38 -78 72t-54 68t-31 69t-10 75q0 67 24.5 122t71.5 94.5t117 61t160 21.5q47 0 91 -5.5t80 -13t61.5 -15t35.5 -11.5l-42 -202q-10 3 -33.5 9 t-55 12t-68 10.5t-72.5 4.5q-50 0 -76 -14.5t-33 -36.5q-4 -10 -5 -21t3 -23q3 -17 11.5 -33.5t24.5 -34.5t40.5 -40.5t58.5 -51.5q53 -45 90.5 -83.5t61.5 -74.5t35 -71.5t11 -74.5v-6q0 -64 -21 -116q-22 -54 -67.5 -92.5t-115 -59t-163.5 -20.5q-55 0 -103 5.5t-88 14 t-70 18.5t-48 19z" />
<glyph unicode="t" horiz-adv-x="748" d="M76 825l29 181l160 10l56 235l230 19l-39 -246h257l-32 -199h-253l-82 -520q-4 -28 -3 -42q-2 -35 10.5 -50t41.5 -15q18 0 46 5.5t58.5 14.5t60 19.5t51.5 19.5l31 -189q-23 -13 -58.5 -28.5t-79 -28.5t-92 -22t-98.5 -9q-67 0 -117 16t-81 52q-32 36 -42 94 q-5 26 -4 56q0 38 7 83l87 544h-144z" />
<glyph unicode="u" horiz-adv-x="1094" d="M103 184q-1 16 -1 32q0 50 9 107l72 450q15 95 19 155q3 36 2 63q0 18 -1 33h247q4 -10 7 -31t4.5 -48t0.5 -58t-7 -63l-74 -468q-3 -22 -2 -36q-2 -35 9.5 -56t40.5 -21q34 0 84.5 40.5t102 119.5t96.5 196t69 271v-1l24 155h264l-123 -773q-15 -95 -19 -155 q-2 -35 -3 -61q0 -20 2 -35h-249q-10 30 -10 71q1 5 1 11q2 48 12 100q6 29 15.5 62t20 66.5t21 65t19.5 56.5q-44 -99 -95 -182t-108 -143t-118.5 -93.5t-127.5 -33.5q-67 0 -110.5 25t-66.5 70.5t-27 108.5z" />
<glyph unicode="v" horiz-adv-x="905" d="M106 1024h249q11 -32 18 -77.5t10 -99.5l32 -595q55 55 99 123t75 145.5t47.5 160.5t16.5 168q0 50 -6 95t-17 80l251 20q14 -30 22.5 -77t8.5 -104q0 -130 -43 -257.5t-115 -240.5t-165 -207t-193 -158h-208l-49 813q-2 32 -5.5 64t-8 60.5t-9.5 51t-10 35.5z" />
<glyph unicode="w" horiz-adv-x="1424" d="M110 1024h248q12 -32 19.5 -77.5t10.5 -99.5l37 -611q112 115 172 256t67 301q-5 75 -14.5 127t-19.5 84l253 20q14 -31 23.5 -79t9.5 -107q0 -94 -26 -187q1 -11 1.5 -21.5t1.5 -21.5l35 -372q59 62 104.5 134t76 149.5t46 159t15.5 162.5q0 53 -6.5 100t-18.5 83 l249 20q14 -31 23.5 -79t9.5 -107q0 -131 -40.5 -256.5t-109 -237.5t-158.5 -205t-189 -159h-200l-34 313q-57 -95 -127.5 -173.5t-147.5 -139.5h-220l-55 813q-2 32 -6.5 64t-9.5 60.5t-10 51t-10 35.5z" />
<glyph unicode="x" horiz-adv-x="1005" d="M-32 0l412 528l-223 496h279l118 -323l213 323h282l-372 -497l253 -527h-281l-148 355l-250 -355h-283z" />
<glyph unicode="y" horiz-adv-x="941" d="M-170 -364l71 184q18 -10 53.5 -18.5t69.5 -8.5q50 0 86.5 18.5t59.5 67t32 133.5q4 47 4 107q0 50 -3 110q-9 155 -21 293.5t-24 246t-22.5 175.5t-15.5 80h248q10 -33 34 -224t42 -544q2 -29 1.5 -54.5t-2.5 -48.5q15 24 28.5 48.5t26.5 49.5q43 72 78.5 150.5 t60.5 159.5t38.5 162t13.5 157q0 38 -4 75t-15 69l251 20q10 -26 18.5 -70.5t8.5 -96.5q0 -87 -23.5 -183.5t-65.5 -198t-100 -205.5t-128 -204.5t-149.5 -196t-163.5 -180.5q-57 -64 -132.5 -94.5t-166.5 -30.5q-70 0 -118 18t-71 34z" />
<glyph unicode="z" horiz-adv-x="833" d="M-23 92l544 733h-387l31 199h676l-26 -165l-461 -622q11 -16 40 -28.5t75 -12.5q33 0 69.5 11.5t70 27.5t62 33t46.5 29l59 -204q-21 -15 -52 -34.5t-71 -37t-88 -29.5t-102 -12q-47 0 -84 13.5t-63.5 36t-42.5 51.5t-21 61l-121 -162z" />
<glyph unicode="{" horiz-adv-x="767" d="M107 -77q0 52 19.5 100.5t48 93.5t62.5 87.5t62.5 82.5t48 77.5t19.5 72.5q0 72 -48.5 105.5t-136.5 35.5l27 172q16 1 31 2t29 3q41 5 73.5 19.5t55 36.5t34.5 50t12 59q0 45 -18.5 93.5t-40 98t-40 100t-18.5 100.5q0 76 29.5 136.5t81 102.5t120.5 64t148 22 q54 0 98.5 -11.5t67.5 -22.5l-57 -174q-20 7 -51.5 13t-70.5 6q-29 0 -53 -10t-41 -26.5t-27 -36.5t-12 -41q-3 -44 16 -92.5t43 -99.5t45 -103t21 -104t-18.5 -96.5t-51 -79t-75.5 -59t-93 -36.5q73 -20 118 -72.5t45 -126.5q0 -43 -19.5 -87.5t-49 -89t-63.5 -88 t-63.5 -83.5t-49 -76t-19.5 -66q0 -43 26 -68.5t78 -25.5q35 0 67.5 5.5t55.5 12.5l2 -173q-26 -12 -76 -23.5t-107 -11.5q-64 0 -116.5 15t-90 44.5t-58 72.5t-20.5 100z" />
<glyph unicode="|" horiz-adv-x="574" d="M7 -499l320 2022h240l-320 -2022h-240z" />
<glyph unicode="}" horiz-adv-x="797" d="M-15 -274l57 174q20 -7 51 -13t71 -6q29 0 53 10t41.5 26.5t27.5 36.5t11 41q3 44 -16 92.5t-43.5 99t-45 103t-20.5 104.5t18.5 96.5t51 79t76 59t92.5 36.5q-73 20 -118 72.5t-45 126.5q0 43 19.5 87.5t49 89t63.5 87.5t63.5 83.5t49 76.5t19.5 66q0 43 -26 68.5 t-78 25.5q-35 0 -67.5 -5.5t-55.5 -13.5l-2 174q26 12 76 23t107 11q64 0 116.5 -15t89.5 -44t57.5 -72t20.5 -100q0 -52 -19 -100.5t-48 -93.5t-62.5 -87.5t-62.5 -82.5t-48 -77t-19 -73q0 -72 48.5 -105.5t136.5 -35.5l-27 -172q-17 -1 -32 -2t-29 -3q-41 -4 -73 -19 t-54.5 -37t-34.5 -50t-12 -59q0 -45 18.5 -93.5t40 -98t40 -100t18.5 -100.5q0 -76 -29.5 -136.5t-81 -102.5t-120.5 -64.5t-148 -22.5q-54 0 -98.5 12t-67.5 23z" />
<glyph unicode="~" horiz-adv-x="1147" d="M165 662q66 65 147.5 103t166.5 38q44 0 80.5 -10.5t70.5 -23.5t67 -23.5t71 -10.5q28 0 56 7.5t53.5 18.5t48.5 23.5t40 22.5l46 -139q-66 -65 -147.5 -103t-166.5 -38q-44 0 -81 10.5t-70.5 23.5t-67 23.5t-71.5 10.5q-28 0 -56 -7.5t-53.5 -18.5t-48 -23.5 t-39.5 -22.5z" />
<glyph unicode="&#xa1;" horiz-adv-x="567" d="M30 -306l187 909h201l-100 -909h-288zM204 861q0 44 14 78t39.5 57.5t60 35.5t74.5 12q57 0 91 -32.5t34 -90.5q0 -44 -14 -78t-39.5 -57.5t-59.5 -35.5t-75 -12q-57 0 -91 32.5t-34 90.5z" />
<glyph unicode="&#xa2;" horiz-adv-x="988" d="M100 569q-1 123 36.5 228t106.5 186t165.5 134t213.5 70l19 230h219l-53 -226q70 -10 119.5 -29t73.5 -35l-78 -191q-9 4 -28.5 11.5t-46.5 15.5t-60 14t-69 6q-75 0 -137.5 -26.5t-108 -76t-71 -120.5t-24.5 -160q0 -125 65.5 -191t186.5 -66q34 0 68 5.5t63 13.5 t52.5 16.5t36.5 14.5l28 -189q-34 -19 -92 -39.5t-139 -28.5l-19 -224h-219l53 227q-85 14 -152 50.5t-113 92t-70.5 128.5t-25.5 159z" />
<glyph unicode="&#xa3;" horiz-adv-x="1105" d="M60 155q12 7 29.5 14.5t36.5 14.5t39 13t37 10q42 106 61.5 205t23.5 198h-160l22 138h138q0 46 3 93t11 98q15 97 55.5 173.5t104 129t148.5 80.5t188 28q51 0 94 -8t77.5 -20t60 -25.5t41.5 -23.5l-85 -193q-10 5 -32 13.5t-51 17t-64.5 15t-72.5 6.5q-78 0 -131 -45.5 t-67 -133.5q-8 -53 -10.5 -103.5t-2.5 -101.5h321l-22 -138h-303q-4 -95 -26 -194.5t-66 -200.5q57 -6 111 -15.5t110 -10.5q36 -1 62 8t46 26.5t35.5 42.5t29.5 56l166 -49q-37 -151 -129.5 -222t-229.5 -71q-47 0 -91 6t-87.5 13t-88.5 13.5t-94 7.5l-7 -5.5t-18 -13.5 t-24.5 -16.5t-28.5 -14.5l-140 29z" />
<glyph unicode="&#xa4;" horiz-adv-x="1267" d="M20 211l215 213q-46 83 -46 187q0 89 31 168t88 142l-143 207l145 107l171 -188q54 24 114 37.5t126 13.5q65 0 120 -14.5t100 -40.5l235 192l111 -107l-215 -214q22 -41 34 -87.5t12 -97.5q0 -89 -31 -167.5t-86 -141.5l140 -209l-144 -106l-171 187q-54 -25 -114.5 -38 t-126.5 -13q-65 0 -120 14t-100 40l-234 -190zM427 632q0 -44 13 -81t38 -63.5t60 -41t78 -14.5q56 0 104 21t83.5 58t56 87.5t20.5 109.5q0 44 -13 80.5t-38 62.5t-59.5 40.5t-78.5 14.5q-55 0 -103.5 -20.5t-84 -57.5t-56 -87t-20.5 -109z" />
<glyph unicode="&#xa5;" horiz-adv-x="1202" d="M190 465l22 137h830l-22 -137h-282l-74 -465h-267l74 465h-281zM192 1330h275l173 -487q4 -11 8.5 -22t9.5 -23l359 532h275l-329 -464h143l-21 -137h-875l21 137h140z" />
<glyph unicode="&#xa6;" horiz-adv-x="574" d="M7 -499l128 810h240l-128 -810h-240zM199 713l128 810h240l-128 -810h-240z" />
<glyph unicode="&#xa7;" horiz-adv-x="1030" d="M-48 -334l87 198q48 -18 106.5 -35.5t127.5 -22.5q35 45 47.5 104.5t6.5 132.5q-2 42 -10.5 91t-21.5 101l-85 327q-28 104 -45.5 191.5t-17.5 175.5q0 125 44.5 226.5t125.5 173.5t194.5 111.5t251.5 39.5q59 0 111.5 -8t96.5 -20.5t79 -27t58 -26.5l-86 -198 q-48 18 -107.5 35.5t-127.5 22.5q-35 -45 -47.5 -104.5t-7.5 -132.5q3 -42 11 -91t22 -101l86 -327q26 -106 44 -192.5t18 -174.5q0 -125 -44 -227t-125 -174t-194.5 -111t-252.5 -39q-58 0 -111 8t-97 20.5t-79 27t-58 26.5zM386 964q0 -68 14 -151t41 -189 q29 -118 61.5 -239t49.5 -236q13 -63 12.5 -113.5t-11 -90.5t-29.5 -70.5t-43 -54.5q99 29 146 97.5t47 183.5q0 68 -14 150t-41 188l-86 335q-21 84 -31.5 147t-6.5 115q4 69 26 120.5t59 87.5q-100 -29 -147 -97.5t-47 -182.5z" />
<glyph unicode="&#xa8;" horiz-adv-x="898" d="M197 1320q0 44 14 77.5t39.5 57t60 35.5t74.5 12q58 0 91.5 -32.5t33.5 -90.5q0 -44 -14 -78t-39 -57.5t-59 -35.5t-75 -12q-58 0 -92 32.5t-34 91.5zM627 1320q0 44 14 77.5t39.5 57t60 35.5t74.5 12q57 0 91 -32.5t34 -90.5q0 -44 -14 -78t-39.5 -57.5t-59.5 -35.5 t-75 -12q-57 0 -91 32.5t-34 91.5z" />
<glyph unicode="&#xa9;" horiz-adv-x="1520" d="M107 574q0 105 30.5 203.5t84.5 185t128.5 157.5t163.5 122.5t188.5 79.5t202.5 28q126 0 232 -46.5t183 -127t120 -189t43 -232.5q0 -105 -30.5 -203.5t-85 -184.5t-129.5 -157.5t-164 -122.5t-188.5 -79t-203.5 -28q-126 0 -231.5 46.5t-182 126.5t-119 188.5 t-42.5 232.5zM264 595q0 -97 33 -181.5t92.5 -146.5t141.5 -98t181 -36q119 0 229.5 48t196 130t136.5 191t51 231q0 98 -33 182.5t-92.5 147t-142.5 98.5t-182 36q-118 0 -228.5 -48t-195.5 -130.5t-136 -192t-51 -231.5zM425 594q0 99 32 182.5t90.5 144t140 94.5 t179.5 34q71 0 122.5 -17t79.5 -35l-67 -153q-19 8 -57.5 19.5t-87.5 11.5q-55 0 -95.5 -18.5t-67.5 -52t-40 -81.5t-13 -107q0 -78 36.5 -119.5t111.5 -41.5q48 0 92.5 10.5t71.5 21.5l22 -151q-40 -23 -103.5 -39.5t-138.5 -16.5q-73 0 -130.5 23t-97 64t-60 99t-20.5 128 z" />
<glyph unicode="&#xaa;" horiz-adv-x="645" d="M159 920q0 92 24 170.5t67 136t102 90.5t129 33q43 0 74.5 -17t54.5 -36l20 43h163l-19 -110l-56 -351q-8 -46 -10 -82.5t0 -53.5h-176q-4 11 -4.5 33t1.5 43q0 12 1 24.5t3 24.5q-20 -28 -43 -53t-49.5 -43.5t-57 -29t-65.5 -10.5q-79 0 -119 48.5t-40 139.5zM359 945 q0 -26 6.5 -40t23.5 -14q20 0 44.5 21.5t49.5 59.5t47 89t36 109q-8 8 -25.5 18t-45.5 10q-32 0 -57 -23t-42.5 -59t-27 -81t-9.5 -90z" />
<glyph unicode="&#xab;" horiz-adv-x="1222" d="M127 514q54 48 115 106t123.5 121t124 129.5t118.5 131.5l156 -132q-35 -44 -77.5 -89.5t-88.5 -90.5t-94.5 -89.5t-96.5 -86.5q34 -41 68.5 -86t66.5 -90.5t60 -91t49 -88.5l-198 -132q-36 64 -77 130.5t-83 130t-84.5 121.5t-81.5 106zM600 514q50 45 104.5 97.5 t111 110.5t113 118.5t110.5 120.5l156 -132q-66 -79 -146 -159.5t-170 -155.5q67 -75 121 -155.5t95 -159.5l-198 -133q-34 60 -71.5 120.5t-75.5 118.5t-76 111t-74 98z" />
<glyph unicode="&#xac;" horiz-adv-x="1314" d="M195 559l33 211h921l-78 -490h-216l44 279h-704z" />
<glyph unicode="&#xad;" horiz-adv-x="942" d="M197 427l34 211h616l-33 -211h-617z" />
<glyph unicode="&#xae;" horiz-adv-x="1520" d="M107 574q0 105 30.5 203.5t84.5 185t128.5 157.5t163.5 122.5t188.5 79.5t202.5 28q126 0 232 -46.5t183 -127t120 -189t43 -232.5q0 -105 -30.5 -203.5t-85 -184.5t-129.5 -157.5t-164 -122.5t-188.5 -79t-203.5 -28q-126 0 -231.5 46.5t-182 126.5t-119 188.5 t-42.5 232.5zM264 595q0 -97 33 -181.5t92.5 -146.5t141.5 -98t181 -36q119 0 229.5 48t196 130t136.5 191t51 231q0 98 -33 182.5t-92.5 147t-142.5 98.5t-182 36q-118 0 -228.5 -48t-195.5 -130.5t-136 -192t-51 -231.5zM466 309l112 708h283q115 0 180.5 -49.5 t65.5 -143.5q0 -38 -11.5 -73t-32 -64.5t-48.5 -53t-61 -40.5l96 -284h-218l-63 243h-73l-39 -243h-191zM716 681h42q33 0 56 8.5t37 23.5q19 12 33 34.5t14 50.5q0 35 -19 55.5t-56 22.5q-9 2 -18.5 2h-18.5h-39z" />
<glyph unicode="&#xaf;" horiz-adv-x="847" d="M227 1251l32 198h620l-31 -198h-621z" />
<glyph unicode="&#xb0;" horiz-adv-x="596" d="M168 1044q0 63 23.5 119t66 97.5t101.5 65.5t129 24q53 0 94 -18t69.5 -49t43.5 -72t15 -86q0 -64 -23.5 -119.5t-65.5 -97t-100.5 -65.5t-129.5 -24q-53 0 -94.5 18t-70 49t-43.5 72t-15 86zM349 1067q0 -35 18.5 -61.5t58.5 -26.5q47 0 75 34.5t28 88.5q0 35 -18.5 61 t-57.5 26q-48 0 -76 -34.5t-28 -87.5z" />
<glyph unicode="&#xb1;" horiz-adv-x="1246" d="M130 35l32 198h826l-32 -198h-826zM235 742l31 198h318l51 314h203l-50 -314h318l-31 -198h-319l-51 -326h-204l52 326h-318z" />
<glyph unicode="&#xb2;" horiz-adv-x="538" d="M133 751l23 144q68 38 120 68t87 57t53 54t18 57q0 27 -14 42t-43 15q-21 0 -42.5 -4.5t-40.5 -10.5t-33.5 -12t-22.5 -9l-21 142q9 6 30 15.5t50 18.5t64 15.5t71 6.5q54 0 92.5 -13t63.5 -36.5t37 -55t12 -68.5q0 -48 -17.5 -87t-49.5 -71.5t-76.5 -60t-98.5 -52.5h222 l-24 -155h-460z" />
<glyph unicode="&#xb3;" horiz-adv-x="514" d="M124 769l55 134q15 -7 49 -16.5t80 -9.5q48 0 72 14.5t24 49.5q0 46 -61 46h-94l18 113h122q8 6 17.5 19.5t11.5 33.5q2 24 -14.5 37.5t-51.5 13.5q-33 0 -67.5 -8t-56.5 -18l-15 131q8 5 26 11.5t43 13.5t56 11.5t65 4.5q109 0 161 -41t52 -108q0 -31 -10 -55t-24 -41.5 t-30 -29t-28 -19.5h-1q10 -6 22 -15.5t22.5 -24.5t17.5 -34.5t7 -44.5q0 -98 -76.5 -152t-216.5 -54q-28 0 -56 4t-51 9.5t-41 12t-27 12.5z" />
<glyph unicode="&#xb4;" horiz-adv-x="718" d="M197 1295l512 257l72 -225l-541 -161z" />
<glyph unicode="&#xb6;" horiz-adv-x="1296" d="M177 836q0 121 42.5 213.5t118.5 154.5t181.5 94t231.5 32h548l-35 -218h-153l-240 -1508q-67 0 -133 0.5t-133 0.5l239 1507h-129l-102 -642q-101 0 -181.5 24t-137 70.5t-87 115t-30.5 156.5z" />
<glyph unicode="&#xb7;" horiz-adv-x="498" d="M97 483q0 44 14 77.5t39.5 57t60 35.5t74.5 12q58 0 91.5 -32.5t33.5 -90.5q0 -44 -14 -78t-39 -57.5t-59 -35.5t-75 -12q-58 0 -92 32.5t-34 91.5z" />
<glyph unicode="&#xb8;" horiz-adv-x="494" d="M-95 -501l39 131q12 -4 31 -7t45 -3q53 0 79.5 21.5t26.5 58.5q0 55 -85 55h-57l32 139h111q43 0 80 -10t64 -30.5t42.5 -51.5t15.5 -73q0 -66 -24.5 -113t-67 -77t-99 -44t-120.5 -14q-39 0 -69 5.5t-44 12.5z" />
<glyph unicode="&#xb9;" horiz-adv-x="512" d="M175 751l30 185q23 0 47 0.5t47 1.5l37 233l-30 -5t-37.5 -5.5t-38 -4.5t-31.5 -3l7 154q63 8 135.5 20t135.5 23h80l-65 -408q20 0 40.5 -1t40.5 -1l-30 -189h-368z" />
<glyph unicode="&#xba;" horiz-adv-x="644" d="M164 988q0 76 25 142t71 115t110.5 77t142.5 28q57 0 102 -20t76 -54.5t47 -81.5t16 -101q0 -76 -25 -142t-71 -115t-110.5 -77t-143.5 -28q-57 0 -101.5 20t-75.5 55t-47 81.5t-16 100.5zM366 1004q0 -47 17 -77.5t56 -30.5q30 0 51 16t34.5 42t19.5 58t6 65 q0 47 -16.5 77.5t-56.5 30.5q-30 0 -51 -16t-34.5 -42t-19.5 -58.5t-6 -64.5z" />
<glyph unicode="&#xbb;" horiz-adv-x="1242" d="M67 196q66 79 146 159.5t170 155.5q-66 75 -120 155.5t-96 159.5l199 133q34 -60 71 -120.5t75.5 -118.5t76.5 -111t74 -98q-50 -45 -105 -97.5t-111.5 -110.5t-113 -118.5t-109.5 -120.5zM499 155q35 44 77 89.5t88.5 90.5t95 89.5t96.5 86.5q-34 41 -68.5 86t-67 90.5 t-60 91t-48.5 88.5l198 132q36 -64 76.5 -130.5t83 -130t84.5 -121.5t81 -106q-54 -48 -114.5 -106t-123 -121.5t-124 -129.5t-118.5 -131z" />
<glyph unicode="&#xbf;" horiz-adv-x="766" d="M-10 -67q0 75 26.5 133t70 106.5t99 92t114.5 89.5q38 30 64 58t42 57.5t23 61t7 69.5l198 17q10 -54 5.5 -103.5t-25 -97t-59 -94.5t-95.5 -96q-43 -36 -78.5 -66t-61 -57t-40 -53t-14.5 -54q0 -54 40.5 -81t131.5 -27q32 0 64.5 3t61 6.5t50.5 8t34 7.5l-16 -206 q-14 -4 -40.5 -9.5t-62 -11t-78 -9t-89.5 -3.5q-90 0 -159.5 19.5t-117 54.5t-71.5 82t-24 103zM403 861q0 30 7.5 60t22.5 46q5 7 16 20t29 25.5t43.5 21.5t58.5 9q3 1 11 1q54 0 89.5 -31t35.5 -92q0 -58 -15 -93.5t-40.5 -55.5t-59.5 -27t-72 -7q-57 0 -91.5 32.5 t-34.5 90.5z" />
<glyph unicode="&#xc0;" horiz-adv-x="1182" d="M-78 0l687 1330h247l264 -1330h-280l-54 308h-433l-151 -308h-280zM452 513h300l-74 477zM460 1625l135 225l438 -252l-79 -132z" />
<glyph unicode="&#xc1;" horiz-adv-x="1182" d="M-78 0l687 1330h247l264 -1330h-280l-54 308h-433l-151 -308h-280zM452 513h300l-74 477zM494 1595l512 257l72 -225l-541 -161z" />
<glyph unicode="&#xc2;" horiz-adv-x="1182" d="M-78 0l687 1330h247l264 -1330h-280l-54 308h-433l-151 -308h-280zM430 1609q37 23 82.5 51.5t95 60.5t101.5 66t101 67q39 -33 80 -67t80 -66t75 -60t66 -51l-155 -160q-21 19 -45.5 41.5t-48.5 46.5t-46.5 47.5t-40.5 42.5q-24 -19 -54 -42.5t-62 -47.5t-63.5 -46.5 t-59.5 -41.5zM452 513h300l-74 477z" />
<glyph unicode="&#xc3;" horiz-adv-x="1182" d="M-78 0l687 1330h247l264 -1330h-280l-54 308h-433l-151 -308h-280zM408 1602q17 33 43 67t60 61.5t75.5 45.5t89.5 18q34 0 63.5 -11.5t56 -25t50 -25t45.5 -11.5q32 0 58.5 22.5t61.5 56.5l114 -97q-20 -37 -47.5 -71.5t-62 -61t-76.5 -42.5t-92 -16q-30 0 -57 11.5 t-52.5 25t-50 25t-47.5 11.5q-32 0 -58 -22.5t-60 -56.5zM452 513h300l-74 477z" />
<glyph unicode="&#xc4;" horiz-adv-x="1182" d="M-78 0l687 1330h247l264 -1330h-280l-54 308h-433l-151 -308h-280zM407 1620q0 44 14 77.5t39 57t59.5 35.5t75.5 12q57 0 91 -32.5t34 -90.5q0 -44 -14 -78t-39.5 -57.5t-59.5 -35.5t-75 -12q-57 0 -91 32.5t-34 91.5zM452 513h300l-74 477zM836 1620q0 44 14 77.5 t39.5 57t60 35.5t74.5 12q58 0 91.5 -32.5t33.5 -90.5q0 -44 -14 -78t-39 -57.5t-59.5 -35.5t-74.5 -12q-58 0 -92 32.5t-34 91.5z" />
<glyph unicode="&#xc5;" horiz-adv-x="1182" d="M-78 0l687 1330h247l264 -1330h-280l-54 308h-433l-151 -308h-280zM452 513h300l-74 477zM532 1609q0 62 22 111.5t61 84t92 53t114 18.5q45 0 81.5 -13t63 -37t41 -58t14.5 -76q0 -63 -22 -112.5t-60.5 -84t-91.5 -53t-115 -18.5q-45 0 -81.5 13t-63 37t-41 58t-14.5 77 zM697 1637q0 -29 18 -47t47 -18q41 0 67.5 25.5t26.5 66.5q0 29 -18.5 46.5t-47.5 17.5q-39 0 -66 -25t-27 -66z" />
<glyph unicode="&#xc6;" horiz-adv-x="1745" d="M-96 0l1146 1330h760l-35 -221h-478l-52 -331h453l-34 -215h-453l-55 -342h496l-34 -221h-761l49 307h-450l-262 -307h-290zM635 516h303l70 439z" />
<glyph unicode="&#xc7;" horiz-adv-x="1052" d="M95 499q0 188 52.5 344t148.5 269t230 175.5t297 62.5q49 0 94.5 -6t83.5 -15.5t67.5 -20.5t45.5 -20l-76 -202q-39 11 -102 24.5t-141 13.5q-94 0 -170.5 -42.5t-130.5 -119.5t-83 -185t-29 -239q0 -75 17 -136t51.5 -104.5t85.5 -67.5t118 -24q70 0 142.5 17t134.5 46 l31 -201q-33 -19 -74 -35.5t-86 -28t-92 -18t-93 -6.5q-126 0 -223.5 37t-164 105.5t-100.5 164t-34 212.5zM286 -501l39 131q12 -4 30.5 -7t44.5 -3q54 0 80.5 21.5t26.5 58.5q0 55 -85 55h-58l32 139h111q44 0 81 -10t64 -30.5t42.5 -51.5t15.5 -73q0 -66 -24.5 -113 t-67 -77t-99 -44t-121.5 -14q-38 0 -68 5.5t-44 12.5z" />
<glyph unicode="&#xc8;" horiz-adv-x="986" d="M65 0l211 1330h775l-35 -221h-509l-52 -331h484l-34 -215h-484l-55 -342h527l-34 -221h-794zM374 1625l135 225l438 -252l-79 -132z" />
<glyph unicode="&#xc9;" horiz-adv-x="986" d="M65 0l211 1330h775l-35 -221h-509l-52 -331h484l-34 -215h-484l-55 -342h527l-34 -221h-794zM466 1595l512 257l72 -225l-541 -161z" />
<glyph unicode="&#xca;" horiz-adv-x="986" d="M65 0l211 1330h775l-35 -221h-509l-52 -331h484l-34 -215h-484l-55 -342h527l-34 -221h-794zM361 1609q37 23 82.5 51.5t95 60.5t101.5 66t101 67q39 -33 80 -67t80 -66t75 -60t66 -51l-155 -160q-21 19 -45.5 41.5t-48.5 46.5t-46.5 47.5t-40.5 42.5q-24 -19 -54 -42.5 t-62 -47.5t-63.5 -46.5t-59.5 -41.5z" />
<glyph unicode="&#xcb;" horiz-adv-x="986" d="M65 0l211 1330h775l-35 -221h-509l-52 -331h484l-34 -215h-484l-55 -342h527l-34 -221h-794zM335 1620q0 44 14 77.5t39.5 57t60 35.5t74.5 12q57 0 91 -32.5t34 -90.5q0 -44 -14 -78t-39.5 -57.5t-59.5 -35.5t-75 -12q-57 0 -91 32.5t-34 91.5zM765 1620q0 44 14 77.5 t39.5 57t60 35.5t74.5 12q57 0 91 -32.5t34 -90.5q0 -44 -14 -78t-39.5 -57.5t-59.5 -35.5t-75 -12q-57 0 -91 32.5t-34 91.5z" />
<glyph unicode="&#xcc;" horiz-adv-x="537" d="M64 0l211 1330h266l-210 -1330h-267zM93 1625l135 225l438 -252l-79 -132z" />
<glyph unicode="&#xcd;" horiz-adv-x="537" d="M64 0l211 1330h266l-210 -1330h-267zM189 1595l511 257l72 -225l-541 -161z" />
<glyph unicode="&#xce;" horiz-adv-x="537" d="M64 0l211 1330h266l-210 -1330h-267zM112 1609q37 23 82.5 51.5t95 60.5t101.5 66t101 67q39 -33 79.5 -67t80 -66t75.5 -60t66 -51l-156 -160q-21 19 -45.5 41.5t-48.5 46.5t-46.5 47.5t-39.5 42.5q-24 -19 -54 -42.5t-62 -47.5t-63.5 -46.5t-59.5 -41.5z" />
<glyph unicode="&#xcf;" horiz-adv-x="537" d="M64 0l211 1330h266l-210 -1330h-267zM102 1619q0 44 14 78t39.5 57.5t60 35.5t74.5 12q57 0 91 -32.5t34 -90.5q0 -44 -14 -78t-39.5 -57.5t-59.5 -35.5t-75 -12q-57 0 -91 32.5t-34 90.5zM492 1619q0 44 14 78t39 57.5t59.5 35.5t75.5 12q57 0 91 -32.5t34 -90.5 q0 -44 -14 -78t-39.5 -57.5t-59.5 -35.5t-75 -12q-57 0 -91 32.5t-34 90.5z" />
<glyph unicode="&#xd0;" horiz-adv-x="1309" d="M39 596l22 139h167l94 595h411q132 0 233 -38t169.5 -108.5t103.5 -170t35 -222.5q0 -178 -52 -324t-150 -249.5t-238.5 -160.5t-318.5 -57h-403l94 596h-167zM409 210h140q98 0 179 39t138.5 111.5t89 175t31.5 228.5q0 169 -75 262.5t-212 93.5h-146l-62 -385h257 l-23 -139h-256z" />
<glyph unicode="&#xd1;" horiz-adv-x="1300" d="M65 0l211 1330h285l342 -908l145 908h257l-211 -1330h-286l-342 907l-144 -907h-257zM472 1602q17 33 43 67t60 61.5t75.5 45.5t89.5 18q34 0 63.5 -11.5t56 -25t50.5 -25t46 -11.5q32 0 58.5 22.5t61.5 56.5l114 -97q-20 -37 -47.5 -71.5t-62.5 -61t-77 -42.5t-91 -16 q-30 0 -57.5 11.5t-53 25t-50 25t-47.5 11.5q-32 0 -58 -22.5t-60 -56.5z" />
<glyph unicode="&#xd2;" d="M95 509q0 180 51 334t144 266.5t223.5 176.5t288.5 64q119 0 210 -39.5t153.5 -110t94.5 -167.5t32 -213q0 -180 -51 -333.5t-144 -266t-223.5 -176.5t-288.5 -64q-118 0 -209.5 39.5t-154 110t-94.5 167.5t-32 212zM381 540q0 -76 14.5 -139.5t45 -109.5t77.5 -71 t111 -25q76 0 144.5 43t120 121t82 187.5t30.5 242.5q0 77 -14.5 140.5t-45 109.5t-77.5 71t-111 25q-76 0 -144 -43t-120 -121.5t-82.5 -188t-30.5 -242.5zM512 1625l135 225l438 -252l-79 -132z" />
<glyph unicode="&#xd3;" d="M95 509q0 180 51 334t144 266.5t223.5 176.5t288.5 64q119 0 210 -39.5t153.5 -110t94.5 -167.5t32 -213q0 -180 -51 -333.5t-144 -266t-223.5 -176.5t-288.5 -64q-118 0 -209.5 39.5t-154 110t-94.5 167.5t-32 212zM381 540q0 -76 14.5 -139.5t45 -109.5t77.5 -71 t111 -25q76 0 144.5 43t120 121t82 187.5t30.5 242.5q0 77 -14.5 140.5t-45 109.5t-77.5 71t-111 25q-76 0 -144 -43t-120 -121.5t-82.5 -188t-30.5 -242.5zM570 1595l512 257l72 -225l-541 -161z" />
<glyph unicode="&#xd4;" d="M95 509q0 180 51 334t144 266.5t223.5 176.5t288.5 64q119 0 210 -39.5t153.5 -110t94.5 -167.5t32 -213q0 -180 -51 -333.5t-144 -266t-223.5 -176.5t-288.5 -64q-118 0 -209.5 39.5t-154 110t-94.5 167.5t-32 212zM381 540q0 -76 14.5 -139.5t45 -109.5t77.5 -71 t111 -25q76 0 144.5 43t120 121t82 187.5t30.5 242.5q0 77 -14.5 140.5t-45 109.5t-77.5 71t-111 25q-76 0 -144 -43t-120 -121.5t-82.5 -188t-30.5 -242.5zM505 1609q37 23 82.5 51.5t95 60.5t101.5 66t101 67q39 -33 79.5 -67t80 -66t75.5 -60t66 -51l-156 -160 q-21 19 -45.5 41.5t-48.5 46.5t-46.5 47.5t-40.5 42.5q-24 -19 -53.5 -42.5t-61.5 -47.5t-64 -46.5t-59 -41.5z" />
<glyph unicode="&#xd5;" d="M95 509q0 180 51 334t144 266.5t223.5 176.5t288.5 64q119 0 210 -39.5t153.5 -110t94.5 -167.5t32 -213q0 -180 -51 -333.5t-144 -266t-223.5 -176.5t-288.5 -64q-118 0 -209.5 39.5t-154 110t-94.5 167.5t-32 212zM381 540q0 -76 14.5 -139.5t45 -109.5t77.5 -71 t111 -25q76 0 144.5 43t120 121t82 187.5t30.5 242.5q0 77 -14.5 140.5t-45 109.5t-77.5 71t-111 25q-76 0 -144 -43t-120 -121.5t-82.5 -188t-30.5 -242.5zM486 1602q17 33 43 67t59.5 61.5t75 45.5t90.5 18q34 0 63.5 -11.5t55.5 -25t50 -25t46 -11.5q32 0 58.5 22.5 t61.5 56.5l114 -97q-20 -37 -47.5 -71.5t-62.5 -61t-77 -42.5t-91 -16q-30 0 -57 11.5t-52.5 25t-50 25t-47.5 11.5q-32 0 -58.5 -22.5t-59.5 -56.5z" />
<glyph unicode="&#xd6;" d="M95 509q0 180 51 334t144 266.5t223.5 176.5t288.5 64q119 0 210 -39.5t153.5 -110t94.5 -167.5t32 -213q0 -180 -51 -333.5t-144 -266t-223.5 -176.5t-288.5 -64q-118 0 -209.5 39.5t-154 110t-94.5 167.5t-32 212zM381 540q0 -76 14.5 -139.5t45 -109.5t77.5 -71 t111 -25q76 0 144.5 43t120 121t82 187.5t30.5 242.5q0 77 -14.5 140.5t-45 109.5t-77.5 71t-111 25q-76 0 -144 -43t-120 -121.5t-82.5 -188t-30.5 -242.5zM480 1620q0 44 14 77.5t39.5 57t60 35.5t74.5 12q58 0 91.5 -32.5t33.5 -90.5q0 -44 -14 -78t-39 -57.5 t-59.5 -35.5t-74.5 -12q-58 0 -92 32.5t-34 91.5zM910 1620q0 44 14 77.5t39.5 57t60 35.5t74.5 12q57 0 91 -32.5t34 -90.5q0 -44 -14 -78t-39.5 -57.5t-59.5 -35.5t-75 -12q-57 0 -91 32.5t-34 91.5z" />
<glyph unicode="&#xd7;" horiz-adv-x="1255" d="M170 378l333 288l-241 286l173 150l242 -287l332 287l126 -149l-332 -288l241 -286l-173 -150l-242 287l-333 -288z" />
<glyph unicode="&#xd8;" d="M87 -83l146 205q-69 69 -103.5 167.5t-34.5 219.5q0 180 51 334t144 266.5t223.5 176.5t288.5 64q71 0 130.5 -16t110.5 -45l139 195l118 -71l-146 -205q69 -70 103.5 -168.5t34.5 -219.5q0 -180 -51 -333.5t-144 -266t-223.5 -176.5t-288.5 -64q-71 0 -131 15.5 t-111 44.5l-138 -194zM381 540q0 -96 22 -166l502 710q-29 24 -65.5 37.5t-81.5 13.5q-76 0 -144 -43t-120 -121.5t-82.5 -188t-30.5 -242.5zM482 245q28 -24 64.5 -37t82.5 -13q76 0 144.5 43t120 121t82 187.5t30.5 242.5q0 96 -22 166z" />
<glyph unicode="&#xd9;" horiz-adv-x="1205" d="M112 298q-14 100 5 222l129 810h266l-126 -798q-13 -79 -10 -141.5t24 -105.5t62 -65.5t105 -22.5q106 0 179 78.5t97 233.5l131 821h266l-128 -808q-20 -127 -70.5 -228t-126 -170.5t-175 -106.5t-218.5 -37q-124 0 -210 38.5t-136 109t-64 170.5zM416 1625l136 225 l437 -252l-78 -132z" />
<glyph unicode="&#xda;" horiz-adv-x="1205" d="M112 298q-14 100 5 222l129 810h266l-126 -798q-13 -79 -10 -141.5t24 -105.5t62 -65.5t105 -22.5q106 0 179 78.5t97 233.5l131 821h266l-128 -808q-20 -127 -70.5 -228t-126 -170.5t-175 -106.5t-218.5 -37q-124 0 -210 38.5t-136 109t-64 170.5zM552 1595l512 257 l72 -225l-541 -161z" />
<glyph unicode="&#xdb;" horiz-adv-x="1205" d="M112 298q-14 100 5 222l129 810h266l-126 -798q-13 -79 -10 -141.5t24 -105.5t62 -65.5t105 -22.5q106 0 179 78.5t97 233.5l131 821h266l-128 -808q-20 -127 -70.5 -228t-126 -170.5t-175 -106.5t-218.5 -37q-124 0 -210 38.5t-136 109t-64 170.5zM455 1609 q37 23 82.5 51.5t95 60.5t101.5 66t101 67q39 -33 79.5 -67t80 -66t75.5 -60t66 -51l-156 -160q-21 19 -45.5 41.5t-48.5 46.5t-46.5 47.5t-40.5 42.5q-24 -19 -53.5 -42.5t-61.5 -47.5t-64 -46.5t-59 -41.5z" />
<glyph unicode="&#xdc;" horiz-adv-x="1205" d="M112 298q-14 100 5 222l129 810h266l-126 -798q-13 -79 -10 -141.5t24 -105.5t62 -65.5t105 -22.5q106 0 179 78.5t97 233.5l131 821h266l-128 -808q-20 -127 -70.5 -228t-126 -170.5t-175 -106.5t-218.5 -37q-124 0 -210 38.5t-136 109t-64 170.5zM417 1620 q0 44 14 77.5t39.5 57t60 35.5t74.5 12q57 0 91 -32.5t34 -90.5q0 -44 -14 -78t-39.5 -57.5t-59.5 -35.5t-75 -12q-57 0 -91 32.5t-34 91.5zM847 1620q0 44 14 77.5t39.5 57t60 35.5t74.5 12q57 0 91 -32.5t34 -90.5q0 -44 -14 -78t-39.5 -57.5t-59.5 -35.5t-75 -12 q-57 0 -91 32.5t-34 91.5z" />
<glyph unicode="&#xdd;" horiz-adv-x="1043" d="M112 1330h278l173 -565l354 565h283l-543 -829h1l-80 -501h-267l80 501h1zM425 1595l512 257l71 -225l-540 -161z" />
<glyph unicode="&#xde;" horiz-adv-x="1028" d="M65 0l211 1330h263l-39 -246h143q197 0 301.5 -85.5t104.5 -253.5q0 -120 -40.5 -213.5t-112 -157.5t-168.5 -97.5t-210 -33.5h-152l-38 -243h-263zM399 451h138q58 0 101.5 18t73 51.5t44 80t14.5 103.5q0 81 -40.5 122.5t-118.5 41.5h-145z" />
<glyph unicode="&#xdf;" horiz-adv-x="1174" d="M5 -396l230 1451q14 89 57 166.5t112.5 135t165 90.5t212.5 33q94 0 164.5 -25t117 -66t69.5 -95t23 -113q0 -56 -16.5 -100.5t-44 -82.5t-64 -72t-75.5 -68q-49 -43 -79 -74.5t-30 -69.5q0 -32 32.5 -65t85.5 -78q34 -30 63 -58t50 -58t33 -64.5t12 -76.5 q0 -76 -29.5 -138t-84.5 -105.5t-133 -67t-175 -23.5q-94 0 -159.5 20.5t-100.5 44.5l74 194q37 -19 91 -34.5t111 -15.5q68 0 103.5 23.5t35.5 71.5q0 20 -10.5 38.5t-28.5 38t-43 40.5t-54 45q-28 24 -52 46.5t-41.5 47.5t-27.5 55t-10 67q0 47 14 85.5t36.5 71.5t51.5 62 t59 57q28 26 52 49.5t42 48t28.5 51.5t10.5 59q0 25 -9 47.5t-27 39.5t-45.5 27t-65.5 10q-44 0 -83.5 -15.5t-71 -45.5t-53 -73t-29.5 -98l-228 -1434h-266z" />
<glyph unicode="&#xe0;" horiz-adv-x="1077" d="M71 306q0 144 38.5 277t108.5 235.5t169.5 164t220.5 61.5q61 0 110.5 -24t87.5 -56l20 80h229q-3 -20 -6.5 -38.5t-6.5 -38.5l-113 -716q-15 -94 -19 -154.5t-1 -96.5h-250q-11 33 -9.5 81t12.5 98q5 23 13.5 52t18.5 59.5t20.5 60t18.5 53.5q-38 -85 -85 -162 t-101 -135t-115 -92.5t-128 -34.5q-106 0 -169.5 80t-63.5 246zM342 313q0 -103 59 -103q22 0 52.5 22.5t65.5 61.5t71.5 93t70 116.5t61 132t44.5 139.5q-6 5 -19.5 15.5t-33 21t-43.5 18t-51 7.5q-59 0 -109.5 -43.5t-88 -116t-58.5 -167t-21 -197.5zM364 1325l135 225 l438 -252l-79 -132z" />
<glyph unicode="&#xe1;" horiz-adv-x="1080" d="M71 306q0 144 38.5 277t108.5 235.5t169.5 164t220.5 61.5q61 0 110.5 -24t87.5 -56l20 80h229q-3 -20 -6.5 -38.5t-6.5 -38.5l-113 -716q-15 -94 -19 -154.5t-1 -96.5h-250q-11 33 -9.5 81t12.5 98q5 23 13.5 52t18.5 59.5t20.5 60t18.5 53.5q-38 -85 -85 -162 t-101 -135t-115 -92.5t-128 -34.5q-106 0 -169.5 80t-63.5 246zM342 313q0 -103 59 -103q22 0 52.5 22.5t65.5 61.5t71.5 93t70 116.5t61 132t44.5 139.5q-6 5 -19.5 15.5t-33 21t-43.5 18t-51 7.5q-59 0 -109.5 -43.5t-88 -116t-58.5 -167t-21 -197.5zM463 1295l512 257 l72 -225l-541 -161z" />
<glyph unicode="&#xe2;" horiz-adv-x="1077" d="M71 306q0 144 38.5 277t108.5 235.5t169.5 164t220.5 61.5q61 0 110.5 -24t87.5 -56l20 80h229q-3 -20 -6.5 -38.5t-6.5 -38.5l-113 -716q-15 -94 -19 -154.5t-1 -96.5h-250q-11 33 -9.5 81t12.5 98q5 23 13.5 52t18.5 59.5t20.5 60t18.5 53.5q-38 -85 -85 -162 t-101 -135t-115 -92.5t-128 -34.5q-106 0 -169.5 80t-63.5 246zM336 1309q37 23 82.5 51.5t95 60.5t101.5 66t101 67q39 -33 79.5 -67t80 -66t75.5 -60t66 -51l-156 -160q-21 19 -45.5 41.5t-48.5 46.5t-46.5 47.5t-40.5 42.5q-24 -19 -53.5 -42.5t-61.5 -47.5t-64 -46.5 t-59 -41.5zM342 313q0 -103 59 -103q22 0 52.5 22.5t65.5 61.5t71.5 93t70 116.5t61 132t44.5 139.5q-6 5 -19.5 15.5t-33 21t-43.5 18t-51 7.5q-59 0 -109.5 -43.5t-88 -116t-58.5 -167t-21 -197.5z" />
<glyph unicode="&#xe3;" horiz-adv-x="1077" d="M71 306q0 144 38.5 277t108.5 235.5t169.5 164t220.5 61.5q61 0 110.5 -24t87.5 -56l20 80h229q-3 -20 -6.5 -38.5t-6.5 -38.5l-113 -716q-15 -94 -19 -154.5t-1 -96.5h-250q-11 33 -9.5 81t12.5 98q5 23 13.5 52t18.5 59.5t20.5 60t18.5 53.5q-38 -85 -85 -162 t-101 -135t-115 -92.5t-128 -34.5q-106 0 -169.5 80t-63.5 246zM317 1302q18 33 44 67t59.5 61.5t75 45.5t89.5 18q34 0 63.5 -11.5t56 -25t50.5 -25t46 -11.5q32 0 58.5 22.5t61.5 56.5l114 -97q-20 -37 -47.5 -71.5t-62.5 -61t-77 -42.5t-91 -16q-30 0 -57.5 11.5t-53 25 t-49.5 25t-47 11.5q-32 0 -58.5 -22.5t-60.5 -56.5zM342 313q0 -103 59 -103q22 0 52.5 22.5t65.5 61.5t71.5 93t70 116.5t61 132t44.5 139.5q-6 5 -19.5 15.5t-33 21t-43.5 18t-51 7.5q-59 0 -109.5 -43.5t-88 -116t-58.5 -167t-21 -197.5z" />
<glyph unicode="&#xe4;" horiz-adv-x="1077" d="M71 306q0 144 38.5 277t108.5 235.5t169.5 164t220.5 61.5q61 0 110.5 -24t87.5 -56l20 80h229q-3 -20 -6.5 -38.5t-6.5 -38.5l-113 -716q-15 -94 -19 -154.5t-1 -96.5h-250q-11 33 -9.5 81t12.5 98q5 23 13.5 52t18.5 59.5t20.5 60t18.5 53.5q-38 -85 -85 -162 t-101 -135t-115 -92.5t-128 -34.5q-106 0 -169.5 80t-63.5 246zM307 1320q0 44 14 77.5t39.5 57t60 35.5t74.5 12q57 0 91 -32.5t34 -90.5q0 -44 -14 -78t-39.5 -57.5t-59.5 -35.5t-75 -12q-57 0 -91 32.5t-34 91.5zM342 313q0 -103 59 -103q22 0 52.5 22.5t65.5 61.5 t71.5 93t70 116.5t61 132t44.5 139.5q-6 5 -19.5 15.5t-33 21t-43.5 18t-51 7.5q-59 0 -109.5 -43.5t-88 -116t-58.5 -167t-21 -197.5zM737 1320q0 44 14 77.5t39 57t59.5 35.5t75.5 12q57 0 91 -32.5t34 -90.5q0 -44 -14 -78t-39.5 -57.5t-59.5 -35.5t-75 -12 q-57 0 -91 32.5t-34 91.5z" />
<glyph unicode="&#xe5;" horiz-adv-x="1077" d="M71 306q0 144 38.5 277t108.5 235.5t169.5 164t220.5 61.5q61 0 110.5 -24t87.5 -56l20 80h229q-3 -20 -6.5 -38.5t-6.5 -38.5l-113 -716q-15 -94 -19 -154.5t-1 -96.5h-250q-11 33 -9.5 81t12.5 98q5 23 13.5 52t18.5 59.5t20.5 60t18.5 53.5q-38 -85 -85 -162 t-101 -135t-115 -92.5t-128 -34.5q-106 0 -169.5 80t-63.5 246zM342 313q0 -103 59 -103q22 0 52.5 22.5t65.5 61.5t71.5 93t70 116.5t61 132t44.5 139.5q-6 5 -19.5 15.5t-33 21t-43.5 18t-51 7.5q-59 0 -109.5 -43.5t-88 -116t-58.5 -167t-21 -197.5zM415 1309 q0 62 22 111.5t61 84t92 53t114 18.5q45 0 81.5 -13t63 -37t41 -58t14.5 -76q0 -63 -22 -112.5t-60.5 -84t-91.5 -53t-115 -18.5q-45 0 -81.5 13t-63 37t-41 58t-14.5 77zM580 1337q0 -29 18 -47t47 -18q41 0 67.5 25.5t26.5 66.5q0 29 -18.5 46.5t-47.5 17.5q-39 0 -66 -25 t-27 -66z" />
<glyph unicode="&#xe6;" horiz-adv-x="1310" d="M11 215q0 127 89 205t244 108q48 10 97 17t101 12q10 39 22.5 76.5t29.5 72.5q-5 62 -39.5 91t-106.5 29q-37 0 -74 -5.5t-70.5 -14.5t-62 -19t-49.5 -19l-21 189q26 14 64.5 29t83.5 28t95 21.5t98 8.5q85 0 148 -26.5t102 -81.5q58 51 127.5 79.5t152.5 28.5 q132 0 202.5 -62.5t70.5 -171.5q1 -79 -36.5 -140.5t-106.5 -108t-166.5 -78t-217.5 -49.5q-5 -32 -6.5 -64t-1.5 -61q0 -54 18 -82.5t62 -28.5q35 0 79 10.5t88.5 25t84 30.5t65.5 28l30 -190q-24 -16 -67 -37t-98.5 -40t-121.5 -32t-138 -13q-75 0 -130.5 25.5t-90.5 79.5 q-63 -43 -126 -70t-126 -32q-46 -3 -90 3q-94 11 -151 69.5t-57 159.5zM269 265q0 -44 25.5 -66t67.5 -22q37 0 76 14t75 37q-3 21 -3.5 45t-0.5 49q0 47 6 95q-64 -8 -122 -21q-61 -15 -92.5 -49t-31.5 -82zM810 581q57 11 106 31t85 46.5t56 58.5t20 66q0 31 -14.5 46.5 t-40.5 15.5q-34 0 -66.5 -21.5t-60.5 -57.5t-50 -84t-35 -101z" />
<glyph unicode="&#xe7;" horiz-adv-x="809" d="M71 306q0 84 15.5 171.5t46 169.5t77.5 154.5t109.5 126t142 85t175.5 31.5q41 0 76.5 -6t63 -13.5t46.5 -15.5t28 -13l-69 -201q-6 2 -20.5 7t-34.5 10t-45 8.5t-51 3.5q-69 0 -122.5 -47t-90.5 -121.5t-56.5 -166t-19.5 -180.5q0 -54 17 -82.5t59 -28.5q32 0 70 8 t76 20t72.5 25.5t58.5 24.5l33 -189q-25 -15 -63.5 -33.5t-88 -35t-108.5 -27.5t-127 -11q-130 0 -200 80t-70 246zM118 -501l39 131q12 -4 30.5 -7t44.5 -3q54 0 80.5 21.5t26.5 58.5q0 55 -85 55h-58l32 139h111q44 0 81 -10t64 -30.5t42.5 -51.5t15.5 -73 q0 -66 -24.5 -113t-67 -77t-99 -44t-121.5 -14q-38 0 -68 5.5t-44 12.5z" />
<glyph unicode="&#xe8;" horiz-adv-x="873" d="M71 306q0 84 15.5 171.5t45.5 169.5t75.5 154.5t104.5 126t132.5 85t160.5 31.5q132 0 202 -62.5t70 -171.5q1 -82 -37.5 -147t-108.5 -113.5t-167.5 -81t-213.5 -49.5q-5 -28 -6.5 -56t-1.5 -54q0 -54 18.5 -82.5t61.5 -28.5q35 0 79 10.5t88.5 25t84 30.5t65.5 28 l31 -190q-25 -16 -67.5 -37t-98.5 -40t-122 -32t-138 -13q-131 0 -202 80t-71 246zM350 1325l135 225l438 -252l-79 -132zM370 561q56 11 105 32.5t85.5 51t57.5 64.5t21 74q0 31 -14.5 46.5t-40.5 15.5q-34 0 -67 -23t-61.5 -62t-50.5 -90.5t-35 -108.5z" />
<glyph unicode="&#xe9;" horiz-adv-x="873" d="M71 306q0 84 15.5 171.5t45.5 169.5t75.5 154.5t104.5 126t132.5 85t160.5 31.5q132 0 202 -62.5t70 -171.5q1 -82 -37.5 -147t-108.5 -113.5t-167.5 -81t-213.5 -49.5q-5 -28 -6.5 -56t-1.5 -54q0 -54 18.5 -82.5t61.5 -28.5q35 0 79 10.5t88.5 25t84 30.5t65.5 28 l31 -190q-25 -16 -67.5 -37t-98.5 -40t-122 -32t-138 -13q-131 0 -202 80t-71 246zM370 561q56 11 105 32.5t85.5 51t57.5 64.5t21 74q0 31 -14.5 46.5t-40.5 15.5q-34 0 -67 -23t-61.5 -62t-50.5 -90.5t-35 -108.5zM378 1295l512 257l71 -225l-540 -161z" />
<glyph unicode="&#xea;" horiz-adv-x="873" d="M71 306q0 84 15.5 171.5t45.5 169.5t75.5 154.5t104.5 126t132.5 85t160.5 31.5q132 0 202 -62.5t70 -171.5q1 -82 -37.5 -147t-108.5 -113.5t-167.5 -81t-213.5 -49.5q-5 -28 -6.5 -56t-1.5 -54q0 -54 18.5 -82.5t61.5 -28.5q35 0 79 10.5t88.5 25t84 30.5t65.5 28 l31 -190q-25 -16 -67.5 -37t-98.5 -40t-122 -32t-138 -13q-131 0 -202 80t-71 246zM298 1309q37 23 82.5 51.5t95 60.5t101.5 66t101 67q39 -33 79.5 -67t80 -66t75.5 -60t66 -51l-156 -160q-21 19 -45.5 41.5t-48.5 46.5t-46.5 47.5t-40.5 42.5q-24 -19 -53.5 -42.5 t-61.5 -47.5t-64 -46.5t-59 -41.5zM370 561q56 11 105 32.5t85.5 51t57.5 64.5t21 74q0 31 -14.5 46.5t-40.5 15.5q-34 0 -67 -23t-61.5 -62t-50.5 -90.5t-35 -108.5z" />
<glyph unicode="&#xeb;" horiz-adv-x="873" d="M71 306q0 84 15.5 171.5t45.5 169.5t75.5 154.5t104.5 126t132.5 85t160.5 31.5q132 0 202 -62.5t70 -171.5q1 -82 -37.5 -147t-108.5 -113.5t-167.5 -81t-213.5 -49.5q-5 -28 -6.5 -56t-1.5 -54q0 -54 18.5 -82.5t61.5 -28.5q35 0 79 10.5t88.5 25t84 30.5t65.5 28 l31 -190q-25 -16 -67.5 -37t-98.5 -40t-122 -32t-138 -13q-131 0 -202 80t-71 246zM272 1320q0 44 14 77.5t39.5 57t60 35.5t74.5 12q57 0 91 -32.5t34 -90.5q0 -44 -14 -78t-39.5 -57.5t-59.5 -35.5t-75 -12q-57 0 -91 32.5t-34 91.5zM370 561q56 11 105 32.5t85.5 51 t57.5 64.5t21 74q0 31 -14.5 46.5t-40.5 15.5q-34 0 -67 -23t-61.5 -62t-50.5 -90.5t-35 -108.5zM702 1320q0 44 14 77.5t39 57t59.5 35.5t75.5 12q57 0 91 -32.5t34 -90.5q0 -44 -14 -78t-39.5 -57.5t-59.5 -35.5t-75 -12q-57 0 -91 32.5t-34 91.5z" />
<glyph unicode="&#xec;" horiz-adv-x="528" d="M83 1325l135 225l438 -252l-79 -132zM90 137.5q1 31.5 6 62.5l132 824h264l-123 -773q-15 -94 -19 -154.5t-1 -96.5h-247q-4 10 -7 31t-4.5 48t-0.5 58.5z" />
<glyph unicode="&#xed;" horiz-adv-x="528" d="M90 137.5q1 31.5 6 62.5l132 824h264l-123 -773q-15 -94 -19 -154.5t-1 -96.5h-247q-4 10 -7 31t-4.5 48t-0.5 58.5zM169 1295l512 257l72 -225l-541 -161z" />
<glyph unicode="&#xee;" horiz-adv-x="528" d="M72 1309q37 23 82.5 51.5t95 60.5t101.5 66t101 67q39 -33 79.5 -67t80 -66t75.5 -60t66 -51l-156 -160q-21 19 -45.5 41.5t-48.5 46.5t-46.5 47.5t-40.5 42.5q-24 -19 -53.5 -42.5t-61.5 -47.5t-64 -46.5t-59 -41.5zM90 137.5q1 31.5 6 62.5l132 824h264l-123 -773 q-15 -94 -19 -154.5t-1 -96.5h-247q-4 10 -7 31t-4.5 48t-0.5 58.5z" />
<glyph unicode="&#xef;" horiz-adv-x="528" d="M50 1320q0 44 14 77.5t39.5 57t60 35.5t74.5 12q57 0 91 -32.5t34 -90.5q0 -44 -14 -78t-39.5 -57.5t-59.5 -35.5t-75 -12q-57 0 -91 32.5t-34 91.5zM90 137.5q1 31.5 6 62.5l132 824h264l-123 -773q-15 -94 -19 -154.5t-1 -96.5h-247q-4 10 -7 31t-4.5 48t-0.5 58.5z M468 1320q0 44 14 77.5t39.5 57t60 35.5t74.5 12q58 0 91.5 -32.5t33.5 -90.5q0 -44 -14 -78t-39 -57.5t-59 -35.5t-75 -12q-58 0 -92 32.5t-34 91.5z" />
<glyph unicode="&#xf0;" horiz-adv-x="1057" d="M59 385q0 133 39.5 252.5t112 210t175 143.5t228.5 53q63 0 107 -22t65 -48q-9 163 -71 237l-89 -112l-106 71l82 106q-11 2 -22 3t-22 1q-34 0 -65.5 -5t-58.5 -12t-46.5 -14t-29.5 -11l-24 181q14 6 41.5 16.5t65 20t81.5 17t89 7.5q36 0 68 -5t61 -13l99 128l109 -72 l-90 -114q54 -40 90 -98.5t57 -132t28 -158.5t4 -178q-7 -201 -50 -360.5t-120 -269.5t-186.5 -168.5t-249.5 -58.5q-90 0 -159.5 27.5t-116.5 79.5t-71.5 127.5t-24.5 170.5zM335 400q0 -103 31 -162t107 -59q58 0 105 36t81.5 103.5t56.5 163t30 215.5q-3 29 -14 56 t-30 48t-47 33.5t-65 12.5q-46 0 -82.5 -20.5t-65 -55.5t-48.5 -80.5t-33.5 -95.5t-19.5 -100.5t-6 -94.5z" />
<glyph unicode="&#xf1;" horiz-adv-x="1106" d="M66 0l122 773q15 94 19.5 154.5t1.5 96.5h249q11 -34 9 -83t-13 -100q-6 -29 -15.5 -62t-20 -66t-21 -64.5t-18.5 -56.5q45 98 97.5 181t111 143t122.5 94t132 34q67 0 110.5 -25t66.5 -70.5t27 -108.5t-8 -139l-72 -450q-15 -94 -19 -154.5t-1 -96.5h-247q-4 10 -7 31 t-4.5 48t-0.5 58.5t6 62.5l74 468q5 20 3 36q2 35 -9.5 56t-41.5 21q-35 0 -87.5 -40.5t-106 -119.5t-100.5 -196t-71 -271l-24 -154h-264zM341 1302q17 33 43 67t60 61.5t75.5 45.5t89.5 18q34 0 63.5 -11.5t56 -25t50.5 -25t46 -11.5q32 0 58.5 22.5t61.5 56.5l114 -97 q-20 -37 -47.5 -71.5t-62.5 -61t-77 -42.5t-91 -16q-30 0 -57.5 11.5t-53 25t-49.5 25t-47 11.5q-32 0 -58.5 -22.5t-60.5 -56.5z" />
<glyph unicode="&#xf2;" horiz-adv-x="983" d="M59 335q0 153 40.5 283t115.5 224.5t181 148t236 53.5q79 0 141 -25.5t104.5 -72t65 -112.5t22.5 -146q0 -153 -41 -283t-116 -224.5t-180.5 -147.5t-235.5 -53q-78 0 -140 25.5t-105 72t-65.5 112t-22.5 145.5zM330 348q0 -87 26 -128t78 -41q56 0 104 40.5t82.5 109.5 t54 159t19.5 189q0 137 -69 158q-34 10 -75 -1q-48 -13 -88 -57.5t-69.5 -110t-46 -147.5t-16.5 -171zM337 1325l136 225l437 -252l-78 -132z" />
<glyph unicode="&#xf3;" horiz-adv-x="983" d="M59 335q0 153 40.5 283t115.5 224.5t181 148t236 53.5q79 0 141 -25.5t104.5 -72t65 -112.5t22.5 -146q0 -153 -41 -283t-116 -224.5t-180.5 -147.5t-235.5 -53q-78 0 -140 25.5t-105 72t-65.5 112t-22.5 145.5zM330 348q0 -87 26 -128t78 -41q56 0 104 40.5t82.5 109.5 t54 159t19.5 189q0 137 -69 158q-34 10 -75 -1q-48 -13 -88 -57.5t-69.5 -110t-46 -147.5t-16.5 -171zM383 1295l512 257l71 -225l-540 -161z" />
<glyph unicode="&#xf4;" horiz-adv-x="983" d="M59 335q0 153 40.5 283t115.5 224.5t181 148t236 53.5q79 0 141 -25.5t104.5 -72t65 -112.5t22.5 -146q0 -153 -41 -283t-116 -224.5t-180.5 -147.5t-235.5 -53q-78 0 -140 25.5t-105 72t-65.5 112t-22.5 145.5zM307 1309q37 23 82.5 51.5t95 60.5t101.5 66t101 67 q39 -33 80 -67t80 -66t75 -60t66 -51l-155 -160q-21 19 -45.5 41.5t-48.5 46.5t-46.5 47.5t-40.5 42.5q-24 -19 -54 -42.5t-62 -47.5t-63.5 -46.5t-59.5 -41.5zM330 348q0 -87 26 -128t78 -41q56 0 104 40.5t82.5 109.5t54 159t19.5 189q0 137 -69 158q-34 10 -75 -1 q-48 -13 -88 -57.5t-69.5 -110t-46 -147.5t-16.5 -171z" />
<glyph unicode="&#xf5;" horiz-adv-x="983" d="M59 335q0 153 40.5 283t115.5 224.5t181 148t236 53.5q79 0 141 -25.5t104.5 -72t65 -112.5t22.5 -146q0 -153 -41 -283t-116 -224.5t-180.5 -147.5t-235.5 -53q-78 0 -140 25.5t-105 72t-65.5 112t-22.5 145.5zM289 1302q17 33 43 67t59.5 61.5t75 45.5t90.5 18 q33 0 62.5 -11.5t56 -25t50.5 -25t46 -11.5q32 0 58.5 22.5t61.5 56.5l114 -97q-20 -37 -47.5 -71.5t-62.5 -61t-77 -42.5t-91 -16q-30 0 -57 11.5t-52.5 25t-50 25t-47.5 11.5q-32 0 -58.5 -22.5t-59.5 -56.5zM330 348q0 -87 26 -128t78 -41q56 0 104 40.5t82.5 109.5 t54 159t19.5 189q0 137 -69 158q-34 10 -75 -1q-48 -13 -88 -57.5t-69.5 -110t-46 -147.5t-16.5 -171z" />
<glyph unicode="&#xf6;" horiz-adv-x="983" d="M59 335q0 153 40.5 283t115.5 224.5t181 148t236 53.5q79 0 141 -25.5t104.5 -72t65 -112.5t22.5 -146q0 -153 -41 -283t-116 -224.5t-180.5 -147.5t-235.5 -53q-78 0 -140 25.5t-105 72t-65.5 112t-22.5 145.5zM280 1320q0 44 14 77.5t39.5 57t60 35.5t74.5 12 q57 0 91 -32.5t34 -90.5q0 -44 -14 -78t-39.5 -57.5t-59.5 -35.5t-75 -12q-57 0 -91 32.5t-34 91.5zM330 348q0 -87 26 -128t78 -41q56 0 104 40.5t82.5 109.5t54 159t19.5 189q0 137 -69 158q-34 10 -75 -1q-48 -13 -88 -57.5t-69.5 -110t-46 -147.5t-16.5 -171zM710 1320 q0 44 14 77.5t39.5 57t60 35.5t74.5 12q57 0 91 -32.5t34 -90.5q0 -44 -14 -78t-39.5 -57.5t-59.5 -35.5t-75 -12q-57 0 -91 32.5t-34 91.5z" />
<glyph unicode="&#xf7;" horiz-adv-x="1235" d="M195 565l32 198h843l-32 -198h-843zM419 277q0 44 14 77.5t39.5 57t60 35.5t74.5 12q57 0 91 -32.5t34 -90.5q0 -44 -14 -78t-39.5 -57.5t-59.5 -35.5t-75 -12q-57 0 -91 32.5t-34 91.5zM531 991q0 44 14 78t39.5 57.5t60 35.5t74.5 12q57 0 91 -32.5t34 -90.5 q0 -44 -14 -78t-39.5 -57.5t-59.5 -35.5t-75 -12q-57 0 -91 32.5t-34 90.5z" />
<glyph unicode="&#xf8;" horiz-adv-x="983" d="M-50 -95l168 211q-59 88 -59 219q0 153 40.5 283t115.5 224.5t181 148t236 53.5q109 0 188 -51l152 190l101 -63l-168 -210q29 -45 44.5 -100.5t15.5 -121.5q0 -153 -41 -283t-116 -224.5t-180.5 -147.5t-235.5 -53q-57 0 -104 13.5t-85 37.5l-152 -189zM333 410l12 2 t13 3l310 387q-27 43 -79 43t-96.5 -35t-78.5 -94t-55 -138t-26 -168zM355 222q27 -43 79 -43q49 0 91.5 30.5t75.5 83.5t54.5 124t28.5 152q2 18 3.5 36t1.5 35z" />
<glyph unicode="&#xf9;" horiz-adv-x="1091" d="M103 184q-4 63 8 139l72 450q14 94 18.5 154.5t1.5 96.5h247q4 -10 7 -31t4.5 -48t0.5 -58t-7 -63l-74 -468q-3 -22 -2 -36q-2 -35 9.5 -56t40.5 -21q34 0 84.5 40.5t102 119.5t96.5 196t69 271v-1l24 155h264l-123 -773q-15 -94 -19 -154.5t-1 -96.5h-249 q-11 34 -9.5 82.5t12.5 99.5q6 29 15.5 62t20 66.5t21 65t19.5 56.5q-44 -99 -95 -182t-108 -143t-118.5 -93.5t-127.5 -33.5q-67 0 -110.5 25t-66.5 70.5t-27 108.5zM350 1325l135 225l438 -252l-79 -132z" />
<glyph unicode="&#xfa;" horiz-adv-x="1091" d="M103 184q-4 63 8 139l72 450q14 94 18.5 154.5t1.5 96.5h247q4 -10 7 -31t4.5 -48t0.5 -58t-7 -63l-74 -468q-3 -22 -2 -36q-2 -35 9.5 -56t40.5 -21q34 0 84.5 40.5t102 119.5t96.5 196t69 271v-1l24 155h264l-123 -773q-15 -94 -19 -154.5t-1 -96.5h-249 q-11 34 -9.5 82.5t12.5 99.5q6 29 15.5 62t20 66.5t21 65t19.5 56.5q-44 -99 -95 -182t-108 -143t-118.5 -93.5t-127.5 -33.5q-67 0 -110.5 25t-66.5 70.5t-27 108.5zM441 1295l512 257l72 -225l-541 -161z" />
<glyph unicode="&#xfb;" horiz-adv-x="1091" d="M103 184q-4 63 8 139l72 450q14 94 18.5 154.5t1.5 96.5h247q4 -10 7 -31t4.5 -48t0.5 -58t-7 -63l-74 -468q-3 -22 -2 -36q-2 -35 9.5 -56t40.5 -21q34 0 84.5 40.5t102 119.5t96.5 196t69 271v-1l24 155h264l-123 -773q-15 -94 -19 -154.5t-1 -96.5h-249 q-11 34 -9.5 82.5t12.5 99.5q6 29 15.5 62t20 66.5t21 65t19.5 56.5q-44 -99 -95 -182t-108 -143t-118.5 -93.5t-127.5 -33.5q-67 0 -110.5 25t-66.5 70.5t-27 108.5zM341 1309q37 23 82.5 51.5t95 60.5t101.5 66t101 67q39 -33 79.5 -67t80 -66t75.5 -60t66 -51l-156 -160 q-21 19 -45.5 41.5t-48.5 46.5t-46.5 47.5t-40.5 42.5q-24 -19 -53.5 -42.5t-61.5 -47.5t-64 -46.5t-59 -41.5z" />
<glyph unicode="&#xfc;" horiz-adv-x="1091" d="M103 184q-4 63 8 139l72 450q14 94 18.5 154.5t1.5 96.5h247q4 -10 7 -31t4.5 -48t0.5 -58t-7 -63l-74 -468q-3 -22 -2 -36q-2 -35 9.5 -56t40.5 -21q34 0 84.5 40.5t102 119.5t96.5 196t69 271v-1l24 155h264l-123 -773q-15 -94 -19 -154.5t-1 -96.5h-249 q-11 34 -9.5 82.5t12.5 99.5q6 29 15.5 62t20 66.5t21 65t19.5 56.5q-44 -99 -95 -182t-108 -143t-118.5 -93.5t-127.5 -33.5q-67 0 -110.5 25t-66.5 70.5t-27 108.5zM323 1320q0 44 14 77.5t39 57t59.5 35.5t75.5 12q57 0 91 -32.5t34 -90.5q0 -44 -14 -78t-39.5 -57.5 t-59.5 -35.5t-75 -12q-57 0 -91 32.5t-34 91.5zM752 1320q0 44 14 77.5t39.5 57t60 35.5t74.5 12q58 0 91.5 -32.5t33.5 -90.5q0 -44 -14 -78t-39 -57.5t-59 -35.5t-75 -12q-58 0 -92 32.5t-34 91.5z" />
<glyph unicode="&#xfd;" horiz-adv-x="950" d="M-170 -364l71 184q18 -10 53.5 -18.5t69.5 -8.5q50 0 86.5 18.5t59.5 67t31.5 133.5t1.5 217q-9 155 -21 293.5t-24 246t-22.5 175.5t-15.5 80h248q10 -33 34 -224t42 -544q2 -29 1.5 -54.5t-2.5 -48.5q15 24 28.5 48.5t26.5 49.5q43 72 78.5 150.5t60.5 159.5t38.5 162 t13.5 157q0 38 -4 75t-15 69l251 20q10 -26 18.5 -70.5t8.5 -96.5q0 -87 -23.5 -183.5t-65.5 -198t-100 -205.5t-128 -204.5t-149.5 -196t-163.5 -180.5q-57 -64 -132.5 -94.5t-166.5 -30.5q-70 0 -118 18t-71 34zM343 1295l511 257l72 -225l-541 -161z" />
<glyph unicode="&#xfe;" horiz-adv-x="1080" d="M-1 -396l74 453l18 110q26 167 52.5 332t53.5 333l62 387q14 86 14.5 144t-3.5 93l256 24q10 -38 11 -100.5t-11 -137.5l-37 -235q-27 -168 -97 -365q38 85 84 158.5t98.5 127.5t112 85t125.5 31q106 0 169.5 -79.5t63.5 -246.5q0 -144 -38.5 -277t-108.5 -235.5 t-169 -164t-221 -61.5q-52 0 -95.5 17t-78.5 43l-12 -74v-1l-59 -361h-264zM354 249q6 -6 18.5 -16.5t31.5 -20.5t42.5 -17.5t50.5 -7.5q59 0 109.5 43.5t88 116t58.5 167t21 197.5t-59 103q-21 0 -52 -22.5t-65.5 -61.5t-71 -93t-69.5 -116.5t-60 -132t-43 -139.5z" />
<glyph unicode="&#xff;" horiz-adv-x="953" d="M-170 -364l71 184q18 -10 53.5 -18.5t69.5 -8.5q50 0 86.5 18.5t59.5 67t31.5 133.5t1.5 217q-9 155 -21 293.5t-24 246t-22.5 175.5t-15.5 80h248q10 -33 34 -224t42 -544q2 -29 1.5 -54.5t-2.5 -48.5q15 24 28.5 48.5t26.5 49.5q43 72 78.5 150.5t60.5 159.5t38.5 162 t13.5 157q0 38 -4 75t-15 69l251 20q10 -26 18.5 -70.5t8.5 -96.5q0 -87 -23.5 -183.5t-65.5 -198t-100 -205.5t-128 -204.5t-149.5 -196t-163.5 -180.5q-57 -64 -132.5 -94.5t-166.5 -30.5q-70 0 -118 18t-71 34zM219 1320q0 44 14 77.5t39.5 57t60 35.5t74.5 12 q57 0 91 -32.5t34 -90.5q0 -44 -14 -78t-39.5 -57.5t-59.5 -35.5t-75 -12q-57 0 -91 32.5t-34 91.5zM649 1320q0 44 14 77.5t39.5 57t60 35.5t74.5 12q57 0 91 -32.5t34 -90.5q0 -44 -14 -78t-39.5 -57.5t-59.5 -35.5t-75 -12q-57 0 -91 32.5t-34 91.5z" />
<glyph unicode="&#x152;" horiz-adv-x="1765" d="M95 520q0 182 53 334.5t148 262.5t226.5 171.5t288.5 61.5q76 0 138 -22t109 -54l9 56h763l-35 -221h-497l-52 -331h472l-34 -215h-472l-55 -342h515l-34 -221h-782l8 49q-60 -32 -129.5 -50.5t-145.5 -18.5q-118 0 -210 40t-155 111.5t-96 170.5t-33 218zM381 552 q0 -79 15.5 -145.5t47 -113.5t79 -73.5t111.5 -26.5q89 0 156 35t116 84l110 700q-16 23 -38.5 45.5t-52.5 40t-67.5 28.5t-84.5 11q-80 0 -151.5 -42t-125 -118.5t-84.5 -184.5t-31 -240z" />
<glyph unicode="&#x153;" horiz-adv-x="1395" d="M59 335q0 153 40.5 283t115.5 224.5t181 148t236 53.5q68 0 122 -28.5t92 -79.5q58 51 128 79.5t153 28.5q132 0 202.5 -62.5t70.5 -171.5q1 -82 -38 -147t-108.5 -113.5t-167 -81t-213.5 -49.5q-5 -28 -6.5 -56t-1.5 -54q0 -54 18 -82.5t62 -28.5q35 0 79 10.5t88.5 25 t84 30.5t65.5 28l30 -190q-24 -16 -67 -37t-98.5 -40t-121.5 -32t-138 -13q-69 0 -121.5 21.5t-87.5 66.5q-58 -42 -124.5 -65t-141.5 -23q-78 0 -140 25.5t-105 72t-65.5 112t-22.5 145.5zM331 398q-2 -49 3 -91q12 -128 100 -128q48 0 88 22t74 64q-1 10 -1.5 20t-0.5 21 q0 107 25 219t74 209q-12 96 -74 106q-27 5 -57 0q-47 -9 -87.5 -47t-71.5 -97.5t-50 -136t-22 -161.5zM893 561q56 11 105 32.5t85.5 51t57.5 64.5t21 74q0 31 -14.5 46.5t-40.5 15.5q-34 0 -67 -23t-61.5 -62t-50.5 -90.5t-35 -108.5z" />
<glyph unicode="&#x178;" horiz-adv-x="1043" d="M112 1330h278l173 -565l354 565h283l-543 -829h1l-80 -501h-267l80 501h1zM320 1620q0 44 14 77.5t39.5 57t60 35.5t74.5 12q57 0 91 -32.5t34 -90.5q0 -44 -14 -78t-39.5 -57.5t-59.5 -35.5t-75 -12q-57 0 -91 32.5t-34 91.5zM750 1620q0 44 14 77.5t39.5 57t60 35.5 t74.5 12q57 0 91 -32.5t34 -90.5q0 -44 -14 -78t-39.5 -57.5t-59.5 -35.5t-75 -12q-57 0 -91 32.5t-34 91.5z" />
<glyph unicode="&#x2c6;" horiz-adv-x="846" d="M207 1309q37 23 82.5 51.5t95.5 60.5t101.5 66t100.5 67q39 -33 80 -67t80 -66t75.5 -60t66.5 -51l-156 -160q-21 19 -45.5 41.5t-48.5 46.5t-46.5 47.5t-40.5 42.5q-24 -19 -54 -42.5t-61.5 -47.5t-63.5 -46.5t-59 -41.5z" />
<glyph unicode="&#x2dc;" horiz-adv-x="792" d="M167 1302q18 33 44 67t59.5 61.5t75 45.5t89.5 18q34 0 63.5 -11.5t56 -25t50.5 -25t46 -11.5q32 0 58.5 22.5t61.5 56.5l114 -97q-20 -37 -47.5 -71.5t-62.5 -61t-77 -42.5t-91 -16q-30 0 -57.5 11.5t-53 25t-49.5 25t-47 11.5q-32 0 -58.5 -22.5t-60.5 -56.5z" />
<glyph unicode="&#x2000;" horiz-adv-x="938" />
<glyph unicode="&#x2001;" horiz-adv-x="1876" />
<glyph unicode="&#x2002;" horiz-adv-x="938" />
<glyph unicode="&#x2003;" horiz-adv-x="1876" />
<glyph unicode="&#x2004;" horiz-adv-x="625" />
<glyph unicode="&#x2005;" horiz-adv-x="469" />
<glyph unicode="&#x2006;" horiz-adv-x="312" />
<glyph unicode="&#x2007;" horiz-adv-x="312" />
<glyph unicode="&#x2008;" horiz-adv-x="234" />
<glyph unicode="&#x2009;" horiz-adv-x="375" />
<glyph unicode="&#x200a;" horiz-adv-x="104" />
<glyph unicode="&#x2010;" horiz-adv-x="1055" d="M197 427l34 211h616l-33 -211h-617z" />
<glyph unicode="&#x2011;" horiz-adv-x="1055" d="M197 427l34 211h616l-33 -211h-617z" />
<glyph unicode="&#x2012;" horiz-adv-x="1055" d="M197 427l34 211h616l-33 -211h-617z" />
<glyph unicode="&#x2013;" horiz-adv-x="1311" d="M197 427l34 211h985l-33 -211h-986z" />
<glyph unicode="&#x2014;" horiz-adv-x="1996" d="M197 427l34 211h1670l-34 -211h-1670z" />
<glyph unicode="&#x2018;" horiz-adv-x="484" d="M167 1127q0 70 25 128t68 104.5t99.5 82.5t119.5 63l88 -107q-30 -16 -59.5 -37.5t-53.5 -49.5t-40 -62t-18 -76q-2 -36 4.5 -66t17.5 -54.5t24.5 -43t24.5 -31.5l-221 -59q-12 11 -26 30.5t-25.5 46t-19.5 60t-8 71.5z" />
<glyph unicode="&#x2019;" horiz-adv-x="484" d="M137 1033q30 17 60 38.5t54 49.5t39.5 62t17.5 76q2 36 -4.5 66t-17.5 54.5t-24.5 43t-24.5 31.5l222 59q12 -11 25.5 -30.5t25.5 -46t19.5 -60t7.5 -71.5q0 -70 -25 -128t-68 -104.5t-99.5 -82.5t-119.5 -63z" />
<glyph unicode="&#x201a;" horiz-adv-x="484" d="M-53 -191q30 17 60 38.5t54 49t39.5 62t17.5 76.5q2 35 -4.5 65t-17.5 55t-24.5 43.5t-24.5 31.5l222 59q12 -11 25.5 -30.5t25.5 -46.5t19.5 -60t7.5 -71q0 -70 -25 -128t-68 -104.5t-99.5 -82.5t-119.5 -63z" />
<glyph unicode="&#x201c;" horiz-adv-x="797" d="M173 1119q0 70 25 128t68 104.5t99.5 82.5t119.5 63l78 -104q-31 -18 -61 -39.5t-54 -49.5t-39.5 -62.5t-18.5 -76.5q-2 -35 4.5 -65t17.5 -54.5t24.5 -43.5t25.5 -33l-211 -58q-12 11 -25.5 30.5t-25.5 46.5t-19.5 60t-7.5 71zM560 1132q0 70 25 127t67.5 103.5 t98.5 82.5t119 63l79 -104q-31 -18 -61 -39.5t-54 -49t-39.5 -61.5t-17.5 -76q-2 -36 4.5 -66t17.5 -54.5t24.5 -43.5t25.5 -33l-211 -57q-12 11 -25.5 30.5t-25.5 46t-19.5 60t-7.5 71.5z" />
<glyph unicode="&#x201d;" horiz-adv-x="861" d="M137 1013q31 18 61 39.5t54 49t39.5 61.5t17.5 76q2 36 -4.5 66t-17.5 54.5t-24 44t-25 32.5l210 57q12 -11 26 -30.5t25.5 -46t19.5 -60t8 -71.5q0 -70 -25 -127t-67.5 -103.5t-98.5 -82.5t-119 -63zM523 1024q31 18 61 40t54 49.5t40 62t18 76.5q3 35 -3.5 65 t-17.5 54.5t-24.5 44t-25.5 32.5l210 58q12 -11 26 -30.5t25.5 -46.5t19.5 -60t8 -71q0 -70 -25.5 -128t-68 -104.5t-99 -82.5t-119.5 -63z" />
<glyph unicode="&#x201e;" horiz-adv-x="861" d="M-53 -191q31 18 61 39.5t54 49t39.5 61.5t17.5 76q2 35 -4.5 65t-17.5 55t-24 44t-25 32l210 58q12 -11 26 -30.5t25.5 -46.5t19.5 -60t8 -71q0 -70 -25 -127.5t-67.5 -104t-98.5 -82t-119 -62.5zM333 -180q31 18 61 39.5t54 49.5t40 62.5t18 76.5q3 35 -3.5 65 t-17.5 54.5t-24.5 44t-25.5 32.5l210 58q12 -11 26 -31t25.5 -46.5t19.5 -60t8 -71.5q0 -70 -25.5 -128t-68 -104.5t-99 -82t-119.5 -62.5z" />
<glyph unicode="&#x2022;" horiz-adv-x="655" d="M47 639q0 71 23 126t64 93t97 58t122 20q94 0 149.5 -53.5t55.5 -147.5q0 -72 -23 -127.5t-64.5 -93.5t-97.5 -57.5t-122 -19.5q-94 0 -149 53t-55 149z" />
<glyph unicode="&#x2026;" horiz-adv-x="1537" d="M57 103q0 44 14 78t39.5 57.5t60 35.5t74.5 12q58 0 91.5 -32.5t33.5 -90.5q0 -44 -14 -78t-39 -57.5t-59 -35.5t-75 -12q-58 0 -92 32.5t-34 90.5zM556 103q0 44 14 78t39.5 57.5t60 35.5t74.5 12q57 0 91 -32.5t34 -90.5q0 -44 -14 -78t-39.5 -57.5t-59.5 -35.5 t-75 -12q-57 0 -91 32.5t-34 90.5zM1054 103q0 44 14 78t39.5 57.5t60 35.5t74.5 12q58 0 91.5 -32.5t33.5 -90.5q0 -44 -14 -78t-39 -57.5t-59 -35.5t-75 -12q-58 0 -92 32.5t-34 90.5z" />
<glyph unicode="&#x202f;" horiz-adv-x="375" />
<glyph unicode="&#x2039;" horiz-adv-x="802" d="M127 513q56 49 117 108t124 123.5t125 132t119 132.5l162 -137q-35 -43 -77.5 -89t-89 -92t-96 -91t-98.5 -87q72 -84 138.5 -177.5t109.5 -181.5l-206 -136q-36 65 -77 132.5t-83.5 132t-85 123.5t-82.5 107z" />
<glyph unicode="&#x203a;" horiz-adv-x="822" d="M67 150q35 44 77.5 89.5t89.5 91.5t96.5 91t98.5 87q-72 85 -138.5 178.5t-109.5 180.5l206 137q36 -65 77 -132.5t83.5 -132t85 -123.5t81.5 -108q-55 -49 -116.5 -108t-124.5 -123t-125 -131.5t-119 -132.5z" />
<glyph unicode="&#x205f;" horiz-adv-x="469" />
<glyph unicode="&#x20ac;" horiz-adv-x="1331" d="M131 465l22 137h836l-22 -137h-406q21 -111 87 -177.5t173 -77.5q22 -3 45.5 -4.5t47.5 0.5q60 4 117 17.5t121 39.5l35 -197q-34 -19 -76 -35t-88.5 -27t-95.5 -17.5t-97 -6.5q-128 0 -229.5 33.5t-173.5 96t-113.5 152.5t-49.5 203h-133zM173 729l22 137h131 q44 111 113.5 200.5t161 152.5t202.5 97t237 34q43 0 86.5 -5.5t84 -16t76.5 -25t64 -32.5l-92 -198q-44 18 -92.5 31.5t-103.5 17.5q-25 2 -49 1.5t-49 -3.5q-119 -12 -207.5 -78t-140.5 -176h414l-22 -137h-836z" />
<glyph unicode="&#x2122;" horiz-adv-x="816" d="M167 1267l14 83h252l-14 -83h-75l-39 -243h-100l39 243h-77zM409 1024l52 326h154l14 -193l75 193h155l-52 -326h-101l31 198l-88 -198h-83l-26 198l-31 -198h-100z" />
<glyph unicode="&#x25fc;" horiz-adv-x="1025" d="M0 0v1025h1025v-1025h-1025z" />
</font>
</defs>
</svg>
