<?xml version="1.0" standalone="no"?>
<!DOCTYPE svg PUBLIC "-//W3C//DTD SVG 1.1//EN" "http://www.w3.org/Graphics/SVG/1.1/DTD/svg11.dtd" >
<svg xmlns="http://www.w3.org/2000/svg">
<metadata></metadata>
<defs>
<font id="libertadbold" horiz-adv-x="1227" >
<font-face units-per-em="2048" ascent="1638" descent="-410" />
<missing-glyph horiz-adv-x="439" />
<glyph unicode="&#x31;&#x2f;&#x34;" horiz-adv-x="1364" d="M121 1308q58 8 124 19t123 23h10v-521l132 -4v-74h-382v74l156 4v427q-15 -2 -35.5 -5t-42 -6t-41.5 -5t-34 -4zM166 34l1001 1314l76 -52l-1002 -1315zM725 129v70l287 380h86v-376h94v-74h-94v-129h-85v129h-288zM825 203h188v254z" />
<glyph unicode="&#x31;&#x2f;&#x32;" horiz-adv-x="1401" d="M121 1308q58 8 124 19t123 23h10v-521l132 -4v-74h-382v74l156 4v427q-15 -2 -35.5 -5t-42 -6t-41.5 -5t-34 -4zM166 34l1001 1314l76 -52l-1002 -1315zM864 544q5 3 21.5 12t41 18.5t56 17t67.5 7.5q51 0 88.5 -16.5t62.5 -43t37 -60.5t12 -70q0 -46 -17.5 -86.5 t-50 -80.5t-78.5 -80.5t-102 -85.5h278v-76h-412v67q71 56 125.5 102t91.5 86.5t55.5 77t18.5 72.5q0 53 -30.5 82t-88.5 29q-25 0 -48.5 -5t-43 -11.5t-34 -13.5t-20.5 -10z" />
<glyph unicode="&#x33;&#x2f;&#x34;" horiz-adv-x="1323" d="M125 34l1001 1314l76 -52l-1001 -1315zM125 768l26 67q22 -9 57.5 -18.5t85.5 -9.5q57 0 91.5 24t34.5 75q0 48 -33 76.5t-94 28.5h-74v72h124q19 10 38 33.5t19 60.5q0 48 -35 72t-91 24q-38 0 -69.5 -7.5t-47.5 -14.5l-25 67q19 8 57 20t89 12q101 0 153 -44t56 -109 q1 -10 0.5 -20t-2.5 -20q-7 -37 -29 -63t-47 -42q17 -5 35 -17t32.5 -29.5t23.5 -41.5t9 -53q0 -86 -59.5 -133t-163.5 -47q-54 0 -95 11.5t-66 25.5zM683 129v70l288 380h85v-376h95v-74h-95v-129h-85v129h-288zM784 203h187v254z" />
<glyph unicode="&#xfb01;" horiz-adv-x="1073" d="M40 934v74l183 11v96q0 86 27.5 154t78.5 115t123 71.5t160 24.5q44 0 83 -5t72 -12t58.5 -15.5t42.5 -14.5l-24 -86q-34 11 -93 24t-143 13q-139 0 -210 -65t-71 -217v-78h561v-1024h-112v934h-445v-1330h-111v1330h-180z" />
<glyph unicode="&#xfb02;" horiz-adv-x="1113" d="M40 934v74l183 11v89q0 88 27 157t76.5 117t121 73t159.5 25q59 0 109.5 -6t91 -15t71 -18.5t49.5 -16.5v-1424h-112v1355q-34 9 -87.5 19t-125.5 10q-68 0 -119.5 -15.5t-86.5 -50t-52.5 -89.5t-17.5 -135v-70h247v-90h-243v-1330h-111v1330h-180z" />
<glyph unicode="&#xfb03;" horiz-adv-x="1639" d="M40 934v74l183 11v135q0 72 23.5 132t66.5 103t104 67t137 24q50 0 91 -9.5t64 -18.5l-21 -86q-21 6 -56.5 12.5t-81.5 6.5q-115 0 -169 -61.5t-54 -183.5v-116h462v91q0 86 27.5 154t78.5 115t123 71.5t160 24.5q44 0 83 -5t72 -12t59 -15.5t42 -14.5l-24 -86 q-34 11 -92.5 24t-143.5 13q-139 0 -209.5 -65t-70.5 -217v-78h497l63 -38v-986h-111v934h-445v-1330h-112v1330h-455v-1330h-111v1330h-180z" />
<glyph unicode="&#xfb04;" horiz-adv-x="1679" d="M40 934v74l183 11v135q0 72 23.5 132t66.5 103t104 67t137 24q50 0 91 -9.5t64 -18.5l-21 -86q-21 6 -56.5 12.5t-81.5 6.5q-115 0 -169 -61.5t-54 -183.5v-116h462v84q0 88 27 157t77 117t121 73t159 25q59 0 109.5 -6t91 -15t71 -18.5t49.5 -16.5v-1424h-111v1355 q-35 9 -88.5 19t-125.5 10q-68 0 -119.5 -15.5t-86 -50t-52 -89.5t-17.5 -135v-70h246v-90h-242v-934h-112v934h-455v-1330h-111v1330h-180z" />
<glyph horiz-adv-x="0" />
<glyph unicode="&#xd;" horiz-adv-x="523" />
<glyph unicode=" "  horiz-adv-x="439" />
<glyph unicode="&#x09;" horiz-adv-x="439" />
<glyph unicode="&#xa0;" horiz-adv-x="439" />
<glyph unicode="!" horiz-adv-x="474" d="M154 61q0 38 25 63.5t62 25.5q32 0 55.5 -23.5t23.5 -56.5q0 -38 -25.5 -64t-62.5 -26q-32 0 -55 24.5t-23 56.5zM167 1330h138l-27 -985h-84z" />
<glyph unicode="&#x22;" horiz-adv-x="755" d="M175 1453h125l-20 -471h-85zM455 1453h125l-20 -471h-85z" />
<glyph unicode="#" horiz-adv-x="1523" d="M163 382l12 88h249l55 383h-244l12 89h244l56 388h101l-56 -388h389l57 388h100l-56 -388h238l-13 -89h-237l-54 -383h237l-12 -88h-238l-54 -382h-103l55 382h-388l-53 -382h-102l54 382h-249zM526 470h388l55 383h-389z" />
<glyph unicode="$" horiz-adv-x="1075" d="M185 147l35 82q58 -29 129 -49.5t159 -20.5q131 0 204 52.5t73 149.5q0 40 -11 72.5t-38.5 61.5t-74 57t-117.5 58q-80 33 -145 66t-111.5 73.5t-71.5 92t-25 121.5q0 59 22.5 110t64 90.5t98.5 65t126 33.5l-10 235h107l-10 -232q80 -2 146.5 -20.5t105.5 -36.5l-30 -81 q-42 16 -109 32t-148 16q-57 0 -104.5 -14.5t-81 -41t-52 -64t-18.5 -83.5t15.5 -82t49.5 -66.5t86.5 -57.5t125.5 -56q83 -33 143.5 -68t99.5 -75.5t57.5 -89.5t18.5 -109q0 -63 -22 -114.5t-63 -89.5t-100 -62t-133 -32l10 -238h-107l10 234q-51 1 -97 9t-85 20t-70 25.5 t-52 26.5z" />
<glyph unicode="%" horiz-adv-x="1545" d="M121 1034q0 69 20.5 127t58.5 100t92 65.5t120 23.5q61 0 112 -23.5t88.5 -64.5t58.5 -96.5t21 -119.5q0 -69 -20.5 -127t-58 -100t-91.5 -65t-120 -23q-61 0 -112.5 23.5t-89 64.5t-58.5 96.5t-21 118.5zM221 1047q0 -49 12.5 -91t36.5 -73t60 -49t83 -18q41 0 74 17 t56 46.5t36 69t13 84.5q0 49 -12.5 91.5t-36.5 73.5t-60 49t-83 18q-40 0 -73.5 -17t-56.5 -46.5t-36 -69.5t-13 -85zM234 34l1002 1314l76 -52l-1002 -1315zM853 283q0 69 20.5 127t58.5 100t92 65.5t120 23.5q61 0 112.5 -23.5t88.5 -64.5t58 -96.5t21 -119.5 q0 -69 -20.5 -127t-58 -100t-91.5 -65t-120 -23q-61 0 -112.5 23.5t-89 64.5t-58.5 96.5t-21 118.5zM953 296q0 -49 12.5 -91t36.5 -73t60 -49t83 -18q41 0 74 17t56 46.5t36 69t13 84.5q0 49 -12.5 91.5t-36.5 73.5t-60 49t-83 18q-40 0 -73.5 -17t-56.5 -46.5t-36 -69.5 t-13 -85z" />
<glyph unicode="&#x26;" horiz-adv-x="1372" d="M123 334q0 61 20.5 116.5t57 104t88 89.5t113.5 73q-52 57 -87.5 102.5t-56.5 84.5t-30 74.5t-9 72.5q0 65 25 120t69.5 95t104.5 62t130 22q67 0 125 -21.5t101.5 -59.5t68.5 -89.5t25 -110.5q0 -53 -24 -113t-66 -115h521v-90h-236q32 -66 49.5 -133t17.5 -136 q0 -94 -28 -167.5t-74 -134.5l180 -197l-76 -66l-175 192q-82 -64 -176 -96.5t-208 -32.5q-99 0 -181.5 26.5t-142 73.5t-93 112t-33.5 142zM233 351q0 -64 25 -115.5t71.5 -88t113 -56t148.5 -19.5q43 0 86 9t82.5 23.5t74 33.5t60.5 38l-432 478q-110 -61 -169.5 -135 t-59.5 -168zM328 1069q0 -34 7.5 -65t24 -63.5t43 -68t65.5 -77.5l498 -543q35 51 51.5 105.5t16.5 109.5q0 73 -16.5 139.5t-55.5 144.5h-237l-67 78q20 25 38.5 50t32 52t21.5 56.5t8 63.5q0 45 -16.5 83t-46 65.5t-71 43t-91.5 15.5q-43 0 -80.5 -15.5t-65.5 -41.5 t-43.5 -60t-15.5 -72z" />
<glyph unicode="'" horiz-adv-x="409" d="M142 1453h125l-20 -471h-85z" />
<glyph unicode="(" horiz-adv-x="680" d="M109 656q0 136 25.5 253.5t67 217.5t93 181t104 143.5t100.5 106t81 67.5l56 -63q-32 -28 -74 -71.5t-87 -102.5t-88.5 -133t-78 -163.5t-55.5 -194t-21 -224.5q0 -127 21 -235.5t55.5 -199.5t78 -165.5t88.5 -133t87 -101.5t74 -71l-56 -63q-33 24 -81 67.5t-100.5 105 t-104 141t-93 177.5t-67 213.5t-25.5 247.5z" />
<glyph unicode=")" horiz-adv-x="680" d="M-4 -233q32 28 74 71.5t87 102.5t88.5 133t77.5 163.5t55 194t21 224.5q0 127 -21 235.5t-55 199.5t-77.5 165.5t-88.5 133t-87 101.5t-74 71l56 63q33 -24 81 -67.5t100.5 -105t104 -141t93 -177.5t67 -213t25.5 -248q0 -136 -25.5 -253.5t-67 -217.5t-93.5 -181 t-104.5 -143.5t-100.5 -106t-81 -67.5z" />
<glyph unicode="*" horiz-adv-x="809" d="M89 1170l29 97l254 -92l-18 267h102l-19 -267l253 92l30 -97l-265 -60l186 -197l-75 -64l-162 219l-160 -219l-76 64l186 197z" />
<glyph unicode="+" horiz-adv-x="1249" d="M200 620v90h373v379h101v-379h375v-90h-375v-379h-101v379h-373z" />
<glyph unicode="," horiz-adv-x="383" d="M37 -263q19 14 41.5 34t41.5 45.5t31.5 57.5t12.5 71q0 33 -7 61t-18 51.5t-24 41.5t-25 30l113 30q9 -9 21.5 -26t24 -42t19.5 -58.5t8 -73.5q0 -53 -18.5 -98t-47 -80.5t-61 -61.5t-61.5 -42z" />
<glyph unicode="-" horiz-adv-x="884" d="M189 487v90h506v-90h-506z" />
<glyph unicode="." horiz-adv-x="414" d="M124 61q0 38 25 63.5t62 25.5q32 0 55.5 -23.5t23.5 -56.5q0 -38 -25.5 -64t-62.5 -26q-32 0 -55 24.5t-23 56.5z" />
<glyph unicode="/" horiz-adv-x="809" d="M-39 -250l774 1835h110l-774 -1835h-110z" />
<glyph unicode="0" horiz-adv-x="1280" d="M128 660q0 148 33.5 274t99 218.5t162.5 144.5t223 52q121 0 215 -51.5t158.5 -142.5t98 -215.5t33.5 -270.5q0 -148 -33.5 -274t-98.5 -218.5t-162 -144.5t-224 -52q-121 0 -215 51.5t-158.5 142.5t-98 215.5t-33.5 270.5zM250 677q0 -135 26.5 -246t77 -189.5 t124.5 -121.5t168 -43q87 0 158 40t121.5 114t78 180.5t27.5 239.5q0 135 -26.5 246t-77.5 190t-125 122.5t-169 43.5q-86 0 -156.5 -40t-121 -115t-78 -181.5t-27.5 -239.5z" />
<glyph unicode="1" horiz-adv-x="806" d="M63 1301q43 4 93 9.5t102.5 12t104.5 13.5t99 14h10v-1259l250 -3v-88h-653v88l291 3v1155q-66 -8 -142 -16t-145 -13z" />
<glyph unicode="2" horiz-adv-x="1029" d="M118 0v90q127 136 223.5 243t167.5 191t118 149.5t75.5 118.5t40.5 97.5t12 86.5q0 132 -73 204t-221 72q-44 0 -86.5 -8.5t-78.5 -20.5t-63 -24.5t-42 -20.5l-38 75q18 11 50 27.5t74 31.5t92.5 26t107.5 11q89 0 163 -25.5t126.5 -72t81.5 -113t29 -149.5 q0 -85 -37 -171.5t-113.5 -190.5t-193.5 -234t-276 -302h668v-91h-807z" />
<glyph unicode="3" horiz-adv-x="1027" d="M118 53l34 82q20 -8 47.5 -18t63.5 -18.5t80.5 -14.5t98.5 -6q62 0 120.5 17t104 51t73.5 83.5t28 113.5q0 71 -24 125.5t-68.5 91.5t-108.5 56t-144 19h-81v91h183q31 13 66 35t64 54.5t48.5 75t19.5 96.5q0 128 -77.5 196.5t-229.5 68.5q-39 0 -75.5 -6.5t-68 -15.5 t-56 -19t-38.5 -17l-38 78q16 9 45 22t67 25t84.5 21t98.5 9q96 0 171 -26.5t126.5 -73t78.5 -109.5t27 -137q0 -59 -20 -109.5t-51 -90.5t-66.5 -68.5t-67.5 -45.5q49 -18 94.5 -47.5t80 -70.5t55 -94.5t20.5 -118.5q0 -85 -31.5 -155t-91 -119.5t-145 -76.5t-192.5 -27 q-51 0 -96.5 7t-84 18t-70 23.5t-54.5 24.5z" />
<glyph unicode="4" horiz-adv-x="1138" d="M83 334v89l622 907h134v-905h206v-91h-206v-334h-112v334h-644zM201 425h526v770z" />
<glyph unicode="5" horiz-adv-x="1033" d="M118 56l34 82q16 -7 42 -17.5t61 -20t79 -16t96 -6.5q84 0 147.5 24.5t107 66.5t65.5 97.5t22 118.5q0 74 -24 134.5t-70.5 103.5t-113 66.5t-152.5 23.5q-85 0 -144.5 -8.5t-101.5 -16.5l22 642h642v-91h-537l-15 -442q24 4 65 8t83 4q106 0 192 -30.5t146.5 -85 t93 -130t32.5 -165.5q0 -89 -33.5 -165.5t-94.5 -132.5t-148 -88t-194 -32q-57 0 -105.5 8t-86.5 20t-66 25t-44 23z" />
<glyph unicode="6" horiz-adv-x="1156" d="M128 581q0 97 15 191t45.5 179.5t78.5 158.5t114.5 126.5t151.5 83.5t191 30q75 0 123 -13t71 -24l-22 -86q-23 8 -72.5 16.5t-112.5 8.5q-118 0 -205 -54.5t-144 -140.5t-85 -193t-30 -212q21 21 54.5 45t77.5 44t98 33t115 13q89 0 165.5 -27t133 -78t89 -125 t32.5 -169q0 -90 -31 -165t-88 -129t-138 -84t-181 -30q-105 0 -188 40.5t-140 117.5t-87.5 189t-30.5 254zM248 548q0 -108 20.5 -195t63 -148.5t106.5 -94.5t151 -33q66 0 122 19t96.5 56.5t63.5 92t23 125.5q0 89 -25.5 150t-69 99t-101 54.5t-121.5 16.5q-57 0 -109 -14 t-94.5 -35.5t-75 -46.5t-50.5 -46z" />
<glyph unicode="7" horiz-adv-x="1027" d="M103 1330h806v-88l-532 -1242h-111l531 1240q-149 0 -297 -0.5t-297 -0.5l-7 -229h-80z" />
<glyph unicode="8" horiz-adv-x="1092" d="M124 306q0 68 24 124t65.5 102.5t95.5 84.5t114 69q-50 22 -98.5 52t-87 69.5t-62 90t-23.5 113.5q0 78 35.5 140.5t92.5 106.5t128.5 68t142.5 24q69 0 138.5 -22t125 -63.5t90 -101t34.5 -133.5q0 -65 -22.5 -116t-60.5 -91.5t-88 -72t-104 -57.5q60 -28 115 -64.5 t97 -82.5t67 -101.5t25 -121.5q0 -82 -37 -145.5t-97.5 -107.5t-137.5 -67t-157 -23q-75 0 -149 21t-133 62t-96 102t-37 141zM238 320q0 -58 24.5 -103t66.5 -76t99 -47.5t123 -16.5q61 0 116 16.5t96.5 47t66 73.5t24.5 95q0 65 -26 116.5t-69.5 92.5t-101.5 72t-123 54 q-62 -25 -116 -59t-94 -75t-63 -88.5t-23 -101.5zM266 1025q0 -57 20 -101t56.5 -78.5t89.5 -61t119 -50.5q59 23 109 51t87 63t58 77t21 92q0 51 -21 94.5t-59 75t-90.5 49t-116.5 17.5q-57 0 -106.5 -18t-86.5 -49t-58.5 -72.5t-21.5 -88.5z" />
<glyph unicode="9" horiz-adv-x="1156" d="M143 941q0 90 31 165t88.5 129.5t138.5 84.5t180 30q105 0 188 -40.5t140.5 -117.5t87.5 -189t30 -255q0 -159 -28.5 -299t-96.5 -244.5t-179.5 -164.5t-278.5 -60q-80 0 -135.5 14t-84.5 26l22 86q29 -10 84.5 -19.5t127.5 -9.5q123 0 208 48t138 130t77 191.5t26 231.5 q-21 -21 -54.5 -45t-77 -44t-97 -33t-114.5 -13q-90 0 -167 27t-133.5 78t-88.5 125t-32 168zM262 959q0 -88 25.5 -149t69 -99t101 -54.5t120.5 -16.5q57 0 109 14t95 35.5t75 46.5t50 46q0 108 -20.5 195t-62.5 148.5t-106 94.5t-151 33q-66 0 -122 -19.5t-96.5 -57 t-63.5 -92t-23 -125.5z" />
<glyph unicode=":" horiz-adv-x="414" d="M124 61q0 38 25 63.5t62 25.5q32 0 55.5 -23.5t23.5 -56.5q0 -38 -25.5 -64t-62.5 -26q-32 0 -55 24.5t-23 56.5zM124 955q0 38 25 63.5t62 25.5q32 0 55.5 -23.5t23.5 -56.5q0 -39 -25.5 -65t-62.5 -26q-32 0 -55 24.5t-23 57.5z" />
<glyph unicode=";" horiz-adv-x="383" d="M37 -263q19 14 41.5 34t41.5 45.5t31.5 57.5t12.5 71q0 33 -7 61t-18 51.5t-24 41.5t-25 30l113 30q9 -9 21.5 -26t24 -42t19.5 -58.5t8 -73.5q0 -53 -18.5 -98t-47 -80.5t-61 -61.5t-61.5 -42zM95 955q1 38 25.5 63.5t62.5 25.5q31 0 54.5 -23.5t23.5 -56.5 q0 -39 -25 -65t-62 -26q-32 0 -55.5 24.5t-23.5 57.5z" />
<glyph unicode="&#x3c;" horiz-adv-x="977" d="M140 665l578 439l59 -70l-486 -369l486 -369l-59 -70z" />
<glyph unicode="=" horiz-adv-x="1204" d="M200 446v90h803v-90h-803zM200 794v90h803v-90h-803z" />
<glyph unicode="&#x3e;" horiz-adv-x="977" d="M200 296l487 369l-487 369l60 70l577 -439l-577 -439z" />
<glyph unicode="?" horiz-adv-x="797" d="M50 1268q21 13 50 27.5t65.5 26.5t79.5 20t92 8q77 0 144 -21t117 -61t79 -97.5t29 -130.5q0 -56 -17.5 -104t-44.5 -89.5t-60.5 -77t-65.5 -67.5q-34 -34 -66 -64.5t-56.5 -61t-39.5 -63t-15 -71.5q-1 -23 1.5 -42.5t4.5 -34.5l-95 -13q-5 14 -9.5 39.5t-4.5 48.5 q0 42 12.5 78t37.5 71.5t61 74.5t84 88q27 28 55 59t50 64.5t36 70.5t14 77q0 62 -21.5 105.5t-57.5 71t-84.5 40t-102.5 12.5q-42 0 -78.5 -6.5t-66 -16t-52 -20.5t-37.5 -19zM231 61q0 38 25 63.5t62 25.5q32 0 55 -23.5t23 -56.5q0 -38 -25 -64t-62 -26q-32 0 -55 24.5 t-23 56.5z" />
<glyph unicode="@" horiz-adv-x="2274" d="M173 458q0 133 31.5 260.5t92.5 241t150 209t203 165t252 108t298 38.5q201 0 363.5 -60t277.5 -170t177 -265t62 -346q0 -140 -30.5 -257.5t-86 -202t-133 -131.5t-170.5 -47q-54 0 -98 19t-77 50t-54 69t-29 77q-25 -35 -60.5 -73t-81 -69.5t-101.5 -52t-122 -20.5 q-88 0 -154.5 40.5t-111.5 106.5t-67.5 150.5t-22.5 172.5q0 109 34.5 212t101 183.5t164.5 129t225 48.5q56 0 107 -12t94 -28t75 -33t48 -27l-46 -626q-4 -52 10 -92.5t40.5 -69t62.5 -43.5t76 -15q63 0 116 36.5t91.5 104.5t60 165t21.5 217q0 180 -51 321.5t-150 240 t-244 150.5t-333 52q-137 0 -256.5 -35t-218.5 -96.5t-176.5 -147t-131 -186.5t-81.5 -214.5t-28 -230.5q0 -184 54 -332t151 -251t232.5 -158.5t297.5 -55.5q59 0 113 8t99 19.5t79.5 23t52.5 19.5l29 -79q-15 -7 -50 -21t-85.5 -28.5t-114.5 -25t-136 -10.5 q-186 0 -341 63.5t-266 178.5t-172.5 276t-61.5 356zM799 488q0 -81 16.5 -152t49.5 -124t83 -83.5t118 -30.5q49 0 94 18.5t83.5 47.5t70 63.5t53.5 67.5l45 601q-7 4 -26.5 12.5t-48.5 17t-66.5 15t-79.5 6.5q-88 0 -160 -38t-123.5 -101.5t-80 -146.5t-28.5 -173z" />
<glyph unicode="A" d="M40 0l519 1330h110l518 -1330h-120l-141 369h-626l-140 -369h-120zM334 459h559l-279 744z" />
<glyph unicode="B" horiz-adv-x="1161" d="M185 0v1330h370q105 0 186 -22t137 -64t85 -103t29 -139q0 -55 -19.5 -104.5t-49.5 -89t-66 -68t-68 -43.5q50 -15 98 -43.5t86 -70.5t61.5 -98t23.5 -125q0 -90 -32.5 -157.5t-94.5 -112.5t-151.5 -67.5t-203.5 -22.5h-391zM298 89h270q86 0 154.5 15.5t116 47.5 t72.5 80.5t25 113.5q0 70 -24.5 124.5t-70 92t-110.5 57t-146 19.5h-287v-550zM298 729h386q32 14 65 38.5t60 58t44.5 75t17.5 89.5q0 128 -82.5 189.5t-237.5 61.5h-253v-512z" />
<glyph unicode="C" horiz-adv-x="1111" d="M105 662q0 150 43.5 276t125 217.5t199 143t265.5 51.5q75 0 146 -19t122 -43l-31 -84q-45 17 -106 32.5t-136 15.5q-111 0 -204 -38t-160 -110.5t-104.5 -179t-37.5 -244.5t36 -249.5t105.5 -189.5t172.5 -120.5t237 -42.5q72 0 136 15t106 32l31 -84q-57 -27 -135 -44 t-159 -17q-153 0 -274 50t-205 140t-128.5 215.5t-44.5 276.5z" />
<glyph unicode="D" horiz-adv-x="1265" d="M185 0v1330h337q156 0 275.5 -49.5t200 -138t121.5 -210t41 -264.5q0 -151 -47 -274.5t-131.5 -211t-203 -135t-262.5 -47.5h-331zM297 89h218q112 0 208 38.5t166 111.5t109.5 177t39.5 235q0 134 -33.5 243t-99 186t-163 119t-226.5 42h-219v-1152z" />
<glyph unicode="E" horiz-adv-x="1051" d="M181 0v1330h722v-91h-609v-524h588v-91h-588v-533h631v-91h-744z" />
<glyph unicode="F" horiz-adv-x="977" d="M185 0v1330h702v-91h-588v-524h544v-91h-544v-624h-114z" />
<glyph unicode="G" horiz-adv-x="1223" d="M105 662q0 149 43.5 275t126.5 218t204 143.5t277 51.5q43 0 85.5 -6t81 -15.5t71 -21t56.5 -23.5l-35 -84q-21 8 -49 17t-62.5 17t-73 13t-80.5 5q-117 0 -213.5 -37.5t-165 -110t-106.5 -179.5t-38 -246t34.5 -250.5t101.5 -189.5t164 -119.5t223 -41.5q36 0 70.5 4 t64.5 11t55 15t42 15v457l-273 1v88h387v-594q-29 -20 -69.5 -37.5t-88 -30.5t-100 -20t-105.5 -7q-150 0 -267 50.5t-197 140.5t-122 215.5t-42 275.5z" />
<glyph unicode="H" horiz-adv-x="1340" d="M185 0v1330h114v-615h742v615h113v-1330h-113v624h-742v-624h-114z" />
<glyph unicode="I" horiz-adv-x="484" d="M185 0v1330h113v-1330h-113z" />
<glyph unicode="J" horiz-adv-x="672" d="M50 25l31 80q21 -11 56 -19t85 -8q95 0 143.5 49t48.5 145v1058h112v-1044q0 -149 -77.5 -227.5t-232.5 -78.5q-20 0 -43 3.5t-45.5 9.5t-42.5 14t-35 18z" />
<glyph unicode="K" horiz-adv-x="1184" d="M185 0v1330h114v-836l640 836h132l-438 -570l510 -760h-135l-447 678l-262 -331v-347h-114z" />
<glyph unicode="L" horiz-adv-x="922" d="M185 0v1330h113v-1239h583v-91h-696z" />
<glyph unicode="M" horiz-adv-x="1670" d="M185 0v1330h171l479 -1013l479 1013h170v-1330h-111v1219l-489 -1037h-99l-488 1037v-1219h-112z" />
<glyph unicode="N" horiz-adv-x="1341" d="M185 0v1330h149l710 -1190v1190h112v-1330h-149l-710 1189v-1189h-112z" />
<glyph unicode="O" horiz-adv-x="1402" d="M105 662q0 155 43.5 282t122.5 217t190 139.5t246 49.5q132 0 240.5 -49.5t186 -139t120 -215t42.5 -278.5q0 -155 -43 -282t-122 -217t-190 -139.5t-247 -49.5q-132 0 -240.5 49.5t-186 139.5t-120 215.5t-42.5 277.5zM227 679q0 -138 34 -249t96.5 -189.5t151.5 -121 t198 -42.5q104 0 190 41t147.5 116t96 181t34.5 236q0 138 -34 249t-96.5 189.5t-151.5 121t-199 42.5q-103 0 -189 -41t-147.5 -116t-96 -181t-34.5 -236z" />
<glyph unicode="P" horiz-adv-x="1054" d="M185 0v1330h371q100 0 181 -27t138 -77t88 -122.5t31 -162.5q0 -94 -32.5 -168t-91.5 -125t-141.5 -78t-183.5 -27h-247v-543h-113zM298 632h258q74 0 133 19.5t99.5 57t62 92t21.5 123.5q0 153 -81 235t-246 82h-247v-609z" />
<glyph unicode="Q" horiz-adv-x="1423" d="M105 662q0 151 43.5 277.5t123 217.5t190.5 142t245 51q131 0 239.5 -50.5t186 -141t120.5 -215.5t43 -275q0 -109 -22.5 -205t-65 -176t-103.5 -142t-137 -101q97 -173 236.5 -268.5t332.5 -95.5q30 0 64.5 2t66.5 7l11 -92q-43 -7 -84 -10t-79 -3q-108 0 -202.5 29 t-175 83.5t-147.5 133t-120 176.5q-84 -26 -177 -26q-131 0 -239.5 50.5t-186 141t-120.5 215.5t-43 275zM227 679q0 -138 35 -249.5t98.5 -189.5t152 -120.5t194.5 -42.5q99 0 184.5 40t148.5 115t99 181t36 238q0 138 -35 249.5t-99 189.5t-152 120.5t-195 42.5 q-98 0 -183.5 -40.5t-148.5 -115t-99 -180.5t-36 -238z" />
<glyph unicode="R" horiz-adv-x="1108" d="M185 0v1330h391q97 0 177.5 -25.5t138.5 -73.5t90 -117.5t32 -157.5q0 -73 -26 -133t-69 -107t-96.5 -80.5t-109.5 -53.5l315 -582h-122l-298 563h-309v-563h-114zM299 653h351q48 12 92 37.5t77.5 62t53.5 84t20 103.5q0 143 -84 222t-242 79h-268v-588z" />
<glyph unicode="S" horiz-adv-x="998" d="M95 70l35 87q63 -32 149.5 -55.5t189.5 -23.5q72 0 129.5 17.5t98 49t62 75.5t21.5 97q0 51 -15 91t-48 74t-86.5 64.5t-130.5 61.5l-131 54q-62 25 -111 58t-83.5 75t-53 94.5t-18.5 116.5q0 76 32.5 139t88.5 108.5t132.5 71t164.5 25.5t169 -19.5t144 -48.5l-31 -87 q-56 20 -132 38.5t-162 18.5q-63 0 -116 -16.5t-91.5 -47.5t-60 -74.5t-21.5 -96.5q0 -51 12 -90.5t40.5 -72t74.5 -60.5t115 -56l133 -55q147 -62 224.5 -148t77.5 -209q0 -79 -30 -143t-86.5 -109t-137.5 -69.5t-182 -24.5q-58 0 -112.5 7.5t-101.5 20.5t-86 29t-66 33z " />
<glyph unicode="T" horiz-adv-x="997" d="M40 1239v91h917v-91h-402v-1239h-112v1239h-403z" />
<glyph unicode="U" horiz-adv-x="1254" d="M150 506v824h114v-809q0 -216 97 -329.5t272 -113.5q83 0 149 28t112.5 82t71 132t24.5 178v832h114v-817q0 -125 -33 -224t-95.5 -167.5t-152.5 -105t-203 -36.5q-109 0 -196.5 35.5t-148 103t-93 165.5t-32.5 222z" />
<glyph unicode="V" d="M40 1330h120l454 -1199l453 1199h120l-515 -1330h-116z" />
<glyph unicode="W" horiz-adv-x="1956" d="M60 1330h121l368 -1196l374 1152h109l375 -1152l368 1196h121l-427 -1330h-127l-364 1126l-364 -1126h-127z" />
<glyph unicode="X" horiz-adv-x="1268" d="M60 0l505 678l-454 652h130l393 -575l394 575h130l-454 -652l504 -678h-133l-441 598l-439 -598h-135z" />
<glyph unicode="Y" horiz-adv-x="1099" d="M40 1330h120l391 -714l389 714h118l-452 -813v-517h-113v517z" />
<glyph unicode="Z" horiz-adv-x="1055" d="M90 0v93l727 1146h-684v91h809v-93l-730 -1146h772v-91h-894z" />
<glyph unicode="[" horiz-adv-x="619" d="M189 -279v1884h356v-85l-247 -4v-1703h247v-85z" />
<glyph unicode="\" horiz-adv-x="809" d="M-36 1585h110l774 -1835h-110z" />
<glyph unicode="]" horiz-adv-x="619" d="M26 -194l247 4v1703h-247v85l356 7v-1884h-356v85z" />
<glyph unicode="^" horiz-adv-x="1065" d="M120 795l364 685h97l364 -685h-109l-303 575l-303 -575h-110z" />
<glyph unicode="_" horiz-adv-x="1190" d="M189 -89h812v-90h-812v90z" />
<glyph unicode="`" horiz-adv-x="683" d="M124 1374l46 102l389 -187l-29 -64z" />
<glyph unicode="a" horiz-adv-x="1000" d="M95 248q0 68 26.5 120.5t73.5 90t111 60t138 30.5q54 6 109 6h15q62 -1 126 -9v127q0 64 -13.5 115t-43 86t-77 54t-115.5 19q-42 0 -81.5 -7t-74 -17t-62.5 -22t-46 -23l-36 77q18 12 49.5 27t72 29t89 23.5t100.5 9.5q86 0 151.5 -25t109.5 -71t66.5 -111.5 t22.5 -146.5v-523q0 -55 20.5 -79t55.5 -24q20 0 34 4.5t21 7.5l14 -75q-11 -6 -36 -13.5t-54 -7.5q-69 0 -109 43.5t-44 121.5q-65 -79 -149 -122t-172 -43q-61 0 -114.5 19.5t-93 55t-62 85t-22.5 108.5zM212 262q0 -84 52.5 -135.5t150.5 -51.5q39 0 77.5 11.5t74.5 31.5 t68 48t59 62v240q-54 7 -112 8h-15q-51 0 -104 -6q-55 -6 -101 -21.5t-79.5 -41t-52 -61.5t-18.5 -84z" />
<glyph unicode="b" horiz-adv-x="1147" d="M185 82v1378l112 20v-517q69 41 142 61t142 20q100 0 184.5 -38t146 -106.5t96 -165t34.5 -213.5q0 -124 -36 -224t-102.5 -170.5t-160 -108.5t-208.5 -38q-43 0 -91.5 8t-95 21.5t-89 32t-74.5 40.5zM297 131q61 -27 118.5 -40.5t126.5 -13.5q88 0 158.5 29.5t120 84.5 t76 134t26.5 178q0 102 -25 184t-72 140t-114 89t-151 31q-66 0 -134.5 -19t-129.5 -56v-741z" />
<glyph unicode="c" horiz-adv-x="926" d="M105 503q0 122 36.5 221.5t103 170.5t159.5 110t205 39q71 0 131 -16.5t95 -35.5l-35 -81q-35 13 -83.5 24.5t-111.5 11.5q-86 0 -156.5 -30t-120.5 -85.5t-77 -134.5t-27 -177q0 -103 25.5 -185t75 -139.5t122 -88t165.5 -30.5q54 0 110 10.5t103 30.5l30 -82 q-51 -25 -121 -40.5t-137 -15.5q-110 0 -200.5 38t-155.5 106.5t-100.5 165t-35.5 213.5z" />
<glyph unicode="d" horiz-adv-x="1167" d="M105 503q0 122 38.5 221.5t106 170.5t159.5 110t198 39q57 0 128.5 -19.5t134.5 -54.5v490l111 20v-1480h-81l-17 141q-32 -38 -72 -68t-84 -50.5t-89.5 -31.5t-89.5 -11q-103 0 -185 38t-139.5 107t-88 165.5t-30.5 212.5zM224 520q0 -103 22.5 -185t66.5 -139.5 t108 -88t148 -30.5q47 0 92.5 13.5t85 35t71 49.5t52.5 57v641q-60 35 -129 54.5t-148 19.5q-80 0 -148 -31t-117 -87t-76.5 -134.5t-27.5 -174.5z" />
<glyph unicode="e" horiz-adv-x="1030" d="M105 503q0 122 33 222t93.5 171t146.5 109.5t191 38.5q85 0 151 -25t111.5 -72.5t69.5 -116.5t24 -157q0 -26 -3.5 -52t-8 -49.5t-10 -43.5t-9.5 -33h-670q2 -97 27 -174.5t72.5 -131.5t118 -83t161.5 -29q30 0 62.5 3t65 8.5t62 13t53.5 16.5l30 -83q-26 -11 -60.5 -21 t-73 -17.5t-78 -12t-75.5 -4.5q-109 0 -198.5 38t-153 107t-98 165t-34.5 213zM225 577h577q6 20 8.5 45.5t2.5 58.5q0 135 -69 202t-190 67q-74 0 -133 -27.5t-101 -77t-66.5 -118t-28.5 -150.5z" />
<glyph unicode="f" horiz-adv-x="649" d="M40 934v74l183 11v135q0 72 23.5 132t66.5 103t104 67t137 24q50 0 91 -9.5t64 -18.5l-21 -86q-21 6 -56.5 12.5t-81.5 6.5q-115 0 -169 -61.5t-54 -183.5v-116h267v-90h-263v-934h-111v934h-180z" />
<glyph unicode="g" horiz-adv-x="1032" d="M87 -197q0 41 16 77.5t43 67.5t62 56t72 42q-15 8 -30 20t-27 28.5t-19.5 37.5t-7.5 47t10 50.5t27 47t39 42t47 35.5q-49 18 -89.5 48.5t-69.5 72.5t-44.5 94.5t-15.5 113.5q0 78 28.5 144t78 114.5t116.5 75.5t145 27q66 0 124.5 -20t104.5 -58q43 40 112 62 q46 15 98 15q26 0 54 -4v-95q-25 4 -52 4q-29 0 -59 -5q-58 -9 -99 -34q33 -43 52 -97.5t19 -119.5q0 -78 -28 -144t-77.5 -114.5t-117 -75.5t-145.5 -27q-29 0 -55 3q-19 -12 -37.5 -28t-32.5 -33t-22.5 -36t-8.5 -40q0 -43 28 -67q29 -25 87 -25h221q62 0 118.5 -16 t99.5 -47t68.5 -78t25.5 -108q0 -63 -32.5 -116.5t-92.5 -92.5t-144.5 -61t-187.5 -22q-91 0 -165.5 16t-127 46.5t-81 75t-28.5 101.5zM198 -174q0 -82 81 -126t234 -44q71 0 130 14t101 38.5t65.5 59t23.5 75.5q0 82 -56.5 123.5t-165.5 41.5h-261q-28 -12 -55.5 -30 t-49 -41t-34.5 -51t-13 -60zM207 696q0 -65 19.5 -116.5t53 -87.5t80 -55t100.5 -19t100.5 20t81 55t54 82.5t19.5 103.5q0 65 -19.5 116.5t-53 87t-80 54.5t-100.5 19t-100.5 -19.5t-81 -54.5t-54 -82.5t-19.5 -103.5z" />
<glyph unicode="h" horiz-adv-x="1144" d="M185 0v1460l112 20v-592q37 31 79.5 59t89 49.5t96 34.5t99.5 13q80 0 138.5 -25.5t97.5 -73t58 -116t19 -155.5v-674h-112v656q0 143 -56 214.5t-176 71.5q-42 0 -87 -13t-88.5 -34t-84 -48t-73.5 -56v-791h-112z" />
<glyph unicode="i" horiz-adv-x="482" d="M158 1346q0 38 25 63.5t62 25.5q32 0 55.5 -24t23.5 -56q0 -39 -25.5 -65t-62.5 -26q-32 0 -55 24.5t-23 57.5zM185 0v1024h112v-1024h-112z" />
<glyph unicode="j" horiz-adv-x="482" d="M-100 -410l12 93q6 -1 18 -2t23 -1h15q41 0 73 9q75 16 109.5 72.5t34.5 165.5v1097h111v-1080q0 -191 -82 -275.5t-246 -84.5q-14 0 -36 2t-32 4zM158 1346q0 38 25 63.5t62 25.5q32 0 55.5 -24t23.5 -56q0 -39 -25.5 -65t-62.5 -26q-32 0 -55 24.5t-23 57.5z" />
<glyph unicode="k" horiz-adv-x="1041" d="M185 0v1460l112 20v-1073l499 617h130l-354 -434l399 -590h-131l-344 509l-199 -241v-268h-112z" />
<glyph unicode="l" horiz-adv-x="482" d="M185 0v1460l112 20v-1480h-112z" />
<glyph unicode="m" horiz-adv-x="1778" d="M185 0v1024h84l17 -146q36 32 78.5 62t89 53t96.5 37t101 14q103 0 170.5 -46.5t100.5 -132.5q97 86 193.5 132.5t190.5 46.5q77 0 134 -25.5t94.5 -73t55.5 -116t18 -155.5v-674h-112v656q0 143 -53 214.5t-167 71.5q-40 0 -82 -12t-84 -32.5t-82 -48t-76 -57.5v-792 h-111v656q0 143 -53.5 214.5t-167.5 71.5q-41 0 -85 -13t-86 -34t-81 -48t-71 -56v-791h-112z" />
<glyph unicode="n" horiz-adv-x="1144" d="M185 0v1024h84l17 -146q37 32 80.5 62t91.5 53t99.5 37t103.5 14q80 0 138.5 -25.5t97.5 -73t58 -116t19 -155.5v-674h-112v656q0 143 -56 214.5t-176 71.5q-42 0 -87 -13t-88.5 -34t-84 -48t-73.5 -56v-791h-112z" />
<glyph unicode="o" horiz-adv-x="1136" d="M105 503q0 122 34 222t95.5 171t148 109.5t191.5 38.5q102 0 186 -38t144 -106.5t93 -165t33 -213.5q0 -122 -33.5 -221.5t-95 -170.5t-148 -110t-192.5 -39q-102 0 -186 38t-144 107t-93 165t-33 213zM224 521q0 -104 24.5 -187t69.5 -140.5t110 -88.5t146 -31 q77 0 139.5 30t106.5 86t68 135.5t24 177.5q0 104 -24.5 187t-70 140.5t-110.5 88.5t-146 31q-76 0 -138.5 -30.5t-106.5 -86.5t-68 -135t-24 -177z" />
<glyph unicode="p" horiz-adv-x="1167" d="M185 -396v1420h81l18 -141q32 38 72 68t84 50.5t90 31.5t89 11q103 0 185 -38t139 -107t87.5 -165.5t30.5 -212.5q0 -122 -38.5 -221.5t-106 -170.5t-159 -110t-197.5 -39q-57 0 -128.5 19.5t-134.5 54.5v-450h-112zM297 151q60 -35 129 -54.5t147 -19.5q81 0 148.5 31 t117 87t77 134.5t27.5 173.5q0 104 -22.5 186t-66.5 139.5t-108.5 88t-147.5 30.5q-47 0 -92.5 -13.5t-85 -35t-71 -49.5t-52.5 -57v-641z" />
<glyph unicode="q" horiz-adv-x="1147" d="M105 503q0 124 36 224t102.5 170.5t160 108.5t208.5 38q47 0 96 -7.5t95 -20t87 -28.5t72 -33v-1351h-111v456q-69 -40 -142.5 -60t-142.5 -20q-100 0 -184.5 38t-146 106.5t-96 165t-34.5 213.5zM224 520q0 -102 25 -183.5t72 -139.5t113.5 -89t150.5 -31q66 0 135.5 19 t130.5 56v746q-48 20 -109.5 34.5t-136.5 14.5q-88 0 -158.5 -29.5t-120 -84.5t-76 -134.5t-26.5 -178.5z" />
<glyph unicode="r" horiz-adv-x="692" d="M185 1024h82l19 -159q30 32 69.5 61.5t85 53.5t94.5 41t97 22v-116q-50 -6 -98 -19.5t-91 -33t-80 -43.5t-65 -50v-781h-112q0 257 -0.5 512t-0.5 512z" />
<glyph unicode="s" horiz-adv-x="842" d="M90 54l35 87q20 -10 49 -21.5t65 -21t78.5 -16t90.5 -6.5q51 0 93 11t72 32.5t46.5 52.5t16.5 71q0 38 -12.5 68t-39.5 56t-70 49.5t-105 47.5l-90 36q-106 42 -160 107t-54 161q0 63 26.5 114t71.5 87t105 55.5t128 19.5q48 0 90.5 -6.5t77 -16t60 -19.5t40.5 -17 l-30 -89q-14 6 -38 14.5t-56 16.5t-70 14t-81 6q-49 0 -88.5 -12.5t-67.5 -35t-43 -53.5t-15 -69q0 -32 7.5 -58.5t29 -50.5t60.5 -47t102 -49l91 -36q114 -46 178 -113t64 -173q0 -61 -23 -110.5t-67.5 -85t-108.5 -55t-147 -19.5q-103 0 -184 23t-127 51z" />
<glyph unicode="t" horiz-adv-x="750" d="M40 934v74l184 11l5 232l100 19v-246h315v-90h-312v-653q0 -112 46.5 -159t148.5 -47q34 0 71.5 5t60.5 13l21 -86q-31 -11 -79 -19t-91 -8q-140 0 -214.5 68.5t-74.5 208.5v677h-181z" />
<glyph unicode="u" horiz-adv-x="1125" d="M165 350v674h111v-656q0 -143 55 -213.5t170 -70.5q42 0 86 12.5t87 33t82.5 47.5t72.5 56v791h111v-1024h-84l-16 146q-37 -32 -80 -62t-90 -53t-97.5 -37t-101.5 -14q-78 0 -135.5 25.5t-95.5 73t-56.5 116t-18.5 155.5z" />
<glyph unicode="v" horiz-adv-x="1023" d="M40 1024h117l354 -894l354 894h117l-417 -1024h-107z" />
<glyph unicode="w" horiz-adv-x="1615" d="M60 1024h114l288 -901l293 891h105l293 -891l287 901h115l-344 -1024h-117l-287 860l-287 -860h-117z" />
<glyph unicode="x" horiz-adv-x="994" d="M40 0l387 523l-348 501h129l289 -426l289 426h129l-348 -501l387 -523h-133l-324 450l-324 -450h-133z" />
<glyph unicode="y" horiz-adv-x="1022" d="M31 1024h117l385 -920l332 920h117l-378 -1000q-47 -124 -90.5 -208.5t-93 -136t-108 -73.5t-135.5 -22q-48 0 -84.5 9.5t-57.5 18.5l30 88q17 -6 46.5 -13.5t65.5 -7.5q54 0 96.5 17.5t77.5 54.5t65.5 94.5t61.5 137.5z" />
<glyph unicode="z" horiz-adv-x="957" d="M110 0v90l583 845h-536v89h658v-92l-585 -843h617v-89h-737z" />
<glyph unicode="{" horiz-adv-x="653" d="M124 619v90h17q60 0 103 16.5t71 43t41 59.5t13 65t-9 61t-23 57.5t-32.5 56.5t-36.5 56q-20 30 -37.5 58.5t-31 56.5t-21 57t-7.5 61q0 56 19.5 105t56 85t90.5 57t123 21q38 0 75 -8t59 -16l-21 -83q-23 7 -55 12t-74 5q-37 0 -68.5 -13t-53.5 -34.5t-34.5 -50 t-12.5 -60.5t8 -61t20 -55t26.5 -48.5t26.5 -41.5q22 -33 43 -64t37.5 -62t26.5 -64t10 -71q0 -45 -13.5 -85t-38 -72t-58.5 -55t-74 -34q40 -12 74 -34.5t58.5 -52t38 -64t13.5 -70.5q0 -46 -10 -83.5t-26.5 -71t-37 -65t-42.5 -64.5q-13 -19 -27.5 -41t-26.5 -46t-20 -50 t-8 -53q0 -38 12.5 -70.5t36.5 -55.5t58.5 -36t77.5 -13q30 0 60 5t53 12l21 -84q-21 -8 -60 -15.5t-90 -7.5q-63 0 -113.5 20.5t-86 55t-54.5 79.5t-19 95q0 38 8 70.5t21.5 62t31 58t37.5 58.5q18 28 36 55.5t32.5 55t23 55.5t8.5 56q0 36 -13 71t-41 62.5t-72 44 t-105 16.5h-14z" />
<glyph unicode="|" horiz-adv-x="485" d="M189 -499v2022h107v-2022h-107z" />
<glyph unicode="}" horiz-adv-x="653" d="M11 1601q21 8 60 16t85 8q65 0 116.5 -20.5t87.5 -55.5t55 -81.5t19 -97.5q0 -37 -8 -68.5t-21.5 -61t-31 -58t-37.5 -58.5l-36 -56t-32.5 -55.5t-23 -56t-8.5 -58.5q0 -34 13 -68t41 -61t71 -43.5t103 -16.5h17v-90h-14q-61 0 -105 -16.5t-72 -43.5t-41 -60.5t-13 -67.5 q0 -31 9 -60t23 -57t32.5 -55.5t36.5 -55.5q20 -30 37.5 -58.5t31 -57t21 -58.5t7.5 -63q0 -54 -19.5 -102t-56 -83.5t-89 -56t-119.5 -20.5q-42 0 -79.5 7.5t-58.5 15.5l21 84q23 -7 54 -12t69 -5q39 0 71.5 13t55 35t35 51.5t12.5 63.5q0 31 -8 59.5t-20 54t-26 47.5 t-27 41q-22 33 -43 64t-37.5 62.5t-26.5 65.5t-10 72q0 43 14 82t38.5 70.5t58 54.5t73.5 34q-40 12 -73.5 34.5t-58 52.5t-38.5 66t-14 74q0 45 10 82t26.5 70t37.5 64t42 64q13 19 27.5 41.5t26.5 47t20 51t8 53.5q0 36 -12.5 67.5t-36 54.5t-57 36t-74.5 13 q-34 0 -64.5 -5t-53.5 -12z" />
<glyph unicode="~" horiz-adv-x="1083" d="M160 637q22 23 47.5 44.5t55.5 37.5t65 25.5t75 9.5q46 0 82.5 -13.5t69.5 -29t66.5 -29t73.5 -13.5q28 0 52.5 8t46.5 20t41.5 27t35.5 29l51 -60q-21 -23 -46.5 -44.5t-55.5 -37.5t-65 -25.5t-75 -9.5q-46 0 -82.5 13.5t-70 29t-67 29t-72.5 13.5q-27 0 -52 -8t-47 -20 t-41.5 -27t-36.5 -29z" />
<glyph unicode="&#xa1;" horiz-adv-x="474" d="M154 955q0 38 25 63.5t62 25.5q32 0 55.5 -23.5t23.5 -56.5q0 -39 -25.5 -65t-62.5 -26q-32 0 -55 24.5t-23 57.5zM168 -306l27 985h84l27 -985h-138z" />
<glyph unicode="&#xa2;" horiz-adv-x="1167" d="M189 662q0 107 31.5 198.5t90.5 161.5t144.5 114t193.5 56l-10 236h107l-9 -232q61 -2 122 -17t109 -36l-36 -80q-40 14 -94 26.5t-119 12.5q-89 0 -164.5 -27.5t-130 -81.5t-85.5 -133.5t-31 -183.5t30 -187t87.5 -141.5t142 -89.5t193.5 -31q58 0 111.5 11.5t97.5 26.5 l33 -80q-54 -24 -124 -37t-140 -15l9 -233h-106l8 238q-110 13 -195.5 57t-144.5 112.5t-90 159t-31 195.5z" />
<glyph unicode="&#xa3;" horiz-adv-x="1217" d="M191 635v88h146q-9 58 -16 116t-7 118q0 89 27.5 161t77 124t119 80t153.5 28q88 0 153 -20.5t102 -40.5l-38 -82q-45 16 -98 30.5t-125 14.5q-60 0 -107.5 -20.5t-81 -57t-51.5 -88.5t-18 -115t7.5 -124.5t17.5 -123.5h380v-88h-368q5 -39 8 -78t3 -78 q0 -101 -14.5 -190.5t-52.5 -177.5q10 0 19 -0.5t17 -0.5q51 -1 96 -7t87.5 -12.5t85 -11.5t87.5 -5q37 0 65.5 11t50 29.5t37 43.5t26.5 53l75 -27q-10 -47 -33.5 -85t-58.5 -64.5t-80 -40.5t-97 -14q-48 0 -95 6t-95 13.5t-97.5 13.5t-100.5 6q-11 0 -24 -1t-19 -2 l-15 -15q-7 -6 -15 -12.5t-16 -11.5l-80 19l-17 84q17 8 41 15.5t49 12.5q35 88 48.5 180t13.5 177q0 43 -4.5 85t-9.5 85h-158z" />
<glyph unicode="&#xa4;" horiz-adv-x="1508" d="M248 213l167 201q-40 51 -62 114t-22 135q0 73 22.5 138t64.5 118l-170 207l56 45l201 -170q51 37 114 57.5t135 20.5t135.5 -20t115.5 -56l199 168l55 -45l-167 -205q41 -51 63 -115t22 -136q0 -74 -22 -138t-63 -115l167 -204l-55 -45l-199 168q-52 -36 -115.5 -56 t-135.5 -20t-136 19.5t-117 54.5l-197 -166zM442 670q0 -72 24.5 -130.5t67 -100t99.5 -63.5t121 -22q65 0 122 21t99.5 61t67 97.5t24.5 129.5t-24.5 131t-67 101.5t-99.5 66t-122 23.5q-64 0 -121 -22.5t-99.5 -63.5t-67 -99t-24.5 -130z" />
<glyph unicode="&#xa5;" horiz-adv-x="1313" d="M133 1330h124l381 -549q5 -6 10 -12.5t11 -13.5l399 575h121l-350 -488h255v-88h-854v88h253zM251 490v88h813v-88h-352v-490h-113v490h-348z" />
<glyph unicode="&#xa6;" horiz-adv-x="485" d="M189 259h107v-758h-107v758zM189 765v758h107v-758h-107z" />
<glyph unicode="&#xa7;" horiz-adv-x="874" d="M63 -348l35 83q45 -17 108 -34t138 -19q21 18 39.5 44t32 57t21 65t7.5 67q1 74 -19.5 150.5t-61.5 172.5l-147 350q-25 60 -50 121.5t-45 122t-32 121t-12 119.5q0 89 32 164t90 129t138.5 84.5t176.5 30.5q48 0 91.5 -6.5t81.5 -16t69 -21.5t54 -24l-35 -83 q-44 17 -108 34t-138 19q-21 -18 -39 -44t-31.5 -57t-21.5 -65t-8 -67q0 -74 21 -150.5t61 -172.5l147 -350q25 -60 50 -121.5t44.5 -122t32 -121t12.5 -119.5q0 -89 -32 -164t-90 -129t-138.5 -84.5t-177.5 -30.5q-48 0 -91.5 6.5t-81 16t-69 21.5t-54.5 24zM187 1082 q0 -65 16 -135.5t41 -142t55 -142t58 -135.5l116 -274q26 -63 37 -117t11 -100q22 -113 -1 -200t-73 -144q57 10 101.5 35.5t75 63t46.5 86t16 105.5q0 58 -12.5 119t-32.5 123.5t-45.5 125.5t-51.5 123q-37 85 -72.5 169t-70.5 169q-35 83 -51.5 155t-18.5 135 q-4 87 23.5 156t71.5 115q-57 -11 -101.5 -36.5t-75 -63t-46.5 -86t-16 -104.5z" />
<glyph unicode="&#xa8;" horiz-adv-x="776" d="M127 1346q0 38 25 63.5t62 25.5q32 0 55.5 -24t23.5 -56q0 -39 -25.5 -65t-62.5 -26q-32 0 -55 24.5t-23 57.5zM484 1346q0 38 25 63.5t62 25.5q31 0 54.5 -24t23.5 -56q0 -39 -25 -65t-62 -26q-32 0 -55 24.5t-23 57.5z" />
<glyph unicode="&#xa9;" horiz-adv-x="1558" d="M110 658q0 144 52.5 270.5t143.5 220t213.5 147.5t262.5 54q136 0 257 -54t211.5 -146.5t143.5 -216t53 -263.5q0 -145 -53 -271t-145 -219t-216 -146.5t-266 -53.5q-134 0 -253.5 53.5t-209 145.5t-142 215.5t-52.5 263.5zM206 670q0 -126 44.5 -235.5t122.5 -191 t183.5 -128.5t226.5 -47q117 0 221 47t181 127t122 187t45 228q0 126 -45 236t-124 192t-186 129.5t-230 47.5q-115 0 -217 -47t-178.5 -128t-121 -188.5t-44.5 -228.5zM431 658q0 90 26 164t73.5 126.5t114 81t146.5 28.5q59 0 111.5 -16.5t82.5 -36.5l-30 -73 q-31 14 -74 26t-94 12q-57 0 -102.5 -22t-78 -61.5t-50 -94.5t-17.5 -121q0 -72 16.5 -129.5t49 -98t80 -62.5t108.5 -22q42 0 89.5 10.5t88.5 30.5l28 -75q-41 -24 -99.5 -39t-119.5 -15q-78 0 -142.5 27.5t-110 78.5t-71 122.5t-25.5 158.5z" />
<glyph unicode="&#xaa;" horiz-adv-x="617" d="M55 890q0 40 16.5 72t46.5 55.5t72 36.5t93 16q29 2 56.5 1t55.5 -4v64q0 65 -28.5 100.5t-101.5 35.5q-49 0 -91.5 -13t-64.5 -23l-25 71q14 7 34 15.5t45.5 15.5t54.5 12t59 5q112 0 163.5 -55.5t51.5 -150.5v-283q0 -29 10 -41.5t30 -12.5q12 0 20.5 2.5t13.5 4.5 l14 -64q-5 -3 -25 -11t-46 -8q-42 0 -68 23.5t-31 68.5q-32 -38 -74.5 -65t-99.5 -27q-37 0 -70 10.5t-57.5 30.5t-38.5 49.5t-15 68.5zM154 899q0 -42 25.5 -64.5t70.5 -22.5q42 0 80 20t65 55v111q-24 3 -51 4t-56 -1q-59 -5 -97 -30t-37 -72z" />
<glyph unicode="&#xab;" horiz-adv-x="1104" d="M124 512q50 48 99.5 102t96 110t89.5 112.5t80 109.5l83 -60q-61 -91 -143.5 -187t-178.5 -187q96 -91 178.5 -187t143.5 -187l-83 -60q-37 53 -80 109.5t-90 113t-96 110.5t-99 101zM545 512q90 88 170.5 189.5t146.5 200.5l83 -60q-54 -83 -123.5 -165.5t-152.5 -164.5 q83 -81 152.5 -164t123.5 -166l-83 -60q-66 98 -147 200t-170 190z" />
<glyph unicode="&#xac;" horiz-adv-x="1212" d="M200 620v90h811v-408h-97v318h-714z" />
<glyph unicode="&#xad;" horiz-adv-x="884" d="M189 487v90h506v-90h-506z" />
<glyph unicode="&#xae;" horiz-adv-x="1558" d="M110 658q0 144 52.5 270.5t143.5 220t213.5 147.5t262.5 54q136 0 257 -54t211.5 -146.5t143.5 -216t53 -263.5q0 -145 -53 -271t-145 -219t-216 -146.5t-266 -53.5q-134 0 -253.5 53.5t-209 145.5t-142 215.5t-52.5 263.5zM206 670q0 -126 44.5 -235.5t122.5 -191 t183.5 -128.5t226.5 -47q117 0 221 47t181 127t122 187t45 228q0 126 -45 236t-124 192t-186 129.5t-230 47.5q-115 0 -217 -47t-178.5 -128t-121 -188.5t-44.5 -228.5zM544 276v768h219q55 0 102 -15t81.5 -44t54 -70.5t19.5 -94.5q0 -41 -13 -75t-34 -61t-47.5 -47 t-53.5 -32l174 -329h-105l-162 312h-138v-312h-97zM641 664h179q18 6 35.5 19.5t32 32t23 43t8.5 53.5q0 73 -42 114.5t-117 41.5h-119v-304z" />
<glyph unicode="&#xaf;" horiz-adv-x="748" d="M124 1307v87h500v-87h-500z" />
<glyph unicode="&#xb0;" horiz-adv-x="689" d="M70 1078q0 57 19.5 106.5t56 86t88 58t115.5 21.5q59 0 108.5 -21t85 -56.5t55.5 -82.5t20 -100q0 -57 -19.5 -106t-55.5 -86t-87.5 -58t-115.5 -21q-59 0 -108.5 21t-85.5 56t-56 82.5t-20 99.5zM170 1091q0 -38 11.5 -71.5t34.5 -59t56.5 -40.5t77.5 -15q39 0 70 14 t53 38t34 55t12 65q0 38 -11.5 72.5t-34 60t-56 40.5t-78.5 15q-39 0 -70 -14.5t-53 -38.5t-34 -55.5t-12 -65.5z" />
<glyph unicode="&#xb1;" horiz-adv-x="1148" d="M200 771v90h323v351h101v-351h323v-90h-323v-349h-101v349h-323zM225 81v90h697v-90h-697z" />
<glyph unicode="&#xb2;" horiz-adv-x="546" d="M60 1295q6 3 22 12t41 18.5t56 17t67 7.5q51 0 88.5 -16.5t62.5 -43t37 -60.5t12 -70q0 -46 -17.5 -86.5t-50 -80.5t-78 -80.5t-102.5 -85.5h278v-76h-412v67q71 56 125.5 102t91.5 86.5t55.5 77t18.5 72.5q0 53 -30 82t-89 29q-25 0 -48.5 -5t-43 -11.5t-33.5 -13.5 l-20 -10z" />
<glyph unicode="&#xb3;" horiz-adv-x="507" d="M40 768l25 67q23 -9 58.5 -18.5t84.5 -9.5q58 0 92.5 24t34.5 75q0 48 -33.5 76.5t-93.5 28.5h-74v72h124q19 10 38 33.5t19 60.5q0 48 -35 72t-91 24q-38 0 -69.5 -7.5t-48.5 -14.5l-24 67q18 8 56 20t90 12q101 0 153 -44t56 -109q1 -18 -2 -40q-7 -37 -29.5 -63 t-46.5 -42q17 -5 35 -17t32.5 -29.5t23.5 -41.5t9 -53q0 -86 -59.5 -133t-164.5 -47q-54 0 -94.5 11.5t-65.5 25.5z" />
<glyph unicode="&#xb4;" horiz-adv-x="701" d="M124 1285l414 197l46 -102l-431 -160z" />
<glyph unicode="&#xb6;" horiz-adv-x="1104" d="M119 920q0 114 41.5 192t112.5 126.5t164.5 70t198.5 21.5h285v-90h-114v-1295q0 -191 -83.5 -276t-247.5 -85q-15 0 -35.5 2t-30.5 4l13 94q8 -2 23.5 -3t29.5 -1q113 0 165.5 57t52.5 191v1312h-108v-729q-96 0 -181 25t-148.5 75.5t-100.5 127.5t-37 181z" />
<glyph unicode="&#xb7;" horiz-adv-x="414" d="M124 507q0 38 25 63.5t62 25.5q32 0 55.5 -23.5t23.5 -56.5q0 -38 -25.5 -64t-62.5 -26q-32 0 -55 24.5t-23 56.5z" />
<glyph unicode="&#xb8;" horiz-adv-x="503" d="M120 -413l12 71q8 -2 23.5 -3.5t34.5 -2.5h20t17 2q36 5 50.5 25.5t14.5 46.5q0 34 -21 56.5t-67 22.5h-53l7 70h64q75 0 119.5 -36t44.5 -104q0 -70 -48 -114t-147 -44q-20 0 -39.5 2.5t-31.5 7.5z" />
<glyph unicode="&#xb9;" horiz-adv-x="496" d="M55 1308q58 8 124 19t123 23h10v-521l132 -4v-74h-382v74l156 4v427q-15 -2 -35.5 -5t-42 -6t-41.5 -5t-34 -4z" />
<glyph unicode="&#xba;" horiz-adv-x="696" d="M60 1034q0 69 20 127t58 100t93 65.5t124 23.5q65 0 116.5 -23.5t88.5 -65t56.5 -97t19.5 -118.5q0 -69 -20 -126.5t-57.5 -99.5t-92.5 -65.5t-124 -23.5q-64 0 -116.5 23.5t-89 65t-56.5 96.5t-20 118zM160 1047q0 -49 12 -91t36 -73t61 -49t87 -18q45 0 78.5 17 t56 46.5t34 69t11.5 84.5q0 49 -11.5 91.5t-35.5 73.5t-60.5 49t-87.5 18q-44 0 -77.5 -17.5t-56.5 -47.5t-35 -69.5t-12 -83.5z" />
<glyph unicode="&#xbb;" horiz-adv-x="1104" d="M111 182q54 84 123.5 166t152.5 164q-83 81 -152.5 164.5t-123.5 165.5l83 61q66 -98 147 -200.5t170 -190.5q-90 -88 -170.5 -189t-146.5 -201zM483 138q62 91 144.5 187t177.5 187q-95 91 -178 187t-144 187l83 60q37 -52 80.5 -109t90.5 -113t96.5 -110t98.5 -102 q-50 -48 -99.5 -101.5t-96 -110t-89.5 -113t-81 -109.5z" />
<glyph unicode="&#xbf;" horiz-adv-x="797" d="M90 -16q0 56 17.5 104t45 89.5t61 77t65.5 67.5q35 34 66.5 64.5t56 61t39.5 63t15 71.5q1 23 -1.5 42.5t-5.5 34.5l95 12q5 -13 9.5 -38.5t4.5 -48.5q0 -42 -12.5 -78t-37 -71.5t-61 -74.5t-84.5 -88q-27 -28 -54.5 -59t-50 -65t-36.5 -70.5t-14 -76.5 q0 -62 21.5 -105.5t58 -71t85 -40t102.5 -12.5q42 0 78.5 6.5t66 16t52 20t37.5 18.5l37 -77q-21 -13 -50 -27.5t-65 -26.5t-79 -20t-92 -8q-77 0 -144.5 21t-117.5 61t-79 97.5t-29 130.5zM400 955q0 38 25.5 63.5t62.5 25.5q31 0 54.5 -23.5t23.5 -56.5q0 -39 -25 -65 t-62 -26q-32 0 -55.5 24.5t-23.5 57.5z" />
<glyph unicode="&#xc0;" d="M40 0l519 1330h110l518 -1330h-120l-141 369h-626l-140 -369h-120zM334 459h559l-279 744zM379 1674l45 102l390 -187l-29 -64z" />
<glyph unicode="&#xc1;" d="M40 0l519 1330h110l518 -1330h-120l-141 369h-626l-140 -369h-120zM334 459h559l-279 744zM415 1585l414 197l46 -102l-431 -160z" />
<glyph unicode="&#xc2;" d="M40 0l519 1330h110l518 -1330h-120l-141 369h-626l-140 -369h-120zM334 459h559l-279 744zM341 1576q66 39 137.5 88.5t134.5 98.5q63 -49 134.5 -98.5t137.5 -88.5l-54 -76q-27 17 -57.5 38t-60 42.5t-55.5 42t-45 36.5q-19 -16 -45.5 -36.5t-56 -42t-60 -42.5 t-57.5 -38z" />
<glyph unicode="&#xc3;" d="M40 0l519 1330h110l518 -1330h-120l-141 369h-626l-140 -369h-120zM331 1627q30 47 76.5 75.5t104.5 28.5q31 0 58.5 -10.5t53.5 -22.5t51.5 -22.5t51.5 -10.5q19 0 35 6t29.5 15.5t24.5 20.5t19 21l60 -54q-32 -48 -77 -76t-102 -28q-31 0 -58 10.5t-52.5 22.5t-51 22.5 t-53.5 10.5q-18 0 -34.5 -6t-31 -15.5t-25.5 -20.5t-19 -20zM334 459h559l-279 744z" />
<glyph unicode="&#xc4;" d="M40 0l519 1330h110l518 -1330h-120l-141 369h-626l-140 -369h-120zM334 459h559l-279 744zM349 1646q0 38 25 63.5t62 25.5q31 0 54.5 -24t23.5 -56q0 -39 -25 -65t-62 -26q-32 0 -55 24.5t-23 57.5zM711 1646q0 38 25 63.5t62 25.5q32 0 55.5 -24t23.5 -56 q0 -39 -25.5 -65t-62.5 -26q-31 0 -54.5 24.5t-23.5 57.5z" />
<glyph unicode="&#xc5;" d="M40 0l519 1330h110l518 -1330h-120l-141 369h-626l-140 -369h-120zM334 459h559l-279 744zM416 1645q0 42 15.5 79t42.5 64.5t64.5 43.5t80.5 16q38 0 73 -15.5t62 -41.5t43 -61t16 -74q0 -43 -15.5 -80.5t-43 -65t-64.5 -43.5t-81 -16q-38 0 -73 15.5t-61.5 42 t-42.5 61.5t-16 75zM500 1648q0 -24 9 -44.5t24 -36.5t35 -25t42 -9q54 0 86 34.5t32 84.5q0 24 -9 45t-24 37t-35 25t-43 9q-26 0 -47.5 -9.5t-37 -26t-24 -38t-8.5 -46.5z" />
<glyph unicode="&#xc6;" horiz-adv-x="1827" d="M40 0l971 1330h684v-91h-557v-524h535v-91h-535v-533h578v-91h-691v380h-584l-277 -380h-124zM507 471h518v721z" />
<glyph unicode="&#xc7;" horiz-adv-x="1116" d="M105 662q0 150 43.5 276t125 217.5t199 143t265.5 51.5q75 0 146 -19t122 -43l-31 -84q-45 17 -106 32.5t-136 15.5q-111 0 -204 -38t-160 -110.5t-104.5 -179t-37.5 -244.5t36 -249.5t105.5 -189.5t172.5 -120.5t237 -42.5q72 0 136 15t106 32l31 -84q-57 -27 -135 -44 t-159 -17q-153 0 -274 50t-205 140t-128.5 215.5t-44.5 276.5zM551 -413l11 71q8 -2 23.5 -3.5t34.5 -2.5h20t17 2q36 5 51 25.5t15 46.5q0 34 -21.5 56.5t-67.5 22.5h-52l6 70h64q75 0 119.5 -36t44.5 -104q0 -70 -48 -114t-147 -44q-19 0 -39 2.5t-31 7.5z" />
<glyph unicode="&#xc8;" horiz-adv-x="1051" d="M185 0v1330h723v-91h-609v-524h588v-91h-588v-533h631v-91h-745zM335 1674l46 102l389 -187l-28 -64z" />
<glyph unicode="&#xc9;" horiz-adv-x="1051" d="M185 0v1330h723v-91h-609v-524h588v-91h-588v-533h631v-91h-745zM379 1585l414 197l45 -102l-430 -160z" />
<glyph unicode="&#xca;" horiz-adv-x="1051" d="M185 0v1330h723v-91h-609v-524h588v-91h-588v-533h631v-91h-745zM297 1576q66 39 137.5 88.5t134.5 98.5q63 -49 134.5 -98.5t137.5 -88.5l-53 -76q-27 17 -57.5 38t-60 42.5t-56 42t-45.5 36.5q-19 -16 -45 -36.5t-55.5 -42t-60 -42.5t-57.5 -38z" />
<glyph unicode="&#xcb;" horiz-adv-x="1051" d="M185 0v1330h723v-91h-609v-524h588v-91h-588v-533h631v-91h-745zM300 1646q0 38 25 63.5t62 25.5q32 0 55 -24t23 -56q0 -39 -25 -65t-62 -26q-32 0 -55 24.5t-23 57.5zM656 1646q0 38 25 63.5t63 25.5q31 0 54.5 -24t23.5 -56q0 -39 -25 -65t-62 -26q-32 0 -55.5 24.5 t-23.5 57.5z" />
<glyph unicode="&#xcc;" horiz-adv-x="484" d="M15 1674l45 102l390 -187l-29 -64zM185 0v1330h113v-1330h-113z" />
<glyph unicode="&#xcd;" horiz-adv-x="484" d="M40 1585l414 197l46 -102l-431 -160zM185 0v1330h113v-1330h-113z" />
<glyph unicode="&#xce;" horiz-adv-x="484" d="M-42 1576q66 39 137.5 88.5t134.5 98.5q63 -49 134.5 -98.5t137.5 -88.5l-53 -76q-27 17 -57.5 38t-60 42.5t-56 42t-45.5 36.5q-19 -16 -45.5 -36.5t-55.5 -42t-59.5 -42.5t-57.5 -38zM175 0v1330h113v-1330h-113z" />
<glyph unicode="&#xcf;" horiz-adv-x="484" d="M-2 1646q0 38 25 63.5t62 25.5q32 0 55 -24t23 -56q0 -39 -25 -65t-62 -26q-32 0 -55 24.5t-23 57.5zM185 0v1330h113v-1330h-113zM318 1646q0 38 25 63.5t62 25.5q32 0 55.5 -24t23.5 -56q0 -39 -25.5 -65t-62.5 -26q-31 0 -54.5 24.5t-23.5 57.5z" />
<glyph unicode="&#xd0;" horiz-adv-x="1262" d="M21 620v90h164v620h337q156 0 275.5 -49.5t200 -138t121.5 -210t41 -264.5q0 -151 -47 -274.5t-131.5 -211t-203 -135t-262.5 -47.5h-331v620h-164zM297 89h218q112 0 208 38.5t166 111.5t109.5 177t39.5 235q0 134 -33.5 243t-99 186t-163 119t-226.5 42h-219v-531h385 v-90h-385v-531z" />
<glyph unicode="&#xd1;" horiz-adv-x="1341" d="M185 0v1330h149l710 -1190v1190h112v-1330h-149l-710 1189v-1189h-112zM389 1627q30 47 76.5 75.5t104.5 28.5q31 0 58.5 -10.5t53.5 -22.5t51 -22.5t51 -10.5q19 0 35.5 6t30 15.5t24.5 20.5t19 21l60 -54q-32 -48 -77 -76t-102 -28q-31 0 -58 10.5t-52.5 22.5t-51 22.5 t-53.5 10.5q-19 0 -35.5 -6t-30.5 -15.5t-25 -20.5t-19 -20z" />
<glyph unicode="&#xd2;" horiz-adv-x="1402" d="M105 662q0 155 43.5 282t122.5 217t190 139.5t246 49.5q132 0 240.5 -49.5t186 -139t120 -215t42.5 -278.5q0 -155 -43 -282t-122 -217t-190 -139.5t-247 -49.5q-132 0 -240.5 49.5t-186 139.5t-120 215.5t-42.5 277.5zM227 679q0 -138 34 -249t96.5 -189.5t151.5 -121 t198 -42.5q104 0 190 41t147.5 116t96 181t34.5 236q0 138 -34 249t-96.5 189.5t-151.5 121t-199 42.5q-103 0 -189 -41t-147.5 -116t-96 -181t-34.5 -236zM464 1674l45 102l390 -187l-29 -64z" />
<glyph unicode="&#xd3;" horiz-adv-x="1402" d="M105 662q0 155 43.5 282t122.5 217t190 139.5t246 49.5q132 0 240.5 -49.5t186 -139t120 -215t42.5 -278.5q0 -155 -43 -282t-122 -217t-190 -139.5t-247 -49.5q-132 0 -240.5 49.5t-186 139.5t-120 215.5t-42.5 277.5zM227 679q0 -138 34 -249t96.5 -189.5t151.5 -121 t198 -42.5q104 0 190 41t147.5 116t96 181t34.5 236q0 138 -34 249t-96.5 189.5t-151.5 121t-199 42.5q-103 0 -189 -41t-147.5 -116t-96 -181t-34.5 -236zM479 1585l414 197l46 -102l-431 -160z" />
<glyph unicode="&#xd4;" horiz-adv-x="1402" d="M105 662q0 155 43.5 282t122.5 217t190 139.5t246 49.5q132 0 240.5 -49.5t186 -139t120 -215t42.5 -278.5q0 -155 -43 -282t-122 -217t-190 -139.5t-247 -49.5q-132 0 -240.5 49.5t-186 139.5t-120 215.5t-42.5 277.5zM227 679q0 -138 34 -249t96.5 -189.5t151.5 -121 t198 -42.5q104 0 190 41t147.5 116t96 181t34.5 236q0 138 -34 249t-96.5 189.5t-151.5 121t-199 42.5q-103 0 -189 -41t-147.5 -116t-96 -181t-34.5 -236zM430 1576q66 39 137.5 88.5t134.5 98.5q63 -49 134.5 -98.5t137.5 -88.5l-53 -76q-27 17 -57.5 38t-60 42.5t-56 42 t-45.5 36.5q-19 -16 -45 -36.5t-55.5 -42t-60 -42.5t-57.5 -38z" />
<glyph unicode="&#xd5;" horiz-adv-x="1402" d="M105 662q0 155 43.5 282t122.5 217t190 139.5t246 49.5q132 0 240.5 -49.5t186 -139t120 -215t42.5 -278.5q0 -155 -43 -282t-122 -217t-190 -139.5t-247 -49.5q-132 0 -240.5 49.5t-186 139.5t-120 215.5t-42.5 277.5zM227 679q0 -138 34 -249t96.5 -189.5t151.5 -121 t198 -42.5q104 0 190 41t147.5 116t96 181t34.5 236q0 138 -34 249t-96.5 189.5t-151.5 121t-199 42.5q-103 0 -189 -41t-147.5 -116t-96 -181t-34.5 -236zM420 1627q30 47 76.5 75.5t104.5 28.5q31 0 58.5 -10.5t53 -22.5t51 -22.5t51.5 -10.5q19 0 35.5 6t30 15.5 t24.5 20.5t19 21l60 -54q-32 -48 -77.5 -76t-102.5 -28q-31 0 -57.5 10.5t-52 22.5t-51 22.5t-53.5 10.5q-19 0 -35.5 -6t-30.5 -15.5t-25 -20.5t-19 -20z" />
<glyph unicode="&#xd6;" horiz-adv-x="1402" d="M105 662q0 155 43.5 282t122.5 217t190 139.5t246 49.5q132 0 240.5 -49.5t186 -139t120 -215t42.5 -278.5q0 -155 -43 -282t-122 -217t-190 -139.5t-247 -49.5q-132 0 -240.5 49.5t-186 139.5t-120 215.5t-42.5 277.5zM227 679q0 -138 34 -249t96.5 -189.5t151.5 -121 t198 -42.5q104 0 190 41t147.5 116t96 181t34.5 236q0 138 -34 249t-96.5 189.5t-151.5 121t-199 42.5q-103 0 -189 -41t-147.5 -116t-96 -181t-34.5 -236zM442 1646q0 38 25 63.5t62 25.5q32 0 55 -24t23 -56q0 -39 -25 -65t-62 -26q-32 0 -55 24.5t-23 57.5zM798 1646 q0 38 25 63.5t63 25.5q31 0 54.5 -24t23.5 -56q0 -39 -25.5 -65t-61.5 -26q-32 0 -55.5 24.5t-23.5 57.5z" />
<glyph unicode="&#xd7;" horiz-adv-x="1184" d="M200 338l328 328l-327 325l65 64l325 -326l327 326l65 -63l-328 -327l328 -327l-64 -64l-327 327l-327 -327z" />
<glyph unicode="&#xd8;" horiz-adv-x="1402" d="M105 663q0 155 43.5 282t122.5 217t190 139.5t246 49.5q95 0 178 -26.5t152 -76.5l158 235l80 -50l-166 -245q89 -91 138 -222.5t49 -296.5q0 -155 -43 -282t-122 -217t-190 -139.5t-247 -49.5q-95 0 -177.5 25.5t-151.5 75.5l-158 -235l-80 50l166 245 q-90 91 -139 223.5t-49 297.5zM227 679q0 -139 34 -249.5t97 -189.5l619 918q-57 46 -128 71t-155 25q-103 0 -189 -41t-147.5 -116.5t-96 -181.5t-34.5 -236zM426 172q57 -46 127.5 -70.5t153.5 -24.5q104 0 190 41t147.5 116t96 181.5t34.5 236.5q0 138 -34 248.5 t-97 189.5z" />
<glyph unicode="&#xd9;" horiz-adv-x="1251" d="M147 506v824h114v-809q0 -216 97 -329.5t272 -113.5q83 0 149 28t112.5 82t71 132t24.5 178v832h114v-817q0 -125 -33 -224t-95.5 -167.5t-152.5 -105t-203 -36.5q-109 0 -196.5 35.5t-148 103t-93 165.5t-32.5 222zM370 1674l45 102l390 -187l-29 -64z" />
<glyph unicode="&#xda;" horiz-adv-x="1251" d="M147 506v824h114v-809q0 -216 97 -329.5t272 -113.5q83 0 149 28t112.5 82t71 132t24.5 178v832h114v-817q0 -125 -33 -224t-95.5 -167.5t-152.5 -105t-203 -36.5q-109 0 -196.5 35.5t-148 103t-93 165.5t-32.5 222zM423 1585l415 197l45 -102l-431 -160z" />
<glyph unicode="&#xdb;" horiz-adv-x="1251" d="M147 506v824h114v-809q0 -216 97 -329.5t272 -113.5q83 0 149 28t112.5 82t71 132t24.5 178v832h114v-817q0 -125 -33 -224t-95.5 -167.5t-152.5 -105t-203 -36.5q-109 0 -196.5 35.5t-148 103t-93 165.5t-32.5 222zM353 1576q66 39 137.5 88.5t134.5 98.5 q63 -49 134.5 -98.5t137.5 -88.5l-54 -76q-27 17 -57.5 38t-60 42.5t-55.5 42t-45 36.5q-19 -16 -45.5 -36.5t-56 -42t-60 -42.5t-57.5 -38z" />
<glyph unicode="&#xdc;" horiz-adv-x="1251" d="M147 506v824h114v-809q0 -216 97 -329.5t272 -113.5q83 0 149 28t112.5 82t71 132t24.5 178v832h114v-817q0 -125 -33 -224t-95.5 -167.5t-152.5 -105t-203 -36.5q-109 0 -196.5 35.5t-148 103t-93 165.5t-32.5 222zM363 1646q0 38 25 63.5t62 25.5q32 0 55 -24t23 -56 q0 -39 -25 -65t-62 -26q-32 0 -55 24.5t-23 57.5zM719 1646q0 38 25 63.5t63 25.5q31 0 54.5 -24t23.5 -56q0 -39 -25.5 -65t-61.5 -26q-32 0 -55.5 24.5t-23.5 57.5z" />
<glyph unicode="&#xdd;" horiz-adv-x="1099" d="M40 1330h120l391 -714l389 714h118l-452 -813v-517h-113v517zM343 1585l414 197l46 -102l-431 -160z" />
<glyph unicode="&#xde;" horiz-adv-x="1054" d="M183 0v1330h112v-286h258q102 0 182.5 -26.5t137 -75t86.5 -117.5t30 -153q0 -88 -30.5 -157.5t-87.5 -117.5t-140 -73.5t-188 -25.5h-248v-298h-112zM295 387h258q74 0 133.5 18t100.5 52.5t63 84.5t22 113q0 70 -22 125.5t-64 94.5t-103 59.5t-140 20.5h-248v-568z" />
<glyph unicode="&#xdf;" horiz-adv-x="1114" d="M175 0v1064q0 93 28.5 169.5t82 131t130.5 85t174 30.5q88 0 154.5 -27t111 -69.5t67 -94t22.5 -100.5q0 -43 -9 -79t-29 -68t-52.5 -63.5t-79.5 -66.5q-37 -28 -67 -52t-52 -46.5t-34 -45t-12 -46.5q0 -27 11 -49t32.5 -42.5t52.5 -41t70 -44.5q52 -33 98.5 -65.5 t82 -69.5t56.5 -79t21 -95q0 -64 -23.5 -112.5t-66 -80t-103 -47.5t-135.5 -16q-41 0 -79 5t-70 13t-57 17.5t-41 18.5l31 88q35 -14 91.5 -29.5t136.5 -15.5q70 0 118.5 20.5t67.5 65.5q19 39 12 90q-4 32 -20 58.5t-43 51t-63 48t-80 50.5q-45 28 -83 54t-66 55 t-43.5 63.5t-15.5 79.5q0 38 13 69t37 60t58.5 57.5t77.5 62.5q36 29 63 54.5t44.5 51t26.5 53t9 59.5q0 33 -15.5 69.5t-47 66.5t-79.5 49.5t-114 19.5q-69 0 -122.5 -23.5t-90 -65.5t-56 -100.5t-19.5 -129.5v-1066h-112z" />
<glyph unicode="&#xe0;" horiz-adv-x="1000" d="M95 248q0 68 26.5 120.5t73.5 90t111 60t138 30.5q62 7 124.5 6t125.5 -9v127q0 64 -13.5 115t-43 86t-77 54t-115.5 19q-42 0 -81.5 -7t-74 -17t-62.5 -22t-46 -23l-36 77q18 12 49.5 27t72 29t89 23.5t100.5 9.5q86 0 151.5 -25t109.5 -71t66.5 -111.5t22.5 -146.5 v-523q0 -55 20.5 -79t55.5 -24q20 0 34 4.5t21 7.5l14 -75q-11 -6 -36 -13.5t-54 -7.5q-69 0 -109 43.5t-44 121.5q-65 -79 -149 -122t-172 -43q-61 0 -114.5 19.5t-93 55t-62 85t-22.5 108.5zM212 262q0 -84 52.5 -135.5t150.5 -51.5q39 0 77.5 11.5t74.5 31.5t68 48t59 62 v240q-54 7 -112.5 8t-118.5 -6q-55 -6 -101 -21.5t-79.5 -41t-52 -61.5t-18.5 -84zM228 1374l45 102l390 -187l-29 -64z" />
<glyph unicode="&#xe1;" horiz-adv-x="1000" d="M95 248q0 68 26.5 120.5t73.5 90t111 60t138 30.5q62 7 124.5 6t125.5 -9v127q0 64 -13.5 115t-43 86t-77 54t-115.5 19q-42 0 -81.5 -7t-74 -17t-62.5 -22t-46 -23l-36 77q18 12 49.5 27t72 29t89 23.5t100.5 9.5q86 0 151.5 -25t109.5 -71t66.5 -111.5t22.5 -146.5 v-523q0 -55 20.5 -79t55.5 -24q20 0 34 4.5t21 7.5l14 -75q-11 -6 -36 -13.5t-54 -7.5q-69 0 -109 43.5t-44 121.5q-65 -79 -149 -122t-172 -43q-61 0 -114.5 19.5t-93 55t-62 85t-22.5 108.5zM212 262q0 -84 52.5 -135.5t150.5 -51.5q39 0 77.5 11.5t74.5 31.5t68 48t59 62 v240q-54 7 -112.5 8t-118.5 -6q-55 -6 -101 -21.5t-79.5 -41t-52 -61.5t-18.5 -84zM246 1285l414 197l46 -102l-431 -160z" />
<glyph unicode="&#xe2;" horiz-adv-x="1000" d="M95 248q0 68 26.5 120.5t73.5 90t111 60t138 30.5q62 7 124.5 6t125.5 -9v127q0 64 -13.5 115t-43 86t-77 54t-115.5 19q-42 0 -81.5 -7t-74 -17t-62.5 -22t-46 -23l-36 77q18 12 49.5 27t72 29t89 23.5t100.5 9.5q86 0 151.5 -25t109.5 -71t66.5 -111.5t22.5 -146.5 v-523q0 -55 20.5 -79t55.5 -24q20 0 34 4.5t21 7.5l14 -75q-11 -6 -36 -13.5t-54 -7.5q-69 0 -109 43.5t-44 121.5q-65 -79 -149 -122t-172 -43q-61 0 -114.5 19.5t-93 55t-62 85t-22.5 108.5zM183 1276q66 39 137.5 88.5t134.5 98.5q63 -49 134.5 -98.5t137.5 -88.5 l-54 -76q-27 17 -57.5 38t-60 42.5t-55.5 42t-45 36.5q-19 -16 -45.5 -36.5t-56 -42t-60 -42.5t-57.5 -38zM212 262q0 -84 52.5 -135.5t150.5 -51.5q39 0 77.5 11.5t74.5 31.5t68 48t59 62v240q-54 7 -112.5 8t-118.5 -6q-55 -6 -101 -21.5t-79.5 -41t-52 -61.5t-18.5 -84z " />
<glyph unicode="&#xe3;" horiz-adv-x="1000" d="M95 248q0 68 26.5 120.5t73.5 90t111 60t138 30.5q62 7 124.5 6t125.5 -9v127q0 64 -13.5 115t-43 86t-77 54t-115.5 19q-42 0 -81.5 -7t-74 -17t-62.5 -22t-46 -23l-36 77q18 12 49.5 27t72 29t89 23.5t100.5 9.5q86 0 151.5 -25t109.5 -71t66.5 -111.5t22.5 -146.5 v-523q0 -55 20.5 -79t55.5 -24q20 0 34 4.5t21 7.5l14 -75q-11 -6 -36 -13.5t-54 -7.5q-69 0 -109 43.5t-44 121.5q-65 -79 -149 -122t-172 -43q-61 0 -114.5 19.5t-93 55t-62 85t-22.5 108.5zM181 1327q30 47 76.5 75.5t104.5 28.5q31 0 58.5 -10.5t53 -22.5t51 -22.5 t51.5 -10.5q19 0 35.5 6t30 15.5t24 20.5t19.5 21l60 -54q-32 -48 -77.5 -76t-102.5 -28q-31 0 -57.5 10.5t-52 22.5t-51 22.5t-53.5 10.5q-19 0 -35.5 -6t-30.5 -15.5t-25 -20.5t-19 -20zM212 262q0 -84 52.5 -135.5t150.5 -51.5q39 0 77.5 11.5t74.5 31.5t68 48t59 62v240 q-54 7 -112.5 8t-118.5 -6q-55 -6 -101 -21.5t-79.5 -41t-52 -61.5t-18.5 -84z" />
<glyph unicode="&#xe4;" horiz-adv-x="1000" d="M95 248q0 68 26.5 120.5t73.5 90t111 60t138 30.5q62 7 124.5 6t125.5 -9v127q0 64 -13.5 115t-43 86t-77 54t-115.5 19q-42 0 -81.5 -7t-74 -17t-62.5 -22t-46 -23l-36 77q18 12 49.5 27t72 29t89 23.5t100.5 9.5q86 0 151.5 -25t109.5 -71t66.5 -111.5t22.5 -146.5 v-523q0 -55 20.5 -79t55.5 -24q20 0 34 4.5t21 7.5l14 -75q-11 -6 -36 -13.5t-54 -7.5q-69 0 -109 43.5t-44 121.5q-65 -79 -149 -122t-172 -43q-61 0 -114.5 19.5t-93 55t-62 85t-22.5 108.5zM196 1346q0 38 25 63.5t62 25.5q31 0 54.5 -24t23.5 -56q0 -39 -25 -65t-62 -26 q-32 0 -55 24.5t-23 57.5zM212 262q0 -84 52.5 -135.5t150.5 -51.5q39 0 77.5 11.5t74.5 31.5t68 48t59 62v240q-54 7 -112.5 8t-118.5 -6q-55 -6 -101 -21.5t-79.5 -41t-52 -61.5t-18.5 -84zM552 1346q0 38 25 63.5t62 25.5q32 0 55.5 -24t23.5 -56q0 -39 -25.5 -65 t-62.5 -26q-31 0 -54.5 24.5t-23.5 57.5z" />
<glyph unicode="&#xe5;" horiz-adv-x="1000" d="M95 248q0 68 26.5 120.5t73.5 90t111 60t138 30.5q62 7 124.5 6t125.5 -9v127q0 64 -13.5 115t-43 86t-77 54t-115.5 19q-42 0 -81.5 -7t-74 -17t-62.5 -22t-46 -23l-36 77q18 12 49.5 27t72 29t89 23.5t100.5 9.5q86 0 151.5 -25t109.5 -71t66.5 -111.5t22.5 -146.5 v-523q0 -55 20.5 -79t55.5 -24q20 0 34 4.5t21 7.5l14 -75q-11 -6 -36 -13.5t-54 -7.5q-69 0 -109 43.5t-44 121.5q-65 -79 -149 -122t-172 -43q-61 0 -114.5 19.5t-93 55t-62 85t-22.5 108.5zM212 262q0 -84 52.5 -135.5t150.5 -51.5q39 0 77.5 11.5t74.5 31.5t68 48t59 62 v240q-54 7 -112.5 8t-118.5 -6q-55 -6 -101 -21.5t-79.5 -41t-52 -61.5t-18.5 -84zM257 1345q0 42 15.5 79t43 64.5t64.5 43.5t80 16q39 0 74 -15.5t61.5 -41.5t42.5 -61t16 -74q0 -43 -15.5 -80.5t-43 -65t-64.5 -43.5t-81 -16q-38 0 -73 15.5t-61.5 42t-42.5 61.5t-16 75z M342 1348q0 -24 9 -44.5t24 -36.5t34.5 -25t41.5 -9q54 0 86 34.5t32 84.5q0 24 -9 45t-24 37t-35 25t-43 9q-25 0 -46.5 -9.5t-37 -26t-24 -38t-8.5 -46.5z" />
<glyph unicode="&#xe6;" horiz-adv-x="1622" d="M102 252q0 65 29.5 118.5t85 92.5t134.5 61.5t178 26.5l180 7v115q0 131 -61 202.5t-199 71.5q-63 0 -133.5 -16.5t-130.5 -41.5l-28 81q66 32 149 53t163 21q62 0 115 -15t95 -45.5t70.5 -76t41.5 -105.5q56 122 153.5 182t218.5 60q84 0 150 -25t111.5 -72.5t69 -116.5 t23.5 -158q0 -25 -3 -50.5t-8 -49t-10.5 -43.5t-10.5 -34l-663 -15q2 -95 28 -170t73.5 -126.5t116 -79t155.5 -27.5q32 0 65.5 3t65 8.5t60.5 13t52 16.5l30 -82q-27 -13 -61.5 -23t-73 -17.5t-78 -11.5t-76.5 -4q-128 0 -226.5 55t-161.5 155q-59 -65 -111.5 -106 t-100.5 -64t-93 -31.5t-90 -8.5q-62 0 -116 20t-93.5 56t-62 86t-22.5 110zM219 265q0 -85 51.5 -136.5t150.5 -51.5q83 0 166 49.5t162 144.5q-35 93 -40 208l-186 -10q-69 -3 -125 -18.5t-96 -42t-61.5 -62.5t-21.5 -81zM824 563l571 15q7 21 8 45.5t1 54.5 q0 135 -66.5 203.5t-186.5 68.5q-72 0 -130 -29t-100.5 -80.5t-67 -122.5t-29.5 -155z" />
<glyph unicode="&#xe7;" horiz-adv-x="926" d="M105 503q0 122 36.5 221.5t103 170.5t159.5 110t205 39q71 0 131 -16.5t95 -35.5l-35 -81q-35 13 -83.5 24.5t-111.5 11.5q-86 0 -156.5 -30t-120.5 -85.5t-77 -134.5t-27 -177q0 -103 25.5 -185t75 -139.5t122 -88t165.5 -30.5q54 0 110 10.5t103 30.5l30 -82 q-51 -25 -121 -40.5t-137 -15.5q-110 0 -200.5 38t-155.5 106.5t-100.5 165t-35.5 213.5zM410 -413l12 71q8 -2 23.5 -3.5t34.5 -2.5h20t17 2q36 5 50.5 25.5t14.5 46.5q0 34 -21 56.5t-67 22.5h-53l7 70h64q75 0 119.5 -36t44.5 -104q0 -70 -48 -114t-147 -44 q-20 0 -39.5 2.5t-31.5 7.5z" />
<glyph unicode="&#xe8;" horiz-adv-x="1029" d="M105 503q0 122 33 222t93.5 171t146.5 109.5t191 38.5q85 0 151 -25t111.5 -72.5t69.5 -116.5t24 -157q0 -26 -3.5 -52t-8 -49.5t-10 -43.5t-9.5 -33h-670q2 -97 27 -174.5t72.5 -131.5t118 -83t161.5 -29q30 0 62.5 3t65 8.5t62 13t53.5 16.5l30 -83q-26 -11 -60.5 -21 t-73 -17.5t-78 -12t-75.5 -4.5q-109 0 -198.5 38t-153 107t-98 165t-34.5 213zM225 577h577q6 20 8.5 45.5t2.5 58.5q0 135 -69 202t-190 67q-74 0 -133 -27.5t-101 -77t-66.5 -118t-28.5 -150.5zM333 1374l46 102l389 -187l-29 -64z" />
<glyph unicode="&#xe9;" horiz-adv-x="1029" d="M105 503q0 122 33 222t93.5 171t146.5 109.5t191 38.5q85 0 151 -25t111.5 -72.5t69.5 -116.5t24 -157q0 -26 -3.5 -52t-8 -49.5t-10 -43.5t-9.5 -33h-670q2 -97 27 -174.5t72.5 -131.5t118 -83t161.5 -29q30 0 62.5 3t65 8.5t62 13t53.5 16.5l30 -83q-26 -11 -60.5 -21 t-73 -17.5t-78 -12t-75.5 -4.5q-109 0 -198.5 38t-153 107t-98 165t-34.5 213zM225 577h577q6 20 8.5 45.5t2.5 58.5q0 135 -69 202t-190 67q-74 0 -133 -27.5t-101 -77t-66.5 -118t-28.5 -150.5zM322 1285l415 197l45 -102l-431 -160z" />
<glyph unicode="&#xea;" horiz-adv-x="1029" d="M105 503q0 122 33 222t93.5 171t146.5 109.5t191 38.5q85 0 151 -25t111.5 -72.5t69.5 -116.5t24 -157q0 -26 -3.5 -52t-8 -49.5t-10 -43.5t-9.5 -33h-670q2 -97 27 -174.5t72.5 -131.5t118 -83t161.5 -29q30 0 62.5 3t65 8.5t62 13t53.5 16.5l30 -83q-26 -11 -60.5 -21 t-73 -17.5t-78 -12t-75.5 -4.5q-109 0 -198.5 38t-153 107t-98 165t-34.5 213zM225 577h577q6 20 8.5 45.5t2.5 58.5q0 135 -69 202t-190 67q-74 0 -133 -27.5t-101 -77t-66.5 -118t-28.5 -150.5zM274 1276q66 39 137.5 88.5t134.5 98.5q63 -49 134.5 -98.5t137.5 -88.5 l-53 -76q-27 17 -57.5 38t-60 42.5t-56 42t-45.5 36.5q-19 -16 -45 -36.5t-55.5 -42t-60 -42.5t-57.5 -38z" />
<glyph unicode="&#xeb;" horiz-adv-x="1029" d="M105 503q0 122 33 222t93.5 171t146.5 109.5t191 38.5q85 0 151 -25t111.5 -72.5t69.5 -116.5t24 -157q0 -26 -3.5 -52t-8 -49.5t-10 -43.5t-9.5 -33h-670q2 -97 27 -174.5t72.5 -131.5t118 -83t161.5 -29q30 0 62.5 3t65 8.5t62 13t53.5 16.5l30 -83q-26 -11 -60.5 -21 t-73 -17.5t-78 -12t-75.5 -4.5q-109 0 -198.5 38t-153 107t-98 165t-34.5 213zM225 577h577q6 20 8.5 45.5t2.5 58.5q0 135 -69 202t-190 67q-74 0 -133 -27.5t-101 -77t-66.5 -118t-28.5 -150.5zM286 1346q0 38 25 63.5t62 25.5q32 0 55 -24t23 -56q0 -39 -25 -65t-62 -26 q-32 0 -55 24.5t-23 57.5zM642 1346q0 38 25.5 63.5t62.5 25.5q31 0 54.5 -24t23.5 -56q0 -39 -25 -65t-62 -26q-32 0 -55.5 24.5t-23.5 57.5z" />
<glyph unicode="&#xec;" horiz-adv-x="482" d="M-7 1374l45 102l390 -187l-29 -64zM185 0v1024h112v-1024h-112z" />
<glyph unicode="&#xed;" horiz-adv-x="482" d="M68 1285l414 197l45 -102l-430 -160zM185 0v1024h112v-1024h-112z" />
<glyph unicode="&#xee;" horiz-adv-x="482" d="M-31 1276q66 39 137.5 88.5t134.5 98.5q63 -49 134.5 -98.5t137.5 -88.5l-54 -76q-27 17 -57.5 38t-59.5 42.5t-55.5 42t-45.5 36.5q-19 -16 -45.5 -36.5t-56 -42t-60 -42.5t-57.5 -38zM185 0v1024h112v-1024h-112z" />
<glyph unicode="&#xef;" horiz-adv-x="482" d="M-7 1346q0 38 25 63.5t62 25.5q31 0 54.5 -24t23.5 -56q0 -39 -25 -65t-62 -26q-32 0 -55 24.5t-23 57.5zM185 0v1024h112v-1024h-112zM324 1346q0 38 25 63.5t62 25.5q32 0 55.5 -24t23.5 -56q0 -39 -25.5 -65t-62.5 -26q-32 0 -55 24.5t-23 57.5z" />
<glyph unicode="&#xf0;" horiz-adv-x="1143" d="M105 503q0 122 33.5 222t94.5 171t147 109.5t191 38.5q106 0 188 -47t136 -126q-27 171 -86 283.5t-143 169.5l-110 -139l-71 54l100 127q-57 21 -119 21t-109 -11.5t-73 -21.5l-30 80q27 14 85 30t133 16q48 0 91.5 -8.5t83.5 -25.5l113 144l73 -54l-105 -132 q72 -49 128 -127t94.5 -182t58 -232.5t19.5 -277.5q0 -140 -32 -252t-93 -190.5t-148 -120.5t-197 -42q-102 0 -185.5 38t-143 107t-92 165t-32.5 213zM224 521q0 -104 24 -187t68.5 -140.5t109 -88.5t145.5 -31q75 0 137 31.5t107 94t69.5 156t24.5 217.5q1 0 1.5 0.5 t1.5 0.5q-6 86 -33 155.5t-73 118.5t-108.5 75.5t-139.5 26.5q-76 0 -138 -30.5t-105.5 -86.5t-67 -135t-23.5 -177z" />
<glyph unicode="&#xf1;" horiz-adv-x="1144" d="M185 0v1024h84l17 -146q37 32 80.5 62t91.5 53t99.5 37t103.5 14q80 0 138.5 -25.5t97.5 -73t58 -116t19 -155.5v-674h-112v656q0 143 -56 214.5t-176 71.5q-42 0 -87 -13t-88.5 -34t-84 -48t-73.5 -56v-791h-112zM289 1327q30 47 76.5 75.5t104.5 28.5q31 0 58.5 -10.5 t53 -22.5t51 -22.5t51.5 -10.5q19 0 35.5 6t30 15.5t24 20.5t19.5 21l60 -54q-32 -48 -77.5 -76t-102.5 -28q-31 0 -57.5 10.5t-52 22.5t-51 22.5t-53.5 10.5q-19 0 -35.5 -6t-30.5 -15.5t-25 -20.5t-19 -20z" />
<glyph unicode="&#xf2;" horiz-adv-x="1136" d="M105 503q0 122 34 222t95.5 171t148 109.5t191.5 38.5q102 0 186 -38t144 -106.5t93 -165t33 -213.5q0 -122 -33.5 -221.5t-95 -170.5t-148 -110t-192.5 -39q-102 0 -186 38t-144 107t-93 165t-33 213zM224 521q0 -104 24.5 -187t69.5 -140.5t110 -88.5t146 -31 q77 0 139.5 30t106.5 86t68 135.5t24 177.5q0 104 -24.5 187t-70 140.5t-110.5 88.5t-146 31q-76 0 -138.5 -30.5t-106.5 -86.5t-68 -135t-24 -177zM349 1374l45 102l390 -187l-29 -64z" />
<glyph unicode="&#xf3;" horiz-adv-x="1136" d="M105 503q0 122 34 222t95.5 171t148 109.5t191.5 38.5q102 0 186 -38t144 -106.5t93 -165t33 -213.5q0 -122 -33.5 -221.5t-95 -170.5t-148 -110t-192.5 -39q-102 0 -186 38t-144 107t-93 165t-33 213zM224 521q0 -104 24.5 -187t69.5 -140.5t110 -88.5t146 -31 q77 0 139.5 30t106.5 86t68 135.5t24 177.5q0 104 -24.5 187t-70 140.5t-110.5 88.5t-146 31q-76 0 -138.5 -30.5t-106.5 -86.5t-68 -135t-24 -177zM336 1285l414 197l46 -102l-431 -160z" />
<glyph unicode="&#xf4;" horiz-adv-x="1136" d="M105 503q0 122 34 222t95.5 171t148 109.5t191.5 38.5q102 0 186 -38t144 -106.5t93 -165t33 -213.5q0 -122 -33.5 -221.5t-95 -170.5t-148 -110t-192.5 -39q-102 0 -186 38t-144 107t-93 165t-33 213zM224 521q0 -104 24.5 -187t69.5 -140.5t110 -88.5t146 -31 q77 0 139.5 30t106.5 86t68 135.5t24 177.5q0 104 -24.5 187t-70 140.5t-110.5 88.5t-146 31q-76 0 -138.5 -30.5t-106.5 -86.5t-68 -135t-24 -177zM295 1276q66 39 137.5 88.5t134.5 98.5q63 -49 134.5 -98.5t137.5 -88.5l-53 -76q-27 17 -57.5 38t-60 42.5t-56 42 t-45.5 36.5q-19 -16 -45 -36.5t-55.5 -42t-60 -42.5t-57.5 -38z" />
<glyph unicode="&#xf5;" horiz-adv-x="1136" d="M105 503q0 122 34 222t95.5 171t148 109.5t191.5 38.5q102 0 186 -38t144 -106.5t93 -165t33 -213.5q0 -122 -33.5 -221.5t-95 -170.5t-148 -110t-192.5 -39q-102 0 -186 38t-144 107t-93 165t-33 213zM224 521q0 -104 24.5 -187t69.5 -140.5t110 -88.5t146 -31 q77 0 139.5 30t106.5 86t68 135.5t24 177.5q0 104 -24.5 187t-70 140.5t-110.5 88.5t-146 31q-76 0 -138.5 -30.5t-106.5 -86.5t-68 -135t-24 -177zM287 1327q30 47 76.5 75.5t104.5 28.5q31 0 58.5 -10.5t53 -22.5t51 -22.5t51.5 -10.5q19 0 35.5 6t30 15.5t24.5 20.5 t19 21l60 -54q-32 -48 -77.5 -76t-102.5 -28q-31 0 -57.5 10.5t-52 22.5t-51 22.5t-53.5 10.5q-19 0 -35.5 -6t-30.5 -15.5t-25 -20.5t-19 -20z" />
<glyph unicode="&#xf6;" horiz-adv-x="1136" d="M105 503q0 122 34 222t95.5 171t148 109.5t191.5 38.5q102 0 186 -38t144 -106.5t93 -165t33 -213.5q0 -122 -33.5 -221.5t-95 -170.5t-148 -110t-192.5 -39q-102 0 -186 38t-144 107t-93 165t-33 213zM224 521q0 -104 24.5 -187t69.5 -140.5t110 -88.5t146 -31 q77 0 139.5 30t106.5 86t68 135.5t24 177.5q0 104 -24.5 187t-70 140.5t-110.5 88.5t-146 31q-76 0 -138.5 -30.5t-106.5 -86.5t-68 -135t-24 -177zM307 1346q0 38 25 63.5t62 25.5q31 0 54.5 -24t23.5 -56q0 -39 -25 -65t-62 -26q-32 0 -55 24.5t-23 57.5zM663 1346 q0 38 25 63.5t62 25.5q32 0 55.5 -24t23.5 -56q0 -39 -25.5 -65t-62.5 -26q-31 0 -54.5 24.5t-23.5 57.5z" />
<glyph unicode="&#xf7;" horiz-adv-x="1122" d="M200 620v90h721v-90h-721zM478 341q0 38 25 63.5t62 25.5q32 0 55.5 -23.5t23.5 -56.5q0 -39 -25.5 -65t-62.5 -26q-31 0 -54.5 24.5t-23.5 57.5zM478 979q0 38 25 63.5t62 25.5q32 0 55.5 -23.5t23.5 -56.5q0 -38 -25.5 -64t-62.5 -26q-31 0 -54.5 24.5t-23.5 56.5z" />
<glyph unicode="&#xf8;" horiz-adv-x="1136" d="M93 -111l150 223q-66 69 -102 168.5t-36 222.5q0 122 34 222t95.5 171t148 109.5t191.5 38.5q72 0 134 -19t114 -55l145 215l76 -47l-152 -225q66 -69 102.5 -169t36.5 -223q0 -122 -33.5 -221.5t-95 -170.5t-148 -110t-192.5 -39q-72 0 -134.5 19t-113.5 55l-144 -212z M224 521q0 -99 21.5 -177.5t62.5 -135.5l456 676q-84 66 -203 66q-76 0 -138.5 -30.5t-106.5 -86.5t-68 -135t-24 -177zM370 141q84 -67 204 -67q77 0 139.5 30t106.5 86t68 135.5t24 177.5q0 99 -22 177.5t-63 136.5z" />
<glyph unicode="&#xf9;" horiz-adv-x="1125" d="M165 350v674h111v-656q0 -143 55 -213.5t170 -70.5q42 0 86 12.5t87 33t82.5 47.5t72.5 56v791h111v-1024h-84l-16 146q-37 -32 -80 -62t-90 -53t-97.5 -37t-101.5 -14q-78 0 -135.5 25.5t-95.5 73t-56.5 116t-18.5 155.5zM322 1374l46 102l389 -187l-28 -64z" />
<glyph unicode="&#xfa;" horiz-adv-x="1125" d="M165 350v674h111v-656q0 -143 55 -213.5t170 -70.5q42 0 86 12.5t87 33t82.5 47.5t72.5 56v791h111v-1024h-84l-16 146q-37 -32 -80 -62t-90 -53t-97.5 -37t-101.5 -14q-78 0 -135.5 25.5t-95.5 73t-56.5 116t-18.5 155.5zM343 1285l414 197l45 -102l-430 -160z" />
<glyph unicode="&#xfb;" horiz-adv-x="1125" d="M165 350v674h111v-656q0 -143 55 -213.5t170 -70.5q42 0 86 12.5t87 33t82.5 47.5t72.5 56v791h111v-1024h-84l-16 146q-37 -32 -80 -62t-90 -53t-97.5 -37t-101.5 -14q-78 0 -135.5 25.5t-95.5 73t-56.5 116t-18.5 155.5zM276 1276q66 39 137.5 88.5t134.5 98.5 q63 -49 134.5 -98.5t137.5 -88.5l-53 -76q-27 17 -57.5 38t-60 42.5t-56 42t-45.5 36.5q-19 -16 -45 -36.5t-55.5 -42t-60 -42.5t-57.5 -38z" />
<glyph unicode="&#xfc;" horiz-adv-x="1125" d="M165 350v674h111v-656q0 -143 55 -213.5t170 -70.5q42 0 86 12.5t87 33t82.5 47.5t72.5 56v791h111v-1024h-84l-16 146q-37 -32 -80 -62t-90 -53t-97.5 -37t-101.5 -14q-78 0 -135.5 25.5t-95.5 73t-56.5 116t-18.5 155.5zM288 1346q0 38 25 63.5t62 25.5q32 0 55 -24 t23 -56q0 -39 -25 -65t-62 -26q-32 0 -55 24.5t-23 57.5zM644 1346q0 38 25.5 63.5t62.5 25.5q31 0 54.5 -24t23.5 -56q0 -39 -25 -65t-62 -26q-32 0 -55.5 24.5t-23.5 57.5z" />
<glyph unicode="&#xfd;" horiz-adv-x="1022" d="M31 1024h117l385 -920l332 920h117l-378 -1000q-47 -124 -90.5 -208.5t-93 -136t-108 -73.5t-135.5 -22q-48 0 -84.5 9.5t-57.5 18.5l30 88q17 -6 46.5 -13.5t65.5 -7.5q54 0 96.5 17.5t77.5 54.5t65.5 94.5t61.5 137.5zM290 1285l414 197l45 -102l-430 -160z" />
<glyph unicode="&#xfe;" horiz-adv-x="1157" d="M185 -396v1856l112 20v-517q69 41 142 61t142 20q102 0 188 -38t149 -106.5t98 -165t35 -213.5q0 -122 -37.5 -221.5t-103.5 -170.5t-155.5 -110t-194.5 -39q-57 0 -128.5 19.5t-134.5 54.5v-450h-112zM297 151q60 -35 129 -54.5t147 -19.5q80 0 146 30.5t113.5 86.5 t74 134.5t26.5 174.5q0 102 -26 184t-74 140t-117 89t-155 31q-66 0 -134.5 -19t-129.5 -56v-721z" />
<glyph unicode="&#xff;" horiz-adv-x="1022" d="M31 1024h117l385 -920l332 920h117l-378 -1000q-47 -124 -90.5 -208.5t-93 -136t-108 -73.5t-135.5 -22q-48 0 -84.5 9.5t-57.5 18.5l30 88q17 -6 46.5 -13.5t65.5 -7.5q54 0 96.5 17.5t77.5 54.5t65.5 94.5t61.5 137.5zM229 1346q0 38 25 63.5t62 25.5q32 0 55 -24 t23 -56q0 -39 -25 -65t-62 -26q-32 0 -55 24.5t-23 57.5zM603 1346q0 38 25 63.5t63 25.5q31 0 54.5 -24t23.5 -56q0 -39 -25.5 -65t-61.5 -26q-32 0 -55.5 24.5t-23.5 57.5z" />
<glyph unicode="&#x152;" horiz-adv-x="1934" d="M105 662q0 149 43 275t121.5 218t190 143.5t248.5 51.5q106 0 197 -39t164 -106v125h723v-91h-609v-524h588v-91h-588v-533h630v-91h-744v128q-74 -70 -168.5 -109t-206.5 -39q-131 0 -239.5 50.5t-186 140.5t-120.5 215.5t-43 275.5zM227 679q0 -139 35.5 -250.5 t99.5 -189.5t152.5 -120t193.5 -42q107 0 202 47t159 132v815q-61 85 -160 133.5t-215 48.5q-95 0 -180 -37.5t-148.5 -110.5t-101 -180t-37.5 -246z" />
<glyph unicode="&#x153;" horiz-adv-x="1672" d="M105 503q0 122 34 222t95.5 171t148 109.5t191.5 38.5q96 0 175.5 -34t139.5 -97q60 63 140.5 97t179.5 34q85 0 151.5 -25t112 -72.5t69.5 -116.5t24 -158q0 -25 -3 -50.5t-7.5 -49t-10 -43.5t-10.5 -34h-669q4 -165 75 -270.5t202 -133.5q61 -13 130 -12q27 1 56 4 t57.5 8.5t54.5 12t47 14.5l30 -82q-27 -13 -62 -23t-73.5 -17.5t-78.5 -11.5t-78 -4q-105 0 -190 35t-148 101q-61 -66 -143.5 -101t-183.5 -35q-102 0 -186 38t-144 107t-93 165t-33 213zM224 521q0 -104 24.5 -187t69.5 -140.5t110 -88.5t146 -31t145.5 30t109.5 87 q-39 63 -60 142t-21 170q0 97 20.5 179t58.5 148q-47 59 -114 89.5t-152 30.5q-76 0 -138.5 -30.5t-106.5 -86.5t-68 -135t-24 -177zM867 578h577q6 21 8 45.5t2 54.5q0 135 -68 203.5t-190 68.5q-73 0 -131.5 -27t-101 -76.5t-67 -117.5t-29.5 -151z" />
<glyph unicode="&#x178;" horiz-adv-x="1099" d="M40 1330h120l391 -714l389 714h118l-452 -813v-517h-113v517zM287 1646q0 38 25 63.5t63 25.5q31 0 54.5 -24t23.5 -56q0 -39 -25.5 -65t-61.5 -26q-32 0 -55.5 24.5t-23.5 57.5zM644 1646q0 38 25 63.5t62 25.5q32 0 55 -24t23 -56q0 -39 -25 -65t-62 -26 q-32 0 -55 24.5t-23 57.5z" />
<glyph unicode="&#x2c6;" horiz-adv-x="783" d="M118 1276q66 39 137.5 88.5t134.5 98.5q63 -49 134.5 -98.5t137.5 -88.5l-53 -76q-27 17 -57.5 38t-60 42.5t-56 42t-45.5 36.5q-19 -16 -45 -36.5t-55.5 -42t-60 -42.5t-57.5 -38z" />
<glyph unicode="&#x2dc;" horiz-adv-x="806" d="M121 1327q30 47 76.5 75.5t104.5 28.5q31 0 58.5 -10.5t53 -22.5t51 -22.5t51.5 -10.5q19 0 35.5 6t30 15.5t24.5 20.5t19 21l60 -54q-32 -48 -77.5 -76t-102.5 -28q-31 0 -57.5 10.5t-52 22.5t-51 22.5t-53.5 10.5q-19 0 -35.5 -6t-30.5 -15.5t-25 -20.5t-19 -20z" />
<glyph unicode="&#x2000;" horiz-adv-x="924" />
<glyph unicode="&#x2001;" horiz-adv-x="1848" />
<glyph unicode="&#x2002;" horiz-adv-x="924" />
<glyph unicode="&#x2003;" horiz-adv-x="1848" />
<glyph unicode="&#x2004;" horiz-adv-x="616" />
<glyph unicode="&#x2005;" horiz-adv-x="462" />
<glyph unicode="&#x2006;" horiz-adv-x="308" />
<glyph unicode="&#x2007;" horiz-adv-x="308" />
<glyph unicode="&#x2008;" horiz-adv-x="231" />
<glyph unicode="&#x2009;" horiz-adv-x="369" />
<glyph unicode="&#x200a;" horiz-adv-x="102" />
<glyph unicode="&#x2010;" horiz-adv-x="884" d="M189 487v90h506v-90h-506z" />
<glyph unicode="&#x2011;" horiz-adv-x="884" d="M189 487v90h506v-90h-506z" />
<glyph unicode="&#x2012;" horiz-adv-x="884" d="M189 487v90h506v-90h-506z" />
<glyph unicode="&#x2013;" horiz-adv-x="1156" d="M189 487v90h778v-90h-778z" />
<glyph unicode="&#x2014;" horiz-adv-x="1767" d="M189 487v90h1389v-90h-1389z" />
<glyph unicode="&#x2018;" horiz-adv-x="398" d="M87 1177q0 53 18.5 98t47 80.5t61.5 62t61 42.5l51 -61q-19 -14 -41.5 -34t-41.5 -45.5t-31.5 -57.5t-12.5 -71q0 -33 7 -61t18 -51t24 -41t25 -31l-113 -30q-9 9 -21.5 26t-24 42t-19.5 58.5t-8 73.5z" />
<glyph unicode="&#x2019;" horiz-adv-x="398" d="M52 1037q19 14 41.5 34t41.5 45.5t31.5 57.5t12.5 71q0 33 -7 61t-18 51.5t-24 41.5t-25 30l113 30q9 -9 21.5 -26t24 -42t19.5 -58t8 -74q0 -53 -18.5 -98t-47 -80.5t-61 -62t-61.5 -42.5z" />
<glyph unicode="&#x201a;" horiz-adv-x="383" d="M37 -263q19 14 41 34t41 45.5t32 57.5t13 71q0 33 -7 61t-18 51.5t-24 41.5t-25 30l113 30q9 -9 21.5 -26t24 -42t19.5 -58.5t8 -73.5q0 -53 -18.5 -98t-47 -80.5t-61.5 -61.5t-62 -42z" />
<glyph unicode="&#x201c;" horiz-adv-x="724" d="M90 1180q0 53 18.5 98t47 80.5t61.5 62t62 42.5l47 -59q-19 -14 -41 -34t-41.5 -46.5t-32.5 -58.5t-13 -71q0 -33 7 -61t18 -51.5t24 -41.5t25 -31l-109 -29q-9 9 -21.5 26t-24 42t-19.5 58.5t-8 73.5zM414 1180q0 53 18.5 98t46.5 80t61 61t61 42l48 -59 q-19 -14 -41.5 -34t-41.5 -45.5t-32 -57.5t-13 -71q0 -33 7 -61t18 -51t24 -41t25 -31l-108 -29q-9 8 -21.5 25t-24 42t-19.5 58.5t-8 73.5z" />
<glyph unicode="&#x201d;" horiz-adv-x="724" d="M40 1038q19 14 41.5 33.5t41.5 45.5t32 58t13 71q0 33 -7 61t-18 51t-24 41t-25 31l108 29q9 -9 21.5 -26t24 -42t19.5 -58t8 -74q0 -53 -18.5 -98t-46.5 -80t-61 -61t-61 -41zM363 1036q19 14 41 34t41.5 46.5t32.5 58.5t13 71q0 33 -7 61t-18 51.5t-24 41.5t-25 30 l109 30q9 -9 21.5 -26t24 -42.5t19.5 -58.5t8 -74q0 -53 -18.5 -98t-47 -80.5t-61.5 -61.5t-62 -42z" />
<glyph unicode="&#x201e;" horiz-adv-x="702" d="M32 -263q19 14 41.5 34t41.5 45.5t32 57.5t13 71q0 33 -7 61t-18 51.5t-24 41.5t-25 30l108 30q9 -9 21.5 -26t24 -42t19.5 -58.5t8 -73.5q0 -53 -18.5 -98t-46.5 -80t-61 -61t-61 -42zM355 -265q19 14 41 34t41.5 46.5t32.5 58.5t13 71q0 33 -7 61t-18 51.5t-24 41.5 t-25 31l109 29q9 -9 21.5 -26t24 -42t19.5 -58.5t8 -73.5q0 -53 -18.5 -98t-47 -80.5t-61.5 -61.5t-62 -42z" />
<glyph unicode="&#x2022;" horiz-adv-x="552" d="M144 680q0 35 12.5 65t34 51.5t51 34t63.5 12.5q29 0 54.5 -11.5t45.5 -32t31.5 -47t11.5 -56.5q0 -36 -12.5 -66t-34 -52.5t-50.5 -35t-63 -12.5q-29 0 -55 12t-46 33t-31.5 48t-11.5 57z" />
<glyph unicode="&#x2026;" horiz-adv-x="1153" d="M124 61q0 38 25 63.5t62 25.5q32 0 55.5 -23.5t23.5 -56.5q0 -38 -25.5 -64t-62.5 -26q-32 0 -55 24.5t-23 56.5zM493 61q0 38 25.5 63.5t62.5 25.5q31 0 54.5 -23.5t23.5 -56.5q0 -38 -25 -64t-62 -26q-32 0 -55.5 24.5t-23.5 56.5zM863 61q0 38 25 63.5t62 25.5 q32 0 55.5 -23.5t23.5 -56.5q0 -38 -25.5 -64t-62.5 -26q-32 0 -55 24.5t-23 56.5z" />
<glyph unicode="&#x202f;" horiz-adv-x="369" />
<glyph unicode="&#x2039;" horiz-adv-x="720" d="M124 512q51 50 100.5 106.5t96.5 115t90.5 118t81.5 114.5l83 -60q-63 -97 -146 -198t-180 -196q97 -96 180.5 -197t145.5 -197l-83 -60q-37 55 -80.5 114t-91 118t-97.5 115.5t-100 106.5z" />
<glyph unicode="&#x203a;" horiz-adv-x="720" d="M96 118q63 96 145.5 197.5t179.5 196.5q-97 95 -180 196t-145 198l83 60q38 -55 81.5 -114.5t90.5 -118.5t97 -115t100 -106q-51 -50 -100.5 -106.5t-97 -115t-90.5 -117.5t-81 -115z" />
<glyph unicode="&#x205f;" horiz-adv-x="462" />
<glyph unicode="&#x20ac;" horiz-adv-x="1386" d="M168 490v88h793v-88h-541q22 -97 67.5 -173.5t113.5 -129.5t157.5 -81t199.5 -28q74 0 137.5 14t114.5 34l33 -83q-60 -29 -141.5 -46t-166.5 -17q-132 0 -240 36.5t-189 103.5t-134.5 161t-76.5 209h-127zM168 754v88h127q24 113 76.5 206.5t131.5 160.5t182.5 104 t229.5 37q48 0 93.5 -7t83.5 -17.5t67 -21t44 -18.5l-38 -81q-16 6 -42 14t-59 15.5t-72 12.5t-83 5q-93 0 -174.5 -26.5t-145.5 -78.5t-108.5 -128.5t-64.5 -176.5h545v-88h-793z" />
<glyph unicode="&#x2122;" horiz-adv-x="757" d="M70 1295v55h240v-55h-89v-271h-60v271h-91zM354 1024v326h97l69 -242l69 242h97v-326h-60v249l-80 -249h-54l-78 249v-249h-60z" />
<glyph unicode="&#x25fc;" horiz-adv-x="1025" d="M0 0v1025h1025v-1025h-1025z" />
</font>
</defs>
</svg>
