<svg id="Layer_1" xmlns="http://www.w3.org/2000/svg" viewBox="0 0 44 44"><style>.st0{fill:#77962E;}</style><path class="st0" d="M22 44C9.9 44 0 34.1 0 22 0 9.8 9.9 0 22 0s22 9.8 22 22c0 12.1-9.8 22-22 22zm0-41.3C11.4 2.7 2.8 11.4 2.8 22S11.4 41.2 22 41.2 41.2 32.6 41.2 22 32.6 2.7 22 2.7zm10.9 19.4c0 .7-.6 1.3-1.4 1.4h-8.3v8.2c0 .7-.6 1.3-1.3 1.3-.7 0-1.3-.6-1.3-1.3v-8.2h-8.3c-.7 0-1.3-.6-1.4-1.4 0-.7.6-1.3 1.4-1.4l8.3.1v-8.2c0-.7.6-1.3 1.3-1.3.7 0 1.3.6 1.3 1.3l.1 8.2h8.3c.7-.1 1.3.6 1.3 1.3z"/></svg>