<svg xmlns="http://www.w3.org/2000/svg" viewBox="0 0 304.1 51"><style>.st0{fill:#FFFFFF;}</style><g id="Layer_3"><path class="st0" d="M8.1 33.7c.4.2 1 .5 1.6.7.6.3 1.3.5 2.1.7.8.2 1.6.4 2.4.5.9.1 1.7.2 2.6.2 2.2 0 4-.4 5.2-1.2 1.2-.8 1.8-1.9 1.8-3.4 0-.7-.1-1.3-.3-1.8-.2-.5-.5-1-1-1.5-.4-.4-1-.9-1.7-1.3s-1.6-.9-2.6-1.3l-4.1-1.7c-1.1-.5-2.2-1-3.1-1.6-.9-.6-1.7-1.3-2.3-2.1-.6-.8-1.1-1.7-1.4-2.7-.3-1-.5-2.1-.5-3.3 0-1.5.3-2.9 1-4.2.7-1.2 1.5-2.3 2.6-3.2 1.1-.9 2.4-1.5 3.8-2 1.6-.2 3.2-.5 4.8-.5 1.1 0 2.1.1 3 .2.9.1 1.8.3 2.6.6.8.2 1.5.5 2.1.7.7.3 1.3.5 1.8.8l-1.2 4.5c-.5-.2-1-.4-1.7-.6-.6-.2-1.3-.4-2-.6-.7-.2-1.4-.3-2.2-.4-.7-.1-1.5-.2-2.2-.2-1 0-1.9.1-2.7.4-.8.2-1.4.6-2 1-.5.4-.9.9-1.2 1.5-.3.6-.4 1.2-.4 1.9s.1 1.3.3 1.8c.2.5.5 1 .8 1.4.4.4.9.8 1.5 1.2.6.4 1.4.7 2.2 1.1l4.3 1.9c2.6 1.2 4.6 2.6 5.9 4.1 1.3 1.6 1.9 3.5 2 5.8 0 1.6-.3 2.9-.9 4.2-.6 1.2-1.4 2.2-2.5 3.1-1.1.8-2.5 1.5-4.1 1.9-1.6.4-3.4.7-5.5.7-1.1 0-2.1-.1-3.2-.2-1-.1-2-.3-2.9-.6-.9-.3-1.7-.5-2.4-.8-.7-.3-1.3-.6-1.8-.9l1.5-4.8zM32.4 4.2c0-1.1.3-2 1-2.7.7-.7 1.6-1 2.6-1 .5 0 .9.1 1.3.3.4.2.8.4 1.1.7.3.3.5.7.7 1.1.2.4.3.9.3 1.3 0 1.1-.3 2.1-1 2.7-.7.7-1.6 1-2.6 1-.5 0-.9-.1-1.3-.3-.4-.2-.8-.4-1.1-.7-.3-.3-.5-.7-.7-1.1-.2-.4-.3-.8-.3-1.3zm6.4 8.6v27.5h-5.7V12.8h5.7zM47.6 12.8l.6 3.2c.6-.5 1.2-1 1.9-1.5s1.4-.9 2.1-1.2c.7-.3 1.5-.6 2.3-.8.8-.2 1.6-.3 2.4-.3 3.5 0 6 1.3 7.4 3.9 1.6-1.4 3.2-2.4 4.8-3 1.6-.6 3.1-.9 4.6-.9 2.8 0 5 .8 6.5 2.5 1.5 1.6 2.2 4.1 2.2 7.5v18.1h-5.7V23.1c0-4-1.6-5.9-4.7-5.9-.9 0-1.9.2-3 .7-1.1.4-2.3 1.1-3.4 2v20.4h-5.7V23.1c0-4-1.6-5.9-4.7-5.9-.5 0-1 .1-1.6.2-.6.1-1.1.3-1.7.6-.6.2-1.1.5-1.7.9-.5.3-1 .7-1.4 1.1v20.4h-5.7V12.8h4.5zM90.8 12.8l.6 3c.4-.4.9-.8 1.5-1.2.6-.4 1.2-.8 1.9-1.1.7-.3 1.4-.6 2.2-.8.8-.2 1.7-.3 2.6-.3 1.8 0 3.3.3 4.8 1 1.4.7 2.6 1.6 3.6 2.9 1 1.2 1.8 2.7 2.3 4.4.5 1.7.8 3.7.8 5.8 0 2.1-.3 4.1-1 5.8-.7 1.8-1.6 3.3-2.8 4.6-1.2 1.3-2.6 2.3-4.2 3-1.6.7-3.4 1.1-5.4 1.1-1 0-1.9-.1-2.9-.4-1-.2-1.9-.6-2.8-1V51h-5.7V12.8h4.5zm1.3 22.1c.7.4 1.5.7 2.5.9.9.2 2 .4 3 .4 1.2 0 2.2-.2 3.1-.7.9-.5 1.7-1.1 2.4-2 .7-.8 1.2-1.8 1.5-3 .4-1.2.5-2.4.5-3.8 0-1.5-.2-2.8-.5-4-.3-1.2-.8-2.2-1.4-3.1-.6-.9-1.3-1.5-2.2-2-.9-.5-1.8-.7-2.9-.7-.6 0-1.2.1-1.8.2-.6.1-1.1.3-1.7.5-.5.2-1 .5-1.5.8-.5.3-.8.7-1.2 1.1v15.4zM120.4.5v39.8h-5.7V1.1l5.7-.6zM129.8 27.8c.1 2.7.9 4.8 2.3 6.2 1.4 1.4 3.4 2.1 5.9 2.1 1.4 0 2.6-.1 3.9-.4 1.2-.3 2.3-.6 3.1-.9l1.3 4.2c-.4.2-1 .4-1.6.7-.6.2-1.3.4-2.1.6-.8.2-1.6.3-2.5.5-.9.1-1.8.2-2.8.2-2.1 0-3.9-.3-5.6-1-1.6-.7-3-1.6-4.2-2.9-1.2-1.2-2-2.7-2.7-4.4-.6-1.7-.9-3.6-.9-5.7 0-2.2.3-4.2.9-6 .6-1.8 1.5-3.3 2.6-4.6 1.1-1.3 2.5-2.3 4.1-3 1.6-.7 3.4-1 5.5-1 1.6 0 3.1.2 4.4.7 1.3.5 2.4 1.2 3.2 2 .9.9 1.5 2 2 3.2.5 1.3.7 2.7.7 4.2 0 1.1-.1 2.1-.3 3.1-.2 1-.4 1.7-.6 2.3h-16.6zm6.6-11.1c-1 0-1.9.2-2.7.5-.8.3-1.5.8-2 1.5-.6.6-1 1.4-1.3 2.4-.3.9-.5 2-.6 3.1h11.7c.1-.3.1-.7.2-1v-1.1c0-1.7-.5-3.1-1.5-4-.8-1-2.1-1.4-3.8-1.4zM159.4 4.6h5.7v35.8h-5.7V4.6zM175.1 12.8l.6 3.2c.6-.5 1.2-1 1.9-1.5.7-.4 1.4-.8 2.2-1.2.8-.3 1.5-.6 2.3-.8.8-.2 1.6-.3 2.5-.3 2.9 0 5.2.8 6.7 2.5 1.5 1.6 2.2 4.1 2.2 7.5v18.1h-5.7V23.1c0-4-1.6-5.9-4.9-5.9-.5 0-1 .1-1.6.2-.6.1-1.2.3-1.8.6-.6.2-1.2.5-1.7.9-.6.3-1 .7-1.5 1.1v20.4h-5.7V12.8h4.5zM221.4 12.8l-10.5 27.5h-6.1l-10.5-27.5h6.1l7.4 21.1 1-2.6 6.4-18.5h6.2zM233.5 40.9c-2 0-3.7-.3-5.3-1-1.6-.7-3-1.6-4.1-2.9s-2-2.7-2.6-4.4c-.6-1.7-.9-3.6-.9-5.7 0-2.2.3-4.1.9-5.9.6-1.8 1.5-3.3 2.7-4.6 1.2-1.3 2.6-2.3 4.2-3 1.6-.7 3.5-1 5.5-1s3.8.3 5.3 1c1.6.7 3 1.6 4.1 2.9 1.1 1.2 2 2.7 2.6 4.4s.9 3.6.9 5.7c0 2.2-.3 4.1-.9 5.9-.6 1.8-1.5 3.3-2.7 4.6-1.2 1.3-2.6 2.3-4.2 3-1.6.6-3.4 1-5.5 1zm.4-4.5c1.1 0 2.1-.2 3-.7.9-.5 1.6-1.1 2.2-2 .6-.8 1.1-1.9 1.4-3.1.3-1.2.5-2.5.5-4s-.2-2.9-.5-4.2c-.3-1.2-.8-2.3-1.4-3.2-.6-.9-1.4-1.5-2.3-2-.9-.5-2-.7-3.1-.7s-2.1.2-3 .7c-.9.5-1.6 1.1-2.2 2-.6.9-1.1 1.9-1.4 3.1s-.5 2.5-.5 4 .2 2.9.5 4.2c.3 1.2.8 2.3 1.4 3.2.6.9 1.4 1.6 2.3 2 .8.5 1.9.7 3.1.7zM249.6 4.2c0-1.1.3-2 1-2.7.7-.7 1.6-1 2.6-1 .5 0 .9.1 1.3.3.4.2.8.4 1.1.7.3.3.5.7.7 1.1.2.4.3.9.3 1.3 0 1.1-.3 2.1-1 2.7-.7.7-1.6 1-2.6 1-.5 0-.9-.1-1.3-.3-.4-.2-.8-.4-1.1-.7-.3-.3-.5-.7-.7-1.1-.2-.4-.3-.8-.3-1.3zm6.4 8.6v27.5h-5.7V12.8h5.7zM265.3 26.4c0 1.5.2 2.9.6 4.1.4 1.2.9 2.2 1.6 3 .7.8 1.6 1.5 2.6 1.9 1 .4 2.2.7 3.5.7 1.1 0 2.2-.1 3.2-.4 1-.3 1.9-.5 2.7-.9l1.3 4.1c-.9.5-2.1 1-3.5 1.3-1.4.4-2.9.6-4.6.6-2 0-3.9-.3-5.5-1s-3-1.6-4.2-2.9c-1.2-1.2-2.1-2.7-2.7-4.4-.6-1.7-1-3.6-1-5.7 0-2.2.3-4.2 1-6 .7-1.8 1.6-3.3 2.8-4.6 1.2-1.3 2.6-2.3 4.3-3 1.7-.7 3.6-1 5.7-1 1.6 0 3 .2 4.2.6 1.3.4 2.3.8 3 1.2l-1.4 4.1c-.6-.2-1.4-.5-2.4-.7-1-.3-2-.4-3.3-.4-1.3 0-2.4.2-3.4.6-1 .4-1.8 1-2.5 1.9-.7.8-1.2 1.8-1.6 2.9-.2 1.2-.4 2.5-.4 4zM286.6 27.8c.1 2.7.9 4.8 2.3 6.2 1.4 1.4 3.4 2.1 5.9 2.1 1.4 0 2.6-.1 3.9-.4 1.2-.3 2.3-.6 3.1-.9l1.3 4.2c-.4.2-1 .4-1.6.7-.6.2-1.3.4-2.1.6-.8.2-1.6.3-2.5.5-.9.1-1.8.2-2.8.2-2.1 0-3.9-.3-5.6-1-1.6-.7-3-1.6-4.2-2.9-1.2-1.2-2-2.7-2.7-4.4-.6-1.7-.9-3.6-.9-5.7 0-2.2.3-4.2.9-6 .6-1.8 1.5-3.3 2.6-4.6 1.1-1.3 2.5-2.3 4.1-3 1.6-.7 3.4-1 5.5-1 1.6 0 3.1.2 4.4.7 1.3.5 2.4 1.2 3.2 2 .9.9 1.5 2 2 3.2.5 1.3.7 2.7.7 4.2 0 1.1-.1 2.1-.3 3.1-.2 1-.4 1.7-.6 2.3h-16.6zm6.7-11.1c-1 0-1.9.2-2.7.5-.8.3-1.5.8-2 1.5-.6.6-1 1.4-1.3 2.4-.3.9-.5 2-.6 3.1h11.7c.1-.3.1-.7.2-1v-1.1c0-1.7-.5-3.1-1.5-4-.9-1-2.2-1.4-3.8-1.4z"/><path class="st0" d="M3.9 18c.2 0 .4-.2.4-.4 0 0-.1-2.9-.1-4.3 0-1.7.4-3.3 1.1-4.7C6 7.2 7 6 8.2 5s2.7-1.7 4.3-2.3c1.1-.4 3.1-.6 3.1-.6.2 0 .4-.2.4-.4V.4c0-.2-.2-.4-.4-.4H.4C.2 0 0 .2 0 .4v17.3c0 .1.2.3.4.3h3.5z"/></g></svg>