<svg id="Layer_1" xmlns="http://www.w3.org/2000/svg" viewBox="0 0 25.2 29.9"><style>.st0{fill:#FFFFFF;}</style><path class="st0" d="M6.3 13.1h12.6v1H6.3v-1zM6.3 17.3h12.6v1H6.3v-1zM6.3 21.5h8.4v1H6.3v-1z"/><path class="st0" d="M15.7 2.6C15.4 1.1 14.1 0 12.6 0S9.7 1.1 9.5 2.6H0v27.3h25.2V2.6h-9.5zM10.5 5V3.1c0-1.1.9-2.1 2.1-2.1s2.1.9 2.1 2.1V5l.5.3c1 .6 1.8 1.5 2.3 2.5H7.7c.4-1 1.2-1.9 2.3-2.5l.5-.3zm13.6 23.8h-23V3.7h8.4v.7C7.8 5.4 6.6 7 6.3 8.9h12.6c-.3-1.9-1.5-3.6-3.1-4.5v-.7h8.4c-.1 0-.1 25.1-.1 25.1z"/></svg>