<svg id="Layer_1" xmlns="http://www.w3.org/2000/svg" viewBox="0 0 30.6 28.9"><style>.st0{fill:#8C8C8C;}</style><path class="st0" d="M27.8 13.3h-.6c-.8-2.1-2.4-3.8-4.5-5.1 0-2.8.3-3.5.9-5.3-2.2.3-4.4 1.7-5.5 3.6-.7-.2-1.5-.2-2.2-.3 0-.4.1-.9.1-1.4C16 2.1 13.9 0 11.2 0S6.4 2.1 6.4 4.8c0 1.3.5 2.5 1.4 3.4-2.1 1.2-3.7 2.9-4.5 5-1.4-.5-2.2-1.3-2.2-2.3 0-1.1.9-2.1 1.7-2.4l-.3-1C1.1 7.8 0 9.3 0 10.7c0 .9.4 2.5 2.9 3.4-.2.7-.3 1.4-.3 2.1 0 2.7 1.3 5.1 3.5 6.9L5.5 25c-.4 1.3.2 2.6 1.5 3l1.5.5c.3.1.5.2.8.2 1 0 1.9-.6 2.3-1.6L12 26c1.1.2 2.1.4 3.3.4.7 0 1.5-.1 2.2-.2l.6 1.3c.4.9 1.3 1.3 2.2 1.3.4 0 .7-.1 1.1-.3l1.4-.7c1.2-.6 1.7-2 1.1-3.2l-.4-.8c1.4-1 2.6-2.2 3.4-3.6H28c1.4 0 2.6-1.2 2.6-2.6v-1.7c-.2-1.4-1.4-2.6-2.8-2.6zM7.5 4.8c0-2.1 1.7-3.7 3.7-3.7s3.7 1.7 3.7 3.7c0 .5-.1 1-.3 1.5-2.1.1-4.1.6-5.8 1.4C8 7 7.5 6 7.5 4.8zm21.8 12.9c0 .9-.7 1.5-1.5 1.5h-1.7l-.3.5c-.7 1.2-1.7 2.3-3 3.3l-.8.5.4.8.4.8c.3.6.1 1.5-.6 1.8l-1.4.6c-.2.1-.4.2-.6.2-.5 0-1-.3-1.2-.7l-.6-1.3-.4-.7-.8.1c-.7.1-1.4.2-2 .2-1 0-2.1-.1-3.1-.3l-.9-.2-.3.9-.4 1.2c-.2.5-.7.9-1.3.9-.2 0-.3 0-.4-.1l-1.5-.5c-.7-.3-1.1-1-.8-1.7l.6-1.9.3-.7-.6-.5c-2-1.7-3.1-3.8-3.1-6.1 0-4.9 5.2-9 11.5-9 .9 0 1.8.1 2.6.2l.7.2.4-.7c.6-1.1 1.8-2 3-2.6-.2.9-.3 1.9-.4 3.7v.6l.5.3c1.9 1.2 3.4 2.8 4.1 4.6l.3.7h1.3c.9 0 1.5.7 1.5 1.5l.1 1.9z"/><path class="st0" d="M23.5 14.1c0 .7-.6 1.3-1.3 1.3s-1.3-.6-1.3-1.3.6-1.3 1.3-1.3 1.3.6 1.3 1.3z"/></svg>