<svg id="Layer_1" xmlns="http://www.w3.org/2000/svg" viewBox="0 0 22.7 27"><style>.st0{fill:#FFFFFF;}</style><path class="st0" d="M21.5 3.4h-5.3V2.3c0-1.2-1-2.1-2.1-2.1H8.7c-1.2 0-2.1 1-2.1 2.1v1.1H1.2v1.1h1.1l1.1 20.3c0 1.2 1 2.1 2.1 2.1h11.7c1.2 0 2.1-1 2.1-2.1l1-20.3h1.1l.1-1.1zM7.6 2.3c0-.6.5-1.1 1.1-1.1H14c.6 0 1.1.5 1.1 1.1v1.1H7.6V2.3zm10.7 22.3c0 .6-.5 1.1-1.1 1.1H5.5c-.6 0-1.1-.5-1.1-1.1l-1-20.2h16l-1.1 20.2z"/><path class="st0" d="M10.8 6.6h1.1v17.1h-1.1V6.6zM8.7 23.6l-1.1-17h-1l1.1 17h1zM16.2 6.6l-1.1-.1L14 23.6l1.1.1 1.1-17.1z"/></svg>